<?xml version="1.0" encoding="UTF-8"?>
<svg xmlns="http://www.w3.org/2000/svg" xmlns:xlink="http://www.w3.org/1999/xlink" width="29pt" height="25pt" viewBox="0 0 29 25" version="1.1">
<defs>
<clipPath id="clip1">
  <rect width="1" height="1"/>
</clipPath>
<g id="surface6" clip-path="url(#clip1)">
<path style=" stroke:none;fill-rule:nonzero;fill:rgb(7.45098%,12.156863%,40.392157%);fill-opacity:1;" d="M 0.5 0.125 L 0.402344 0.273438 L 0.46875 0.433594 L 0.296875 0.386719 L 0.15625 0.5 L 0.152344 0.324219 L 0 0.230469 L 0.167969 0.167969 L 0.210938 0 L 0.320312 0.136719 Z M 0.5 0.125 "/>
<path style=" stroke:none;fill-rule:nonzero;fill:rgb(7.45098%,12.156863%,40.392157%);fill-opacity:1;" d="M 0.492188 0.75 L 0.332031 0.828125 L 0.308594 1 L 0.183594 0.875 L 0.0078125 0.902344 L 0.0898438 0.75 L 0.0078125 0.59375 L 0.183594 0.625 L 0.308594 0.5 L 0.332031 0.671875 Z M 0.492188 0.75 "/>
<path style=" stroke:none;fill-rule:nonzero;fill:rgb(7.45098%,12.156863%,40.392157%);fill-opacity:1;" d="M 1 0.125 L 0.902344 0.273438 L 0.96875 0.433594 L 0.796875 0.386719 L 0.65625 0.5 L 0.652344 0.324219 L 0.5 0.230469 L 0.667969 0.167969 L 0.710938 0 L 0.820312 0.136719 Z M 1 0.125 "/>
<path style=" stroke:none;fill-rule:nonzero;fill:rgb(7.45098%,12.156863%,40.392157%);fill-opacity:1;" d="M 0.992188 0.75 L 0.832031 0.828125 L 0.808594 1 L 0.683594 0.875 L 0.507812 0.902344 L 0.589844 0.75 L 0.507812 0.59375 L 0.683594 0.625 L 0.808594 0.5 L 0.832031 0.671875 Z M 0.992188 0.75 "/>
</g>
<pattern id="pattern0" patternUnits="userSpaceOnUse" width="1" height="1" patternTransform="matrix(-12.013147,12.013147,-12.247889,-12.247889,-254.02376,74.426221)">
<use xlink:href="#surface6"/>
</pattern>
</defs>
<g id="surface1">
<path style="fill-rule:nonzero;fill:rgb(100%,100%,100%);fill-opacity:1;stroke-width:0.996733;stroke-linecap:butt;stroke-linejoin:miter;stroke:rgb(0%,0%,0%);stroke-opacity:1;stroke-miterlimit:4;" d="M 6268.592108 -2746.818163 L 6470.546876 -2746.814515 C 6476.41095 -2746.830823 6481.141116 -2742.073863 6481.152417 -2736.201952 L 6481.136895 -2445.645861 C 6481.148196 -2439.77395 6476.376461 -2434.974597 6470.529496 -2435.017101 L 6268.574729 -2435.02075 C 6262.710654 -2435.004442 6257.92177 -2439.778484 6257.910469 -2445.650395 L 6257.925991 -2736.206486 C 6257.91469 -2742.078397 6262.669315 -2746.818938 6268.592108 -2746.818163 Z M 6268.592108 -2746.818163 " transform="matrix(0.0613338,-0.0178153,0.0178435,0.0612367,-334.94022,283.538983)"/>
<path style=" stroke:none;fill-rule:nonzero;fill:rgb(0%,0%,0%);fill-opacity:1;" d="M 1.210938 6.554688 L 1.183594 6.429688 C 1.105469 6.035156 1.152344 5.882812 1.511719 5.347656 C 1.683594 5.085938 1.734375 4.96875 1.710938 4.855469 C 1.664062 4.585938 1.40625 4.574219 1.25 4.617188 C 1.050781 4.671875 0.863281 4.855469 1.050781 5.101562 L 0.847656 5.230469 C 0.726562 4.988281 0.703125 4.730469 0.878906 4.5625 C 1.117188 4.34375 1.492188 4.292969 1.734375 4.460938 C 1.898438 4.574219 1.988281 4.769531 1.96875 4.949219 C 1.898438 5.414062 1.304688 5.78125 1.390625 6.265625 L 2.101562 6.058594 L 2.027344 5.796875 L 2.234375 5.734375 L 2.378906 6.21875 Z M 1.210938 6.554688 "/>
<path style=" stroke:none;fill-rule:nonzero;fill:rgb(0%,0%,0%);fill-opacity:1;" d="M 17.78125 16.257812 L 17.808594 16.382812 C 17.890625 16.773438 17.84375 16.925781 17.484375 17.464844 C 17.308594 17.722656 17.261719 17.839844 17.285156 17.957031 C 17.328125 18.226562 17.589844 18.238281 17.742188 18.195312 C 17.941406 18.140625 18.132812 17.953125 17.945312 17.710938 L 18.148438 17.582031 C 18.269531 17.824219 18.292969 18.078125 18.113281 18.246094 C 17.875 18.46875 17.503906 18.515625 17.257812 18.347656 C 17.09375 18.238281 17.007812 18.039062 17.027344 17.863281 C 17.097656 17.398438 17.691406 17.03125 17.605469 16.542969 L 16.890625 16.75 L 16.96875 17.011719 L 16.757812 17.074219 L 16.617188 16.589844 Z M 17.78125 16.257812 "/>
<path style=" stroke:none;fill-rule:nonzero;fill:rgb(0%,0%,0%);fill-opacity:1;" d="M 7.867188 6.050781 C 7.832031 5.925781 7.734375 5.953125 7.761719 6.042969 C 7.886719 6.5 7.566406 6.835938 7.269531 6.863281 C 6.8125 6.90625 6.550781 6.519531 6.484375 6.265625 C 6.269531 5.484375 6.886719 4.683594 7.300781 3.484375 C 8.082031 4.230469 9.144531 4.691406 9.398438 5.371094 C 9.734375 6.277344 8.664062 6.960938 8.183594 5.933594 C 8.148438 5.859375 8.050781 5.851562 8.085938 5.953125 C 8.199219 6.242188 8.199219 6.375 8.742188 7.007812 L 7.871094 7.261719 C 7.964844 6.863281 7.960938 6.414062 7.867188 6.050781 Z M 7.867188 6.050781 "/>
<path style=" stroke:none;fill-rule:nonzero;fill:rgb(0%,0%,0%);fill-opacity:1;" d="M 11.007812 16.824219 C 11.042969 16.949219 10.945312 16.980469 10.921875 16.886719 C 10.78125 16.433594 10.332031 16.324219 10.066406 16.457031 C 9.660156 16.664062 9.644531 17.132812 9.722656 17.382812 C 9.960938 18.15625 10.914062 18.503906 11.910156 19.292969 C 12.167969 18.242188 12.816406 17.289062 12.664062 16.578125 C 12.460938 15.632812 11.191406 15.628906 11.335938 16.757812 C 11.347656 16.835938 11.269531 16.894531 11.242188 16.789062 C 11.183594 16.484375 11.113281 16.371094 11.234375 15.546875 L 10.359375 15.800781 C 10.652344 16.085938 10.890625 16.46875 11.007812 16.824219 Z M 11.007812 16.824219 "/>
<path style=" stroke:none;fill-rule:nonzero;fill:rgb(0%,0%,0%);fill-opacity:1;" d="M 2.238281 7.761719 C 2.222656 7.707031 2.175781 7.75 2.171875 7.765625 C 2.136719 7.910156 2.039062 7.96875 1.925781 7.953125 C 1.808594 7.941406 1.722656 7.859375 1.691406 7.722656 C 1.652344 7.503906 1.75 7.226562 1.792969 7.074219 C 1.835938 6.933594 1.878906 6.765625 1.917969 6.5625 C 2.082031 6.738281 2.148438 6.78125 2.316406 6.9375 C 2.464844 7.074219 2.652344 7.195312 2.722656 7.390625 C 2.765625 7.542969 2.742188 7.707031 2.605469 7.773438 C 2.53125 7.8125 2.441406 7.792969 2.355469 7.710938 C 2.332031 7.691406 2.300781 7.714844 2.308594 7.75 C 2.359375 7.875 2.441406 7.976562 2.59375 8.078125 L 2.171875 8.203125 C 2.230469 8.078125 2.28125 7.925781 2.238281 7.761719 Z M 2.238281 7.761719 "/>
<path style=" stroke:none;fill-rule:nonzero;fill:rgb(0%,0%,0%);fill-opacity:1;" d="M 16.839844 15.019531 C 16.859375 15.074219 16.796875 15.066406 16.78125 15.050781 C 16.675781 14.949219 16.5625 14.949219 16.472656 15.023438 C 16.382812 15.097656 16.355469 15.210938 16.402344 15.34375 C 16.484375 15.550781 16.71875 15.730469 16.835938 15.839844 C 16.949219 15.933594 17.074219 16.050781 17.214844 16.203125 C 17.257812 15.96875 17.292969 15.894531 17.351562 15.671875 C 17.402344 15.480469 17.496094 15.277344 17.449219 15.074219 C 17.402344 14.921875 17.296875 14.796875 17.144531 14.8125 C 17.058594 14.820312 16.996094 14.882812 16.96875 15 C 16.957031 15.027344 16.917969 15.027344 16.910156 14.992188 C 16.882812 14.859375 16.898438 14.730469 16.972656 14.5625 L 16.550781 14.683594 C 16.664062 14.753906 16.789062 14.859375 16.839844 15.019531 Z M 16.839844 15.019531 "/>
<path style="fill-rule:nonzero;fill:rgb(100%,100%,100%);fill-opacity:1;stroke-width:1;stroke-linecap:butt;stroke-linejoin:miter;stroke:rgb(0%,0%,0%);stroke-opacity:1;stroke-miterlimit:4;" d="M -248.455161 501.822605 L -47.497408 501.816493 C -41.667253 501.806065 -36.905552 506.562649 -36.901693 512.462965 L -36.869768 801.995672 C -36.865909 807.895987 -41.672208 812.600301 -47.502363 812.61073 L -248.460115 812.616841 C -254.351216 812.62224 -259.112917 807.865655 -259.121815 802.026382 L -259.087756 512.437663 C -259.096653 506.59839 -254.346261 501.828003 -248.455161 501.822605 Z M -248.455161 501.822605 " transform="matrix(0.0636602,-0.00524637,0.00525469,0.0635594,17.61727,-31.949008)"/>
<path style="fill:none;stroke-width:4.952383;stroke-linecap:round;stroke-linejoin:miter;stroke:rgb(7.45098%,12.156863%,40.392157%);stroke-opacity:1;stroke-miterlimit:4;" d="M -246.507256 513.906302 L -49.475224 513.883441 L -49.450267 800.527033 L -246.543245 800.544863 Z M -246.507256 513.906302 " transform="matrix(0.0636602,-0.00524637,0.00525469,0.0635594,17.61727,-31.949008)"/>
<path style="fill-rule:nonzero;fill:url(#pattern0);stroke-width:1;stroke-linecap:round;stroke-linejoin:miter;stroke:rgb(7.45098%,12.156863%,40.392157%);stroke-opacity:1;stroke-miterlimit:4;" d="M -242.16258 517.768047 L -53.845308 517.763345 L -53.855889 796.660257 L -242.112215 796.66999 Z M -242.16258 517.768047 " transform="matrix(0.0636602,-0.00524637,0.00525469,0.0635594,17.61727,-31.949008)"/>
<path style="fill-rule:nonzero;fill:rgb(100%,100%,100%);fill-opacity:1;stroke-width:0.996733;stroke-linecap:butt;stroke-linejoin:miter;stroke:rgb(0%,0%,0%);stroke-opacity:1;stroke-miterlimit:4;" d="M 6045.312051 -2746.820358 L 6247.307982 -2746.789066 C 6253.189694 -2746.805956 6257.920638 -2742.046537 6257.94043 -2736.15596 L 6257.915107 -2445.6203 C 6257.934899 -2439.729724 6253.184988 -2434.994025 6247.303276 -2434.977134 L 6045.307345 -2435.008426 C 6039.486008 -2435.001262 6034.694689 -2439.750956 6034.674897 -2445.641532 L 6034.70022 -2736.177192 C 6034.680428 -2742.067769 6039.430339 -2746.803468 6045.312051 -2746.820358 Z M 6045.312051 -2746.820358 " transform="matrix(0.0630636,0.0101428,-0.0101589,0.0629638,-398.89412,112.282061)"/>
<path style=" stroke:none;fill-rule:nonzero;fill:rgb(83.137255%,0%,0%);fill-opacity:1;" d="M 9.570312 3.515625 L 9.597656 3.34375 L 9.765625 3.371094 L 10.417969 1.585938 L 10.621094 1.617188 L 10.71875 3.523438 L 10.855469 3.546875 L 10.828125 3.71875 L 10.363281 3.644531 L 10.394531 3.472656 L 10.515625 3.492188 L 10.511719 3.199219 L 10.046875 3.125 L 9.964844 3.402344 L 10.089844 3.421875 L 10.0625 3.59375 Z M 10.507812 2.992188 L 10.460938 1.972656 L 10.113281 2.929688 Z M 10.507812 2.992188 "/>
<path style=" stroke:none;fill-rule:nonzero;fill:rgb(83.137255%,0%,0%);fill-opacity:1;" d="M 20.503906 19.464844 L 20.472656 19.636719 L 20.308594 19.609375 L 19.652344 21.394531 L 19.449219 21.363281 L 19.351562 19.457031 L 19.21875 19.433594 L 19.246094 19.261719 L 19.707031 19.335938 L 19.679688 19.507812 L 19.554688 19.488281 L 19.558594 19.777344 L 20.023438 19.855469 L 20.105469 19.578125 L 19.980469 19.558594 L 20.007812 19.386719 Z M 19.566406 19.988281 L 19.609375 21.007812 L 19.957031 20.050781 Z M 19.566406 19.988281 "/>
<path style=" stroke:none;fill-rule:nonzero;fill:rgb(83.137255%,0%,0%);fill-opacity:1;" d="M 9.484375 4.449219 C 9.421875 4.214844 9.46875 3.839844 9.777344 3.839844 C 10.007812 3.84375 10.082031 3.964844 10.074219 4.128906 C 10.074219 4.175781 10.101562 4.183594 10.117188 4.128906 C 10.15625 3.96875 10.335938 3.898438 10.457031 3.945312 C 10.796875 4.058594 10.714844 4.4375 10.558594 4.679688 C 10.332031 4.996094 10.117188 5.1875 9.894531 5.507812 C 9.757812 5.113281 9.589844 4.785156 9.484375 4.449219 Z M 9.484375 4.449219 "/>
<path style=" stroke:none;fill-rule:nonzero;fill:rgb(83.137255%,0%,0%);fill-opacity:1;" d="M 14.566406 9.558594 C 15.023438 9.601562 15.195312 10.023438 15.191406 10.332031 C 15.210938 10.386719 15.230469 10.375 15.246094 10.339844 C 15.332031 9.953125 15.730469 9.691406 16.046875 9.785156 C 16.570312 9.878906 16.796875 10.511719 16.625 10.992188 C 16.417969 11.578125 16.035156 11.890625 15.726562 12.222656 C 15.386719 12.566406 14.921875 13.066406 14.757812 13.316406 C 14.757812 13.316406 14.46875 12.675781 14.082031 11.914062 C 13.824219 11.402344 13.636719 10.867188 13.683594 10.4375 C 13.734375 9.949219 14.003906 9.542969 14.566406 9.558594 Z M 14.566406 9.558594 "/>
<path style=" stroke:none;fill-rule:nonzero;fill:rgb(83.137255%,0%,0%);fill-opacity:1;" d="M 19.429688 18.367188 C 19.292969 18.570312 19.222656 18.941406 19.511719 19.039062 C 19.730469 19.105469 19.839844 19.015625 19.882812 18.859375 C 19.902344 18.8125 19.929688 18.816406 19.925781 18.871094 C 19.914062 19.035156 20.0625 19.15625 20.191406 19.15625 C 20.550781 19.152344 20.59375 18.765625 20.519531 18.488281 C 20.402344 18.113281 20.257812 17.867188 20.148438 17.492188 C 19.898438 17.824219 19.632812 18.082031 19.429688 18.367188 Z M 19.429688 18.367188 "/>
<path style="fill-rule:nonzero;fill:rgb(100%,100%,100%);fill-opacity:1;stroke-width:0.996733;stroke-linecap:butt;stroke-linejoin:miter;stroke:rgb(0%,0%,0%);stroke-opacity:1;stroke-miterlimit:4;" d="M 6715.045731 -2746.795926 L 6917.016755 -2746.79658 C 6922.855936 -2746.791239 6927.619676 -2742.082387 6927.644669 -2736.180257 L 6927.631674 -2445.658807 C 6927.600286 -2439.732995 6922.821942 -2435.00208 6916.982761 -2435.007421 L 6715.011736 -2435.006768 C 6709.172555 -2435.012108 6704.385095 -2439.777431 6704.383822 -2445.62309 L 6704.373097 -2736.201011 C 6704.371824 -2742.04667 6709.126449 -2746.834055 6715.045731 -2746.795926 Z M 6715.045731 -2746.795926 " transform="matrix(0.0588922,0.0246982,-0.0247374,0.0587989,-446.740334,-2.735358)"/>
<path style=" stroke:none;fill-rule:nonzero;fill:rgb(0%,0%,0%);fill-opacity:1;" d="M 15.980469 4.523438 L 16.050781 4.355469 L 16.203125 4.421875 L 16.316406 4.148438 L 15.558594 3.828125 L 15.636719 3.636719 L 16.984375 2.742188 L 17.117188 2.796875 L 16.597656 4.039062 L 16.828125 4.136719 L 16.746094 4.328125 L 16.515625 4.230469 L 16.394531 4.5 L 16.523438 4.554688 L 16.453125 4.722656 Z M 16.730469 3.167969 L 15.875 3.738281 L 16.398438 3.957031 Z M 16.730469 3.167969 "/>
<path style=" stroke:none;fill-rule:nonzero;fill:rgb(0%,0%,0%);fill-opacity:1;" d="M 21.609375 22.035156 L 21.539062 22.203125 L 21.386719 22.136719 L 21.273438 22.410156 L 22.03125 22.730469 L 21.953125 22.921875 L 20.605469 23.816406 L 20.472656 23.757812 L 20.992188 22.519531 L 20.761719 22.421875 L 20.84375 22.230469 L 21.074219 22.328125 L 21.195312 22.054688 L 21.066406 22.003906 L 21.136719 21.835938 Z M 20.859375 23.390625 L 21.714844 22.820312 L 21.191406 22.601562 Z M 20.859375 23.390625 "/>
<path style=" stroke:none;fill-rule:nonzero;fill:rgb(0%,0%,0%);fill-opacity:1;" d="M 23.039062 10.042969 C 23.351562 9.773438 23.621094 9.476562 23.800781 9.113281 C 23.878906 8.984375 23.796875 8.949219 23.742188 9.039062 C 23.117188 9.855469 21.945312 9.070312 22.351562 8.226562 C 22.679688 7.542969 23.441406 7.683594 23.707031 8.066406 C 23.816406 8.210938 23.828125 8.15625 23.785156 8.035156 C 23.5 7.210938 24.152344 6.574219 24.886719 6.863281 C 25.65625 7.242188 25.511719 8.15625 24.824219 8.4375 C 24.738281 8.472656 24.527344 8.605469 24.78125 8.558594 C 25.414062 8.414062 25.9375 9.070312 25.699219 9.601562 C 25.257812 10.574219 24.027344 10.144531 24.113281 9.214844 C 24.128906 9.113281 24.074219 9.035156 24.03125 9.199219 C 23.949219 9.492188 23.84375 9.949219 23.898438 10.402344 Z M 23.039062 10.042969 "/>
<path style=" stroke:none;fill-rule:nonzero;fill:rgb(0%,0%,0%);fill-opacity:1;" d="M 17.179688 7.585938 C 17.492188 7.316406 17.761719 7.019531 17.9375 6.65625 C 18.015625 6.527344 17.933594 6.488281 17.882812 6.582031 C 17.253906 7.398438 16.082031 6.613281 16.488281 5.769531 C 16.820312 5.085938 17.578125 5.226562 17.84375 5.605469 C 17.953125 5.75 17.964844 5.699219 17.925781 5.578125 C 17.636719 4.75 18.289062 4.113281 19.023438 4.40625 C 19.792969 4.785156 19.648438 5.695312 18.960938 5.980469 C 18.875 6.015625 18.664062 6.144531 18.921875 6.097656 C 19.554688 5.957031 20.074219 6.613281 19.835938 7.140625 C 19.394531 8.113281 18.164062 7.683594 18.253906 6.753906 C 18.265625 6.652344 18.214844 6.578125 18.167969 6.742188 C 18.085938 7.035156 17.984375 7.488281 18.039062 7.945312 Z M 17.179688 7.585938 "/>
<path style=" stroke:none;fill-rule:nonzero;fill:rgb(0%,0%,0%);fill-opacity:1;" d="M 20.398438 18.738281 C 20.085938 19.007812 19.816406 19.304688 19.640625 19.667969 C 19.5625 19.796875 19.644531 19.832031 19.695312 19.742188 C 20.324219 18.925781 21.496094 19.707031 21.089844 20.554688 C 20.757812 21.238281 20 21.097656 19.734375 20.714844 C 19.625 20.570312 19.613281 20.625 19.652344 20.746094 C 19.941406 21.570312 19.289062 22.207031 18.554688 21.917969 C 17.785156 21.539062 17.929688 20.625 18.617188 20.339844 C 18.703125 20.308594 18.914062 20.175781 18.660156 20.222656 C 18.023438 20.363281 17.503906 19.707031 17.742188 19.179688 C 18.183594 18.207031 19.414062 18.636719 19.324219 19.566406 C 19.3125 19.667969 19.363281 19.746094 19.410156 19.582031 C 19.492188 19.285156 19.597656 18.832031 19.539062 18.378906 Z M 20.398438 18.738281 "/>
<path style=" stroke:none;fill-rule:nonzero;fill:rgb(0%,0%,0%);fill-opacity:1;" d="M 14.539062 16.28125 C 14.226562 16.546875 13.957031 16.84375 13.777344 17.207031 C 13.699219 17.335938 13.78125 17.375 13.835938 17.28125 C 14.460938 16.464844 15.632812 17.25 15.226562 18.09375 C 14.898438 18.777344 14.136719 18.636719 13.871094 18.257812 C 13.761719 18.113281 13.75 18.167969 13.792969 18.285156 C 14.078125 19.113281 13.425781 19.75 12.691406 19.457031 C 11.921875 19.082031 12.066406 18.167969 12.753906 17.882812 C 12.839844 17.851562 13.050781 17.71875 12.796875 17.765625 C 12.164062 17.90625 11.640625 17.25 11.878906 16.722656 C 12.320312 15.75 13.554688 16.179688 13.464844 17.109375 C 13.449219 17.210938 13.503906 17.285156 13.546875 17.125 C 13.628906 16.828125 13.734375 16.375 13.679688 15.917969 Z M 14.539062 16.28125 "/>
<path style=" stroke:none;fill-rule:nonzero;fill:rgb(0%,0%,0%);fill-opacity:1;" d="M 15 6.121094 C 15.132812 6.007812 15.257812 5.902344 15.359375 5.757812 C 15.445312 5.621094 15.375 5.65625 15.304688 5.742188 C 15.203125 5.859375 15.058594 5.871094 14.949219 5.824219 C 14.75 5.746094 14.71875 5.546875 14.792969 5.382812 C 14.847656 5.195312 15.078125 5.148438 15.207031 5.214844 C 15.308594 5.261719 15.371094 5.355469 15.410156 5.421875 C 15.4375 5.453125 15.46875 5.476562 15.4375 5.40625 C 15.382812 5.257812 15.328125 5.15625 15.398438 4.996094 C 15.464844 4.84375 15.660156 4.742188 15.832031 4.820312 C 16.042969 4.914062 16.074219 5.121094 16.007812 5.273438 C 15.960938 5.382812 15.863281 5.460938 15.75 5.488281 C 15.675781 5.511719 15.675781 5.550781 15.757812 5.535156 C 15.839844 5.507812 15.921875 5.515625 16 5.546875 C 16.207031 5.628906 16.210938 5.839844 16.128906 6 C 16.054688 6.148438 15.855469 6.253906 15.691406 6.164062 C 15.542969 6.078125 15.515625 5.914062 15.523438 5.761719 C 15.527344 5.714844 15.507812 5.695312 15.480469 5.753906 C 15.394531 6.066406 15.425781 6.300781 15.425781 6.300781 Z M 15 6.121094 "/>
<path style=" stroke:none;fill-rule:nonzero;fill:rgb(0%,0%,0%);fill-opacity:1;" d="M 22.515625 20.425781 C 22.382812 20.539062 22.257812 20.644531 22.15625 20.789062 C 22.066406 20.925781 22.140625 20.890625 22.210938 20.808594 C 22.308594 20.6875 22.453125 20.675781 22.5625 20.722656 C 22.765625 20.800781 22.796875 21 22.722656 21.164062 C 22.667969 21.351562 22.4375 21.398438 22.304688 21.332031 C 22.207031 21.285156 22.140625 21.191406 22.105469 21.128906 C 22.078125 21.09375 22.046875 21.070312 22.078125 21.140625 C 22.128906 21.289062 22.183594 21.390625 22.117188 21.550781 C 22.050781 21.703125 21.855469 21.804688 21.683594 21.726562 C 21.472656 21.632812 21.441406 21.425781 21.507812 21.273438 C 21.554688 21.164062 21.652344 21.085938 21.765625 21.058594 C 21.839844 21.035156 21.839844 20.996094 21.757812 21.011719 C 21.675781 21.039062 21.589844 21.03125 21.515625 21 C 21.308594 20.917969 21.304688 20.707031 21.382812 20.546875 C 21.460938 20.398438 21.660156 20.292969 21.824219 20.386719 C 21.972656 20.46875 22 20.632812 21.988281 20.785156 C 21.988281 20.832031 22.007812 20.851562 22.03125 20.792969 C 22.121094 20.480469 22.089844 20.246094 22.085938 20.246094 Z M 22.515625 20.425781 "/>
</g>
</svg>
