<?xml version="1.0" encoding="UTF-8"?>
<svg xmlns="http://www.w3.org/2000/svg" xmlns:xlink="http://www.w3.org/1999/xlink" width="29pt" height="25pt" viewBox="0 0 29 25" version="1.1">
<defs>
<clipPath id="clip1">
  <rect width="1" height="1"/>
</clipPath>
<g id="surface6" clip-path="url(#clip1)">
<path style=" stroke:none;fill-rule:nonzero;fill:rgb(7.45098%,12.156863%,40.392157%);fill-opacity:1;" d="M 0.5 0.125 L 0.402344 0.273438 L 0.46875 0.433594 L 0.296875 0.386719 L 0.15625 0.5 L 0.152344 0.324219 L 0 0.230469 L 0.167969 0.167969 L 0.210938 0 L 0.320312 0.136719 Z M 0.5 0.125 "/>
<path style=" stroke:none;fill-rule:nonzero;fill:rgb(7.45098%,12.156863%,40.392157%);fill-opacity:1;" d="M 0.492188 0.75 L 0.332031 0.828125 L 0.308594 1 L 0.183594 0.875 L 0.0078125 0.902344 L 0.0898438 0.75 L 0.0078125 0.59375 L 0.183594 0.625 L 0.308594 0.5 L 0.332031 0.671875 Z M 0.492188 0.75 "/>
<path style=" stroke:none;fill-rule:nonzero;fill:rgb(7.45098%,12.156863%,40.392157%);fill-opacity:1;" d="M 1 0.125 L 0.902344 0.273438 L 0.96875 0.433594 L 0.796875 0.386719 L 0.65625 0.5 L 0.652344 0.324219 L 0.5 0.230469 L 0.667969 0.167969 L 0.710938 0 L 0.820312 0.136719 Z M 1 0.125 "/>
<path style=" stroke:none;fill-rule:nonzero;fill:rgb(7.45098%,12.156863%,40.392157%);fill-opacity:1;" d="M 0.992188 0.75 L 0.832031 0.828125 L 0.808594 1 L 0.683594 0.875 L 0.507812 0.902344 L 0.589844 0.75 L 0.507812 0.59375 L 0.683594 0.625 L 0.808594 0.5 L 0.832031 0.671875 Z M 0.992188 0.75 "/>
</g>
<pattern id="pattern0" patternUnits="userSpaceOnUse" width="1" height="1" patternTransform="matrix(-12.013147,12.013147,-12.247889,-12.247889,-254.02376,74.426221)">
<use xlink:href="#surface6"/>
</pattern>
</defs>
<g id="surface1">
<path style="fill-rule:nonzero;fill:rgb(100%,100%,100%);fill-opacity:1;stroke-width:0.996733;stroke-linecap:butt;stroke-linejoin:miter;stroke:rgb(0%,0%,0%);stroke-opacity:1;stroke-miterlimit:4;" d="M 6268.592108 -2746.818163 L 6470.546876 -2746.814515 C 6476.41095 -2746.830823 6481.141116 -2742.073863 6481.152417 -2736.201952 L 6481.136895 -2445.645861 C 6481.148196 -2439.77395 6476.376461 -2434.974597 6470.529496 -2435.017101 L 6268.574729 -2435.02075 C 6262.710654 -2435.004442 6257.92177 -2439.778484 6257.910469 -2445.650395 L 6257.925991 -2736.206486 C 6257.91469 -2742.078397 6262.669315 -2746.818938 6268.592108 -2746.818163 Z M 6268.592108 -2746.818163 " transform="matrix(0.0613338,-0.0178153,0.0178435,0.0612367,-334.94022,283.538983)"/>
<path style=" stroke:none;fill-rule:nonzero;fill:rgb(0%,0%,0%);fill-opacity:1;" d="M 1.210938 6.554688 L 1.183594 6.429688 C 1.105469 6.035156 1.152344 5.882812 1.511719 5.347656 C 1.683594 5.085938 1.734375 4.96875 1.710938 4.855469 C 1.664062 4.585938 1.40625 4.574219 1.25 4.617188 C 1.050781 4.671875 0.863281 4.855469 1.050781 5.101562 L 0.847656 5.230469 C 0.726562 4.988281 0.703125 4.730469 0.878906 4.5625 C 1.117188 4.34375 1.492188 4.292969 1.734375 4.460938 C 1.898438 4.574219 1.988281 4.769531 1.96875 4.949219 C 1.898438 5.414062 1.304688 5.78125 1.390625 6.265625 L 2.101562 6.058594 L 2.027344 5.796875 L 2.234375 5.734375 L 2.378906 6.21875 Z M 1.210938 6.554688 "/>
<path style=" stroke:none;fill-rule:nonzero;fill:rgb(0%,0%,0%);fill-opacity:1;" d="M 17.78125 16.257812 L 17.808594 16.382812 C 17.890625 16.773438 17.84375 16.925781 17.484375 17.464844 C 17.308594 17.722656 17.261719 17.839844 17.285156 17.957031 C 17.328125 18.226562 17.589844 18.238281 17.742188 18.195312 C 17.941406 18.140625 18.132812 17.953125 17.945312 17.710938 L 18.148438 17.582031 C 18.269531 17.824219 18.292969 18.078125 18.113281 18.246094 C 17.875 18.46875 17.503906 18.515625 17.257812 18.347656 C 17.09375 18.238281 17.007812 18.039062 17.027344 17.863281 C 17.097656 17.398438 17.691406 17.03125 17.605469 16.542969 L 16.890625 16.75 L 16.96875 17.011719 L 16.757812 17.074219 L 16.617188 16.589844 Z M 17.78125 16.257812 "/>
<path style=" stroke:none;fill-rule:nonzero;fill:rgb(0%,0%,0%);fill-opacity:1;" d="M 7.867188 6.050781 C 7.832031 5.925781 7.734375 5.953125 7.761719 6.042969 C 7.886719 6.5 7.566406 6.835938 7.269531 6.863281 C 6.8125 6.90625 6.550781 6.519531 6.484375 6.265625 C 6.269531 5.484375 6.886719 4.683594 7.300781 3.484375 C 8.082031 4.230469 9.144531 4.691406 9.398438 5.371094 C 9.734375 6.277344 8.664062 6.960938 8.183594 5.933594 C 8.148438 5.859375 8.050781 5.851562 8.085938 5.953125 C 8.199219 6.242188 8.199219 6.375 8.742188 7.007812 L 7.871094 7.261719 C 7.964844 6.863281 7.960938 6.414062 7.867188 6.050781 Z M 7.867188 6.050781 "/>
<path style=" stroke:none;fill-rule:nonzero;fill:rgb(0%,0%,0%);fill-opacity:1;" d="M 11.007812 16.824219 C 11.042969 16.949219 10.945312 16.980469 10.921875 16.886719 C 10.78125 16.433594 10.332031 16.324219 10.066406 16.457031 C 9.660156 16.664062 9.644531 17.132812 9.722656 17.382812 C 9.960938 18.15625 10.914062 18.503906 11.910156 19.292969 C 12.167969 18.242188 12.816406 17.289062 12.664062 16.578125 C 12.460938 15.632812 11.191406 15.628906 11.335938 16.757812 C 11.347656 16.835938 11.269531 16.894531 11.242188 16.789062 C 11.183594 16.484375 11.113281 16.371094 11.234375 15.546875 L 10.359375 15.800781 C 10.652344 16.085938 10.890625 16.46875 11.007812 16.824219 Z M 11.007812 16.824219 "/>
<path style=" stroke:none;fill-rule:nonzero;fill:rgb(0%,0%,0%);fill-opacity:1;" d="M 2.238281 7.761719 C 2.222656 7.707031 2.175781 7.75 2.171875 7.765625 C 2.136719 7.910156 2.039062 7.96875 1.925781 7.953125 C 1.808594 7.941406 1.722656 7.859375 1.691406 7.722656 C 1.652344 7.503906 1.75 7.226562 1.792969 7.074219 C 1.835938 6.933594 1.878906 6.765625 1.917969 6.5625 C 2.082031 6.738281 2.148438 6.78125 2.316406 6.9375 C 2.464844 7.074219 2.652344 7.195312 2.722656 7.390625 C 2.765625 7.542969 2.742188 7.707031 2.605469 7.773438 C 2.53125 7.8125 2.441406 7.792969 2.355469 7.710938 C 2.332031 7.691406 2.300781 7.714844 2.308594 7.75 C 2.359375 7.875 2.441406 7.976562 2.59375 8.078125 L 2.171875 8.203125 C 2.230469 8.078125 2.28125 7.925781 2.238281 7.761719 Z M 2.238281 7.761719 "/>
<path style=" stroke:none;fill-rule:nonzero;fill:rgb(0%,0%,0%);fill-opacity:1;" d="M 16.839844 15.019531 C 16.859375 15.074219 16.796875 15.066406 16.78125 15.050781 C 16.675781 14.949219 16.5625 14.949219 16.472656 15.023438 C 16.382812 15.097656 16.355469 15.210938 16.402344 15.34375 C 16.484375 15.550781 16.71875 15.730469 16.835938 15.839844 C 16.949219 15.933594 17.074219 16.050781 17.214844 16.203125 C 17.257812 15.96875 17.292969 15.894531 17.351562 15.671875 C 17.402344 15.480469 17.496094 15.277344 17.449219 15.074219 C 17.402344 14.921875 17.296875 14.796875 17.144531 14.8125 C 17.058594 14.820312 16.996094 14.882812 16.96875 15 C 16.957031 15.027344 16.917969 15.027344 16.910156 14.992188 C 16.882812 14.859375 16.898438 14.730469 16.972656 14.5625 L 16.550781 14.683594 C 16.664062 14.753906 16.789062 14.859375 16.839844 15.019531 Z M 16.839844 15.019531 "/>
<path style="fill-rule:nonzero;fill:rgb(100%,100%,100%);fill-opacity:1;stroke-width:1;stroke-linecap:butt;stroke-linejoin:miter;stroke:rgb(0%,0%,0%);stroke-opacity:1;stroke-miterlimit:4;" d="M -248.455161 501.822605 L -47.497408 501.816493 C -41.667253 501.806065 -36.905552 506.562649 -36.901693 512.462965 L -36.869768 801.995672 C -36.865909 807.895987 -41.672208 812.600301 -47.502363 812.61073 L -248.460115 812.616841 C -254.351216 812.62224 -259.112917 807.865655 -259.121815 802.026382 L -259.087756 512.437663 C -259.096653 506.59839 -254.346261 501.828003 -248.455161 501.822605 Z M -248.455161 501.822605 " transform="matrix(0.0636602,-0.00524637,0.00525469,0.0635594,17.61727,-31.949008)"/>
<path style="fill:none;stroke-width:4.952383;stroke-linecap:round;stroke-linejoin:miter;stroke:rgb(7.45098%,12.156863%,40.392157%);stroke-opacity:1;stroke-miterlimit:4;" d="M -246.507256 513.906302 L -49.475224 513.883441 L -49.450267 800.527033 L -246.543245 800.544863 Z M -246.507256 513.906302 " transform="matrix(0.0636602,-0.00524637,0.00525469,0.0635594,17.61727,-31.949008)"/>
<path style="fill-rule:nonzero;fill:url(#pattern0);stroke-width:1;stroke-linecap:round;stroke-linejoin:miter;stroke:rgb(7.45098%,12.156863%,40.392157%);stroke-opacity:1;stroke-miterlimit:4;" d="M -242.16258 517.768047 L -53.845308 517.763345 L -53.855889 796.660257 L -242.112215 796.66999 Z M -242.16258 517.768047 " transform="matrix(0.0636602,-0.00524637,0.00525469,0.0635594,17.61727,-31.949008)"/>
<path style="fill-rule:nonzero;fill:rgb(100%,100%,100%);fill-opacity:1;stroke-width:0.996733;stroke-linecap:butt;stroke-linejoin:miter;stroke:rgb(0%,0%,0%);stroke-opacity:1;stroke-miterlimit:4;" d="M 6045.312051 -2746.820358 L 6247.307982 -2746.789066 C 6253.189694 -2746.805956 6257.920638 -2742.046537 6257.94043 -2736.15596 L 6257.915107 -2445.6203 C 6257.934899 -2439.729724 6253.184988 -2434.994025 6247.303276 -2434.977134 L 6045.307345 -2435.008426 C 6039.486008 -2435.001262 6034.694689 -2439.750956 6034.674897 -2445.641532 L 6034.70022 -2736.177192 C 6034.680428 -2742.067769 6039.430339 -2746.803468 6045.312051 -2746.820358 Z M 6045.312051 -2746.820358 " transform="matrix(0.0630636,0.0101428,-0.0101589,0.0629638,-398.89412,112.282061)"/>
<path style=" stroke:none;fill-rule:nonzero;fill:rgb(83.137255%,0%,0%);fill-opacity:1;" d="M 9.570312 3.515625 L 9.597656 3.34375 L 9.765625 3.371094 L 10.417969 1.585938 L 10.621094 1.617188 L 10.71875 3.523438 L 10.855469 3.546875 L 10.828125 3.71875 L 10.363281 3.644531 L 10.394531 3.472656 L 10.515625 3.492188 L 10.511719 3.199219 L 10.046875 3.125 L 9.964844 3.402344 L 10.089844 3.421875 L 10.0625 3.59375 Z M 10.507812 2.992188 L 10.460938 1.972656 L 10.113281 2.929688 Z M 10.507812 2.992188 "/>
<path style=" stroke:none;fill-rule:nonzero;fill:rgb(83.137255%,0%,0%);fill-opacity:1;" d="M 20.503906 19.464844 L 20.472656 19.636719 L 20.308594 19.609375 L 19.652344 21.394531 L 19.449219 21.363281 L 19.351562 19.457031 L 19.21875 19.433594 L 19.246094 19.261719 L 19.707031 19.335938 L 19.679688 19.507812 L 19.554688 19.488281 L 19.558594 19.777344 L 20.023438 19.855469 L 20.105469 19.578125 L 19.980469 19.558594 L 20.007812 19.386719 Z M 19.566406 19.988281 L 19.609375 21.007812 L 19.957031 20.050781 Z M 19.566406 19.988281 "/>
<path style=" stroke:none;fill-rule:nonzero;fill:rgb(83.137255%,0%,0%);fill-opacity:1;" d="M 9.484375 4.449219 C 9.421875 4.214844 9.46875 3.839844 9.777344 3.839844 C 10.007812 3.84375 10.082031 3.964844 10.074219 4.128906 C 10.074219 4.175781 10.101562 4.183594 10.117188 4.128906 C 10.15625 3.96875 10.335938 3.898438 10.457031 3.945312 C 10.796875 4.058594 10.714844 4.4375 10.558594 4.679688 C 10.332031 4.996094 10.117188 5.1875 9.894531 5.507812 C 9.757812 5.113281 9.589844 4.785156 9.484375 4.449219 Z M 9.484375 4.449219 "/>
<path style=" stroke:none;fill-rule:nonzero;fill:rgb(83.137255%,0%,0%);fill-opacity:1;" d="M 14.566406 9.558594 C 15.023438 9.601562 15.195312 10.023438 15.191406 10.332031 C 15.210938 10.386719 15.230469 10.375 15.246094 10.339844 C 15.332031 9.953125 15.730469 9.691406 16.046875 9.785156 C 16.570312 9.878906 16.796875 10.511719 16.625 10.992188 C 16.417969 11.578125 16.035156 11.890625 15.726562 12.222656 C 15.386719 12.566406 14.921875 13.066406 14.757812 13.316406 C 14.757812 13.316406 14.46875 12.675781 14.082031 11.914062 C 13.824219 11.402344 13.636719 10.867188 13.683594 10.4375 C 13.734375 9.949219 14.003906 9.542969 14.566406 9.558594 Z M 14.566406 9.558594 "/>
<path style=" stroke:none;fill-rule:nonzero;fill:rgb(83.137255%,0%,0%);fill-opacity:1;" d="M 19.429688 18.367188 C 19.292969 18.570312 19.222656 18.941406 19.511719 19.039062 C 19.730469 19.105469 19.839844 19.015625 19.882812 18.859375 C 19.902344 18.8125 19.929688 18.816406 19.925781 18.871094 C 19.914062 19.035156 20.0625 19.15625 20.191406 19.15625 C 20.550781 19.152344 20.59375 18.765625 20.519531 18.488281 C 20.402344 18.113281 20.257812 17.867188 20.148438 17.492188 C 19.898438 17.824219 19.632812 18.082031 19.429688 18.367188 Z M 19.429688 18.367188 "/>
<path style="fill-rule:nonzero;fill:rgb(100%,100%,100%);fill-opacity:1;stroke-width:0.996733;stroke-linecap:butt;stroke-linejoin:miter;stroke:rgb(0%,0%,0%);stroke-opacity:1;stroke-miterlimit:4;" d="M 6938.211796 -2746.814828 L 7140.24004 -2746.795425 C 7146.054878 -2746.83165 7150.825544 -2742.022523 7150.866327 -2736.199669 L 7150.848033 -2445.647096 C 7150.845599 -2439.749252 7146.105914 -2434.991671 7140.216155 -2434.998781 L 6938.262832 -2434.974849 C 6932.373073 -2434.981959 6927.618259 -2439.731924 6927.620693 -2445.629768 L 6927.638987 -2736.18234 C 6927.582351 -2742.064357 6932.381105 -2746.837766 6938.211796 -2746.814828 Z M 6938.211796 -2746.814828 " transform="matrix(0.0617001,0.0165063,-0.0165325,0.0616024,-458.359493,55.916566)"/>
<path style=" stroke:none;fill-rule:nonzero;fill:rgb(83.137255%,0%,0%);fill-opacity:1;" d="M 15.636719 5.121094 C 16.410156 4.6875 16.984375 4.144531 17.539062 3.621094 C 17.691406 4.402344 18.011719 5.132812 18.378906 5.855469 C 17.664062 6.28125 17.066406 6.78125 16.542969 7.339844 C 16.332031 6.570312 16.089844 5.859375 15.636719 5.121094 Z M 15.636719 5.121094 "/>
<path style=" stroke:none;fill-rule:nonzero;fill:rgb(83.137255%,0%,0%);fill-opacity:1;" d="M 12.386719 17.234375 C 13.15625 16.800781 13.734375 16.257812 14.285156 15.738281 C 14.4375 16.515625 14.761719 17.246094 15.128906 17.96875 C 14.414062 18.394531 13.8125 18.898438 13.289062 19.453125 C 13.082031 18.683594 12.835938 17.972656 12.386719 17.234375 Z M 12.386719 17.234375 "/>
<path style=" stroke:none;fill-rule:nonzero;fill:rgb(83.137255%,0%,0%);fill-opacity:1;" d="M 22.464844 6.949219 C 23.238281 6.515625 23.8125 5.972656 24.367188 5.449219 C 24.519531 6.226562 24.839844 6.960938 25.207031 7.679688 C 24.492188 8.109375 23.894531 8.609375 23.371094 9.164062 C 23.164062 8.394531 22.917969 7.683594 22.464844 6.949219 Z M 22.464844 6.949219 "/>
<path style=" stroke:none;fill-rule:nonzero;fill:rgb(83.137255%,0%,0%);fill-opacity:1;" d="M 17.414062 12.148438 C 18.1875 11.71875 18.765625 11.175781 19.316406 10.652344 C 19.46875 11.429688 19.792969 12.164062 20.160156 12.882812 C 19.445312 13.3125 18.84375 13.8125 18.320312 14.367188 C 18.113281 13.597656 17.867188 12.886719 17.414062 12.148438 Z M 17.414062 12.148438 "/>
<path style=" stroke:none;fill-rule:nonzero;fill:rgb(83.137255%,0%,0%);fill-opacity:1;" d="M 19.214844 19.0625 C 19.984375 18.628906 20.5625 18.085938 21.113281 17.5625 C 21.269531 18.34375 21.589844 19.074219 21.957031 19.796875 C 21.242188 20.222656 20.644531 20.722656 20.121094 21.277344 C 19.910156 20.511719 19.667969 19.800781 19.214844 19.0625 Z M 19.214844 19.0625 "/>
<path style=" stroke:none;fill-rule:nonzero;fill:rgb(83.137255%,0%,0%);fill-opacity:1;" d="M 22.449219 19.628906 C 22.765625 19.453125 23 19.230469 23.226562 19.015625 C 23.289062 19.335938 23.421875 19.632812 23.574219 19.929688 C 23.28125 20.105469 23.035156 20.3125 22.820312 20.539062 C 22.734375 20.222656 22.632812 19.933594 22.449219 19.628906 Z M 22.449219 19.628906 "/>
<path style=" stroke:none;fill-rule:nonzero;fill:rgb(83.137255%,0%,0%);fill-opacity:1;" d="M 14.003906 5.097656 C 14.320312 4.921875 14.554688 4.699219 14.78125 4.484375 C 14.84375 4.804688 14.976562 5.101562 15.125 5.398438 C 14.832031 5.574219 14.585938 5.78125 14.375 6.007812 C 14.289062 5.691406 14.1875 5.402344 14.003906 5.097656 Z M 14.003906 5.097656 "/>
<path style=" stroke:none;fill-rule:nonzero;fill:rgb(83.137255%,0%,0%);fill-opacity:1;" d="M 14.371094 3.503906 L 14.570312 3.554688 C 14.574219 3.683594 14.625 3.828125 14.730469 3.894531 C 15.03125 4.054688 15.289062 3.929688 15.410156 3.742188 C 15.5625 3.511719 15.570312 3.136719 15.382812 2.953125 C 15.226562 2.800781 14.933594 2.816406 14.746094 3.003906 L 14.632812 2.882812 L 14.925781 2.074219 L 15.835938 2.316406 L 15.785156 2.511719 L 15.046875 2.316406 L 14.945312 2.65625 C 15.132812 2.589844 15.375 2.65625 15.511719 2.777344 C 15.773438 3 15.828125 3.359375 15.664062 3.726562 C 15.484375 4.085938 15.246094 4.253906 14.835938 4.179688 C 14.386719 4.0625 14.3125 3.714844 14.371094 3.503906 Z M 14.371094 3.503906 "/>
<path style=" stroke:none;fill-rule:nonzero;fill:rgb(83.137255%,0%,0%);fill-opacity:1;" d="M 23.222656 21.5 L 23.023438 21.449219 C 23.015625 21.320312 22.964844 21.175781 22.859375 21.113281 C 22.558594 20.949219 22.304688 21.074219 22.179688 21.261719 C 22.03125 21.492188 22.019531 21.867188 22.207031 22.050781 C 22.363281 22.203125 22.660156 22.1875 22.84375 22 L 22.960938 22.121094 L 22.664062 22.929688 L 21.753906 22.6875 L 21.808594 22.492188 L 22.542969 22.6875 L 22.648438 22.347656 C 22.460938 22.414062 22.214844 22.347656 22.078125 22.230469 C 21.816406 22.007812 21.765625 21.644531 21.925781 21.277344 C 22.109375 20.917969 22.34375 20.75 22.753906 20.824219 C 23.203125 20.941406 23.28125 21.289062 23.222656 21.5 Z M 23.222656 21.5 "/>
</g>
</svg>
