<?xml version="1.0" encoding="UTF-8"?>
<svg xmlns="http://www.w3.org/2000/svg" xmlns:xlink="http://www.w3.org/1999/xlink" width="29pt" height="25pt" viewBox="0 0 29 25" version="1.1">
<defs>
<clipPath id="clip1">
  <rect width="1" height="1"/>
</clipPath>
<g id="surface6" clip-path="url(#clip1)">
<path style=" stroke:none;fill-rule:nonzero;fill:rgb(7.45098%,12.156863%,40.392157%);fill-opacity:1;" d="M 0.5 0.125 L 0.402344 0.273438 L 0.46875 0.433594 L 0.296875 0.386719 L 0.15625 0.5 L 0.152344 0.324219 L 0 0.230469 L 0.167969 0.167969 L 0.210938 0 L 0.320312 0.136719 Z M 0.5 0.125 "/>
<path style=" stroke:none;fill-rule:nonzero;fill:rgb(7.45098%,12.156863%,40.392157%);fill-opacity:1;" d="M 0.492188 0.75 L 0.332031 0.828125 L 0.308594 1 L 0.183594 0.875 L 0.0078125 0.902344 L 0.0898438 0.75 L 0.0078125 0.59375 L 0.183594 0.625 L 0.308594 0.5 L 0.332031 0.671875 Z M 0.492188 0.75 "/>
<path style=" stroke:none;fill-rule:nonzero;fill:rgb(7.45098%,12.156863%,40.392157%);fill-opacity:1;" d="M 1 0.125 L 0.902344 0.273438 L 0.96875 0.433594 L 0.796875 0.386719 L 0.65625 0.5 L 0.652344 0.324219 L 0.5 0.230469 L 0.667969 0.167969 L 0.710938 0 L 0.820312 0.136719 Z M 1 0.125 "/>
<path style=" stroke:none;fill-rule:nonzero;fill:rgb(7.45098%,12.156863%,40.392157%);fill-opacity:1;" d="M 0.992188 0.75 L 0.832031 0.828125 L 0.808594 1 L 0.683594 0.875 L 0.507812 0.902344 L 0.589844 0.75 L 0.507812 0.59375 L 0.683594 0.625 L 0.808594 0.5 L 0.832031 0.671875 Z M 0.992188 0.75 "/>
</g>
<pattern id="pattern0" patternUnits="userSpaceOnUse" width="1" height="1" patternTransform="matrix(-12.013147,12.013147,-12.247889,-12.247889,-254.02376,74.426221)">
<use xlink:href="#surface6"/>
</pattern>
</defs>
<g id="surface1">
<path style="fill-rule:nonzero;fill:rgb(100%,100%,100%);fill-opacity:1;stroke-width:0.996733;stroke-linecap:butt;stroke-linejoin:miter;stroke:rgb(0%,0%,0%);stroke-opacity:1;stroke-miterlimit:4;" d="M 6268.592108 -2746.818163 L 6470.546876 -2746.814515 C 6476.41095 -2746.830823 6481.141116 -2742.073863 6481.152417 -2736.201952 L 6481.136895 -2445.645861 C 6481.148196 -2439.77395 6476.376461 -2434.974597 6470.529496 -2435.017101 L 6268.574729 -2435.02075 C 6262.710654 -2435.004442 6257.92177 -2439.778484 6257.910469 -2445.650395 L 6257.925991 -2736.206486 C 6257.91469 -2742.078397 6262.669315 -2746.818938 6268.592108 -2746.818163 Z M 6268.592108 -2746.818163 " transform="matrix(0.0613338,-0.0178153,0.0178435,0.0612367,-334.94022,283.538983)"/>
<path style=" stroke:none;fill-rule:nonzero;fill:rgb(0%,0%,0%);fill-opacity:1;" d="M 1.210938 6.554688 L 1.183594 6.429688 C 1.105469 6.035156 1.152344 5.882812 1.511719 5.347656 C 1.683594 5.085938 1.734375 4.96875 1.710938 4.855469 C 1.664062 4.585938 1.40625 4.574219 1.25 4.617188 C 1.050781 4.671875 0.863281 4.855469 1.050781 5.101562 L 0.847656 5.230469 C 0.726562 4.988281 0.703125 4.730469 0.878906 4.5625 C 1.117188 4.34375 1.492188 4.292969 1.734375 4.460938 C 1.898438 4.574219 1.988281 4.769531 1.96875 4.949219 C 1.898438 5.414062 1.304688 5.78125 1.390625 6.265625 L 2.101562 6.058594 L 2.027344 5.796875 L 2.234375 5.734375 L 2.378906 6.21875 Z M 1.210938 6.554688 "/>
<path style=" stroke:none;fill-rule:nonzero;fill:rgb(0%,0%,0%);fill-opacity:1;" d="M 17.78125 16.257812 L 17.808594 16.382812 C 17.890625 16.773438 17.84375 16.925781 17.484375 17.464844 C 17.308594 17.722656 17.261719 17.839844 17.285156 17.957031 C 17.328125 18.226562 17.589844 18.238281 17.742188 18.195312 C 17.941406 18.140625 18.132812 17.953125 17.945312 17.710938 L 18.148438 17.582031 C 18.269531 17.824219 18.292969 18.078125 18.113281 18.246094 C 17.875 18.46875 17.503906 18.515625 17.257812 18.347656 C 17.09375 18.238281 17.007812 18.039062 17.027344 17.863281 C 17.097656 17.398438 17.691406 17.03125 17.605469 16.542969 L 16.890625 16.75 L 16.96875 17.011719 L 16.757812 17.074219 L 16.617188 16.589844 Z M 17.78125 16.257812 "/>
<path style=" stroke:none;fill-rule:nonzero;fill:rgb(0%,0%,0%);fill-opacity:1;" d="M 7.867188 6.050781 C 7.832031 5.925781 7.734375 5.953125 7.761719 6.042969 C 7.886719 6.5 7.566406 6.835938 7.269531 6.863281 C 6.8125 6.90625 6.550781 6.519531 6.484375 6.265625 C 6.269531 5.484375 6.886719 4.683594 7.300781 3.484375 C 8.082031 4.230469 9.144531 4.691406 9.398438 5.371094 C 9.734375 6.277344 8.664062 6.960938 8.183594 5.933594 C 8.148438 5.859375 8.050781 5.851562 8.085938 5.953125 C 8.199219 6.242188 8.199219 6.375 8.742188 7.007812 L 7.871094 7.261719 C 7.964844 6.863281 7.960938 6.414062 7.867188 6.050781 Z M 7.867188 6.050781 "/>
<path style=" stroke:none;fill-rule:nonzero;fill:rgb(0%,0%,0%);fill-opacity:1;" d="M 11.007812 16.824219 C 11.042969 16.949219 10.945312 16.980469 10.921875 16.886719 C 10.78125 16.433594 10.332031 16.324219 10.066406 16.457031 C 9.660156 16.664062 9.644531 17.132812 9.722656 17.382812 C 9.960938 18.15625 10.914062 18.503906 11.910156 19.292969 C 12.167969 18.242188 12.816406 17.289062 12.664062 16.578125 C 12.460938 15.632812 11.191406 15.628906 11.335938 16.757812 C 11.347656 16.835938 11.269531 16.894531 11.242188 16.789062 C 11.183594 16.484375 11.113281 16.371094 11.234375 15.546875 L 10.359375 15.800781 C 10.652344 16.085938 10.890625 16.46875 11.007812 16.824219 Z M 11.007812 16.824219 "/>
<path style=" stroke:none;fill-rule:nonzero;fill:rgb(0%,0%,0%);fill-opacity:1;" d="M 2.238281 7.761719 C 2.222656 7.707031 2.175781 7.75 2.171875 7.765625 C 2.136719 7.910156 2.039062 7.96875 1.925781 7.953125 C 1.808594 7.941406 1.722656 7.859375 1.691406 7.722656 C 1.652344 7.503906 1.75 7.226562 1.792969 7.074219 C 1.835938 6.933594 1.878906 6.765625 1.917969 6.5625 C 2.082031 6.738281 2.148438 6.78125 2.316406 6.9375 C 2.464844 7.074219 2.652344 7.195312 2.722656 7.390625 C 2.765625 7.542969 2.742188 7.707031 2.605469 7.773438 C 2.53125 7.8125 2.441406 7.792969 2.355469 7.710938 C 2.332031 7.691406 2.300781 7.714844 2.308594 7.75 C 2.359375 7.875 2.441406 7.976562 2.59375 8.078125 L 2.171875 8.203125 C 2.230469 8.078125 2.28125 7.925781 2.238281 7.761719 Z M 2.238281 7.761719 "/>
<path style=" stroke:none;fill-rule:nonzero;fill:rgb(0%,0%,0%);fill-opacity:1;" d="M 16.839844 15.019531 C 16.859375 15.074219 16.796875 15.066406 16.78125 15.050781 C 16.675781 14.949219 16.5625 14.949219 16.472656 15.023438 C 16.382812 15.097656 16.355469 15.210938 16.402344 15.34375 C 16.484375 15.550781 16.71875 15.730469 16.835938 15.839844 C 16.949219 15.933594 17.074219 16.050781 17.214844 16.203125 C 17.257812 15.96875 17.292969 15.894531 17.351562 15.671875 C 17.402344 15.480469 17.496094 15.277344 17.449219 15.074219 C 17.402344 14.921875 17.296875 14.796875 17.144531 14.8125 C 17.058594 14.820312 16.996094 14.882812 16.96875 15 C 16.957031 15.027344 16.917969 15.027344 16.910156 14.992188 C 16.882812 14.859375 16.898438 14.730469 16.972656 14.5625 L 16.550781 14.683594 C 16.664062 14.753906 16.789062 14.859375 16.839844 15.019531 Z M 16.839844 15.019531 "/>
<path style="fill-rule:nonzero;fill:rgb(100%,100%,100%);fill-opacity:1;stroke-width:1;stroke-linecap:butt;stroke-linejoin:miter;stroke:rgb(0%,0%,0%);stroke-opacity:1;stroke-miterlimit:4;" d="M -248.455161 501.822605 L -47.497408 501.816493 C -41.667253 501.806065 -36.905552 506.562649 -36.901693 512.462965 L -36.869768 801.995672 C -36.865909 807.895987 -41.672208 812.600301 -47.502363 812.61073 L -248.460115 812.616841 C -254.351216 812.62224 -259.112917 807.865655 -259.121815 802.026382 L -259.087756 512.437663 C -259.096653 506.59839 -254.346261 501.828003 -248.455161 501.822605 Z M -248.455161 501.822605 " transform="matrix(0.0636602,-0.00524637,0.00525469,0.0635594,17.61727,-31.949008)"/>
<path style="fill:none;stroke-width:4.952383;stroke-linecap:round;stroke-linejoin:miter;stroke:rgb(7.45098%,12.156863%,40.392157%);stroke-opacity:1;stroke-miterlimit:4;" d="M -246.507256 513.906302 L -49.475224 513.883441 L -49.450267 800.527033 L -246.543245 800.544863 Z M -246.507256 513.906302 " transform="matrix(0.0636602,-0.00524637,0.00525469,0.0635594,17.61727,-31.949008)"/>
<path style="fill-rule:nonzero;fill:url(#pattern0);stroke-width:1;stroke-linecap:round;stroke-linejoin:miter;stroke:rgb(7.45098%,12.156863%,40.392157%);stroke-opacity:1;stroke-miterlimit:4;" d="M -242.16258 517.768047 L -53.845308 517.763345 L -53.855889 796.660257 L -242.112215 796.66999 Z M -242.16258 517.768047 " transform="matrix(0.0636602,-0.00524637,0.00525469,0.0635594,17.61727,-31.949008)"/>
<path style="fill-rule:nonzero;fill:rgb(100%,100%,100%);fill-opacity:1;stroke-width:0.996733;stroke-linecap:butt;stroke-linejoin:miter;stroke:rgb(0%,0%,0%);stroke-opacity:1;stroke-miterlimit:4;" d="M 6045.312051 -2746.820358 L 6247.307982 -2746.789066 C 6253.189694 -2746.805956 6257.920638 -2742.046537 6257.94043 -2736.15596 L 6257.915107 -2445.6203 C 6257.934899 -2439.729724 6253.184988 -2434.994025 6247.303276 -2434.977134 L 6045.307345 -2435.008426 C 6039.486008 -2435.001262 6034.694689 -2439.750956 6034.674897 -2445.641532 L 6034.70022 -2736.177192 C 6034.680428 -2742.067769 6039.430339 -2746.803468 6045.312051 -2746.820358 Z M 6045.312051 -2746.820358 " transform="matrix(0.0630636,0.0101428,-0.0101589,0.0629638,-398.89412,112.282061)"/>
<path style=" stroke:none;fill-rule:nonzero;fill:rgb(83.137255%,0%,0%);fill-opacity:1;" d="M 9.570312 3.515625 L 9.597656 3.34375 L 9.765625 3.371094 L 10.417969 1.585938 L 10.621094 1.617188 L 10.71875 3.523438 L 10.855469 3.546875 L 10.828125 3.71875 L 10.363281 3.644531 L 10.394531 3.472656 L 10.515625 3.492188 L 10.511719 3.199219 L 10.046875 3.125 L 9.964844 3.402344 L 10.089844 3.421875 L 10.0625 3.59375 Z M 10.507812 2.992188 L 10.460938 1.972656 L 10.113281 2.929688 Z M 10.507812 2.992188 "/>
<path style=" stroke:none;fill-rule:nonzero;fill:rgb(83.137255%,0%,0%);fill-opacity:1;" d="M 20.503906 19.464844 L 20.472656 19.636719 L 20.308594 19.609375 L 19.652344 21.394531 L 19.449219 21.363281 L 19.351562 19.457031 L 19.21875 19.433594 L 19.246094 19.261719 L 19.707031 19.335938 L 19.679688 19.507812 L 19.554688 19.488281 L 19.558594 19.777344 L 20.023438 19.855469 L 20.105469 19.578125 L 19.980469 19.558594 L 20.007812 19.386719 Z M 19.566406 19.988281 L 19.609375 21.007812 L 19.957031 20.050781 Z M 19.566406 19.988281 "/>
<path style=" stroke:none;fill-rule:nonzero;fill:rgb(83.137255%,0%,0%);fill-opacity:1;" d="M 9.484375 4.449219 C 9.421875 4.214844 9.46875 3.839844 9.777344 3.839844 C 10.007812 3.84375 10.082031 3.964844 10.074219 4.128906 C 10.074219 4.175781 10.101562 4.183594 10.117188 4.128906 C 10.15625 3.96875 10.335938 3.898438 10.457031 3.945312 C 10.796875 4.058594 10.714844 4.4375 10.558594 4.679688 C 10.332031 4.996094 10.117188 5.1875 9.894531 5.507812 C 9.757812 5.113281 9.589844 4.785156 9.484375 4.449219 Z M 9.484375 4.449219 "/>
<path style=" stroke:none;fill-rule:nonzero;fill:rgb(83.137255%,0%,0%);fill-opacity:1;" d="M 14.566406 9.558594 C 15.023438 9.601562 15.195312 10.023438 15.191406 10.332031 C 15.210938 10.386719 15.230469 10.375 15.246094 10.339844 C 15.332031 9.953125 15.730469 9.691406 16.046875 9.785156 C 16.570312 9.878906 16.796875 10.511719 16.625 10.992188 C 16.417969 11.578125 16.035156 11.890625 15.726562 12.222656 C 15.386719 12.566406 14.921875 13.066406 14.757812 13.316406 C 14.757812 13.316406 14.46875 12.675781 14.082031 11.914062 C 13.824219 11.402344 13.636719 10.867188 13.683594 10.4375 C 13.734375 9.949219 14.003906 9.542969 14.566406 9.558594 Z M 14.566406 9.558594 "/>
<path style=" stroke:none;fill-rule:nonzero;fill:rgb(83.137255%,0%,0%);fill-opacity:1;" d="M 19.429688 18.367188 C 19.292969 18.570312 19.222656 18.941406 19.511719 19.039062 C 19.730469 19.105469 19.839844 19.015625 19.882812 18.859375 C 19.902344 18.8125 19.929688 18.816406 19.925781 18.871094 C 19.914062 19.035156 20.0625 19.15625 20.191406 19.15625 C 20.550781 19.152344 20.59375 18.765625 20.519531 18.488281 C 20.402344 18.113281 20.257812 17.867188 20.148438 17.492188 C 19.898438 17.824219 19.632812 18.082031 19.429688 18.367188 Z M 19.429688 18.367188 "/>
<path style="fill-rule:nonzero;fill:rgb(100%,100%,100%);fill-opacity:1;stroke-width:0.996733;stroke-linecap:butt;stroke-linejoin:miter;stroke:rgb(0%,0%,0%);stroke-opacity:1;stroke-miterlimit:4;" d="M 6938.211796 -2746.814828 L 7140.24004 -2746.795425 C 7146.054878 -2746.83165 7150.825544 -2742.022523 7150.866327 -2736.199669 L 7150.848033 -2445.647096 C 7150.845599 -2439.749252 7146.105914 -2434.991671 7140.216155 -2434.998781 L 6938.262832 -2434.974849 C 6932.373073 -2434.981959 6927.618259 -2439.731924 6927.620693 -2445.629768 L 6927.638987 -2736.18234 C 6927.582351 -2742.064357 6932.381105 -2746.837766 6938.211796 -2746.814828 Z M 6938.211796 -2746.814828 " transform="matrix(0.0617001,0.0165063,-0.0165325,0.0616024,-458.359493,55.916566)"/>
<path style=" stroke:none;fill-rule:nonzero;fill:rgb(83.137255%,0%,0%);fill-opacity:1;" d="M 15.636719 5.121094 C 16.410156 4.6875 16.984375 4.144531 17.539062 3.621094 C 17.691406 4.402344 18.011719 5.132812 18.378906 5.855469 C 17.664062 6.28125 17.066406 6.78125 16.542969 7.339844 C 16.332031 6.570312 16.089844 5.859375 15.636719 5.121094 Z M 15.636719 5.121094 "/>
<path style=" stroke:none;fill-rule:nonzero;fill:rgb(83.137255%,0%,0%);fill-opacity:1;" d="M 12.386719 17.234375 C 13.15625 16.800781 13.734375 16.257812 14.285156 15.738281 C 14.4375 16.515625 14.761719 17.246094 15.128906 17.96875 C 14.414062 18.394531 13.8125 18.898438 13.289062 19.453125 C 13.082031 18.683594 12.835938 17.972656 12.386719 17.234375 Z M 12.386719 17.234375 "/>
<path style=" stroke:none;fill-rule:nonzero;fill:rgb(83.137255%,0%,0%);fill-opacity:1;" d="M 22.464844 6.949219 C 23.238281 6.515625 23.8125 5.972656 24.367188 5.449219 C 24.519531 6.226562 24.839844 6.960938 25.207031 7.679688 C 24.492188 8.109375 23.894531 8.609375 23.371094 9.164062 C 23.164062 8.394531 22.917969 7.683594 22.464844 6.949219 Z M 22.464844 6.949219 "/>
<path style=" stroke:none;fill-rule:nonzero;fill:rgb(83.137255%,0%,0%);fill-opacity:1;" d="M 17.414062 12.148438 C 18.1875 11.71875 18.765625 11.175781 19.316406 10.652344 C 19.46875 11.429688 19.792969 12.164062 20.160156 12.882812 C 19.445312 13.3125 18.84375 13.8125 18.320312 14.367188 C 18.113281 13.597656 17.867188 12.886719 17.414062 12.148438 Z M 17.414062 12.148438 "/>
<path style=" stroke:none;fill-rule:nonzero;fill:rgb(83.137255%,0%,0%);fill-opacity:1;" d="M 19.214844 19.0625 C 19.984375 18.628906 20.5625 18.085938 21.113281 17.5625 C 21.269531 18.34375 21.589844 19.074219 21.957031 19.796875 C 21.242188 20.222656 20.644531 20.722656 20.121094 21.277344 C 19.910156 20.511719 19.667969 19.800781 19.214844 19.0625 Z M 19.214844 19.0625 "/>
<path style=" stroke:none;fill-rule:nonzero;fill:rgb(83.137255%,0%,0%);fill-opacity:1;" d="M 22.449219 19.628906 C 22.765625 19.453125 23 19.230469 23.226562 19.015625 C 23.289062 19.335938 23.421875 19.632812 23.574219 19.929688 C 23.28125 20.105469 23.035156 20.3125 22.820312 20.539062 C 22.734375 20.222656 22.632812 19.933594 22.449219 19.628906 Z M 22.449219 19.628906 "/>
<path style=" stroke:none;fill-rule:nonzero;fill:rgb(83.137255%,0%,0%);fill-opacity:1;" d="M 14.003906 5.097656 C 14.320312 4.921875 14.554688 4.699219 14.78125 4.484375 C 14.84375 4.804688 14.976562 5.101562 15.125 5.398438 C 14.832031 5.574219 14.585938 5.78125 14.375 6.007812 C 14.289062 5.691406 14.1875 5.402344 14.003906 5.097656 Z M 14.003906 5.097656 "/>
<path style=" stroke:none;fill-rule:nonzero;fill:rgb(83.137255%,0%,0%);fill-opacity:1;" d="M 14.371094 3.503906 L 14.570312 3.554688 C 14.574219 3.683594 14.625 3.828125 14.730469 3.894531 C 15.03125 4.054688 15.289062 3.929688 15.410156 3.742188 C 15.5625 3.511719 15.570312 3.136719 15.382812 2.953125 C 15.226562 2.800781 14.933594 2.816406 14.746094 3.003906 L 14.632812 2.882812 L 14.925781 2.074219 L 15.835938 2.316406 L 15.785156 2.511719 L 15.046875 2.316406 L 14.945312 2.65625 C 15.132812 2.589844 15.375 2.65625 15.511719 2.777344 C 15.773438 3 15.828125 3.359375 15.664062 3.726562 C 15.484375 4.085938 15.246094 4.253906 14.835938 4.179688 C 14.386719 4.0625 14.3125 3.714844 14.371094 3.503906 Z M 14.371094 3.503906 "/>
<path style=" stroke:none;fill-rule:nonzero;fill:rgb(83.137255%,0%,0%);fill-opacity:1;" d="M 23.222656 21.5 L 23.023438 21.449219 C 23.015625 21.320312 22.964844 21.175781 22.859375 21.113281 C 22.558594 20.949219 22.304688 21.074219 22.179688 21.261719 C 22.03125 21.492188 22.019531 21.867188 22.207031 22.050781 C 22.363281 22.203125 22.660156 22.1875 22.84375 22 L 22.960938 22.121094 L 22.664062 22.929688 L 21.753906 22.6875 L 21.808594 22.492188 L 22.542969 22.6875 L 22.648438 22.347656 C 22.460938 22.414062 22.214844 22.347656 22.078125 22.230469 C 21.816406 22.007812 21.765625 21.644531 21.925781 21.277344 C 22.109375 20.917969 22.34375 20.75 22.753906 20.824219 C 23.203125 20.941406 23.28125 21.289062 23.222656 21.5 Z M 23.222656 21.5 "/>
<path style=" stroke:none;fill-rule:nonzero;fill:rgb(0%,0%,0%);fill-opacity:1;" d="M 21.253906 23.730469 C 20.515625 23.730469 19.8125 23.609375 19.160156 23.367188 C 18.847656 23.25 18.546875 23.109375 18.269531 22.941406 C 17.992188 22.773438 17.734375 22.585938 17.5 22.375 C 17.269531 22.164062 17.058594 21.933594 16.875 21.6875 C 16.691406 21.4375 16.535156 21.171875 16.40625 20.894531 C 16.144531 20.324219 16.011719 19.710938 16.011719 19.078125 C 16.011719 19.0625 16.011719 19.03125 16.011719 18.984375 C 16.007812 18.808594 16.003906 18.445312 16.011719 18.285156 C 16.042969 17.65625 16.207031 17.046875 16.5 16.472656 C 16.640625 16.195312 16.8125 15.929688 17.007812 15.683594 C 17.199219 15.4375 17.417969 15.203125 17.65625 14.996094 C 17.894531 14.785156 18.15625 14.59375 18.433594 14.425781 C 18.710938 14.257812 19.003906 14.117188 19.308594 14 C 19.945312 13.757812 20.609375 13.632812 21.292969 13.632812 C 21.972656 13.632812 22.636719 13.757812 23.269531 14 C 23.574219 14.117188 23.867188 14.257812 24.144531 14.425781 C 24.417969 14.59375 24.675781 14.785156 24.914062 14.996094 C 25.152344 15.203125 25.367188 15.4375 25.558594 15.683594 C 25.753906 15.929688 25.921875 16.195312 26.058594 16.472656 C 26.347656 17.046875 26.503906 17.65625 26.53125 18.285156 C 26.539062 18.433594 26.535156 18.78125 26.53125 18.96875 C 26.53125 19.023438 26.53125 19.0625 26.53125 19.078125 C 26.53125 19.710938 26.398438 20.320312 26.132812 20.890625 C 26.003906 21.167969 25.84375 21.433594 25.65625 21.683594 C 25.472656 21.929688 25.257812 22.160156 25.023438 22.371094 C 24.789062 22.582031 24.527344 22.773438 24.25 22.9375 C 23.96875 23.105469 23.664062 23.25 23.351562 23.367188 C 22.695312 23.605469 21.988281 23.730469 21.253906 23.730469 Z M 21.253906 23.730469 "/>
<path style=" stroke:none;fill-rule:nonzero;fill:rgb(0%,0%,0%);fill-opacity:1;" d="M 21.292969 13.6875 C 24.050781 13.6875 26.375 15.746094 26.480469 18.285156 C 26.488281 18.476562 26.480469 19 26.480469 19.078125 C 26.480469 21.621094 24.246094 23.679688 21.253906 23.679688 C 18.257812 23.679688 16.0625 21.632812 16.0625 19.078125 C 16.0625 19.011719 16.054688 18.488281 16.0625 18.285156 C 16.191406 15.746094 18.53125 13.6875 21.292969 13.6875 M 21.292969 13.582031 C 20.945312 13.582031 20.601562 13.613281 20.261719 13.675781 C 19.929688 13.738281 19.605469 13.832031 19.292969 13.949219 C 18.984375 14.066406 18.6875 14.214844 18.40625 14.382812 C 18.128906 14.550781 17.863281 14.742188 17.621094 14.957031 C 17.382812 15.167969 17.160156 15.402344 16.964844 15.648438 C 16.769531 15.902344 16.597656 16.171875 16.453125 16.449219 C 16.308594 16.734375 16.195312 17.03125 16.113281 17.332031 C 16.027344 17.640625 15.976562 17.960938 15.960938 18.28125 C 15.953125 18.445312 15.957031 18.808594 15.960938 18.984375 C 15.960938 19.03125 15.960938 19.0625 15.960938 19.078125 C 15.960938 19.398438 15.996094 19.71875 16.0625 20.03125 C 16.128906 20.335938 16.230469 20.632812 16.359375 20.917969 C 16.488281 21.195312 16.648438 21.464844 16.832031 21.71875 C 17.019531 21.964844 17.230469 22.199219 17.464844 22.410156 C 17.703125 22.625 17.964844 22.816406 18.242188 22.984375 C 18.523438 23.152344 18.828125 23.296875 19.144531 23.414062 C 19.464844 23.535156 19.804688 23.625 20.152344 23.6875 C 20.507812 23.75 20.878906 23.78125 21.253906 23.78125 C 21.625 23.78125 21.996094 23.75 22.355469 23.6875 C 22.703125 23.625 23.042969 23.535156 23.367188 23.414062 C 23.6875 23.296875 23.992188 23.152344 24.277344 22.980469 C 24.554688 22.816406 24.820312 22.621094 25.058594 22.410156 C 25.296875 22.195312 25.511719 21.964844 25.699219 21.714844 C 25.886719 21.460938 26.046875 21.191406 26.179688 20.914062 C 26.308594 20.628906 26.410156 20.332031 26.480469 20.027344 C 26.546875 19.71875 26.582031 19.398438 26.582031 19.078125 C 26.582031 19.0625 26.585938 19.019531 26.585938 18.972656 C 26.585938 18.78125 26.589844 18.433594 26.582031 18.28125 C 26.570312 17.960938 26.523438 17.644531 26.441406 17.332031 C 26.359375 17.03125 26.246094 16.734375 26.105469 16.449219 C 25.964844 16.171875 25.796875 15.902344 25.601562 15.652344 C 25.40625 15.402344 25.1875 15.167969 24.949219 14.957031 C 24.710938 14.742188 24.449219 14.550781 24.171875 14.382812 C 23.890625 14.214844 23.59375 14.066406 23.289062 13.949219 C 22.976562 13.832031 22.652344 13.738281 22.320312 13.675781 C 21.984375 13.613281 21.636719 13.582031 21.292969 13.582031 Z M 21.292969 13.582031 "/>
<path style=" stroke:none;fill-rule:nonzero;fill:rgb(100%,100%,100%);fill-opacity:1;" d="M 16.246094 19.675781 L 16.246094 20.324219 C 16.449219 21 16.816406 21.613281 17.316406 22.125 L 17.316406 21.382812 Z M 16.246094 19.675781 "/>
<path style=" stroke:none;fill-rule:nonzero;fill:rgb(100%,100%,100%);fill-opacity:1;" d="M 17.757812 20.046875 C 17.296875 19.3125 17.105469 19.253906 17.105469 19.253906 L 16.246094 19.675781 C 16.453125 20.316406 16.824219 20.894531 17.316406 21.382812 L 18.179688 20.960938 C 18.179688 20.960938 18.222656 20.785156 17.757812 20.046875 Z M 17.757812 20.046875 "/>
<path style=" stroke:none;fill-rule:nonzero;fill:rgb(100%,100%,100%);fill-opacity:1;" d="M 24.695312 16.515625 C 25.191406 17.253906 25.382812 17.3125 25.382812 17.3125 L 26.1875 16.890625 C 25.9375 16.246094 25.542969 15.664062 25.039062 15.179688 L 24.238281 15.605469 C 24.238281 15.605469 24.203125 15.78125 24.695312 16.515625 Z M 24.695312 16.515625 "/>
<path style=" stroke:none;fill-rule:nonzero;fill:rgb(100%,100%,100%);fill-opacity:1;" d="M 17.878906 16.523438 C 18.375 15.789062 18.34375 15.613281 18.34375 15.613281 L 17.53125 15.179688 C 17.023438 15.664062 16.625 16.246094 16.367188 16.890625 L 17.183594 17.320312 C 17.183594 17.320312 17.375 17.261719 17.878906 16.523438 Z M 17.878906 16.523438 "/>
<path style=" stroke:none;fill-rule:nonzero;fill:rgb(100%,100%,100%);fill-opacity:1;" d="M 25.199219 21.382812 L 25.199219 22.132812 C 25.703125 21.625 26.078125 21.019531 26.285156 20.347656 L 26.285156 19.675781 Z M 25.199219 21.382812 "/>
<path style=" stroke:none;fill-rule:nonzero;fill:rgb(100%,100%,100%);fill-opacity:1;" d="M 26.285156 19.675781 L 25.429688 19.253906 C 25.429688 19.253906 25.238281 19.3125 24.773438 20.046875 C 24.300781 20.785156 24.34375 20.960938 24.34375 20.960938 L 25.199219 21.382812 C 25.699219 20.894531 26.074219 20.316406 26.285156 19.675781 Z M 26.285156 19.675781 "/>
<path style=" stroke:none;fill-rule:nonzero;fill:rgb(100%,100%,100%);fill-opacity:1;" d="M 20.09375 22.78125 L 20.09375 23.570312 C 20.460938 23.640625 20.851562 23.679688 21.253906 23.679688 C 21.65625 23.679688 22.042969 23.640625 22.414062 23.570312 L 22.414062 22.78125 Z M 20.09375 22.78125 "/>
<path style=" stroke:none;fill-rule:nonzero;fill:rgb(100%,100%,100%);fill-opacity:1;" d="M 21.257812 21.808594 C 20.265625 21.808594 20.105469 21.925781 20.105469 21.925781 L 20.09375 22.78125 C 20.464844 22.851562 20.851562 22.886719 21.253906 22.886719 C 21.652344 22.886719 22.042969 22.851562 22.414062 22.78125 L 22.410156 21.925781 C 22.410156 21.925781 22.25 21.808594 21.257812 21.808594 Z M 21.257812 21.808594 "/>
<path style=" stroke:none;fill-rule:nonzero;fill:rgb(100%,100%,100%);fill-opacity:1;" d="M 21.285156 14.761719 C 22.21875 14.761719 22.367188 14.644531 22.367188 14.644531 L 22.363281 13.789062 C 22.015625 13.722656 21.65625 13.6875 21.292969 13.6875 C 20.925781 13.6875 20.566406 13.722656 20.21875 13.789062 L 20.207031 14.644531 C 20.207031 14.644531 20.355469 14.761719 21.285156 14.761719 Z M 21.285156 14.761719 "/>
<path style=" stroke:none;fill-rule:nonzero;fill:rgb(100%,100%,100%);fill-opacity:1;" d="M 21.261719 21.605469 C 21.171875 21.605469 21.078125 21.601562 20.984375 21.59375 C 20.9375 21.59375 20.890625 21.589844 20.84375 21.585938 L 20.882812 21.292969 C 20.925781 21.296875 20.96875 21.300781 21.011719 21.304688 C 21.09375 21.308594 21.179688 21.3125 21.265625 21.3125 C 21.386719 21.3125 21.511719 21.304688 21.636719 21.296875 L 21.671875 21.585938 C 21.535156 21.597656 21.398438 21.605469 21.261719 21.605469 Z M 22.476562 21.4375 L 22.371094 21.160156 C 22.605469 21.09375 22.835938 21.003906 23.054688 20.898438 L 23.054688 20.894531 L 23.226562 21.148438 L 23.140625 21.023438 L 23.226562 21.148438 C 22.988281 21.269531 22.734375 21.367188 22.476562 21.4375 Z M 20.039062 21.4375 C 19.867188 21.386719 19.695312 21.328125 19.53125 21.261719 C 19.453125 21.226562 19.371094 21.1875 19.292969 21.148438 L 19.46875 20.898438 C 19.539062 20.933594 19.613281 20.964844 19.683594 20.996094 C 19.835938 21.058594 19.992188 21.113281 20.148438 21.160156 Z M 18.640625 20.734375 C 18.441406 20.578125 18.261719 20.398438 18.109375 20.207031 L 18.386719 20.035156 C 18.527344 20.210938 18.691406 20.375 18.871094 20.515625 Z M 23.886719 20.734375 L 23.65625 20.515625 C 23.820312 20.386719 23.972656 20.242188 24.105469 20.085938 C 24.117188 20.070312 24.132812 20.050781 24.144531 20.035156 L 24.421875 20.207031 C 24.40625 20.226562 24.390625 20.242188 24.375 20.261719 C 24.230469 20.433594 24.066406 20.589844 23.886719 20.734375 Z M 17.722656 19.59375 C 17.617188 19.378906 17.542969 19.152344 17.496094 18.921875 L 17.824219 18.859375 C 17.867188 19.070312 17.9375 19.277344 18.03125 19.476562 Z M 24.8125 19.59375 L 24.503906 19.476562 C 24.574219 19.328125 24.632812 19.175781 24.675781 19.019531 C 24.691406 18.964844 24.703125 18.914062 24.714844 18.859375 L 25.042969 18.921875 C 25.03125 18.980469 25.015625 19.035156 25 19.09375 C 24.953125 19.265625 24.890625 19.433594 24.8125 19.59375 Z M 17.769531 18.21875 L 17.4375 18.21875 C 17.441406 18.140625 17.449219 18.0625 17.457031 17.984375 C 17.476562 17.828125 17.507812 17.667969 17.550781 17.515625 L 17.867188 17.574219 C 17.832031 17.714844 17.800781 17.859375 17.785156 18.003906 C 17.777344 18.074219 17.773438 18.148438 17.769531 18.21875 Z M 25.105469 18.21875 L 24.773438 18.214844 C 24.769531 18.085938 24.757812 17.960938 24.738281 17.835938 C 24.722656 17.746094 24.703125 17.660156 24.683594 17.574219 L 25 17.511719 C 25.027344 17.605469 25.046875 17.703125 25.0625 17.796875 C 25.085938 17.933594 25.101562 18.074219 25.105469 18.214844 Z M 18.113281 16.960938 L 17.820312 16.839844 C 17.839844 16.804688 17.859375 16.765625 17.878906 16.730469 C 17.980469 16.554688 18.101562 16.386719 18.234375 16.226562 L 18.492188 16.398438 C 18.371094 16.542969 18.261719 16.699219 18.167969 16.859375 C 18.148438 16.890625 18.132812 16.925781 18.113281 16.960938 Z M 24.441406 16.957031 C 24.390625 16.859375 24.332031 16.765625 24.269531 16.671875 C 24.207031 16.578125 24.140625 16.484375 24.066406 16.398438 L 24.328125 16.226562 C 24.40625 16.320312 24.480469 16.421875 24.546875 16.523438 C 24.617188 16.625 24.679688 16.734375 24.738281 16.839844 Z M 18.984375 15.917969 L 18.773438 15.699219 C 18.972656 15.542969 19.1875 15.40625 19.417969 15.285156 L 19.574219 15.539062 C 19.363281 15.648438 19.164062 15.773438 18.984375 15.917969 Z M 23.578125 15.917969 C 23.503906 15.859375 23.429688 15.800781 23.351562 15.75 C 23.238281 15.671875 23.117188 15.601562 22.992188 15.539062 L 23.152344 15.285156 C 23.285156 15.355469 23.417969 15.433594 23.542969 15.515625 C 23.625 15.574219 23.710938 15.636719 23.789062 15.699219 Z M 22.339844 15.273438 C 22.28125 15.257812 22.222656 15.242188 22.167969 15.230469 C 21.996094 15.1875 21.816406 15.15625 21.640625 15.140625 L 21.675781 14.851562 C 21.867188 14.867188 22.0625 14.902344 22.25 14.945312 C 22.3125 14.960938 22.375 14.980469 22.4375 14.996094 Z M 20.230469 15.273438 L 20.132812 14.996094 C 20.359375 14.929688 20.589844 14.882812 20.824219 14.855469 C 20.847656 14.855469 20.875 14.851562 20.898438 14.847656 L 20.929688 15.140625 C 20.90625 15.140625 20.882812 15.144531 20.863281 15.148438 C 20.648438 15.171875 20.4375 15.214844 20.230469 15.273438 Z M 20.230469 15.273438 "/>
<path style=" stroke:none;fill-rule:nonzero;fill:rgb(100%,100%,100%);fill-opacity:1;" d="M 21.261719 21.027344 C 20.8125 21.027344 20.382812 20.953125 19.980469 20.804688 C 19.785156 20.734375 19.597656 20.644531 19.425781 20.542969 C 19.253906 20.441406 19.089844 20.324219 18.945312 20.195312 C 18.800781 20.066406 18.667969 19.921875 18.554688 19.773438 C 18.441406 19.621094 18.347656 19.457031 18.269531 19.289062 C 18.113281 18.941406 18.039062 18.566406 18.050781 18.183594 C 18.0625 17.796875 18.160156 17.425781 18.335938 17.078125 C 18.421875 16.90625 18.527344 16.746094 18.644531 16.59375 C 18.761719 16.441406 18.898438 16.300781 19.042969 16.171875 C 19.191406 16.042969 19.351562 15.925781 19.519531 15.824219 C 19.691406 15.71875 19.871094 15.632812 20.058594 15.5625 C 20.449219 15.414062 20.859375 15.339844 21.285156 15.339844 C 21.707031 15.339844 22.121094 15.414062 22.507812 15.5625 C 22.695312 15.632812 22.875 15.71875 23.042969 15.824219 C 23.210938 15.925781 23.371094 16.042969 23.515625 16.171875 C 23.664062 16.300781 23.796875 16.441406 23.914062 16.59375 C 24.03125 16.746094 24.132812 16.90625 24.214844 17.078125 C 24.390625 17.425781 24.484375 17.796875 24.492188 18.183594 C 24.503906 18.566406 24.425781 18.941406 24.265625 19.289062 C 24.1875 19.457031 24.089844 19.621094 23.976562 19.773438 C 23.859375 19.921875 23.730469 20.066406 23.582031 20.195312 C 23.433594 20.324219 23.273438 20.441406 23.097656 20.542969 C 22.925781 20.644531 22.738281 20.734375 22.542969 20.804688 C 22.140625 20.953125 21.707031 21.027344 21.261719 21.027344 Z M 21.261719 21.027344 "/>
<path style=" stroke:none;fill-rule:nonzero;fill:rgb(0%,0%,0%);fill-opacity:0.2;" d="M 26.484375 18.484375 C 26.464844 20.933594 24.167969 22.886719 21.253906 22.886719 C 18.363281 22.886719 16.101562 20.96875 16.058594 18.554688 C 16.058594 18.777344 16.0625 19.03125 16.0625 19.078125 C 16.0625 21.632812 18.257812 23.679688 21.253906 23.679688 C 24.246094 23.679688 26.480469 21.621094 26.480469 19.078125 C 26.480469 19.019531 26.484375 18.714844 26.484375 18.484375 Z M 26.484375 18.484375 "/>
<path style=" stroke:none;fill-rule:nonzero;fill:rgb(100%,100%,100%);fill-opacity:0.501961;" d="M 26.484375 18.484375 C 26.464844 20.933594 24.167969 22.886719 21.253906 22.886719 C 18.363281 22.886719 16.101562 20.96875 16.058594 18.554688 C 16.058594 18.777344 16.0625 18.867188 16.0625 19.007812 C 16.0625 19.226562 16.242188 20.410156 17.316406 21.519531 C 18.085938 22.3125 19.308594 23.023438 21.253906 23.023438 C 23.195312 23.023438 24.425781 22.3125 25.199219 21.523438 C 26.289062 20.410156 26.480469 19.183594 26.480469 18.894531 C 26.480469 18.707031 26.484375 18.714844 26.484375 18.484375 Z M 26.484375 18.484375 "/>
<path style=" stroke:none;fill-rule:nonzero;fill:rgb(0%,0%,0%);fill-opacity:0.301961;" d="M 21.292969 13.582031 C 20.945312 13.582031 20.601562 13.613281 20.261719 13.675781 C 19.929688 13.738281 19.605469 13.832031 19.292969 13.949219 C 18.984375 14.066406 18.6875 14.214844 18.40625 14.382812 C 18.128906 14.550781 17.863281 14.742188 17.621094 14.957031 C 17.382812 15.167969 17.160156 15.402344 16.964844 15.648438 C 16.769531 15.902344 16.597656 16.171875 16.453125 16.449219 C 16.308594 16.734375 16.195312 17.03125 16.113281 17.332031 C 16.027344 17.640625 15.976562 17.960938 15.960938 18.28125 C 15.953125 18.445312 15.957031 18.808594 15.960938 18.984375 C 15.960938 19.03125 15.960938 19.0625 15.960938 19.078125 C 15.960938 19.398438 15.996094 19.71875 16.0625 20.03125 C 16.128906 20.335938 16.230469 20.632812 16.359375 20.917969 C 16.488281 21.195312 16.648438 21.464844 16.832031 21.71875 C 17.019531 21.964844 17.230469 22.199219 17.464844 22.410156 C 17.703125 22.625 17.964844 22.816406 18.242188 22.984375 C 18.523438 23.152344 18.828125 23.296875 19.144531 23.414062 C 19.464844 23.535156 19.804688 23.625 20.152344 23.6875 C 20.507812 23.75 20.878906 23.78125 21.253906 23.78125 C 21.625 23.78125 21.996094 23.75 22.355469 23.6875 C 22.703125 23.625 23.042969 23.535156 23.367188 23.414062 C 23.6875 23.296875 23.992188 23.152344 24.277344 22.980469 C 24.554688 22.816406 24.820312 22.621094 25.058594 22.410156 C 25.296875 22.195312 25.511719 21.964844 25.699219 21.714844 C 25.886719 21.460938 26.046875 21.191406 26.179688 20.914062 C 26.308594 20.628906 26.410156 20.332031 26.480469 20.027344 C 26.546875 19.71875 26.582031 19.398438 26.582031 19.078125 C 26.582031 19.0625 26.585938 19.019531 26.585938 18.972656 C 26.585938 18.78125 26.589844 18.433594 26.582031 18.28125 C 26.570312 17.960938 26.523438 17.644531 26.441406 17.332031 C 26.359375 17.03125 26.246094 16.734375 26.105469 16.449219 C 25.964844 16.171875 25.796875 15.902344 25.601562 15.652344 C 25.40625 15.402344 25.1875 15.167969 24.949219 14.957031 C 24.710938 14.742188 24.449219 14.550781 24.171875 14.382812 C 23.890625 14.214844 23.59375 14.066406 23.289062 13.949219 C 22.976562 13.832031 22.652344 13.738281 22.320312 13.675781 C 21.984375 13.613281 21.636719 13.582031 21.292969 13.582031 Z M 21.292969 13.582031 "/>
<path style=" stroke:none;fill-rule:nonzero;fill:rgb(0%,0%,0%);fill-opacity:1;" d="M 20.535156 22.726562 C 19.796875 22.726562 19.09375 22.605469 18.441406 22.363281 C 18.128906 22.246094 17.828125 22.105469 17.550781 21.9375 C 17.273438 21.773438 17.015625 21.582031 16.78125 21.371094 C 16.550781 21.160156 16.339844 20.929688 16.15625 20.683594 C 15.972656 20.433594 15.816406 20.167969 15.6875 19.890625 C 15.425781 19.320312 15.292969 18.710938 15.292969 18.074219 C 15.292969 18.0625 15.292969 18.027344 15.292969 17.980469 C 15.289062 17.804688 15.285156 17.441406 15.292969 17.28125 C 15.324219 16.652344 15.488281 16.042969 15.78125 15.46875 C 15.921875 15.195312 16.09375 14.929688 16.289062 14.679688 C 16.480469 14.433594 16.699219 14.203125 16.9375 13.992188 C 17.175781 13.78125 17.4375 13.589844 17.714844 13.425781 C 17.992188 13.257812 18.285156 13.113281 18.589844 12.996094 C 19.226562 12.753906 19.890625 12.632812 20.574219 12.632812 C 21.253906 12.632812 21.917969 12.753906 22.550781 12.996094 C 22.855469 13.113281 23.148438 13.257812 23.425781 13.425781 C 23.699219 13.589844 23.957031 13.78125 24.195312 13.992188 C 24.433594 14.203125 24.648438 14.433594 24.839844 14.679688 C 25.035156 14.929688 25.203125 15.195312 25.339844 15.46875 C 25.628906 16.042969 25.785156 16.652344 25.8125 17.28125 C 25.820312 17.429688 25.816406 17.78125 25.8125 17.96875 C 25.8125 18.019531 25.8125 18.058594 25.8125 18.074219 C 25.8125 18.707031 25.679688 19.316406 25.414062 19.890625 C 25.285156 20.164062 25.125 20.429688 24.9375 20.679688 C 24.753906 20.925781 24.539062 21.15625 24.304688 21.367188 C 24.070312 21.578125 23.808594 21.769531 23.53125 21.933594 C 23.25 22.101562 22.945312 22.246094 22.632812 22.363281 C 21.976562 22.605469 21.269531 22.726562 20.535156 22.726562 Z M 20.535156 22.726562 "/>
<path style=" stroke:none;fill-rule:nonzero;fill:rgb(0%,0%,0%);fill-opacity:1;" d="M 20.574219 12.683594 C 23.332031 12.683594 25.65625 14.742188 25.761719 17.285156 C 25.769531 17.472656 25.761719 17.996094 25.761719 18.074219 C 25.761719 20.621094 23.527344 22.675781 20.535156 22.675781 C 17.539062 22.675781 15.34375 20.628906 15.34375 18.074219 C 15.34375 18.007812 15.335938 17.484375 15.34375 17.285156 C 15.472656 14.742188 17.8125 12.683594 20.574219 12.683594 M 20.574219 12.578125 C 20.226562 12.578125 19.882812 12.613281 19.542969 12.675781 C 19.210938 12.734375 18.886719 12.828125 18.574219 12.949219 C 18.265625 13.066406 17.96875 13.210938 17.6875 13.378906 C 17.410156 13.546875 17.144531 13.742188 16.90625 13.953125 C 16.664062 14.164062 16.441406 14.398438 16.246094 14.648438 C 16.050781 14.898438 15.878906 15.167969 15.738281 15.445312 C 15.589844 15.730469 15.476562 16.027344 15.394531 16.328125 C 15.308594 16.640625 15.257812 16.957031 15.242188 17.277344 C 15.234375 17.441406 15.238281 17.804688 15.242188 17.984375 C 15.242188 18.027344 15.242188 18.0625 15.242188 18.074219 C 15.242188 18.394531 15.277344 18.71875 15.34375 19.027344 C 15.410156 19.332031 15.511719 19.628906 15.640625 19.914062 C 15.769531 20.195312 15.929688 20.464844 16.113281 20.714844 C 16.300781 20.964844 16.511719 21.195312 16.746094 21.410156 C 16.984375 21.621094 17.246094 21.8125 17.523438 21.980469 C 17.804688 22.148438 18.109375 22.296875 18.425781 22.410156 C 18.746094 22.53125 19.085938 22.621094 19.433594 22.683594 C 19.789062 22.746094 20.160156 22.777344 20.535156 22.777344 C 20.90625 22.777344 21.277344 22.746094 21.636719 22.683594 C 21.984375 22.621094 22.324219 22.53125 22.648438 22.410156 C 22.96875 22.292969 23.273438 22.148438 23.558594 21.980469 C 23.835938 21.8125 24.101562 21.617188 24.339844 21.40625 C 24.578125 21.195312 24.792969 20.960938 24.980469 20.710938 C 25.167969 20.460938 25.328125 20.191406 25.460938 19.910156 C 25.589844 19.625 25.691406 19.328125 25.761719 19.023438 C 25.828125 18.714844 25.863281 18.394531 25.863281 18.074219 C 25.863281 18.058594 25.867188 18.019531 25.867188 17.96875 C 25.867188 17.78125 25.871094 17.429688 25.863281 17.277344 C 25.851562 16.960938 25.804688 16.640625 25.722656 16.328125 C 25.640625 16.027344 25.527344 15.730469 25.386719 15.445312 C 25.246094 15.167969 25.078125 14.898438 24.882812 14.648438 C 24.6875 14.398438 24.46875 14.164062 24.230469 13.953125 C 23.992188 13.742188 23.730469 13.546875 23.453125 13.378906 C 23.171875 13.210938 22.875 13.066406 22.570312 12.949219 C 22.257812 12.828125 21.933594 12.734375 21.601562 12.675781 C 21.265625 12.613281 20.917969 12.578125 20.574219 12.578125 Z M 20.574219 12.578125 "/>
<path style=" stroke:none;fill-rule:nonzero;fill:rgb(100%,100%,100%);fill-opacity:1;" d="M 15.527344 18.675781 L 15.527344 19.320312 C 15.730469 20 16.101562 20.613281 16.597656 21.125 L 16.597656 20.378906 Z M 15.527344 18.675781 "/>
<path style=" stroke:none;fill-rule:nonzero;fill:rgb(100%,100%,100%);fill-opacity:1;" d="M 17.039062 19.046875 C 16.578125 18.308594 16.386719 18.25 16.386719 18.25 L 15.527344 18.675781 C 15.734375 19.3125 16.105469 19.894531 16.597656 20.378906 L 17.460938 19.957031 C 17.460938 19.957031 17.503906 19.78125 17.039062 19.046875 Z M 17.039062 19.046875 "/>
<path style=" stroke:none;fill-rule:nonzero;fill:rgb(100%,100%,100%);fill-opacity:1;" d="M 23.976562 15.515625 C 24.472656 16.25 24.664062 16.308594 24.664062 16.308594 L 25.46875 15.886719 C 25.21875 15.242188 24.824219 14.660156 24.320312 14.175781 L 23.519531 14.601562 C 23.519531 14.601562 23.484375 14.777344 23.976562 15.515625 Z M 23.976562 15.515625 "/>
<path style=" stroke:none;fill-rule:nonzero;fill:rgb(100%,100%,100%);fill-opacity:1;" d="M 17.160156 15.519531 C 17.65625 14.785156 17.625 14.609375 17.625 14.609375 L 16.8125 14.175781 C 16.304688 14.660156 15.90625 15.242188 15.652344 15.886719 L 16.464844 16.316406 C 16.464844 16.316406 16.660156 16.257812 17.160156 15.519531 Z M 17.160156 15.519531 "/>
<path style=" stroke:none;fill-rule:nonzero;fill:rgb(100%,100%,100%);fill-opacity:1;" d="M 24.480469 20.378906 L 24.480469 21.128906 C 24.984375 20.621094 25.359375 20.015625 25.566406 19.34375 L 25.566406 18.675781 Z M 24.480469 20.378906 "/>
<path style=" stroke:none;fill-rule:nonzero;fill:rgb(100%,100%,100%);fill-opacity:1;" d="M 25.566406 18.675781 L 24.710938 18.25 C 24.710938 18.25 24.519531 18.308594 24.054688 19.046875 C 23.582031 19.78125 23.625 19.957031 23.625 19.957031 L 24.480469 20.378906 C 24.980469 19.894531 25.355469 19.3125 25.566406 18.675781 Z M 25.566406 18.675781 "/>
<path style=" stroke:none;fill-rule:nonzero;fill:rgb(100%,100%,100%);fill-opacity:1;" d="M 19.375 21.777344 L 19.375 22.566406 C 19.742188 22.636719 20.132812 22.675781 20.535156 22.675781 C 20.9375 22.675781 21.324219 22.636719 21.695312 22.566406 L 21.695312 21.777344 Z M 19.375 21.777344 "/>
<path style=" stroke:none;fill-rule:nonzero;fill:rgb(100%,100%,100%);fill-opacity:1;" d="M 20.539062 20.808594 C 19.546875 20.808594 19.386719 20.925781 19.386719 20.925781 L 19.375 21.777344 C 19.746094 21.847656 20.132812 21.882812 20.535156 21.882812 C 20.933594 21.882812 21.324219 21.847656 21.695312 21.777344 L 21.691406 20.925781 C 21.691406 20.925781 21.53125 20.808594 20.539062 20.808594 Z M 20.539062 20.808594 "/>
<path style=" stroke:none;fill-rule:nonzero;fill:rgb(100%,100%,100%);fill-opacity:1;" d="M 20.570312 13.757812 C 21.5 13.757812 21.648438 13.640625 21.648438 13.640625 L 21.644531 12.789062 C 21.296875 12.71875 20.9375 12.683594 20.574219 12.683594 C 20.207031 12.683594 19.847656 12.71875 19.5 12.789062 L 19.488281 13.640625 C 19.488281 13.640625 19.636719 13.757812 20.570312 13.757812 Z M 20.570312 13.757812 "/>
<path style=" stroke:none;fill-rule:nonzero;fill:rgb(100%,100%,100%);fill-opacity:1;" d="M 20.542969 20.601562 C 20.453125 20.601562 20.359375 20.597656 20.265625 20.59375 C 20.21875 20.589844 20.171875 20.585938 20.125 20.582031 L 20.164062 20.292969 C 20.207031 20.296875 20.25 20.296875 20.292969 20.300781 C 20.375 20.304688 20.460938 20.308594 20.546875 20.308594 C 20.667969 20.308594 20.792969 20.304688 20.917969 20.292969 L 20.953125 20.582031 C 20.816406 20.59375 20.679688 20.601562 20.542969 20.601562 Z M 21.757812 20.433594 L 21.652344 20.15625 C 21.886719 20.089844 22.117188 20.003906 22.335938 19.894531 L 22.507812 20.144531 L 22.421875 20.019531 L 22.507812 20.144531 C 22.269531 20.265625 22.015625 20.363281 21.757812 20.433594 Z M 19.320312 20.433594 C 19.148438 20.386719 18.976562 20.324219 18.8125 20.257812 C 18.734375 20.222656 18.652344 20.1875 18.574219 20.148438 L 18.75 19.894531 C 18.820312 19.929688 18.894531 19.964844 18.964844 19.996094 C 19.117188 20.058594 19.273438 20.113281 19.429688 20.15625 Z M 17.921875 19.730469 C 17.722656 19.574219 17.542969 19.398438 17.390625 19.203125 L 17.667969 19.035156 C 17.808594 19.207031 17.972656 19.371094 18.152344 19.515625 Z M 23.167969 19.730469 L 22.9375 19.511719 C 23.101562 19.382812 23.253906 19.238281 23.386719 19.082031 C 23.398438 19.066406 23.414062 19.050781 23.425781 19.03125 L 23.703125 19.203125 C 23.6875 19.222656 23.671875 19.242188 23.65625 19.257812 C 23.511719 19.429688 23.347656 19.589844 23.167969 19.730469 Z M 17.003906 18.59375 C 16.902344 18.375 16.824219 18.148438 16.777344 17.917969 L 17.105469 17.859375 C 17.148438 18.070312 17.21875 18.273438 17.3125 18.472656 Z M 24.09375 18.589844 L 23.785156 18.472656 C 23.855469 18.324219 23.914062 18.171875 23.957031 18.015625 C 23.972656 17.964844 23.984375 17.910156 23.996094 17.855469 L 24.324219 17.917969 C 24.3125 17.976562 24.296875 18.035156 24.28125 18.089844 C 24.234375 18.261719 24.171875 18.429688 24.09375 18.589844 Z M 17.050781 17.214844 L 16.71875 17.214844 C 16.722656 17.136719 16.730469 17.058594 16.738281 16.980469 C 16.757812 16.824219 16.789062 16.664062 16.832031 16.511719 L 17.148438 16.570312 C 17.113281 16.714844 17.082031 16.855469 17.066406 17 C 17.058594 17.070312 17.054688 17.144531 17.050781 17.214844 Z M 24.386719 17.214844 L 24.054688 17.214844 L 24.054688 17.210938 C 24.054688 17.082031 24.039062 16.957031 24.019531 16.832031 C 24.003906 16.742188 23.984375 16.65625 23.964844 16.570312 L 24.285156 16.507812 C 24.308594 16.601562 24.328125 16.699219 24.347656 16.796875 C 24.367188 16.933594 24.382812 17.070312 24.386719 17.210938 Z M 17.394531 15.957031 L 17.101562 15.835938 C 17.121094 15.800781 17.140625 15.765625 17.160156 15.730469 C 17.261719 15.550781 17.382812 15.382812 17.515625 15.222656 L 17.773438 15.394531 C 17.652344 15.539062 17.542969 15.695312 17.449219 15.855469 C 17.429688 15.890625 17.414062 15.921875 17.394531 15.957031 Z M 23.722656 15.957031 C 23.671875 15.859375 23.613281 15.761719 23.550781 15.667969 C 23.488281 15.574219 23.421875 15.480469 23.347656 15.394531 L 23.609375 15.222656 C 23.6875 15.320312 23.761719 15.417969 23.828125 15.523438 C 23.898438 15.625 23.960938 15.730469 24.019531 15.835938 Z M 18.265625 14.914062 L 18.054688 14.699219 C 18.253906 14.542969 18.46875 14.402344 18.699219 14.28125 L 18.855469 14.535156 C 18.644531 14.644531 18.445312 14.773438 18.265625 14.914062 Z M 22.859375 14.914062 C 22.785156 14.855469 22.710938 14.800781 22.632812 14.746094 C 22.519531 14.667969 22.398438 14.597656 22.273438 14.535156 L 22.433594 14.28125 C 22.566406 14.351562 22.699219 14.429688 22.824219 14.511719 C 22.910156 14.570312 22.992188 14.632812 23.070312 14.695312 Z M 21.621094 14.273438 C 21.5625 14.253906 21.503906 14.238281 21.449219 14.226562 C 21.277344 14.183594 21.097656 14.15625 20.921875 14.136719 L 20.957031 13.847656 C 21.148438 13.867188 21.34375 13.898438 21.53125 13.945312 C 21.59375 13.960938 21.65625 13.976562 21.71875 13.996094 Z M 19.511719 14.269531 L 19.414062 13.992188 C 19.640625 13.925781 19.871094 13.878906 20.109375 13.855469 C 20.132812 13.851562 20.15625 13.847656 20.179688 13.847656 L 20.210938 14.136719 C 20.1875 14.140625 20.167969 14.140625 20.144531 14.144531 C 19.929688 14.167969 19.71875 14.210938 19.511719 14.269531 Z M 19.511719 14.269531 "/>
<path style=" stroke:none;fill-rule:nonzero;fill:rgb(100%,100%,100%);fill-opacity:1;" d="M 20.542969 20.023438 C 20.09375 20.023438 19.664062 19.949219 19.261719 19.800781 C 19.066406 19.730469 18.878906 19.644531 18.707031 19.539062 C 18.535156 19.4375 18.371094 19.320312 18.226562 19.191406 C 18.082031 19.0625 17.949219 18.921875 17.835938 18.769531 C 17.722656 18.617188 17.628906 18.457031 17.550781 18.285156 C 17.394531 17.9375 17.320312 17.566406 17.332031 17.179688 C 17.34375 16.796875 17.441406 16.421875 17.617188 16.074219 C 17.703125 15.90625 17.808594 15.742188 17.925781 15.589844 C 18.042969 15.441406 18.179688 15.296875 18.324219 15.167969 C 18.472656 15.039062 18.632812 14.921875 18.800781 14.820312 C 18.972656 14.71875 19.152344 14.628906 19.339844 14.558594 C 19.730469 14.410156 20.140625 14.335938 20.566406 14.335938 C 20.992188 14.335938 21.402344 14.410156 21.789062 14.558594 C 21.976562 14.628906 22.15625 14.71875 22.324219 14.820312 C 22.492188 14.921875 22.652344 15.039062 22.796875 15.167969 C 22.945312 15.296875 23.078125 15.441406 23.195312 15.589844 C 23.3125 15.742188 23.414062 15.90625 23.496094 16.074219 C 23.671875 16.421875 23.765625 16.796875 23.773438 17.179688 C 23.785156 17.566406 23.707031 17.9375 23.546875 18.285156 C 23.46875 18.457031 23.371094 18.617188 23.257812 18.769531 C 23.140625 18.921875 23.011719 19.0625 22.863281 19.191406 C 22.714844 19.320312 22.554688 19.4375 22.378906 19.539062 C 22.207031 19.644531 22.019531 19.730469 21.824219 19.800781 C 21.421875 19.949219 20.988281 20.023438 20.542969 20.023438 Z M 20.542969 20.023438 "/>
<path style=" stroke:none;fill-rule:nonzero;fill:rgb(0%,0%,0%);fill-opacity:0.2;" d="M 25.765625 17.480469 C 25.746094 19.929688 23.449219 21.882812 20.535156 21.882812 C 17.644531 21.882812 15.382812 19.96875 15.339844 17.550781 C 15.339844 17.773438 15.34375 18.027344 15.34375 18.074219 C 15.34375 20.628906 17.539062 22.675781 20.535156 22.675781 C 23.527344 22.675781 25.761719 20.621094 25.761719 18.074219 C 25.761719 18.015625 25.765625 17.710938 25.765625 17.480469 Z M 25.765625 17.480469 "/>
<path style=" stroke:none;fill-rule:nonzero;fill:rgb(100%,100%,100%);fill-opacity:0.501961;" d="M 25.765625 17.480469 C 25.746094 19.929688 23.449219 21.882812 20.535156 21.882812 C 17.644531 21.882812 15.382812 19.96875 15.339844 17.550781 C 15.339844 17.773438 15.34375 17.863281 15.34375 18.003906 C 15.34375 18.222656 15.523438 19.40625 16.597656 20.515625 C 17.367188 21.308594 18.589844 22.019531 20.535156 22.019531 C 22.476562 22.019531 23.707031 21.308594 24.480469 20.519531 C 25.570312 19.410156 25.761719 18.183594 25.761719 17.890625 C 25.761719 17.703125 25.765625 17.710938 25.765625 17.480469 Z M 25.765625 17.480469 "/>
<path style=" stroke:none;fill-rule:nonzero;fill:rgb(0%,0%,0%);fill-opacity:0.301961;" d="M 20.574219 12.578125 C 20.226562 12.578125 19.882812 12.613281 19.542969 12.675781 C 19.210938 12.734375 18.886719 12.828125 18.574219 12.949219 C 18.265625 13.066406 17.96875 13.210938 17.6875 13.378906 C 17.410156 13.546875 17.144531 13.742188 16.90625 13.953125 C 16.664062 14.164062 16.441406 14.398438 16.246094 14.648438 C 16.050781 14.898438 15.878906 15.167969 15.738281 15.445312 C 15.589844 15.730469 15.476562 16.027344 15.394531 16.328125 C 15.308594 16.640625 15.257812 16.957031 15.242188 17.277344 C 15.234375 17.441406 15.238281 17.804688 15.242188 17.984375 C 15.242188 18.027344 15.242188 18.0625 15.242188 18.074219 C 15.242188 18.394531 15.277344 18.71875 15.34375 19.027344 C 15.410156 19.332031 15.511719 19.628906 15.640625 19.914062 C 15.769531 20.195312 15.929688 20.464844 16.113281 20.714844 C 16.300781 20.964844 16.511719 21.195312 16.746094 21.410156 C 16.984375 21.621094 17.246094 21.8125 17.523438 21.980469 C 17.804688 22.148438 18.109375 22.296875 18.425781 22.410156 C 18.746094 22.53125 19.085938 22.621094 19.433594 22.683594 C 19.789062 22.746094 20.160156 22.777344 20.535156 22.777344 C 20.90625 22.777344 21.277344 22.746094 21.636719 22.683594 C 21.984375 22.621094 22.324219 22.53125 22.648438 22.410156 C 22.96875 22.292969 23.273438 22.148438 23.558594 21.980469 C 23.835938 21.8125 24.101562 21.617188 24.339844 21.40625 C 24.578125 21.195312 24.792969 20.960938 24.980469 20.710938 C 25.167969 20.460938 25.328125 20.191406 25.460938 19.910156 C 25.589844 19.625 25.691406 19.328125 25.761719 19.023438 C 25.828125 18.714844 25.863281 18.394531 25.863281 18.074219 C 25.863281 18.058594 25.867188 18.019531 25.867188 17.96875 C 25.867188 17.78125 25.871094 17.429688 25.863281 17.277344 C 25.851562 16.960938 25.804688 16.640625 25.722656 16.328125 C 25.640625 16.027344 25.527344 15.730469 25.386719 15.445312 C 25.246094 15.167969 25.078125 14.898438 24.882812 14.648438 C 24.6875 14.398438 24.46875 14.164062 24.230469 13.953125 C 23.992188 13.742188 23.730469 13.546875 23.453125 13.378906 C 23.171875 13.210938 22.875 13.066406 22.570312 12.949219 C 22.257812 12.828125 21.933594 12.734375 21.601562 12.675781 C 21.265625 12.613281 20.917969 12.578125 20.574219 12.578125 Z M 20.574219 12.578125 "/>
<path style=" stroke:none;fill-rule:nonzero;fill:rgb(0%,0%,0%);fill-opacity:1;" d="M 20.917969 21.171875 C 20.183594 21.171875 19.480469 21.050781 18.828125 20.808594 C 18.515625 20.695312 18.214844 20.550781 17.933594 20.382812 C 17.660156 20.21875 17.402344 20.027344 17.167969 19.816406 C 16.933594 19.609375 16.722656 19.375 16.542969 19.128906 C 16.359375 18.882812 16.199219 18.617188 16.074219 18.339844 C 15.8125 17.769531 15.679688 17.15625 15.679688 16.519531 C 15.679688 16.507812 15.679688 16.472656 15.679688 16.429688 C 15.675781 16.253906 15.671875 15.886719 15.679688 15.726562 C 15.710938 15.097656 15.875 14.488281 16.167969 13.914062 C 16.308594 13.640625 16.476562 13.375 16.671875 13.125 C 16.867188 12.878906 17.085938 12.648438 17.324219 12.4375 C 17.5625 12.226562 17.824219 12.035156 18.097656 11.871094 C 18.378906 11.703125 18.671875 11.558594 18.976562 11.441406 C 19.609375 11.199219 20.277344 11.078125 20.957031 11.078125 C 21.640625 11.078125 22.304688 11.199219 22.9375 11.441406 C 23.238281 11.558594 23.535156 11.703125 23.8125 11.871094 C 24.085938 12.039062 24.34375 12.226562 24.582031 12.4375 C 24.820312 12.648438 25.035156 12.878906 25.226562 13.125 C 25.417969 13.375 25.585938 13.640625 25.726562 13.917969 C 26.011719 14.488281 26.171875 15.097656 26.199219 15.726562 C 26.207031 15.875 26.203125 16.226562 26.199219 16.414062 C 26.199219 16.464844 26.199219 16.503906 26.199219 16.519531 C 26.199219 17.152344 26.0625 17.765625 25.796875 18.335938 C 25.667969 18.613281 25.511719 18.878906 25.324219 19.125 C 25.140625 19.375 24.925781 19.605469 24.691406 19.816406 C 24.453125 20.023438 24.195312 20.214844 23.914062 20.382812 C 23.632812 20.550781 23.332031 20.691406 23.015625 20.808594 C 22.363281 21.050781 21.65625 21.171875 20.917969 21.171875 Z M 20.917969 21.171875 "/>
<path style=" stroke:none;fill-rule:nonzero;fill:rgb(0%,0%,0%);fill-opacity:1;" d="M 20.957031 11.128906 C 23.71875 11.128906 26.039062 13.1875 26.148438 15.730469 C 26.15625 15.917969 26.148438 16.441406 26.148438 16.519531 C 26.148438 19.066406 23.914062 21.121094 20.917969 21.121094 C 17.925781 21.121094 15.730469 19.074219 15.730469 16.519531 C 15.730469 16.453125 15.71875 15.929688 15.730469 15.730469 C 15.859375 13.1875 18.199219 11.128906 20.957031 11.128906 M 20.957031 11.027344 C 20.613281 11.027344 20.265625 11.058594 19.929688 11.121094 C 19.597656 11.183594 19.273438 11.273438 18.957031 11.394531 C 18.652344 11.511719 18.351562 11.65625 18.074219 11.828125 C 17.792969 11.996094 17.53125 12.1875 17.289062 12.398438 C 17.046875 12.613281 16.828125 12.84375 16.632812 13.09375 C 16.4375 13.34375 16.265625 13.613281 16.121094 13.890625 C 15.976562 14.175781 15.863281 14.472656 15.78125 14.777344 C 15.695312 15.085938 15.644531 15.40625 15.628906 15.726562 C 15.621094 15.886719 15.625 16.253906 15.625 16.429688 C 15.628906 16.472656 15.628906 16.507812 15.628906 16.519531 C 15.628906 16.84375 15.660156 17.164062 15.730469 17.472656 C 15.796875 17.777344 15.898438 18.078125 16.027344 18.359375 C 16.15625 18.640625 16.3125 18.910156 16.5 19.160156 C 16.683594 19.410156 16.898438 19.644531 17.132812 19.855469 C 17.371094 20.066406 17.628906 20.261719 17.910156 20.429688 C 18.191406 20.597656 18.492188 20.742188 18.808594 20.859375 C 19.132812 20.976562 19.472656 21.070312 19.820312 21.128906 C 20.175781 21.191406 20.546875 21.226562 20.917969 21.226562 C 21.292969 21.226562 21.664062 21.191406 22.023438 21.128906 C 22.371094 21.070312 22.710938 20.976562 23.035156 20.859375 C 23.351562 20.742188 23.660156 20.59375 23.941406 20.425781 C 24.222656 20.257812 24.488281 20.066406 24.726562 19.851562 C 24.960938 19.640625 25.179688 19.40625 25.367188 19.15625 C 25.554688 18.90625 25.714844 18.636719 25.84375 18.355469 C 25.976562 18.074219 26.078125 17.777344 26.144531 17.472656 C 26.214844 17.160156 26.25 16.84375 26.25 16.519531 C 26.25 16.503906 26.25 16.464844 26.25 16.414062 C 26.253906 16.226562 26.257812 15.875 26.25 15.726562 C 26.238281 15.40625 26.1875 15.085938 26.105469 14.777344 C 26.027344 14.472656 25.914062 14.175781 25.773438 13.894531 C 25.632812 13.613281 25.460938 13.34375 25.269531 13.09375 C 25.074219 12.847656 24.855469 12.613281 24.617188 12.398438 C 24.375 12.1875 24.113281 11.996094 23.839844 11.828125 C 23.558594 11.65625 23.261719 11.511719 22.957031 11.394531 C 22.644531 11.273438 22.316406 11.183594 21.988281 11.121094 C 21.648438 11.058594 21.304688 11.027344 20.957031 11.027344 Z M 20.957031 11.027344 "/>
<path style=" stroke:none;fill-rule:nonzero;fill:rgb(100%,100%,100%);fill-opacity:1;" d="M 15.914062 17.121094 L 15.914062 17.765625 C 16.117188 18.445312 16.484375 19.058594 16.984375 19.570312 L 16.984375 18.824219 Z M 15.914062 17.121094 "/>
<path style=" stroke:none;fill-rule:nonzero;fill:rgb(100%,100%,100%);fill-opacity:1;" d="M 17.421875 17.492188 C 16.964844 16.757812 16.773438 16.695312 16.773438 16.695312 L 15.914062 17.121094 C 16.121094 17.761719 16.488281 18.339844 16.984375 18.824219 L 17.84375 18.402344 C 17.84375 18.402344 17.890625 18.226562 17.421875 17.492188 Z M 17.421875 17.492188 "/>
<path style=" stroke:none;fill-rule:nonzero;fill:rgb(100%,100%,100%);fill-opacity:1;" d="M 24.359375 13.960938 C 24.855469 14.695312 25.050781 14.757812 25.050781 14.757812 L 25.855469 14.332031 C 25.605469 13.691406 25.207031 13.109375 24.707031 12.621094 L 23.902344 13.046875 C 23.902344 13.046875 23.871094 13.226562 24.359375 13.960938 Z M 24.359375 13.960938 "/>
<path style=" stroke:none;fill-rule:nonzero;fill:rgb(100%,100%,100%);fill-opacity:1;" d="M 17.546875 13.96875 C 18.042969 13.230469 18.011719 13.054688 18.011719 13.054688 L 17.199219 12.621094 C 16.691406 13.109375 16.289062 13.691406 16.035156 14.332031 L 16.851562 14.761719 C 16.851562 14.761719 17.042969 14.703125 17.546875 13.96875 Z M 17.546875 13.96875 "/>
<path style=" stroke:none;fill-rule:nonzero;fill:rgb(100%,100%,100%);fill-opacity:1;" d="M 24.867188 18.824219 L 24.867188 19.574219 C 25.371094 19.070312 25.742188 18.460938 25.953125 17.792969 L 25.953125 17.121094 Z M 24.867188 18.824219 "/>
<path style=" stroke:none;fill-rule:nonzero;fill:rgb(100%,100%,100%);fill-opacity:1;" d="M 25.953125 17.121094 L 25.097656 16.695312 C 25.097656 16.695312 24.90625 16.757812 24.441406 17.492188 C 23.96875 18.226562 24.011719 18.402344 24.011719 18.402344 L 24.867188 18.824219 C 25.367188 18.339844 25.742188 17.761719 25.953125 17.121094 Z M 25.953125 17.121094 "/>
<path style=" stroke:none;fill-rule:nonzero;fill:rgb(100%,100%,100%);fill-opacity:1;" d="M 19.757812 20.222656 L 19.757812 21.015625 C 20.128906 21.085938 20.515625 21.121094 20.917969 21.121094 C 21.320312 21.121094 21.710938 21.085938 22.082031 21.015625 L 22.082031 20.222656 Z M 19.757812 20.222656 "/>
<path style=" stroke:none;fill-rule:nonzero;fill:rgb(100%,100%,100%);fill-opacity:1;" d="M 20.925781 19.253906 C 19.933594 19.253906 19.769531 19.371094 19.769531 19.371094 L 19.757812 20.222656 C 20.132812 20.292969 20.519531 20.332031 20.917969 20.332031 C 21.320312 20.332031 21.707031 20.292969 22.082031 20.222656 L 22.074219 19.371094 C 22.074219 19.371094 21.917969 19.253906 20.925781 19.253906 Z M 20.925781 19.253906 "/>
<path style=" stroke:none;fill-rule:nonzero;fill:rgb(100%,100%,100%);fill-opacity:1;" d="M 20.953125 12.207031 C 21.886719 12.207031 22.035156 12.089844 22.035156 12.089844 L 22.03125 11.234375 C 21.683594 11.164062 21.324219 11.128906 20.957031 11.128906 C 20.59375 11.128906 20.234375 11.164062 19.886719 11.234375 L 19.875 12.089844 C 19.875 12.089844 20.023438 12.207031 20.953125 12.207031 Z M 20.953125 12.207031 "/>
<path style=" stroke:none;fill-rule:nonzero;fill:rgb(100%,100%,100%);fill-opacity:1;" d="M 20.929688 19.046875 C 20.835938 19.046875 20.742188 19.042969 20.652344 19.039062 C 20.605469 19.035156 20.558594 19.03125 20.511719 19.027344 L 20.550781 18.738281 C 20.59375 18.742188 20.636719 18.746094 20.675781 18.746094 C 20.761719 18.753906 20.847656 18.753906 20.929688 18.753906 C 21.054688 18.753906 21.179688 18.75 21.300781 18.738281 L 21.335938 19.027344 C 21.203125 19.042969 21.066406 19.046875 20.929688 19.046875 Z M 22.144531 18.882812 L 22.039062 18.605469 C 22.273438 18.539062 22.503906 18.449219 22.71875 18.339844 L 22.722656 18.339844 L 22.894531 18.59375 L 22.808594 18.464844 L 22.894531 18.59375 C 22.65625 18.710938 22.402344 18.808594 22.144531 18.882812 Z M 19.707031 18.882812 C 19.53125 18.832031 19.363281 18.773438 19.199219 18.703125 C 19.117188 18.667969 19.039062 18.632812 18.960938 18.59375 L 19.132812 18.339844 C 19.207031 18.375 19.277344 18.410156 19.351562 18.441406 C 19.5 18.503906 19.65625 18.558594 19.816406 18.601562 Z M 18.304688 18.179688 C 18.109375 18.019531 17.929688 17.84375 17.773438 17.652344 L 18.050781 17.480469 C 18.191406 17.65625 18.355469 17.816406 18.539062 17.960938 Z M 23.550781 18.175781 L 23.320312 17.960938 C 23.488281 17.828125 23.636719 17.683594 23.769531 17.527344 C 23.785156 17.511719 23.796875 17.496094 23.8125 17.480469 L 24.085938 17.652344 C 24.074219 17.667969 24.058594 17.6875 24.042969 17.703125 C 23.898438 17.875 23.734375 18.035156 23.550781 18.175781 Z M 17.390625 17.039062 C 17.285156 16.824219 17.210938 16.597656 17.164062 16.367188 L 17.488281 16.304688 C 17.535156 16.515625 17.605469 16.722656 17.699219 16.917969 Z M 24.476562 17.039062 L 24.167969 16.917969 C 24.242188 16.773438 24.296875 16.617188 24.34375 16.460938 C 24.355469 16.410156 24.371094 16.355469 24.382812 16.304688 L 24.707031 16.363281 C 24.695312 16.421875 24.683594 16.480469 24.667969 16.539062 C 24.617188 16.707031 24.554688 16.875 24.476562 17.039062 Z M 17.4375 15.660156 L 17.105469 15.660156 C 17.109375 15.582031 17.113281 15.503906 17.125 15.425781 C 17.140625 15.269531 17.171875 15.113281 17.214844 14.957031 L 17.535156 15.019531 C 17.496094 15.160156 17.46875 15.304688 17.453125 15.445312 C 17.445312 15.519531 17.4375 15.589844 17.4375 15.660156 Z M 24.773438 15.660156 L 24.441406 15.660156 L 24.441406 15.65625 C 24.4375 15.53125 24.425781 15.402344 24.40625 15.277344 C 24.390625 15.191406 24.371094 15.101562 24.347656 15.015625 L 24.667969 14.957031 C 24.695312 15.050781 24.714844 15.144531 24.730469 15.242188 C 24.753906 15.378906 24.769531 15.519531 24.773438 15.65625 Z M 17.78125 14.402344 L 17.484375 14.285156 C 17.503906 14.246094 17.527344 14.210938 17.546875 14.175781 C 17.648438 14 17.765625 13.828125 17.898438 13.671875 L 18.160156 13.84375 C 18.035156 13.988281 17.929688 14.140625 17.835938 14.304688 C 17.816406 14.335938 17.796875 14.371094 17.78125 14.402344 Z M 24.109375 14.402344 C 24.058594 14.304688 24 14.207031 23.9375 14.113281 C 23.875 14.019531 23.804688 13.929688 23.734375 13.839844 L 23.992188 13.671875 C 24.070312 13.765625 24.148438 13.867188 24.214844 13.96875 C 24.285156 14.070312 24.347656 14.175781 24.402344 14.28125 Z M 18.652344 13.363281 L 18.441406 13.144531 C 18.636719 12.988281 18.855469 12.847656 19.085938 12.730469 L 19.242188 12.980469 C 19.03125 13.089844 18.832031 13.21875 18.652344 13.363281 Z M 23.246094 13.359375 C 23.171875 13.300781 23.09375 13.246094 23.015625 13.191406 C 22.902344 13.117188 22.785156 13.046875 22.660156 12.980469 L 22.816406 12.726562 C 22.953125 12.796875 23.082031 12.875 23.207031 12.960938 C 23.292969 13.019531 23.378906 13.078125 23.457031 13.144531 Z M 22.003906 12.71875 C 21.949219 12.703125 21.890625 12.6875 21.832031 12.671875 C 21.660156 12.632812 21.484375 12.601562 21.308594 12.585938 L 21.339844 12.292969 C 21.535156 12.3125 21.726562 12.34375 21.914062 12.390625 C 21.976562 12.40625 22.039062 12.421875 22.101562 12.441406 Z M 19.898438 12.71875 L 19.800781 12.441406 C 20.027344 12.375 20.257812 12.328125 20.492188 12.300781 C 20.515625 12.296875 20.539062 12.296875 20.5625 12.292969 L 20.59375 12.582031 C 20.574219 12.585938 20.550781 12.589844 20.53125 12.589844 C 20.316406 12.613281 20.101562 12.65625 19.898438 12.71875 Z M 19.898438 12.71875 "/>
<path style=" stroke:none;fill-rule:nonzero;fill:rgb(100%,100%,100%);fill-opacity:1;" d="M 20.925781 18.472656 C 20.480469 18.472656 20.050781 18.398438 19.644531 18.25 C 19.453125 18.179688 19.265625 18.089844 19.09375 17.988281 C 18.917969 17.886719 18.757812 17.769531 18.613281 17.636719 C 18.464844 17.507812 18.335938 17.367188 18.222656 17.214844 C 18.109375 17.0625 18.011719 16.902344 17.9375 16.734375 C 17.777344 16.382812 17.707031 16.011719 17.71875 15.625 C 17.730469 15.242188 17.828125 14.871094 18.003906 14.519531 C 18.089844 14.351562 18.191406 14.1875 18.3125 14.039062 C 18.429688 13.886719 18.5625 13.746094 18.710938 13.613281 C 18.855469 13.484375 19.019531 13.367188 19.1875 13.265625 C 19.359375 13.164062 19.539062 13.074219 19.726562 13.003906 C 20.113281 12.855469 20.527344 12.78125 20.949219 12.78125 C 21.375 12.78125 21.785156 12.855469 22.175781 13.003906 C 22.359375 13.074219 22.542969 13.164062 22.710938 13.265625 C 22.878906 13.367188 23.039062 13.484375 23.183594 13.613281 C 23.328125 13.746094 23.464844 13.886719 23.578125 14.039062 C 23.699219 14.1875 23.800781 14.351562 23.882812 14.519531 C 24.058594 14.871094 24.152344 15.242188 24.160156 15.625 C 24.167969 16.011719 24.09375 16.382812 23.933594 16.734375 C 23.855469 16.902344 23.757812 17.0625 23.640625 17.214844 C 23.527344 17.367188 23.394531 17.507812 23.25 17.636719 C 23.101562 17.769531 22.9375 17.886719 22.765625 17.988281 C 22.589844 18.089844 22.40625 18.179688 22.210938 18.25 C 21.804688 18.398438 21.375 18.472656 20.925781 18.472656 Z M 20.925781 18.472656 "/>
<path style=" stroke:none;fill-rule:nonzero;fill:rgb(0%,0%,0%);fill-opacity:0.2;" d="M 26.152344 15.925781 C 26.132812 18.375 23.835938 20.332031 20.917969 20.332031 C 18.03125 20.332031 15.765625 18.414062 15.726562 15.996094 C 15.726562 16.21875 15.730469 16.476562 15.730469 16.519531 C 15.730469 19.074219 17.925781 21.121094 20.917969 21.121094 C 23.914062 21.121094 26.148438 19.066406 26.148438 16.519531 C 26.148438 16.464844 26.152344 16.15625 26.152344 15.925781 Z M 26.152344 15.925781 "/>
<path style=" stroke:none;fill-rule:nonzero;fill:rgb(100%,100%,100%);fill-opacity:0.501961;" d="M 26.152344 15.925781 C 26.132812 18.375 23.835938 20.332031 20.917969 20.332031 C 18.03125 20.332031 15.765625 18.414062 15.726562 15.996094 C 15.726562 16.21875 15.730469 16.308594 15.730469 16.453125 C 15.730469 16.667969 15.90625 17.855469 16.984375 18.964844 C 17.75 19.753906 18.976562 20.46875 20.917969 20.46875 C 22.859375 20.46875 24.09375 19.757812 24.867188 18.964844 C 25.957031 17.855469 26.148438 16.628906 26.148438 16.335938 C 26.148438 16.152344 26.152344 16.15625 26.152344 15.925781 Z M 26.152344 15.925781 "/>
<path style=" stroke:none;fill-rule:nonzero;fill:rgb(87.843137%,84.705882%,41.568627%);fill-opacity:1;" d="M 19.953125 20.003906 L 19.949219 19.984375 C 19.949219 19.976562 19.929688 19.796875 20.050781 19.734375 L 20.121094 19.699219 C 20.230469 19.640625 20.375 19.566406 20.417969 19.535156 C 20.4375 19.523438 20.445312 19.511719 20.453125 19.5 C 20.46875 19.480469 20.484375 19.457031 20.519531 19.457031 C 20.523438 19.425781 20.535156 19.378906 20.570312 19.34375 C 20.609375 19.300781 20.652344 19.195312 20.652344 19.066406 L 20.652344 18.925781 C 20.652344 18.886719 20.628906 18.863281 20.605469 18.839844 C 20.585938 18.820312 20.578125 18.789062 20.578125 18.753906 C 20.578125 18.71875 20.585938 18.65625 20.640625 18.601562 C 20.699219 18.542969 20.734375 18.457031 20.734375 18.371094 C 20.734375 18.324219 20.6875 18.226562 20.625 18.136719 C 20.605469 18.109375 20.523438 18.023438 20.460938 17.964844 C 20.234375 17.75 20.035156 17.519531 19.882812 17.296875 C 19.671875 16.976562 19.484375 16.550781 19.371094 16.128906 C 19.183594 15.433594 19.167969 14.832031 19.167969 14.320312 L 19.167969 14.296875 L 22.65625 14.296875 L 22.65625 14.320312 C 22.65625 14.832031 22.640625 15.433594 22.453125 16.128906 C 22.34375 16.550781 22.15625 16.976562 21.941406 17.296875 C 21.792969 17.519531 21.589844 17.75 21.363281 17.964844 C 21.304688 18.023438 21.21875 18.109375 21.199219 18.136719 C 21.136719 18.226562 21.089844 18.324219 21.089844 18.371094 C 21.089844 18.457031 21.125 18.542969 21.1875 18.601562 C 21.222656 18.636719 21.242188 18.683594 21.246094 18.734375 C 21.25 18.78125 21.238281 18.820312 21.222656 18.835938 C 21.199219 18.863281 21.171875 18.886719 21.171875 18.925781 L 21.171875 19.066406 C 21.171875 19.195312 21.214844 19.300781 21.253906 19.34375 C 21.289062 19.378906 21.300781 19.425781 21.304688 19.457031 C 21.339844 19.457031 21.355469 19.480469 21.371094 19.5 C 21.378906 19.511719 21.390625 19.523438 21.40625 19.535156 C 21.449219 19.566406 21.59375 19.640625 21.703125 19.695312 L 21.773438 19.734375 C 21.894531 19.796875 21.875 19.976562 21.875 19.984375 L 21.875 20.003906 Z M 19.953125 20.003906 "/>
<path style=" stroke:none;fill-rule:nonzero;fill:rgb(74.509804%,59.607843%,9.803922%);fill-opacity:1;" d="M 22.632812 14.320312 C 22.632812 14.773438 22.625 15.40625 22.429688 16.125 C 22.335938 16.484375 22.164062 16.917969 21.917969 17.285156 C 21.71875 17.582031 21.480469 17.820312 21.347656 17.949219 C 21.292969 18 21.203125 18.089844 21.179688 18.121094 C 21.121094 18.207031 21.066406 18.3125 21.066406 18.371094 C 21.066406 18.449219 21.097656 18.546875 21.167969 18.617188 C 21.242188 18.691406 21.226562 18.796875 21.203125 18.820312 C 21.183594 18.84375 21.148438 18.875 21.148438 18.925781 C 21.148438 18.976562 21.148438 18.9375 21.148438 19.066406 C 21.148438 19.199219 21.191406 19.308594 21.238281 19.359375 C 21.285156 19.410156 21.28125 19.484375 21.28125 19.484375 C 21.289062 19.480469 21.296875 19.480469 21.304688 19.480469 C 21.34375 19.480469 21.34375 19.523438 21.390625 19.554688 C 21.445312 19.59375 21.652344 19.699219 21.761719 19.753906 C 21.871094 19.8125 21.851562 19.980469 21.851562 19.980469 L 19.972656 19.980469 C 19.972656 19.980469 19.957031 19.8125 20.0625 19.753906 C 20.171875 19.699219 20.378906 19.59375 20.433594 19.554688 C 20.480469 19.523438 20.480469 19.480469 20.519531 19.480469 C 20.527344 19.480469 20.535156 19.480469 20.542969 19.484375 C 20.542969 19.484375 20.539062 19.410156 20.585938 19.359375 C 20.636719 19.308594 20.675781 19.199219 20.675781 19.066406 C 20.675781 18.9375 20.675781 18.976562 20.675781 18.925781 C 20.675781 18.875 20.644531 18.84375 20.621094 18.820312 C 20.597656 18.796875 20.582031 18.691406 20.65625 18.617188 C 20.730469 18.546875 20.757812 18.449219 20.757812 18.371094 C 20.757812 18.3125 20.703125 18.203125 20.644531 18.121094 C 20.625 18.089844 20.53125 18 20.476562 17.949219 C 20.34375 17.820312 20.105469 17.582031 19.90625 17.285156 C 19.660156 16.917969 19.488281 16.484375 19.394531 16.125 C 19.199219 15.40625 19.191406 14.773438 19.191406 14.320312 L 22.632812 14.320312 M 22.679688 14.269531 L 19.144531 14.269531 L 19.144531 14.320312 C 19.144531 14.832031 19.160156 15.4375 19.347656 16.136719 C 19.460938 16.558594 19.648438 16.988281 19.863281 17.3125 C 20.015625 17.535156 20.214844 17.769531 20.445312 17.984375 C 20.503906 18.039062 20.585938 18.125 20.605469 18.148438 C 20.671875 18.242188 20.710938 18.335938 20.710938 18.371094 C 20.710938 18.449219 20.675781 18.527344 20.621094 18.585938 C 20.5625 18.644531 20.554688 18.714844 20.554688 18.753906 C 20.554688 18.773438 20.558594 18.824219 20.585938 18.855469 L 20.589844 18.859375 C 20.613281 18.882812 20.628906 18.898438 20.628906 18.925781 L 20.628906 19.066406 C 20.628906 19.191406 20.589844 19.289062 20.550781 19.328125 C 20.519531 19.363281 20.503906 19.402344 20.5 19.433594 C 20.464844 19.441406 20.449219 19.46875 20.433594 19.484375 C 20.425781 19.496094 20.417969 19.507812 20.40625 19.515625 C 20.363281 19.542969 20.21875 19.621094 20.109375 19.675781 L 20.042969 19.710938 C 19.90625 19.785156 19.925781 19.976562 19.925781 19.984375 L 19.929688 20.027344 L 21.894531 20.027344 L 21.898438 19.984375 C 21.902344 19.976562 21.917969 19.785156 21.785156 19.710938 L 21.710938 19.675781 C 21.605469 19.621094 21.460938 19.542969 21.417969 19.515625 C 21.40625 19.507812 21.398438 19.496094 21.390625 19.484375 C 21.378906 19.46875 21.359375 19.441406 21.324219 19.433594 C 21.320312 19.402344 21.304688 19.363281 21.273438 19.328125 C 21.234375 19.289062 21.195312 19.191406 21.195312 19.066406 L 21.195312 18.925781 C 21.195312 18.898438 21.210938 18.882812 21.234375 18.859375 L 21.238281 18.855469 C 21.265625 18.828125 21.273438 18.773438 21.269531 18.734375 C 21.265625 18.675781 21.242188 18.625 21.203125 18.585938 C 21.148438 18.527344 21.113281 18.449219 21.113281 18.371094 C 21.113281 18.335938 21.152344 18.242188 21.21875 18.148438 C 21.238281 18.125 21.320312 18.039062 21.378906 17.984375 C 21.609375 17.769531 21.808594 17.535156 21.960938 17.3125 C 22.175781 16.988281 22.363281 16.558594 22.476562 16.136719 C 22.664062 15.4375 22.679688 14.832031 22.679688 14.320312 Z M 22.679688 14.269531 "/>
<path style=" stroke:none;fill-rule:nonzero;fill:rgb(87.843137%,84.705882%,41.568627%);fill-opacity:1;" d="M 21.859375 18.304688 C 21.8125 18.304688 21.769531 18.292969 21.730469 18.273438 C 21.617188 18.210938 21.5625 18.078125 21.5625 17.972656 C 21.5625 17.777344 21.640625 17.609375 21.800781 17.449219 L 21.972656 17.277344 C 22.917969 16.335938 23.484375 15.769531 23.484375 15.246094 C 23.484375 14.933594 23.335938 14.761719 23.195312 14.707031 C 23.152344 14.691406 23.113281 14.683594 23.070312 14.683594 C 22.96875 14.683594 22.867188 14.730469 22.785156 14.816406 C 22.515625 15.101562 22.75 15.417969 22.777344 15.453125 L 22.792969 15.472656 L 22.660156 15.578125 L 22.648438 15.558594 C 22.519531 15.402344 22.359375 15.019531 22.664062 14.699219 C 22.777344 14.578125 22.921875 14.511719 23.070312 14.511719 C 23.132812 14.511719 23.195312 14.523438 23.257812 14.546875 C 23.503906 14.648438 23.65625 14.914062 23.65625 15.246094 C 23.65625 15.839844 23.066406 16.425781 22.09375 17.394531 L 21.921875 17.570312 C 21.792969 17.695312 21.734375 17.824219 21.734375 17.972656 C 21.734375 18.027344 21.761719 18.097656 21.808594 18.125 C 21.824219 18.132812 21.839844 18.136719 21.859375 18.136719 C 21.898438 18.136719 21.945312 18.117188 21.996094 18.085938 L 22.015625 18.070312 L 22.109375 18.210938 L 22.089844 18.226562 C 22.007812 18.277344 21.933594 18.304688 21.859375 18.304688 Z M 21.859375 18.304688 "/>
<path style=" stroke:none;fill-rule:nonzero;fill:rgb(74.509804%,59.607843%,9.803922%);fill-opacity:1;" d="M 23.070312 14.535156 C 23.128906 14.535156 23.1875 14.546875 23.246094 14.570312 C 23.484375 14.664062 23.632812 14.925781 23.632812 15.246094 C 23.632812 15.832031 23.046875 16.414062 22.078125 17.378906 L 21.902344 17.550781 C 21.769531 17.683594 21.710938 17.816406 21.710938 17.972656 C 21.710938 18.035156 21.738281 18.113281 21.796875 18.144531 C 21.816406 18.15625 21.839844 18.160156 21.859375 18.160156 C 21.910156 18.160156 21.964844 18.132812 22.007812 18.105469 L 22.074219 18.207031 C 21.992188 18.261719 21.917969 18.28125 21.859375 18.28125 C 21.8125 18.28125 21.773438 18.269531 21.742188 18.25 C 21.636719 18.195312 21.589844 18.070312 21.589844 17.972656 C 21.589844 17.785156 21.660156 17.621094 21.816406 17.464844 L 21.992188 17.292969 C 22.9375 16.351562 23.511719 15.78125 23.511719 15.246094 C 23.511719 14.921875 23.351562 14.742188 23.203125 14.683594 C 23.160156 14.667969 23.117188 14.65625 23.070312 14.65625 C 22.964844 14.65625 22.855469 14.707031 22.769531 14.800781 C 22.476562 15.105469 22.746094 15.453125 22.761719 15.46875 L 22.710938 15.507812 L 22.726562 15.492188 L 22.664062 15.542969 C 22.542969 15.390625 22.390625 15.023438 22.679688 14.714844 C 22.792969 14.597656 22.929688 14.535156 23.070312 14.535156 M 22.761719 15.46875 L 22.761719 15.46875 M 22.761719 15.46875 L 22.726562 15.492188 L 22.761719 15.46875 M 23.070312 14.488281 L 23.070312 14.535156 L 23.070312 14.488281 C 22.914062 14.488281 22.765625 14.558594 22.644531 14.683594 C 22.332031 15.015625 22.496094 15.410156 22.628906 15.574219 L 22.660156 15.613281 L 22.695312 15.582031 L 22.757812 15.53125 L 22.789062 15.507812 L 22.828125 15.476562 L 22.796875 15.4375 C 22.769531 15.40625 22.546875 15.101562 22.804688 14.832031 C 22.882812 14.75 22.976562 14.707031 23.070312 14.707031 C 23.109375 14.707031 23.148438 14.714844 23.183594 14.726562 C 23.320312 14.78125 23.460938 14.945312 23.460938 15.246094 C 23.460938 15.761719 22.894531 16.324219 21.957031 17.257812 L 21.785156 17.433594 C 21.617188 17.597656 21.539062 17.769531 21.539062 17.972656 C 21.539062 18.085938 21.59375 18.226562 21.71875 18.292969 C 21.761719 18.316406 21.808594 18.328125 21.859375 18.328125 C 21.9375 18.328125 22.019531 18.300781 22.101562 18.246094 L 22.144531 18.21875 L 22.117188 18.179688 L 22.046875 18.078125 L 22.023438 18.039062 L 21.980469 18.066406 C 21.933594 18.09375 21.894531 18.113281 21.859375 18.113281 C 21.84375 18.113281 21.832031 18.109375 21.820312 18.101562 C 21.78125 18.082031 21.757812 18.019531 21.757812 17.972656 C 21.757812 17.832031 21.816406 17.707031 21.9375 17.585938 L 22.109375 17.414062 C 23.089844 16.4375 23.679688 15.851562 23.679688 15.246094 C 23.679688 14.902344 23.519531 14.628906 23.265625 14.527344 C 23.203125 14.5 23.136719 14.488281 23.070312 14.488281 Z M 23.070312 14.488281 "/>
<path style=" stroke:none;fill-rule:nonzero;fill:rgb(87.843137%,84.705882%,41.568627%);fill-opacity:1;" d="M 19.964844 18.304688 C 19.894531 18.304688 19.816406 18.277344 19.734375 18.226562 L 19.714844 18.210938 L 19.808594 18.070312 L 19.828125 18.085938 C 19.878906 18.117188 19.925781 18.136719 19.964844 18.136719 C 19.984375 18.136719 20 18.132812 20.015625 18.125 C 20.066406 18.097656 20.089844 18.027344 20.089844 17.972656 C 20.089844 17.824219 20.03125 17.695312 19.902344 17.570312 L 19.730469 17.398438 C 18.757812 16.425781 18.167969 15.839844 18.167969 15.246094 C 18.167969 14.914062 18.320312 14.648438 18.566406 14.550781 C 18.628906 14.523438 18.691406 14.511719 18.753906 14.511719 C 18.902344 14.511719 19.046875 14.578125 19.160156 14.699219 C 19.464844 15.019531 19.304688 15.402344 19.179688 15.558594 L 19.164062 15.578125 L 19.03125 15.472656 L 19.046875 15.453125 C 19.074219 15.417969 19.308594 15.101562 19.039062 14.816406 C 18.957031 14.730469 18.855469 14.683594 18.753906 14.683594 C 18.710938 14.683594 18.671875 14.691406 18.632812 14.707031 C 18.488281 14.761719 18.339844 14.933594 18.339844 15.246094 C 18.339844 15.769531 18.90625 16.335938 19.851562 17.277344 L 20.023438 17.449219 C 20.183594 17.609375 20.261719 17.777344 20.261719 17.972656 C 20.261719 18.078125 20.210938 18.210938 20.09375 18.273438 C 20.054688 18.292969 20.011719 18.304688 19.964844 18.304688 Z M 19.964844 18.304688 "/>
<path style=" stroke:none;fill-rule:nonzero;fill:rgb(74.509804%,59.607843%,9.803922%);fill-opacity:1;" d="M 18.753906 14.535156 C 18.894531 14.535156 19.03125 14.597656 19.144531 14.714844 C 19.433594 15.023438 19.28125 15.390625 19.160156 15.542969 L 19.09375 15.492188 L 19.113281 15.507812 L 19.066406 15.46875 C 19.078125 15.453125 19.347656 15.105469 19.054688 14.800781 C 18.96875 14.707031 18.859375 14.65625 18.753906 14.65625 C 18.710938 14.65625 18.664062 14.667969 18.621094 14.683594 C 18.472656 14.742188 18.3125 14.921875 18.3125 15.246094 C 18.3125 15.78125 18.886719 16.351562 19.832031 17.292969 L 20.007812 17.464844 C 20.164062 17.621094 20.234375 17.785156 20.234375 17.972656 C 20.234375 18.070312 20.1875 18.195312 20.082031 18.25 C 20.054688 18.269531 20.015625 18.28125 19.964844 18.28125 C 19.90625 18.28125 19.835938 18.261719 19.75 18.207031 L 19.816406 18.105469 C 19.859375 18.132812 19.914062 18.160156 19.964844 18.160156 C 19.988281 18.160156 20.007812 18.15625 20.027344 18.144531 C 20.085938 18.113281 20.113281 18.035156 20.113281 17.972656 C 20.113281 17.816406 20.054688 17.683594 19.921875 17.550781 L 19.75 17.378906 C 18.777344 16.414062 18.195312 15.832031 18.195312 15.246094 C 18.195312 14.925781 18.339844 14.664062 18.578125 14.570312 C 18.636719 14.546875 18.695312 14.535156 18.753906 14.535156 M 19.066406 15.46875 L 19.066406 15.46875 M 19.066406 15.46875 L 19.09375 15.492188 L 19.066406 15.46875 M 18.753906 14.488281 C 18.6875 14.488281 18.621094 14.5 18.558594 14.527344 C 18.304688 14.628906 18.144531 14.902344 18.144531 15.246094 C 18.144531 15.851562 18.734375 16.4375 19.714844 17.414062 L 19.886719 17.585938 C 20.011719 17.707031 20.066406 17.832031 20.066406 17.972656 C 20.066406 18.019531 20.042969 18.082031 20.003906 18.101562 C 19.992188 18.109375 19.980469 18.113281 19.964844 18.113281 C 19.933594 18.113281 19.890625 18.09375 19.84375 18.066406 L 19.804688 18.039062 L 19.777344 18.078125 L 19.710938 18.179688 L 19.683594 18.21875 L 19.722656 18.246094 C 19.804688 18.300781 19.886719 18.328125 19.964844 18.328125 C 20.015625 18.328125 20.0625 18.316406 20.105469 18.292969 C 20.230469 18.230469 20.285156 18.085938 20.285156 17.972656 C 20.285156 17.769531 20.207031 17.597656 20.042969 17.433594 L 19.867188 17.261719 C 18.929688 16.324219 18.363281 15.761719 18.363281 15.246094 C 18.363281 14.945312 18.503906 14.78125 18.640625 14.726562 C 18.675781 14.714844 18.714844 14.707031 18.753906 14.707031 C 18.847656 14.707031 18.941406 14.75 19.019531 14.832031 C 19.273438 15.097656 19.0625 15.394531 19.027344 15.4375 L 18.996094 15.476562 L 19.035156 15.507812 L 19.0625 15.527344 L 19.128906 15.582031 L 19.167969 15.613281 L 19.195312 15.574219 C 19.328125 15.410156 19.492188 15.015625 19.179688 14.683594 C 19.058594 14.558594 18.910156 14.488281 18.753906 14.488281 Z M 18.753906 14.488281 "/>
</g>
</svg>
