<?xml version="1.0" encoding="UTF-8"?>
<svg xmlns="http://www.w3.org/2000/svg" xmlns:xlink="http://www.w3.org/1999/xlink" width="25pt" height="25pt" viewBox="0 0 25 25" version="1.1">
<g id="surface1">
<path style=" stroke:none;fill-rule:nonzero;fill:rgb(0%,0%,0%);fill-opacity:1;" d="M 23.859375 14.347656 C 23.859375 14.425781 23.863281 14.503906 23.863281 14.578125 C 23.863281 17.039062 22.757812 19.351562 20.757812 21.09375 C 18.75 22.835938 16.082031 23.796875 13.242188 23.796875 C 10.402344 23.796875 7.734375 22.835938 5.726562 21.09375 C 3.726562 19.351562 2.625 17.039062 2.625 14.578125 C 2.625 14.503906 2.625 14.425781 2.625 14.347656 L 2.625 14.339844 C 2.625 14.265625 2.625 14.191406 2.625 14.121094 C 2.625 9.289062 7.386719 5.363281 13.242188 5.363281 C 19.097656 5.363281 23.863281 9.289062 23.863281 14.121094 C 23.863281 14.191406 23.859375 14.265625 23.859375 14.339844 Z M 23.859375 14.347656 "/>
<path style=" stroke:none;fill-rule:nonzero;fill:rgb(10.980392%,10.588235%,11.372549%);fill-opacity:1;" d="M 3.039062 15.886719 C 2.894531 15.308594 2.816406 14.710938 2.816406 14.097656 C 2.816406 12.96875 3.074219 11.890625 3.542969 10.902344 L 3.378906 10.84375 C 2.890625 11.855469 2.625 12.960938 2.625 14.121094 C 2.625 14.804688 2.71875 15.46875 2.894531 16.109375 L 2.898438 15.9375 Z M 3.039062 15.886719 "/>
<path style=" stroke:none;fill-rule:nonzero;fill:rgb(75.294118%,76.470588%,78.039216%);fill-opacity:1;" d="M 15.363281 5.421875 L 15.371094 5.304688 C 14.679688 5.191406 13.964844 5.132812 13.242188 5.132812 C 12.484375 5.132812 11.742188 5.199219 11.019531 5.324219 L 11.027344 5.4375 C 11.742188 5.3125 12.484375 5.25 13.242188 5.25 C 13.96875 5.25 14.679688 5.308594 15.363281 5.421875 Z M 15.363281 5.421875 "/>
<path style=" stroke:none;fill-rule:nonzero;fill:rgb(60%,61.960784%,63.137255%);fill-opacity:1;" d="M 2.761719 17.023438 C 3.152344 18.3125 3.859375 19.511719 4.839844 20.558594 L 4.847656 19.644531 C 3.863281 18.625 3.144531 17.421875 2.78125 16.109375 Z M 2.761719 17.023438 "/>
<path style=" stroke:none;fill-rule:nonzero;fill:rgb(75.294118%,76.470588%,78.039216%);fill-opacity:1;" d="M 6.128906 16.496094 C 5.429688 15.4375 4.988281 15.125 4.988281 15.125 L 2.921875 15.886719 C 3.253906 17.210938 3.949219 18.425781 4.914062 19.453125 L 7.003906 18.375 C 7.003906 18.375 6.828125 17.558594 6.128906 16.496094 Z M 6.128906 16.496094 "/>
<path style=" stroke:none;fill-rule:nonzero;fill:rgb(60.784314%,62.745098%,63.529412%);fill-opacity:1;" d="M 10.664062 22.734375 L 10.644531 23.753906 C 11.484375 23.933594 12.355469 24.027344 13.242188 24.027344 C 14.078125 24.027344 14.902344 23.941406 15.695312 23.785156 L 15.707031 22.753906 C 14.914062 22.910156 14.089844 22.992188 13.242188 22.992188 C 12.351562 22.992188 11.488281 22.902344 10.664062 22.734375 Z M 10.664062 22.734375 "/>
<path style=" stroke:none;fill-rule:nonzero;fill:rgb(75.294118%,76.470588%,78.039216%);fill-opacity:1;" d="M 15.492188 20.382812 C 15.492188 20.382812 14.984375 20.109375 13.097656 20.109375 C 11.214844 20.109375 10.882812 20.382812 10.882812 20.382812 L 10.667969 22.535156 L 10.667969 22.5625 C 11.476562 22.730469 12.328125 22.820312 13.199219 22.820312 C 14.0625 22.820312 14.902344 22.730469 15.707031 22.570312 L 15.707031 22.535156 Z M 15.492188 20.382812 "/>
<path style=" stroke:none;fill-rule:nonzero;fill:rgb(75.294118%,76.470588%,78.039216%);fill-opacity:1;" d="M 20.203125 16.546875 C 19.371094 17.824219 19.351562 18.34375 19.351562 18.34375 L 21.46875 19.472656 C 22.4375 18.445312 23.132812 17.230469 23.472656 15.910156 L 21.402344 15.125 C 21.402344 15.125 21.035156 15.273438 20.203125 16.546875 Z M 20.203125 16.546875 "/>
<path style=" stroke:none;fill-rule:nonzero;fill:rgb(60%,61.960784%,63.137255%);fill-opacity:1;" d="M 21.566406 20.636719 C 22.480469 19.6875 23.160156 18.605469 23.585938 17.445312 L 23.628906 17.183594 L 23.621094 16.382812 C 23.226562 17.625 22.511719 18.761719 21.558594 19.730469 Z M 21.566406 20.636719 "/>
<path style=" stroke:none;fill-rule:nonzero;fill:rgb(8.235294%,7.843137%,8.235294%);fill-opacity:1;" d="M 4.914062 19.453125 L 4.847656 19.488281 L 4.847656 19.644531 C 6.296875 21.152344 8.332031 22.257812 10.664062 22.734375 L 10.667969 22.5625 C 8.351562 22.085938 6.335938 20.972656 4.914062 19.453125 Z M 4.914062 19.453125 "/>
<path style=" stroke:none;fill-rule:nonzero;fill:rgb(8.235294%,7.843137%,8.235294%);fill-opacity:1;" d="M 21.46875 19.472656 C 20.042969 20.984375 18.027344 22.097656 15.707031 22.570312 L 15.707031 22.753906 C 18.042969 22.300781 20.085938 21.214844 21.558594 19.730469 L 21.554688 19.519531 Z M 21.46875 19.472656 "/>
<path style=" stroke:none;fill-rule:nonzero;fill:rgb(10.980392%,10.588235%,11.372549%);fill-opacity:1;" d="M 23.15625 10.796875 L 22.921875 10.882812 C 23.398438 11.878906 23.660156 12.964844 23.660156 14.097656 C 23.660156 14.71875 23.582031 15.324219 23.433594 15.910156 L 23.578125 15.964844 L 23.585938 16.382812 C 23.816406 15.660156 23.9375 14.902344 23.9375 14.121094 C 23.9375 12.945312 23.660156 11.820312 23.15625 10.796875 Z M 23.15625 10.796875 "/>
<path style=" stroke:none;fill-rule:nonzero;fill:rgb(74.509804%,75.686275%,77.254902%);fill-opacity:1;" d="M 4.914062 19.453125 C 3.949219 18.425781 3.253906 17.210938 2.921875 15.886719 L 2.785156 15.9375 L 2.78125 16.109375 C 3.144531 17.421875 3.863281 18.625 4.847656 19.644531 L 4.847656 19.488281 Z M 4.914062 19.453125 "/>
<path style=" stroke:none;fill-rule:nonzero;fill:rgb(63.529412%,64.705882%,66.27451%);fill-opacity:1;" d="M 13.199219 22.820312 C 12.328125 22.820312 11.476562 22.730469 10.667969 22.5625 L 10.664062 22.734375 C 11.488281 22.902344 12.351562 22.992188 13.242188 22.992188 C 14.089844 22.992188 14.914062 22.910156 15.707031 22.753906 L 15.707031 22.570312 C 14.902344 22.730469 14.0625 22.820312 13.199219 22.820312 Z M 13.199219 22.820312 "/>
<path style=" stroke:none;fill-rule:nonzero;fill:rgb(74.509804%,75.686275%,77.254902%);fill-opacity:1;" d="M 23.46875 15.910156 C 23.132812 17.230469 22.4375 18.445312 21.46875 19.472656 L 21.554688 19.519531 L 21.558594 19.730469 C 22.511719 18.761719 23.226562 17.628906 23.621094 16.382812 L 23.617188 15.964844 Z M 23.46875 15.910156 "/>
<path style=" stroke:none;fill-rule:nonzero;fill:rgb(75.294118%,76.470588%,78.039216%);fill-opacity:1;" d="M 20.90625 7.757812 C 20.886719 7.742188 20.867188 7.726562 20.847656 7.714844 L 20.738281 7.769531 L 20.546875 7.867188 L 18.839844 8.738281 C 18.839844 8.738281 18.652344 8.789062 19.648438 10.097656 C 20.648438 11.40625 21.109375 11.589844 21.109375 11.589844 L 22.960938 10.882812 L 23.195312 10.796875 L 23.304688 10.753906 C 22.765625 9.644531 21.957031 8.628906 20.90625 7.757812 Z M 20.90625 7.757812 "/>
<path style=" stroke:none;fill-rule:nonzero;fill:rgb(0%,0%,0%);fill-opacity:1;" d="M 24.089844 14.121094 C 24.089844 11.714844 22.960938 9.457031 20.90625 7.757812 C 18.859375 6.066406 16.136719 5.132812 13.242188 5.132812 C 10.347656 5.132812 7.628906 6.066406 5.578125 7.757812 C 3.527344 9.457031 2.394531 11.714844 2.394531 14.121094 C 2.394531 14.195312 2.394531 14.269531 2.398438 14.347656 L 2.398438 14.339844 C 2.394531 14.421875 2.394531 14.5 2.394531 14.578125 C 2.394531 17.105469 3.523438 19.480469 5.578125 21.265625 C 7.625 23.042969 10.347656 24.023438 13.242188 24.023438 C 16.136719 24.023438 18.859375 23.042969 20.90625 21.265625 C 22.960938 19.480469 24.089844 17.105469 24.089844 14.578125 C 24.089844 14.5 24.089844 14.421875 24.085938 14.339844 L 24.085938 14.347656 C 24.089844 14.269531 24.089844 14.195312 24.089844 14.121094 Z M 23.859375 14.347656 C 23.859375 14.425781 23.863281 14.503906 23.863281 14.578125 C 23.863281 17.039062 22.757812 19.351562 20.757812 21.09375 C 18.75 22.835938 16.082031 23.796875 13.242188 23.796875 C 10.402344 23.796875 7.734375 22.835938 5.726562 21.09375 C 3.726562 19.351562 2.625 17.039062 2.625 14.578125 C 2.625 14.503906 2.625 14.425781 2.625 14.347656 L 2.625 14.339844 C 2.625 14.265625 2.625 14.191406 2.625 14.121094 C 2.625 9.289062 7.386719 5.363281 13.242188 5.363281 C 19.097656 5.363281 23.863281 9.289062 23.863281 14.121094 C 23.863281 14.191406 23.859375 14.265625 23.859375 14.339844 Z M 23.859375 14.347656 "/>
<path style=" stroke:none;fill-rule:nonzero;fill:rgb(0%,0%,0%);fill-opacity:1;" d="M 22.242188 12.253906 C 22.246094 12.332031 22.246094 12.410156 22.246094 12.484375 C 22.246094 14.945312 21.144531 17.257812 19.144531 18.996094 C 17.136719 20.742188 14.46875 21.703125 11.628906 21.703125 C 8.789062 21.703125 6.121094 20.742188 4.113281 18.996094 C 2.109375 17.257812 1.007812 14.945312 1.007812 12.484375 C 1.007812 12.410156 1.007812 12.332031 1.011719 12.253906 L 1.011719 12.246094 C 1.007812 12.171875 1.007812 12.097656 1.007812 12.023438 C 1.007812 7.195312 5.773438 3.269531 11.628906 3.269531 C 17.484375 3.269531 22.246094 7.195312 22.246094 12.023438 C 22.246094 12.097656 22.246094 12.171875 22.242188 12.246094 Z M 22.242188 12.253906 "/>
<path style=" stroke:none;fill-rule:nonzero;fill:rgb(22.352941%,24.705882%,27.058824%);fill-opacity:1;" d="M 1.421875 13.792969 C 1.277344 13.214844 1.203125 12.617188 1.203125 12.003906 C 1.203125 10.875 1.460938 9.796875 1.929688 8.808594 L 1.765625 8.746094 C 1.277344 9.761719 1.007812 10.867188 1.007812 12.023438 C 1.007812 12.707031 1.101562 13.375 1.28125 14.015625 L 1.285156 13.84375 Z M 1.421875 13.792969 "/>
<path style=" stroke:none;fill-rule:nonzero;fill:rgb(87.843137%,88.235294%,89.411765%);fill-opacity:1;" d="M 13.75 3.328125 L 13.757812 3.210938 C 13.0625 3.097656 12.351562 3.039062 11.628906 3.039062 C 10.871094 3.039062 10.128906 3.101562 9.402344 3.226562 L 9.414062 3.34375 C 10.128906 3.21875 10.867188 3.152344 11.628906 3.152344 C 12.355469 3.152344 13.0625 3.214844 13.75 3.328125 Z M 13.75 3.328125 "/>
<path style=" stroke:none;fill-rule:nonzero;fill:rgb(73.333333%,74.117647%,76.078431%);fill-opacity:1;" d="M 1.144531 14.929688 C 1.539062 16.21875 2.242188 17.417969 3.226562 18.460938 L 3.230469 17.550781 C 2.246094 16.53125 1.53125 15.328125 1.164062 14.011719 Z M 1.144531 14.929688 "/>
<path style=" stroke:none;fill-rule:nonzero;fill:rgb(87.843137%,88.235294%,89.411765%);fill-opacity:1;" d="M 4.515625 14.402344 C 3.816406 13.34375 3.371094 13.03125 3.371094 13.03125 L 1.308594 13.792969 C 1.640625 15.117188 2.335938 16.328125 3.300781 17.359375 L 5.390625 16.28125 C 5.390625 16.28125 5.214844 15.460938 4.515625 14.402344 Z M 4.515625 14.402344 "/>
<path style=" stroke:none;fill-rule:nonzero;fill:rgb(73.72549%,74.901961%,76.862745%);fill-opacity:1;" d="M 9.050781 20.636719 L 9.027344 21.660156 C 9.871094 21.839844 10.742188 21.929688 11.628906 21.929688 C 12.464844 21.929688 13.285156 21.847656 14.082031 21.6875 L 14.089844 20.660156 C 13.300781 20.816406 12.476562 20.894531 11.628906 20.894531 C 10.738281 20.894531 9.875 20.804688 9.050781 20.636719 Z M 9.050781 20.636719 "/>
<path style=" stroke:none;fill-rule:nonzero;fill:rgb(87.843137%,88.235294%,89.411765%);fill-opacity:1;" d="M 13.878906 18.289062 C 13.878906 18.289062 13.371094 18.015625 11.484375 18.015625 C 9.597656 18.015625 9.269531 18.289062 9.269531 18.289062 L 9.054688 20.441406 L 9.054688 20.46875 C 9.863281 20.636719 10.710938 20.726562 11.585938 20.726562 C 12.449219 20.726562 13.289062 20.636719 14.09375 20.472656 L 14.09375 20.441406 Z M 13.878906 18.289062 "/>
<path style=" stroke:none;fill-rule:nonzero;fill:rgb(87.843137%,88.235294%,89.411765%);fill-opacity:1;" d="M 18.589844 14.453125 C 17.757812 15.730469 17.738281 16.25 17.738281 16.25 L 19.851562 17.378906 C 20.824219 16.351562 21.519531 15.136719 21.855469 13.8125 L 19.789062 13.03125 C 19.789062 13.03125 19.421875 13.175781 18.589844 14.453125 Z M 18.589844 14.453125 "/>
<path style=" stroke:none;fill-rule:nonzero;fill:rgb(73.333333%,74.117647%,76.078431%);fill-opacity:1;" d="M 19.953125 18.542969 C 20.867188 17.59375 21.546875 16.511719 21.96875 15.347656 L 22.015625 15.089844 L 22.007812 14.289062 C 21.613281 15.53125 20.898438 16.667969 19.941406 17.636719 Z M 19.953125 18.542969 "/>
<path style=" stroke:none;fill-rule:nonzero;fill:rgb(21.960784%,24.313725%,26.666667%);fill-opacity:1;" d="M 3.300781 17.359375 L 3.230469 17.394531 L 3.230469 17.550781 C 4.683594 19.054688 6.714844 20.164062 9.050781 20.636719 L 9.054688 20.46875 C 6.734375 19.992188 4.722656 18.875 3.300781 17.359375 Z M 3.300781 17.359375 "/>
<path style=" stroke:none;fill-rule:nonzero;fill:rgb(21.960784%,24.313725%,26.666667%);fill-opacity:1;" d="M 19.851562 17.378906 C 18.425781 18.890625 16.410156 20 14.09375 20.472656 L 14.089844 20.660156 C 16.429688 20.207031 18.472656 19.121094 19.941406 17.636719 L 19.941406 17.425781 Z M 19.851562 17.378906 "/>
<path style=" stroke:none;fill-rule:nonzero;fill:rgb(22.352941%,24.705882%,27.058824%);fill-opacity:1;" d="M 21.542969 8.699219 L 21.308594 8.789062 C 21.785156 9.785156 22.042969 10.867188 22.042969 12.003906 C 22.042969 12.625 21.964844 13.230469 21.816406 13.8125 L 21.964844 13.871094 L 21.96875 14.289062 C 22.199219 13.566406 22.324219 12.808594 22.324219 12.023438 C 22.324219 10.847656 22.046875 9.726562 21.542969 8.699219 Z M 21.542969 8.699219 "/>
<path style=" stroke:none;fill-rule:nonzero;fill:rgb(87.058824%,87.45098%,89.019608%);fill-opacity:1;" d="M 3.300781 17.359375 C 2.335938 16.328125 1.640625 15.117188 1.308594 13.792969 L 1.167969 13.84375 L 1.164062 14.015625 C 1.53125 15.328125 2.246094 16.53125 3.230469 17.550781 L 3.230469 17.394531 Z M 3.300781 17.359375 "/>
<path style=" stroke:none;fill-rule:nonzero;fill:rgb(76.078431%,77.254902%,78.823529%);fill-opacity:1;" d="M 11.585938 20.726562 C 10.710938 20.726562 9.863281 20.636719 9.054688 20.46875 L 9.050781 20.636719 C 9.875 20.804688 10.738281 20.894531 11.628906 20.894531 C 12.476562 20.894531 13.300781 20.8125 14.089844 20.660156 L 14.09375 20.472656 C 13.289062 20.636719 12.449219 20.726562 11.585938 20.726562 Z M 11.585938 20.726562 "/>
<path style=" stroke:none;fill-rule:nonzero;fill:rgb(87.058824%,87.45098%,89.019608%);fill-opacity:1;" d="M 21.855469 13.8125 C 21.519531 15.136719 20.824219 16.351562 19.851562 17.378906 L 19.941406 17.425781 L 19.941406 17.636719 C 20.898438 16.667969 21.613281 15.53125 22.007812 14.289062 L 22.003906 13.871094 Z M 21.855469 13.8125 "/>
<path style=" stroke:none;fill-rule:nonzero;fill:rgb(0%,0%,0%);fill-opacity:1;" d="M 22.476562 12.023438 C 22.476562 9.621094 21.34375 7.359375 19.289062 5.664062 C 17.242188 3.972656 14.523438 3.039062 11.628906 3.039062 C 8.734375 3.039062 6.011719 3.972656 3.964844 5.664062 C 1.910156 7.359375 0.78125 9.621094 0.78125 12.023438 C 0.78125 12.097656 0.78125 12.175781 0.785156 12.253906 L 0.785156 12.246094 C 0.78125 12.324219 0.78125 12.40625 0.78125 12.484375 C 0.78125 15.011719 1.910156 17.386719 3.964844 19.167969 C 6.011719 20.949219 8.734375 21.929688 11.628906 21.929688 C 14.523438 21.929688 17.246094 20.949219 19.292969 19.167969 C 21.34375 17.386719 22.476562 15.011719 22.476562 12.484375 C 22.476562 12.40625 22.472656 12.328125 22.472656 12.246094 L 22.472656 12.253906 C 22.472656 12.175781 22.476562 12.097656 22.476562 12.023438 Z M 22.242188 12.253906 C 22.246094 12.332031 22.246094 12.410156 22.246094 12.484375 C 22.246094 14.945312 21.144531 17.257812 19.144531 18.996094 C 17.136719 20.742188 14.46875 21.703125 11.628906 21.703125 C 8.789062 21.703125 6.121094 20.742188 4.113281 18.996094 C 2.109375 17.257812 1.007812 14.945312 1.007812 12.484375 C 1.007812 12.410156 1.007812 12.332031 1.011719 12.253906 L 1.011719 12.246094 C 1.007812 12.171875 1.007812 12.097656 1.007812 12.023438 C 1.007812 7.195312 5.773438 3.269531 11.628906 3.269531 C 17.484375 3.269531 22.246094 7.195312 22.246094 12.023438 C 22.246094 12.097656 22.246094 12.171875 22.242188 12.246094 Z M 22.242188 12.253906 "/>
<path style=" stroke:none;fill-rule:nonzero;fill:rgb(0%,0%,0%);fill-opacity:1;" d="M 23.175781 9.964844 C 23.175781 10.046875 23.179688 10.125 23.179688 10.199219 C 23.179688 12.660156 22.074219 14.972656 20.074219 16.710938 C 18.066406 18.457031 15.398438 19.417969 12.558594 19.417969 C 9.71875 19.417969 7.050781 18.457031 5.042969 16.710938 C 3.042969 14.972656 1.941406 12.660156 1.941406 10.199219 C 1.941406 10.125 1.941406 10.046875 1.945312 9.964844 L 1.945312 9.960938 C 1.941406 9.886719 1.941406 9.8125 1.941406 9.738281 C 1.941406 4.910156 6.703125 0.980469 12.558594 0.980469 C 18.414062 0.980469 23.179688 4.910156 23.179688 9.738281 C 23.179688 9.8125 23.175781 9.886719 23.175781 9.960938 Z M 23.175781 9.964844 "/>
<path style=" stroke:none;fill-rule:nonzero;fill:rgb(37.647059%,40%,42.745098%);fill-opacity:1;" d="M 2.355469 11.507812 C 2.210938 10.929688 2.132812 10.332031 2.132812 9.71875 C 2.132812 8.589844 2.390625 7.511719 2.859375 6.523438 L 2.695312 6.460938 C 2.207031 7.476562 1.941406 8.582031 1.941406 9.738281 C 1.941406 10.421875 2.035156 11.089844 2.210938 11.726562 L 2.214844 11.558594 Z M 2.355469 11.507812 "/>
<path style=" stroke:none;fill-rule:nonzero;fill:rgb(100%,100%,100%);fill-opacity:1;" d="M 14.679688 1.042969 L 14.691406 0.925781 C 13.996094 0.8125 13.28125 0.753906 12.558594 0.753906 C 11.804688 0.753906 11.058594 0.816406 10.335938 0.941406 L 10.34375 1.058594 C 11.058594 0.933594 11.800781 0.867188 12.558594 0.867188 C 13.285156 0.867188 13.996094 0.929688 14.679688 1.042969 Z M 14.679688 1.042969 "/>
<path style=" stroke:none;fill-rule:nonzero;fill:rgb(100%,100%,100%);fill-opacity:1;" d="M 12.589844 2.953125 C 14.0625 2.953125 14.550781 2.75 14.550781 2.75 L 14.671875 1.179688 C 13.976562 1.058594 13.253906 0.996094 12.515625 0.996094 C 11.773438 0.996094 11.050781 1.0625 10.355469 1.183594 L 10.472656 2.734375 C 10.472656 2.734375 11.117188 2.953125 12.589844 2.953125 Z M 12.589844 2.953125 "/>
<path style=" stroke:none;fill-rule:nonzero;fill:rgb(86.27451%,86.27451%,87.843137%);fill-opacity:1;" d="M 2.078125 12.644531 C 2.46875 13.933594 3.175781 15.132812 4.160156 16.175781 L 4.164062 15.265625 C 3.179688 14.246094 2.460938 13.042969 2.097656 11.726562 Z M 2.078125 12.644531 "/>
<path style=" stroke:none;fill-rule:nonzero;fill:rgb(100%,100%,100%);fill-opacity:1;" d="M 5.445312 12.117188 C 4.746094 11.058594 4.304688 10.746094 4.304688 10.746094 L 2.238281 11.507812 C 2.570312 12.832031 3.265625 14.042969 4.230469 15.074219 L 6.320312 13.996094 C 6.320312 13.996094 6.144531 13.175781 5.445312 12.117188 Z M 5.445312 12.117188 "/>
<path style=" stroke:none;fill-rule:nonzero;fill:rgb(86.666667%,87.058824%,88.235294%);fill-opacity:1;" d="M 9.980469 18.351562 L 9.960938 19.375 C 10.800781 19.554688 11.671875 19.644531 12.558594 19.644531 C 13.394531 19.644531 14.21875 19.5625 15.011719 19.402344 L 15.023438 18.375 C 14.230469 18.53125 13.40625 18.609375 12.558594 18.609375 C 11.671875 18.609375 10.808594 18.519531 9.980469 18.351562 Z M 9.980469 18.351562 "/>
<path style=" stroke:none;fill-rule:nonzero;fill:rgb(100%,100%,100%);fill-opacity:1;" d="M 14.808594 16.003906 C 14.808594 16.003906 14.300781 15.730469 12.417969 15.730469 C 10.53125 15.730469 10.199219 16.003906 10.199219 16.003906 L 9.984375 18.152344 L 9.984375 18.183594 C 10.796875 18.351562 11.644531 18.441406 12.515625 18.441406 C 13.382812 18.441406 14.222656 18.351562 15.023438 18.1875 L 15.023438 18.15625 Z M 14.808594 16.003906 "/>
<path style=" stroke:none;fill-rule:nonzero;fill:rgb(100%,100%,100%);fill-opacity:1;" d="M 19.519531 12.167969 C 18.6875 13.445312 18.667969 13.964844 18.667969 13.964844 L 20.785156 15.09375 C 21.753906 14.066406 22.449219 12.851562 22.789062 11.527344 L 20.71875 10.746094 C 20.71875 10.746094 20.351562 10.890625 19.519531 12.167969 Z M 19.519531 12.167969 "/>
<path style=" stroke:none;fill-rule:nonzero;fill:rgb(86.27451%,86.27451%,87.843137%);fill-opacity:1;" d="M 20.882812 16.257812 C 21.796875 15.308594 22.476562 14.226562 22.902344 13.0625 L 22.949219 12.804688 L 22.9375 12.003906 C 22.542969 13.246094 21.828125 14.382812 20.875 15.347656 Z M 20.882812 16.257812 "/>
<path style=" stroke:none;fill-rule:nonzero;fill:rgb(37.647059%,40%,42.352941%);fill-opacity:1;" d="M 4.230469 15.074219 L 4.164062 15.105469 L 4.164062 15.265625 C 5.617188 16.769531 7.648438 17.875 9.980469 18.351562 L 9.984375 18.183594 C 7.667969 17.707031 5.652344 16.589844 4.230469 15.074219 Z M 4.230469 15.074219 "/>
<path style=" stroke:none;fill-rule:nonzero;fill:rgb(37.647059%,40%,42.352941%);fill-opacity:1;" d="M 20.785156 15.09375 C 19.359375 16.605469 17.34375 17.714844 15.023438 18.1875 L 15.023438 18.375 C 17.359375 17.921875 19.402344 16.835938 20.875 15.347656 L 20.871094 15.140625 Z M 20.785156 15.09375 "/>
<path style=" stroke:none;fill-rule:nonzero;fill:rgb(37.647059%,40%,42.745098%);fill-opacity:1;" d="M 22.476562 6.414062 L 22.242188 6.503906 C 22.714844 7.5 22.976562 8.582031 22.976562 9.71875 C 22.976562 10.339844 22.898438 10.945312 22.75 11.527344 L 22.898438 11.585938 L 22.902344 12.003906 C 23.132812 11.28125 23.253906 10.523438 23.253906 9.738281 C 23.253906 8.5625 22.976562 7.441406 22.476562 6.414062 Z M 22.476562 6.414062 "/>
<path style=" stroke:none;fill-rule:nonzero;fill:rgb(87.45098%,87.45098%,88.627451%);fill-opacity:1;" d="M 12.515625 1.148438 C 13.253906 1.148438 13.976562 1.210938 14.671875 1.332031 L 14.679688 1.195312 C 13.996094 1.082031 13.285156 1.019531 12.558594 1.019531 C 11.800781 1.019531 11.058594 1.085938 10.34375 1.210938 L 10.351562 1.335938 C 11.050781 1.214844 11.773438 1.148438 12.515625 1.148438 Z M 12.515625 1.148438 "/>
<path style=" stroke:none;fill-rule:nonzero;fill:rgb(100%,100%,100%);fill-opacity:1;" d="M 5.164062 3.492188 L 5.027344 3.421875 L 4.914062 3.363281 C 4.910156 3.367188 4.902344 3.375 4.898438 3.378906 C 3.828125 4.261719 3.011719 5.292969 2.472656 6.421875 L 2.582031 6.460938 L 2.746094 6.523438 L 4.578125 7.199219 C 4.578125 7.199219 5.253906 6.722656 5.957031 5.84375 C 6.660156 4.964844 6.855469 4.382812 6.855469 4.382812 Z M 5.164062 3.492188 "/>
<path style=" stroke:none;fill-rule:nonzero;fill:rgb(99.215686%,99.607843%,99.607843%);fill-opacity:1;" d="M 4.230469 15.074219 C 3.265625 14.042969 2.574219 12.832031 2.238281 11.507812 L 2.101562 11.558594 L 2.097656 11.726562 C 2.460938 13.042969 3.179688 14.246094 4.164062 15.265625 L 4.164062 15.105469 Z M 4.230469 15.074219 "/>
<path style=" stroke:none;fill-rule:nonzero;fill:rgb(89.019608%,89.411765%,90.588235%);fill-opacity:1;" d="M 12.515625 18.441406 C 11.644531 18.441406 10.796875 18.351562 9.984375 18.183594 L 9.980469 18.351562 C 10.808594 18.519531 11.671875 18.609375 12.558594 18.609375 C 13.40625 18.609375 14.230469 18.527344 15.023438 18.375 L 15.023438 18.1875 C 14.222656 18.351562 13.382812 18.441406 12.515625 18.441406 Z M 12.515625 18.441406 "/>
<path style=" stroke:none;fill-rule:nonzero;fill:rgb(99.215686%,99.607843%,99.607843%);fill-opacity:1;" d="M 22.789062 11.527344 C 22.449219 12.851562 21.753906 14.066406 20.785156 15.09375 L 20.871094 15.140625 L 20.875 15.347656 C 21.828125 14.382812 22.542969 13.246094 22.9375 12.003906 L 22.933594 11.585938 Z M 22.789062 11.527344 "/>
<path style=" stroke:none;fill-rule:nonzero;fill:rgb(100%,100%,100%);fill-opacity:1;" d="M 20.222656 3.378906 C 20.203125 3.363281 20.183594 3.347656 20.164062 3.332031 L 20.054688 3.390625 L 19.863281 3.488281 L 18.15625 4.359375 C 18.15625 4.359375 17.96875 4.410156 18.96875 5.71875 C 19.964844 7.027344 20.425781 7.210938 20.425781 7.210938 L 22.277344 6.503906 L 22.511719 6.414062 L 22.621094 6.371094 C 22.082031 5.265625 21.273438 4.246094 20.222656 3.378906 Z M 20.222656 3.378906 "/>
<path style=" stroke:none;fill-rule:nonzero;fill:rgb(0%,0%,0%);fill-opacity:1;" d="M 23.40625 9.738281 C 23.40625 7.335938 22.277344 5.074219 20.222656 3.378906 C 18.175781 1.6875 15.453125 0.753906 12.558594 0.753906 C 9.664062 0.753906 6.945312 1.6875 4.898438 3.378906 C 2.84375 5.074219 1.710938 7.335938 1.710938 9.738281 C 1.710938 9.8125 1.710938 9.890625 1.714844 9.96875 L 1.714844 9.960938 C 1.710938 10.039062 1.710938 10.121094 1.710938 10.199219 C 1.710938 12.726562 2.84375 15.101562 4.894531 16.882812 C 6.941406 18.664062 9.664062 19.644531 12.558594 19.644531 C 15.453125 19.644531 18.175781 18.664062 20.222656 16.882812 C 22.277344 15.101562 23.40625 12.726562 23.40625 10.199219 C 23.40625 10.121094 23.40625 10.042969 23.402344 9.960938 L 23.402344 9.96875 C 23.40625 9.890625 23.40625 9.8125 23.40625 9.738281 Z M 23.175781 9.964844 C 23.175781 10.046875 23.179688 10.125 23.179688 10.199219 C 23.179688 12.660156 22.074219 14.972656 20.074219 16.710938 C 18.066406 18.457031 15.398438 19.417969 12.558594 19.417969 C 9.71875 19.417969 7.050781 18.457031 5.042969 16.710938 C 3.042969 14.972656 1.941406 12.660156 1.941406 10.199219 C 1.941406 10.125 1.941406 10.046875 1.945312 9.964844 L 1.945312 9.960938 C 1.941406 9.886719 1.941406 9.8125 1.941406 9.738281 C 1.941406 4.910156 6.703125 0.980469 12.558594 0.980469 C 18.414062 0.980469 23.179688 4.910156 23.179688 9.738281 C 23.179688 9.8125 23.175781 9.886719 23.175781 9.960938 Z M 23.175781 9.964844 "/>
<path style=" stroke:none;fill-rule:nonzero;fill:rgb(100%,100%,100%);fill-opacity:1;" d="M 9.316406 4.066406 L 9.265625 3.910156 C 8.691406 4.140625 8.160156 4.433594 7.683594 4.773438 L 7.84375 4.878906 C 8.289062 4.5625 8.78125 4.285156 9.316406 4.066406 Z M 9.316406 4.066406 "/>
<path style=" stroke:none;fill-rule:nonzero;fill:rgb(100%,100%,100%);fill-opacity:1;" d="M 12.042969 3.453125 L 12.054688 3.300781 C 11.40625 3.335938 10.785156 3.4375 10.195312 3.597656 L 10.261719 3.742188 C 10.828125 3.585938 11.421875 3.488281 12.042969 3.453125 Z M 12.042969 3.453125 "/>
<path style=" stroke:none;fill-rule:nonzero;fill:rgb(100%,100%,100%);fill-opacity:1;" d="M 7.078125 5.519531 L 6.933594 5.390625 C 6.523438 5.78125 6.171875 6.214844 5.894531 6.683594 L 6.113281 6.742188 C 6.371094 6.300781 6.695312 5.890625 7.078125 5.519531 Z M 7.078125 5.519531 "/>
<path style=" stroke:none;fill-rule:nonzero;fill:rgb(100%,100%,100%);fill-opacity:1;" d="M 14.804688 3.746094 L 14.886719 3.601562 C 14.3125 3.441406 13.703125 3.339844 13.074219 3.304688 L 13.082031 3.457031 C 13.679688 3.496094 14.253906 3.59375 14.804688 3.746094 Z M 14.804688 3.746094 "/>
<path style=" stroke:none;fill-rule:nonzero;fill:rgb(100%,100%,100%);fill-opacity:1;" d="M 18.96875 6.789062 L 19.214844 6.742188 C 18.933594 6.261719 18.578125 5.8125 18.160156 5.410156 L 17.984375 5.527344 C 18.375 5.910156 18.707031 6.332031 18.96875 6.789062 Z M 18.96875 6.789062 "/>
<path style=" stroke:none;fill-rule:nonzero;fill:rgb(100%,100%,100%);fill-opacity:1;" d="M 19.644531 9.148438 L 19.910156 9.183594 C 19.898438 8.625 19.792969 8.085938 19.601562 7.574219 L 19.359375 7.628906 C 19.53125 8.113281 19.632812 8.621094 19.644531 9.148438 Z M 19.644531 9.148438 "/>
<path style=" stroke:none;fill-rule:nonzero;fill:rgb(100%,100%,100%);fill-opacity:1;" d="M 5.71875 7.566406 L 5.503906 7.480469 C 5.308594 7.988281 5.191406 8.519531 5.167969 9.074219 L 5.414062 9.046875 C 5.4375 8.53125 5.542969 8.035156 5.71875 7.566406 Z M 5.71875 7.566406 "/>
<path style=" stroke:none;fill-rule:nonzero;fill:rgb(100%,100%,100%);fill-opacity:1;" d="M 14.570312 14.863281 L 14.617188 15.074219 C 15.296875 14.910156 15.9375 14.671875 16.519531 14.367188 L 16.378906 14.179688 C 15.824219 14.472656 15.21875 14.703125 14.570312 14.863281 Z M 14.570312 14.863281 "/>
<path style=" stroke:none;fill-rule:nonzero;fill:rgb(100%,100%,100%);fill-opacity:1;" d="M 17.28125 13.617188 L 17.421875 13.808594 C 17.941406 13.433594 18.394531 13 18.769531 12.523438 L 18.542969 12.394531 C 18.191406 12.847656 17.765625 13.257812 17.28125 13.617188 Z M 17.28125 13.617188 "/>
<path style=" stroke:none;fill-rule:nonzero;fill:rgb(100%,100%,100%);fill-opacity:1;" d="M 19.582031 10.058594 C 19.496094 10.582031 19.324219 11.082031 19.082031 11.550781 L 19.308594 11.691406 C 19.574219 11.191406 19.757812 10.65625 19.847656 10.097656 Z M 19.582031 10.058594 "/>
<path style=" stroke:none;fill-rule:nonzero;fill:rgb(100%,100%,100%);fill-opacity:1;" d="M 12.527344 15.105469 C 12.164062 15.105469 11.808594 15.085938 11.460938 15.042969 L 11.394531 15.246094 C 11.765625 15.292969 12.148438 15.316406 12.535156 15.316406 C 12.875 15.316406 13.203125 15.296875 13.53125 15.261719 L 13.464844 15.058594 C 13.15625 15.089844 12.84375 15.105469 12.527344 15.105469 Z M 12.527344 15.105469 "/>
<path style=" stroke:none;fill-rule:nonzero;fill:rgb(100%,100%,100%);fill-opacity:1;" d="M 5.457031 9.96875 L 5.210938 10 C 5.289062 10.558594 5.460938 11.09375 5.714844 11.59375 L 5.929688 11.464844 C 5.695312 10.996094 5.535156 10.492188 5.457031 9.96875 Z M 5.457031 9.96875 "/>
<path style=" stroke:none;fill-rule:nonzero;fill:rgb(100%,100%,100%);fill-opacity:1;" d="M 6.441406 12.300781 L 6.214844 12.402344 C 6.570312 12.886719 7.011719 13.324219 7.515625 13.707031 L 7.667969 13.539062 C 7.195312 13.175781 6.78125 12.757812 6.441406 12.300781 Z M 6.441406 12.300781 "/>
<path style=" stroke:none;fill-rule:nonzero;fill:rgb(100%,100%,100%);fill-opacity:1;" d="M 8.550781 14.113281 L 8.394531 14.277344 C 8.960938 14.59375 9.585938 14.84375 10.25 15.023438 L 10.320312 14.820312 C 9.6875 14.652344 9.089844 14.414062 8.550781 14.113281 Z M 8.550781 14.113281 "/>
<path style=" stroke:none;fill-rule:nonzero;fill:rgb(100%,100%,100%);fill-opacity:1;" d="M 15.878906 3.9375 L 15.769531 4.078125 C 16.3125 4.308594 16.816406 4.589844 17.265625 4.921875 L 17.398438 4.777344 C 16.9375 4.449219 16.429688 4.167969 15.878906 3.9375 Z M 15.878906 3.9375 "/>
<path style=" stroke:none;fill-rule:nonzero;fill:rgb(100%,100%,100%);fill-opacity:1;" d="M 19.355469 9.242188 C 19.355469 6.152344 16.296875 3.644531 12.527344 3.644531 C 8.753906 3.644531 5.695312 6.152344 5.695312 9.242188 C 5.695312 12.332031 8.753906 14.835938 12.527344 14.835938 C 16.296875 14.835938 19.355469 12.332031 19.355469 9.242188 Z M 19.355469 9.242188 "/>
</g>
</svg>
