<?xml version="1.0" encoding="UTF-8"?>
<svg xmlns="http://www.w3.org/2000/svg" xmlns:xlink="http://www.w3.org/1999/xlink" width="38pt" height="25pt" viewBox="0 0 38 25" version="1.1">
<g id="surface1">
<path style="fill-rule:nonzero;fill:rgb(100%,100%,100%);fill-opacity:1;stroke-width:2.445559;stroke-linecap:butt;stroke-linejoin:miter;stroke:rgb(0%,0%,0%);stroke-opacity:1;stroke-miterlimit:4;" d="M 6054.369216 -2746.806301 L 6238.281636 -2746.790819 C 6249.14528 -2746.830415 6257.952349 -2731.333025 6257.934523 -2712.17442 L 6257.90957 -2469.608045 C 6257.930245 -2450.503102 6249.12877 -2434.971923 6238.271624 -2435.005376 L 6054.359204 -2435.020858 C 6043.49556 -2434.981263 6034.688491 -2450.478652 6034.706317 -2469.637257 L 6034.699267 -2712.223019 C 6034.710595 -2731.308575 6043.512071 -2746.839754 6054.369216 -2746.806301 Z M 6054.369216 -2746.806301 " transform="matrix(0.0850812,-0.0307382,0.0610423,0.05074,-346.72687,331.301344)"/>
<path style=" stroke:none;fill-rule:nonzero;fill:rgb(0%,0%,0%);fill-opacity:1;" d="M 2.46875 8.546875 L 2.300781 8.410156 L 2.527344 8.328125 L 1.222656 6.667969 L 1.496094 6.570312 L 3.816406 7.863281 L 3.996094 7.796875 L 4.164062 7.933594 L 3.542969 8.160156 L 3.375 8.019531 L 3.542969 7.960938 L 3.203125 7.757812 L 2.574219 7.984375 L 2.800781 8.230469 L 2.96875 8.167969 L 3.136719 8.308594 Z M 2.953125 7.613281 L 1.722656 6.917969 L 2.425781 7.804688 Z M 2.953125 7.613281 "/>
<path style=" stroke:none;fill-rule:nonzero;fill:rgb(0%,0%,0%);fill-opacity:1;" d="M 33.640625 13.277344 L 33.808594 13.417969 L 33.582031 13.496094 L 34.886719 15.15625 L 34.609375 15.257812 L 32.292969 13.960938 L 32.109375 14.027344 L 31.945312 13.890625 L 32.566406 13.664062 L 32.734375 13.804688 L 32.566406 13.863281 L 32.90625 14.066406 L 33.535156 13.839844 L 33.308594 13.597656 L 33.140625 13.65625 L 32.972656 13.519531 Z M 33.15625 14.210938 L 34.382812 14.90625 L 33.683594 14.019531 Z M 33.15625 14.210938 "/>
<path style=" stroke:none;fill-rule:nonzero;fill:rgb(0%,0%,0%);fill-opacity:1;" d="M 18.636719 11.527344 C 18.515625 11.425781 18.375 11.472656 18.46875 11.546875 C 18.910156 11.925781 18.597656 12.304688 18.15625 12.402344 C 17.476562 12.550781 16.859375 12.265625 16.613281 12.054688 C 15.855469 11.402344 16.371094 10.535156 16.359375 9.355469 C 17.976562 9.839844 19.867188 9.996094 20.628906 10.550781 C 21.644531 11.28125 20.363281 12.152344 19.058594 11.34375 C 18.96875 11.289062 18.808594 11.304688 18.925781 11.390625 C 19.253906 11.621094 19.324219 11.742188 20.515625 12.175781 L 19.304688 12.613281 C 19.234375 12.234375 18.976562 11.832031 18.636719 11.527344 Z M 18.636719 11.527344 "/>
<path style=" stroke:none;fill-rule:nonzero;fill:rgb(0%,0%,0%);fill-opacity:1;" d="M 4.792969 9.4375 C 4.742188 9.390625 4.6875 9.441406 4.695312 9.457031 C 4.71875 9.59375 4.601562 9.667969 4.414062 9.683594 C 4.230469 9.699219 4.054688 9.648438 3.929688 9.53125 C 3.746094 9.347656 3.746094 9.074219 3.730469 8.925781 C 3.71875 8.789062 3.695312 8.628906 3.640625 8.4375 C 3.992188 8.554688 4.121094 8.578125 4.464844 8.675781 C 4.769531 8.761719 5.125 8.828125 5.339844 8.988281 C 5.492188 9.113281 5.542969 9.265625 5.371094 9.359375 C 5.273438 9.414062 5.125 9.417969 4.949219 9.363281 C 4.898438 9.351562 4.863281 9.378906 4.898438 9.40625 C 5.039062 9.507812 5.222656 9.582031 5.519531 9.636719 L 4.933594 9.847656 C 4.957031 9.722656 4.949219 9.574219 4.792969 9.4375 Z M 4.792969 9.4375 "/>
<path style=" stroke:none;fill-rule:nonzero;fill:rgb(0%,0%,0%);fill-opacity:1;" d="M 31.355469 12.402344 C 31.410156 12.445312 31.308594 12.453125 31.28125 12.441406 C 31.058594 12.378906 30.886719 12.40625 30.789062 12.496094 C 30.6875 12.582031 30.707031 12.691406 30.855469 12.800781 C 31.089844 12.964844 31.554688 13.070312 31.792969 13.140625 C 32.019531 13.199219 32.277344 13.273438 32.578125 13.375 C 32.515625 13.152344 32.53125 13.078125 32.503906 12.867188 C 32.476562 12.679688 32.507812 12.476562 32.320312 12.304688 C 32.171875 12.179688 31.9375 12.089844 31.710938 12.140625 C 31.582031 12.171875 31.519531 12.242188 31.539062 12.351562 C 31.539062 12.382812 31.476562 12.386719 31.445312 12.359375 C 31.332031 12.25 31.28125 12.128906 31.304688 11.957031 L 30.71875 12.167969 C 30.9375 12.207031 31.1875 12.269531 31.355469 12.402344 Z M 31.355469 12.402344 "/>
<path style="fill-rule:nonzero;fill:rgb(100%,100%,100%);fill-opacity:1;stroke-width:2.348933;stroke-linecap:butt;stroke-linejoin:miter;stroke:rgb(0%,0%,0%);stroke-opacity:1;stroke-miterlimit:4;" d="M 6053.902302 -2746.780431 L 6238.717442 -2746.815997 C 6249.351209 -2746.807061 6257.936814 -2732.146484 6257.938271 -2714.106149 L 6257.925546 -2467.659882 C 6257.927004 -2449.619547 6249.350695 -2434.980018 6238.716927 -2434.988954 L 6053.899514 -2435.030337 C 6043.29687 -2434.985597 6034.711265 -2449.646175 6034.709808 -2467.68651 L 6034.693683 -2714.109502 C 6034.721076 -2732.173111 6043.297385 -2746.81264 6053.902302 -2746.780431 Z M 6053.902302 -2746.780431 " transform="matrix(0.0922483,0.0399988,-0.05349,0.0495818,-685.32887,-105.384336)"/>
<path style=" stroke:none;fill-rule:nonzero;fill:rgb(83.137255%,0%,0%);fill-opacity:1;" d="M 16.492188 2.378906 L 16.640625 2.242188 L 16.882812 2.347656 L 18.972656 1.125 L 19.269531 1.253906 L 18.28125 2.953125 L 18.476562 3.039062 L 18.332031 3.175781 L 17.65625 2.882812 L 17.804688 2.746094 L 17.984375 2.828125 L 18.152344 2.574219 L 17.472656 2.277344 L 17.179688 2.476562 L 17.359375 2.554688 L 17.214844 2.691406 Z M 18.265625 2.390625 L 18.808594 1.484375 L 17.691406 2.140625 Z M 18.265625 2.390625 "/>
<path style=" stroke:none;fill-rule:nonzero;fill:rgb(83.137255%,0%,0%);fill-opacity:1;" d="M 24 21.621094 L 23.851562 21.757812 L 23.605469 21.648438 L 21.519531 22.875 L 21.222656 22.746094 L 22.210938 21.042969 L 22.011719 20.957031 L 22.160156 20.824219 L 22.835938 21.117188 L 22.6875 21.25 L 22.507812 21.171875 L 22.339844 21.425781 L 23.019531 21.722656 L 23.3125 21.523438 L 23.128906 21.441406 L 23.277344 21.308594 Z M 22.226562 21.609375 L 21.683594 22.515625 L 22.800781 21.859375 Z M 22.226562 21.609375 "/>
<path style=" stroke:none;fill-rule:nonzero;fill:rgb(83.137255%,0%,0%);fill-opacity:1;" d="M 15.804688 3.148438 C 15.84375 2.914062 16.144531 2.613281 16.625 2.761719 C 16.976562 2.878906 17.019531 3.019531 16.910156 3.160156 C 16.886719 3.199219 16.921875 3.21875 16.980469 3.183594 C 17.136719 3.0625 17.457031 3.089844 17.625 3.191406 C 18.082031 3.457031 17.726562 3.746094 17.339844 3.878906 C 16.792969 4.042969 16.34375 4.097656 15.804688 4.265625 C 15.832031 3.859375 15.761719 3.488281 15.804688 3.148438 Z M 15.804688 3.148438 "/>
<path style=" stroke:none;fill-rule:nonzero;fill:rgb(83.137255%,0%,0%);fill-opacity:1;" d="M 20.671875 10.09375 C 21.355469 10.355469 21.375 10.804688 21.183594 11.074219 C 21.183594 11.128906 21.214844 11.128906 21.261719 11.105469 C 21.625 10.8125 22.40625 10.78125 22.839844 11.023438 C 23.601562 11.359375 23.574219 12.023438 23.023438 12.355469 C 22.351562 12.761719 21.566406 12.839844 20.886719 12.976562 C 20.148438 13.105469 19.125 13.308594 18.71875 13.445312 C 18.71875 13.445312 18.652344 12.746094 18.507812 11.894531 C 18.410156 11.324219 18.441406 10.769531 18.765625 10.417969 C 19.136719 10.015625 19.800781 9.800781 20.671875 10.09375 Z M 20.671875 10.09375 "/>
<path style=" stroke:none;fill-rule:nonzero;fill:rgb(83.137255%,0%,0%);fill-opacity:1;" d="M 22.980469 20.136719 C 22.648438 20.246094 22.316406 20.535156 22.710938 20.761719 C 23.011719 20.929688 23.234375 20.902344 23.398438 20.789062 C 23.449219 20.757812 23.492188 20.773438 23.460938 20.820312 C 23.339844 20.957031 23.496094 21.136719 23.703125 21.199219 C 24.261719 21.371094 24.558594 21.058594 24.613281 20.78125 C 24.652344 20.398438 24.574219 20.113281 24.625 19.734375 C 24.039062 19.898438 23.46875 19.988281 22.980469 20.136719 Z M 22.980469 20.136719 "/>
<path style=" stroke:none;fill-rule:nonzero;fill:rgb(0%,0%,0%);fill-opacity:1;" d="M 17.121094 19.898438 C 17.121094 19.941406 17.125 19.980469 17.125 20.023438 C 17.125 21.316406 16.371094 22.535156 15.007812 23.453125 C 13.640625 24.371094 11.820312 24.875 9.882812 24.875 C 7.945312 24.875 6.125 24.371094 4.757812 23.453125 C 3.394531 22.535156 2.640625 21.316406 2.640625 20.023438 C 2.640625 19.980469 2.640625 19.941406 2.644531 19.898438 L 2.644531 19.894531 C 2.640625 19.855469 2.640625 19.816406 2.640625 19.78125 C 2.640625 17.234375 5.890625 15.167969 9.882812 15.167969 C 13.875 15.167969 17.125 17.234375 17.125 19.78125 C 17.125 19.816406 17.121094 19.855469 17.121094 19.894531 Z M 17.121094 19.898438 "/>
<path style=" stroke:none;fill-rule:nonzero;fill:rgb(10.980392%,10.588235%,11.372549%);fill-opacity:1;" d="M 2.925781 20.710938 C 2.824219 20.40625 2.773438 20.089844 2.773438 19.769531 C 2.773438 19.175781 2.949219 18.605469 3.269531 18.085938 L 3.15625 18.054688 C 2.824219 18.585938 2.640625 19.167969 2.640625 19.777344 C 2.640625 20.140625 2.707031 20.488281 2.828125 20.828125 L 2.828125 20.738281 Z M 2.925781 20.710938 "/>
<path style=" stroke:none;fill-rule:nonzero;fill:rgb(75.294118%,76.470588%,78.039216%);fill-opacity:1;" d="M 11.328125 15.199219 L 11.335938 15.136719 C 10.863281 15.078125 10.375 15.046875 9.882812 15.046875 C 9.367188 15.046875 8.859375 15.082031 8.367188 15.144531 L 8.371094 15.207031 C 8.859375 15.140625 9.363281 15.105469 9.882812 15.105469 C 10.378906 15.105469 10.863281 15.136719 11.328125 15.199219 Z M 11.328125 15.199219 "/>
<path style=" stroke:none;fill-rule:nonzero;fill:rgb(60%,61.960784%,63.137255%);fill-opacity:1;" d="M 2.734375 21.308594 C 3.003906 21.988281 3.484375 22.621094 4.152344 23.171875 L 4.15625 22.691406 C 3.484375 22.152344 2.996094 21.519531 2.75 20.828125 Z M 2.734375 21.308594 "/>
<path style=" stroke:none;fill-rule:nonzero;fill:rgb(75.294118%,76.470588%,78.039216%);fill-opacity:1;" d="M 5.03125 21.03125 C 4.554688 20.472656 4.253906 20.308594 4.253906 20.308594 L 2.847656 20.710938 C 3.074219 21.40625 3.546875 22.046875 4.203125 22.589844 L 5.628906 22.019531 C 5.628906 22.019531 5.507812 21.589844 5.03125 21.03125 Z M 5.03125 21.03125 "/>
<path style=" stroke:none;fill-rule:nonzero;fill:rgb(60.784314%,62.745098%,63.529412%);fill-opacity:1;" d="M 8.125 24.316406 L 8.109375 24.855469 C 8.683594 24.949219 9.277344 24.996094 9.882812 24.996094 C 10.453125 24.996094 11.011719 24.953125 11.554688 24.871094 L 11.5625 24.328125 C 11.023438 24.410156 10.460938 24.453125 9.882812 24.453125 C 9.277344 24.453125 8.6875 24.40625 8.125 24.316406 Z M 8.125 24.316406 "/>
<path style=" stroke:none;fill-rule:nonzero;fill:rgb(75.294118%,76.470588%,78.039216%);fill-opacity:1;" d="M 11.417969 23.078125 C 11.417969 23.078125 11.070312 22.933594 9.785156 22.933594 C 8.5 22.933594 8.273438 23.078125 8.273438 23.078125 L 8.128906 24.210938 L 8.125 24.226562 C 8.679688 24.316406 9.257812 24.363281 9.851562 24.363281 C 10.441406 24.363281 11.015625 24.316406 11.5625 24.230469 L 11.5625 24.210938 Z M 11.417969 23.078125 "/>
<path style=" stroke:none;fill-rule:nonzero;fill:rgb(75.294118%,76.470588%,78.039216%);fill-opacity:1;" d="M 14.628906 21.058594 C 14.0625 21.730469 14.046875 22.003906 14.046875 22.003906 L 15.492188 22.597656 C 16.152344 22.058594 16.628906 21.417969 16.855469 20.722656 L 15.445312 20.308594 C 15.445312 20.308594 15.195312 20.386719 14.628906 21.058594 Z M 14.628906 21.058594 "/>
<path style=" stroke:none;fill-rule:nonzero;fill:rgb(60%,61.960784%,63.137255%);fill-opacity:1;" d="M 15.558594 23.210938 C 16.183594 22.710938 16.644531 22.140625 16.933594 21.53125 L 16.964844 21.394531 L 16.960938 20.972656 C 16.691406 21.625 16.203125 22.226562 15.550781 22.734375 Z M 15.558594 23.210938 "/>
<path style=" stroke:none;fill-rule:nonzero;fill:rgb(8.235294%,7.843137%,8.235294%);fill-opacity:1;" d="M 4.203125 22.589844 L 4.15625 22.605469 L 4.15625 22.691406 C 5.148438 23.484375 6.535156 24.066406 8.125 24.316406 L 8.125 24.226562 C 6.546875 23.976562 5.171875 23.386719 4.203125 22.589844 Z M 4.203125 22.589844 "/>
<path style=" stroke:none;fill-rule:nonzero;fill:rgb(8.235294%,7.843137%,8.235294%);fill-opacity:1;" d="M 15.492188 22.597656 C 14.519531 23.394531 13.144531 23.980469 11.5625 24.230469 L 11.5625 24.328125 C 13.15625 24.089844 14.550781 23.515625 15.550781 22.734375 L 15.550781 22.625 Z M 15.492188 22.597656 "/>
<path style=" stroke:none;fill-rule:nonzero;fill:rgb(10.980392%,10.588235%,11.372549%);fill-opacity:1;" d="M 16.644531 18.027344 L 16.484375 18.074219 C 16.808594 18.597656 16.984375 19.171875 16.984375 19.769531 C 16.984375 20.09375 16.933594 20.414062 16.832031 20.722656 L 16.929688 20.75 L 16.933594 20.972656 C 17.089844 20.589844 17.175781 20.191406 17.175781 19.78125 C 17.175781 19.160156 16.988281 18.570312 16.644531 18.027344 Z M 16.644531 18.027344 "/>
<path style=" stroke:none;fill-rule:nonzero;fill:rgb(74.509804%,75.686275%,77.254902%);fill-opacity:1;" d="M 4.203125 22.589844 C 3.546875 22.046875 3.074219 21.40625 2.847656 20.710938 L 2.75 20.738281 L 2.75 20.828125 C 2.996094 21.519531 3.484375 22.152344 4.15625 22.691406 L 4.15625 22.605469 Z M 4.203125 22.589844 "/>
<path style=" stroke:none;fill-rule:nonzero;fill:rgb(63.529412%,64.705882%,66.27451%);fill-opacity:1;" d="M 9.851562 24.363281 C 9.257812 24.363281 8.679688 24.316406 8.125 24.226562 L 8.125 24.316406 C 8.6875 24.40625 9.277344 24.453125 9.882812 24.453125 C 10.460938 24.453125 11.023438 24.410156 11.5625 24.328125 L 11.5625 24.230469 C 11.015625 24.316406 10.441406 24.363281 9.851562 24.363281 Z M 9.851562 24.363281 "/>
<path style=" stroke:none;fill-rule:nonzero;fill:rgb(74.509804%,75.686275%,77.254902%);fill-opacity:1;" d="M 16.855469 20.722656 C 16.628906 21.417969 16.152344 22.058594 15.492188 22.597656 L 15.550781 22.625 L 15.550781 22.734375 C 16.203125 22.226562 16.691406 21.625 16.960938 20.972656 L 16.957031 20.75 Z M 16.855469 20.722656 "/>
<path style=" stroke:none;fill-rule:nonzero;fill:rgb(75.294118%,76.470588%,78.039216%);fill-opacity:1;" d="M 15.109375 16.429688 C 15.09375 16.421875 15.082031 16.414062 15.070312 16.40625 L 14.992188 16.433594 L 14.863281 16.488281 L 13.699219 16.945312 C 13.699219 16.945312 13.574219 16.972656 14.253906 17.660156 C 14.933594 18.351562 15.246094 18.449219 15.246094 18.449219 L 16.511719 18.074219 L 16.667969 18.027344 L 16.746094 18.007812 C 16.375 17.421875 15.824219 16.886719 15.109375 16.429688 Z M 15.109375 16.429688 "/>
<path style=" stroke:none;fill-rule:nonzero;fill:rgb(0%,0%,0%);fill-opacity:1;" d="M 17.28125 19.777344 C 17.28125 18.511719 16.507812 17.324219 15.109375 16.429688 C 13.710938 15.539062 11.855469 15.046875 9.882812 15.046875 C 7.910156 15.046875 6.054688 15.539062 4.65625 16.429688 C 3.257812 17.324219 2.484375 18.511719 2.484375 19.777344 C 2.484375 19.820312 2.488281 19.859375 2.488281 19.898438 L 2.488281 19.894531 C 2.484375 19.9375 2.484375 19.980469 2.484375 20.023438 C 2.484375 21.351562 3.257812 22.601562 4.65625 23.542969 C 6.050781 24.480469 7.910156 24.996094 9.882812 24.996094 C 11.855469 24.996094 13.710938 24.480469 15.109375 23.542969 C 16.507812 22.601562 17.28125 21.351562 17.28125 20.023438 C 17.28125 19.980469 17.277344 19.9375 17.277344 19.894531 L 17.277344 19.898438 C 17.277344 19.859375 17.28125 19.820312 17.28125 19.777344 Z M 17.121094 19.898438 C 17.121094 19.941406 17.125 19.980469 17.125 20.023438 C 17.125 21.316406 16.371094 22.535156 15.007812 23.453125 C 13.640625 24.371094 11.820312 24.875 9.882812 24.875 C 7.945312 24.875 6.125 24.371094 4.757812 23.453125 C 3.394531 22.535156 2.640625 21.316406 2.640625 20.023438 C 2.640625 19.980469 2.640625 19.941406 2.644531 19.898438 L 2.644531 19.894531 C 2.640625 19.855469 2.640625 19.816406 2.640625 19.78125 C 2.640625 17.234375 5.890625 15.167969 9.882812 15.167969 C 13.875 15.167969 17.125 17.234375 17.125 19.78125 C 17.125 19.816406 17.121094 19.855469 17.121094 19.894531 Z M 17.121094 19.898438 "/>
<path style=" stroke:none;fill-rule:nonzero;fill:rgb(0%,0%,0%);fill-opacity:1;" d="M 16.019531 18.796875 C 16.023438 18.835938 16.023438 18.878906 16.023438 18.917969 C 16.023438 20.214844 15.269531 21.429688 13.90625 22.347656 C 12.539062 23.265625 10.71875 23.773438 8.78125 23.773438 C 6.84375 23.773438 5.023438 23.265625 3.65625 22.347656 C 2.292969 21.429688 1.539062 20.214844 1.539062 18.917969 C 1.539062 18.878906 1.542969 18.835938 1.542969 18.796875 L 1.542969 18.792969 C 1.542969 18.753906 1.539062 18.714844 1.539062 18.675781 C 1.539062 16.132812 4.789062 14.0625 8.78125 14.0625 C 12.773438 14.0625 16.023438 16.132812 16.023438 18.675781 C 16.023438 18.714844 16.023438 18.753906 16.019531 18.792969 Z M 16.019531 18.796875 "/>
<path style=" stroke:none;fill-rule:nonzero;fill:rgb(22.352941%,24.705882%,27.058824%);fill-opacity:1;" d="M 1.824219 19.605469 C 1.722656 19.304688 1.671875 18.988281 1.671875 18.664062 C 1.671875 18.070312 1.847656 17.503906 2.167969 16.980469 L 2.054688 16.949219 C 1.722656 17.484375 1.539062 18.066406 1.539062 18.675781 C 1.539062 19.035156 1.605469 19.386719 1.726562 19.722656 L 1.726562 19.632812 Z M 1.824219 19.605469 "/>
<path style=" stroke:none;fill-rule:nonzero;fill:rgb(87.843137%,88.235294%,89.411765%);fill-opacity:1;" d="M 10.226562 14.09375 L 10.234375 14.035156 C 9.761719 13.972656 9.273438 13.945312 8.78125 13.945312 C 8.265625 13.945312 7.757812 13.976562 7.265625 14.042969 L 7.269531 14.101562 C 7.757812 14.039062 8.261719 14.003906 8.78125 14.003906 C 9.277344 14.003906 9.761719 14.035156 10.226562 14.09375 Z M 10.226562 14.09375 "/>
<path style=" stroke:none;fill-rule:nonzero;fill:rgb(73.333333%,74.117647%,76.078431%);fill-opacity:1;" d="M 1.632812 20.207031 C 1.902344 20.882812 2.382812 21.515625 3.054688 22.066406 L 3.054688 21.585938 C 2.386719 21.050781 1.894531 20.414062 1.648438 19.722656 Z M 1.632812 20.207031 "/>
<path style=" stroke:none;fill-rule:nonzero;fill:rgb(87.843137%,88.235294%,89.411765%);fill-opacity:1;" d="M 3.929688 19.929688 C 3.453125 19.371094 3.152344 19.207031 3.152344 19.207031 L 1.746094 19.605469 C 1.972656 20.304688 2.445312 20.941406 3.101562 21.484375 L 4.527344 20.917969 C 4.527344 20.917969 4.40625 20.488281 3.929688 19.929688 Z M 3.929688 19.929688 "/>
<path style=" stroke:none;fill-rule:nonzero;fill:rgb(73.72549%,74.901961%,76.862745%);fill-opacity:1;" d="M 7.023438 23.210938 L 7.007812 23.75 C 7.582031 23.84375 8.175781 23.894531 8.78125 23.894531 C 9.351562 23.894531 9.914062 23.851562 10.453125 23.765625 L 10.460938 23.222656 C 9.921875 23.304688 9.359375 23.347656 8.78125 23.347656 C 8.175781 23.347656 7.585938 23.300781 7.023438 23.210938 Z M 7.023438 23.210938 "/>
<path style=" stroke:none;fill-rule:nonzero;fill:rgb(87.843137%,88.235294%,89.411765%);fill-opacity:1;" d="M 10.316406 21.976562 C 10.316406 21.976562 9.96875 21.832031 8.683594 21.832031 C 7.398438 21.832031 7.171875 21.976562 7.171875 21.976562 L 7.027344 23.109375 L 7.027344 23.125 C 7.578125 23.210938 8.15625 23.257812 8.753906 23.257812 C 9.34375 23.257812 9.914062 23.210938 10.460938 23.125 L 10.464844 23.109375 Z M 10.316406 21.976562 "/>
<path style=" stroke:none;fill-rule:nonzero;fill:rgb(87.843137%,88.235294%,89.411765%);fill-opacity:1;" d="M 13.527344 19.957031 C 12.960938 20.628906 12.949219 20.902344 12.949219 20.902344 L 14.390625 21.496094 C 15.050781 20.953125 15.527344 20.316406 15.757812 19.617188 L 14.347656 19.207031 C 14.347656 19.207031 14.09375 19.28125 13.527344 19.957031 Z M 13.527344 19.957031 "/>
<path style=" stroke:none;fill-rule:nonzero;fill:rgb(73.333333%,74.117647%,76.078431%);fill-opacity:1;" d="M 14.457031 22.109375 C 15.082031 21.609375 15.546875 21.039062 15.832031 20.425781 L 15.863281 20.289062 L 15.859375 19.867188 C 15.589844 20.523438 15.101562 21.121094 14.449219 21.628906 Z M 14.457031 22.109375 "/>
<path style=" stroke:none;fill-rule:nonzero;fill:rgb(21.960784%,24.313725%,26.666667%);fill-opacity:1;" d="M 3.101562 21.484375 L 3.058594 21.503906 L 3.054688 21.585938 C 4.046875 22.378906 5.433594 22.960938 7.023438 23.210938 L 7.027344 23.125 C 5.445312 22.871094 4.074219 22.285156 3.101562 21.484375 Z M 3.101562 21.484375 "/>
<path style=" stroke:none;fill-rule:nonzero;fill:rgb(21.960784%,24.313725%,26.666667%);fill-opacity:1;" d="M 14.390625 21.496094 C 13.417969 22.292969 12.042969 22.878906 10.460938 23.125 L 10.460938 23.222656 C 12.054688 22.984375 13.449219 22.414062 14.449219 21.628906 L 14.449219 21.519531 Z M 14.390625 21.496094 "/>
<path style=" stroke:none;fill-rule:nonzero;fill:rgb(22.352941%,24.705882%,27.058824%);fill-opacity:1;" d="M 15.542969 16.925781 L 15.382812 16.972656 C 15.707031 17.496094 15.886719 18.066406 15.886719 18.664062 C 15.886719 18.992188 15.832031 19.308594 15.730469 19.617188 L 15.832031 19.648438 L 15.832031 19.867188 C 15.992188 19.488281 16.074219 19.089844 16.074219 18.675781 C 16.074219 18.058594 15.886719 17.464844 15.542969 16.925781 Z M 15.542969 16.925781 "/>
<path style=" stroke:none;fill-rule:nonzero;fill:rgb(87.058824%,87.45098%,89.019608%);fill-opacity:1;" d="M 3.101562 21.484375 C 2.445312 20.941406 1.972656 20.304688 1.746094 19.605469 L 1.648438 19.632812 L 1.648438 19.722656 C 1.894531 20.414062 2.386719 21.050781 3.054688 21.585938 L 3.054688 21.503906 Z M 3.101562 21.484375 "/>
<path style=" stroke:none;fill-rule:nonzero;fill:rgb(76.078431%,77.254902%,78.823529%);fill-opacity:1;" d="M 8.753906 23.257812 C 8.15625 23.257812 7.578125 23.210938 7.027344 23.125 L 7.023438 23.210938 C 7.585938 23.300781 8.175781 23.347656 8.78125 23.347656 C 9.359375 23.347656 9.921875 23.304688 10.460938 23.222656 L 10.464844 23.125 C 9.914062 23.210938 9.34375 23.257812 8.753906 23.257812 Z M 8.753906 23.257812 "/>
<path style=" stroke:none;fill-rule:nonzero;fill:rgb(87.058824%,87.45098%,89.019608%);fill-opacity:1;" d="M 15.757812 19.617188 C 15.527344 20.316406 15.050781 20.953125 14.390625 21.496094 L 14.449219 21.519531 L 14.453125 21.632812 C 15.101562 21.121094 15.589844 20.523438 15.859375 19.867188 L 15.855469 19.648438 Z M 15.757812 19.617188 "/>
<path style=" stroke:none;fill-rule:nonzero;fill:rgb(0%,0%,0%);fill-opacity:1;" d="M 16.179688 18.675781 C 16.179688 17.410156 15.40625 16.21875 14.007812 15.324219 C 12.609375 14.433594 10.753906 13.945312 8.78125 13.945312 C 6.808594 13.945312 4.953125 14.433594 3.554688 15.324219 C 2.15625 16.21875 1.382812 17.410156 1.382812 18.675781 C 1.382812 18.714844 1.386719 18.753906 1.386719 18.796875 L 1.386719 18.792969 C 1.386719 18.835938 1.382812 18.878906 1.382812 18.917969 C 1.382812 20.25 2.15625 21.5 3.554688 22.4375 C 4.953125 23.375 6.808594 23.894531 8.78125 23.894531 C 10.753906 23.894531 12.613281 23.375 14.007812 22.4375 C 15.40625 21.5 16.179688 20.25 16.179688 18.917969 C 16.179688 18.878906 16.175781 18.835938 16.175781 18.792969 L 16.175781 18.796875 C 16.175781 18.753906 16.179688 18.714844 16.179688 18.675781 Z M 16.019531 18.796875 C 16.023438 18.835938 16.023438 18.878906 16.023438 18.917969 C 16.023438 20.214844 15.269531 21.429688 13.90625 22.347656 C 12.539062 23.265625 10.71875 23.773438 8.78125 23.773438 C 6.84375 23.773438 5.023438 23.265625 3.65625 22.347656 C 2.292969 21.429688 1.539062 20.214844 1.539062 18.917969 C 1.539062 18.878906 1.542969 18.835938 1.542969 18.796875 L 1.542969 18.792969 C 1.542969 18.753906 1.539062 18.714844 1.539062 18.675781 C 1.539062 16.132812 4.789062 14.0625 8.78125 14.0625 C 12.773438 14.0625 16.023438 16.132812 16.023438 18.675781 C 16.023438 18.714844 16.023438 18.753906 16.019531 18.792969 Z M 16.019531 18.796875 "/>
<path style=" stroke:none;fill-rule:nonzero;fill:rgb(0%,0%,0%);fill-opacity:1;" d="M 16.65625 17.59375 C 16.65625 17.632812 16.65625 17.675781 16.65625 17.714844 C 16.65625 19.011719 15.90625 20.226562 14.539062 21.144531 C 13.171875 22.0625 11.351562 22.570312 9.417969 22.570312 C 7.480469 22.570312 5.660156 22.0625 4.292969 21.144531 C 2.925781 20.226562 2.175781 19.011719 2.175781 17.714844 C 2.175781 17.675781 2.175781 17.632812 2.179688 17.59375 L 2.179688 17.589844 C 2.175781 17.550781 2.175781 17.511719 2.175781 17.472656 C 2.175781 14.929688 5.425781 12.859375 9.417969 12.859375 C 13.410156 12.859375 16.65625 14.929688 16.65625 17.472656 C 16.65625 17.511719 16.65625 17.550781 16.65625 17.589844 Z M 16.65625 17.59375 "/>
<path style=" stroke:none;fill-rule:nonzero;fill:rgb(37.647059%,40%,42.745098%);fill-opacity:1;" d="M 2.457031 18.402344 C 2.359375 18.097656 2.308594 17.785156 2.308594 17.460938 C 2.308594 16.867188 2.484375 16.300781 2.800781 15.777344 L 2.691406 15.746094 C 2.359375 16.28125 2.175781 16.863281 2.175781 17.472656 C 2.175781 17.832031 2.238281 18.183594 2.359375 18.519531 L 2.363281 18.429688 Z M 2.457031 18.402344 "/>
<path style=" stroke:none;fill-rule:nonzero;fill:rgb(100%,100%,100%);fill-opacity:1;" d="M 10.863281 12.890625 L 10.871094 12.832031 C 10.394531 12.769531 9.910156 12.738281 9.417969 12.738281 C 8.902344 12.738281 8.394531 12.773438 7.898438 12.839844 L 7.90625 12.898438 C 8.394531 12.835938 8.898438 12.800781 9.417969 12.800781 C 9.910156 12.800781 10.394531 12.832031 10.863281 12.890625 Z M 10.863281 12.890625 "/>
<path style=" stroke:none;fill-rule:nonzero;fill:rgb(100%,100%,100%);fill-opacity:1;" d="M 9.4375 13.898438 C 10.441406 13.898438 10.773438 13.789062 10.773438 13.789062 L 10.855469 12.964844 C 10.382812 12.902344 9.890625 12.867188 9.386719 12.867188 C 8.882812 12.867188 8.386719 12.902344 7.914062 12.964844 L 7.996094 13.785156 C 7.996094 13.785156 8.433594 13.898438 9.4375 13.898438 Z M 9.4375 13.898438 "/>
<path style=" stroke:none;fill-rule:nonzero;fill:rgb(86.27451%,86.27451%,87.843137%);fill-opacity:1;" d="M 2.269531 19.003906 C 2.535156 19.679688 3.015625 20.3125 3.6875 20.863281 L 3.691406 20.382812 C 3.019531 19.847656 2.53125 19.210938 2.28125 18.519531 Z M 2.269531 19.003906 "/>
<path style=" stroke:none;fill-rule:nonzero;fill:rgb(100%,100%,100%);fill-opacity:1;" d="M 4.566406 18.726562 C 4.089844 18.167969 3.785156 18.003906 3.785156 18.003906 L 2.378906 18.402344 C 2.605469 19.101562 3.078125 19.738281 3.738281 20.28125 L 5.164062 19.714844 C 5.164062 19.714844 5.042969 19.28125 4.566406 18.726562 Z M 4.566406 18.726562 "/>
<path style=" stroke:none;fill-rule:nonzero;fill:rgb(86.666667%,87.058824%,88.235294%);fill-opacity:1;" d="M 7.660156 22.007812 L 7.644531 22.546875 C 8.21875 22.640625 8.8125 22.691406 9.417969 22.691406 C 9.988281 22.691406 10.546875 22.644531 11.089844 22.5625 L 11.097656 22.019531 C 10.558594 22.101562 9.996094 22.144531 9.417969 22.144531 C 8.808594 22.144531 8.222656 22.097656 7.660156 22.007812 Z M 7.660156 22.007812 "/>
<path style=" stroke:none;fill-rule:nonzero;fill:rgb(100%,100%,100%);fill-opacity:1;" d="M 10.949219 20.769531 C 10.949219 20.769531 10.605469 20.628906 9.320312 20.628906 C 8.035156 20.628906 7.808594 20.769531 7.808594 20.769531 L 7.660156 21.90625 L 7.660156 21.917969 C 8.214844 22.007812 8.792969 22.054688 9.386719 22.054688 C 9.976562 22.054688 10.550781 22.007812 11.097656 21.921875 L 11.097656 21.90625 Z M 10.949219 20.769531 "/>
<path style=" stroke:none;fill-rule:nonzero;fill:rgb(100%,100%,100%);fill-opacity:1;" d="M 14.164062 18.75 C 13.597656 19.421875 13.582031 19.699219 13.582031 19.699219 L 15.027344 20.292969 C 15.6875 19.75 16.160156 19.113281 16.390625 18.414062 L 14.980469 18.003906 C 14.980469 18.003906 14.730469 18.078125 14.164062 18.75 Z M 14.164062 18.75 "/>
<path style=" stroke:none;fill-rule:nonzero;fill:rgb(86.27451%,86.27451%,87.843137%);fill-opacity:1;" d="M 15.09375 20.90625 C 15.714844 20.40625 16.179688 19.835938 16.46875 19.222656 L 16.5 19.085938 L 16.496094 18.664062 C 16.226562 19.320312 15.738281 19.917969 15.085938 20.425781 Z M 15.09375 20.90625 "/>
<path style=" stroke:none;fill-rule:nonzero;fill:rgb(37.647059%,40%,42.352941%);fill-opacity:1;" d="M 3.738281 20.28125 L 3.691406 20.300781 L 3.691406 20.382812 C 4.679688 21.175781 6.066406 21.757812 7.660156 22.007812 L 7.660156 21.917969 C 6.082031 21.667969 4.707031 21.082031 3.738281 20.28125 Z M 3.738281 20.28125 "/>
<path style=" stroke:none;fill-rule:nonzero;fill:rgb(37.647059%,40%,42.352941%);fill-opacity:1;" d="M 15.027344 20.292969 C 14.050781 21.089844 12.679688 21.671875 11.097656 21.921875 L 11.097656 22.019531 C 12.691406 21.78125 14.082031 21.210938 15.085938 20.425781 L 15.085938 20.316406 Z M 15.027344 20.292969 "/>
<path style=" stroke:none;fill-rule:nonzero;fill:rgb(37.647059%,40%,42.745098%);fill-opacity:1;" d="M 16.179688 15.722656 L 16.019531 15.769531 C 16.34375 16.292969 16.519531 16.863281 16.519531 17.460938 C 16.519531 17.789062 16.464844 18.105469 16.367188 18.414062 L 16.464844 18.445312 L 16.46875 18.664062 C 16.625 18.285156 16.710938 17.882812 16.710938 17.472656 C 16.710938 16.851562 16.519531 16.261719 16.179688 15.722656 Z M 16.179688 15.722656 "/>
<path style=" stroke:none;fill-rule:nonzero;fill:rgb(87.45098%,87.45098%,88.627451%);fill-opacity:1;" d="M 9.386719 12.949219 C 9.890625 12.949219 10.382812 12.980469 10.855469 13.042969 L 10.863281 12.972656 C 10.394531 12.910156 9.910156 12.878906 9.417969 12.878906 C 8.898438 12.878906 8.394531 12.914062 7.90625 12.980469 L 7.914062 13.046875 C 8.386719 12.980469 8.882812 12.949219 9.386719 12.949219 Z M 9.386719 12.949219 "/>
<path style=" stroke:none;fill-rule:nonzero;fill:rgb(100%,100%,100%);fill-opacity:1;" d="M 4.375 14.183594 L 4.28125 14.144531 L 4.203125 14.113281 C 4.199219 14.117188 4.195312 14.121094 4.191406 14.121094 C 3.464844 14.585938 2.90625 15.132812 2.539062 15.726562 L 2.613281 15.746094 L 2.726562 15.777344 L 3.972656 16.132812 C 3.972656 16.132812 4.4375 15.882812 4.914062 15.421875 C 5.394531 14.957031 5.527344 14.648438 5.527344 14.648438 Z M 4.375 14.183594 "/>
<path style=" stroke:none;fill-rule:nonzero;fill:rgb(99.215686%,99.607843%,99.607843%);fill-opacity:1;" d="M 3.738281 20.28125 C 3.078125 19.738281 2.605469 19.101562 2.378906 18.402344 L 2.285156 18.429688 L 2.28125 18.519531 C 2.53125 19.210938 3.019531 19.847656 3.691406 20.382812 L 3.691406 20.300781 Z M 3.738281 20.28125 "/>
<path style=" stroke:none;fill-rule:nonzero;fill:rgb(89.019608%,89.411765%,90.588235%);fill-opacity:1;" d="M 9.386719 22.054688 C 8.792969 22.054688 8.214844 22.007812 7.660156 21.917969 L 7.660156 22.007812 C 8.222656 22.097656 8.808594 22.144531 9.417969 22.144531 C 9.996094 22.144531 10.558594 22.101562 11.097656 22.019531 L 11.097656 21.921875 C 10.550781 22.007812 9.976562 22.054688 9.386719 22.054688 Z M 9.386719 22.054688 "/>
<path style=" stroke:none;fill-rule:nonzero;fill:rgb(99.215686%,99.607843%,99.607843%);fill-opacity:1;" d="M 16.390625 18.414062 C 16.160156 19.113281 15.6875 19.75 15.027344 20.292969 L 15.085938 20.316406 L 15.085938 20.425781 C 15.738281 19.917969 16.226562 19.320312 16.496094 18.664062 L 16.492188 18.445312 Z M 16.390625 18.414062 "/>
<path style=" stroke:none;fill-rule:nonzero;fill:rgb(100%,100%,100%);fill-opacity:1;" d="M 14.640625 14.121094 C 14.628906 14.113281 14.617188 14.105469 14.605469 14.097656 L 14.527344 14.128906 L 14.398438 14.179688 L 13.230469 14.640625 C 13.230469 14.640625 13.105469 14.664062 13.785156 15.355469 C 14.464844 16.042969 14.78125 16.140625 14.78125 16.140625 L 16.042969 15.769531 L 16.203125 15.722656 L 16.277344 15.699219 C 15.910156 15.117188 15.359375 14.578125 14.640625 14.121094 Z M 14.640625 14.121094 "/>
<path style=" stroke:none;fill-rule:nonzero;fill:rgb(0%,0%,0%);fill-opacity:1;" d="M 16.8125 17.472656 C 16.8125 16.207031 16.042969 15.015625 14.640625 14.121094 C 13.246094 13.230469 11.390625 12.738281 9.417969 12.738281 C 7.445312 12.738281 5.585938 13.230469 4.191406 14.121094 C 2.789062 15.015625 2.019531 16.207031 2.019531 17.472656 C 2.019531 17.511719 2.019531 17.550781 2.023438 17.59375 L 2.023438 17.589844 C 2.019531 17.632812 2.019531 17.671875 2.019531 17.714844 C 2.019531 19.046875 2.789062 20.296875 4.191406 21.234375 C 5.585938 22.171875 7.441406 22.691406 9.417969 22.691406 C 11.390625 22.691406 13.246094 22.171875 14.644531 21.234375 C 16.042969 20.296875 16.8125 19.046875 16.8125 17.714844 C 16.8125 17.671875 16.8125 17.632812 16.8125 17.589844 L 16.8125 17.59375 C 16.8125 17.550781 16.8125 17.511719 16.8125 17.472656 Z M 16.65625 17.59375 C 16.65625 17.632812 16.65625 17.675781 16.65625 17.714844 C 16.65625 19.011719 15.90625 20.226562 14.539062 21.144531 C 13.171875 22.0625 11.351562 22.570312 9.417969 22.570312 C 7.480469 22.570312 5.660156 22.0625 4.292969 21.144531 C 2.925781 20.226562 2.175781 19.011719 2.175781 17.714844 C 2.175781 17.675781 2.175781 17.632812 2.179688 17.59375 L 2.179688 17.589844 C 2.175781 17.550781 2.175781 17.511719 2.175781 17.472656 C 2.175781 14.929688 5.425781 12.859375 9.417969 12.859375 C 13.410156 12.859375 16.65625 14.929688 16.65625 17.472656 C 16.65625 17.511719 16.65625 17.550781 16.65625 17.589844 Z M 16.65625 17.59375 "/>
<path style=" stroke:none;fill-rule:nonzero;fill:rgb(100%,100%,100%);fill-opacity:1;" d="M 7.203125 14.484375 L 7.171875 14.402344 C 6.78125 14.523438 6.417969 14.675781 6.09375 14.855469 L 6.203125 14.914062 C 6.503906 14.746094 6.839844 14.601562 7.203125 14.484375 Z M 7.203125 14.484375 "/>
<path style=" stroke:none;fill-rule:nonzero;fill:rgb(100%,100%,100%);fill-opacity:1;" d="M 9.0625 14.160156 L 9.070312 14.082031 C 8.632812 14.097656 8.207031 14.152344 7.804688 14.238281 L 7.851562 14.3125 C 8.234375 14.230469 8.640625 14.179688 9.0625 14.160156 Z M 9.0625 14.160156 "/>
<path style=" stroke:none;fill-rule:nonzero;fill:rgb(100%,100%,100%);fill-opacity:1;" d="M 5.679688 15.25 L 5.578125 15.183594 C 5.300781 15.386719 5.0625 15.617188 4.871094 15.863281 L 5.019531 15.894531 C 5.199219 15.660156 5.417969 15.445312 5.679688 15.25 Z M 5.679688 15.25 "/>
<path style=" stroke:none;fill-rule:nonzero;fill:rgb(100%,100%,100%);fill-opacity:1;" d="M 10.945312 14.316406 L 11.003906 14.238281 C 10.613281 14.15625 10.195312 14.101562 9.765625 14.082031 L 9.773438 14.164062 C 10.179688 14.183594 10.574219 14.234375 10.945312 14.316406 Z M 10.945312 14.316406 "/>
<path style=" stroke:none;fill-rule:nonzero;fill:rgb(100%,100%,100%);fill-opacity:1;" d="M 13.789062 15.917969 L 13.953125 15.894531 C 13.765625 15.640625 13.523438 15.402344 13.234375 15.191406 L 13.117188 15.253906 C 13.382812 15.457031 13.609375 15.679688 13.789062 15.917969 Z M 13.789062 15.917969 "/>
<path style=" stroke:none;fill-rule:nonzero;fill:rgb(100%,100%,100%);fill-opacity:1;" d="M 14.25 17.160156 L 14.429688 17.179688 C 14.421875 16.886719 14.347656 16.601562 14.21875 16.332031 L 14.054688 16.359375 C 14.171875 16.617188 14.238281 16.882812 14.25 17.160156 Z M 14.25 17.160156 "/>
<path style=" stroke:none;fill-rule:nonzero;fill:rgb(100%,100%,100%);fill-opacity:1;" d="M 4.75 16.328125 L 4.605469 16.285156 C 4.472656 16.550781 4.394531 16.832031 4.375 17.121094 L 4.542969 17.109375 C 4.558594 16.835938 4.632812 16.574219 4.75 16.328125 Z M 4.75 16.328125 "/>
<path style=" stroke:none;fill-rule:nonzero;fill:rgb(100%,100%,100%);fill-opacity:1;" d="M 10.789062 20.171875 L 10.820312 20.28125 C 11.285156 20.195312 11.71875 20.070312 12.117188 19.910156 L 12.023438 19.8125 C 11.644531 19.964844 11.230469 20.085938 10.789062 20.171875 Z M 10.789062 20.171875 "/>
<path style=" stroke:none;fill-rule:nonzero;fill:rgb(100%,100%,100%);fill-opacity:1;" d="M 12.636719 19.515625 L 12.734375 19.613281 C 13.085938 19.417969 13.394531 19.191406 13.648438 18.9375 L 13.496094 18.871094 C 13.257812 19.109375 12.96875 19.328125 12.636719 19.515625 Z M 12.636719 19.515625 "/>
<path style=" stroke:none;fill-rule:nonzero;fill:rgb(100%,100%,100%);fill-opacity:1;" d="M 14.207031 17.640625 C 14.148438 17.914062 14.03125 18.179688 13.863281 18.425781 L 14.019531 18.5 C 14.199219 18.238281 14.324219 17.953125 14.386719 17.660156 Z M 14.207031 17.640625 "/>
<path style=" stroke:none;fill-rule:nonzero;fill:rgb(100%,100%,100%);fill-opacity:1;" d="M 9.394531 20.300781 C 9.148438 20.300781 8.90625 20.289062 8.667969 20.265625 L 8.621094 20.371094 C 8.875 20.398438 9.136719 20.410156 9.402344 20.410156 C 9.632812 20.410156 9.855469 20.398438 10.078125 20.382812 L 10.035156 20.273438 C 9.824219 20.289062 9.609375 20.300781 9.394531 20.300781 Z M 9.394531 20.300781 "/>
<path style=" stroke:none;fill-rule:nonzero;fill:rgb(100%,100%,100%);fill-opacity:1;" d="M 4.574219 17.59375 L 4.40625 17.609375 C 4.460938 17.902344 4.578125 18.183594 4.75 18.449219 L 4.894531 18.382812 C 4.734375 18.132812 4.625 17.871094 4.574219 17.59375 Z M 4.574219 17.59375 "/>
<path style=" stroke:none;fill-rule:nonzero;fill:rgb(100%,100%,100%);fill-opacity:1;" d="M 5.246094 18.824219 L 5.089844 18.875 C 5.332031 19.128906 5.632812 19.359375 5.976562 19.5625 L 6.082031 19.472656 C 5.757812 19.28125 5.476562 19.0625 5.246094 18.824219 Z M 5.246094 18.824219 "/>
<path style=" stroke:none;fill-rule:nonzero;fill:rgb(100%,100%,100%);fill-opacity:1;" d="M 6.683594 19.777344 L 6.578125 19.863281 C 6.964844 20.027344 7.386719 20.160156 7.84375 20.253906 L 7.890625 20.148438 C 7.457031 20.058594 7.050781 19.933594 6.683594 19.777344 Z M 6.683594 19.777344 "/>
<path style=" stroke:none;fill-rule:nonzero;fill:rgb(100%,100%,100%);fill-opacity:1;" d="M 11.679688 14.417969 L 11.605469 14.492188 C 11.976562 14.609375 12.320312 14.761719 12.628906 14.933594 L 12.714844 14.859375 C 12.402344 14.6875 12.054688 14.539062 11.679688 14.417969 Z M 11.679688 14.417969 "/>
<path style=" stroke:none;fill-rule:nonzero;fill:rgb(100%,100%,100%);fill-opacity:1;" d="M 14.050781 17.210938 C 14.050781 15.582031 11.964844 14.261719 9.394531 14.261719 C 6.820312 14.261719 4.734375 15.582031 4.734375 17.210938 C 4.734375 18.835938 6.820312 20.15625 9.394531 20.15625 C 11.964844 20.15625 14.050781 18.835938 14.050781 17.210938 Z M 14.050781 17.210938 "/>
<path style=" stroke:none;fill-rule:nonzero;fill:rgb(85.882353%,13.333333%,27.843137%);fill-opacity:1;" d="M 7.257812 18.785156 C 7.304688 18.847656 7.363281 18.914062 7.433594 18.984375 C 7.511719 19.066406 7.578125 19.128906 7.625 19.171875 C 7.585938 19.203125 7.523438 19.265625 7.433594 19.359375 C 7.359375 19.433594 7.304688 19.5 7.257812 19.558594 C 7.246094 19.539062 7.226562 19.511719 7.199219 19.484375 C 7.15625 19.433594 7.101562 19.378906 7.039062 19.3125 C 7.027344 19.296875 6.976562 19.25 6.894531 19.171875 C 6.945312 19.125 7.015625 19.054688 7.101562 18.96875 C 7.164062 18.902344 7.214844 18.84375 7.257812 18.785156 Z M 7.257812 18.785156 "/>
<path style=" stroke:none;fill-rule:nonzero;fill:rgb(0%,0%,0%);fill-opacity:1;" d="M 8.449219 18.785156 C 8.464844 18.828125 8.484375 18.867188 8.511719 18.902344 C 8.542969 18.9375 8.59375 18.980469 8.667969 19.035156 C 8.742188 19.085938 8.789062 19.125 8.808594 19.152344 C 8.828125 19.179688 8.835938 19.207031 8.835938 19.234375 C 8.835938 19.277344 8.820312 19.308594 8.785156 19.335938 C 8.75 19.359375 8.710938 19.375 8.660156 19.375 C 8.621094 19.375 8.582031 19.363281 8.546875 19.34375 C 8.515625 19.324219 8.484375 19.296875 8.457031 19.257812 C 8.457031 19.316406 8.46875 19.367188 8.488281 19.402344 C 8.507812 19.4375 8.539062 19.464844 8.585938 19.484375 C 8.628906 19.503906 8.6875 19.515625 8.761719 19.519531 L 8.765625 19.542969 L 8.132812 19.542969 L 8.136719 19.519531 C 8.238281 19.519531 8.3125 19.5 8.367188 19.453125 C 8.421875 19.410156 8.445312 19.34375 8.445312 19.257812 C 8.421875 19.296875 8.390625 19.324219 8.355469 19.34375 C 8.320312 19.363281 8.28125 19.375 8.234375 19.375 C 8.1875 19.375 8.144531 19.359375 8.113281 19.335938 C 8.078125 19.308594 8.058594 19.273438 8.058594 19.238281 C 8.058594 19.207031 8.070312 19.179688 8.085938 19.15625 C 8.109375 19.121094 8.148438 19.089844 8.203125 19.054688 C 8.257812 19.019531 8.296875 18.992188 8.320312 18.96875 C 8.359375 18.9375 8.390625 18.90625 8.40625 18.878906 C 8.425781 18.851562 8.4375 18.820312 8.449219 18.785156 Z M 8.449219 18.785156 "/>
<path style=" stroke:none;fill-rule:nonzero;fill:rgb(85.882353%,13.333333%,27.843137%);fill-opacity:1;" d="M 9.765625 19.558594 C 9.746094 19.511719 9.722656 19.464844 9.691406 19.421875 C 9.664062 19.378906 9.601562 19.3125 9.515625 19.222656 C 9.449219 19.15625 9.410156 19.117188 9.398438 19.097656 C 9.371094 19.070312 9.355469 19.042969 9.34375 19.019531 C 9.332031 18.996094 9.328125 18.96875 9.328125 18.945312 C 9.328125 18.898438 9.347656 18.863281 9.386719 18.832031 C 9.425781 18.800781 9.472656 18.785156 9.53125 18.785156 C 9.589844 18.785156 9.640625 18.800781 9.683594 18.832031 C 9.71875 18.855469 9.742188 18.890625 9.765625 18.941406 C 9.78125 18.894531 9.804688 18.859375 9.839844 18.832031 C 9.882812 18.800781 9.933594 18.785156 9.992188 18.785156 C 10.050781 18.785156 10.097656 18.800781 10.136719 18.832031 C 10.179688 18.859375 10.199219 18.898438 10.199219 18.941406 C 10.199219 18.976562 10.1875 19.015625 10.164062 19.054688 C 10.140625 19.09375 10.09375 19.148438 10.027344 19.214844 C 9.941406 19.296875 9.875 19.367188 9.835938 19.421875 C 9.804688 19.464844 9.78125 19.511719 9.765625 19.558594 Z M 9.765625 19.558594 "/>
<path style=" stroke:none;fill-rule:nonzero;fill:rgb(0%,0%,0%);fill-opacity:1;" d="M 11.351562 19.542969 L 10.675781 19.542969 L 10.683594 19.523438 C 10.769531 19.507812 10.828125 19.496094 10.855469 19.480469 C 10.898438 19.460938 10.933594 19.429688 10.964844 19.386719 C 10.992188 19.347656 11.003906 19.304688 11.003906 19.257812 C 11.003906 19.25 11.003906 19.242188 11.003906 19.230469 C 10.96875 19.28125 10.929688 19.316406 10.882812 19.339844 C 10.835938 19.363281 10.789062 19.375 10.742188 19.375 C 10.679688 19.375 10.628906 19.359375 10.585938 19.324219 C 10.542969 19.292969 10.519531 19.25 10.519531 19.203125 C 10.519531 19.15625 10.539062 19.113281 10.578125 19.082031 C 10.617188 19.050781 10.664062 19.03125 10.714844 19.03125 C 10.746094 19.03125 10.789062 19.042969 10.84375 19.066406 C 10.820312 19.035156 10.804688 19.015625 10.800781 19 C 10.792969 18.984375 10.789062 18.96875 10.789062 18.953125 C 10.789062 18.90625 10.8125 18.867188 10.851562 18.832031 C 10.894531 18.800781 10.949219 18.785156 11.011719 18.785156 C 11.074219 18.785156 11.125 18.800781 11.167969 18.832031 C 11.210938 18.867188 11.234375 18.902344 11.234375 18.949219 C 11.234375 18.984375 11.214844 19.023438 11.179688 19.066406 C 11.222656 19.046875 11.25 19.039062 11.257812 19.035156 C 11.273438 19.035156 11.289062 19.03125 11.308594 19.03125 C 11.359375 19.03125 11.40625 19.046875 11.445312 19.082031 C 11.484375 19.113281 11.503906 19.152344 11.503906 19.199219 C 11.503906 19.25 11.484375 19.292969 11.441406 19.324219 C 11.398438 19.359375 11.347656 19.375 11.285156 19.375 C 11.253906 19.375 11.21875 19.367188 11.183594 19.355469 C 11.148438 19.34375 11.117188 19.328125 11.089844 19.304688 C 11.070312 19.289062 11.046875 19.265625 11.019531 19.230469 C 11.023438 19.292969 11.035156 19.347656 11.058594 19.382812 C 11.082031 19.421875 11.121094 19.453125 11.167969 19.480469 C 11.203125 19.496094 11.261719 19.511719 11.347656 19.523438 Z M 11.351562 19.542969 "/>
<path style=" stroke:none;fill-rule:nonzero;fill:rgb(0%,0%,0%);fill-opacity:1;" d="M 6.066406 16.101562 L 9.132812 16.101562 L 9.132812 16.21875 L 6.066406 16.21875 Z M 6.066406 16.101562 "/>
<path style=" stroke:none;fill-rule:nonzero;fill:rgb(0%,0%,0%);fill-opacity:1;" d="M 9.90625 16.101562 L 12.75 16.101562 L 12.75 16.21875 L 9.90625 16.21875 Z M 9.90625 16.101562 "/>
<path style=" stroke:none;fill-rule:nonzero;fill:rgb(0%,0%,0%);fill-opacity:1;" d="M 5.941406 18.453125 L 12.917969 18.453125 L 12.917969 18.574219 L 5.941406 18.574219 Z M 5.941406 18.453125 "/>
<path style=" stroke:none;fill-rule:nonzero;fill:rgb(85.882353%,13.333333%,27.843137%);fill-opacity:1;" d="M 7.222656 15.167969 L 7.027344 15.902344 L 6.917969 15.902344 L 6.855469 15.5 L 6.75 15.902344 L 6.640625 15.902344 L 6.53125 15.167969 L 6.699219 15.167969 L 6.765625 15.613281 L 6.875 15.167969 L 6.976562 15.167969 L 7.039062 15.617188 L 7.15625 15.167969 Z M 7.222656 15.167969 "/>
<path style=" stroke:none;fill-rule:nonzero;fill:rgb(85.882353%,13.333333%,27.843137%);fill-opacity:1;" d="M 7.503906 15.15625 C 7.671875 15.15625 7.75 15.28125 7.742188 15.535156 C 7.734375 15.789062 7.644531 15.917969 7.46875 15.917969 C 7.292969 15.917969 7.210938 15.785156 7.222656 15.527344 C 7.234375 15.277344 7.328125 15.15625 7.503906 15.15625 Z M 7.496094 15.214844 C 7.464844 15.214844 7.441406 15.234375 7.429688 15.28125 C 7.417969 15.324219 7.40625 15.410156 7.402344 15.535156 C 7.398438 15.660156 7.398438 15.746094 7.410156 15.792969 C 7.417969 15.835938 7.4375 15.859375 7.472656 15.859375 C 7.503906 15.859375 7.523438 15.835938 7.539062 15.792969 C 7.550781 15.746094 7.558594 15.660156 7.5625 15.535156 C 7.570312 15.410156 7.566406 15.324219 7.558594 15.28125 C 7.546875 15.234375 7.527344 15.214844 7.496094 15.214844 Z M 7.496094 15.214844 "/>
<path style=" stroke:none;fill-rule:nonzero;fill:rgb(85.882353%,13.333333%,27.843137%);fill-opacity:1;" d="M 7.808594 15.902344 L 7.832031 15.167969 L 8.082031 15.167969 C 8.144531 15.167969 8.199219 15.183594 8.234375 15.21875 C 8.273438 15.253906 8.292969 15.300781 8.289062 15.359375 C 8.289062 15.449219 8.246094 15.507812 8.160156 15.535156 C 8.203125 15.554688 8.230469 15.574219 8.242188 15.601562 C 8.253906 15.625 8.261719 15.671875 8.265625 15.738281 C 8.269531 15.824219 8.277344 15.878906 8.292969 15.902344 L 8.109375 15.902344 C 8.097656 15.871094 8.09375 15.828125 8.09375 15.777344 L 8.09375 15.675781 C 8.097656 15.59375 8.070312 15.550781 8.019531 15.550781 L 7.988281 15.550781 L 7.976562 15.902344 Z M 7.988281 15.488281 L 8.023438 15.488281 C 8.089844 15.488281 8.121094 15.445312 8.125 15.363281 C 8.125 15.277344 8.097656 15.234375 8.03125 15.234375 L 7.996094 15.234375 Z M 7.988281 15.488281 "/>
<path style=" stroke:none;fill-rule:nonzero;fill:rgb(85.882353%,13.333333%,27.843137%);fill-opacity:1;" d="M 8.550781 15.167969 L 8.539062 15.828125 L 8.78125 15.828125 L 8.777344 15.902344 L 8.367188 15.902344 L 8.382812 15.167969 Z M 8.550781 15.167969 "/>
<path style=" stroke:none;fill-rule:nonzero;fill:rgb(85.882353%,13.333333%,27.843137%);fill-opacity:1;" d="M 8.816406 15.902344 L 8.824219 15.167969 L 9.066406 15.167969 C 9.238281 15.167969 9.320312 15.289062 9.320312 15.535156 C 9.320312 15.78125 9.230469 15.902344 9.050781 15.902344 Z M 8.984375 15.84375 L 9.03125 15.84375 C 9.070312 15.84375 9.101562 15.820312 9.117188 15.777344 C 9.132812 15.730469 9.140625 15.652344 9.140625 15.535156 C 9.144531 15.417969 9.136719 15.339844 9.121094 15.296875 C 9.105469 15.25 9.078125 15.230469 9.035156 15.230469 L 8.992188 15.230469 Z M 8.984375 15.84375 "/>
<path style=" stroke:none;fill-rule:nonzero;fill:rgb(85.882353%,13.333333%,27.843137%);fill-opacity:1;" d="M 10.039062 15.375 L 9.960938 15.390625 C 9.964844 15.371094 9.964844 15.355469 9.964844 15.34375 C 9.964844 15.257812 9.921875 15.214844 9.839844 15.214844 C 9.777344 15.214844 9.742188 15.242188 9.742188 15.304688 C 9.742188 15.347656 9.78125 15.386719 9.855469 15.417969 C 9.996094 15.476562 10.066406 15.566406 10.066406 15.6875 C 10.066406 15.757812 10.046875 15.8125 10.007812 15.855469 C 9.96875 15.898438 9.917969 15.917969 9.851562 15.917969 C 9.707031 15.917969 9.632812 15.847656 9.632812 15.707031 C 9.632812 15.695312 9.632812 15.679688 9.632812 15.664062 L 9.714844 15.640625 C 9.710938 15.671875 9.707031 15.699219 9.707031 15.722656 C 9.707031 15.8125 9.75 15.859375 9.832031 15.859375 C 9.898438 15.859375 9.933594 15.824219 9.933594 15.761719 C 9.933594 15.710938 9.890625 15.667969 9.8125 15.632812 C 9.695312 15.578125 9.636719 15.492188 9.636719 15.375 C 9.636719 15.308594 9.65625 15.257812 9.695312 15.214844 C 9.734375 15.175781 9.785156 15.15625 9.84375 15.15625 C 9.972656 15.15625 10.039062 15.226562 10.039062 15.375 Z M 10.039062 15.375 "/>
<path style=" stroke:none;fill-rule:nonzero;fill:rgb(85.882353%,13.333333%,27.843137%);fill-opacity:1;" d="M 10.511719 15.167969 L 10.511719 15.242188 L 10.304688 15.242188 L 10.308594 15.464844 L 10.484375 15.464844 L 10.484375 15.539062 L 10.308594 15.539062 L 10.3125 15.828125 L 10.558594 15.828125 L 10.558594 15.902344 L 10.144531 15.902344 L 10.136719 15.167969 Z M 10.511719 15.167969 "/>
<path style=" stroke:none;fill-rule:nonzero;fill:rgb(85.882353%,13.333333%,27.843137%);fill-opacity:1;" d="M 10.613281 15.902344 L 10.601562 15.167969 L 10.851562 15.167969 C 10.914062 15.167969 10.96875 15.183594 11.007812 15.21875 C 11.046875 15.253906 11.066406 15.300781 11.070312 15.359375 C 11.070312 15.449219 11.03125 15.507812 10.949219 15.535156 C 10.992188 15.554688 11.019531 15.574219 11.035156 15.601562 C 11.046875 15.625 11.058594 15.671875 11.0625 15.738281 C 11.070312 15.824219 11.085938 15.878906 11.101562 15.902344 L 10.917969 15.902344 C 10.902344 15.871094 10.894531 15.828125 10.894531 15.777344 L 10.894531 15.734375 L 10.890625 15.675781 C 10.890625 15.59375 10.859375 15.550781 10.808594 15.550781 L 10.777344 15.550781 L 10.785156 15.902344 Z M 10.777344 15.488281 L 10.808594 15.488281 C 10.875 15.488281 10.90625 15.445312 10.902344 15.363281 C 10.902344 15.277344 10.867188 15.234375 10.804688 15.234375 L 10.769531 15.234375 Z M 10.777344 15.488281 "/>
<path style=" stroke:none;fill-rule:nonzero;fill:rgb(85.882353%,13.333333%,27.843137%);fill-opacity:1;" d="M 11.320312 15.167969 L 11.34375 15.902344 L 11.171875 15.902344 L 11.152344 15.167969 Z M 11.320312 15.167969 "/>
<path style=" stroke:none;fill-rule:nonzero;fill:rgb(85.882353%,13.333333%,27.843137%);fill-opacity:1;" d="M 11.796875 15.167969 L 11.796875 15.242188 L 11.59375 15.242188 L 11.601562 15.464844 L 11.777344 15.464844 L 11.777344 15.539062 L 11.601562 15.539062 L 11.613281 15.828125 L 11.859375 15.828125 L 11.863281 15.902344 L 11.445312 15.902344 L 11.421875 15.167969 Z M 11.796875 15.167969 "/>
<path style=" stroke:none;fill-rule:nonzero;fill:rgb(85.882353%,13.333333%,27.843137%);fill-opacity:1;" d="M 12.273438 15.375 L 12.195312 15.390625 C 12.199219 15.371094 12.199219 15.355469 12.199219 15.34375 C 12.195312 15.257812 12.152344 15.214844 12.070312 15.214844 C 12.003906 15.214844 11.972656 15.242188 11.976562 15.304688 C 11.980469 15.347656 12.015625 15.386719 12.089844 15.417969 C 12.234375 15.476562 12.308594 15.566406 12.316406 15.6875 C 12.320312 15.757812 12.300781 15.8125 12.265625 15.855469 C 12.226562 15.898438 12.175781 15.917969 12.109375 15.917969 C 11.964844 15.917969 11.886719 15.847656 11.882812 15.707031 C 11.882812 15.695312 11.882812 15.679688 11.882812 15.664062 L 11.960938 15.640625 C 11.957031 15.671875 11.957031 15.699219 11.957031 15.722656 C 11.960938 15.8125 12.003906 15.859375 12.089844 15.859375 C 12.15625 15.859375 12.1875 15.824219 12.183594 15.761719 C 12.183594 15.710938 12.140625 15.667969 12.058594 15.632812 C 11.941406 15.578125 11.878906 15.492188 11.875 15.375 C 11.871094 15.308594 11.886719 15.257812 11.925781 15.214844 C 11.960938 15.175781 12.007812 15.15625 12.070312 15.15625 C 12.199219 15.15625 12.265625 15.226562 12.273438 15.375 Z M 12.273438 15.375 "/>
<path style=" stroke:none;fill-rule:nonzero;fill:rgb(0%,0%,0%);fill-opacity:1;" d="M 6.042969 18.316406 L 6.160156 16.429688 L 6.816406 16.429688 C 7.191406 16.429688 7.371094 16.613281 7.355469 16.984375 C 7.339844 17.355469 7.121094 17.542969 6.699219 17.542969 L 6.542969 17.542969 L 6.5 18.316406 Z M 6.550781 17.367188 L 6.652344 17.367188 C 6.816406 17.367188 6.90625 17.238281 6.917969 16.972656 C 6.929688 16.726562 6.855469 16.601562 6.691406 16.601562 L 6.59375 16.601562 Z M 6.550781 17.367188 "/>
<path style=" stroke:none;fill-rule:nonzero;fill:rgb(0%,0%,0%);fill-opacity:1;" d="M 8.148438 16.394531 C 8.59375 16.394531 8.808594 16.71875 8.800781 17.371094 C 8.792969 18.023438 8.554688 18.347656 8.085938 18.347656 C 7.617188 18.347656 7.398438 18.015625 7.421875 17.347656 C 7.449219 16.710938 7.6875 16.394531 8.148438 16.394531 Z M 8.132812 16.542969 C 8.050781 16.542969 7.992188 16.601562 7.960938 16.714844 C 7.925781 16.828125 7.90625 17.046875 7.894531 17.371094 C 7.886719 17.695312 7.894531 17.914062 7.921875 18.027344 C 7.949219 18.140625 8.003906 18.199219 8.089844 18.199219 C 8.175781 18.199219 8.234375 18.140625 8.265625 18.027344 C 8.296875 17.914062 8.316406 17.695312 8.324219 17.371094 C 8.332031 17.050781 8.324219 16.832031 8.296875 16.714844 C 8.269531 16.601562 8.214844 16.542969 8.132812 16.542969 Z M 8.132812 16.542969 "/>
<path style=" stroke:none;fill-rule:nonzero;fill:rgb(0%,0%,0%);fill-opacity:1;" d="M 10.1875 16.429688 L 9.808594 17.023438 L 10.394531 18.316406 L 9.886719 18.316406 L 9.515625 17.488281 L 9.453125 17.578125 L 9.449219 18.316406 L 8.992188 18.316406 L 9.011719 16.429688 L 9.453125 16.429688 L 9.453125 17.269531 L 9.980469 16.429688 Z M 10.1875 16.429688 "/>
<path style=" stroke:none;fill-rule:nonzero;fill:rgb(0%,0%,0%);fill-opacity:1;" d="M 11.464844 16.429688 L 11.472656 16.617188 L 10.929688 16.617188 L 10.941406 17.1875 L 11.40625 17.1875 L 11.414062 17.378906 L 10.949219 17.378906 L 10.964844 18.128906 L 11.621094 18.128906 L 11.628906 18.316406 L 10.511719 18.316406 L 10.480469 16.429688 Z M 11.464844 16.429688 "/>
<path style=" stroke:none;fill-rule:nonzero;fill:rgb(0%,0%,0%);fill-opacity:1;" d="M 11.773438 18.316406 L 11.699219 16.429688 L 12.355469 16.429688 C 12.527344 16.429688 12.664062 16.472656 12.773438 16.5625 C 12.882812 16.652344 12.941406 16.769531 12.949219 16.917969 C 12.964844 17.148438 12.863281 17.296875 12.640625 17.367188 C 12.757812 17.417969 12.835938 17.476562 12.875 17.535156 C 12.914062 17.597656 12.941406 17.71875 12.964844 17.894531 C 12.992188 18.109375 13.03125 18.25 13.082031 18.316406 L 12.582031 18.316406 C 12.546875 18.230469 12.527344 18.121094 12.519531 17.988281 L 12.511719 17.878906 L 12.5 17.734375 C 12.488281 17.519531 12.410156 17.410156 12.265625 17.410156 L 12.191406 17.410156 L 12.234375 18.316406 Z M 12.183594 17.253906 L 12.273438 17.253906 C 12.445312 17.253906 12.523438 17.144531 12.511719 16.925781 C 12.5 16.710938 12.410156 16.601562 12.242188 16.601562 L 12.152344 16.601562 Z M 12.183594 17.253906 "/>
<path style=" stroke:none;fill-rule:nonzero;fill:rgb(0%,0%,0%);fill-opacity:1;" d="M 9.410156 15.980469 C 9.488281 15.980469 9.527344 16.035156 9.527344 16.152344 C 9.527344 16.269531 9.484375 16.328125 9.40625 16.328125 C 9.324219 16.328125 9.285156 16.269531 9.285156 16.148438 C 9.285156 16.035156 9.328125 15.980469 9.410156 15.980469 Z M 9.40625 16.007812 C 9.390625 16.007812 9.382812 16.015625 9.375 16.035156 C 9.371094 16.058594 9.367188 16.09375 9.367188 16.152344 C 9.367188 16.210938 9.371094 16.25 9.375 16.269531 C 9.382812 16.289062 9.390625 16.300781 9.40625 16.300781 C 9.421875 16.300781 9.429688 16.289062 9.433594 16.269531 C 9.441406 16.25 9.441406 16.210938 9.441406 16.152344 C 9.441406 16.097656 9.441406 16.058594 9.4375 16.035156 C 9.429688 16.015625 9.421875 16.007812 9.40625 16.007812 Z M 9.40625 16.007812 "/>
<path style=" stroke:none;fill-rule:nonzero;fill:rgb(0%,0%,0%);fill-opacity:1;" d="M 9.734375 15.984375 L 9.738281 16.019531 L 9.640625 16.019531 L 9.640625 16.132812 L 9.722656 16.132812 L 9.722656 16.164062 L 9.640625 16.164062 L 9.640625 16.320312 L 9.5625 16.320312 L 9.5625 15.984375 Z M 9.734375 15.984375 "/>
</g>
</svg>
