<?xml version="1.0" encoding="UTF-8"?>
<svg xmlns="http://www.w3.org/2000/svg" xmlns:xlink="http://www.w3.org/1999/xlink" width="25pt" height="25pt" viewBox="0 0 25 25" version="1.1">
<g id="surface1">
<path style=" stroke:none;fill-rule:nonzero;fill:rgb(0%,0%,0%);fill-opacity:1;" d="M 13.167969 24.898438 C 11.722656 24.898438 10.347656 24.660156 9.074219 24.1875 C 8.460938 23.960938 7.871094 23.679688 7.328125 23.351562 C 6.785156 23.027344 6.28125 22.652344 5.824219 22.242188 C 5.367188 21.832031 4.957031 21.378906 4.597656 20.894531 C 4.238281 20.40625 3.929688 19.886719 3.683594 19.34375 C 3.171875 18.222656 2.910156 17.027344 2.910156 15.78125 C 2.910156 15.753906 2.910156 15.6875 2.910156 15.597656 C 2.90625 15.253906 2.894531 14.539062 2.910156 14.226562 C 2.972656 12.992188 3.292969 11.800781 3.867188 10.675781 C 4.140625 10.132812 4.476562 9.613281 4.855469 9.125 C 5.234375 8.644531 5.664062 8.191406 6.128906 7.777344 C 6.597656 7.367188 7.105469 6.992188 7.644531 6.667969 C 8.191406 6.335938 8.769531 6.054688 9.363281 5.828125 C 10.605469 5.351562 11.910156 5.113281 13.242188 5.113281 C 14.574219 5.113281 15.875 5.351562 17.113281 5.828125 C 17.707031 6.054688 18.28125 6.335938 18.824219 6.667969 C 19.359375 6.992188 19.867188 7.367188 20.332031 7.777344 C 20.796875 8.191406 21.222656 8.644531 21.59375 9.125 C 21.972656 9.613281 22.300781 10.132812 22.570312 10.675781 C 23.132812 11.800781 23.445312 12.996094 23.496094 14.226562 C 23.507812 14.519531 23.503906 15.203125 23.5 15.570312 C 23.496094 15.671875 23.496094 15.746094 23.496094 15.78125 C 23.496094 17.019531 23.234375 18.21875 22.714844 19.335938 C 22.460938 19.878906 22.148438 20.402344 21.785156 20.886719 C 21.421875 21.371094 21.003906 21.824219 20.546875 22.234375 C 20.082031 22.648438 19.574219 23.023438 19.03125 23.347656 C 18.480469 23.675781 17.886719 23.957031 17.269531 24.183594 C 15.988281 24.660156 14.609375 24.898438 13.167969 24.898438 Z M 13.167969 24.898438 "/>
<path style=" stroke:none;fill-rule:nonzero;fill:rgb(0%,0%,0%);fill-opacity:1;" d="M 13.242188 5.210938 C 18.640625 5.210938 23.1875 9.25 23.394531 14.230469 C 23.410156 14.601562 23.394531 15.628906 23.394531 15.78125 C 23.394531 20.769531 19.023438 24.796875 13.167969 24.796875 C 7.308594 24.796875 3.011719 20.789062 3.011719 15.78125 C 3.011719 15.648438 2.992188 14.625 3.011719 14.230469 C 3.261719 9.25 7.84375 5.210938 13.242188 5.210938 M 13.242188 5.011719 C 12.566406 5.011719 11.886719 5.074219 11.226562 5.195312 C 10.582031 5.316406 9.941406 5.496094 9.328125 5.730469 C 8.726562 5.960938 8.144531 6.246094 7.59375 6.578125 C 7.050781 6.910156 6.535156 7.285156 6.0625 7.703125 C 5.589844 8.117188 5.15625 8.578125 4.777344 9.0625 C 4.390625 9.554688 4.054688 10.082031 3.777344 10.628906 C 3.492188 11.183594 3.269531 11.765625 3.105469 12.359375 C 2.941406 12.96875 2.84375 13.59375 2.808594 14.21875 C 2.792969 14.539062 2.804688 15.257812 2.808594 15.601562 C 2.808594 15.6875 2.808594 15.753906 2.808594 15.78125 C 2.808594 16.410156 2.878906 17.039062 3.011719 17.648438 C 3.140625 18.246094 3.335938 18.828125 3.589844 19.386719 C 3.84375 19.933594 4.152344 20.460938 4.519531 20.953125 C 4.878906 21.441406 5.296875 21.902344 5.757812 22.316406 C 6.21875 22.734375 6.730469 23.109375 7.273438 23.4375 C 7.828125 23.769531 8.417969 24.054688 9.039062 24.28125 C 9.667969 24.515625 10.332031 24.695312 11.011719 24.816406 C 11.710938 24.9375 12.433594 25 13.167969 25 C 13.898438 25 14.625 24.9375 15.324219 24.8125 C 16.003906 24.695312 16.671875 24.515625 17.304688 24.28125 C 17.929688 24.050781 18.527344 23.765625 19.082031 23.433594 C 19.632812 23.105469 20.144531 22.726562 20.613281 22.3125 C 21.078125 21.894531 21.5 21.4375 21.867188 20.945312 C 22.234375 20.457031 22.550781 19.929688 22.804688 19.378906 C 23.0625 18.824219 23.261719 18.238281 23.394531 17.644531 C 23.53125 17.035156 23.597656 16.410156 23.597656 15.78125 C 23.597656 15.746094 23.597656 15.671875 23.601562 15.570312 C 23.605469 15.203125 23.609375 14.515625 23.597656 14.222656 C 23.570312 13.59375 23.476562 12.96875 23.316406 12.359375 C 23.160156 11.769531 22.941406 11.1875 22.660156 10.628906 C 22.386719 10.082031 22.054688 9.558594 21.675781 9.0625 C 21.296875 8.578125 20.867188 8.117188 20.398438 7.703125 C 19.929688 7.285156 19.417969 6.910156 18.878906 6.578125 C 18.332031 6.246094 17.75 5.960938 17.148438 5.730469 C 16.539062 5.496094 15.902344 5.316406 15.257812 5.195312 C 14.59375 5.074219 13.917969 5.011719 13.242188 5.011719 Z M 13.242188 5.011719 "/>
<path style=" stroke:none;fill-rule:nonzero;fill:rgb(100%,100%,100%);fill-opacity:1;" d="M 3.367188 16.957031 L 3.367188 18.222656 C 3.765625 19.550781 4.488281 20.753906 5.464844 21.757812 L 5.464844 20.296875 Z M 3.367188 16.957031 "/>
<path style=" stroke:none;fill-rule:nonzero;fill:rgb(100%,100%,100%);fill-opacity:1;" d="M 6.324219 17.683594 C 5.425781 16.242188 5.050781 16.125 5.050781 16.125 L 3.367188 16.957031 C 3.773438 18.210938 4.496094 19.347656 5.464844 20.296875 L 7.148438 19.472656 C 7.148438 19.472656 7.234375 19.125 6.324219 17.683594 Z M 6.324219 17.683594 "/>
<path style=" stroke:none;fill-rule:nonzero;fill:rgb(100%,100%,100%);fill-opacity:1;" d="M 19.902344 10.761719 C 20.871094 12.203125 21.246094 12.320312 21.246094 12.320312 L 22.824219 11.492188 C 22.335938 10.234375 21.558594 9.09375 20.574219 8.140625 L 19.007812 8.972656 C 19.007812 8.972656 18.941406 9.320312 19.902344 10.761719 Z M 19.902344 10.761719 "/>
<path style=" stroke:none;fill-rule:nonzero;fill:rgb(100%,100%,100%);fill-opacity:1;" d="M 6.5625 10.777344 C 7.535156 9.335938 7.472656 8.988281 7.472656 8.988281 L 5.886719 8.140625 C 4.890625 9.089844 4.109375 10.230469 3.609375 11.492188 L 5.203125 12.335938 C 5.203125 12.335938 5.582031 12.21875 6.5625 10.777344 Z M 6.5625 10.777344 "/>
<path style=" stroke:none;fill-rule:nonzero;fill:rgb(100%,100%,100%);fill-opacity:1;" d="M 20.890625 20.296875 L 20.890625 21.765625 C 21.875 20.773438 22.605469 19.585938 23.015625 18.273438 L 23.015625 16.957031 Z M 20.890625 20.296875 "/>
<path style=" stroke:none;fill-rule:nonzero;fill:rgb(100%,100%,100%);fill-opacity:1;" d="M 23.015625 16.957031 L 21.34375 16.125 C 21.34375 16.125 20.96875 16.242188 20.054688 17.683594 C 19.132812 19.125 19.214844 19.472656 19.214844 19.472656 L 20.890625 20.296875 C 21.867188 19.347656 22.601562 18.210938 23.015625 16.957031 Z M 23.015625 16.957031 "/>
<path style=" stroke:none;fill-rule:nonzero;fill:rgb(100%,100%,100%);fill-opacity:1;" d="M 10.894531 23.039062 L 10.894531 24.589844 C 11.621094 24.726562 12.378906 24.796875 13.167969 24.796875 C 13.953125 24.796875 14.710938 24.726562 15.4375 24.585938 L 15.4375 23.039062 Z M 10.894531 23.039062 "/>
<path style=" stroke:none;fill-rule:nonzero;fill:rgb(100%,100%,100%);fill-opacity:1;" d="M 13.175781 21.136719 C 11.234375 21.136719 10.917969 21.367188 10.917969 21.367188 L 10.894531 23.039062 C 11.625 23.175781 12.382812 23.246094 13.167969 23.246094 C 13.949219 23.246094 14.710938 23.175781 15.4375 23.039062 L 15.429688 21.367188 C 15.429688 21.367188 15.117188 21.136719 13.175781 21.136719 Z M 13.175781 21.136719 "/>
<path style=" stroke:none;fill-rule:nonzero;fill:rgb(100%,100%,100%);fill-opacity:1;" d="M 13.234375 7.324219 C 15.054688 7.324219 15.347656 7.09375 15.347656 7.09375 L 15.339844 5.417969 C 14.660156 5.285156 13.957031 5.210938 13.242188 5.210938 C 12.523438 5.210938 11.824219 5.285156 11.144531 5.417969 L 11.121094 7.09375 C 11.121094 7.09375 11.410156 7.324219 13.234375 7.324219 Z M 13.234375 7.324219 "/>
<path style=" stroke:none;fill-rule:nonzero;fill:rgb(100%,100%,100%);fill-opacity:1;" d="M 13.183594 20.730469 C 13.003906 20.730469 12.820312 20.726562 12.640625 20.714844 C 12.550781 20.710938 12.460938 20.703125 12.367188 20.695312 L 12.445312 20.125 C 12.527344 20.132812 12.609375 20.140625 12.691406 20.144531 C 12.855469 20.15625 13.023438 20.160156 13.1875 20.160156 C 13.429688 20.160156 13.675781 20.148438 13.914062 20.128906 L 13.984375 20.695312 C 13.71875 20.71875 13.453125 20.730469 13.183594 20.730469 Z M 15.5625 20.40625 L 15.351562 19.863281 C 15.8125 19.734375 16.265625 19.558594 16.691406 19.347656 L 16.691406 19.34375 L 17.027344 19.84375 L 16.859375 19.59375 L 17.027344 19.84375 L 17.027344 19.839844 L 17.027344 19.84375 C 16.5625 20.074219 16.070312 20.265625 15.5625 20.40625 Z M 10.792969 20.40625 C 10.453125 20.308594 10.117188 20.195312 9.796875 20.058594 C 9.640625 19.992188 9.484375 19.917969 9.332031 19.84375 L 9.671875 19.347656 C 9.8125 19.417969 9.953125 19.484375 10.097656 19.542969 C 10.390625 19.667969 10.695312 19.773438 11.007812 19.863281 Z M 8.050781 19.027344 C 7.664062 18.71875 7.3125 18.371094 7.011719 17.996094 L 7.554688 17.660156 C 7.832031 18.003906 8.148438 18.320312 8.503906 18.601562 Z M 18.316406 19.027344 L 17.867188 18.601562 C 18.191406 18.347656 18.488281 18.0625 18.746094 17.753906 C 18.773438 17.722656 18.800781 17.691406 18.824219 17.660156 L 19.367188 17.996094 C 19.335938 18.03125 19.308594 18.066406 19.277344 18.101562 C 18.996094 18.433594 18.671875 18.746094 18.316406 19.027344 Z M 6.257812 16.796875 C 6.054688 16.371094 5.90625 15.929688 5.8125 15.476562 L 6.453125 15.355469 C 6.539062 15.769531 6.675781 16.175781 6.863281 16.5625 Z M 20.128906 16.792969 L 19.523438 16.5625 C 19.664062 16.273438 19.777344 15.96875 19.863281 15.664062 C 19.890625 15.5625 19.917969 15.457031 19.941406 15.355469 L 20.582031 15.472656 C 20.554688 15.585938 20.527344 15.699219 20.496094 15.8125 C 20.40625 16.148438 20.28125 16.476562 20.128906 16.792969 Z M 6.347656 14.097656 L 5.703125 14.097656 C 5.707031 13.941406 5.71875 13.789062 5.738281 13.636719 C 5.773438 13.328125 5.835938 13.019531 5.917969 12.714844 L 6.542969 12.835938 C 6.46875 13.113281 6.414062 13.394531 6.382812 13.675781 C 6.367188 13.816406 6.355469 13.957031 6.347656 14.097656 Z M 20.707031 14.09375 L 20.058594 14.09375 L 20.058594 14.085938 C 20.050781 13.839844 20.027344 13.589844 19.988281 13.34375 C 19.957031 13.171875 19.921875 13 19.875 12.832031 L 20.503906 12.714844 C 20.550781 12.898438 20.59375 13.085938 20.625 13.273438 C 20.671875 13.542969 20.699219 13.816406 20.707031 14.085938 Z M 7.023438 11.628906 L 6.445312 11.398438 C 6.484375 11.324219 6.523438 11.253906 6.566406 11.183594 C 6.765625 10.835938 6.996094 10.503906 7.257812 10.195312 L 7.761719 10.53125 C 7.523438 10.8125 7.3125 11.117188 7.132812 11.433594 C 7.09375 11.496094 7.058594 11.5625 7.023438 11.628906 Z M 19.40625 11.628906 C 19.304688 11.4375 19.191406 11.246094 19.070312 11.0625 C 18.949219 10.878906 18.8125 10.699219 18.671875 10.53125 L 19.179688 10.195312 C 19.335938 10.378906 19.480469 10.574219 19.617188 10.777344 C 19.75 10.976562 19.875 11.183594 19.984375 11.394531 Z M 8.730469 9.589844 L 8.316406 9.164062 C 8.703125 8.855469 9.125 8.582031 9.574219 8.347656 L 9.878906 8.84375 C 9.46875 9.058594 9.082031 9.308594 8.730469 9.589844 Z M 17.714844 9.585938 C 17.574219 9.472656 17.421875 9.363281 17.269531 9.257812 C 17.046875 9.109375 16.8125 8.96875 16.570312 8.84375 L 16.878906 8.347656 C 17.144531 8.484375 17.402344 8.636719 17.644531 8.800781 C 17.8125 8.914062 17.976562 9.035156 18.132812 9.160156 Z M 15.289062 8.328125 C 15.179688 8.296875 15.066406 8.265625 14.957031 8.238281 C 14.617188 8.15625 14.269531 8.097656 13.925781 8.0625 L 13.992188 7.496094 C 14.371094 7.53125 14.746094 7.597656 15.117188 7.683594 C 15.238281 7.714844 15.359375 7.75 15.480469 7.785156 Z M 11.164062 8.328125 L 10.976562 7.78125 C 11.417969 7.652344 11.871094 7.558594 12.332031 7.507812 C 12.375 7.503906 12.421875 7.5 12.46875 7.492188 L 12.53125 8.0625 C 12.488281 8.066406 12.445312 8.070312 12.402344 8.078125 C 11.984375 8.125 11.566406 8.207031 11.164062 8.328125 Z M 11.164062 8.328125 "/>
<path style=" stroke:none;fill-rule:nonzero;fill:rgb(100%,100%,100%);fill-opacity:1;" d="M 13.179688 19.605469 C 12.304688 19.605469 11.460938 19.457031 10.671875 19.167969 C 10.292969 19.027344 9.929688 18.855469 9.589844 18.652344 C 9.253906 18.453125 8.9375 18.222656 8.652344 17.972656 C 8.367188 17.71875 8.109375 17.4375 7.886719 17.144531 C 7.667969 16.84375 7.476562 16.527344 7.328125 16.199219 C 7.019531 15.511719 6.875 14.78125 6.902344 14.027344 C 6.925781 13.273438 7.113281 12.542969 7.460938 11.859375 C 7.625 11.527344 7.828125 11.210938 8.0625 10.914062 C 8.292969 10.617188 8.554688 10.339844 8.84375 10.085938 C 9.128906 9.832031 9.445312 9.601562 9.777344 9.402344 C 10.109375 9.199219 10.464844 9.027344 10.832031 8.886719 C 11.589844 8.597656 12.394531 8.453125 13.226562 8.453125 C 14.058594 8.453125 14.863281 8.597656 15.621094 8.886719 C 15.984375 9.027344 16.339844 9.199219 16.671875 9.402344 C 17 9.601562 17.3125 9.832031 17.597656 10.085938 C 17.882812 10.339844 18.144531 10.617188 18.371094 10.914062 C 18.601562 11.210938 18.800781 11.527344 18.964844 11.859375 C 19.304688 12.542969 19.488281 13.273438 19.507812 14.027344 C 19.523438 14.78125 19.375 15.511719 19.0625 16.199219 C 18.910156 16.527344 18.71875 16.84375 18.492188 17.144531 C 18.269531 17.4375 18.011719 17.71875 17.722656 17.972656 C 17.4375 18.222656 17.117188 18.453125 16.78125 18.652344 C 16.4375 18.855469 16.070312 19.027344 15.691406 19.167969 C 14.898438 19.457031 14.054688 19.605469 13.179688 19.605469 Z M 13.179688 19.605469 "/>
<path style=" stroke:none;fill-rule:nonzero;fill:rgb(0%,0%,0%);fill-opacity:0.2;" d="M 23.402344 14.617188 C 23.367188 19.417969 18.871094 23.246094 13.167969 23.246094 C 7.515625 23.246094 3.082031 19.488281 3.003906 14.753906 C 3.003906 15.191406 3.011719 15.691406 3.011719 15.78125 C 3.011719 20.789062 7.308594 24.796875 13.167969 24.796875 C 19.023438 24.796875 23.394531 20.769531 23.394531 15.78125 C 23.394531 15.667969 23.40625 15.070312 23.402344 14.617188 Z M 23.402344 14.617188 "/>
<path style=" stroke:none;fill-rule:nonzero;fill:rgb(100%,100%,100%);fill-opacity:0.501961;" d="M 23.402344 14.617188 C 23.367188 19.417969 18.871094 23.246094 13.167969 23.246094 C 7.515625 23.246094 3.082031 19.488281 3.003906 14.753906 C 3.003906 15.191406 3.011719 15.367188 3.011719 15.644531 C 3.011719 16.070312 3.359375 18.394531 5.464844 20.570312 C 6.96875 22.121094 9.363281 23.515625 13.167969 23.515625 C 16.964844 23.515625 19.375 22.121094 20.890625 20.570312 C 23.023438 18.394531 23.394531 15.992188 23.394531 15.417969 C 23.394531 15.054688 23.40625 15.070312 23.402344 14.617188 Z M 23.402344 14.617188 "/>
<path style=" stroke:none;fill-rule:nonzero;fill:rgb(0%,0%,0%);fill-opacity:0.301961;" d="M 13.242188 5.011719 C 12.566406 5.011719 11.886719 5.074219 11.226562 5.195312 C 10.582031 5.316406 9.941406 5.496094 9.328125 5.730469 C 8.726562 5.960938 8.144531 6.246094 7.59375 6.578125 C 7.050781 6.910156 6.535156 7.285156 6.0625 7.703125 C 5.589844 8.117188 5.15625 8.578125 4.777344 9.0625 C 4.390625 9.554688 4.054688 10.082031 3.777344 10.628906 C 3.492188 11.183594 3.269531 11.765625 3.105469 12.359375 C 2.941406 12.96875 2.84375 13.59375 2.808594 14.21875 C 2.792969 14.539062 2.804688 15.257812 2.808594 15.601562 C 2.808594 15.6875 2.808594 15.753906 2.808594 15.78125 C 2.808594 16.410156 2.878906 17.039062 3.011719 17.648438 C 3.140625 18.246094 3.335938 18.828125 3.589844 19.386719 C 3.84375 19.933594 4.152344 20.460938 4.519531 20.953125 C 4.878906 21.441406 5.296875 21.902344 5.757812 22.316406 C 6.21875 22.734375 6.730469 23.109375 7.273438 23.4375 C 7.828125 23.769531 8.417969 24.054688 9.039062 24.28125 C 9.667969 24.515625 10.332031 24.695312 11.011719 24.816406 C 11.710938 24.9375 12.433594 25 13.167969 25 C 13.898438 25 14.625 24.9375 15.324219 24.8125 C 16.003906 24.695312 16.671875 24.515625 17.304688 24.28125 C 17.929688 24.050781 18.527344 23.765625 19.082031 23.433594 C 19.632812 23.105469 20.144531 22.726562 20.613281 22.3125 C 21.078125 21.894531 21.5 21.4375 21.867188 20.945312 C 22.234375 20.457031 22.550781 19.929688 22.804688 19.378906 C 23.0625 18.824219 23.261719 18.238281 23.394531 17.644531 C 23.53125 17.035156 23.597656 16.410156 23.597656 15.78125 C 23.597656 15.746094 23.597656 15.671875 23.601562 15.570312 C 23.605469 15.203125 23.609375 14.515625 23.597656 14.222656 C 23.570312 13.59375 23.476562 12.96875 23.316406 12.359375 C 23.160156 11.769531 22.941406 11.1875 22.660156 10.628906 C 22.386719 10.082031 22.054688 9.558594 21.675781 9.0625 C 21.296875 8.578125 20.867188 8.117188 20.398438 7.703125 C 19.929688 7.285156 19.417969 6.910156 18.878906 6.578125 C 18.332031 6.246094 17.75 5.960938 17.148438 5.730469 C 16.539062 5.496094 15.902344 5.316406 15.257812 5.195312 C 14.59375 5.074219 13.917969 5.011719 13.242188 5.011719 Z M 13.242188 5.011719 "/>
<path style=" stroke:none;fill-rule:nonzero;fill:rgb(0%,0%,0%);fill-opacity:1;" d="M 11.761719 22.933594 C 10.316406 22.933594 8.941406 22.695312 7.667969 22.222656 C 7.054688 21.996094 6.464844 21.714844 5.921875 21.386719 C 5.378906 21.0625 4.875 20.6875 4.417969 20.277344 C 3.960938 19.863281 3.550781 19.410156 3.191406 18.929688 C 2.832031 18.441406 2.523438 17.921875 2.277344 17.378906 C 1.765625 16.257812 1.503906 15.058594 1.503906 13.816406 C 1.503906 13.789062 1.503906 13.722656 1.503906 13.632812 C 1.5 13.289062 1.488281 12.574219 1.503906 12.257812 C 1.566406 11.027344 1.886719 9.832031 2.460938 8.707031 C 2.734375 8.167969 3.070312 7.648438 3.449219 7.160156 C 3.828125 6.679688 4.253906 6.222656 4.722656 5.8125 C 5.191406 5.398438 5.699219 5.027344 6.238281 4.699219 C 6.785156 4.371094 7.363281 4.089844 7.957031 3.859375 C 9.199219 3.386719 10.503906 3.144531 11.835938 3.144531 C 13.167969 3.144531 14.46875 3.386719 15.707031 3.859375 C 16.300781 4.089844 16.875 4.371094 17.417969 4.699219 C 17.953125 5.027344 18.460938 5.398438 18.925781 5.8125 C 19.390625 6.226562 19.816406 6.679688 20.1875 7.160156 C 20.566406 7.648438 20.894531 8.167969 21.164062 8.710938 C 21.726562 9.832031 22.039062 11.027344 22.089844 12.261719 C 22.101562 12.550781 22.097656 13.238281 22.09375 13.605469 C 22.089844 13.707031 22.089844 13.78125 22.089844 13.816406 C 22.089844 15.054688 21.828125 16.25 21.308594 17.371094 C 21.054688 17.914062 20.742188 18.433594 20.378906 18.921875 C 20.015625 19.40625 19.601562 19.859375 19.140625 20.269531 C 18.675781 20.683594 18.167969 21.054688 17.625 21.382812 C 17.074219 21.710938 16.480469 21.992188 15.863281 22.21875 C 14.582031 22.691406 13.203125 22.933594 11.761719 22.933594 Z M 11.761719 22.933594 "/>
<path style=" stroke:none;fill-rule:nonzero;fill:rgb(0%,0%,0%);fill-opacity:1;" d="M 11.835938 3.246094 C 17.234375 3.246094 21.78125 7.285156 21.988281 12.265625 C 22.003906 12.632812 21.988281 13.660156 21.988281 13.816406 C 21.988281 18.804688 17.617188 22.832031 11.761719 22.832031 C 5.902344 22.832031 1.605469 18.820312 1.605469 13.816406 C 1.605469 13.683594 1.585938 12.65625 1.605469 12.265625 C 1.855469 7.285156 6.4375 3.246094 11.835938 3.246094 M 11.835938 3.042969 C 11.160156 3.042969 10.480469 3.105469 9.820312 3.230469 C 9.171875 3.351562 8.535156 3.53125 7.921875 3.765625 C 7.320312 3.996094 6.738281 4.28125 6.1875 4.613281 C 5.644531 4.941406 5.128906 5.320312 4.65625 5.734375 C 4.183594 6.152344 3.75 6.609375 3.371094 7.097656 C 2.984375 7.589844 2.648438 8.117188 2.371094 8.664062 C 2.085938 9.21875 1.863281 9.800781 1.699219 10.394531 C 1.535156 11 1.4375 11.628906 1.402344 12.253906 C 1.386719 12.574219 1.398438 13.289062 1.402344 13.632812 C 1.402344 13.722656 1.402344 13.789062 1.402344 13.816406 C 1.402344 14.445312 1.472656 15.074219 1.605469 15.683594 C 1.734375 16.277344 1.929688 16.863281 2.183594 17.417969 C 2.4375 17.96875 2.746094 18.496094 3.113281 18.988281 C 3.472656 19.476562 3.890625 19.933594 4.351562 20.351562 C 4.8125 20.765625 5.324219 21.144531 5.867188 21.472656 C 6.421875 21.804688 7.011719 22.085938 7.632812 22.316406 C 8.261719 22.550781 8.925781 22.730469 9.605469 22.847656 C 10.304688 22.972656 11.027344 23.035156 11.761719 23.035156 C 12.492188 23.035156 13.21875 22.972656 13.917969 22.847656 C 14.597656 22.726562 15.265625 22.546875 15.898438 22.3125 C 16.523438 22.085938 17.121094 21.800781 17.675781 21.46875 C 18.226562 21.140625 18.738281 20.761719 19.207031 20.34375 C 19.671875 19.929688 20.09375 19.46875 20.460938 18.980469 C 20.828125 18.488281 21.144531 17.960938 21.398438 17.414062 C 21.65625 16.855469 21.855469 16.273438 21.988281 15.679688 C 22.125 15.070312 22.191406 14.445312 22.191406 13.816406 C 22.191406 13.78125 22.191406 13.703125 22.195312 13.605469 C 22.199219 13.238281 22.203125 12.550781 22.191406 12.253906 C 22.164062 11.628906 22.070312 11.003906 21.910156 10.394531 C 21.753906 9.804688 21.535156 9.21875 21.253906 8.664062 C 20.980469 8.117188 20.648438 7.589844 20.269531 7.097656 C 19.890625 6.609375 19.460938 6.152344 18.992188 5.738281 C 18.523438 5.320312 18.011719 4.941406 17.472656 4.613281 C 16.925781 4.28125 16.34375 3.996094 15.742188 3.765625 C 15.132812 3.53125 14.496094 3.351562 13.851562 3.230469 C 13.1875 3.105469 12.511719 3.042969 11.835938 3.042969 Z M 11.835938 3.042969 "/>
<path style=" stroke:none;fill-rule:nonzero;fill:rgb(100%,100%,100%);fill-opacity:1;" d="M 1.960938 14.988281 L 1.960938 16.257812 C 2.359375 17.585938 3.082031 18.789062 4.058594 19.789062 L 4.058594 18.328125 Z M 1.960938 14.988281 "/>
<path style=" stroke:none;fill-rule:nonzero;fill:rgb(100%,100%,100%);fill-opacity:1;" d="M 4.917969 15.71875 C 4.019531 14.273438 3.644531 14.15625 3.644531 14.15625 L 1.960938 14.988281 C 2.367188 16.242188 3.089844 17.378906 4.058594 18.328125 L 5.742188 17.503906 C 5.742188 17.503906 5.828125 17.160156 4.917969 15.71875 Z M 4.917969 15.71875 "/>
<path style=" stroke:none;fill-rule:nonzero;fill:rgb(100%,100%,100%);fill-opacity:1;" d="M 18.496094 8.796875 C 19.464844 10.238281 19.839844 10.355469 19.839844 10.355469 L 21.417969 9.527344 C 20.929688 8.265625 20.152344 7.125 19.167969 6.175781 L 17.601562 7.007812 C 17.601562 7.007812 17.535156 7.355469 18.496094 8.796875 Z M 18.496094 8.796875 "/>
<path style=" stroke:none;fill-rule:nonzero;fill:rgb(100%,100%,100%);fill-opacity:1;" d="M 5.15625 8.8125 C 6.128906 7.367188 6.066406 7.023438 6.066406 7.023438 L 4.480469 6.171875 C 3.484375 7.125 2.703125 8.265625 2.203125 9.527344 L 3.796875 10.371094 C 3.796875 10.371094 4.175781 10.253906 5.15625 8.8125 Z M 5.15625 8.8125 "/>
<path style=" stroke:none;fill-rule:nonzero;fill:rgb(100%,100%,100%);fill-opacity:1;" d="M 19.484375 18.332031 L 19.484375 19.800781 C 20.46875 18.808594 21.199219 17.617188 21.609375 16.304688 L 21.609375 14.988281 Z M 19.484375 18.332031 "/>
<path style=" stroke:none;fill-rule:nonzero;fill:rgb(100%,100%,100%);fill-opacity:1;" d="M 21.609375 14.988281 L 19.9375 14.160156 C 19.9375 14.160156 19.5625 14.273438 18.648438 15.71875 C 17.726562 17.160156 17.808594 17.503906 17.808594 17.503906 L 19.484375 18.332031 C 20.460938 17.378906 21.195312 16.242188 21.609375 14.988281 Z M 21.609375 14.988281 "/>
<path style=" stroke:none;fill-rule:nonzero;fill:rgb(100%,100%,100%);fill-opacity:1;" d="M 9.488281 21.074219 L 9.488281 22.621094 C 10.214844 22.757812 10.972656 22.832031 11.761719 22.832031 C 12.546875 22.832031 13.304688 22.757812 14.03125 22.621094 L 14.03125 21.074219 Z M 9.488281 21.074219 "/>
<path style=" stroke:none;fill-rule:nonzero;fill:rgb(100%,100%,100%);fill-opacity:1;" d="M 11.769531 19.171875 C 9.828125 19.171875 9.511719 19.398438 9.511719 19.398438 L 9.488281 21.074219 C 10.21875 21.210938 10.976562 21.28125 11.761719 21.28125 C 12.542969 21.28125 13.304688 21.210938 14.03125 21.074219 L 14.023438 19.398438 C 14.023438 19.398438 13.710938 19.171875 11.769531 19.171875 Z M 11.769531 19.171875 "/>
<path style=" stroke:none;fill-rule:nonzero;fill:rgb(100%,100%,100%);fill-opacity:1;" d="M 11.828125 5.355469 C 13.648438 5.355469 13.941406 5.128906 13.941406 5.128906 L 13.933594 3.453125 C 13.253906 3.316406 12.550781 3.246094 11.835938 3.246094 C 11.117188 3.246094 10.417969 3.316406 9.738281 3.453125 L 9.714844 5.128906 C 9.714844 5.128906 10.003906 5.355469 11.828125 5.355469 Z M 11.828125 5.355469 "/>
<path style=" stroke:none;fill-rule:nonzero;fill:rgb(100%,100%,100%);fill-opacity:1;" d="M 11.777344 18.765625 C 11.597656 18.765625 11.414062 18.761719 11.234375 18.75 C 11.144531 18.746094 11.054688 18.738281 10.960938 18.730469 L 11.039062 18.160156 C 11.121094 18.167969 11.203125 18.171875 11.285156 18.179688 C 11.449219 18.1875 11.617188 18.195312 11.78125 18.195312 C 12.023438 18.195312 12.269531 18.183594 12.507812 18.160156 L 12.578125 18.730469 C 12.3125 18.753906 12.046875 18.765625 11.777344 18.765625 Z M 14.15625 18.441406 L 13.945312 17.898438 C 14.410156 17.769531 14.859375 17.59375 15.285156 17.378906 L 15.621094 17.875 L 15.453125 17.628906 L 15.621094 17.875 C 15.15625 18.109375 14.664062 18.300781 14.15625 18.441406 Z M 9.386719 18.441406 C 9.046875 18.34375 8.710938 18.226562 8.390625 18.09375 C 8.234375 18.027344 8.078125 17.953125 7.925781 17.878906 L 8.265625 17.382812 C 8.40625 17.449219 8.546875 17.515625 8.691406 17.578125 C 8.984375 17.699219 9.289062 17.808594 9.601562 17.894531 Z M 6.644531 17.0625 C 6.257812 16.753906 5.90625 16.40625 5.605469 16.03125 L 6.148438 15.695312 C 6.425781 16.039062 6.742188 16.355469 7.097656 16.636719 Z M 16.910156 17.0625 L 16.460938 16.636719 C 16.785156 16.378906 17.082031 16.09375 17.339844 15.789062 C 17.367188 15.757812 17.394531 15.726562 17.417969 15.695312 L 17.960938 16.03125 C 17.929688 16.066406 17.902344 16.101562 17.871094 16.132812 C 17.589844 16.46875 17.265625 16.78125 16.910156 17.0625 Z M 4.851562 14.828125 C 4.648438 14.40625 4.5 13.960938 4.40625 13.511719 L 5.046875 13.390625 C 5.132812 13.804688 5.269531 14.207031 5.457031 14.59375 Z M 18.722656 14.828125 L 18.117188 14.59375 C 18.257812 14.304688 18.371094 14.003906 18.457031 13.699219 C 18.484375 13.597656 18.511719 13.492188 18.535156 13.386719 L 19.175781 13.507812 C 19.148438 13.621094 19.121094 13.734375 19.089844 13.847656 C 19 14.179688 18.875 14.511719 18.722656 14.828125 Z M 4.941406 12.128906 L 4.296875 12.128906 C 4.300781 11.976562 4.3125 11.820312 4.332031 11.667969 C 4.367188 11.363281 4.429688 11.054688 4.511719 10.75 L 5.136719 10.871094 C 5.0625 11.144531 5.007812 11.429688 4.976562 11.710938 C 4.960938 11.847656 4.949219 11.992188 4.941406 12.128906 Z M 19.300781 12.128906 L 18.652344 12.125 L 18.652344 12.121094 C 18.644531 11.871094 18.621094 11.621094 18.582031 11.378906 C 18.550781 11.207031 18.515625 11.035156 18.46875 10.867188 L 19.097656 10.746094 C 19.144531 10.933594 19.1875 11.121094 19.21875 11.308594 C 19.265625 11.574219 19.292969 11.847656 19.300781 12.121094 Z M 5.617188 9.664062 L 5.039062 9.429688 C 5.078125 9.359375 5.117188 9.289062 5.160156 9.21875 C 5.359375 8.871094 5.589844 8.539062 5.851562 8.226562 L 6.355469 8.5625 C 6.117188 8.847656 5.90625 9.152344 5.726562 9.46875 C 5.6875 9.53125 5.652344 9.597656 5.617188 9.664062 Z M 18 9.664062 C 17.898438 9.472656 17.785156 9.28125 17.664062 9.097656 C 17.542969 8.914062 17.40625 8.734375 17.265625 8.5625 L 17.773438 8.226562 C 17.929688 8.414062 18.074219 8.609375 18.210938 8.8125 C 18.34375 9.011719 18.46875 9.21875 18.578125 9.429688 Z M 7.324219 7.621094 L 6.910156 7.195312 C 7.296875 6.890625 7.71875 6.617188 8.167969 6.382812 L 8.472656 6.878906 C 8.0625 7.09375 7.675781 7.34375 7.324219 7.621094 Z M 16.308594 7.621094 C 16.167969 7.507812 16.015625 7.394531 15.863281 7.292969 C 15.640625 7.140625 15.40625 7.003906 15.164062 6.875 L 15.472656 6.378906 C 15.738281 6.519531 15.996094 6.671875 16.238281 6.835938 C 16.40625 6.949219 16.570312 7.070312 16.726562 7.195312 Z M 13.882812 6.363281 C 13.773438 6.328125 13.660156 6.300781 13.550781 6.273438 C 13.210938 6.191406 12.867188 6.132812 12.519531 6.097656 L 12.585938 5.527344 C 12.964844 5.566406 13.34375 5.628906 13.710938 5.71875 C 13.832031 5.75 13.953125 5.78125 14.074219 5.816406 Z M 9.757812 6.359375 L 9.570312 5.816406 C 10.011719 5.6875 10.464844 5.59375 10.925781 5.542969 C 10.972656 5.535156 11.015625 5.53125 11.0625 5.527344 L 11.125 6.097656 C 11.082031 6.101562 11.039062 6.105469 10.996094 6.109375 C 10.578125 6.15625 10.160156 6.242188 9.757812 6.359375 Z M 9.757812 6.359375 "/>
<path style=" stroke:none;fill-rule:nonzero;fill:rgb(100%,100%,100%);fill-opacity:1;" d="M 11.773438 17.636719 C 10.898438 17.636719 10.054688 17.492188 9.265625 17.203125 C 8.886719 17.0625 8.523438 16.890625 8.183594 16.6875 C 7.847656 16.488281 7.53125 16.257812 7.246094 16.003906 C 6.960938 15.75 6.703125 15.472656 6.480469 15.175781 C 6.261719 14.878906 6.070312 14.5625 5.921875 14.230469 C 5.613281 13.546875 5.46875 12.816406 5.496094 12.0625 C 5.519531 11.308594 5.707031 10.578125 6.054688 9.890625 C 6.21875 9.5625 6.421875 9.246094 6.65625 8.945312 C 6.886719 8.652344 7.148438 8.371094 7.4375 8.117188 C 7.722656 7.867188 8.039062 7.636719 8.371094 7.4375 C 8.703125 7.234375 9.058594 7.0625 9.425781 6.921875 C 10.183594 6.632812 10.988281 6.484375 11.820312 6.484375 C 12.652344 6.484375 13.457031 6.632812 14.214844 6.921875 C 14.578125 7.0625 14.933594 7.234375 15.265625 7.4375 C 15.59375 7.636719 15.90625 7.867188 16.191406 8.117188 C 16.476562 8.371094 16.738281 8.652344 16.964844 8.945312 C 17.195312 9.246094 17.394531 9.5625 17.558594 9.890625 C 17.898438 10.578125 18.082031 11.308594 18.101562 12.0625 C 18.117188 12.816406 17.96875 13.546875 17.65625 14.230469 C 17.503906 14.5625 17.3125 14.878906 17.085938 15.175781 C 16.863281 15.472656 16.605469 15.75 16.316406 16.003906 C 16.03125 16.257812 15.710938 16.488281 15.375 16.6875 C 15.03125 16.890625 14.664062 17.0625 14.285156 17.203125 C 13.492188 17.492188 12.648438 17.636719 11.773438 17.636719 Z M 11.773438 17.636719 "/>
<path style=" stroke:none;fill-rule:nonzero;fill:rgb(0%,0%,0%);fill-opacity:0.2;" d="M 21.996094 12.652344 C 21.960938 17.453125 17.464844 21.28125 11.761719 21.28125 C 6.109375 21.28125 1.675781 17.523438 1.597656 12.789062 C 1.597656 13.222656 1.605469 13.726562 1.605469 13.816406 C 1.605469 18.820312 5.902344 22.832031 11.757812 22.832031 C 17.617188 22.832031 21.988281 18.804688 21.988281 13.816406 C 21.988281 13.699219 22 13.101562 21.996094 12.652344 Z M 21.996094 12.652344 "/>
<path style=" stroke:none;fill-rule:nonzero;fill:rgb(100%,100%,100%);fill-opacity:0.501961;" d="M 21.996094 12.652344 C 21.960938 17.453125 17.464844 21.28125 11.761719 21.28125 C 6.109375 21.28125 1.675781 17.523438 1.597656 12.789062 C 1.597656 13.222656 1.605469 13.402344 1.605469 13.679688 C 1.605469 14.105469 1.953125 16.425781 4.058594 18.601562 C 5.5625 20.152344 7.957031 21.550781 11.757812 21.550781 C 15.558594 21.550781 17.96875 20.15625 19.484375 18.605469 C 21.617188 16.429688 21.988281 14.023438 21.988281 13.453125 C 21.988281 13.089844 22 13.101562 21.996094 12.652344 Z M 21.996094 12.652344 "/>
<path style=" stroke:none;fill-rule:nonzero;fill:rgb(0%,0%,0%);fill-opacity:0.301961;" d="M 11.835938 3.042969 C 11.160156 3.042969 10.480469 3.105469 9.820312 3.230469 C 9.171875 3.351562 8.535156 3.53125 7.921875 3.765625 C 7.320312 3.996094 6.738281 4.28125 6.1875 4.613281 C 5.644531 4.941406 5.128906 5.320312 4.65625 5.734375 C 4.183594 6.152344 3.75 6.609375 3.371094 7.097656 C 2.984375 7.589844 2.648438 8.117188 2.371094 8.664062 C 2.085938 9.21875 1.863281 9.800781 1.699219 10.394531 C 1.535156 11 1.4375 11.628906 1.402344 12.253906 C 1.386719 12.574219 1.398438 13.289062 1.402344 13.632812 C 1.402344 13.722656 1.402344 13.789062 1.402344 13.816406 C 1.402344 14.445312 1.472656 15.074219 1.605469 15.683594 C 1.734375 16.277344 1.929688 16.863281 2.183594 17.417969 C 2.4375 17.96875 2.746094 18.496094 3.113281 18.988281 C 3.472656 19.476562 3.890625 19.933594 4.351562 20.351562 C 4.8125 20.765625 5.324219 21.144531 5.867188 21.472656 C 6.421875 21.804688 7.011719 22.085938 7.632812 22.316406 C 8.261719 22.550781 8.925781 22.730469 9.605469 22.847656 C 10.304688 22.972656 11.027344 23.035156 11.761719 23.035156 C 12.492188 23.035156 13.21875 22.972656 13.917969 22.847656 C 14.597656 22.726562 15.265625 22.546875 15.898438 22.3125 C 16.523438 22.085938 17.121094 21.800781 17.675781 21.46875 C 18.226562 21.140625 18.738281 20.761719 19.207031 20.34375 C 19.671875 19.929688 20.09375 19.46875 20.460938 18.980469 C 20.828125 18.488281 21.144531 17.960938 21.398438 17.414062 C 21.65625 16.855469 21.855469 16.273438 21.988281 15.679688 C 22.125 15.070312 22.191406 14.445312 22.191406 13.816406 C 22.191406 13.78125 22.191406 13.703125 22.195312 13.605469 C 22.199219 13.238281 22.203125 12.550781 22.191406 12.253906 C 22.164062 11.628906 22.070312 11.003906 21.910156 10.394531 C 21.753906 9.804688 21.535156 9.21875 21.253906 8.664062 C 20.980469 8.117188 20.648438 7.589844 20.269531 7.097656 C 19.890625 6.609375 19.460938 6.152344 18.992188 5.738281 C 18.523438 5.320312 18.011719 4.941406 17.472656 4.613281 C 16.925781 4.28125 16.34375 3.996094 15.742188 3.765625 C 15.132812 3.53125 14.496094 3.351562 13.851562 3.230469 C 13.1875 3.105469 12.511719 3.042969 11.835938 3.042969 Z M 11.835938 3.042969 "/>
<path style=" stroke:none;fill-rule:nonzero;fill:rgb(0%,0%,0%);fill-opacity:1;" d="M 12.515625 19.886719 C 11.074219 19.886719 9.695312 19.648438 8.421875 19.175781 C 7.808594 18.949219 7.222656 18.667969 6.675781 18.339844 C 6.136719 18.015625 5.628906 17.644531 5.171875 17.230469 C 4.714844 16.820312 4.304688 16.367188 3.945312 15.882812 C 3.585938 15.398438 3.277344 14.875 3.03125 14.332031 C 2.519531 13.214844 2.257812 12.015625 2.257812 10.769531 C 2.257812 10.742188 2.257812 10.679688 2.257812 10.589844 C 2.253906 10.246094 2.242188 9.53125 2.257812 9.214844 C 2.320312 7.984375 2.644531 6.789062 3.214844 5.664062 C 3.488281 5.125 3.824219 4.601562 4.203125 4.117188 C 4.582031 3.632812 5.011719 3.179688 5.476562 2.769531 C 5.945312 2.355469 6.457031 1.980469 6.996094 1.65625 C 7.539062 1.328125 8.117188 1.042969 8.714844 0.816406 C 9.953125 0.34375 11.257812 0.101562 12.589844 0.101562 C 13.921875 0.101562 15.222656 0.34375 16.460938 0.816406 C 17.054688 1.042969 17.632812 1.328125 18.171875 1.65625 C 18.707031 1.980469 19.214844 2.355469 19.679688 2.769531 C 20.144531 3.179688 20.570312 3.632812 20.941406 4.117188 C 21.320312 4.601562 21.648438 5.125 21.917969 5.664062 C 22.480469 6.789062 22.792969 7.984375 22.84375 9.214844 C 22.855469 9.507812 22.851562 10.191406 22.847656 10.5625 C 22.847656 10.664062 22.84375 10.738281 22.84375 10.769531 C 22.84375 12.011719 22.582031 13.207031 22.0625 14.328125 C 21.808594 14.867188 21.496094 15.390625 21.132812 15.875 C 20.769531 16.359375 20.355469 16.8125 19.894531 17.226562 C 19.433594 17.636719 18.921875 18.011719 18.378906 18.335938 C 17.828125 18.664062 17.234375 18.949219 16.621094 19.175781 C 15.335938 19.648438 13.957031 19.886719 12.515625 19.886719 Z M 12.515625 19.886719 "/>
<path style=" stroke:none;fill-rule:nonzero;fill:rgb(0%,0%,0%);fill-opacity:1;" d="M 12.589844 0.203125 C 17.988281 0.203125 22.535156 4.238281 22.742188 9.21875 C 22.757812 9.589844 22.742188 10.617188 22.742188 10.769531 C 22.742188 15.757812 18.375 19.789062 12.515625 19.789062 C 6.65625 19.789062 2.359375 15.777344 2.359375 10.769531 C 2.359375 10.640625 2.339844 9.613281 2.359375 9.21875 C 2.609375 4.238281 7.191406 0.203125 12.589844 0.203125 M 12.589844 0 C 11.914062 0 11.234375 0.0625 10.574219 0.1875 C 9.929688 0.308594 9.289062 0.488281 8.675781 0.722656 C 8.074219 0.953125 7.492188 1.238281 6.941406 1.570312 C 6.398438 1.898438 5.882812 2.277344 5.410156 2.691406 C 4.9375 3.109375 4.507812 3.566406 4.125 4.054688 C 3.738281 4.546875 3.402344 5.070312 3.125 5.617188 C 2.84375 6.175781 2.617188 6.757812 2.457031 7.347656 C 2.289062 7.957031 2.191406 8.582031 2.160156 9.210938 C 2.140625 9.527344 2.152344 10.246094 2.15625 10.589844 C 2.15625 10.675781 2.15625 10.746094 2.15625 10.769531 C 2.15625 11.402344 2.226562 12.03125 2.359375 12.636719 C 2.488281 13.234375 2.683594 13.820312 2.9375 14.375 C 3.191406 14.925781 3.503906 15.453125 3.867188 15.945312 C 4.226562 16.433594 4.644531 16.890625 5.105469 17.304688 C 5.566406 17.722656 6.078125 18.101562 6.621094 18.425781 C 7.175781 18.757812 7.765625 19.042969 8.386719 19.273438 C 9.015625 19.503906 9.679688 19.683594 10.359375 19.804688 C 11.058594 19.925781 11.78125 19.988281 12.515625 19.988281 C 13.246094 19.988281 13.972656 19.925781 14.671875 19.804688 C 15.351562 19.683594 16.019531 19.503906 16.65625 19.269531 C 17.277344 19.039062 17.875 18.753906 18.429688 18.421875 C 18.980469 18.09375 19.496094 17.71875 19.960938 17.300781 C 20.425781 16.882812 20.847656 16.425781 21.214844 15.9375 C 21.582031 15.445312 21.898438 14.917969 22.152344 14.367188 C 22.410156 13.8125 22.609375 13.230469 22.742188 12.632812 C 22.878906 12.027344 22.945312 11.398438 22.945312 10.769531 C 22.945312 10.738281 22.945312 10.660156 22.949219 10.5625 C 22.953125 10.191406 22.957031 9.507812 22.945312 9.210938 C 22.917969 8.585938 22.824219 7.957031 22.664062 7.351562 C 22.507812 6.757812 22.289062 6.175781 22.007812 5.617188 C 21.734375 5.074219 21.402344 4.546875 21.023438 4.054688 C 20.644531 3.566406 20.214844 3.109375 19.746094 2.691406 C 19.277344 2.277344 18.765625 1.898438 18.226562 1.570312 C 17.679688 1.238281 17.097656 0.953125 16.496094 0.722656 C 15.886719 0.488281 15.25 0.308594 14.605469 0.1875 C 13.945312 0.0625 13.265625 0 12.589844 0 Z M 12.589844 0 "/>
<path style=" stroke:none;fill-rule:nonzero;fill:rgb(100%,100%,100%);fill-opacity:1;" d="M 2.714844 11.945312 L 2.714844 13.210938 C 3.113281 14.539062 3.835938 15.742188 4.8125 16.746094 L 4.8125 15.285156 Z M 2.714844 11.945312 "/>
<path style=" stroke:none;fill-rule:nonzero;fill:rgb(100%,100%,100%);fill-opacity:1;" d="M 5.671875 12.671875 C 4.773438 11.230469 4.398438 11.113281 4.398438 11.113281 L 2.714844 11.945312 C 3.121094 13.199219 3.84375 14.335938 4.8125 15.285156 L 6.496094 14.460938 C 6.496094 14.460938 6.582031 14.113281 5.671875 12.671875 Z M 5.671875 12.671875 "/>
<path style=" stroke:none;fill-rule:nonzero;fill:rgb(100%,100%,100%);fill-opacity:1;" d="M 19.25 5.75 C 20.21875 7.195312 20.59375 7.3125 20.59375 7.3125 L 22.171875 6.480469 C 21.683594 5.222656 20.90625 4.082031 19.921875 3.128906 L 18.355469 3.964844 C 18.355469 3.964844 18.289062 4.308594 19.25 5.75 Z M 19.25 5.75 "/>
<path style=" stroke:none;fill-rule:nonzero;fill:rgb(100%,100%,100%);fill-opacity:1;" d="M 5.914062 5.765625 C 6.882812 4.324219 6.820312 3.976562 6.820312 3.976562 L 5.234375 3.128906 C 4.238281 4.082031 3.457031 5.222656 2.957031 6.480469 L 4.550781 7.324219 C 4.550781 7.324219 4.929688 7.207031 5.914062 5.765625 Z M 5.914062 5.765625 "/>
<path style=" stroke:none;fill-rule:nonzero;fill:rgb(100%,100%,100%);fill-opacity:1;" d="M 20.238281 15.285156 L 20.238281 16.757812 C 21.222656 15.765625 21.953125 14.574219 22.367188 13.261719 L 22.367188 11.945312 Z M 20.238281 15.285156 "/>
<path style=" stroke:none;fill-rule:nonzero;fill:rgb(100%,100%,100%);fill-opacity:1;" d="M 22.367188 11.945312 L 20.691406 11.113281 C 20.691406 11.113281 20.316406 11.230469 19.402344 12.671875 C 18.480469 14.113281 18.5625 14.460938 18.5625 14.460938 L 20.238281 15.285156 C 21.21875 14.335938 21.949219 13.199219 22.367188 11.945312 Z M 22.367188 11.945312 "/>
<path style=" stroke:none;fill-rule:nonzero;fill:rgb(100%,100%,100%);fill-opacity:1;" d="M 10.242188 18.027344 L 10.242188 19.578125 C 10.96875 19.714844 11.726562 19.789062 12.515625 19.789062 C 13.300781 19.789062 14.058594 19.714844 14.785156 19.578125 L 14.785156 18.027344 Z M 10.242188 18.027344 "/>
<path style=" stroke:none;fill-rule:nonzero;fill:rgb(100%,100%,100%);fill-opacity:1;" d="M 12.523438 16.125 C 10.582031 16.125 10.265625 16.355469 10.265625 16.355469 L 10.242188 18.027344 C 10.972656 18.164062 11.730469 18.238281 12.515625 18.238281 C 13.296875 18.238281 14.058594 18.164062 14.785156 18.027344 L 14.777344 16.355469 C 14.777344 16.355469 14.464844 16.125 12.523438 16.125 Z M 12.523438 16.125 "/>
<path style=" stroke:none;fill-rule:nonzero;fill:rgb(100%,100%,100%);fill-opacity:1;" d="M 12.582031 2.3125 C 14.40625 2.3125 14.695312 2.082031 14.695312 2.082031 L 14.6875 0.410156 C 14.007812 0.273438 13.304688 0.203125 12.589844 0.203125 C 11.875 0.203125 11.171875 0.273438 10.492188 0.410156 L 10.46875 2.082031 C 10.46875 2.082031 10.757812 2.3125 12.582031 2.3125 Z M 12.582031 2.3125 "/>
<path style=" stroke:none;fill-rule:nonzero;fill:rgb(100%,100%,100%);fill-opacity:1;" d="M 12.535156 15.722656 C 12.351562 15.722656 12.167969 15.714844 11.988281 15.707031 C 11.898438 15.699219 11.808594 15.691406 11.71875 15.683594 L 11.792969 15.117188 C 11.875 15.121094 11.957031 15.128906 12.039062 15.132812 C 12.203125 15.144531 12.371094 15.148438 12.535156 15.148438 C 12.777344 15.148438 13.023438 15.136719 13.261719 15.117188 L 13.332031 15.6875 C 13.070312 15.710938 12.800781 15.722656 12.535156 15.722656 Z M 14.910156 15.398438 L 14.699219 14.851562 C 15.164062 14.722656 15.613281 14.550781 16.039062 14.335938 L 16.375 14.832031 L 16.207031 14.582031 L 16.375 14.832031 C 15.910156 15.066406 15.417969 15.253906 14.910156 15.398438 Z M 10.140625 15.394531 C 9.800781 15.300781 9.464844 15.183594 9.144531 15.046875 C 8.988281 14.980469 8.832031 14.910156 8.679688 14.832031 L 9.019531 14.335938 C 9.160156 14.40625 9.300781 14.472656 9.445312 14.535156 C 9.738281 14.65625 10.042969 14.761719 10.355469 14.851562 Z M 7.398438 14.019531 C 7.011719 13.710938 6.660156 13.363281 6.359375 12.984375 L 6.902344 12.648438 C 7.179688 12.992188 7.5 13.308594 7.851562 13.59375 Z M 17.664062 14.015625 L 17.214844 13.589844 C 17.539062 13.335938 17.835938 13.050781 18.09375 12.746094 C 18.121094 12.714844 18.148438 12.679688 18.171875 12.648438 L 18.714844 12.984375 C 18.683594 13.019531 18.65625 13.054688 18.628906 13.089844 C 18.34375 13.425781 18.019531 13.738281 17.664062 14.015625 Z M 5.605469 11.785156 C 5.402344 11.359375 5.253906 10.917969 5.160156 10.464844 L 5.800781 10.347656 C 5.886719 10.757812 6.023438 11.164062 6.210938 11.550781 Z M 19.476562 11.78125 L 18.875 11.550781 C 19.011719 11.261719 19.125 10.960938 19.210938 10.652344 C 19.242188 10.550781 19.265625 10.449219 19.289062 10.34375 L 19.929688 10.464844 C 19.90625 10.578125 19.875 10.691406 19.847656 10.800781 C 19.753906 11.136719 19.628906 11.464844 19.476562 11.78125 Z M 5.699219 9.085938 L 5.050781 9.085938 C 5.054688 8.933594 5.070312 8.777344 5.085938 8.625 C 5.121094 8.316406 5.183594 8.007812 5.265625 7.707031 L 5.890625 7.824219 C 5.816406 8.101562 5.761719 8.382812 5.730469 8.664062 C 5.714844 8.804688 5.703125 8.945312 5.699219 9.085938 Z M 20.054688 9.082031 L 19.40625 9.082031 L 19.40625 9.078125 C 19.398438 8.828125 19.375 8.578125 19.335938 8.332031 C 19.304688 8.164062 19.269531 7.992188 19.226562 7.820312 L 19.851562 7.703125 C 19.898438 7.886719 19.941406 8.074219 19.972656 8.261719 C 20.019531 8.53125 20.046875 8.804688 20.054688 9.078125 Z M 6.371094 6.617188 L 5.792969 6.386719 C 5.832031 6.316406 5.871094 6.242188 5.914062 6.171875 C 6.113281 5.828125 6.34375 5.492188 6.605469 5.183594 L 7.109375 5.519531 C 6.875 5.804688 6.660156 6.105469 6.480469 6.421875 C 6.441406 6.488281 6.40625 6.554688 6.371094 6.617188 Z M 18.753906 6.617188 C 18.652344 6.425781 18.539062 6.238281 18.417969 6.054688 C 18.296875 5.867188 18.160156 5.6875 18.019531 5.519531 L 18.527344 5.183594 C 18.683594 5.371094 18.828125 5.566406 18.964844 5.765625 C 19.097656 5.96875 19.222656 6.175781 19.332031 6.382812 Z M 8.078125 4.578125 L 7.664062 4.152344 C 8.050781 3.84375 8.472656 3.570312 8.921875 3.339844 L 9.226562 3.835938 C 8.816406 4.046875 8.429688 4.296875 8.078125 4.578125 Z M 17.0625 4.578125 C 16.921875 4.460938 16.769531 4.351562 16.617188 4.246094 C 16.394531 4.097656 16.160156 3.957031 15.917969 3.832031 L 16.226562 3.335938 C 16.492188 3.472656 16.75 3.625 16.992188 3.789062 C 17.160156 3.902344 17.324219 4.023438 17.480469 4.152344 Z M 14.636719 3.316406 C 14.527344 3.285156 14.414062 3.253906 14.304688 3.226562 C 13.964844 3.144531 13.621094 3.085938 13.273438 3.054688 L 13.339844 2.484375 C 13.71875 2.519531 14.097656 2.585938 14.464844 2.675781 C 14.585938 2.703125 14.707031 2.738281 14.828125 2.773438 Z M 10.511719 3.316406 L 10.324219 2.773438 C 10.765625 2.640625 11.21875 2.550781 11.679688 2.496094 C 11.726562 2.492188 11.773438 2.488281 11.816406 2.484375 L 11.878906 3.054688 C 11.835938 3.058594 11.792969 3.0625 11.75 3.066406 C 11.332031 3.113281 10.914062 3.199219 10.511719 3.316406 Z M 10.511719 3.316406 "/>
<path style=" stroke:none;fill-rule:nonzero;fill:rgb(100%,100%,100%);fill-opacity:1;" d="M 12.527344 14.59375 C 11.65625 14.59375 10.808594 14.445312 10.019531 14.15625 C 9.640625 14.019531 9.277344 13.84375 8.9375 13.644531 C 8.601562 13.445312 8.285156 13.214844 8 12.960938 C 7.714844 12.707031 7.457031 12.429688 7.234375 12.132812 C 7.015625 11.835938 6.824219 11.515625 6.675781 11.1875 C 6.367188 10.5 6.222656 9.773438 6.25 9.015625 C 6.273438 8.261719 6.460938 7.53125 6.808594 6.847656 C 6.976562 6.519531 7.175781 6.199219 7.410156 5.902344 C 7.640625 5.605469 7.902344 5.328125 8.191406 5.074219 C 8.476562 4.820312 8.792969 4.589844 9.125 4.390625 C 9.457031 4.191406 9.8125 4.015625 10.179688 3.878906 C 10.9375 3.589844 11.746094 3.441406 12.574219 3.441406 C 13.40625 3.441406 14.210938 3.589844 14.96875 3.878906 C 15.332031 4.015625 15.6875 4.191406 16.019531 4.390625 C 16.347656 4.589844 16.660156 4.820312 16.945312 5.074219 C 17.230469 5.328125 17.492188 5.605469 17.71875 5.902344 C 17.949219 6.199219 18.148438 6.519531 18.3125 6.847656 C 18.652344 7.53125 18.835938 8.261719 18.855469 9.015625 C 18.875 9.773438 18.722656 10.5 18.410156 11.1875 C 18.257812 11.515625 18.066406 11.835938 17.839844 12.132812 C 17.617188 12.429688 17.359375 12.707031 17.070312 12.960938 C 16.785156 13.214844 16.464844 13.445312 16.128906 13.644531 C 15.785156 13.84375 15.417969 14.019531 15.039062 14.15625 C 14.25 14.445312 13.402344 14.59375 12.527344 14.59375 Z M 12.527344 14.59375 "/>
<path style=" stroke:none;fill-rule:nonzero;fill:rgb(0%,0%,0%);fill-opacity:0.2;" d="M 22.75 9.605469 C 22.714844 14.40625 18.21875 18.238281 12.515625 18.238281 C 6.863281 18.238281 2.429688 14.480469 2.351562 9.742188 C 2.351562 10.179688 2.359375 10.679688 2.359375 10.769531 C 2.359375 15.777344 6.65625 19.789062 12.515625 19.789062 C 18.375 19.789062 22.742188 15.757812 22.742188 10.769531 C 22.742188 10.65625 22.753906 10.058594 22.75 9.605469 Z M 22.75 9.605469 "/>
<path style=" stroke:none;fill-rule:nonzero;fill:rgb(100%,100%,100%);fill-opacity:0.501961;" d="M 22.75 9.605469 C 22.714844 14.40625 18.21875 18.238281 12.515625 18.238281 C 6.863281 18.238281 2.429688 14.480469 2.351562 9.742188 C 2.351562 10.179688 2.359375 10.355469 2.359375 10.636719 C 2.359375 11.0625 2.707031 13.382812 4.8125 15.558594 C 6.316406 17.109375 8.710938 18.503906 12.515625 18.503906 C 16.3125 18.503906 18.722656 17.113281 20.238281 15.5625 C 22.371094 13.386719 22.742188 10.980469 22.742188 10.40625 C 22.742188 10.042969 22.753906 10.058594 22.75 9.605469 Z M 22.75 9.605469 "/>
<path style=" stroke:none;fill-rule:nonzero;fill:rgb(87.843137%,84.705882%,41.568627%);fill-opacity:1;" d="M 10.515625 16.929688 L 10.507812 16.886719 C 10.507812 16.875 10.472656 16.527344 10.710938 16.398438 L 10.847656 16.328125 C 11.058594 16.21875 11.34375 16.066406 11.429688 16.011719 C 11.460938 15.988281 11.480469 15.964844 11.5 15.9375 C 11.523438 15.902344 11.558594 15.855469 11.628906 15.855469 C 11.632812 15.796875 11.652344 15.707031 11.722656 15.632812 C 11.804688 15.546875 11.886719 15.347656 11.886719 15.09375 L 11.886719 14.816406 C 11.886719 14.738281 11.835938 14.691406 11.796875 14.648438 C 11.757812 14.613281 11.738281 14.546875 11.738281 14.476562 C 11.738281 14.410156 11.753906 14.285156 11.859375 14.179688 C 11.976562 14.0625 12.046875 13.894531 12.046875 13.726562 C 12.046875 13.640625 11.953125 13.441406 11.832031 13.265625 C 11.792969 13.210938 11.628906 13.042969 11.511719 12.933594 C 11.066406 12.515625 10.675781 12.0625 10.382812 11.625 C 9.964844 10.992188 9.597656 10.160156 9.375 9.335938 C 9.011719 7.972656 8.980469 6.789062 8.980469 5.785156 L 8.980469 5.738281 L 15.808594 5.738281 L 15.808594 5.785156 C 15.808594 6.789062 15.777344 7.972656 15.414062 9.335938 C 15.191406 10.160156 14.824219 10.992188 14.40625 11.625 C 14.113281 12.0625 13.722656 12.515625 13.277344 12.933594 C 13.160156 13.042969 12.992188 13.210938 12.957031 13.265625 C 12.832031 13.441406 12.742188 13.640625 12.742188 13.726562 C 12.742188 13.894531 12.8125 14.0625 12.929688 14.179688 C 13 14.25 13.039062 14.34375 13.046875 14.445312 C 13.054688 14.527344 13.035156 14.605469 13 14.640625 C 12.953125 14.6875 12.902344 14.738281 12.902344 14.816406 L 12.902344 15.09375 C 12.902344 15.347656 12.984375 15.546875 13.066406 15.632812 C 13.132812 15.707031 13.15625 15.796875 13.160156 15.855469 C 13.230469 15.855469 13.261719 15.902344 13.289062 15.9375 C 13.308594 15.964844 13.328125 15.988281 13.359375 16.011719 C 13.441406 16.066406 13.730469 16.21875 13.9375 16.328125 L 14.078125 16.398438 C 14.316406 16.527344 14.28125 16.875 14.277344 16.886719 L 14.273438 16.929688 Z M 10.515625 16.929688 "/>
<path style=" stroke:none;fill-rule:nonzero;fill:rgb(74.509804%,59.607843%,9.803922%);fill-opacity:1;" d="M 15.761719 5.785156 C 15.761719 6.671875 15.746094 7.914062 15.367188 9.324219 C 15.175781 10.027344 14.839844 10.882812 14.367188 11.597656 C 13.976562 12.183594 13.507812 12.652344 13.242188 12.898438 C 13.136719 12.996094 12.960938 13.175781 12.917969 13.238281 C 12.800781 13.402344 12.695312 13.617188 12.695312 13.726562 C 12.695312 13.882812 12.753906 14.070312 12.894531 14.210938 C 13.039062 14.355469 13.011719 14.5625 12.964844 14.609375 C 12.921875 14.652344 12.855469 14.714844 12.855469 14.816406 C 12.855469 14.917969 12.855469 14.839844 12.855469 15.09375 C 12.855469 15.347656 12.9375 15.566406 13.03125 15.667969 C 13.125 15.765625 13.113281 15.910156 13.113281 15.910156 C 13.132812 15.90625 13.148438 15.902344 13.160156 15.902344 C 13.242188 15.902344 13.242188 15.988281 13.332031 16.050781 C 13.4375 16.121094 13.839844 16.328125 14.054688 16.441406 C 14.265625 16.554688 14.230469 16.882812 14.230469 16.882812 L 10.554688 16.882812 C 10.554688 16.882812 10.519531 16.554688 10.734375 16.441406 C 10.945312 16.328125 11.347656 16.121094 11.453125 16.050781 C 11.546875 15.988281 11.546875 15.902344 11.628906 15.902344 C 11.640625 15.902344 11.65625 15.90625 11.671875 15.910156 C 11.671875 15.910156 11.660156 15.765625 11.757812 15.667969 C 11.851562 15.566406 11.933594 15.347656 11.933594 15.09375 C 11.933594 14.839844 11.933594 14.917969 11.933594 14.816406 C 11.933594 14.714844 11.867188 14.652344 11.820312 14.609375 C 11.777344 14.566406 11.75 14.355469 11.890625 14.210938 C 12.035156 14.070312 12.09375 13.882812 12.09375 13.726562 C 12.09375 13.617188 11.984375 13.402344 11.871094 13.238281 C 11.828125 13.175781 11.648438 12.996094 11.542969 12.898438 C 11.28125 12.652344 10.8125 12.183594 10.421875 11.597656 C 9.945312 10.882812 9.609375 10.027344 9.421875 9.324219 C 9.042969 7.914062 9.027344 6.671875 9.027344 5.785156 L 15.761719 5.785156 M 15.855469 5.691406 L 8.933594 5.691406 L 8.933594 5.785156 C 8.933594 6.792969 8.960938 7.980469 9.328125 9.347656 C 9.550781 10.175781 9.921875 11.015625 10.34375 11.648438 C 10.636719 12.089844 11.03125 12.546875 11.480469 12.96875 C 11.59375 13.074219 11.757812 13.242188 11.792969 13.292969 C 11.921875 13.476562 12 13.660156 12 13.726562 C 12 13.882812 11.933594 14.039062 11.824219 14.144531 C 11.707031 14.261719 11.691406 14.402344 11.691406 14.476562 C 11.691406 14.515625 11.699219 14.617188 11.753906 14.675781 L 11.761719 14.683594 C 11.808594 14.726562 11.839844 14.765625 11.839844 14.816406 L 11.839844 15.09375 C 11.839844 15.332031 11.761719 15.523438 11.6875 15.601562 C 11.625 15.671875 11.597656 15.75 11.585938 15.8125 C 11.519531 15.828125 11.484375 15.875 11.460938 15.910156 C 11.441406 15.933594 11.429688 15.957031 11.402344 15.972656 C 11.320312 16.027344 11.035156 16.175781 10.824219 16.285156 L 10.691406 16.359375 C 10.421875 16.5 10.460938 16.875 10.460938 16.894531 L 10.472656 16.976562 L 14.316406 16.976562 L 14.324219 16.894531 C 14.328125 16.875 14.363281 16.5 14.097656 16.359375 L 13.960938 16.285156 C 13.753906 16.175781 13.46875 16.027344 13.386719 15.972656 C 13.359375 15.957031 13.34375 15.933594 13.328125 15.910156 C 13.304688 15.875 13.269531 15.828125 13.203125 15.8125 C 13.191406 15.75 13.164062 15.671875 13.101562 15.601562 C 13.027344 15.523438 12.949219 15.332031 12.949219 15.09375 L 12.949219 14.816406 C 12.949219 14.761719 12.980469 14.726562 13.027344 14.683594 L 13.03125 14.675781 C 13.085938 14.621094 13.101562 14.519531 13.09375 14.441406 C 13.085938 14.328125 13.039062 14.222656 12.960938 14.144531 C 12.855469 14.039062 12.789062 13.882812 12.789062 13.726562 C 12.789062 13.660156 12.867188 13.476562 12.996094 13.292969 C 13.03125 13.242188 13.195312 13.074219 13.308594 12.96875 C 13.757812 12.546875 14.152344 12.089844 14.445312 11.648438 C 14.867188 11.015625 15.238281 10.175781 15.457031 9.347656 C 15.824219 7.980469 15.855469 6.792969 15.855469 5.785156 Z M 15.855469 5.691406 "/>
<path style=" stroke:none;fill-rule:nonzero;fill:rgb(87.843137%,84.705882%,41.568627%);fill-opacity:1;" d="M 14.246094 13.597656 C 14.15625 13.597656 14.070312 13.578125 13.992188 13.535156 C 13.769531 13.417969 13.671875 13.15625 13.671875 12.949219 C 13.671875 12.5625 13.816406 12.238281 14.132812 11.921875 L 14.472656 11.582031 C 16.316406 9.742188 17.429688 8.628906 17.429688 7.605469 C 17.429688 6.992188 17.136719 6.652344 16.859375 6.542969 C 16.78125 6.511719 16.699219 6.496094 16.617188 6.496094 C 16.417969 6.496094 16.222656 6.589844 16.0625 6.761719 C 15.53125 7.320312 15.992188 7.941406 16.046875 8.007812 L 16.074219 8.046875 L 15.816406 8.253906 L 15.789062 8.214844 C 15.539062 7.90625 15.226562 7.15625 15.820312 6.53125 C 16.046875 6.296875 16.328125 6.164062 16.617188 6.164062 C 16.738281 6.164062 16.863281 6.1875 16.980469 6.238281 C 17.464844 6.429688 17.761719 6.953125 17.761719 7.605469 C 17.761719 8.765625 16.613281 9.914062 14.707031 11.816406 L 14.367188 12.15625 C 14.117188 12.40625 14 12.65625 14 12.949219 C 14 13.054688 14.050781 13.191406 14.148438 13.242188 C 14.179688 13.257812 14.210938 13.265625 14.246094 13.265625 C 14.320312 13.265625 14.414062 13.234375 14.511719 13.167969 L 14.550781 13.140625 L 14.734375 13.414062 L 14.695312 13.441406 C 14.539062 13.546875 14.390625 13.597656 14.246094 13.597656 Z M 14.246094 13.597656 "/>
<path style=" stroke:none;fill-rule:nonzero;fill:rgb(74.509804%,59.607843%,9.803922%);fill-opacity:1;" d="M 16.617188 6.210938 C 16.730469 6.210938 16.847656 6.234375 16.964844 6.28125 C 17.425781 6.464844 17.714844 6.972656 17.714844 7.605469 C 17.714844 8.746094 16.570312 9.890625 14.671875 11.785156 L 14.332031 12.121094 C 14.074219 12.382812 13.953125 12.644531 13.953125 12.949219 C 13.953125 13.066406 14.007812 13.222656 14.128906 13.285156 C 14.164062 13.304688 14.207031 13.316406 14.246094 13.316406 C 14.351562 13.316406 14.457031 13.261719 14.539062 13.207031 L 14.671875 13.402344 C 14.503906 13.515625 14.363281 13.550781 14.246094 13.550781 C 14.152344 13.550781 14.074219 13.527344 14.015625 13.492188 C 13.808594 13.382812 13.71875 13.140625 13.71875 12.949219 C 13.71875 12.578125 13.859375 12.261719 14.167969 11.957031 L 14.503906 11.617188 C 16.359375 9.765625 17.476562 8.648438 17.476562 7.605469 C 17.476562 6.96875 17.167969 6.617188 16.875 6.5 C 16.792969 6.464844 16.703125 6.449219 16.617188 6.449219 C 16.410156 6.449219 16.199219 6.546875 16.027344 6.726562 C 15.457031 7.328125 15.984375 8.007812 16.007812 8.039062 L 15.917969 8.113281 L 15.949219 8.089844 L 15.824219 8.1875 C 15.585938 7.890625 15.285156 7.167969 15.855469 6.566406 C 16.074219 6.335938 16.34375 6.210938 16.617188 6.210938 M 16.007812 8.039062 L 16.007812 8.039062 M 16.007812 8.039062 L 15.949219 8.089844 L 16.007812 8.039062 M 16.617188 6.117188 L 16.617188 6.210938 L 16.617188 6.117188 C 16.3125 6.117188 16.019531 6.253906 15.785156 6.5 C 15.171875 7.148438 15.496094 7.925781 15.75 8.246094 L 15.808594 8.320312 L 15.882812 8.261719 L 16.007812 8.164062 L 16.070312 8.113281 L 16.140625 8.054688 L 16.082031 7.980469 C 16.03125 7.914062 15.59375 7.324219 16.09375 6.792969 C 16.246094 6.632812 16.433594 6.542969 16.617188 6.542969 C 16.695312 6.542969 16.769531 6.558594 16.839844 6.589844 C 17.101562 6.691406 17.382812 7.015625 17.382812 7.605469 C 17.382812 8.609375 16.273438 9.71875 14.4375 11.550781 L 14.097656 11.886719 C 13.773438 12.214844 13.621094 12.550781 13.621094 12.949219 C 13.621094 13.167969 13.730469 13.449219 13.972656 13.578125 C 14.054688 13.621094 14.148438 13.644531 14.246094 13.644531 C 14.398438 13.644531 14.558594 13.589844 14.722656 13.480469 L 14.800781 13.429688 L 14.75 13.351562 L 14.617188 13.152344 L 14.566406 13.074219 L 14.488281 13.128906 C 14.394531 13.1875 14.3125 13.21875 14.246094 13.21875 C 14.21875 13.21875 14.195312 13.214844 14.171875 13.203125 C 14.09375 13.160156 14.046875 13.039062 14.046875 12.949219 C 14.046875 12.671875 14.160156 12.429688 14.398438 12.1875 L 14.738281 11.851562 C 16.652344 9.941406 17.808594 8.785156 17.808594 7.605469 C 17.808594 6.933594 17.5 6.390625 17 6.191406 C 16.875 6.144531 16.746094 6.117188 16.617188 6.117188 Z M 16.617188 6.117188 "/>
<path style=" stroke:none;fill-rule:nonzero;fill:rgb(87.843137%,84.705882%,41.568627%);fill-opacity:1;" d="M 10.539062 13.597656 C 10.398438 13.597656 10.246094 13.546875 10.089844 13.441406 L 10.050781 13.417969 L 10.234375 13.140625 L 10.273438 13.167969 C 10.375 13.234375 10.464844 13.265625 10.542969 13.265625 C 10.578125 13.265625 10.609375 13.257812 10.636719 13.246094 C 10.734375 13.191406 10.785156 13.054688 10.785156 12.949219 C 10.785156 12.65625 10.671875 12.40625 10.421875 12.15625 L 10.082031 11.816406 C 8.175781 9.914062 7.027344 8.765625 7.027344 7.605469 C 7.027344 6.953125 7.324219 6.429688 7.804688 6.238281 C 7.925781 6.1875 8.046875 6.164062 8.171875 6.164062 C 8.460938 6.164062 8.742188 6.296875 8.96875 6.53125 C 9.558594 7.15625 9.246094 7.90625 9 8.214844 L 8.96875 8.253906 L 8.710938 8.046875 L 8.742188 8.011719 C 8.796875 7.941406 9.257812 7.320312 8.726562 6.761719 C 8.566406 6.589844 8.367188 6.496094 8.171875 6.496094 C 8.089844 6.496094 8.007812 6.511719 7.929688 6.542969 C 7.652344 6.65625 7.355469 6.992188 7.355469 7.605469 C 7.355469 8.628906 8.472656 9.742188 10.316406 11.582031 L 10.65625 11.921875 C 10.972656 12.238281 11.117188 12.5625 11.117188 12.949219 C 11.117188 13.15625 11.019531 13.417969 10.792969 13.535156 C 10.714844 13.578125 10.632812 13.597656 10.539062 13.597656 Z M 10.539062 13.597656 "/>
<path style=" stroke:none;fill-rule:nonzero;fill:rgb(74.509804%,59.607843%,9.803922%);fill-opacity:1;" d="M 8.171875 6.210938 C 8.445312 6.210938 8.714844 6.335938 8.933594 6.566406 C 9.503906 7.167969 9.203125 7.890625 8.960938 8.1875 L 8.835938 8.085938 L 8.871094 8.113281 L 8.777344 8.039062 C 8.804688 8.007812 9.328125 7.328125 8.761719 6.726562 C 8.589844 6.546875 8.378906 6.449219 8.171875 6.449219 C 8.082031 6.449219 7.996094 6.464844 7.910156 6.5 C 7.621094 6.617188 7.308594 6.96875 7.308594 7.605469 C 7.308594 8.648438 8.429688 9.765625 10.28125 11.617188 L 10.621094 11.957031 C 10.929688 12.261719 11.070312 12.578125 11.070312 12.949219 C 11.070312 13.140625 10.976562 13.382812 10.773438 13.492188 C 10.710938 13.527344 10.636719 13.550781 10.539062 13.550781 C 10.425781 13.550781 10.285156 13.511719 10.117188 13.402344 L 10.25 13.207031 C 10.332031 13.261719 10.4375 13.316406 10.542969 13.316406 C 10.582031 13.316406 10.621094 13.304688 10.660156 13.285156 C 10.78125 13.222656 10.832031 13.066406 10.832031 12.949219 C 10.832031 12.644531 10.714844 12.382812 10.453125 12.121094 L 10.117188 11.785156 C 8.21875 9.890625 7.074219 8.746094 7.074219 7.605469 C 7.074219 6.972656 7.359375 6.464844 7.824219 6.28125 C 7.9375 6.234375 8.054688 6.210938 8.171875 6.210938 M 8.777344 8.039062 L 8.777344 8.039062 M 8.777344 8.039062 L 8.835938 8.082031 L 8.777344 8.039062 M 8.171875 6.117188 C 8.042969 6.117188 7.914062 6.144531 7.789062 6.191406 C 7.289062 6.390625 6.980469 6.933594 6.980469 7.605469 C 6.980469 8.785156 8.132812 9.941406 10.050781 11.851562 L 10.386719 12.191406 C 10.628906 12.429688 10.738281 12.671875 10.738281 12.949219 C 10.738281 13.039062 10.695312 13.160156 10.617188 13.203125 C 10.59375 13.214844 10.570312 13.21875 10.542969 13.21875 C 10.476562 13.21875 10.394531 13.1875 10.300781 13.128906 L 10.222656 13.074219 L 10.171875 13.152344 L 10.039062 13.351562 L 9.988281 13.429688 L 10.066406 13.480469 C 10.230469 13.589844 10.390625 13.644531 10.539062 13.644531 C 10.640625 13.644531 10.734375 13.625 10.816406 13.578125 C 11.058594 13.449219 11.164062 13.167969 11.164062 12.949219 C 11.164062 12.550781 11.015625 12.214844 10.6875 11.886719 L 10.351562 11.550781 C 8.511719 9.71875 7.40625 8.609375 7.40625 7.605469 C 7.40625 7.015625 7.683594 6.691406 7.945312 6.589844 C 8.019531 6.558594 8.09375 6.542969 8.171875 6.542969 C 8.355469 6.542969 8.539062 6.632812 8.691406 6.792969 C 9.1875 7.3125 8.769531 7.894531 8.707031 7.976562 L 8.703125 7.980469 L 8.644531 8.054688 L 8.71875 8.113281 L 8.777344 8.15625 L 8.902344 8.261719 L 8.976562 8.320312 L 9.035156 8.246094 C 9.292969 7.925781 9.617188 7.148438 9 6.5 C 8.769531 6.253906 8.472656 6.117188 8.171875 6.117188 Z M 8.171875 6.117188 "/>
</g>
</svg>
