<?xml version="1.0" encoding="UTF-8"?>
<svg xmlns="http://www.w3.org/2000/svg" xmlns:xlink="http://www.w3.org/1999/xlink" width="40pt" height="25pt" viewBox="0 0 40 25" version="1.1">
<g id="surface1">
<path style="fill-rule:nonzero;fill:rgb(100%,100%,100%);fill-opacity:1;stroke-width:0.938032;stroke-linecap:butt;stroke-linejoin:miter;stroke:rgb(0%,0%,0%);stroke-opacity:1;stroke-miterlimit:4;" d="M 6488.824127 -2434.982615 L 6696.714993 -2435.00339 C 6700.978631 -2434.980687 6704.359863 -2429.17307 6704.400262 -2421.924184 L 6704.371169 -2136.246049 C 6704.387055 -2129.05379 6700.935345 -2123.193697 6696.729998 -2123.177145 L 6488.81462 -2123.212998 C 6484.575494 -2123.179073 6481.169749 -2129.043318 6481.153863 -2136.235576 L 6481.158444 -2421.970339 C 6481.142558 -2429.162598 6484.594267 -2435.022691 6488.824127 -2434.982615 Z M 6488.824127 -2434.982615 " transform="matrix(0.0945843,0.0290173,-0.0409428,0.0564202,-693.560927,-49.511003)"/>
<path style=" stroke:none;fill-rule:nonzero;fill:rgb(0%,0%,0%);fill-opacity:1;" d="M 18.320312 3.632812 L 18.648438 3.667969 C 18.632812 3.867188 18.816406 3.984375 19.054688 4.046875 C 19.480469 4.152344 19.816406 3.925781 20.019531 3.695312 C 19.785156 3.746094 19.507812 3.71875 19.304688 3.652344 C 18.660156 3.429688 18.714844 3.066406 18.945312 2.742188 C 19.125 2.460938 19.460938 2.324219 19.859375 2.335938 C 20.066406 2.34375 20.46875 2.464844 20.605469 2.574219 C 20.917969 2.824219 20.910156 3.085938 20.511719 3.59375 C 20.203125 4.015625 19.691406 4.464844 18.90625 4.238281 C 18.429688 4.136719 18.238281 3.828125 18.320312 3.632812 Z M 19.785156 3.511719 C 19.957031 3.503906 20.066406 3.480469 20.175781 3.425781 C 20.269531 3.386719 20.304688 3.359375 20.378906 3.234375 C 20.566406 2.917969 20.417969 2.660156 19.992188 2.570312 C 19.753906 2.519531 19.582031 2.558594 19.410156 2.671875 C 19.101562 2.882812 19.050781 3.226562 19.308594 3.390625 C 19.425781 3.460938 19.644531 3.519531 19.785156 3.511719 Z M 19.785156 3.511719 "/>
<path style=" stroke:none;fill-rule:nonzero;fill:rgb(0%,0%,0%);fill-opacity:1;" d="M 28.265625 22.761719 L 27.941406 22.726562 C 27.957031 22.523438 27.773438 22.410156 27.535156 22.347656 C 27.105469 22.242188 26.773438 22.46875 26.566406 22.699219 C 26.800781 22.648438 27.082031 22.671875 27.285156 22.742188 C 27.929688 22.964844 27.875 23.324219 27.644531 23.652344 C 27.464844 23.929688 27.128906 24.070312 26.730469 24.058594 C 26.523438 24.050781 26.121094 23.929688 25.984375 23.820312 C 25.667969 23.570312 25.675781 23.308594 26.078125 22.800781 C 26.386719 22.375 26.898438 21.929688 27.683594 22.15625 C 28.160156 22.257812 28.351562 22.566406 28.265625 22.761719 Z M 26.804688 22.882812 C 26.632812 22.890625 26.523438 22.914062 26.410156 22.964844 C 26.320312 23.007812 26.28125 23.035156 26.207031 23.15625 C 26.023438 23.476562 26.171875 23.734375 26.597656 23.824219 C 26.832031 23.871094 27.007812 23.835938 27.175781 23.722656 C 27.488281 23.511719 27.535156 23.167969 27.277344 23.003906 C 27.164062 22.933594 26.945312 22.875 26.804688 22.882812 Z M 26.804688 22.882812 "/>
<path style=" stroke:none;fill-rule:nonzero;fill:rgb(0%,0%,0%);fill-opacity:1;" d="M 21.320312 6.585938 C 21.40625 6.472656 21.253906 6.425781 21.195312 6.507812 C 20.878906 6.925781 20.136719 6.949219 19.738281 6.765625 C 19.128906 6.488281 19.203125 6.027344 19.378906 5.796875 C 19.917969 5.089844 21.507812 4.929688 23.265625 4.347656 C 23.464844 5.421875 24.3125 6.476562 23.921875 7.140625 C 23.410156 8.023438 21.371094 7.789062 21.835938 6.714844 C 21.867188 6.640625 21.753906 6.566406 21.691406 6.667969 C 21.535156 6.953125 21.394531 7.046875 21.425781 7.878906 L 20.078125 7.464844 C 20.605469 7.242188 21.0625 6.914062 21.320312 6.589844 Z M 21.320312 6.585938 "/>
<path style=" stroke:none;fill-rule:nonzero;fill:rgb(0%,0%,0%);fill-opacity:1;" d="M 31.871094 9.824219 C 31.953125 9.710938 31.804688 9.660156 31.746094 9.746094 C 31.429688 10.160156 30.683594 10.183594 30.289062 10.003906 C 29.679688 9.722656 29.75 9.265625 29.925781 9.035156 C 30.464844 8.324219 32.058594 8.167969 33.816406 7.582031 C 34.011719 8.65625 34.859375 9.714844 34.472656 10.378906 C 33.957031 11.261719 31.921875 11.023438 32.382812 9.953125 C 32.417969 9.878906 32.300781 9.804688 32.242188 9.90625 C 32.082031 10.1875 31.945312 10.285156 31.972656 11.113281 L 30.628906 10.699219 C 31.152344 10.480469 31.609375 10.148438 31.871094 9.824219 Z M 31.871094 9.824219 "/>
<path style=" stroke:none;fill-rule:nonzero;fill:rgb(0%,0%,0%);fill-opacity:1;" d="M 29.195312 13.511719 C 29.28125 13.394531 29.128906 13.347656 29.070312 13.433594 C 28.753906 13.847656 28.011719 13.871094 27.613281 13.691406 C 27.003906 13.410156 27.078125 12.949219 27.25 12.71875 C 27.792969 12.011719 29.382812 11.851562 31.140625 11.269531 C 31.339844 12.34375 32.183594 13.398438 31.796875 14.0625 C 31.285156 14.949219 29.246094 14.710938 29.707031 13.640625 C 29.742188 13.5625 29.628906 13.488281 29.566406 13.589844 C 29.410156 13.875 29.269531 13.972656 29.296875 14.800781 L 27.953125 14.386719 C 28.480469 14.164062 28.933594 13.835938 29.195312 13.511719 Z M 29.195312 13.511719 "/>
<path style=" stroke:none;fill-rule:nonzero;fill:rgb(0%,0%,0%);fill-opacity:1;" d="M 18.644531 10.273438 C 18.730469 10.160156 18.582031 10.113281 18.523438 10.195312 C 18.203125 10.609375 17.460938 10.632812 17.066406 10.453125 C 16.453125 10.171875 16.527344 9.714844 16.703125 9.484375 C 17.242188 8.773438 18.835938 8.617188 20.589844 8.03125 C 20.789062 9.105469 21.636719 10.164062 21.25 10.828125 C 20.734375 11.710938 18.695312 11.472656 19.160156 10.402344 C 19.195312 10.328125 19.078125 10.253906 19.019531 10.355469 C 18.859375 10.636719 18.722656 10.734375 18.75 11.5625 L 17.402344 11.152344 C 17.929688 10.929688 18.386719 10.597656 18.644531 10.273438 Z M 18.644531 10.273438 "/>
<path style=" stroke:none;fill-rule:nonzero;fill:rgb(0%,0%,0%);fill-opacity:1;" d="M 24.730469 19.667969 C 24.648438 19.78125 24.492188 19.738281 24.554688 19.65625 C 24.847656 19.230469 24.402344 18.84375 23.9375 18.761719 C 23.214844 18.632812 22.71875 18.960938 22.554688 19.195312 C 22.054688 19.917969 22.878906 20.816406 23.304688 22.070312 C 24.707031 21.484375 26.496094 21.238281 27.039062 20.621094 C 27.761719 19.800781 26.1875 18.929688 25.207031 19.84375 C 25.140625 19.910156 24.976562 19.898438 25.058594 19.800781 C 25.296875 19.542969 25.324219 19.414062 26.324219 18.898438 L 24.980469 18.488281 C 25.050781 18.890625 24.949219 19.332031 24.730469 19.667969 Z M 24.730469 19.667969 "/>
<path style=" stroke:none;fill-rule:nonzero;fill:rgb(0%,0%,0%);fill-opacity:1;" d="M 27.394531 15.996094 C 27.3125 16.109375 27.160156 16.066406 27.222656 15.980469 C 27.511719 15.558594 27.070312 15.171875 26.601562 15.085938 C 25.882812 14.957031 25.382812 15.285156 25.222656 15.519531 C 24.722656 16.242188 25.546875 17.140625 25.96875 18.394531 C 27.371094 17.8125 29.164062 17.566406 29.707031 16.949219 C 30.429688 16.128906 28.851562 15.257812 27.871094 16.171875 C 27.804688 16.234375 27.644531 16.222656 27.726562 16.128906 C 27.960938 15.871094 27.988281 15.738281 28.992188 15.226562 L 27.644531 14.8125 C 27.714844 15.21875 27.613281 15.65625 27.394531 15.996094 Z M 27.394531 15.996094 "/>
<path style=" stroke:none;fill-rule:nonzero;fill:rgb(0%,0%,0%);fill-opacity:1;" d="M 23.566406 12.492188 C 23.484375 12.605469 23.332031 12.5625 23.394531 12.480469 C 23.683594 12.054688 23.242188 11.667969 22.773438 11.582031 C 22.054688 11.453125 21.554688 11.785156 21.394531 12.015625 C 20.890625 12.738281 21.71875 13.640625 22.140625 14.890625 C 23.542969 14.308594 25.335938 14.0625 25.878906 13.445312 C 26.601562 12.625 25.023438 11.753906 24.042969 12.667969 C 23.976562 12.730469 23.816406 12.722656 23.898438 12.625 C 24.132812 12.367188 24.160156 12.234375 25.160156 11.722656 L 23.816406 11.308594 C 23.886719 11.714844 23.785156 12.152344 23.566406 12.492188 Z M 23.566406 12.492188 "/>
<path style=" stroke:none;fill-rule:nonzero;fill:rgb(0%,0%,0%);fill-opacity:1;" d="M 16.84375 12.757812 C 16.761719 12.871094 16.609375 12.828125 16.671875 12.746094 C 16.964844 12.324219 16.519531 11.933594 16.050781 11.851562 C 15.332031 11.722656 14.832031 12.050781 14.671875 12.285156 C 14.171875 13.007812 14.996094 13.90625 15.421875 15.160156 C 16.820312 14.574219 18.613281 14.328125 19.15625 13.710938 C 19.878906 12.890625 18.300781 12.019531 17.324219 12.933594 C 17.257812 13 17.09375 12.988281 17.175781 12.894531 C 17.414062 12.632812 17.441406 12.503906 18.441406 11.988281 L 17.097656 11.578125 C 17.167969 11.980469 17.066406 12.421875 16.84375 12.757812 Z M 16.84375 12.757812 "/>
<path style=" stroke:none;fill-rule:nonzero;fill:rgb(0%,0%,0%);fill-opacity:1;" d="M 14.179688 16.429688 C 14.097656 16.546875 13.945312 16.5 14.007812 16.417969 C 14.296875 15.996094 13.855469 15.605469 13.386719 15.523438 C 12.667969 15.394531 12.167969 15.722656 12.007812 15.957031 C 11.507812 16.679688 12.332031 17.578125 12.753906 18.832031 C 14.15625 18.25 15.949219 18.003906 16.492188 17.386719 C 17.214844 16.566406 15.636719 15.691406 14.65625 16.605469 C 14.589844 16.671875 14.429688 16.660156 14.511719 16.566406 C 14.746094 16.304688 14.773438 16.175781 15.777344 15.664062 L 14.429688 15.25 C 14.5 15.65625 14.398438 16.09375 14.179688 16.429688 Z M 14.179688 16.429688 "/>
<path style=" stroke:none;fill-rule:nonzero;fill:rgb(0%,0%,0%);fill-opacity:1;" d="M 17.984375 5.460938 C 18.019531 5.414062 17.917969 5.410156 17.894531 5.421875 C 17.703125 5.5 17.523438 5.476562 17.394531 5.386719 C 17.265625 5.296875 17.242188 5.183594 17.347656 5.058594 C 17.515625 4.875 17.929688 4.742188 18.140625 4.660156 C 18.339844 4.585938 18.5625 4.5 18.820312 4.375 C 18.84375 4.613281 18.882812 4.691406 18.933594 4.917969 C 18.976562 5.121094 19.082031 5.335938 18.964844 5.523438 C 18.863281 5.664062 18.667969 5.765625 18.429688 5.722656 C 18.292969 5.699219 18.203125 5.621094 18.179688 5.507812 C 18.171875 5.476562 18.109375 5.46875 18.085938 5.503906 C 18.015625 5.625 18.011719 5.753906 18.097656 5.933594 L 17.449219 5.734375 C 17.644531 5.6875 17.867188 5.609375 17.984375 5.460938 Z M 17.984375 5.460938 "/>
<path style=" stroke:none;fill-rule:nonzero;fill:rgb(0%,0%,0%);fill-opacity:1;" d="M 28.769531 20.6875 C 28.734375 20.734375 28.667969 20.6875 28.664062 20.667969 C 28.636719 20.523438 28.496094 20.445312 28.304688 20.4375 C 28.121094 20.429688 27.96875 20.492188 27.890625 20.621094 C 27.777344 20.824219 27.882812 21.117188 27.917969 21.273438 C 27.957031 21.417969 27.996094 21.589844 28.011719 21.796875 C 28.308594 21.65625 28.429688 21.625 28.730469 21.507812 C 28.996094 21.402344 29.320312 21.316406 29.46875 21.136719 C 29.570312 21 29.566406 20.835938 29.363281 20.742188 C 29.246094 20.691406 29.101562 20.691406 28.949219 20.757812 C 28.90625 20.769531 28.859375 20.742188 28.882812 20.710938 C 28.984375 20.597656 29.136719 20.515625 29.40625 20.441406 L 28.753906 20.242188 C 28.824219 20.375 28.871094 20.535156 28.769531 20.6875 Z M 28.769531 20.6875 "/>
<path style="fill-rule:nonzero;fill:rgb(100%,100%,100%);fill-opacity:1;stroke-width:0.910754;stroke-linecap:butt;stroke-linejoin:miter;stroke:rgb(0%,0%,0%);stroke-opacity:1;stroke-miterlimit:4;" d="M 6488.851087 -2434.981291 L 6696.695098 -2435.003908 C 6700.911081 -2434.989598 6704.3999 -2429.514282 6704.395956 -2422.766894 L 6704.384536 -2135.45123 C 6704.360341 -2128.648587 6700.92056 -2123.174867 6696.670344 -2123.204429 L 6488.860566 -2123.166561 C 6484.61035 -2123.196122 6481.155763 -2128.656187 6481.159708 -2135.403575 L 6481.157146 -2422.789746 C 6481.16109 -2429.537133 6484.600871 -2435.010853 6488.851087 -2434.981291 Z M 6488.851087 -2434.981291 " transform="matrix(0.0980905,-0.0270757,0.0359509,0.0607716,-548.482595,329.363473)"/>
<path style=" stroke:none;fill-rule:nonzero;fill:rgb(83.137255%,0%,0%);fill-opacity:1;" d="M 1.945312 8.070312 L 2.207031 7.929688 C 2.425781 8.082031 2.683594 8.074219 2.917969 7.996094 C 3.335938 7.855469 3.304688 7.523438 3.183594 7.257812 C 3.082031 7.410156 2.859375 7.535156 2.644531 7.589844 C 1.945312 7.757812 1.574219 7.472656 1.359375 7.125 C 1.167969 6.835938 1.242188 6.566406 1.527344 6.375 C 1.679688 6.273438 2.09375 6.160156 2.3125 6.167969 C 2.8125 6.183594 3.105469 6.375 3.40625 6.9375 C 3.675781 7.394531 3.832031 7.972656 3.03125 8.207031 C 2.589844 8.375 2.105469 8.25 1.945312 8.070312 Z M 2.8125 7.246094 C 2.921875 7.15625 2.96875 7.082031 2.988281 6.988281 C 3.003906 6.914062 3 6.875 2.910156 6.75 C 2.675781 6.429688 2.28125 6.320312 1.886719 6.472656 C 1.667969 6.558594 1.589844 6.671875 1.601562 6.835938 C 1.628906 7.144531 1.984375 7.414062 2.347656 7.398438 C 2.511719 7.394531 2.726562 7.324219 2.8125 7.246094 Z M 2.8125 7.246094 "/>
<path style=" stroke:none;fill-rule:nonzero;fill:rgb(83.137255%,0%,0%);fill-opacity:1;" d="M 30.535156 16.65625 L 30.269531 16.796875 C 30.050781 16.644531 29.792969 16.65625 29.5625 16.730469 C 29.144531 16.871094 29.171875 17.203125 29.292969 17.46875 C 29.398438 17.316406 29.617188 17.191406 29.835938 17.136719 C 30.53125 16.972656 30.90625 17.257812 31.117188 17.605469 C 31.3125 17.894531 31.238281 18.160156 30.953125 18.355469 C 30.800781 18.453125 30.382812 18.570312 30.164062 18.5625 C 29.667969 18.542969 29.371094 18.351562 29.074219 17.789062 C 28.800781 17.332031 28.644531 16.753906 29.445312 16.519531 C 29.886719 16.351562 30.371094 16.476562 30.535156 16.65625 Z M 29.664062 17.480469 C 29.558594 17.574219 29.507812 17.644531 29.488281 17.738281 C 29.476562 17.816406 29.476562 17.851562 29.566406 17.976562 C 29.800781 18.296875 30.199219 18.40625 30.589844 18.253906 C 30.808594 18.171875 30.890625 18.054688 30.875 17.890625 C 30.847656 17.582031 30.492188 17.3125 30.132812 17.328125 C 29.96875 17.335938 29.753906 17.40625 29.664062 17.480469 Z M 29.664062 17.480469 "/>
<path style=" stroke:none;fill-rule:nonzero;fill:rgb(83.137255%,0%,0%);fill-opacity:1;" d="M 2.65625 9.214844 C 2.375 9.046875 2.144531 8.691406 2.582031 8.515625 C 2.914062 8.390625 3.117188 8.449219 3.234375 8.597656 C 3.277344 8.640625 3.320312 8.628906 3.300781 8.574219 C 3.226562 8.410156 3.425781 8.25 3.636719 8.21875 C 4.214844 8.125 4.402344 8.503906 4.371094 8.804688 C 4.300781 9.210938 4.144531 9.496094 4.082031 9.90625 C 3.578125 9.636719 3.070312 9.449219 2.65625 9.214844 Z M 2.65625 9.214844 "/>
<path style=" stroke:none;fill-rule:nonzero;fill:rgb(83.137255%,0%,0%);fill-opacity:1;" d="M 5.148438 6.429688 C 5.832031 6.207031 6.417969 6.476562 6.660156 6.75 C 6.730469 6.785156 6.746094 6.765625 6.742188 6.726562 C 6.554688 6.339844 6.914062 5.886719 7.441406 5.789062 C 8.261719 5.570312 9.089844 5.996094 9.234375 6.511719 C 9.40625 7.140625 9.109375 7.628906 8.9375 8.097656 C 8.726562 8.589844 8.460938 9.292969 8.425781 9.605469 C 8.425781 9.605469 7.503906 9.207031 6.34375 8.761719 C 5.566406 8.464844 4.871094 8.101562 4.589844 7.703125 C 4.269531 7.246094 4.332031 6.742188 5.148438 6.429688 Z M 5.148438 6.429688 "/>
<path style=" stroke:none;fill-rule:nonzero;fill:rgb(83.137255%,0%,0%);fill-opacity:1;" d="M 15.890625 3.464844 C 16.574219 3.242188 17.160156 3.511719 17.40625 3.785156 C 17.472656 3.820312 17.488281 3.800781 17.484375 3.761719 C 17.296875 3.375 17.65625 2.917969 18.183594 2.824219 C 19.003906 2.605469 19.835938 3.03125 19.976562 3.546875 C 20.152344 4.175781 19.851562 4.664062 19.683594 5.132812 C 19.46875 5.625 19.207031 6.328125 19.171875 6.636719 C 19.171875 6.636719 18.246094 6.242188 17.085938 5.796875 C 16.308594 5.5 15.613281 5.136719 15.332031 4.738281 C 15.011719 4.28125 15.074219 3.773438 15.890625 3.464844 Z M 15.890625 3.464844 "/>
<path style=" stroke:none;fill-rule:nonzero;fill:rgb(83.137255%,0%,0%);fill-opacity:1;" d="M 18.242188 7.433594 C 18.925781 7.214844 19.507812 7.484375 19.753906 7.753906 C 19.824219 7.789062 19.839844 7.769531 19.832031 7.730469 C 19.644531 7.34375 20.007812 6.890625 20.535156 6.792969 C 21.355469 6.574219 22.183594 7 22.328125 7.515625 C 22.5 8.144531 22.203125 8.636719 22.03125 9.101562 C 21.820312 9.59375 21.554688 10.296875 21.519531 10.609375 C 21.519531 10.609375 20.597656 10.214844 19.433594 9.769531 C 18.660156 9.46875 17.964844 9.109375 17.683594 8.707031 C 17.359375 8.25 17.421875 7.746094 18.242188 7.433594 Z M 18.242188 7.433594 "/>
<path style=" stroke:none;fill-rule:nonzero;fill:rgb(83.137255%,0%,0%);fill-opacity:1;" d="M 14.054688 10.933594 C 14.738281 10.710938 15.324219 10.980469 15.566406 11.253906 C 15.636719 11.289062 15.652344 11.269531 15.648438 11.230469 C 15.460938 10.84375 15.820312 10.386719 16.347656 10.292969 C 17.167969 10.074219 18 10.5 18.140625 11.015625 C 18.316406 11.644531 18.015625 12.132812 17.847656 12.601562 C 17.632812 13.09375 17.371094 13.796875 17.335938 14.109375 C 17.335938 14.109375 16.410156 13.710938 15.25 13.265625 C 14.472656 12.96875 13.777344 12.605469 13.496094 12.207031 C 13.175781 11.75 13.238281 11.246094 14.054688 10.933594 Z M 14.054688 10.933594 "/>
<path style=" stroke:none;fill-rule:nonzero;fill:rgb(83.137255%,0%,0%);fill-opacity:1;" d="M 7.496094 10.402344 C 8.179688 10.179688 8.765625 10.449219 9.007812 10.722656 C 9.078125 10.757812 9.09375 10.738281 9.089844 10.695312 C 8.902344 10.3125 9.261719 9.855469 9.789062 9.757812 C 10.609375 9.539062 11.441406 9.964844 11.582031 10.480469 C 11.757812 11.109375 11.457031 11.601562 11.289062 12.066406 C 11.074219 12.5625 10.8125 13.261719 10.777344 13.574219 C 10.777344 13.574219 9.851562 13.179688 8.691406 12.734375 C 7.914062 12.4375 7.21875 12.074219 6.9375 11.675781 C 6.617188 11.21875 6.679688 10.710938 7.496094 10.402344 Z M 7.496094 10.402344 "/>
<path style=" stroke:none;fill-rule:nonzero;fill:rgb(83.137255%,0%,0%);fill-opacity:1;" d="M 22.710938 14.996094 C 23.429688 14.832031 23.578125 14.359375 23.476562 14.046875 C 23.488281 13.988281 23.519531 13.996094 23.558594 14.027344 C 23.816406 14.390625 24.539062 14.550781 25.015625 14.367188 C 25.828125 14.136719 25.992188 13.4375 25.570312 13 C 25.054688 12.464844 24.339844 12.253906 23.746094 11.996094 C 23.089844 11.742188 22.1875 11.363281 21.84375 11.15625 C 21.84375 11.15625 21.582031 11.878906 21.199219 12.75 C 20.941406 13.332031 20.8125 13.921875 21.015625 14.34375 C 21.25 14.824219 21.808594 15.160156 22.710938 14.996094 Z M 22.710938 14.996094 "/>
<path style=" stroke:none;fill-rule:nonzero;fill:rgb(83.137255%,0%,0%);fill-opacity:1;" d="M 25.054688 18.953125 C 25.769531 18.785156 25.917969 18.316406 25.816406 18.003906 C 25.832031 17.945312 25.863281 17.953125 25.898438 17.984375 C 26.15625 18.347656 26.878906 18.503906 27.355469 18.324219 C 28.167969 18.09375 28.332031 17.394531 27.910156 16.953125 C 27.394531 16.417969 26.683594 16.207031 26.085938 15.953125 C 25.429688 15.699219 24.527344 15.320312 24.183594 15.113281 C 24.183594 15.113281 23.921875 15.835938 23.539062 16.707031 C 23.285156 17.289062 23.152344 17.878906 23.355469 18.300781 C 23.589844 18.78125 24.148438 19.117188 25.054688 18.953125 Z M 25.054688 18.953125 "/>
<path style=" stroke:none;fill-rule:nonzero;fill:rgb(83.137255%,0%,0%);fill-opacity:1;" d="M 14.308594 21.917969 C 15.027344 21.753906 15.171875 21.28125 15.070312 20.96875 C 15.085938 20.910156 15.117188 20.917969 15.15625 20.949219 C 15.410156 21.3125 16.132812 21.472656 16.613281 21.289062 C 17.425781 21.058594 17.589844 20.359375 17.167969 19.921875 C 16.652344 19.386719 15.9375 19.175781 15.339844 18.917969 C 14.6875 18.664062 13.78125 18.285156 13.441406 18.078125 C 13.441406 18.078125 13.179688 18.800781 12.796875 19.671875 C 12.539062 20.253906 12.410156 20.84375 12.613281 21.265625 C 12.847656 21.746094 13.40625 22.082031 14.308594 21.917969 Z M 14.308594 21.917969 "/>
<path style=" stroke:none;fill-rule:nonzero;fill:rgb(83.137255%,0%,0%);fill-opacity:1;" d="M 11.96875 17.960938 C 12.6875 17.796875 12.832031 17.324219 12.730469 17.011719 C 12.746094 16.953125 12.777344 16.960938 12.8125 16.992188 C 13.070312 17.359375 13.792969 17.515625 14.269531 17.335938 C 15.085938 17.101562 15.246094 16.402344 14.824219 15.964844 C 14.3125 15.429688 13.597656 15.21875 13 14.960938 C 12.34375 14.707031 11.441406 14.328125 11.101562 14.121094 C 11.101562 14.121094 10.835938 14.84375 10.457031 15.714844 C 10.199219 16.296875 10.066406 16.886719 10.273438 17.308594 C 10.507812 17.789062 11.066406 18.125 11.96875 17.960938 Z M 11.96875 17.960938 "/>
<path style=" stroke:none;fill-rule:nonzero;fill:rgb(83.137255%,0%,0%);fill-opacity:1;" d="M 28.039062 15.699219 C 28.007812 15.953125 28.203125 16.320312 28.695312 16.242188 C 29.0625 16.171875 29.144531 16.03125 29.082031 15.871094 C 29.070312 15.820312 29.109375 15.808594 29.152344 15.855469 C 29.265625 16.007812 29.574219 16.03125 29.757812 15.953125 C 30.265625 15.746094 30.015625 15.382812 29.691406 15.183594 C 29.226562 14.921875 28.820312 14.792969 28.363281 14.527344 C 28.269531 14.957031 28.097656 15.335938 28.039062 15.699219 Z M 28.039062 15.699219 "/>
</g>
</svg>
