<?xml version="1.0" encoding="UTF-8"?>
<svg xmlns="http://www.w3.org/2000/svg" xmlns:xlink="http://www.w3.org/1999/xlink" width="25pt" height="25pt" viewBox="0 0 25 25" version="1.1">
<g id="surface1">
<path style=" stroke:none;fill-rule:nonzero;fill:rgb(100%,0%,0%);fill-opacity:1;" d="M 6.25 2.5 C 3.75 1.25 0 1.25 0 5 C 0 8 6.25 11.25 6.25 11.25 C 6.25 11.25 12.5 8 12.5 5 C 12.5 1.25 8.75 1.25 6.25 2.5 Z M 6.25 2.5 "/>
<path style=" stroke:none;fill-rule:nonzero;fill:rgb(100%,0%,0%);fill-opacity:1;" d="M 24 6.25 C 22 7.5 20 10 18.75 12.5 C 17.5 10 15.5 7.5 13.5 6.25 C 15.5 5 17.5 2.5 18.75 0 C 20 2.5 22 5 24 6.25 Z M 24 6.25 "/>
<path style=" stroke:none;fill-rule:nonzero;fill:rgb(0%,0%,0%);fill-opacity:1;" d="M 12.5 20 C 12.5 23 9 23.5 7.25 22.25 C 7.25 23.75 7.25 24.25 8 25 C 7 24.75 5.5 24.75 4.5 25 C 5.25 24.25 5.25 23.75 5.25 22.25 C 3.5 23.5 0 23 0 20 C 0 17 3.75 14.75 6.25 12.5 C 8.75 14.75 12.5 17 12.5 20 Z M 12.5 20 "/>
<path style=" stroke:none;fill-rule:nonzero;fill:rgb(0%,0%,0%);fill-opacity:1;" d="M 17.5 25 C 18.25 24 18.25 22.5 18.25 21 C 17.25 23.75 12.5 23.5 12.5 20.25 C 12.5 17.5 15 17.25 16.75 18 C 17.5 18.25 17.5 18 17 17.75 C 15.25 16.5 15 12.5 18.75 12.5 C 22.5 12.5 22.25 16.5 20.5 17.75 C 20 18 20 18.25 20.75 18 C 22.5 17.25 25 17.5 25 20.25 C 25 23.5 20.25 23.75 19.25 21 C 19.25 22.5 19.25 24 20 25 C 18.75 24.75 18.75 24.75 17.5 25 Z M 17.5 25 "/>
</g>
</svg>
