<?xml version="1.0" encoding="UTF-8"?>
<svg xmlns="http://www.w3.org/2000/svg" xmlns:xlink="http://www.w3.org/1999/xlink" width="25pt" height="25pt" viewBox="0 0 25 25" version="1.1">
<g id="surface1">
<path style=" stroke:none;fill-rule:nonzero;fill:rgb(0%,0%,0%);fill-opacity:1;" d="M 20.113281 21.960938 L 14.101562 21.960938 L 14.101562 13.390625 L 24.949219 0 L 0 0 L 11.046875 13.324219 L 11.046875 21.960938 L 5.152344 21.960938 C 3.113281 21.964844 3.113281 25 5.152344 25 L 20.113281 25 C 22.136719 25 22.121094 21.964844 20.113281 21.960938 Z M 12.53125 7.515625 C 12.53125 6.449219 13.398438 5.582031 14.464844 5.582031 C 15.535156 5.582031 16.402344 6.449219 16.398438 7.515625 C 16.402344 8.585938 15.535156 9.453125 14.464844 9.445312 C 13.398438 9.453125 12.53125 8.585938 12.53125 7.515625 Z M 12.53125 7.515625 "/>
</g>
</svg>
