<?xml version="1.0" encoding="UTF-8"?>
<svg xmlns="http://www.w3.org/2000/svg" xmlns:xlink="http://www.w3.org/1999/xlink" width="25pt" height="25pt" viewBox="0 0 25 25" version="1.1">
<g id="surface1">
<path style=" stroke:none;fill-rule:nonzero;fill:rgb(0%,0%,0%);fill-opacity:1;" d="M 23.859375 14.347656 C 23.859375 14.425781 23.863281 14.503906 23.863281 14.578125 C 23.863281 17.039062 22.757812 19.351562 20.757812 21.09375 C 18.75 22.835938 16.082031 23.796875 13.242188 23.796875 C 10.402344 23.796875 7.734375 22.835938 5.726562 21.09375 C 3.726562 19.351562 2.625 17.039062 2.625 14.578125 C 2.625 14.503906 2.625 14.425781 2.625 14.347656 L 2.625 14.339844 C 2.625 14.265625 2.625 14.191406 2.625 14.121094 C 2.625 9.289062 7.386719 5.363281 13.242188 5.363281 C 19.097656 5.363281 23.863281 9.289062 23.863281 14.121094 C 23.863281 14.191406 23.859375 14.265625 23.859375 14.339844 Z M 23.859375 14.347656 "/>
<path style=" stroke:none;fill-rule:nonzero;fill:rgb(10.980392%,10.588235%,11.372549%);fill-opacity:1;" d="M 3.039062 15.886719 C 2.894531 15.308594 2.816406 14.710938 2.816406 14.097656 C 2.816406 12.96875 3.074219 11.890625 3.542969 10.902344 L 3.378906 10.84375 C 2.890625 11.855469 2.625 12.960938 2.625 14.121094 C 2.625 14.804688 2.71875 15.46875 2.894531 16.109375 L 2.898438 15.9375 Z M 3.039062 15.886719 "/>
<path style=" stroke:none;fill-rule:nonzero;fill:rgb(75.294118%,76.470588%,78.039216%);fill-opacity:1;" d="M 15.363281 5.421875 L 15.371094 5.304688 C 14.679688 5.191406 13.964844 5.132812 13.242188 5.132812 C 12.484375 5.132812 11.742188 5.199219 11.019531 5.324219 L 11.027344 5.4375 C 11.742188 5.3125 12.484375 5.25 13.242188 5.25 C 13.96875 5.25 14.679688 5.308594 15.363281 5.421875 Z M 15.363281 5.421875 "/>
<path style=" stroke:none;fill-rule:nonzero;fill:rgb(60%,61.960784%,63.137255%);fill-opacity:1;" d="M 2.761719 17.023438 C 3.152344 18.3125 3.859375 19.511719 4.839844 20.558594 L 4.847656 19.644531 C 3.863281 18.625 3.144531 17.421875 2.78125 16.109375 Z M 2.761719 17.023438 "/>
<path style=" stroke:none;fill-rule:nonzero;fill:rgb(75.294118%,76.470588%,78.039216%);fill-opacity:1;" d="M 6.128906 16.496094 C 5.429688 15.4375 4.988281 15.125 4.988281 15.125 L 2.921875 15.886719 C 3.253906 17.210938 3.949219 18.425781 4.914062 19.453125 L 7.003906 18.375 C 7.003906 18.375 6.828125 17.558594 6.128906 16.496094 Z M 6.128906 16.496094 "/>
<path style=" stroke:none;fill-rule:nonzero;fill:rgb(60.784314%,62.745098%,63.529412%);fill-opacity:1;" d="M 10.664062 22.734375 L 10.644531 23.753906 C 11.484375 23.933594 12.355469 24.027344 13.242188 24.027344 C 14.078125 24.027344 14.902344 23.941406 15.695312 23.785156 L 15.707031 22.753906 C 14.914062 22.910156 14.089844 22.992188 13.242188 22.992188 C 12.351562 22.992188 11.488281 22.902344 10.664062 22.734375 Z M 10.664062 22.734375 "/>
<path style=" stroke:none;fill-rule:nonzero;fill:rgb(75.294118%,76.470588%,78.039216%);fill-opacity:1;" d="M 15.492188 20.382812 C 15.492188 20.382812 14.984375 20.109375 13.097656 20.109375 C 11.214844 20.109375 10.882812 20.382812 10.882812 20.382812 L 10.667969 22.535156 L 10.667969 22.5625 C 11.476562 22.730469 12.328125 22.820312 13.199219 22.820312 C 14.0625 22.820312 14.902344 22.730469 15.707031 22.570312 L 15.707031 22.535156 Z M 15.492188 20.382812 "/>
<path style=" stroke:none;fill-rule:nonzero;fill:rgb(75.294118%,76.470588%,78.039216%);fill-opacity:1;" d="M 20.203125 16.546875 C 19.371094 17.824219 19.351562 18.34375 19.351562 18.34375 L 21.46875 19.472656 C 22.4375 18.445312 23.132812 17.230469 23.472656 15.910156 L 21.402344 15.125 C 21.402344 15.125 21.035156 15.273438 20.203125 16.546875 Z M 20.203125 16.546875 "/>
<path style=" stroke:none;fill-rule:nonzero;fill:rgb(60%,61.960784%,63.137255%);fill-opacity:1;" d="M 21.566406 20.636719 C 22.480469 19.6875 23.160156 18.605469 23.585938 17.445312 L 23.628906 17.183594 L 23.621094 16.382812 C 23.226562 17.625 22.511719 18.761719 21.558594 19.730469 Z M 21.566406 20.636719 "/>
<path style=" stroke:none;fill-rule:nonzero;fill:rgb(8.235294%,7.843137%,8.235294%);fill-opacity:1;" d="M 4.914062 19.453125 L 4.847656 19.488281 L 4.847656 19.644531 C 6.296875 21.152344 8.332031 22.257812 10.664062 22.734375 L 10.667969 22.5625 C 8.351562 22.085938 6.335938 20.972656 4.914062 19.453125 Z M 4.914062 19.453125 "/>
<path style=" stroke:none;fill-rule:nonzero;fill:rgb(8.235294%,7.843137%,8.235294%);fill-opacity:1;" d="M 21.46875 19.472656 C 20.042969 20.984375 18.027344 22.097656 15.707031 22.570312 L 15.707031 22.753906 C 18.042969 22.300781 20.085938 21.214844 21.558594 19.730469 L 21.554688 19.519531 Z M 21.46875 19.472656 "/>
<path style=" stroke:none;fill-rule:nonzero;fill:rgb(10.980392%,10.588235%,11.372549%);fill-opacity:1;" d="M 23.15625 10.796875 L 22.921875 10.882812 C 23.398438 11.878906 23.660156 12.964844 23.660156 14.097656 C 23.660156 14.71875 23.582031 15.324219 23.433594 15.910156 L 23.578125 15.964844 L 23.585938 16.382812 C 23.816406 15.660156 23.9375 14.902344 23.9375 14.121094 C 23.9375 12.945312 23.660156 11.820312 23.15625 10.796875 Z M 23.15625 10.796875 "/>
<path style=" stroke:none;fill-rule:nonzero;fill:rgb(74.509804%,75.686275%,77.254902%);fill-opacity:1;" d="M 4.914062 19.453125 C 3.949219 18.425781 3.253906 17.210938 2.921875 15.886719 L 2.785156 15.9375 L 2.78125 16.109375 C 3.144531 17.421875 3.863281 18.625 4.847656 19.644531 L 4.847656 19.488281 Z M 4.914062 19.453125 "/>
<path style=" stroke:none;fill-rule:nonzero;fill:rgb(63.529412%,64.705882%,66.27451%);fill-opacity:1;" d="M 13.199219 22.820312 C 12.328125 22.820312 11.476562 22.730469 10.667969 22.5625 L 10.664062 22.734375 C 11.488281 22.902344 12.351562 22.992188 13.242188 22.992188 C 14.089844 22.992188 14.914062 22.910156 15.707031 22.753906 L 15.707031 22.570312 C 14.902344 22.730469 14.0625 22.820312 13.199219 22.820312 Z M 13.199219 22.820312 "/>
<path style=" stroke:none;fill-rule:nonzero;fill:rgb(74.509804%,75.686275%,77.254902%);fill-opacity:1;" d="M 23.46875 15.910156 C 23.132812 17.230469 22.4375 18.445312 21.46875 19.472656 L 21.554688 19.519531 L 21.558594 19.730469 C 22.511719 18.761719 23.226562 17.628906 23.621094 16.382812 L 23.617188 15.964844 Z M 23.46875 15.910156 "/>
<path style=" stroke:none;fill-rule:nonzero;fill:rgb(75.294118%,76.470588%,78.039216%);fill-opacity:1;" d="M 20.90625 7.757812 C 20.886719 7.742188 20.867188 7.726562 20.847656 7.714844 L 20.738281 7.769531 L 20.546875 7.867188 L 18.839844 8.738281 C 18.839844 8.738281 18.652344 8.789062 19.648438 10.097656 C 20.648438 11.40625 21.109375 11.589844 21.109375 11.589844 L 22.960938 10.882812 L 23.195312 10.796875 L 23.304688 10.753906 C 22.765625 9.644531 21.957031 8.628906 20.90625 7.757812 Z M 20.90625 7.757812 "/>
<path style=" stroke:none;fill-rule:nonzero;fill:rgb(0%,0%,0%);fill-opacity:1;" d="M 24.089844 14.121094 C 24.089844 11.714844 22.960938 9.457031 20.90625 7.757812 C 18.859375 6.066406 16.136719 5.132812 13.242188 5.132812 C 10.347656 5.132812 7.628906 6.066406 5.578125 7.757812 C 3.527344 9.457031 2.394531 11.714844 2.394531 14.121094 C 2.394531 14.195312 2.394531 14.269531 2.398438 14.347656 L 2.398438 14.339844 C 2.394531 14.421875 2.394531 14.5 2.394531 14.578125 C 2.394531 17.105469 3.523438 19.480469 5.578125 21.265625 C 7.625 23.042969 10.347656 24.023438 13.242188 24.023438 C 16.136719 24.023438 18.859375 23.042969 20.90625 21.265625 C 22.960938 19.480469 24.089844 17.105469 24.089844 14.578125 C 24.089844 14.5 24.089844 14.421875 24.085938 14.339844 L 24.085938 14.347656 C 24.089844 14.269531 24.089844 14.195312 24.089844 14.121094 Z M 23.859375 14.347656 C 23.859375 14.425781 23.863281 14.503906 23.863281 14.578125 C 23.863281 17.039062 22.757812 19.351562 20.757812 21.09375 C 18.75 22.835938 16.082031 23.796875 13.242188 23.796875 C 10.402344 23.796875 7.734375 22.835938 5.726562 21.09375 C 3.726562 19.351562 2.625 17.039062 2.625 14.578125 C 2.625 14.503906 2.625 14.425781 2.625 14.347656 L 2.625 14.339844 C 2.625 14.265625 2.625 14.191406 2.625 14.121094 C 2.625 9.289062 7.386719 5.363281 13.242188 5.363281 C 19.097656 5.363281 23.863281 9.289062 23.863281 14.121094 C 23.863281 14.191406 23.859375 14.265625 23.859375 14.339844 Z M 23.859375 14.347656 "/>
<path style=" stroke:none;fill-rule:nonzero;fill:rgb(0%,0%,0%);fill-opacity:1;" d="M 22.242188 12.253906 C 22.246094 12.332031 22.246094 12.410156 22.246094 12.484375 C 22.246094 14.945312 21.144531 17.257812 19.144531 18.996094 C 17.136719 20.742188 14.46875 21.703125 11.628906 21.703125 C 8.789062 21.703125 6.121094 20.742188 4.113281 18.996094 C 2.109375 17.257812 1.007812 14.945312 1.007812 12.484375 C 1.007812 12.410156 1.007812 12.332031 1.011719 12.253906 L 1.011719 12.246094 C 1.007812 12.171875 1.007812 12.097656 1.007812 12.023438 C 1.007812 7.195312 5.773438 3.269531 11.628906 3.269531 C 17.484375 3.269531 22.246094 7.195312 22.246094 12.023438 C 22.246094 12.097656 22.246094 12.171875 22.242188 12.246094 Z M 22.242188 12.253906 "/>
<path style=" stroke:none;fill-rule:nonzero;fill:rgb(22.352941%,24.705882%,27.058824%);fill-opacity:1;" d="M 1.421875 13.792969 C 1.277344 13.214844 1.203125 12.617188 1.203125 12.003906 C 1.203125 10.875 1.460938 9.796875 1.929688 8.808594 L 1.765625 8.746094 C 1.277344 9.761719 1.007812 10.867188 1.007812 12.023438 C 1.007812 12.707031 1.101562 13.375 1.28125 14.015625 L 1.285156 13.84375 Z M 1.421875 13.792969 "/>
<path style=" stroke:none;fill-rule:nonzero;fill:rgb(87.843137%,88.235294%,89.411765%);fill-opacity:1;" d="M 13.75 3.328125 L 13.757812 3.210938 C 13.0625 3.097656 12.351562 3.039062 11.628906 3.039062 C 10.871094 3.039062 10.128906 3.101562 9.402344 3.226562 L 9.414062 3.34375 C 10.128906 3.21875 10.867188 3.152344 11.628906 3.152344 C 12.355469 3.152344 13.0625 3.214844 13.75 3.328125 Z M 13.75 3.328125 "/>
<path style=" stroke:none;fill-rule:nonzero;fill:rgb(73.333333%,74.117647%,76.078431%);fill-opacity:1;" d="M 1.144531 14.929688 C 1.539062 16.21875 2.242188 17.417969 3.226562 18.460938 L 3.230469 17.550781 C 2.246094 16.53125 1.53125 15.328125 1.164062 14.011719 Z M 1.144531 14.929688 "/>
<path style=" stroke:none;fill-rule:nonzero;fill:rgb(87.843137%,88.235294%,89.411765%);fill-opacity:1;" d="M 4.515625 14.402344 C 3.816406 13.34375 3.371094 13.03125 3.371094 13.03125 L 1.308594 13.792969 C 1.640625 15.117188 2.335938 16.328125 3.300781 17.359375 L 5.390625 16.28125 C 5.390625 16.28125 5.214844 15.460938 4.515625 14.402344 Z M 4.515625 14.402344 "/>
<path style=" stroke:none;fill-rule:nonzero;fill:rgb(73.72549%,74.901961%,76.862745%);fill-opacity:1;" d="M 9.050781 20.636719 L 9.027344 21.660156 C 9.871094 21.839844 10.742188 21.929688 11.628906 21.929688 C 12.464844 21.929688 13.285156 21.847656 14.082031 21.6875 L 14.089844 20.660156 C 13.300781 20.816406 12.476562 20.894531 11.628906 20.894531 C 10.738281 20.894531 9.875 20.804688 9.050781 20.636719 Z M 9.050781 20.636719 "/>
<path style=" stroke:none;fill-rule:nonzero;fill:rgb(87.843137%,88.235294%,89.411765%);fill-opacity:1;" d="M 13.878906 18.289062 C 13.878906 18.289062 13.371094 18.015625 11.484375 18.015625 C 9.597656 18.015625 9.269531 18.289062 9.269531 18.289062 L 9.054688 20.441406 L 9.054688 20.46875 C 9.863281 20.636719 10.710938 20.726562 11.585938 20.726562 C 12.449219 20.726562 13.289062 20.636719 14.09375 20.472656 L 14.09375 20.441406 Z M 13.878906 18.289062 "/>
<path style=" stroke:none;fill-rule:nonzero;fill:rgb(87.843137%,88.235294%,89.411765%);fill-opacity:1;" d="M 18.589844 14.453125 C 17.757812 15.730469 17.738281 16.25 17.738281 16.25 L 19.851562 17.378906 C 20.824219 16.351562 21.519531 15.136719 21.855469 13.8125 L 19.789062 13.03125 C 19.789062 13.03125 19.421875 13.175781 18.589844 14.453125 Z M 18.589844 14.453125 "/>
<path style=" stroke:none;fill-rule:nonzero;fill:rgb(73.333333%,74.117647%,76.078431%);fill-opacity:1;" d="M 19.953125 18.542969 C 20.867188 17.59375 21.546875 16.511719 21.96875 15.347656 L 22.015625 15.089844 L 22.007812 14.289062 C 21.613281 15.53125 20.898438 16.667969 19.941406 17.636719 Z M 19.953125 18.542969 "/>
<path style=" stroke:none;fill-rule:nonzero;fill:rgb(21.960784%,24.313725%,26.666667%);fill-opacity:1;" d="M 3.300781 17.359375 L 3.230469 17.394531 L 3.230469 17.550781 C 4.683594 19.054688 6.714844 20.164062 9.050781 20.636719 L 9.054688 20.46875 C 6.734375 19.992188 4.722656 18.875 3.300781 17.359375 Z M 3.300781 17.359375 "/>
<path style=" stroke:none;fill-rule:nonzero;fill:rgb(21.960784%,24.313725%,26.666667%);fill-opacity:1;" d="M 19.851562 17.378906 C 18.425781 18.890625 16.410156 20 14.09375 20.472656 L 14.089844 20.660156 C 16.429688 20.207031 18.472656 19.121094 19.941406 17.636719 L 19.941406 17.425781 Z M 19.851562 17.378906 "/>
<path style=" stroke:none;fill-rule:nonzero;fill:rgb(22.352941%,24.705882%,27.058824%);fill-opacity:1;" d="M 21.542969 8.699219 L 21.308594 8.789062 C 21.785156 9.785156 22.042969 10.867188 22.042969 12.003906 C 22.042969 12.625 21.964844 13.230469 21.816406 13.8125 L 21.964844 13.871094 L 21.96875 14.289062 C 22.199219 13.566406 22.324219 12.808594 22.324219 12.023438 C 22.324219 10.847656 22.046875 9.726562 21.542969 8.699219 Z M 21.542969 8.699219 "/>
<path style=" stroke:none;fill-rule:nonzero;fill:rgb(87.058824%,87.45098%,89.019608%);fill-opacity:1;" d="M 3.300781 17.359375 C 2.335938 16.328125 1.640625 15.117188 1.308594 13.792969 L 1.167969 13.84375 L 1.164062 14.015625 C 1.53125 15.328125 2.246094 16.53125 3.230469 17.550781 L 3.230469 17.394531 Z M 3.300781 17.359375 "/>
<path style=" stroke:none;fill-rule:nonzero;fill:rgb(76.078431%,77.254902%,78.823529%);fill-opacity:1;" d="M 11.585938 20.726562 C 10.710938 20.726562 9.863281 20.636719 9.054688 20.46875 L 9.050781 20.636719 C 9.875 20.804688 10.738281 20.894531 11.628906 20.894531 C 12.476562 20.894531 13.300781 20.8125 14.089844 20.660156 L 14.09375 20.472656 C 13.289062 20.636719 12.449219 20.726562 11.585938 20.726562 Z M 11.585938 20.726562 "/>
<path style=" stroke:none;fill-rule:nonzero;fill:rgb(87.058824%,87.45098%,89.019608%);fill-opacity:1;" d="M 21.855469 13.8125 C 21.519531 15.136719 20.824219 16.351562 19.851562 17.378906 L 19.941406 17.425781 L 19.941406 17.636719 C 20.898438 16.667969 21.613281 15.53125 22.007812 14.289062 L 22.003906 13.871094 Z M 21.855469 13.8125 "/>
<path style=" stroke:none;fill-rule:nonzero;fill:rgb(0%,0%,0%);fill-opacity:1;" d="M 22.476562 12.023438 C 22.476562 9.621094 21.34375 7.359375 19.289062 5.664062 C 17.242188 3.972656 14.523438 3.039062 11.628906 3.039062 C 8.734375 3.039062 6.011719 3.972656 3.964844 5.664062 C 1.910156 7.359375 0.78125 9.621094 0.78125 12.023438 C 0.78125 12.097656 0.78125 12.175781 0.785156 12.253906 L 0.785156 12.246094 C 0.78125 12.324219 0.78125 12.40625 0.78125 12.484375 C 0.78125 15.011719 1.910156 17.386719 3.964844 19.167969 C 6.011719 20.949219 8.734375 21.929688 11.628906 21.929688 C 14.523438 21.929688 17.246094 20.949219 19.292969 19.167969 C 21.34375 17.386719 22.476562 15.011719 22.476562 12.484375 C 22.476562 12.40625 22.472656 12.328125 22.472656 12.246094 L 22.472656 12.253906 C 22.472656 12.175781 22.476562 12.097656 22.476562 12.023438 Z M 22.242188 12.253906 C 22.246094 12.332031 22.246094 12.410156 22.246094 12.484375 C 22.246094 14.945312 21.144531 17.257812 19.144531 18.996094 C 17.136719 20.742188 14.46875 21.703125 11.628906 21.703125 C 8.789062 21.703125 6.121094 20.742188 4.113281 18.996094 C 2.109375 17.257812 1.007812 14.945312 1.007812 12.484375 C 1.007812 12.410156 1.007812 12.332031 1.011719 12.253906 L 1.011719 12.246094 C 1.007812 12.171875 1.007812 12.097656 1.007812 12.023438 C 1.007812 7.195312 5.773438 3.269531 11.628906 3.269531 C 17.484375 3.269531 22.246094 7.195312 22.246094 12.023438 C 22.246094 12.097656 22.246094 12.171875 22.242188 12.246094 Z M 22.242188 12.253906 "/>
<path style=" stroke:none;fill-rule:nonzero;fill:rgb(0%,0%,0%);fill-opacity:1;" d="M 23.175781 9.964844 C 23.175781 10.046875 23.179688 10.125 23.179688 10.199219 C 23.179688 12.660156 22.074219 14.972656 20.074219 16.710938 C 18.066406 18.457031 15.398438 19.417969 12.558594 19.417969 C 9.71875 19.417969 7.050781 18.457031 5.042969 16.710938 C 3.042969 14.972656 1.941406 12.660156 1.941406 10.199219 C 1.941406 10.125 1.941406 10.046875 1.945312 9.964844 L 1.945312 9.960938 C 1.941406 9.886719 1.941406 9.8125 1.941406 9.738281 C 1.941406 4.910156 6.703125 0.980469 12.558594 0.980469 C 18.414062 0.980469 23.179688 4.910156 23.179688 9.738281 C 23.179688 9.8125 23.175781 9.886719 23.175781 9.960938 Z M 23.175781 9.964844 "/>
<path style=" stroke:none;fill-rule:nonzero;fill:rgb(37.647059%,40%,42.745098%);fill-opacity:1;" d="M 2.355469 11.507812 C 2.210938 10.929688 2.132812 10.332031 2.132812 9.71875 C 2.132812 8.589844 2.390625 7.511719 2.859375 6.523438 L 2.695312 6.460938 C 2.207031 7.476562 1.941406 8.582031 1.941406 9.738281 C 1.941406 10.421875 2.035156 11.089844 2.210938 11.726562 L 2.214844 11.558594 Z M 2.355469 11.507812 "/>
<path style=" stroke:none;fill-rule:nonzero;fill:rgb(100%,100%,100%);fill-opacity:1;" d="M 14.679688 1.042969 L 14.691406 0.925781 C 13.996094 0.8125 13.28125 0.753906 12.558594 0.753906 C 11.804688 0.753906 11.058594 0.816406 10.335938 0.941406 L 10.34375 1.058594 C 11.058594 0.933594 11.800781 0.867188 12.558594 0.867188 C 13.285156 0.867188 13.996094 0.929688 14.679688 1.042969 Z M 14.679688 1.042969 "/>
<path style=" stroke:none;fill-rule:nonzero;fill:rgb(100%,100%,100%);fill-opacity:1;" d="M 12.589844 2.953125 C 14.0625 2.953125 14.550781 2.75 14.550781 2.75 L 14.671875 1.179688 C 13.976562 1.058594 13.253906 0.996094 12.515625 0.996094 C 11.773438 0.996094 11.050781 1.0625 10.355469 1.183594 L 10.472656 2.734375 C 10.472656 2.734375 11.117188 2.953125 12.589844 2.953125 Z M 12.589844 2.953125 "/>
<path style=" stroke:none;fill-rule:nonzero;fill:rgb(86.27451%,86.27451%,87.843137%);fill-opacity:1;" d="M 2.078125 12.644531 C 2.46875 13.933594 3.175781 15.132812 4.160156 16.175781 L 4.164062 15.265625 C 3.179688 14.246094 2.460938 13.042969 2.097656 11.726562 Z M 2.078125 12.644531 "/>
<path style=" stroke:none;fill-rule:nonzero;fill:rgb(100%,100%,100%);fill-opacity:1;" d="M 5.445312 12.117188 C 4.746094 11.058594 4.304688 10.746094 4.304688 10.746094 L 2.238281 11.507812 C 2.570312 12.832031 3.265625 14.042969 4.230469 15.074219 L 6.320312 13.996094 C 6.320312 13.996094 6.144531 13.175781 5.445312 12.117188 Z M 5.445312 12.117188 "/>
<path style=" stroke:none;fill-rule:nonzero;fill:rgb(86.666667%,87.058824%,88.235294%);fill-opacity:1;" d="M 9.980469 18.351562 L 9.960938 19.375 C 10.800781 19.554688 11.671875 19.644531 12.558594 19.644531 C 13.394531 19.644531 14.21875 19.5625 15.011719 19.402344 L 15.023438 18.375 C 14.230469 18.53125 13.40625 18.609375 12.558594 18.609375 C 11.671875 18.609375 10.808594 18.519531 9.980469 18.351562 Z M 9.980469 18.351562 "/>
<path style=" stroke:none;fill-rule:nonzero;fill:rgb(100%,100%,100%);fill-opacity:1;" d="M 14.808594 16.003906 C 14.808594 16.003906 14.300781 15.730469 12.417969 15.730469 C 10.53125 15.730469 10.199219 16.003906 10.199219 16.003906 L 9.984375 18.152344 L 9.984375 18.183594 C 10.796875 18.351562 11.644531 18.441406 12.515625 18.441406 C 13.382812 18.441406 14.222656 18.351562 15.023438 18.1875 L 15.023438 18.15625 Z M 14.808594 16.003906 "/>
<path style=" stroke:none;fill-rule:nonzero;fill:rgb(100%,100%,100%);fill-opacity:1;" d="M 19.519531 12.167969 C 18.6875 13.445312 18.667969 13.964844 18.667969 13.964844 L 20.785156 15.09375 C 21.753906 14.066406 22.449219 12.851562 22.789062 11.527344 L 20.71875 10.746094 C 20.71875 10.746094 20.351562 10.890625 19.519531 12.167969 Z M 19.519531 12.167969 "/>
<path style=" stroke:none;fill-rule:nonzero;fill:rgb(86.27451%,86.27451%,87.843137%);fill-opacity:1;" d="M 20.882812 16.257812 C 21.796875 15.308594 22.476562 14.226562 22.902344 13.0625 L 22.949219 12.804688 L 22.9375 12.003906 C 22.542969 13.246094 21.828125 14.382812 20.875 15.347656 Z M 20.882812 16.257812 "/>
<path style=" stroke:none;fill-rule:nonzero;fill:rgb(37.647059%,40%,42.352941%);fill-opacity:1;" d="M 4.230469 15.074219 L 4.164062 15.105469 L 4.164062 15.265625 C 5.617188 16.769531 7.648438 17.875 9.980469 18.351562 L 9.984375 18.183594 C 7.667969 17.707031 5.652344 16.589844 4.230469 15.074219 Z M 4.230469 15.074219 "/>
<path style=" stroke:none;fill-rule:nonzero;fill:rgb(37.647059%,40%,42.352941%);fill-opacity:1;" d="M 20.785156 15.09375 C 19.359375 16.605469 17.34375 17.714844 15.023438 18.1875 L 15.023438 18.375 C 17.359375 17.921875 19.402344 16.835938 20.875 15.347656 L 20.871094 15.140625 Z M 20.785156 15.09375 "/>
<path style=" stroke:none;fill-rule:nonzero;fill:rgb(37.647059%,40%,42.745098%);fill-opacity:1;" d="M 22.476562 6.414062 L 22.242188 6.503906 C 22.714844 7.5 22.976562 8.582031 22.976562 9.71875 C 22.976562 10.339844 22.898438 10.945312 22.75 11.527344 L 22.898438 11.585938 L 22.902344 12.003906 C 23.132812 11.28125 23.253906 10.523438 23.253906 9.738281 C 23.253906 8.5625 22.976562 7.441406 22.476562 6.414062 Z M 22.476562 6.414062 "/>
<path style=" stroke:none;fill-rule:nonzero;fill:rgb(87.45098%,87.45098%,88.627451%);fill-opacity:1;" d="M 12.515625 1.148438 C 13.253906 1.148438 13.976562 1.210938 14.671875 1.332031 L 14.679688 1.195312 C 13.996094 1.082031 13.285156 1.019531 12.558594 1.019531 C 11.800781 1.019531 11.058594 1.085938 10.34375 1.210938 L 10.351562 1.335938 C 11.050781 1.214844 11.773438 1.148438 12.515625 1.148438 Z M 12.515625 1.148438 "/>
<path style=" stroke:none;fill-rule:nonzero;fill:rgb(100%,100%,100%);fill-opacity:1;" d="M 5.164062 3.492188 L 5.027344 3.421875 L 4.914062 3.363281 C 4.910156 3.367188 4.902344 3.375 4.898438 3.378906 C 3.828125 4.261719 3.011719 5.292969 2.472656 6.421875 L 2.582031 6.460938 L 2.746094 6.523438 L 4.578125 7.199219 C 4.578125 7.199219 5.253906 6.722656 5.957031 5.84375 C 6.660156 4.964844 6.855469 4.382812 6.855469 4.382812 Z M 5.164062 3.492188 "/>
<path style=" stroke:none;fill-rule:nonzero;fill:rgb(99.215686%,99.607843%,99.607843%);fill-opacity:1;" d="M 4.230469 15.074219 C 3.265625 14.042969 2.574219 12.832031 2.238281 11.507812 L 2.101562 11.558594 L 2.097656 11.726562 C 2.460938 13.042969 3.179688 14.246094 4.164062 15.265625 L 4.164062 15.105469 Z M 4.230469 15.074219 "/>
<path style=" stroke:none;fill-rule:nonzero;fill:rgb(89.019608%,89.411765%,90.588235%);fill-opacity:1;" d="M 12.515625 18.441406 C 11.644531 18.441406 10.796875 18.351562 9.984375 18.183594 L 9.980469 18.351562 C 10.808594 18.519531 11.671875 18.609375 12.558594 18.609375 C 13.40625 18.609375 14.230469 18.527344 15.023438 18.375 L 15.023438 18.1875 C 14.222656 18.351562 13.382812 18.441406 12.515625 18.441406 Z M 12.515625 18.441406 "/>
<path style=" stroke:none;fill-rule:nonzero;fill:rgb(99.215686%,99.607843%,99.607843%);fill-opacity:1;" d="M 22.789062 11.527344 C 22.449219 12.851562 21.753906 14.066406 20.785156 15.09375 L 20.871094 15.140625 L 20.875 15.347656 C 21.828125 14.382812 22.542969 13.246094 22.9375 12.003906 L 22.933594 11.585938 Z M 22.789062 11.527344 "/>
<path style=" stroke:none;fill-rule:nonzero;fill:rgb(100%,100%,100%);fill-opacity:1;" d="M 20.222656 3.378906 C 20.203125 3.363281 20.183594 3.347656 20.164062 3.332031 L 20.054688 3.390625 L 19.863281 3.488281 L 18.15625 4.359375 C 18.15625 4.359375 17.96875 4.410156 18.96875 5.71875 C 19.964844 7.027344 20.425781 7.210938 20.425781 7.210938 L 22.277344 6.503906 L 22.511719 6.414062 L 22.621094 6.371094 C 22.082031 5.265625 21.273438 4.246094 20.222656 3.378906 Z M 20.222656 3.378906 "/>
<path style=" stroke:none;fill-rule:nonzero;fill:rgb(0%,0%,0%);fill-opacity:1;" d="M 23.40625 9.738281 C 23.40625 7.335938 22.277344 5.074219 20.222656 3.378906 C 18.175781 1.6875 15.453125 0.753906 12.558594 0.753906 C 9.664062 0.753906 6.945312 1.6875 4.898438 3.378906 C 2.84375 5.074219 1.710938 7.335938 1.710938 9.738281 C 1.710938 9.8125 1.710938 9.890625 1.714844 9.96875 L 1.714844 9.960938 C 1.710938 10.039062 1.710938 10.121094 1.710938 10.199219 C 1.710938 12.726562 2.84375 15.101562 4.894531 16.882812 C 6.941406 18.664062 9.664062 19.644531 12.558594 19.644531 C 15.453125 19.644531 18.175781 18.664062 20.222656 16.882812 C 22.277344 15.101562 23.40625 12.726562 23.40625 10.199219 C 23.40625 10.121094 23.40625 10.042969 23.402344 9.960938 L 23.402344 9.96875 C 23.40625 9.890625 23.40625 9.8125 23.40625 9.738281 Z M 23.175781 9.964844 C 23.175781 10.046875 23.179688 10.125 23.179688 10.199219 C 23.179688 12.660156 22.074219 14.972656 20.074219 16.710938 C 18.066406 18.457031 15.398438 19.417969 12.558594 19.417969 C 9.71875 19.417969 7.050781 18.457031 5.042969 16.710938 C 3.042969 14.972656 1.941406 12.660156 1.941406 10.199219 C 1.941406 10.125 1.941406 10.046875 1.945312 9.964844 L 1.945312 9.960938 C 1.941406 9.886719 1.941406 9.8125 1.941406 9.738281 C 1.941406 4.910156 6.703125 0.980469 12.558594 0.980469 C 18.414062 0.980469 23.179688 4.910156 23.179688 9.738281 C 23.179688 9.8125 23.175781 9.886719 23.175781 9.960938 Z M 23.175781 9.964844 "/>
<path style=" stroke:none;fill-rule:nonzero;fill:rgb(100%,100%,100%);fill-opacity:1;" d="M 9.316406 4.066406 L 9.265625 3.910156 C 8.691406 4.140625 8.160156 4.433594 7.683594 4.773438 L 7.84375 4.878906 C 8.289062 4.5625 8.78125 4.285156 9.316406 4.066406 Z M 9.316406 4.066406 "/>
<path style=" stroke:none;fill-rule:nonzero;fill:rgb(100%,100%,100%);fill-opacity:1;" d="M 12.042969 3.453125 L 12.054688 3.300781 C 11.40625 3.335938 10.785156 3.4375 10.195312 3.597656 L 10.261719 3.742188 C 10.828125 3.585938 11.421875 3.488281 12.042969 3.453125 Z M 12.042969 3.453125 "/>
<path style=" stroke:none;fill-rule:nonzero;fill:rgb(100%,100%,100%);fill-opacity:1;" d="M 7.078125 5.519531 L 6.933594 5.390625 C 6.523438 5.78125 6.171875 6.214844 5.894531 6.683594 L 6.113281 6.742188 C 6.371094 6.300781 6.695312 5.890625 7.078125 5.519531 Z M 7.078125 5.519531 "/>
<path style=" stroke:none;fill-rule:nonzero;fill:rgb(100%,100%,100%);fill-opacity:1;" d="M 14.804688 3.746094 L 14.886719 3.601562 C 14.3125 3.441406 13.703125 3.339844 13.074219 3.304688 L 13.082031 3.457031 C 13.679688 3.496094 14.253906 3.59375 14.804688 3.746094 Z M 14.804688 3.746094 "/>
<path style=" stroke:none;fill-rule:nonzero;fill:rgb(100%,100%,100%);fill-opacity:1;" d="M 18.96875 6.789062 L 19.214844 6.742188 C 18.933594 6.261719 18.578125 5.8125 18.160156 5.410156 L 17.984375 5.527344 C 18.375 5.910156 18.707031 6.332031 18.96875 6.789062 Z M 18.96875 6.789062 "/>
<path style=" stroke:none;fill-rule:nonzero;fill:rgb(100%,100%,100%);fill-opacity:1;" d="M 19.644531 9.148438 L 19.910156 9.183594 C 19.898438 8.625 19.792969 8.085938 19.601562 7.574219 L 19.359375 7.628906 C 19.53125 8.113281 19.632812 8.621094 19.644531 9.148438 Z M 19.644531 9.148438 "/>
<path style=" stroke:none;fill-rule:nonzero;fill:rgb(100%,100%,100%);fill-opacity:1;" d="M 5.71875 7.566406 L 5.503906 7.480469 C 5.308594 7.988281 5.191406 8.519531 5.167969 9.074219 L 5.414062 9.046875 C 5.4375 8.53125 5.542969 8.035156 5.71875 7.566406 Z M 5.71875 7.566406 "/>
<path style=" stroke:none;fill-rule:nonzero;fill:rgb(100%,100%,100%);fill-opacity:1;" d="M 14.570312 14.863281 L 14.617188 15.074219 C 15.296875 14.910156 15.9375 14.671875 16.519531 14.367188 L 16.378906 14.179688 C 15.824219 14.472656 15.21875 14.703125 14.570312 14.863281 Z M 14.570312 14.863281 "/>
<path style=" stroke:none;fill-rule:nonzero;fill:rgb(100%,100%,100%);fill-opacity:1;" d="M 17.28125 13.617188 L 17.421875 13.808594 C 17.941406 13.433594 18.394531 13 18.769531 12.523438 L 18.542969 12.394531 C 18.191406 12.847656 17.765625 13.257812 17.28125 13.617188 Z M 17.28125 13.617188 "/>
<path style=" stroke:none;fill-rule:nonzero;fill:rgb(100%,100%,100%);fill-opacity:1;" d="M 19.582031 10.058594 C 19.496094 10.582031 19.324219 11.082031 19.082031 11.550781 L 19.308594 11.691406 C 19.574219 11.191406 19.757812 10.65625 19.847656 10.097656 Z M 19.582031 10.058594 "/>
<path style=" stroke:none;fill-rule:nonzero;fill:rgb(100%,100%,100%);fill-opacity:1;" d="M 12.527344 15.105469 C 12.164062 15.105469 11.808594 15.085938 11.460938 15.042969 L 11.394531 15.246094 C 11.765625 15.292969 12.148438 15.316406 12.535156 15.316406 C 12.875 15.316406 13.203125 15.296875 13.53125 15.261719 L 13.464844 15.058594 C 13.15625 15.089844 12.84375 15.105469 12.527344 15.105469 Z M 12.527344 15.105469 "/>
<path style=" stroke:none;fill-rule:nonzero;fill:rgb(100%,100%,100%);fill-opacity:1;" d="M 5.457031 9.96875 L 5.210938 10 C 5.289062 10.558594 5.460938 11.09375 5.714844 11.59375 L 5.929688 11.464844 C 5.695312 10.996094 5.535156 10.492188 5.457031 9.96875 Z M 5.457031 9.96875 "/>
<path style=" stroke:none;fill-rule:nonzero;fill:rgb(100%,100%,100%);fill-opacity:1;" d="M 6.441406 12.300781 L 6.214844 12.402344 C 6.570312 12.886719 7.011719 13.324219 7.515625 13.707031 L 7.667969 13.539062 C 7.195312 13.175781 6.78125 12.757812 6.441406 12.300781 Z M 6.441406 12.300781 "/>
<path style=" stroke:none;fill-rule:nonzero;fill:rgb(100%,100%,100%);fill-opacity:1;" d="M 8.550781 14.113281 L 8.394531 14.277344 C 8.960938 14.59375 9.585938 14.84375 10.25 15.023438 L 10.320312 14.820312 C 9.6875 14.652344 9.089844 14.414062 8.550781 14.113281 Z M 8.550781 14.113281 "/>
<path style=" stroke:none;fill-rule:nonzero;fill:rgb(100%,100%,100%);fill-opacity:1;" d="M 15.878906 3.9375 L 15.769531 4.078125 C 16.3125 4.308594 16.816406 4.589844 17.265625 4.921875 L 17.398438 4.777344 C 16.9375 4.449219 16.429688 4.167969 15.878906 3.9375 Z M 15.878906 3.9375 "/>
<path style=" stroke:none;fill-rule:nonzero;fill:rgb(100%,100%,100%);fill-opacity:1;" d="M 19.355469 9.242188 C 19.355469 6.152344 16.296875 3.644531 12.527344 3.644531 C 8.753906 3.644531 5.695312 6.152344 5.695312 9.242188 C 5.695312 12.332031 8.753906 14.835938 12.527344 14.835938 C 16.296875 14.835938 19.355469 12.332031 19.355469 9.242188 Z M 19.355469 9.242188 "/>
<path style=" stroke:none;fill-rule:nonzero;fill:rgb(85.882353%,13.333333%,27.843137%);fill-opacity:1;" d="M 9.394531 12.230469 C 9.464844 12.347656 9.550781 12.476562 9.652344 12.609375 C 9.769531 12.765625 9.863281 12.882812 9.933594 12.964844 C 9.875 13.027344 9.78125 13.144531 9.652344 13.320312 C 9.542969 13.460938 9.460938 13.589844 9.394531 13.699219 C 9.375 13.660156 9.34375 13.613281 9.308594 13.558594 C 9.246094 13.464844 9.167969 13.355469 9.074219 13.230469 C 9.050781 13.203125 8.980469 13.117188 8.859375 12.964844 C 8.9375 12.875 9.039062 12.746094 9.164062 12.582031 C 9.253906 12.457031 9.332031 12.339844 9.394531 12.230469 Z M 9.394531 12.230469 "/>
<path style=" stroke:none;fill-rule:nonzero;fill:rgb(0%,0%,0%);fill-opacity:1;" d="M 11.140625 12.230469 C 11.160156 12.316406 11.191406 12.390625 11.234375 12.457031 C 11.277344 12.523438 11.351562 12.605469 11.460938 12.703125 C 11.566406 12.800781 11.636719 12.875 11.664062 12.929688 C 11.695312 12.980469 11.707031 13.035156 11.707031 13.085938 C 11.707031 13.164062 11.683594 13.226562 11.632812 13.273438 C 11.582031 13.324219 11.523438 13.351562 11.449219 13.351562 C 11.390625 13.351562 11.335938 13.332031 11.285156 13.292969 C 11.234375 13.253906 11.191406 13.199219 11.152344 13.128906 C 11.152344 13.242188 11.167969 13.332031 11.199219 13.402344 C 11.226562 13.46875 11.273438 13.523438 11.339844 13.5625 C 11.402344 13.597656 11.488281 13.621094 11.597656 13.628906 L 11.605469 13.671875 L 10.675781 13.671875 L 10.683594 13.628906 C 10.828125 13.628906 10.941406 13.585938 11.019531 13.503906 C 11.097656 13.417969 11.136719 13.292969 11.132812 13.128906 C 11.097656 13.203125 11.054688 13.257812 11.003906 13.292969 C 10.949219 13.332031 10.890625 13.351562 10.828125 13.351562 C 10.757812 13.351562 10.695312 13.324219 10.644531 13.273438 C 10.59375 13.222656 10.570312 13.164062 10.570312 13.089844 C 10.570312 13.035156 10.582031 12.984375 10.609375 12.9375 C 10.644531 12.871094 10.699219 12.808594 10.78125 12.742188 C 10.859375 12.679688 10.917969 12.625 10.953125 12.582031 C 11.011719 12.519531 11.054688 12.460938 11.078125 12.410156 C 11.105469 12.359375 11.125 12.300781 11.140625 12.230469 Z M 11.140625 12.230469 "/>
<path style=" stroke:none;fill-rule:nonzero;fill:rgb(85.882353%,13.333333%,27.843137%);fill-opacity:1;" d="M 13.070312 13.699219 C 13.042969 13.609375 13.011719 13.523438 12.964844 13.441406 C 12.921875 13.359375 12.832031 13.234375 12.703125 13.066406 C 12.609375 12.9375 12.550781 12.859375 12.53125 12.828125 C 12.492188 12.773438 12.46875 12.722656 12.453125 12.675781 C 12.4375 12.628906 12.425781 12.582031 12.425781 12.539062 C 12.425781 12.449219 12.457031 12.378906 12.515625 12.320312 C 12.574219 12.261719 12.644531 12.230469 12.730469 12.230469 C 12.816406 12.230469 12.890625 12.261719 12.953125 12.324219 C 13 12.367188 13.039062 12.4375 13.070312 12.523438 C 13.09375 12.4375 13.132812 12.371094 13.175781 12.324219 C 13.242188 12.261719 13.316406 12.230469 13.402344 12.230469 C 13.488281 12.230469 13.558594 12.257812 13.617188 12.316406 C 13.675781 12.375 13.703125 12.445312 13.703125 12.523438 C 13.703125 12.597656 13.6875 12.667969 13.652344 12.746094 C 13.621094 12.820312 13.550781 12.921875 13.453125 13.042969 C 13.328125 13.207031 13.234375 13.339844 13.175781 13.441406 C 13.128906 13.523438 13.09375 13.609375 13.070312 13.699219 Z M 13.070312 13.699219 "/>
<path style=" stroke:none;fill-rule:nonzero;fill:rgb(0%,0%,0%);fill-opacity:1;" d="M 15.398438 13.671875 L 14.40625 13.671875 L 14.414062 13.632812 C 14.542969 13.605469 14.628906 13.578125 14.671875 13.550781 C 14.734375 13.511719 14.785156 13.453125 14.828125 13.375 C 14.867188 13.296875 14.886719 13.214844 14.886719 13.128906 C 14.886719 13.117188 14.886719 13.097656 14.886719 13.074219 C 14.839844 13.171875 14.78125 13.242188 14.710938 13.285156 C 14.644531 13.332031 14.574219 13.351562 14.503906 13.351562 C 14.410156 13.351562 14.335938 13.320312 14.273438 13.257812 C 14.207031 13.195312 14.175781 13.117188 14.175781 13.023438 C 14.175781 12.933594 14.207031 12.859375 14.265625 12.796875 C 14.320312 12.734375 14.386719 12.703125 14.460938 12.703125 C 14.507812 12.703125 14.570312 12.722656 14.652344 12.761719 C 14.617188 12.707031 14.597656 12.667969 14.589844 12.640625 C 14.578125 12.609375 14.574219 12.582031 14.574219 12.550781 C 14.574219 12.460938 14.605469 12.382812 14.664062 12.324219 C 14.726562 12.261719 14.804688 12.230469 14.898438 12.230469 C 14.988281 12.230469 15.066406 12.261719 15.128906 12.324219 C 15.191406 12.382812 15.222656 12.457031 15.222656 12.542969 C 15.222656 12.613281 15.195312 12.6875 15.144531 12.761719 C 15.207031 12.730469 15.25 12.714844 15.261719 12.710938 C 15.28125 12.703125 15.304688 12.699219 15.332031 12.699219 C 15.410156 12.699219 15.476562 12.730469 15.535156 12.792969 C 15.59375 12.855469 15.621094 12.929688 15.621094 13.019531 C 15.621094 13.113281 15.589844 13.191406 15.527344 13.257812 C 15.464844 13.320312 15.390625 13.351562 15.300781 13.351562 C 15.25 13.351562 15.199219 13.339844 15.148438 13.316406 C 15.097656 13.292969 15.050781 13.261719 15.015625 13.21875 C 14.988281 13.191406 14.953125 13.144531 14.910156 13.074219 C 14.914062 13.199219 14.933594 13.296875 14.96875 13.367188 C 15.003906 13.441406 15.058594 13.5 15.128906 13.546875 C 15.175781 13.582031 15.265625 13.609375 15.390625 13.632812 Z M 15.398438 13.671875 "/>
<path style=" stroke:none;fill-rule:nonzero;fill:rgb(0%,0%,0%);fill-opacity:1;" d="M 7.644531 7.132812 L 12.140625 7.132812 L 12.140625 7.363281 L 7.644531 7.363281 Z M 7.644531 7.132812 "/>
<path style=" stroke:none;fill-rule:nonzero;fill:rgb(0%,0%,0%);fill-opacity:1;" d="M 13.277344 7.132812 L 17.445312 7.132812 L 17.445312 7.363281 L 13.277344 7.363281 Z M 13.277344 7.132812 "/>
<path style=" stroke:none;fill-rule:nonzero;fill:rgb(0%,0%,0%);fill-opacity:1;" d="M 7.464844 11.601562 L 17.695312 11.601562 L 17.695312 11.828125 L 7.464844 11.828125 Z M 7.464844 11.601562 "/>
<path style=" stroke:none;fill-rule:nonzero;fill:rgb(85.882353%,13.333333%,27.843137%);fill-opacity:1;" d="M 9.339844 5.363281 L 9.054688 6.761719 L 8.894531 6.761719 L 8.804688 6 L 8.652344 6.761719 L 8.488281 6.761719 L 8.328125 5.363281 L 8.574219 5.363281 L 8.671875 6.210938 L 8.832031 5.363281 L 8.980469 5.363281 L 9.074219 6.214844 L 9.242188 5.363281 Z M 9.339844 5.363281 "/>
<path style=" stroke:none;fill-rule:nonzero;fill:rgb(85.882353%,13.333333%,27.843137%);fill-opacity:1;" d="M 9.753906 5.339844 C 10 5.339844 10.117188 5.578125 10.105469 6.0625 C 10.09375 6.542969 9.957031 6.785156 9.703125 6.785156 C 9.445312 6.785156 9.328125 6.539062 9.34375 6.046875 C 9.359375 5.574219 9.496094 5.339844 9.753906 5.339844 Z M 9.742188 5.449219 C 9.695312 5.449219 9.664062 5.492188 9.644531 5.578125 C 9.625 5.660156 9.613281 5.824219 9.605469 6.0625 C 9.597656 6.300781 9.601562 6.460938 9.613281 6.546875 C 9.628906 6.632812 9.660156 6.671875 9.707031 6.671875 C 9.753906 6.671875 9.785156 6.632812 9.804688 6.546875 C 9.824219 6.460938 9.835938 6.300781 9.84375 6.0625 C 9.851562 5.824219 9.847656 5.660156 9.832031 5.578125 C 9.820312 5.492188 9.789062 5.449219 9.742188 5.449219 Z M 9.742188 5.449219 "/>
<path style=" stroke:none;fill-rule:nonzero;fill:rgb(85.882353%,13.333333%,27.843137%);fill-opacity:1;" d="M 10.199219 6.761719 L 10.234375 5.363281 L 10.601562 5.363281 C 10.695312 5.363281 10.769531 5.398438 10.828125 5.464844 C 10.882812 5.527344 10.910156 5.617188 10.90625 5.726562 C 10.90625 5.898438 10.839844 6.007812 10.714844 6.058594 C 10.777344 6.097656 10.820312 6.136719 10.835938 6.183594 C 10.855469 6.230469 10.867188 6.320312 10.871094 6.449219 C 10.875 6.605469 10.890625 6.710938 10.914062 6.761719 L 10.640625 6.761719 C 10.625 6.695312 10.617188 6.617188 10.621094 6.519531 L 10.621094 6.332031 C 10.625 6.171875 10.585938 6.089844 10.507812 6.089844 L 10.464844 6.089844 L 10.449219 6.761719 Z M 10.46875 5.972656 L 10.519531 5.972656 C 10.613281 5.972656 10.660156 5.894531 10.664062 5.734375 C 10.667969 5.574219 10.621094 5.492188 10.527344 5.492188 L 10.476562 5.492188 Z M 10.46875 5.972656 "/>
<path style=" stroke:none;fill-rule:nonzero;fill:rgb(85.882353%,13.333333%,27.843137%);fill-opacity:1;" d="M 11.289062 5.363281 L 11.269531 6.621094 L 11.625 6.621094 L 11.625 6.761719 L 11.015625 6.761719 L 11.042969 5.363281 Z M 11.289062 5.363281 "/>
<path style=" stroke:none;fill-rule:nonzero;fill:rgb(85.882353%,13.333333%,27.843137%);fill-opacity:1;" d="M 11.675781 6.761719 L 11.691406 5.363281 L 12.042969 5.363281 C 12.296875 5.363281 12.421875 5.597656 12.417969 6.0625 C 12.417969 6.527344 12.285156 6.761719 12.019531 6.761719 Z M 11.925781 6.644531 L 11.992188 6.644531 C 12.054688 6.644531 12.09375 6.601562 12.117188 6.519531 C 12.140625 6.433594 12.15625 6.28125 12.15625 6.0625 C 12.15625 5.84375 12.148438 5.691406 12.125 5.605469 C 12.101562 5.523438 12.0625 5.480469 12.003906 5.480469 L 11.9375 5.480469 Z M 11.925781 6.644531 "/>
<path style=" stroke:none;fill-rule:nonzero;fill:rgb(85.882353%,13.333333%,27.843137%);fill-opacity:1;" d="M 13.472656 5.753906 L 13.355469 5.789062 C 13.363281 5.75 13.363281 5.71875 13.363281 5.695312 C 13.363281 5.53125 13.300781 5.453125 13.179688 5.453125 C 13.085938 5.453125 13.039062 5.507812 13.039062 5.621094 C 13.039062 5.703125 13.09375 5.777344 13.199219 5.835938 C 13.40625 5.953125 13.511719 6.121094 13.511719 6.347656 C 13.511719 6.480469 13.484375 6.585938 13.429688 6.667969 C 13.371094 6.746094 13.292969 6.789062 13.195312 6.789062 C 12.984375 6.789062 12.875 6.652344 12.875 6.382812 C 12.875 6.363281 12.875 6.335938 12.878906 6.304688 L 13 6.261719 C 12.988281 6.320312 12.984375 6.371094 12.984375 6.414062 C 12.984375 6.589844 13.046875 6.675781 13.167969 6.675781 C 13.269531 6.675781 13.316406 6.613281 13.316406 6.488281 C 13.316406 6.394531 13.257812 6.3125 13.140625 6.242188 C 12.96875 6.144531 12.882812 5.980469 12.882812 5.757812 C 12.882812 5.632812 12.910156 5.53125 12.96875 5.457031 C 13.023438 5.378906 13.097656 5.339844 13.1875 5.339844 C 13.375 5.339844 13.46875 5.476562 13.472656 5.753906 Z M 13.472656 5.753906 "/>
<path style=" stroke:none;fill-rule:nonzero;fill:rgb(85.882353%,13.333333%,27.843137%);fill-opacity:1;" d="M 14.164062 5.363281 L 14.167969 5.503906 L 13.863281 5.503906 L 13.867188 5.925781 L 14.125 5.925781 L 14.125 6.066406 L 13.867188 6.066406 L 13.875 6.621094 L 14.234375 6.621094 L 14.234375 6.761719 L 13.625 6.761719 L 13.613281 5.363281 Z M 14.164062 5.363281 "/>
<path style=" stroke:none;fill-rule:nonzero;fill:rgb(85.882353%,13.333333%,27.843137%);fill-opacity:1;" d="M 14.316406 6.761719 L 14.292969 5.363281 L 14.660156 5.363281 C 14.757812 5.363281 14.832031 5.398438 14.890625 5.464844 C 14.949219 5.527344 14.980469 5.617188 14.984375 5.726562 C 14.988281 5.898438 14.925781 6.007812 14.804688 6.058594 C 14.871094 6.097656 14.910156 6.136719 14.929688 6.183594 C 14.949219 6.230469 14.964844 6.320312 14.976562 6.449219 C 14.984375 6.605469 15.003906 6.710938 15.03125 6.761719 L 14.757812 6.761719 C 14.738281 6.695312 14.730469 6.617188 14.726562 6.519531 L 14.726562 6.4375 L 14.722656 6.332031 C 14.71875 6.171875 14.675781 6.089844 14.597656 6.089844 L 14.554688 6.089844 L 14.566406 6.761719 Z M 14.554688 5.972656 L 14.601562 5.972656 C 14.699219 5.972656 14.742188 5.894531 14.738281 5.734375 C 14.738281 5.574219 14.6875 5.492188 14.59375 5.492188 L 14.542969 5.492188 Z M 14.554688 5.972656 "/>
<path style=" stroke:none;fill-rule:nonzero;fill:rgb(85.882353%,13.333333%,27.843137%);fill-opacity:1;" d="M 15.347656 5.363281 L 15.386719 6.761719 L 15.136719 6.761719 L 15.101562 5.363281 Z M 15.347656 5.363281 "/>
<path style=" stroke:none;fill-rule:nonzero;fill:rgb(85.882353%,13.333333%,27.843137%);fill-opacity:1;" d="M 16.046875 5.363281 L 16.050781 5.503906 L 15.75 5.503906 L 15.761719 5.925781 L 16.019531 5.925781 L 16.023438 6.066406 L 15.765625 6.066406 L 15.78125 6.621094 L 16.140625 6.621094 L 16.144531 6.761719 L 15.535156 6.761719 L 15.496094 5.363281 Z M 16.046875 5.363281 "/>
<path style=" stroke:none;fill-rule:nonzero;fill:rgb(85.882353%,13.333333%,27.843137%);fill-opacity:1;" d="M 16.75 5.753906 L 16.636719 5.789062 C 16.640625 5.75 16.640625 5.71875 16.640625 5.695312 C 16.632812 5.53125 16.570312 5.453125 16.449219 5.453125 C 16.355469 5.453125 16.308594 5.507812 16.3125 5.621094 C 16.316406 5.703125 16.371094 5.777344 16.480469 5.835938 C 16.691406 5.953125 16.800781 6.121094 16.808594 6.347656 C 16.816406 6.480469 16.792969 6.585938 16.734375 6.667969 C 16.679688 6.746094 16.605469 6.789062 16.507812 6.789062 C 16.296875 6.789062 16.183594 6.652344 16.175781 6.382812 C 16.175781 6.363281 16.175781 6.335938 16.175781 6.304688 L 16.292969 6.261719 C 16.285156 6.320312 16.28125 6.371094 16.285156 6.414062 C 16.289062 6.589844 16.355469 6.675781 16.476562 6.675781 C 16.578125 6.675781 16.625 6.613281 16.617188 6.488281 C 16.613281 6.394531 16.554688 6.3125 16.433594 6.242188 C 16.261719 6.144531 16.171875 5.980469 16.164062 5.757812 C 16.160156 5.632812 16.183594 5.53125 16.234375 5.457031 C 16.289062 5.378906 16.363281 5.339844 16.453125 5.339844 C 16.640625 5.339844 16.738281 5.476562 16.75 5.753906 Z M 16.75 5.753906 "/>
<path style=" stroke:none;fill-rule:nonzero;fill:rgb(0%,0%,0%);fill-opacity:1;" d="M 7.609375 11.34375 L 7.785156 7.757812 L 8.75 7.757812 C 9.296875 7.757812 9.558594 8.109375 9.539062 8.808594 C 9.515625 9.515625 9.191406 9.871094 8.570312 9.871094 L 8.34375 9.871094 L 8.28125 11.34375 Z M 8.355469 9.542969 L 8.503906 9.542969 C 8.746094 9.542969 8.875 9.292969 8.894531 8.792969 C 8.914062 8.324219 8.800781 8.089844 8.5625 8.089844 L 8.417969 8.089844 Z M 8.355469 9.542969 "/>
<path style=" stroke:none;fill-rule:nonzero;fill:rgb(0%,0%,0%);fill-opacity:1;" d="M 10.699219 7.691406 C 11.351562 7.691406 11.667969 8.308594 11.65625 9.546875 C 11.640625 10.785156 11.292969 11.402344 10.605469 11.402344 C 9.921875 11.402344 9.597656 10.769531 9.636719 9.503906 C 9.671875 8.296875 10.027344 7.691406 10.699219 7.691406 Z M 10.675781 7.976562 C 10.554688 7.976562 10.472656 8.085938 10.421875 8.300781 C 10.375 8.519531 10.34375 8.933594 10.328125 9.546875 C 10.316406 10.160156 10.328125 10.574219 10.367188 10.792969 C 10.40625 11.007812 10.488281 11.117188 10.613281 11.117188 C 10.738281 11.117188 10.824219 11.007812 10.871094 10.792969 C 10.917969 10.574219 10.949219 10.160156 10.960938 9.546875 C 10.96875 8.9375 10.957031 8.519531 10.917969 8.304688 C 10.878906 8.085938 10.796875 7.976562 10.675781 7.976562 Z M 10.675781 7.976562 "/>
<path style=" stroke:none;fill-rule:nonzero;fill:rgb(0%,0%,0%);fill-opacity:1;" d="M 13.6875 7.757812 L 13.132812 8.886719 L 13.996094 11.34375 L 13.25 11.34375 L 12.707031 9.769531 L 12.609375 9.9375 L 12.609375 11.34375 L 11.9375 11.34375 L 11.964844 7.757812 L 12.613281 7.757812 L 12.613281 9.351562 L 13.382812 7.757812 Z M 13.6875 7.757812 "/>
<path style=" stroke:none;fill-rule:nonzero;fill:rgb(0%,0%,0%);fill-opacity:1;" d="M 15.566406 7.757812 L 15.574219 8.117188 L 14.777344 8.117188 L 14.796875 9.199219 L 15.480469 9.199219 L 15.488281 9.558594 L 14.804688 9.558594 L 14.832031 10.980469 L 15.792969 10.980469 L 15.804688 11.34375 L 14.167969 11.34375 L 14.121094 7.757812 Z M 15.566406 7.757812 "/>
<path style=" stroke:none;fill-rule:nonzero;fill:rgb(0%,0%,0%);fill-opacity:1;" d="M 16.019531 11.34375 L 15.910156 7.757812 L 16.871094 7.757812 C 17.121094 7.757812 17.324219 7.84375 17.480469 8.011719 C 17.640625 8.179688 17.726562 8.40625 17.738281 8.691406 C 17.761719 9.125 17.609375 9.40625 17.289062 9.539062 C 17.460938 9.636719 17.574219 9.746094 17.628906 9.863281 C 17.683594 9.980469 17.730469 10.207031 17.765625 10.542969 C 17.804688 10.945312 17.859375 11.214844 17.933594 11.34375 L 17.203125 11.34375 C 17.148438 11.175781 17.117188 10.96875 17.109375 10.71875 L 17.097656 10.507812 L 17.082031 10.242188 C 17.066406 9.828125 16.949219 9.621094 16.738281 9.621094 L 16.625 9.621094 L 16.6875 11.34375 Z M 16.613281 9.320312 L 16.75 9.320312 C 17 9.320312 17.113281 9.117188 17.097656 8.703125 C 17.082031 8.292969 16.949219 8.089844 16.699219 8.089844 L 16.570312 8.089844 Z M 16.613281 9.320312 "/>
<path style=" stroke:none;fill-rule:nonzero;fill:rgb(0%,0%,0%);fill-opacity:1;" d="M 12.546875 6.902344 C 12.664062 6.902344 12.71875 7.015625 12.71875 7.234375 C 12.71875 7.453125 12.660156 7.566406 12.542969 7.566406 C 12.425781 7.566406 12.367188 7.453125 12.367188 7.226562 C 12.367188 7.011719 12.429688 6.902344 12.546875 6.902344 Z M 12.542969 6.953125 C 12.523438 6.953125 12.507812 6.972656 12.5 7.011719 C 12.492188 7.050781 12.488281 7.125 12.488281 7.234375 C 12.488281 7.34375 12.492188 7.417969 12.5 7.457031 C 12.507812 7.496094 12.519531 7.511719 12.542969 7.511719 C 12.5625 7.511719 12.578125 7.496094 12.585938 7.457031 C 12.59375 7.417969 12.597656 7.34375 12.597656 7.234375 C 12.597656 7.125 12.59375 7.050781 12.585938 7.011719 C 12.578125 6.972656 12.566406 6.953125 12.542969 6.953125 Z M 12.542969 6.953125 "/>
<path style=" stroke:none;fill-rule:nonzero;fill:rgb(0%,0%,0%);fill-opacity:1;" d="M 13.027344 6.917969 L 13.027344 6.980469 L 12.886719 6.980469 L 12.886719 7.191406 L 13.007812 7.191406 L 13.007812 7.257812 L 12.886719 7.257812 L 12.886719 7.554688 L 12.769531 7.554688 L 12.769531 6.917969 Z M 13.027344 6.917969 "/>
</g>
</svg>
