<?xml version="1.0" encoding="UTF-8"?>
<svg xmlns="http://www.w3.org/2000/svg" xmlns:xlink="http://www.w3.org/1999/xlink" width="25pt" height="25pt" viewBox="0 0 25 25" version="1.1">
<g id="surface1">
<path style=" stroke:none;fill-rule:nonzero;fill:rgb(92.941176%,10.980392%,14.117647%);fill-opacity:1;" d="M 15.199219 6.441406 C 15.222656 6.332031 15.234375 6.222656 15.234375 6.089844 L 15.234375 3.652344 C 15.234375 3.519531 15.210938 3.390625 15.183594 3.246094 L 16.402344 3.246094 L 16.402344 3.542969 C 16.371094 3.527344 16.347656 3.519531 16.296875 3.519531 L 15.882812 3.519531 L 15.882812 4.597656 L 16.109375 4.597656 C 16.199219 4.597656 16.296875 4.578125 16.328125 4.570312 L 16.328125 4.902344 C 16.285156 4.894531 16.195312 4.871094 16.113281 4.871094 L 15.882812 4.871094 L 15.882812 6.132812 C 16.054688 6.132812 16.160156 6.125 16.324219 6.117188 C 16.371094 6.117188 16.410156 6.109375 16.457031 6.109375 L 16.457031 6.441406 "/>
<path style=" stroke:none;fill-rule:nonzero;fill:rgb(92.941176%,10.980392%,14.117647%);fill-opacity:1;" d="M 10.953125 3.558594 L 10.953125 6.164062 L 11.125 6.164062 C 11.21875 6.164062 11.292969 6.074219 11.292969 5.96875 L 11.292969 3.726562 C 11.292969 3.632812 11.234375 3.558594 11.132812 3.558594 Z M 11.46875 3.242188 C 11.800781 3.242188 11.941406 3.34375 11.941406 3.636719 L 11.941406 6.015625 C 11.941406 6.355469 11.84375 6.441406 11.488281 6.441406 L 10.269531 6.441406 C 10.292969 6.332031 10.304688 6.222656 10.304688 6.089844 L 10.304688 3.59375 C 10.304688 3.460938 10.28125 3.371094 10.253906 3.242188 "/>
<path style=" stroke:none;fill-rule:nonzero;fill:rgb(92.941176%,10.980392%,14.117647%);fill-opacity:1;" d="M 8.890625 6.441406 C 8.914062 6.332031 8.925781 6.222656 8.925781 6.089844 L 8.925781 3.652344 C 8.925781 3.519531 8.898438 3.34375 8.875 3.246094 L 9.605469 3.246094 C 9.589844 3.328125 9.574219 3.445312 9.574219 3.585938 L 9.574219 6.132812 C 9.746094 6.132812 9.851562 6.125 10.015625 6.117188 C 10.058594 6.117188 10.101562 6.109375 10.148438 6.109375 L 10.148438 6.441406 "/>
<path style=" stroke:none;fill-rule:nonzero;fill:rgb(92.941176%,10.980392%,14.117647%);fill-opacity:1;" d="M 7.660156 3.550781 L 7.660156 4.648438 L 7.785156 4.648438 C 7.949219 4.648438 8 4.503906 8 4.390625 L 8 3.738281 C 8 3.636719 7.933594 3.550781 7.824219 3.550781 Z M 7.660156 4.945312 L 7.660156 6.09375 C 7.660156 6.261719 7.691406 6.367188 7.722656 6.441406 L 6.976562 6.441406 C 7 6.332031 7.007812 6.222656 7.007812 6.089844 L 7.007812 3.652344 C 7.007812 3.519531 6.984375 3.390625 6.957031 3.242188 L 8.117188 3.242188 C 8.511719 3.242188 8.648438 3.347656 8.648438 3.652344 L 8.648438 4.367188 C 8.648438 4.640625 8.492188 4.722656 8.230469 4.785156 C 8.484375 4.824219 8.648438 4.894531 8.648438 5.148438 L 8.648438 6.117188 C 8.648438 6.253906 8.6875 6.359375 8.71875 6.441406 L 8 6.441406 L 8 5.203125 C 8 5.011719 7.902344 4.945312 7.773438 4.945312 "/>
<path style=" stroke:none;fill-rule:nonzero;fill:rgb(92.941176%,10.980392%,14.117647%);fill-opacity:1;" d="M 5.746094 3.671875 L 5.746094 5.984375 C 5.746094 6.128906 5.796875 6.1875 5.917969 6.1875 C 6.046875 6.1875 6.082031 6.132812 6.082031 5.992188 L 6.082031 3.667969 C 6.082031 3.542969 6.023438 3.503906 5.910156 3.503906 C 5.796875 3.503906 5.746094 3.542969 5.746094 3.671875 Z M 5.09375 3.621094 C 5.09375 3.257812 5.308594 3.207031 5.929688 3.207031 C 6.550781 3.207031 6.734375 3.265625 6.734375 3.640625 L 6.734375 6.003906 C 6.734375 6.378906 6.652344 6.484375 5.90625 6.484375 C 5.207031 6.484375 5.09375 6.390625 5.09375 6.027344 "/>
<path style=" stroke:none;fill-rule:nonzero;fill:rgb(92.941176%,10.980392%,14.117647%);fill-opacity:1;" d="M 3.316406 6.441406 L 2.53125 6.441406 C 2.53125 6.441406 2.542969 6.351562 2.511719 6.183594 L 2.125 3.484375 C 2.113281 3.394531 2.066406 3.246094 2.066406 3.246094 L 2.785156 3.246094 C 2.785156 3.246094 2.78125 3.382812 2.789062 3.464844 L 3.078125 5.855469 L 3.269531 3.488281 C 3.28125 3.394531 3.253906 3.246094 3.253906 3.246094 L 4.007812 3.246094 C 4.007812 3.246094 4.007812 3.386719 4.015625 3.46875 L 4.304688 5.816406 L 4.511719 3.472656 C 4.519531 3.382812 4.507812 3.246094 4.507812 3.246094 L 4.925781 3.246094 C 4.925781 3.246094 4.890625 3.394531 4.882812 3.484375 L 4.515625 6.441406 L 3.765625 6.441406 L 3.5 4.367188 "/>
<path style=" stroke:none;fill-rule:nonzero;fill:rgb(92.941176%,10.980392%,14.117647%);fill-opacity:1;" d="M 14.957031 6.054688 C 14.957031 6.417969 14.734375 6.484375 14.113281 6.484375 C 13.738281 6.484375 13.523438 6.464844 13.316406 6.4375 L 13.316406 5.257812 L 13.902344 5.257812 L 13.902344 5.988281 C 13.902344 6.105469 13.960938 6.1875 14.113281 6.1875 C 14.269531 6.1875 14.308594 6.113281 14.308594 5.992188 L 14.308594 5.355469 C 14.308594 5.128906 14.03125 5.0625 13.835938 4.984375 C 13.53125 4.867188 13.316406 4.859375 13.316406 4.414062 L 13.316406 3.621094 C 13.316406 3.253906 13.550781 3.203125 14.171875 3.203125 C 14.507812 3.203125 14.757812 3.226562 14.941406 3.242188 L 14.941406 4.394531 L 14.363281 4.394531 L 14.363281 3.65625 C 14.363281 3.527344 14.308594 3.496094 14.171875 3.496094 C 14.03125 3.496094 13.96875 3.527344 13.96875 3.667969 L 13.96875 4.285156 C 13.96875 4.554688 14.253906 4.609375 14.464844 4.683594 C 14.703125 4.765625 14.957031 4.847656 14.957031 5.101562 "/>
<path style=" stroke:none;fill-rule:nonzero;fill:rgb(92.941176%,10.980392%,14.117647%);fill-opacity:1;" d="M 17.28125 3.550781 L 17.28125 4.648438 L 17.40625 4.648438 C 17.570312 4.648438 17.621094 4.503906 17.621094 4.390625 L 17.621094 3.738281 C 17.621094 3.636719 17.554688 3.550781 17.445312 3.550781 Z M 17.28125 4.945312 L 17.28125 6.09375 C 17.28125 6.261719 17.3125 6.367188 17.34375 6.441406 L 16.597656 6.441406 C 16.621094 6.332031 16.628906 6.222656 16.628906 6.089844 L 16.628906 3.652344 C 16.628906 3.519531 16.605469 3.390625 16.578125 3.242188 L 17.738281 3.242188 C 18.132812 3.242188 18.269531 3.347656 18.269531 3.652344 L 18.269531 4.367188 C 18.269531 4.640625 18.113281 4.722656 17.851562 4.785156 C 18.105469 4.824219 18.269531 4.894531 18.269531 5.148438 L 18.269531 6.117188 C 18.269531 6.253906 18.308594 6.359375 18.339844 6.441406 L 17.621094 6.441406 L 17.621094 5.203125 C 17.621094 5.011719 17.523438 4.945312 17.394531 4.945312 "/>
<path style=" stroke:none;fill-rule:nonzero;fill:rgb(92.941176%,10.980392%,14.117647%);fill-opacity:1;" d="M 19.195312 6.085938 C 19.195312 6.253906 19.222656 6.359375 19.246094 6.441406 L 18.511719 6.441406 C 18.535156 6.332031 18.546875 6.222656 18.546875 6.089844 L 18.546875 3.617188 C 18.546875 3.488281 18.527344 3.367188 18.496094 3.246094 L 19.238281 3.246094 C 19.21875 3.355469 19.195312 3.492188 19.195312 3.617188 "/>
<path style=" stroke:none;fill-rule:nonzero;fill:rgb(92.941176%,10.980392%,14.117647%);fill-opacity:1;" d="M 19.4375 6.441406 C 19.460938 6.332031 19.46875 6.222656 19.46875 6.089844 L 19.46875 3.652344 C 19.46875 3.519531 19.449219 3.390625 19.421875 3.246094 L 20.640625 3.246094 L 20.640625 3.542969 C 20.605469 3.527344 20.582031 3.519531 20.535156 3.519531 L 20.121094 3.519531 L 20.121094 4.597656 L 20.347656 4.597656 C 20.4375 4.597656 20.535156 4.578125 20.566406 4.570312 L 20.566406 4.902344 C 20.523438 4.894531 20.433594 4.871094 20.351562 4.871094 L 20.121094 4.871094 L 20.121094 6.132812 C 20.289062 6.132812 20.394531 6.125 20.5625 6.117188 C 20.605469 6.117188 20.648438 6.109375 20.695312 6.109375 L 20.695312 6.441406 "/>
<path style=" stroke:none;fill-rule:nonzero;fill:rgb(92.941176%,10.980392%,14.117647%);fill-opacity:1;" d="M 22.507812 6.054688 C 22.507812 6.417969 22.285156 6.484375 21.664062 6.484375 C 21.289062 6.484375 21.074219 6.464844 20.867188 6.4375 L 20.867188 5.257812 L 21.453125 5.257812 L 21.453125 5.988281 C 21.453125 6.105469 21.507812 6.1875 21.664062 6.1875 C 21.820312 6.1875 21.859375 6.113281 21.859375 5.992188 L 21.859375 5.355469 C 21.859375 5.128906 21.582031 5.0625 21.386719 4.984375 C 21.082031 4.867188 20.867188 4.859375 20.867188 4.414062 L 20.867188 3.621094 C 20.867188 3.253906 21.101562 3.203125 21.71875 3.203125 C 22.058594 3.203125 22.308594 3.226562 22.488281 3.242188 L 22.488281 4.394531 L 21.914062 4.394531 L 21.914062 3.65625 C 21.914062 3.527344 21.859375 3.496094 21.71875 3.496094 C 21.582031 3.496094 21.519531 3.527344 21.519531 3.667969 L 21.519531 4.285156 C 21.519531 4.554688 21.804688 4.609375 22.015625 4.683594 C 22.25 4.765625 22.507812 4.847656 22.507812 5.101562 "/>
<path style=" stroke:none;fill-rule:nonzero;fill:rgb(13.72549%,12.156863%,12.54902%);fill-opacity:1;" d="M 12.328125 6.984375 L 12.328125 8.070312 C 12.328125 8.136719 12.351562 8.164062 12.410156 8.164062 C 12.472656 8.164062 12.488281 8.140625 12.488281 8.070312 L 12.488281 6.984375 C 12.488281 6.925781 12.460938 6.90625 12.40625 6.90625 C 12.351562 6.90625 12.328125 6.925781 12.328125 6.984375 Z M 12.023438 6.960938 C 12.023438 6.789062 12.125 6.765625 12.414062 6.765625 C 12.707031 6.765625 12.792969 6.792969 12.792969 6.96875 L 12.792969 8.078125 C 12.792969 8.253906 12.753906 8.304688 12.402344 8.304688 C 12.078125 8.304688 12.023438 8.257812 12.023438 8.089844 "/>
<path style=" stroke:none;fill-rule:nonzero;fill:rgb(13.72549%,12.156863%,12.54902%);fill-opacity:1;" d="M 12.90625 8.285156 C 12.917969 8.234375 12.921875 8.183594 12.921875 8.121094 L 12.921875 6.976562 C 12.921875 6.914062 12.910156 6.855469 12.898438 6.785156 L 13.46875 6.785156 L 13.46875 6.925781 C 13.453125 6.921875 13.4375 6.917969 13.421875 6.917969 C 13.347656 6.914062 13.226562 6.914062 13.226562 6.914062 L 13.226562 7.417969 L 13.328125 7.417969 C 13.371094 7.417969 13.421875 7.410156 13.433594 7.40625 L 13.433594 7.5625 C 13.417969 7.558594 13.367188 7.546875 13.335938 7.546875 L 13.226562 7.546875 L 13.226562 8.113281 C 13.226562 8.179688 13.238281 8.238281 13.257812 8.285156 "/>
<path style=" stroke:none;fill-rule:nonzero;fill:rgb(13.72549%,12.156863%,12.54902%);fill-opacity:1;" d="M 13.984375 7.261719 L 13.984375 7.765625 L 23.632812 7.765625 L 23.632812 7.261719 "/>
<path style=" stroke:none;fill-rule:nonzero;fill:rgb(13.72549%,12.156863%,12.54902%);fill-opacity:1;" d="M 1.144531 7.765625 L 11.402344 7.765625 L 11.402344 7.265625 L 1.144531 7.265625 Z M 1.144531 7.765625 "/>
<path style=" stroke:none;fill-rule:nonzero;fill:rgb(13.72549%,12.156863%,12.54902%);fill-opacity:1;" d="M 2.792969 9.285156 L 2.792969 12.804688 L 3.242188 12.804688 C 3.53125 12.804688 3.644531 12.4375 3.644531 12.148438 L 3.644531 9.753906 C 3.644531 9.503906 3.484375 9.285156 3.207031 9.285156 Z M 2.792969 13.519531 L 2.792969 15.519531 C 2.792969 15.945312 2.910156 16.417969 2.957031 16.542969 L 1.078125 16.542969 C 1.136719 16.269531 1.160156 15.992188 1.160156 15.65625 L 1.160156 9.535156 C 1.160156 9.203125 1.101562 8.878906 1.035156 8.511719 L 3.945312 8.511719 C 4.933594 8.511719 5.28125 8.777344 5.28125 9.535156 L 5.28125 12.367188 C 5.28125 13.265625 4.945312 13.519531 4.324219 13.519531 "/>
<path style=" stroke:none;fill-rule:nonzero;fill:rgb(13.72549%,12.156863%,12.54902%);fill-opacity:1;" d="M 7.453125 9.582031 L 7.453125 15.394531 C 7.453125 15.75 7.582031 15.898438 7.890625 15.898438 C 8.214844 15.898438 8.304688 15.761719 8.304688 15.40625 L 8.304688 9.570312 C 8.304688 9.261719 8.15625 9.15625 7.867188 9.15625 C 7.582031 9.15625 7.453125 9.261719 7.453125 9.582031 Z M 5.820312 9.457031 C 5.820312 8.535156 6.359375 8.410156 7.914062 8.410156 C 9.480469 8.410156 9.941406 8.558594 9.941406 9.503906 L 9.941406 15.441406 C 9.941406 16.382812 9.734375 16.648438 7.855469 16.648438 C 6.109375 16.648438 5.820312 16.40625 5.820312 15.496094 "/>
<path style=" stroke:none;fill-rule:nonzero;fill:rgb(13.72549%,12.156863%,12.54902%);fill-opacity:1;" d="M 15.648438 16.542969 C 15.703125 16.269531 15.726562 15.992188 15.726562 15.65625 L 15.726562 9.535156 C 15.726562 9.203125 15.667969 8.878906 15.601562 8.511719 L 18.660156 8.511719 L 18.660156 9.261719 C 18.582031 9.226562 18.523438 9.203125 18.398438 9.203125 L 17.359375 9.203125 L 17.359375 11.90625 L 17.925781 11.90625 C 18.15625 11.90625 18.398438 11.859375 18.476562 11.835938 L 18.476562 12.679688 C 18.375 12.65625 18.144531 12.597656 17.9375 12.597656 L 17.359375 12.597656 L 17.359375 15.761719 C 17.785156 15.761719 18.050781 15.75 18.464844 15.726562 C 18.582031 15.726562 18.683594 15.703125 18.800781 15.703125 L 18.800781 16.542969 "/>
<path style=" stroke:none;fill-rule:nonzero;fill:rgb(13.72549%,12.156863%,12.54902%);fill-opacity:1;" d="M 12.296875 12.691406 L 12.265625 12.691406 L 12.265625 15.613281 C 12.265625 16.039062 12.34375 16.417969 12.390625 16.542969 L 10.550781 16.542969 C 10.605469 16.269531 10.628906 15.992188 10.628906 15.65625 L 10.628906 9.375 C 10.628906 9.054688 10.574219 8.824219 10.503906 8.511719 L 12.355469 8.511719 C 12.320312 8.664062 12.265625 9.042969 12.265625 9.285156 L 12.265625 12.242188 L 12.285156 12.242188 C 12.285156 12.242188 13.390625 10.007812 13.980469 8.742188 C 14.011719 8.671875 14.058594 8.511719 14.058594 8.511719 L 15.046875 8.511719 L 13.484375 11.445312 L 15.128906 15.980469 C 15.199219 16.1875 15.40625 16.542969 15.40625 16.542969 L 13.472656 16.542969 C 13.453125 16.34375 13.417969 16.140625 13.367188 15.957031 "/>
<path style=" stroke:none;fill-rule:nonzero;fill:rgb(13.72549%,12.156863%,12.54902%);fill-opacity:1;" d="M 20.871094 9.285156 L 20.871094 12.046875 L 21.179688 12.046875 C 21.59375 12.046875 21.722656 11.675781 21.722656 11.390625 L 21.722656 9.753906 C 21.722656 9.503906 21.5625 9.285156 21.285156 9.285156 Z M 20.871094 12.78125 L 20.871094 15.667969 C 20.871094 16.09375 20.949219 16.359375 21.03125 16.542969 L 19.15625 16.542969 C 19.214844 16.269531 19.234375 15.992188 19.234375 15.660156 L 19.234375 9.535156 C 19.234375 9.203125 19.179688 8.882812 19.109375 8.511719 L 22.019531 8.511719 C 23.011719 8.511719 23.355469 8.777344 23.355469 9.535156 L 23.355469 11.332031 C 23.355469 12.023438 22.964844 12.230469 22.308594 12.378906 C 22.941406 12.480469 23.355469 12.65625 23.355469 13.300781 L 23.355469 15.726562 C 23.355469 16.070312 23.449219 16.335938 23.527344 16.542969 L 21.722656 16.542969 L 21.722656 13.4375 C 21.722656 12.953125 21.480469 12.78125 21.15625 12.78125 "/>
<path style=" stroke:none;fill-rule:nonzero;fill:rgb(13.72549%,12.156863%,12.54902%);fill-opacity:1;" d="M 23.652344 8.890625 L 23.6875 8.890625 C 23.726562 8.890625 23.757812 8.875 23.757812 8.839844 C 23.757812 8.8125 23.738281 8.785156 23.6875 8.785156 C 23.671875 8.785156 23.660156 8.789062 23.652344 8.789062 Z M 23.652344 9.054688 L 23.605469 9.054688 L 23.605469 8.757812 C 23.628906 8.753906 23.652344 8.75 23.6875 8.75 C 23.734375 8.75 23.761719 8.757812 23.78125 8.773438 C 23.800781 8.785156 23.808594 8.804688 23.808594 8.835938 C 23.808594 8.875 23.78125 8.898438 23.75 8.90625 L 23.75 8.910156 C 23.777344 8.914062 23.792969 8.9375 23.800781 8.980469 C 23.808594 9.027344 23.816406 9.046875 23.820312 9.054688 L 23.769531 9.054688 C 23.761719 9.046875 23.753906 9.019531 23.75 8.980469 C 23.742188 8.941406 23.722656 8.925781 23.683594 8.925781 L 23.652344 8.925781 M 23.703125 8.671875 C 23.582031 8.671875 23.488281 8.773438 23.488281 8.898438 C 23.488281 9.027344 23.582031 9.125 23.703125 9.128906 C 23.820312 9.128906 23.917969 9.027344 23.917969 8.902344 C 23.917969 8.773438 23.820312 8.671875 23.703125 8.671875 M 23.703125 8.632812 C 23.847656 8.632812 23.964844 8.75 23.964844 8.898438 C 23.964844 9.050781 23.847656 9.167969 23.703125 9.167969 C 23.554688 9.167969 23.4375 9.050781 23.4375 8.898438 C 23.4375 8.75 23.554688 8.632812 23.703125 8.632812 "/>
<path style=" stroke:none;fill-rule:nonzero;fill:rgb(13.72549%,12.156863%,12.54902%);fill-opacity:1;" d="M 1.144531 17.65625 L 23.632812 17.65625 L 23.632812 17.152344 L 1.144531 17.152344 Z M 1.144531 17.65625 "/>
<path style=" stroke:none;fill-rule:nonzero;fill:rgb(92.941176%,10.980392%,14.117647%);fill-opacity:1;" d="M 6.109375 18.152344 L 5.148438 19.972656 L 6.109375 21.796875 L 7.066406 19.972656 Z M 6.109375 18.152344 "/>
<path style=" stroke:none;fill-rule:nonzero;fill:rgb(92.941176%,10.980392%,14.117647%);fill-opacity:1;" d="M 13.460938 18.367188 C 13.03125 18.367188 12.683594 18.714844 12.683594 19.144531 C 12.683594 19.574219 13.734375 20.566406 14.183594 21.546875 C 14.632812 20.566406 15.683594 19.574219 15.683594 19.144531 C 15.683594 18.714844 15.335938 18.367188 14.90625 18.367188 C 14.582031 18.367188 14.300781 18.5625 14.183594 18.84375 C 14.066406 18.5625 13.785156 18.367188 13.460938 18.367188 Z M 13.460938 18.367188 "/>
<path style=" stroke:none;fill-rule:nonzero;fill:rgb(13.72549%,12.156863%,12.54902%);fill-opacity:1;" d="M 18.242188 18.398438 C 17.859375 18.398438 17.546875 18.710938 17.546875 19.09375 C 17.546875 19.246094 17.597656 19.390625 17.683594 19.503906 C 17.714844 19.558594 17.75 19.632812 17.71875 19.667969 C 17.683594 19.710938 17.601562 19.679688 17.5625 19.660156 C 17.554688 19.65625 17.550781 19.652344 17.542969 19.648438 L 17.535156 19.648438 C 17.457031 19.621094 17.375 19.601562 17.289062 19.601562 C 16.90625 19.601562 16.59375 19.914062 16.59375 20.292969 C 16.59375 20.675781 16.90625 20.988281 17.289062 20.988281 C 17.574219 20.988281 17.816406 20.8125 17.921875 20.566406 L 17.941406 20.554688 C 17.941406 20.554688 17.972656 20.492188 18.09375 20.492188 C 18.140625 20.492188 18.167969 20.523438 18.1875 20.570312 C 18.191406 21.027344 17.96875 21.441406 17.179688 21.484375 C 17.09375 21.488281 17.007812 21.488281 16.925781 21.480469 L 16.925781 21.585938 L 19.554688 21.585938 L 19.554688 21.480469 C 19.472656 21.488281 19.390625 21.488281 19.304688 21.484375 C 18.515625 21.441406 18.292969 21.027344 18.296875 20.570312 C 18.3125 20.523438 18.34375 20.492188 18.386719 20.492188 C 18.511719 20.492188 18.539062 20.554688 18.539062 20.554688 L 18.558594 20.566406 C 18.664062 20.8125 18.910156 20.988281 19.195312 20.988281 C 19.578125 20.988281 19.886719 20.675781 19.886719 20.292969 C 19.886719 19.914062 19.578125 19.601562 19.195312 19.601562 C 19.109375 19.601562 19.027344 19.621094 18.949219 19.648438 L 18.941406 19.648438 C 18.933594 19.652344 18.929688 19.65625 18.921875 19.660156 C 18.882812 19.679688 18.800781 19.710938 18.761719 19.667969 C 18.734375 19.632812 18.765625 19.558594 18.796875 19.503906 C 18.882812 19.390625 18.9375 19.246094 18.9375 19.09375 C 18.9375 18.710938 18.625 18.398438 18.242188 18.398438 Z M 18.242188 18.398438 "/>
<path style=" stroke:none;fill-rule:nonzero;fill:rgb(13.72549%,12.156863%,12.54902%);fill-opacity:1;" d="M 9.875 18.367188 C 9.425781 19.179688 8.375 20 8.375 20.359375 C 8.375 20.714844 8.722656 21.003906 9.152344 21.003906 C 9.429688 21.003906 9.671875 20.882812 9.8125 20.707031 C 9.769531 21.105469 9.519531 21.445312 8.808594 21.484375 C 8.722656 21.488281 8.636719 21.488281 8.554688 21.480469 L 8.554688 21.585938 L 11.195312 21.585938 L 11.195312 21.480469 C 11.113281 21.488281 11.03125 21.488281 10.945312 21.484375 C 10.230469 21.445312 9.980469 21.105469 9.941406 20.707031 C 10.082031 20.882812 10.324219 21.003906 10.597656 21.003906 C 11.027344 21.003906 11.375 20.714844 11.375 20.359375 C 11.375 20 10.324219 19.179688 9.875 18.367188 Z M 9.875 18.367188 "/>
</g>
</svg>
