<?xml version="1.0" encoding="UTF-8"?>
<svg xmlns="http://www.w3.org/2000/svg" xmlns:xlink="http://www.w3.org/1999/xlink" width="18pt" height="25pt" viewBox="0 0 18 25" version="1.1">
<g id="surface1">
<path style="fill-rule:nonzero;fill:rgb(100%,100%,100%);fill-opacity:1;stroke-width:0.996733;stroke-linecap:butt;stroke-linejoin:miter;stroke:rgb(0%,0%,0%);stroke-opacity:1;stroke-miterlimit:4;" d="M 6715.001349 -2435.005912 L 6916.980516 -2435.005912 C 6922.86246 -2435.005912 6927.626349 -2430.262006 6927.626349 -2424.393256 L 6927.626349 -2133.841225 C 6927.626349 -2127.972475 6922.86246 -2123.179662 6916.980516 -2123.179662 L 6715.001349 -2123.179662 C 6709.168016 -2123.179662 6704.404127 -2127.972475 6704.404127 -2133.841225 L 6704.404127 -2424.393256 C 6704.404127 -2430.262006 6709.168016 -2435.005912 6715.001349 -2435.005912 Z M 6715.001349 -2435.005912 " transform="matrix(-0.0803571,0,0,-0.0798722,556.723323,-169.543978)"/>
<path style=" stroke:none;fill-rule:nonzero;fill:rgb(0%,0%,0%);fill-opacity:1;" d="M 17.363281 21.324219 L 17.363281 23.839844 L 17.113281 23.839844 L 17.113281 21.324219 Z M 17.363281 21.324219 "/>
<path style=" stroke:none;fill-rule:nonzero;fill:rgb(0%,0%,0%);fill-opacity:1;" d="M 16.375 23.839844 C 16.613281 23.839844 16.808594 23.625 16.808594 23.359375 L 16.808594 21.804688 C 16.808594 21.539062 16.613281 21.324219 16.375 21.324219 L 16.234375 21.324219 C 15.992188 21.324219 15.800781 21.539062 15.800781 21.804688 L 15.800781 23.359375 C 15.800781 23.625 15.992188 23.839844 16.234375 23.839844 Z M 16.300781 23.601562 C 16.160156 23.601562 16.046875 23.496094 16.046875 23.363281 L 16.046875 21.785156 C 16.046875 21.652344 16.160156 21.546875 16.300781 21.546875 C 16.445312 21.546875 16.558594 21.652344 16.558594 21.785156 L 16.558594 23.363281 C 16.558594 23.496094 16.445312 23.601562 16.300781 23.601562 Z M 16.300781 23.601562 "/>
<path style=" stroke:none;fill-rule:nonzero;fill:rgb(0%,0%,0%);fill-opacity:1;" d="M 0.652344 3.660156 L 0.652344 1.144531 L 0.902344 1.144531 L 0.902344 3.660156 Z M 0.652344 3.660156 "/>
<path style=" stroke:none;fill-rule:nonzero;fill:rgb(0%,0%,0%);fill-opacity:1;" d="M 1.644531 1.144531 C 1.402344 1.144531 1.210938 1.359375 1.210938 1.625 L 1.210938 3.179688 C 1.210938 3.445312 1.402344 3.660156 1.644531 3.660156 L 1.785156 3.660156 C 2.023438 3.660156 2.21875 3.445312 2.21875 3.179688 L 2.21875 1.625 C 2.21875 1.359375 2.023438 1.144531 1.785156 1.144531 Z M 1.714844 1.382812 C 1.859375 1.382812 1.972656 1.488281 1.972656 1.621094 L 1.972656 3.199219 C 1.972656 3.332031 1.859375 3.4375 1.714844 3.4375 C 1.574219 3.4375 1.460938 3.332031 1.460938 3.199219 L 1.460938 1.621094 C 1.460938 1.488281 1.574219 1.382812 1.714844 1.382812 Z M 1.714844 1.382812 "/>
<path style=" stroke:none;fill-rule:nonzero;fill:rgb(0%,0%,0%);fill-opacity:1;" d="M 12.515625 12.097656 C 12.746094 11.636719 12.914062 11.164062 12.945312 10.65625 C 12.972656 10.472656 12.859375 10.46875 12.84375 10.597656 C 12.515625 11.84375 10.773438 11.507812 10.832031 10.335938 C 10.878906 9.386719 11.832031 9.179688 12.324219 9.492188 C 12.519531 9.605469 12.511719 9.539062 12.402344 9.417969 C 11.667969 8.605469 12.113281 7.554688 13.105469 7.535156 C 14.183594 7.597656 14.460938 8.722656 13.800781 9.382812 C 13.71875 9.460938 13.539062 9.71875 13.8125 9.539062 C 14.476562 9.070312 15.402344 9.574219 15.382812 10.300781 C 15.347656 11.636719 13.707031 11.738281 13.359375 10.621094 C 13.324219 10.496094 13.226562 10.433594 13.253906 10.644531 C 13.300781 11.023438 13.402344 11.597656 13.691406 12.097656 Z M 12.515625 12.097656 "/>
<path style=" stroke:none;fill-rule:nonzero;fill:rgb(0%,0%,0%);fill-opacity:1;" d="M 4.195312 12.097656 C 4.429688 11.636719 4.597656 11.164062 4.625 10.65625 C 4.652344 10.472656 4.539062 10.46875 4.523438 10.597656 C 4.195312 11.84375 2.453125 11.507812 2.511719 10.335938 C 2.5625 9.386719 3.511719 9.179688 4.003906 9.492188 C 4.203125 9.605469 4.191406 9.539062 4.082031 9.417969 C 3.347656 8.605469 3.792969 7.554688 4.789062 7.535156 C 5.863281 7.597656 6.140625 8.722656 5.480469 9.382812 C 5.398438 9.460938 5.21875 9.71875 5.492188 9.539062 C 6.15625 9.070312 7.082031 9.574219 7.0625 10.300781 C 7.027344 11.636719 5.386719 11.738281 5.039062 10.621094 C 5.003906 10.496094 4.90625 10.433594 4.933594 10.644531 C 4.984375 11.023438 5.082031 11.597656 5.371094 12.097656 Z M 4.195312 12.097656 "/>
<path style=" stroke:none;fill-rule:nonzero;fill:rgb(0%,0%,0%);fill-opacity:1;" d="M 8.351562 9.488281 C 8.582031 9.027344 8.753906 8.554688 8.78125 8.046875 C 8.808594 7.863281 8.695312 7.859375 8.679688 7.992188 C 8.351562 9.234375 6.609375 8.898438 6.667969 7.726562 C 6.71875 6.777344 7.667969 6.574219 8.160156 6.882812 C 8.355469 6.996094 8.347656 6.929688 8.238281 6.808594 C 7.503906 5.996094 7.949219 4.945312 8.941406 4.925781 C 10.019531 4.988281 10.296875 6.113281 9.636719 6.773438 C 9.554688 6.851562 9.375 7.109375 9.648438 6.929688 C 10.3125 6.460938 11.238281 6.964844 11.21875 7.691406 C 11.183594 9.027344 9.542969 9.128906 9.195312 8.011719 C 9.160156 7.886719 9.0625 7.824219 9.089844 8.035156 C 9.136719 8.414062 9.238281 8.988281 9.527344 9.488281 Z M 8.351562 9.488281 "/>
<path style=" stroke:none;fill-rule:nonzero;fill:rgb(0%,0%,0%);fill-opacity:1;" d="M 12.515625 6.878906 C 12.746094 6.417969 12.914062 5.945312 12.945312 5.4375 C 12.972656 5.253906 12.859375 5.25 12.84375 5.382812 C 12.515625 6.625 10.773438 6.289062 10.832031 5.117188 C 10.878906 4.167969 11.832031 3.964844 12.324219 4.273438 C 12.519531 4.386719 12.511719 4.320312 12.402344 4.203125 C 11.667969 3.386719 12.113281 2.335938 13.105469 2.316406 C 14.183594 2.378906 14.460938 3.503906 13.800781 4.164062 C 13.71875 4.246094 13.539062 4.5 13.8125 4.320312 C 14.476562 3.851562 15.402344 4.355469 15.382812 5.082031 C 15.347656 6.417969 13.707031 6.519531 13.359375 5.402344 C 13.324219 5.277344 13.226562 5.214844 13.253906 5.425781 C 13.300781 5.808594 13.402344 6.378906 13.691406 6.878906 Z M 12.515625 6.878906 "/>
<path style=" stroke:none;fill-rule:nonzero;fill:rgb(0%,0%,0%);fill-opacity:1;" d="M 4.195312 6.878906 C 4.429688 6.417969 4.597656 5.945312 4.625 5.4375 C 4.652344 5.253906 4.539062 5.25 4.523438 5.382812 C 4.195312 6.625 2.453125 6.289062 2.511719 5.117188 C 2.5625 4.167969 3.511719 3.964844 4.003906 4.273438 C 4.203125 4.386719 4.191406 4.320312 4.082031 4.203125 C 3.347656 3.386719 3.792969 2.335938 4.789062 2.316406 C 5.863281 2.378906 6.140625 3.503906 5.480469 4.164062 C 5.398438 4.246094 5.21875 4.5 5.492188 4.320312 C 6.15625 3.851562 7.082031 4.355469 7.0625 5.082031 C 7.027344 6.417969 5.386719 6.519531 5.039062 5.402344 C 5.003906 5.277344 4.90625 5.214844 4.933594 5.425781 C 4.984375 5.808594 5.082031 6.378906 5.371094 6.878906 Z M 4.195312 6.878906 "/>
<path style=" stroke:none;fill-rule:nonzero;fill:rgb(0%,0%,0%);fill-opacity:1;" d="M 5.378906 12.886719 C 5.148438 13.347656 4.976562 13.820312 4.949219 14.328125 C 4.921875 14.511719 5.035156 14.515625 5.050781 14.386719 C 5.378906 13.140625 7.121094 13.476562 7.0625 14.648438 C 7.011719 15.597656 6.0625 15.804688 5.570312 15.492188 C 5.375 15.378906 5.382812 15.445312 5.492188 15.566406 C 6.226562 16.378906 5.78125 17.429688 4.785156 17.449219 C 3.710938 17.386719 3.433594 16.261719 4.09375 15.601562 C 4.175781 15.523438 4.355469 15.265625 4.082031 15.445312 C 3.417969 15.914062 2.492188 15.410156 2.511719 14.683594 C 2.546875 13.347656 4.1875 13.25 4.535156 14.363281 C 4.570312 14.488281 4.667969 14.550781 4.640625 14.339844 C 4.59375 13.960938 4.492188 13.386719 4.203125 12.886719 Z M 5.378906 12.886719 "/>
<path style=" stroke:none;fill-rule:nonzero;fill:rgb(0%,0%,0%);fill-opacity:1;" d="M 5.378906 18.105469 C 5.148438 18.566406 4.976562 19.039062 4.949219 19.546875 C 4.921875 19.730469 5.035156 19.734375 5.050781 19.601562 C 5.378906 18.359375 7.121094 18.695312 7.0625 19.867188 C 7.011719 20.816406 6.0625 21.019531 5.570312 20.710938 C 5.375 20.597656 5.382812 20.664062 5.492188 20.785156 C 6.226562 21.597656 5.78125 22.648438 4.785156 22.667969 C 3.710938 22.605469 3.433594 21.480469 4.09375 20.820312 C 4.175781 20.738281 4.355469 20.484375 4.082031 20.664062 C 3.417969 21.132812 2.492188 20.628906 2.511719 19.902344 C 2.546875 18.566406 4.1875 18.464844 4.535156 19.582031 C 4.570312 19.707031 4.667969 19.769531 4.640625 19.558594 C 4.59375 19.179688 4.492188 18.605469 4.203125 18.105469 Z M 5.378906 18.105469 "/>
<path style=" stroke:none;fill-rule:nonzero;fill:rgb(0%,0%,0%);fill-opacity:1;" d="M 13.699219 12.886719 C 13.464844 13.347656 13.296875 13.820312 13.269531 14.328125 C 13.242188 14.511719 13.355469 14.515625 13.371094 14.386719 C 13.699219 13.140625 15.441406 13.476562 15.382812 14.648438 C 15.332031 15.597656 14.382812 15.804688 13.886719 15.492188 C 13.691406 15.378906 13.703125 15.445312 13.8125 15.566406 C 14.546875 16.378906 14.101562 17.429688 13.105469 17.449219 C 12.03125 17.386719 11.753906 16.261719 12.410156 15.601562 C 12.492188 15.523438 12.675781 15.265625 12.402344 15.445312 C 11.734375 15.914062 10.8125 15.410156 10.832031 14.683594 C 10.867188 13.347656 12.503906 13.25 12.855469 14.363281 C 12.890625 14.488281 12.988281 14.550781 12.960938 14.339844 C 12.910156 13.960938 12.8125 13.386719 12.523438 12.886719 Z M 13.699219 12.886719 "/>
<path style=" stroke:none;fill-rule:nonzero;fill:rgb(0%,0%,0%);fill-opacity:1;" d="M 13.699219 18.105469 C 13.464844 18.566406 13.296875 19.039062 13.269531 19.546875 C 13.242188 19.730469 13.355469 19.734375 13.371094 19.601562 C 13.699219 18.359375 15.441406 18.695312 15.382812 19.867188 C 15.332031 20.816406 14.382812 21.019531 13.886719 20.710938 C 13.691406 20.597656 13.703125 20.664062 13.8125 20.785156 C 14.546875 21.597656 14.101562 22.648438 13.105469 22.667969 C 12.03125 22.605469 11.753906 21.480469 12.410156 20.820312 C 12.492188 20.738281 12.675781 20.484375 12.402344 20.664062 C 11.734375 21.132812 10.8125 20.628906 10.832031 19.902344 C 10.867188 18.566406 12.503906 18.464844 12.855469 19.582031 C 12.890625 19.707031 12.988281 19.769531 12.960938 19.558594 C 12.910156 19.179688 12.8125 18.605469 12.523438 18.105469 Z M 13.699219 18.105469 "/>
<path style=" stroke:none;fill-rule:nonzero;fill:rgb(0%,0%,0%);fill-opacity:1;" d="M 9.570312 15.496094 C 9.339844 15.957031 9.171875 16.429688 9.140625 16.9375 C 9.113281 17.121094 9.226562 17.125 9.246094 16.996094 C 9.574219 15.75 11.316406 16.085938 11.253906 17.257812 C 11.207031 18.207031 10.257812 18.414062 9.761719 18.101562 C 9.566406 17.988281 9.578125 18.054688 9.683594 18.175781 C 10.421875 18.988281 9.972656 20.039062 8.980469 20.058594 C 7.90625 19.996094 7.625 18.871094 8.285156 18.210938 C 8.367188 18.132812 8.550781 17.875 8.277344 18.054688 C 7.609375 18.523438 6.6875 18.019531 6.703125 17.292969 C 6.738281 15.957031 8.378906 15.855469 8.730469 16.972656 C 8.761719 17.097656 8.859375 17.160156 8.832031 16.949219 C 8.785156 16.570312 8.683594 15.996094 8.398438 15.496094 Z M 9.570312 15.496094 "/>
<path style=" stroke:none;fill-rule:nonzero;fill:rgb(0%,0%,0%);fill-opacity:1;" d="M 1.097656 6.050781 C 1.195312 5.855469 1.289062 5.671875 1.339844 5.457031 C 1.371094 5.257812 1.304688 5.332031 1.265625 5.464844 C 1.207031 5.648438 1.046875 5.730469 0.894531 5.734375 C 0.625 5.738281 0.488281 5.523438 0.5 5.296875 C 0.46875 5.058594 0.714844 4.886719 0.898438 4.902344 C 1.035156 4.910156 1.15625 4.984375 1.230469 5.042969 C 1.277344 5.066406 1.328125 5.078125 1.257812 5.015625 C 1.121094 4.867188 1.007812 4.777344 1.011719 4.558594 C 1.015625 4.351562 1.191406 4.136719 1.425781 4.144531 C 1.71875 4.152344 1.851562 4.375 1.851562 4.582031 C 1.851562 4.734375 1.777344 4.871094 1.660156 4.957031 C 1.582031 5.019531 1.605469 5.066406 1.691406 5.007812 C 1.773438 4.9375 1.871094 4.90625 1.976562 4.902344 C 2.257812 4.898438 2.367188 5.140625 2.351562 5.363281 C 2.335938 5.574219 2.15625 5.789062 1.917969 5.765625 C 1.707031 5.738281 1.597656 5.5625 1.53125 5.382812 C 1.511719 5.328125 1.476562 5.3125 1.480469 5.394531 C 1.527344 5.796875 1.679688 6.050781 1.679688 6.050781 Z M 1.097656 6.050781 "/>
<path style=" stroke:none;fill-rule:nonzero;fill:rgb(0%,0%,0%);fill-opacity:1;" d="M 16.921875 18.988281 C 16.824219 19.183594 16.730469 19.367188 16.679688 19.582031 C 16.648438 19.78125 16.714844 19.707031 16.753906 19.574219 C 16.8125 19.390625 16.972656 19.308594 17.125 19.304688 C 17.394531 19.300781 17.53125 19.511719 17.519531 19.742188 C 17.550781 19.980469 17.308594 20.148438 17.121094 20.136719 C 16.984375 20.128906 16.863281 20.054688 16.789062 19.996094 C 16.742188 19.96875 16.691406 19.960938 16.761719 20.023438 C 16.898438 20.171875 17.011719 20.261719 17.007812 20.480469 C 17.003906 20.6875 16.828125 20.902344 16.59375 20.894531 C 16.300781 20.886719 16.167969 20.664062 16.167969 20.457031 C 16.167969 20.304688 16.242188 20.167969 16.359375 20.082031 C 16.4375 20.019531 16.414062 19.972656 16.328125 20.03125 C 16.246094 20.101562 16.148438 20.132812 16.042969 20.136719 C 15.761719 20.140625 15.652344 19.898438 15.671875 19.675781 C 15.683594 19.464844 15.863281 19.25 16.101562 19.273438 C 16.3125 19.300781 16.425781 19.476562 16.488281 19.65625 C 16.507812 19.710938 16.542969 19.726562 16.539062 19.644531 C 16.492188 19.238281 16.339844 18.988281 16.339844 18.988281 Z M 16.921875 18.988281 "/>
</g>
</svg>
