<?xml version="1.0" encoding="UTF-8"?>
<svg xmlns="http://www.w3.org/2000/svg" xmlns:xlink="http://www.w3.org/1999/xlink" width="18pt" height="25pt" viewBox="0 0 18 25" version="1.1">
<g id="surface1">
<path style="fill-rule:nonzero;fill:rgb(100%,100%,100%);fill-opacity:1;stroke-width:0.996733;stroke-linecap:butt;stroke-linejoin:miter;stroke:rgb(0%,0%,0%);stroke-opacity:1;stroke-miterlimit:4;" d="M 6715.019324 -2435.009307 L 6916.998491 -2435.009307 C 6922.831824 -2435.009307 6927.595713 -2430.216495 6927.595713 -2424.347745 L 6927.595713 -2133.795714 C 6927.595713 -2127.926964 6922.831824 -2123.183057 6916.998491 -2123.183057 L 6715.019324 -2123.183057 C 6709.13738 -2123.183057 6704.373491 -2127.926964 6704.373491 -2133.795714 L 6704.373491 -2424.347745 C 6704.373491 -2430.216495 6709.13738 -2435.009307 6715.019324 -2435.009307 Z M 6715.019324 -2435.009307 " transform="matrix(0.0803571,0,0,0.0798722,-538.705236,194.528624)"/>
<path style=" stroke:none;fill-rule:nonzero;fill:rgb(83.137255%,0%,0%);fill-opacity:1;" d="M 2.679688 4.617188 C 3.476562 3.84375 4 3 4.5 2.191406 C 4.941406 3.082031 5.570312 3.863281 6.25 4.617188 C 5.523438 5.363281 4.957031 6.164062 4.503906 7.007812 C 4 6.144531 3.46875 5.363281 2.679688 4.617188 Z M 2.679688 4.617188 "/>
<path style=" stroke:none;fill-rule:nonzero;fill:rgb(83.137255%,0%,0%);fill-opacity:1;" d="M 2.679688 9.835938 C 3.476562 9.0625 4 8.21875 4.5 7.40625 C 4.941406 8.300781 5.570312 9.082031 6.25 9.835938 C 5.523438 10.582031 4.957031 11.382812 4.503906 12.226562 C 4 11.363281 3.46875 10.582031 2.679688 9.835938 Z M 2.679688 9.835938 "/>
<path style=" stroke:none;fill-rule:nonzero;fill:rgb(83.137255%,0%,0%);fill-opacity:1;" d="M 2.679688 15.179688 C 3.476562 14.40625 4 13.5625 4.5 12.75 C 4.941406 13.644531 5.570312 14.421875 6.25 15.179688 C 5.523438 15.925781 4.957031 16.726562 4.503906 17.566406 C 4 16.707031 3.46875 15.925781 2.679688 15.179688 Z M 2.679688 15.179688 "/>
<path style=" stroke:none;fill-rule:nonzero;fill:rgb(83.137255%,0%,0%);fill-opacity:1;" d="M 2.679688 20.378906 C 3.476562 19.605469 4 18.761719 4.5 17.949219 C 4.941406 18.84375 5.570312 19.625 6.25 20.378906 C 5.523438 21.125 4.957031 21.925781 4.503906 22.769531 C 4 21.90625 3.46875 21.125 2.679688 20.378906 Z M 2.679688 20.378906 "/>
<path style=" stroke:none;fill-rule:nonzero;fill:rgb(83.137255%,0%,0%);fill-opacity:1;" d="M 7.195312 7.363281 C 7.992188 6.589844 8.515625 5.746094 9.015625 4.933594 C 9.453125 5.828125 10.085938 6.605469 10.765625 7.363281 C 10.039062 8.109375 9.472656 8.910156 9.019531 9.75 C 8.515625 8.890625 7.984375 8.109375 7.195312 7.363281 Z M 7.195312 7.363281 "/>
<path style=" stroke:none;fill-rule:nonzero;fill:rgb(83.137255%,0%,0%);fill-opacity:1;" d="M 7.15625 17.613281 C 7.953125 16.839844 8.476562 15.996094 8.976562 15.183594 C 9.417969 16.078125 10.046875 16.859375 10.730469 17.613281 C 10 18.359375 9.433594 19.160156 8.980469 20.003906 C 8.476562 19.140625 7.945312 18.359375 7.15625 17.613281 Z M 7.15625 17.613281 "/>
<path style=" stroke:none;fill-rule:nonzero;fill:rgb(83.137255%,0%,0%);fill-opacity:1;" d="M 11.640625 4.617188 C 12.4375 3.84375 12.964844 3 13.464844 2.191406 C 13.902344 3.082031 14.53125 3.863281 15.214844 4.617188 C 14.484375 5.363281 13.921875 6.164062 13.464844 7.007812 C 12.960938 6.144531 12.433594 5.363281 11.640625 4.617188 Z M 11.640625 4.617188 "/>
<path style=" stroke:none;fill-rule:nonzero;fill:rgb(83.137255%,0%,0%);fill-opacity:1;" d="M 11.640625 9.835938 C 12.4375 9.0625 12.964844 8.21875 13.464844 7.40625 C 13.902344 8.300781 14.53125 9.082031 15.214844 9.835938 C 14.484375 10.582031 13.921875 11.382812 13.464844 12.226562 C 12.960938 11.363281 12.433594 10.582031 11.640625 9.835938 Z M 11.640625 9.835938 "/>
<path style=" stroke:none;fill-rule:nonzero;fill:rgb(83.137255%,0%,0%);fill-opacity:1;" d="M 11.640625 15.179688 C 12.4375 14.40625 12.964844 13.5625 13.464844 12.75 C 13.902344 13.644531 14.53125 14.421875 15.214844 15.179688 C 14.484375 15.925781 13.921875 16.726562 13.464844 17.566406 C 12.960938 16.707031 12.433594 15.925781 11.640625 15.179688 Z M 11.640625 15.179688 "/>
<path style=" stroke:none;fill-rule:nonzero;fill:rgb(83.137255%,0%,0%);fill-opacity:1;" d="M 11.640625 20.378906 C 12.4375 19.605469 12.964844 18.761719 13.464844 17.949219 C 13.902344 18.84375 14.53125 19.625 15.214844 20.378906 C 14.484375 21.125 13.921875 21.925781 13.464844 22.769531 C 12.960938 21.90625 12.433594 21.125 11.640625 20.378906 Z M 11.640625 20.378906 "/>
<path style=" stroke:none;fill-rule:nonzero;fill:rgb(83.137255%,0%,0%);fill-opacity:1;" d="M 15.863281 19.894531 C 16.191406 19.578125 16.402344 19.234375 16.609375 18.902344 C 16.789062 19.265625 17.046875 19.585938 17.328125 19.894531 C 17.027344 20.203125 16.796875 20.53125 16.609375 20.875 C 16.402344 20.519531 16.1875 20.203125 15.863281 19.894531 Z M 15.863281 19.894531 "/>
<path style=" stroke:none;fill-rule:nonzero;fill:rgb(83.137255%,0%,0%);fill-opacity:1;" d="M 0.691406 5.050781 C 1.015625 4.734375 1.230469 4.386719 1.4375 4.054688 C 1.617188 4.421875 1.875 4.742188 2.152344 5.050781 C 1.855469 5.355469 1.625 5.683594 1.4375 6.03125 C 1.230469 5.675781 1.015625 5.355469 0.691406 5.050781 Z M 0.691406 5.050781 "/>
<path style=" stroke:none;fill-rule:nonzero;fill:rgb(83.137255%,0%,0%);fill-opacity:1;" d="M 0.652344 3.660156 L 0.652344 1.144531 L 0.902344 1.144531 L 0.902344 3.660156 Z M 0.652344 3.660156 "/>
<path style=" stroke:none;fill-rule:nonzero;fill:rgb(83.137255%,0%,0%);fill-opacity:1;" d="M 1.644531 1.144531 C 1.402344 1.144531 1.210938 1.359375 1.210938 1.625 L 1.210938 3.179688 C 1.210938 3.445312 1.402344 3.660156 1.644531 3.660156 L 1.785156 3.660156 C 2.023438 3.660156 2.21875 3.445312 2.21875 3.179688 L 2.21875 1.625 C 2.21875 1.359375 2.023438 1.144531 1.785156 1.144531 Z M 1.714844 1.382812 C 1.859375 1.382812 1.972656 1.488281 1.972656 1.621094 L 1.972656 3.199219 C 1.972656 3.332031 1.859375 3.4375 1.714844 3.4375 C 1.574219 3.4375 1.460938 3.332031 1.460938 3.199219 L 1.460938 1.621094 C 1.460938 1.488281 1.574219 1.382812 1.714844 1.382812 Z M 1.714844 1.382812 "/>
<path style=" stroke:none;fill-rule:nonzero;fill:rgb(83.137255%,0%,0%);fill-opacity:1;" d="M 17.363281 21.324219 L 17.363281 23.839844 L 17.113281 23.839844 L 17.113281 21.324219 Z M 17.363281 21.324219 "/>
<path style=" stroke:none;fill-rule:nonzero;fill:rgb(83.137255%,0%,0%);fill-opacity:1;" d="M 16.375 23.839844 C 16.613281 23.839844 16.808594 23.625 16.808594 23.359375 L 16.808594 21.804688 C 16.808594 21.539062 16.613281 21.324219 16.375 21.324219 L 16.234375 21.324219 C 15.992188 21.324219 15.800781 21.539062 15.800781 21.804688 L 15.800781 23.359375 C 15.800781 23.625 15.992188 23.839844 16.234375 23.839844 Z M 16.300781 23.601562 C 16.160156 23.601562 16.046875 23.496094 16.046875 23.363281 L 16.046875 21.785156 C 16.046875 21.652344 16.160156 21.546875 16.300781 21.546875 C 16.445312 21.546875 16.558594 21.652344 16.558594 21.785156 L 16.558594 23.363281 C 16.558594 23.496094 16.445312 23.601562 16.300781 23.601562 Z M 16.300781 23.601562 "/>
</g>
</svg>
