<?xml version="1.0" encoding="UTF-8"?>
<svg xmlns="http://www.w3.org/2000/svg" xmlns:xlink="http://www.w3.org/1999/xlink" width="18pt" height="25pt" viewBox="0 0 18 25" version="1.1">
<g id="surface1">
<path style="fill-rule:nonzero;fill:rgb(100%,100%,100%);fill-opacity:1;stroke-width:0.996733;stroke-linecap:butt;stroke-linejoin:miter;stroke:rgb(0%,0%,0%);stroke-opacity:1;stroke-miterlimit:4;" d="M 6715.019324 -2435.009307 L 6916.998491 -2435.009307 C 6922.831824 -2435.009307 6927.595713 -2430.216495 6927.595713 -2424.347745 L 6927.595713 -2133.795714 C 6927.595713 -2127.926964 6922.831824 -2123.183057 6916.998491 -2123.183057 L 6715.019324 -2123.183057 C 6709.13738 -2123.183057 6704.373491 -2127.926964 6704.373491 -2133.795714 L 6704.373491 -2424.347745 C 6704.373491 -2430.216495 6709.13738 -2435.009307 6715.019324 -2435.009307 Z M 6715.019324 -2435.009307 " transform="matrix(0.0803571,0,0,0.0798722,-538.705236,194.528624)"/>
<path style=" stroke:none;fill-rule:nonzero;fill:rgb(83.137255%,0%,0%);fill-opacity:1;" d="M 0.652344 3.660156 L 0.652344 1.144531 L 0.902344 1.144531 L 0.902344 3.660156 Z M 0.652344 3.660156 "/>
<path style=" stroke:none;fill-rule:nonzero;fill:rgb(83.137255%,0%,0%);fill-opacity:1;" d="M 1.644531 1.144531 C 1.402344 1.144531 1.210938 1.359375 1.210938 1.625 L 1.210938 3.179688 C 1.210938 3.445312 1.402344 3.660156 1.644531 3.660156 L 1.785156 3.660156 C 2.023438 3.660156 2.21875 3.445312 2.21875 3.179688 L 2.21875 1.625 C 2.21875 1.359375 2.023438 1.144531 1.785156 1.144531 Z M 1.714844 1.382812 C 1.859375 1.382812 1.972656 1.488281 1.972656 1.621094 L 1.972656 3.199219 C 1.972656 3.332031 1.859375 3.4375 1.714844 3.4375 C 1.574219 3.4375 1.460938 3.332031 1.460938 3.199219 L 1.460938 1.621094 C 1.460938 1.488281 1.574219 1.382812 1.714844 1.382812 Z M 1.714844 1.382812 "/>
<path style=" stroke:none;fill-rule:nonzero;fill:rgb(83.137255%,0%,0%);fill-opacity:1;" d="M 17.363281 21.324219 L 17.363281 23.839844 L 17.113281 23.839844 L 17.113281 21.324219 Z M 17.363281 21.324219 "/>
<path style=" stroke:none;fill-rule:nonzero;fill:rgb(83.137255%,0%,0%);fill-opacity:1;" d="M 16.375 23.839844 C 16.613281 23.839844 16.808594 23.625 16.808594 23.359375 L 16.808594 21.804688 C 16.808594 21.539062 16.613281 21.324219 16.375 21.324219 L 16.234375 21.324219 C 15.992188 21.324219 15.800781 21.539062 15.800781 21.804688 L 15.800781 23.359375 C 15.800781 23.625 15.992188 23.839844 16.234375 23.839844 Z M 16.300781 23.601562 C 16.160156 23.601562 16.046875 23.496094 16.046875 23.363281 L 16.046875 21.785156 C 16.046875 21.652344 16.160156 21.546875 16.300781 21.546875 C 16.445312 21.546875 16.558594 21.652344 16.558594 21.785156 L 16.558594 23.363281 C 16.558594 23.496094 16.445312 23.601562 16.300781 23.601562 Z M 16.300781 23.601562 "/>
<path style=" stroke:none;fill-rule:nonzero;fill:rgb(83.137255%,0%,0%);fill-opacity:1;" d="M 0.726562 4.84375 C 0.597656 4.566406 0.582031 4.09375 0.964844 4.027344 C 1.25 3.992188 1.367188 4.125 1.390625 4.328125 C 1.402344 4.386719 1.433594 4.390625 1.445312 4.320312 C 1.460938 4.113281 1.667969 3.992188 1.832031 4.023438 C 2.277344 4.097656 2.25 4.585938 2.105469 4.914062 C 1.886719 5.351562 1.65625 5.628906 1.441406 6.066406 C 1.199219 5.609375 0.917969 5.238281 0.726562 4.84375 Z M 0.726562 4.84375 "/>
<path style=" stroke:none;fill-rule:nonzero;fill:rgb(83.137255%,0%,0%);fill-opacity:1;" d="M 3.496094 2.300781 C 4.070312 2.265625 4.371094 2.75 4.429688 3.136719 C 4.464844 3.195312 4.484375 3.179688 4.496094 3.132812 C 4.523438 2.640625 4.96875 2.234375 5.378906 2.292969 C 6.050781 2.300781 6.457031 3.039062 6.339844 3.667969 C 6.203125 4.433594 5.785156 4.894531 5.472656 5.367188 C 5.117188 5.859375 4.640625 6.570312 4.484375 6.910156 C 4.484375 6.910156 4 6.175781 3.367188 5.308594 C 2.945312 4.730469 2.605469 4.105469 2.574219 3.566406 C 2.539062 2.949219 2.792969 2.398438 3.496094 2.300781 Z M 3.496094 2.300781 "/>
<path style=" stroke:none;fill-rule:nonzero;fill:rgb(83.137255%,0%,0%);fill-opacity:1;" d="M 8.011719 4.910156 C 8.585938 4.875 8.886719 5.359375 8.945312 5.746094 C 8.980469 5.804688 8.996094 5.789062 9.011719 5.742188 C 9.039062 5.25 9.484375 4.84375 9.894531 4.898438 C 10.5625 4.910156 10.96875 5.648438 10.855469 6.277344 C 10.714844 7.039062 10.300781 7.5 9.988281 7.976562 C 9.632812 8.46875 9.152344 9.175781 9 9.519531 C 9 9.519531 8.515625 8.785156 7.882812 7.917969 C 7.457031 7.339844 7.121094 6.714844 7.089844 6.175781 C 7.054688 5.558594 7.308594 5.007812 8.011719 4.910156 Z M 8.011719 4.910156 "/>
<path style=" stroke:none;fill-rule:nonzero;fill:rgb(83.137255%,0%,0%);fill-opacity:1;" d="M 12.460938 2.300781 C 13.035156 2.265625 13.332031 2.75 13.390625 3.136719 C 13.425781 3.195312 13.445312 3.179688 13.460938 3.132812 C 13.488281 2.640625 13.929688 2.234375 14.34375 2.292969 C 15.011719 2.300781 15.417969 3.039062 15.304688 3.667969 C 15.164062 4.433594 14.75 4.894531 14.433594 5.367188 C 14.082031 5.859375 13.601562 6.570312 13.449219 6.910156 C 13.449219 6.910156 12.960938 6.175781 12.328125 5.308594 C 11.90625 4.730469 11.566406 4.105469 11.535156 3.566406 C 11.5 2.949219 11.753906 2.398438 12.460938 2.300781 Z M 12.460938 2.300781 "/>
<path style=" stroke:none;fill-rule:nonzero;fill:rgb(83.137255%,0%,0%);fill-opacity:1;" d="M 12.460938 7.519531 C 13.035156 7.480469 13.332031 7.96875 13.390625 8.355469 C 13.425781 8.414062 13.445312 8.398438 13.460938 8.351562 C 13.488281 7.855469 13.929688 7.453125 14.34375 7.507812 C 15.011719 7.519531 15.417969 8.257812 15.304688 8.882812 C 15.164062 9.648438 14.75 10.109375 14.433594 10.585938 C 14.082031 11.078125 13.601562 11.785156 13.449219 12.128906 C 13.449219 12.128906 12.960938 11.394531 12.328125 10.527344 C 11.90625 9.949219 11.566406 9.324219 11.535156 8.785156 C 11.5 8.167969 11.753906 7.617188 12.460938 7.519531 Z M 12.460938 7.519531 "/>
<path style=" stroke:none;fill-rule:nonzero;fill:rgb(83.137255%,0%,0%);fill-opacity:1;" d="M 3.496094 7.519531 C 4.070312 7.480469 4.371094 7.96875 4.429688 8.355469 C 4.464844 8.414062 4.484375 8.398438 4.496094 8.351562 C 4.523438 7.855469 4.96875 7.453125 5.378906 7.507812 C 6.050781 7.519531 6.457031 8.257812 6.339844 8.882812 C 6.203125 9.648438 5.785156 10.109375 5.472656 10.585938 C 5.117188 11.078125 4.640625 11.785156 4.484375 12.128906 C 4.484375 12.128906 4 11.394531 3.367188 10.527344 C 2.945312 9.949219 2.605469 9.324219 2.574219 8.785156 C 2.539062 8.167969 2.792969 7.617188 3.496094 7.519531 Z M 3.496094 7.519531 "/>
<path style=" stroke:none;fill-rule:nonzero;fill:rgb(83.137255%,0%,0%);fill-opacity:1;" d="M 12.460938 17.457031 C 13.035156 17.492188 13.332031 17.007812 13.390625 16.621094 C 13.425781 16.5625 13.445312 16.578125 13.460938 16.625 C 13.488281 17.117188 13.929688 17.519531 14.34375 17.464844 C 15.011719 17.457031 15.417969 16.71875 15.304688 16.089844 C 15.164062 15.324219 14.75 14.863281 14.433594 14.390625 C 14.082031 13.898438 13.601562 13.1875 13.449219 12.847656 C 13.449219 12.847656 12.960938 13.582031 12.328125 14.445312 C 11.90625 15.023438 11.566406 15.652344 11.535156 16.191406 C 11.5 16.808594 11.753906 17.359375 12.460938 17.457031 Z M 12.460938 17.457031 "/>
<path style=" stroke:none;fill-rule:nonzero;fill:rgb(83.137255%,0%,0%);fill-opacity:1;" d="M 12.460938 22.65625 C 13.035156 22.695312 13.332031 22.207031 13.390625 21.820312 C 13.425781 21.761719 13.445312 21.777344 13.460938 21.824219 C 13.488281 22.320312 13.929688 22.722656 14.34375 22.667969 C 15.011719 22.65625 15.417969 21.917969 15.304688 21.292969 C 15.164062 20.527344 14.75 20.066406 14.433594 19.589844 C 14.082031 19.097656 13.601562 18.390625 13.449219 18.046875 C 13.449219 18.046875 12.960938 18.78125 12.328125 19.648438 C 11.90625 20.226562 11.566406 20.851562 11.535156 21.390625 C 11.5 22.007812 11.753906 22.558594 12.460938 22.65625 Z M 12.460938 22.65625 "/>
<path style=" stroke:none;fill-rule:nonzero;fill:rgb(83.137255%,0%,0%);fill-opacity:1;" d="M 7.976562 20.054688 C 8.546875 20.09375 8.847656 19.605469 8.90625 19.222656 C 8.941406 19.160156 8.960938 19.179688 8.972656 19.226562 C 9 19.71875 9.445312 20.121094 9.855469 20.066406 C 10.527344 20.058594 10.933594 19.316406 10.820312 18.691406 C 10.679688 17.925781 10.265625 17.464844 9.949219 16.992188 C 9.59375 16.5 9.117188 15.789062 8.960938 15.449219 C 8.960938 15.449219 8.476562 16.183594 7.84375 17.046875 C 7.421875 17.625 7.082031 18.25 7.050781 18.792969 C 7.015625 19.40625 7.269531 19.960938 7.976562 20.054688 Z M 7.976562 20.054688 "/>
<path style=" stroke:none;fill-rule:nonzero;fill:rgb(83.137255%,0%,0%);fill-opacity:1;" d="M 3.496094 17.457031 C 4.070312 17.492188 4.371094 17.007812 4.429688 16.621094 C 4.464844 16.5625 4.484375 16.578125 4.496094 16.625 C 4.523438 17.117188 4.96875 17.519531 5.378906 17.464844 C 6.050781 17.457031 6.457031 16.71875 6.339844 16.089844 C 6.203125 15.324219 5.785156 14.863281 5.472656 14.390625 C 5.117188 13.898438 4.640625 13.1875 4.484375 12.847656 C 4.484375 12.847656 4 13.582031 3.367188 14.445312 C 2.945312 15.023438 2.605469 15.652344 2.574219 16.191406 C 2.539062 16.808594 2.792969 17.359375 3.496094 17.457031 Z M 3.496094 17.457031 "/>
<path style=" stroke:none;fill-rule:nonzero;fill:rgb(83.137255%,0%,0%);fill-opacity:1;" d="M 3.496094 22.65625 C 4.070312 22.695312 4.371094 22.207031 4.429688 21.820312 C 4.464844 21.761719 4.484375 21.777344 4.496094 21.824219 C 4.523438 22.320312 4.96875 22.722656 5.378906 22.667969 C 6.050781 22.65625 6.457031 21.917969 6.339844 21.292969 C 6.203125 20.527344 5.785156 20.066406 5.472656 19.589844 C 5.117188 19.097656 4.640625 18.390625 4.484375 18.046875 C 4.484375 18.046875 4 18.78125 3.367188 19.648438 C 2.945312 20.226562 2.605469 20.851562 2.574219 21.390625 C 2.539062 22.007812 2.792969 22.558594 3.496094 22.65625 Z M 3.496094 22.65625 "/>
<path style=" stroke:none;fill-rule:nonzero;fill:rgb(83.137255%,0%,0%);fill-opacity:1;" d="M 15.898438 20.085938 C 15.769531 20.363281 15.757812 20.839844 16.136719 20.902344 C 16.421875 20.941406 16.539062 20.808594 16.5625 20.605469 C 16.574219 20.542969 16.609375 20.539062 16.617188 20.609375 C 16.632812 20.816406 16.84375 20.9375 17.003906 20.90625 C 17.449219 20.832031 17.421875 20.347656 17.277344 20.015625 C 17.058594 19.578125 16.828125 19.304688 16.613281 18.863281 C 16.371094 19.320312 16.09375 19.695312 15.898438 20.085938 Z M 15.898438 20.085938 "/>
</g>
</svg>
