<?xml version="1.0" encoding="UTF-8"?>
<svg xmlns="http://www.w3.org/2000/svg" xmlns:xlink="http://www.w3.org/1999/xlink" width="18pt" height="25pt" viewBox="0 0 18 25" version="1.1">
<g id="surface1">
<path style="fill-rule:nonzero;fill:rgb(100%,100%,100%);fill-opacity:1;stroke-width:0.996733;stroke-linecap:butt;stroke-linejoin:miter;stroke:rgb(0%,0%,0%);stroke-opacity:1;stroke-miterlimit:4;" d="M 6715.001349 -2435.005912 L 6916.980516 -2435.005912 C 6922.86246 -2435.005912 6927.626349 -2430.262006 6927.626349 -2424.393256 L 6927.626349 -2133.841225 C 6927.626349 -2127.972475 6922.86246 -2123.179662 6916.980516 -2123.179662 L 6715.001349 -2123.179662 C 6709.168016 -2123.179662 6704.404127 -2127.972475 6704.404127 -2133.841225 L 6704.404127 -2424.393256 C 6704.404127 -2430.262006 6709.168016 -2435.005912 6715.001349 -2435.005912 Z M 6715.001349 -2435.005912 " transform="matrix(-0.0803571,0,0,-0.0798722,556.723323,-169.543978)"/>
<path style=" stroke:none;fill-rule:nonzero;fill:rgb(0%,0%,0%);fill-opacity:1;" d="M 17.363281 21.324219 L 17.363281 23.839844 L 17.113281 23.839844 L 17.113281 21.324219 Z M 17.363281 21.324219 "/>
<path style=" stroke:none;fill-rule:nonzero;fill:rgb(0%,0%,0%);fill-opacity:1;" d="M 16.375 23.839844 C 16.613281 23.839844 16.808594 23.625 16.808594 23.359375 L 16.808594 21.804688 C 16.808594 21.539062 16.613281 21.324219 16.375 21.324219 L 16.234375 21.324219 C 15.992188 21.324219 15.800781 21.539062 15.800781 21.804688 L 15.800781 23.359375 C 15.800781 23.625 15.992188 23.839844 16.234375 23.839844 Z M 16.300781 23.601562 C 16.160156 23.601562 16.046875 23.496094 16.046875 23.363281 L 16.046875 21.785156 C 16.046875 21.652344 16.160156 21.546875 16.300781 21.546875 C 16.445312 21.546875 16.558594 21.652344 16.558594 21.785156 L 16.558594 23.363281 C 16.558594 23.496094 16.445312 23.601562 16.300781 23.601562 Z M 16.300781 23.601562 "/>
<path style=" stroke:none;fill-rule:nonzero;fill:rgb(0%,0%,0%);fill-opacity:1;" d="M 0.652344 3.660156 L 0.652344 1.144531 L 0.902344 1.144531 L 0.902344 3.660156 Z M 0.652344 3.660156 "/>
<path style=" stroke:none;fill-rule:nonzero;fill:rgb(0%,0%,0%);fill-opacity:1;" d="M 1.644531 1.144531 C 1.402344 1.144531 1.210938 1.359375 1.210938 1.625 L 1.210938 3.179688 C 1.210938 3.445312 1.402344 3.660156 1.644531 3.660156 L 1.785156 3.660156 C 2.023438 3.660156 2.21875 3.445312 2.21875 3.179688 L 2.21875 1.625 C 2.21875 1.359375 2.023438 1.144531 1.785156 1.144531 Z M 1.714844 1.382812 C 1.859375 1.382812 1.972656 1.488281 1.972656 1.621094 L 1.972656 3.199219 C 1.972656 3.332031 1.859375 3.4375 1.714844 3.4375 C 1.574219 3.4375 1.460938 3.332031 1.460938 3.199219 L 1.460938 1.621094 C 1.460938 1.488281 1.574219 1.382812 1.714844 1.382812 Z M 1.714844 1.382812 "/>
<path style=" stroke:none;fill-rule:nonzero;fill:rgb(0%,0%,0%);fill-opacity:1;" d="M 4.292969 5.511719 C 4.296875 5.351562 4.167969 5.347656 4.167969 5.464844 C 4.15625 6.058594 3.652344 6.351562 3.285156 6.28125 C 2.71875 6.175781 2.539062 5.617188 2.546875 5.289062 C 2.5625 4.273438 3.589844 3.527344 4.515625 2.226562 C 5.195312 3.398438 6.316406 4.320312 6.382812 5.230469 C 6.46875 6.433594 4.933594 6.882812 4.714844 5.480469 C 4.699219 5.378906 4.582031 5.335938 4.59375 5.472656 C 4.625 5.859375 4.578125 6.019531 5.015625 6.96875 L 3.871094 6.96875 C 4.125 6.527344 4.277344 5.980469 4.292969 5.511719 Z M 4.292969 5.511719 "/>
<path style=" stroke:none;fill-rule:nonzero;fill:rgb(0%,0%,0%);fill-opacity:1;" d="M 8.769531 8.121094 C 8.773438 7.960938 8.644531 7.957031 8.644531 8.074219 C 8.632812 8.667969 8.128906 8.960938 7.761719 8.890625 C 7.195312 8.785156 7.015625 8.226562 7.023438 7.898438 C 7.039062 6.882812 8.066406 6.136719 8.992188 4.835938 C 9.671875 6.007812 10.792969 6.929688 10.859375 7.839844 C 10.945312 9.042969 9.410156 9.492188 9.191406 8.089844 C 9.179688 7.988281 9.058594 7.945312 9.070312 8.082031 C 9.101562 8.46875 9.054688 8.628906 9.492188 9.578125 L 8.351562 9.578125 C 8.601562 9.132812 8.753906 8.589844 8.769531 8.121094 Z M 8.769531 8.121094 "/>
<path style=" stroke:none;fill-rule:nonzero;fill:rgb(0%,0%,0%);fill-opacity:1;" d="M 13.257812 5.511719 C 13.257812 5.351562 13.128906 5.347656 13.128906 5.464844 C 13.121094 6.058594 12.613281 6.351562 12.246094 6.28125 C 11.683594 6.175781 11.503906 5.617188 11.507812 5.289062 C 11.523438 4.273438 12.550781 3.527344 13.476562 2.226562 C 14.15625 3.398438 15.277344 4.320312 15.34375 5.230469 C 15.433594 6.433594 13.898438 6.882812 13.675781 5.480469 C 13.664062 5.378906 13.546875 5.335938 13.554688 5.472656 C 13.589844 5.859375 13.539062 6.019531 13.976562 6.96875 L 12.835938 6.96875 C 13.089844 6.527344 13.238281 5.980469 13.257812 5.511719 Z M 13.257812 5.511719 "/>
<path style=" stroke:none;fill-rule:nonzero;fill:rgb(0%,0%,0%);fill-opacity:1;" d="M 13.257812 10.730469 C 13.257812 10.570312 13.128906 10.566406 13.128906 10.683594 C 13.121094 11.277344 12.613281 11.570312 12.246094 11.5 C 11.683594 11.394531 11.503906 10.835938 11.507812 10.507812 C 11.523438 9.492188 12.550781 8.746094 13.476562 7.445312 C 14.15625 8.617188 15.277344 9.539062 15.34375 10.445312 C 15.433594 11.652344 13.898438 12.101562 13.675781 10.699219 C 13.664062 10.597656 13.546875 10.554688 13.554688 10.691406 C 13.589844 11.078125 13.539062 11.238281 13.976562 12.1875 L 12.835938 12.1875 C 13.089844 11.742188 13.238281 11.199219 13.257812 10.730469 Z M 13.257812 10.730469 "/>
<path style=" stroke:none;fill-rule:nonzero;fill:rgb(0%,0%,0%);fill-opacity:1;" d="M 4.292969 10.730469 C 4.296875 10.570312 4.167969 10.566406 4.167969 10.683594 C 4.15625 11.277344 3.652344 11.570312 3.285156 11.5 C 2.71875 11.394531 2.539062 10.835938 2.546875 10.507812 C 2.5625 9.492188 3.589844 8.746094 4.515625 7.445312 C 5.195312 8.617188 6.316406 9.539062 6.382812 10.445312 C 6.46875 11.652344 4.933594 12.101562 4.714844 10.699219 C 4.699219 10.597656 4.582031 10.554688 4.59375 10.691406 C 4.625 11.078125 4.578125 11.238281 5.015625 12.1875 L 3.871094 12.1875 C 4.125 11.742188 4.277344 11.199219 4.292969 10.730469 Z M 4.292969 10.730469 "/>
<path style=" stroke:none;fill-rule:nonzero;fill:rgb(0%,0%,0%);fill-opacity:1;" d="M 13.257812 14.257812 C 13.257812 14.417969 13.128906 14.421875 13.132812 14.300781 C 13.121094 13.710938 12.617188 13.417969 12.25 13.488281 C 11.683594 13.59375 11.503906 14.152344 11.507812 14.480469 C 11.523438 15.492188 12.550781 16.242188 13.480469 17.542969 C 14.15625 16.367188 15.277344 15.445312 15.34375 14.539062 C 15.433594 13.332031 13.898438 12.882812 13.679688 14.289062 C 13.664062 14.386719 13.546875 14.433594 13.554688 14.292969 C 13.589844 13.910156 13.542969 13.75 13.980469 12.800781 L 12.835938 12.800781 C 13.089844 13.242188 13.238281 13.789062 13.257812 14.257812 Z M 13.257812 14.257812 "/>
<path style=" stroke:none;fill-rule:nonzero;fill:rgb(0%,0%,0%);fill-opacity:1;" d="M 13.257812 19.472656 C 13.257812 19.636719 13.128906 19.640625 13.132812 19.519531 C 13.121094 18.925781 12.617188 18.636719 12.25 18.703125 C 11.683594 18.8125 11.503906 19.371094 11.507812 19.699219 C 11.523438 20.710938 12.550781 21.460938 13.480469 22.757812 C 14.15625 21.585938 15.277344 20.664062 15.34375 19.757812 C 15.433594 18.550781 13.898438 18.101562 13.679688 19.507812 C 13.664062 19.605469 13.546875 19.652344 13.554688 19.511719 C 13.589844 19.128906 13.542969 18.96875 13.980469 18.015625 L 12.835938 18.015625 C 13.089844 18.460938 13.238281 19.003906 13.257812 19.472656 Z M 13.257812 19.472656 "/>
<path style=" stroke:none;fill-rule:nonzero;fill:rgb(0%,0%,0%);fill-opacity:1;" d="M 8.808594 16.863281 C 8.8125 17.027344 8.683594 17.03125 8.683594 16.910156 C 8.671875 16.320312 8.167969 16.027344 7.800781 16.09375 C 7.234375 16.203125 7.054688 16.761719 7.058594 17.089844 C 7.078125 18.101562 8.105469 18.851562 9.03125 20.152344 C 9.710938 18.976562 10.832031 18.054688 10.898438 17.148438 C 10.984375 15.941406 9.449219 15.492188 9.230469 16.898438 C 9.214844 16.996094 9.097656 17.042969 9.109375 16.902344 C 9.140625 16.519531 9.09375 16.359375 9.53125 15.410156 L 8.386719 15.410156 C 8.640625 15.851562 8.792969 16.398438 8.808594 16.863281 Z M 8.808594 16.863281 "/>
<path style=" stroke:none;fill-rule:nonzero;fill:rgb(0%,0%,0%);fill-opacity:1;" d="M 4.292969 14.257812 C 4.296875 14.417969 4.167969 14.421875 4.167969 14.300781 C 4.15625 13.710938 3.652344 13.417969 3.285156 13.488281 C 2.722656 13.59375 2.539062 14.152344 2.546875 14.480469 C 2.5625 15.492188 3.589844 16.242188 4.515625 17.542969 C 5.195312 16.367188 6.316406 15.445312 6.382812 14.539062 C 6.46875 13.332031 4.933594 12.882812 4.714844 14.289062 C 4.703125 14.386719 4.585938 14.433594 4.59375 14.292969 C 4.625 13.910156 4.578125 13.75 5.015625 12.800781 L 3.875 12.800781 C 4.125 13.242188 4.277344 13.789062 4.292969 14.257812 Z M 4.292969 14.257812 "/>
<path style=" stroke:none;fill-rule:nonzero;fill:rgb(0%,0%,0%);fill-opacity:1;" d="M 4.292969 19.472656 C 4.296875 19.636719 4.167969 19.640625 4.167969 19.519531 C 4.15625 18.925781 3.652344 18.636719 3.285156 18.703125 C 2.722656 18.8125 2.539062 19.371094 2.546875 19.699219 C 2.5625 20.710938 3.589844 21.460938 4.515625 22.757812 C 5.195312 21.585938 6.316406 20.664062 6.382812 19.757812 C 6.46875 18.550781 4.933594 18.101562 4.714844 19.507812 C 4.703125 19.605469 4.585938 19.652344 4.59375 19.511719 C 4.625 19.128906 4.578125 18.96875 5.015625 18.015625 L 3.875 18.015625 C 4.125 18.460938 4.277344 19.003906 4.292969 19.472656 Z M 4.292969 19.472656 "/>
<path style=" stroke:none;fill-rule:nonzero;fill:rgb(0%,0%,0%);fill-opacity:1;" d="M 1.390625 5.621094 C 1.390625 5.550781 1.316406 5.582031 1.308594 5.605469 C 1.214844 5.765625 1.078125 5.800781 0.941406 5.742188 C 0.808594 5.6875 0.734375 5.5625 0.746094 5.382812 C 0.769531 5.109375 0.988281 4.808594 1.09375 4.636719 C 1.195312 4.484375 1.304688 4.300781 1.421875 4.066406 C 1.558594 4.335938 1.628906 4.410156 1.777344 4.65625 C 1.90625 4.871094 2.089844 5.085938 2.101562 5.34375 C 2.101562 5.542969 2.019531 5.730469 1.828125 5.765625 C 1.722656 5.785156 1.621094 5.730469 1.546875 5.601562 C 1.527344 5.570312 1.480469 5.585938 1.480469 5.632812 C 1.496094 5.796875 1.558594 5.949219 1.707031 6.128906 L 1.15625 6.128906 C 1.269531 6 1.382812 5.832031 1.390625 5.621094 Z M 1.390625 5.621094 "/>
<path style=" stroke:none;fill-rule:nonzero;fill:rgb(0%,0%,0%);fill-opacity:1;" d="M 16.5625 19.417969 C 16.5625 19.488281 16.488281 19.457031 16.480469 19.433594 C 16.386719 19.273438 16.25 19.238281 16.113281 19.292969 C 15.980469 19.351562 15.90625 19.476562 15.917969 19.65625 C 15.941406 19.929688 16.160156 20.230469 16.265625 20.402344 C 16.367188 20.554688 16.480469 20.738281 16.59375 20.972656 C 16.730469 20.703125 16.800781 20.628906 16.949219 20.382812 C 17.078125 20.167969 17.261719 19.953125 17.277344 19.695312 C 17.277344 19.496094 17.191406 19.308594 17.003906 19.273438 C 16.894531 19.253906 16.796875 19.308594 16.722656 19.4375 C 16.699219 19.46875 16.652344 19.453125 16.652344 19.40625 C 16.667969 19.238281 16.730469 19.089844 16.882812 18.910156 L 16.328125 18.910156 C 16.441406 19.035156 16.554688 19.207031 16.5625 19.417969 Z M 16.5625 19.417969 "/>
</g>
</svg>
