<?xml version="1.0" encoding="UTF-8"?>
<svg xmlns="http://www.w3.org/2000/svg" xmlns:xlink="http://www.w3.org/1999/xlink" width="18pt" height="25pt" viewBox="0 0 18 25" version="1.1">
<g id="surface1">
<path style="fill-rule:nonzero;fill:rgb(100%,100%,100%);fill-opacity:1;stroke-width:0.996733;stroke-linecap:butt;stroke-linejoin:miter;stroke:rgb(0%,0%,0%);stroke-opacity:1;stroke-miterlimit:4;" d="M 6268.562776 -2746.820338 L 6470.541943 -2746.820338 C 6476.375276 -2746.820338 6481.139165 -2742.027525 6481.139165 -2736.158775 L 6481.139165 -2445.606744 C 6481.139165 -2439.737994 6476.375276 -2434.994088 6470.541943 -2434.994088 L 6268.562776 -2434.994088 C 6262.680832 -2434.994088 6257.916943 -2439.737994 6257.916943 -2445.606744 L 6257.916943 -2736.158775 C 6257.916943 -2742.027525 6262.680832 -2746.820338 6268.562776 -2746.820338 Z M 6268.562776 -2746.820338 " transform="matrix(0.0803571,0,0,0.0798722,-502.829263,219.433658)"/>
<path style=" stroke:none;fill-rule:nonzero;fill:rgb(0%,0%,0%);fill-opacity:1;" d="M 0.695312 3.765625 L 0.710938 3.605469 C 0.75 3.105469 0.859375 2.9375 1.484375 2.417969 C 1.785156 2.164062 1.882812 2.039062 1.898438 1.894531 C 1.9375 1.554688 1.628906 1.449219 1.429688 1.449219 C 1.167969 1.445312 0.871094 1.601562 1.011719 1.960938 L 0.722656 2.046875 C 0.664062 1.710938 0.722656 1.394531 0.996094 1.253906 C 1.363281 1.074219 1.832031 1.144531 2.066406 1.429688 C 2.226562 1.625 2.261719 1.890625 2.175781 2.097656 C 1.929688 2.632812 1.082031 2.867188 1.011719 3.480469 L 1.945312 3.480469 L 1.945312 3.140625 L 2.222656 3.140625 L 2.222656 3.769531 Z M 0.695312 3.765625 "/>
<path style=" stroke:none;fill-rule:nonzero;fill:rgb(0%,0%,0%);fill-opacity:1;" d="M 17.300781 21.21875 L 17.285156 21.382812 C 17.246094 21.878906 17.136719 22.046875 16.511719 22.566406 C 16.210938 22.820312 16.113281 22.945312 16.097656 23.089844 C 16.058594 23.429688 16.367188 23.535156 16.566406 23.539062 C 16.828125 23.539062 17.125 23.382812 16.984375 23.023438 L 17.273438 22.941406 C 17.335938 23.273438 17.273438 23.589844 17 23.730469 C 16.632812 23.910156 16.164062 23.839844 15.929688 23.554688 C 15.769531 23.359375 15.734375 23.09375 15.820312 22.886719 C 16.070312 22.351562 16.914062 22.117188 16.984375 21.503906 L 16.050781 21.503906 L 16.050781 21.847656 L 15.773438 21.847656 L 15.773438 21.214844 Z M 17.300781 21.21875 "/>
<path style=" stroke:none;fill-rule:nonzero;fill:rgb(0%,0%,0%);fill-opacity:1;" d="M 8.414062 6.851562 C 8.648438 6.390625 8.816406 5.917969 8.84375 5.410156 C 8.871094 5.226562 8.757812 5.222656 8.742188 5.351562 C 8.414062 6.597656 6.671875 6.261719 6.730469 5.089844 C 6.78125 4.140625 7.730469 3.933594 8.226562 4.246094 C 8.421875 4.359375 8.410156 4.292969 8.300781 4.171875 C 7.566406 3.355469 8.011719 2.308594 9.007812 2.289062 C 10.082031 2.351562 10.359375 3.476562 9.699219 4.136719 C 9.617188 4.214844 9.4375 4.472656 9.710938 4.292969 C 10.375 3.824219 11.300781 4.328125 11.28125 5.054688 C 11.246094 6.390625 9.609375 6.488281 9.257812 5.375 C 9.222656 5.25 9.125 5.1875 9.152344 5.398438 C 9.203125 5.777344 9.300781 6.351562 9.589844 6.851562 Z M 8.414062 6.851562 "/>
<path style=" stroke:none;fill-rule:nonzero;fill:rgb(0%,0%,0%);fill-opacity:1;" d="M 9.597656 18.167969 C 9.367188 18.628906 9.195312 19.101562 9.167969 19.609375 C 9.140625 19.792969 9.253906 19.796875 9.269531 19.664062 C 9.597656 18.421875 11.339844 18.757812 11.28125 19.929688 C 11.230469 20.878906 10.28125 21.082031 9.789062 20.773438 C 9.59375 20.660156 9.601562 20.726562 9.710938 20.84375 C 10.445312 21.660156 10 22.710938 9.007812 22.730469 C 7.929688 22.667969 7.652344 21.542969 8.3125 20.882812 C 8.394531 20.800781 8.574219 20.546875 8.300781 20.726562 C 7.636719 21.195312 6.710938 20.691406 6.730469 19.964844 C 6.765625 18.628906 8.40625 18.527344 8.753906 19.644531 C 8.789062 19.769531 8.886719 19.832031 8.859375 19.621094 C 8.8125 19.238281 8.710938 18.667969 8.421875 18.167969 Z M 9.597656 18.167969 "/>
<path style=" stroke:none;fill-rule:nonzero;fill:rgb(0%,0%,0%);fill-opacity:1;" d="M 1.140625 6.003906 C 1.238281 5.808594 1.332031 5.625 1.382812 5.410156 C 1.414062 5.210938 1.347656 5.285156 1.308594 5.417969 C 1.25 5.601562 1.089844 5.683594 0.9375 5.6875 C 0.667969 5.691406 0.53125 5.476562 0.542969 5.25 C 0.511719 5.011719 0.757812 4.839844 0.941406 4.855469 C 1.078125 4.863281 1.199219 4.9375 1.273438 4.996094 C 1.320312 5.023438 1.371094 5.03125 1.300781 4.96875 C 1.164062 4.820312 1.050781 4.730469 1.054688 4.511719 C 1.058594 4.304688 1.234375 4.089844 1.46875 4.097656 C 1.761719 4.105469 1.894531 4.328125 1.894531 4.535156 C 1.894531 4.6875 1.820312 4.824219 1.703125 4.910156 C 1.625 4.972656 1.648438 5.019531 1.734375 4.960938 C 1.816406 4.890625 1.914062 4.859375 2.019531 4.855469 C 2.300781 4.851562 2.410156 5.09375 2.394531 5.316406 C 2.378906 5.527344 2.199219 5.742188 1.960938 5.71875 C 1.75 5.691406 1.640625 5.515625 1.574219 5.335938 C 1.554688 5.28125 1.519531 5.265625 1.523438 5.347656 C 1.570312 5.75 1.722656 6.003906 1.722656 6.003906 Z M 1.140625 6.003906 "/>
<path style=" stroke:none;fill-rule:nonzero;fill:rgb(0%,0%,0%);fill-opacity:1;" d="M 16.875 18.976562 C 16.78125 19.171875 16.6875 19.351562 16.636719 19.566406 C 16.601562 19.769531 16.671875 19.695312 16.710938 19.5625 C 16.769531 19.378906 16.929688 19.292969 17.078125 19.292969 C 17.351562 19.289062 17.484375 19.5 17.476562 19.726562 C 17.507812 19.96875 17.261719 20.136719 17.078125 20.125 C 16.941406 20.113281 16.820312 20.039062 16.746094 19.980469 C 16.699219 19.957031 16.648438 19.945312 16.71875 20.011719 C 16.851562 20.15625 16.964844 20.246094 16.964844 20.464844 C 16.960938 20.671875 16.785156 20.886719 16.546875 20.878906 C 16.253906 20.871094 16.121094 20.648438 16.121094 20.441406 C 16.125 20.292969 16.199219 20.152344 16.316406 20.066406 C 16.390625 20.007812 16.371094 19.960938 16.285156 20.019531 C 16.199219 20.089844 16.101562 20.121094 16 20.121094 C 15.71875 20.128906 15.609375 19.886719 15.625 19.664062 C 15.640625 19.453125 15.820312 19.238281 16.058594 19.261719 C 16.269531 19.285156 16.378906 19.460938 16.441406 19.644531 C 16.464844 19.699219 16.496094 19.714844 16.496094 19.628906 C 16.449219 19.226562 16.296875 18.976562 16.296875 18.976562 Z M 16.875 18.976562 "/>
</g>
</svg>
