<?xml version="1.0" encoding="UTF-8"?>
<svg xmlns="http://www.w3.org/2000/svg" xmlns:xlink="http://www.w3.org/1999/xlink" width="18pt" height="25pt" viewBox="0 0 18 25" version="1.1">
<g id="surface1">
<path style="fill-rule:nonzero;fill:rgb(100%,100%,100%);fill-opacity:1;stroke-width:0.996733;stroke-linecap:butt;stroke-linejoin:miter;stroke:rgb(0%,0%,0%);stroke-opacity:1;stroke-miterlimit:4;" d="M 6268.562774 -2746.820338 L 6470.541941 -2746.820338 C 6476.375274 -2746.820338 6481.139163 -2742.027525 6481.139163 -2736.158775 L 6481.139163 -2445.606744 C 6481.139163 -2439.737994 6476.375274 -2434.994088 6470.541941 -2434.994088 L 6268.562774 -2434.994088 C 6262.68083 -2434.994088 6257.916941 -2439.737994 6257.916941 -2445.606744 L 6257.916941 -2736.158775 C 6257.916941 -2742.027525 6262.68083 -2746.820338 6268.562774 -2746.820338 Z M 6268.562774 -2746.820338 " transform="matrix(0.0803571,0,0,0.0798722,-502.829263,219.433658)"/>
<path style=" stroke:none;fill-rule:nonzero;fill:rgb(83.137255%,0%,0%);fill-opacity:1;" d="M 7.230469 4.589844 C 8.027344 3.816406 8.550781 2.972656 9.050781 2.160156 C 9.492188 3.054688 10.121094 3.832031 10.804688 4.589844 C 10.074219 5.335938 9.507812 6.136719 9.054688 6.976562 C 8.550781 6.117188 8.019531 5.335938 7.230469 4.589844 Z M 7.230469 4.589844 "/>
<path style=" stroke:none;fill-rule:nonzero;fill:rgb(83.137255%,0%,0%);fill-opacity:1;" d="M 7.230469 20.46875 C 8.027344 19.695312 8.550781 18.851562 9.050781 18.039062 C 9.492188 18.933594 10.121094 19.714844 10.804688 20.46875 C 10.074219 21.214844 9.507812 22.015625 9.054688 22.855469 C 8.550781 21.996094 8.019531 21.214844 7.230469 20.46875 Z M 7.230469 20.46875 "/>
<path style=" stroke:none;fill-rule:nonzero;fill:rgb(83.137255%,0%,0%);fill-opacity:1;" d="M 15.832031 19.9375 C 16.15625 19.621094 16.371094 19.273438 16.578125 18.941406 C 16.757812 19.308594 17.015625 19.625 17.292969 19.9375 C 16.996094 20.242188 16.765625 20.570312 16.578125 20.914062 C 16.371094 20.5625 16.15625 20.242188 15.832031 19.9375 Z M 15.832031 19.9375 "/>
<path style=" stroke:none;fill-rule:nonzero;fill:rgb(83.137255%,0%,0%);fill-opacity:1;" d="M 0.746094 5.058594 C 1.074219 4.742188 1.285156 4.394531 1.492188 4.0625 C 1.671875 4.429688 1.929688 4.75 2.210938 5.058594 C 1.910156 5.363281 1.679688 5.691406 1.492188 6.035156 C 1.285156 5.683594 1.070312 5.363281 0.746094 5.058594 Z M 0.746094 5.058594 "/>
<path style=" stroke:none;fill-rule:nonzero;fill:rgb(83.137255%,0%,0%);fill-opacity:1;" d="M 0.707031 3.765625 L 0.722656 3.605469 C 0.761719 3.105469 0.871094 2.9375 1.496094 2.417969 C 1.796875 2.164062 1.894531 2.039062 1.910156 1.894531 C 1.949219 1.554688 1.640625 1.449219 1.4375 1.449219 C 1.179688 1.445312 0.882812 1.601562 1.023438 1.960938 L 0.730469 2.046875 C 0.671875 1.710938 0.734375 1.394531 1.007812 1.253906 C 1.371094 1.074219 1.839844 1.144531 2.078125 1.429688 C 2.238281 1.625 2.273438 1.890625 2.1875 2.097656 C 1.9375 2.632812 1.09375 2.867188 1.023438 3.480469 L 1.957031 3.480469 L 1.957031 3.140625 L 2.234375 3.140625 L 2.234375 3.769531 Z M 0.707031 3.765625 "/>
<path style=" stroke:none;fill-rule:nonzero;fill:rgb(83.137255%,0%,0%);fill-opacity:1;" d="M 17.308594 21.21875 L 17.296875 21.382812 C 17.257812 21.878906 17.144531 22.046875 16.523438 22.566406 C 16.222656 22.820312 16.121094 22.945312 16.109375 23.089844 C 16.070312 23.429688 16.378906 23.535156 16.578125 23.539062 C 16.839844 23.539062 17.132812 23.382812 16.992188 23.023438 L 17.285156 22.941406 C 17.34375 23.273438 17.285156 23.589844 17.011719 23.730469 C 16.644531 23.910156 16.175781 23.839844 15.941406 23.554688 C 15.78125 23.359375 15.746094 23.09375 15.832031 22.886719 C 16.078125 22.351562 16.925781 22.117188 16.996094 21.503906 L 16.058594 21.503906 L 16.058594 21.847656 L 15.785156 21.847656 L 15.785156 21.214844 Z M 17.308594 21.21875 "/>
</g>
</svg>
