<?xml version="1.0" encoding="UTF-8"?>
<svg xmlns="http://www.w3.org/2000/svg" xmlns:xlink="http://www.w3.org/1999/xlink" width="18pt" height="25pt" viewBox="0 0 18 25" version="1.1">
<g id="surface1">
<path style="fill-rule:nonzero;fill:rgb(100%,100%,100%);fill-opacity:1;stroke-width:0.996733;stroke-linecap:butt;stroke-linejoin:miter;stroke:rgb(0%,0%,0%);stroke-opacity:1;stroke-miterlimit:4;" d="M 6268.562774 -2746.820337 L 6470.541941 -2746.820337 C 6476.375274 -2746.820337 6481.139163 -2742.027525 6481.139163 -2736.158775 L 6481.139163 -2445.606744 C 6481.139163 -2439.737994 6476.375274 -2434.994087 6470.541941 -2434.994087 L 6268.562774 -2434.994087 C 6262.68083 -2434.994087 6257.916941 -2439.737994 6257.916941 -2445.606744 L 6257.916941 -2736.158775 C 6257.916941 -2742.027525 6262.68083 -2746.820337 6268.562774 -2746.820337 Z M 6268.562774 -2746.820337 " transform="matrix(0.0803571,0,0,0.0798722,-502.829263,219.433658)"/>
<path style=" stroke:none;fill-rule:nonzero;fill:rgb(83.137255%,0%,0%);fill-opacity:1;" d="M 0.769531 4.851562 C 0.640625 4.574219 0.628906 4.097656 1.007812 4.035156 C 1.292969 4 1.410156 4.132812 1.433594 4.335938 C 1.445312 4.394531 1.480469 4.398438 1.488281 4.328125 C 1.507812 4.121094 1.714844 4 1.875 4.03125 C 2.320312 4.105469 2.292969 4.589844 2.148438 4.921875 C 1.929688 5.359375 1.699219 5.636719 1.488281 6.074219 C 1.242188 5.617188 0.964844 5.246094 0.769531 4.851562 Z M 0.769531 4.851562 "/>
<path style=" stroke:none;fill-rule:nonzero;fill:rgb(83.137255%,0%,0%);fill-opacity:1;" d="M 15.855469 20.128906 C 15.726562 20.40625 15.714844 20.878906 16.09375 20.941406 C 16.378906 20.980469 16.496094 20.847656 16.519531 20.644531 C 16.53125 20.585938 16.5625 20.582031 16.574219 20.648438 C 16.589844 20.859375 16.800781 20.980469 16.960938 20.949219 C 17.40625 20.875 17.378906 20.386719 17.234375 20.058594 C 17.015625 19.621094 16.785156 19.34375 16.570312 18.902344 C 16.328125 19.363281 16.050781 19.734375 15.855469 20.128906 Z M 15.855469 20.128906 "/>
<path style=" stroke:none;fill-rule:nonzero;fill:rgb(83.137255%,0%,0%);fill-opacity:1;" d="M 0.695312 3.765625 L 0.710938 3.605469 C 0.75 3.105469 0.859375 2.9375 1.484375 2.417969 C 1.785156 2.164062 1.882812 2.039062 1.898438 1.894531 C 1.9375 1.554688 1.628906 1.449219 1.429688 1.449219 C 1.167969 1.445312 0.871094 1.601562 1.011719 1.960938 L 0.722656 2.046875 C 0.664062 1.710938 0.722656 1.394531 0.996094 1.253906 C 1.363281 1.074219 1.832031 1.144531 2.066406 1.429688 C 2.226562 1.625 2.261719 1.890625 2.175781 2.097656 C 1.929688 2.632812 1.082031 2.867188 1.011719 3.480469 L 1.945312 3.480469 L 1.945312 3.140625 L 2.222656 3.140625 L 2.222656 3.769531 Z M 0.695312 3.765625 "/>
<path style=" stroke:none;fill-rule:nonzero;fill:rgb(83.137255%,0%,0%);fill-opacity:1;" d="M 17.300781 21.21875 L 17.285156 21.382812 C 17.246094 21.878906 17.136719 22.046875 16.511719 22.566406 C 16.210938 22.820312 16.113281 22.945312 16.097656 23.089844 C 16.058594 23.429688 16.367188 23.535156 16.566406 23.539062 C 16.828125 23.539062 17.125 23.382812 16.984375 23.023438 L 17.273438 22.941406 C 17.335938 23.273438 17.273438 23.589844 17 23.730469 C 16.632812 23.910156 16.164062 23.839844 15.929688 23.554688 C 15.769531 23.359375 15.734375 23.09375 15.820312 22.886719 C 16.070312 22.351562 16.914062 22.117188 16.984375 21.503906 L 16.050781 21.503906 L 16.050781 21.847656 L 15.773438 21.847656 L 15.773438 21.214844 Z M 17.300781 21.21875 "/>
<path style=" stroke:none;fill-rule:nonzero;fill:rgb(83.137255%,0%,0%);fill-opacity:1;" d="M 8.039062 2.273438 C 8.613281 2.234375 8.910156 2.722656 8.96875 3.105469 C 9.003906 3.167969 9.023438 3.152344 9.035156 3.105469 C 9.066406 2.609375 9.507812 2.207031 9.921875 2.261719 C 10.589844 2.269531 10.996094 3.011719 10.882812 3.636719 C 10.742188 4.402344 10.328125 4.863281 10.011719 5.339844 C 9.65625 5.828125 9.179688 6.539062 9.027344 6.882812 C 9.027344 6.882812 8.539062 6.144531 7.90625 5.28125 C 7.484375 4.703125 7.144531 4.078125 7.113281 3.539062 C 7.078125 2.921875 7.332031 2.367188 8.039062 2.273438 Z M 8.039062 2.273438 "/>
<path style=" stroke:none;fill-rule:nonzero;fill:rgb(83.137255%,0%,0%);fill-opacity:1;" d="M 8.039062 22.746094 C 8.613281 22.78125 8.910156 22.296875 8.96875 21.910156 C 9.003906 21.851562 9.023438 21.867188 9.035156 21.914062 C 9.066406 22.40625 9.507812 22.8125 9.921875 22.753906 C 10.589844 22.746094 10.996094 22.007812 10.882812 21.378906 C 10.742188 20.613281 10.328125 20.152344 10.011719 19.679688 C 9.65625 19.1875 9.179688 18.476562 9.027344 18.136719 C 9.027344 18.136719 8.539062 18.871094 7.90625 19.738281 C 7.484375 20.316406 7.144531 20.941406 7.113281 21.480469 C 7.078125 22.097656 7.332031 22.648438 8.039062 22.746094 Z M 8.039062 22.746094 "/>
</g>
</svg>
