<?xml version="1.0" encoding="UTF-8"?>
<svg xmlns="http://www.w3.org/2000/svg" xmlns:xlink="http://www.w3.org/1999/xlink" width="18pt" height="25pt" viewBox="0 0 18 25" version="1.1">
<g id="surface1">
<path style="fill-rule:nonzero;fill:rgb(100%,100%,100%);fill-opacity:1;stroke-width:0.996733;stroke-linecap:butt;stroke-linejoin:miter;stroke:rgb(0%,0%,0%);stroke-opacity:1;stroke-miterlimit:4;" d="M 6268.562774 -2746.820337 L 6470.541941 -2746.820337 C 6476.375274 -2746.820337 6481.139163 -2742.027524 6481.139163 -2736.158774 L 6481.139163 -2445.606743 C 6481.139163 -2439.737993 6476.375274 -2434.994087 6470.541941 -2434.994087 L 6268.562774 -2434.994087 C 6262.68083 -2434.994087 6257.916941 -2439.737993 6257.916941 -2445.606743 L 6257.916941 -2736.158774 C 6257.916941 -2742.027524 6262.68083 -2746.820337 6268.562774 -2746.820337 Z M 6268.562774 -2746.820337 " transform="matrix(0.0803571,0,0,0.0798722,-502.829263,219.433658)"/>
<path style=" stroke:none;fill-rule:nonzero;fill:rgb(0%,0%,0%);fill-opacity:1;" d="M 0.707031 3.765625 L 0.722656 3.605469 C 0.761719 3.105469 0.871094 2.9375 1.496094 2.417969 C 1.796875 2.164062 1.894531 2.039062 1.910156 1.894531 C 1.949219 1.554688 1.640625 1.449219 1.4375 1.449219 C 1.179688 1.445312 0.882812 1.601562 1.023438 1.960938 L 0.730469 2.046875 C 0.671875 1.710938 0.734375 1.394531 1.007812 1.253906 C 1.371094 1.074219 1.839844 1.144531 2.078125 1.429688 C 2.238281 1.625 2.273438 1.890625 2.1875 2.097656 C 1.9375 2.632812 1.09375 2.867188 1.023438 3.480469 L 1.957031 3.480469 L 1.957031 3.140625 L 2.234375 3.140625 L 2.234375 3.769531 Z M 0.707031 3.765625 "/>
<path style=" stroke:none;fill-rule:nonzero;fill:rgb(0%,0%,0%);fill-opacity:1;" d="M 17.308594 21.21875 L 17.296875 21.382812 C 17.257812 21.878906 17.144531 22.046875 16.523438 22.566406 C 16.222656 22.820312 16.121094 22.945312 16.109375 23.089844 C 16.070312 23.429688 16.378906 23.535156 16.578125 23.539062 C 16.839844 23.539062 17.132812 23.382812 16.992188 23.023438 L 17.285156 22.941406 C 17.34375 23.273438 17.285156 23.589844 17.011719 23.730469 C 16.644531 23.910156 16.175781 23.839844 15.941406 23.554688 C 15.78125 23.359375 15.746094 23.09375 15.832031 22.886719 C 16.078125 22.351562 16.925781 22.117188 16.996094 21.503906 L 16.058594 21.503906 L 16.058594 21.847656 L 15.785156 21.847656 L 15.785156 21.214844 Z M 17.308594 21.21875 "/>
<path style=" stroke:none;fill-rule:nonzero;fill:rgb(0%,0%,0%);fill-opacity:1;" d="M 8.925781 5.484375 C 8.925781 5.324219 8.796875 5.320312 8.800781 5.4375 C 8.789062 6.03125 8.285156 6.324219 7.917969 6.253906 C 7.351562 6.148438 7.171875 5.589844 7.175781 5.261719 C 7.191406 4.246094 8.21875 3.5 9.148438 2.199219 C 9.824219 3.371094 10.945312 4.292969 11.011719 5.199219 C 11.101562 6.40625 9.566406 6.855469 9.347656 5.449219 C 9.332031 5.351562 9.214844 5.308594 9.222656 5.445312 C 9.257812 5.832031 9.210938 5.992188 9.648438 6.941406 L 8.503906 6.941406 C 8.757812 6.496094 8.90625 5.953125 8.925781 5.484375 Z M 8.925781 5.484375 "/>
<path style=" stroke:none;fill-rule:nonzero;fill:rgb(0%,0%,0%);fill-opacity:1;" d="M 8.925781 19.535156 C 8.925781 19.699219 8.796875 19.699219 8.800781 19.582031 C 8.789062 18.988281 8.285156 18.699219 7.917969 18.765625 C 7.351562 18.875 7.171875 19.429688 7.175781 19.761719 C 7.195312 20.773438 8.222656 21.523438 9.148438 22.820312 C 9.828125 21.648438 10.949219 20.726562 11.015625 19.820312 C 11.101562 18.613281 9.566406 18.164062 9.347656 19.570312 C 9.332031 19.667969 9.214844 19.714844 9.226562 19.574219 C 9.257812 19.191406 9.210938 19.027344 9.648438 18.078125 L 8.503906 18.078125 C 8.757812 18.523438 8.910156 19.066406 8.925781 19.535156 Z M 8.925781 19.535156 "/>
<path style=" stroke:none;fill-rule:nonzero;fill:rgb(0%,0%,0%);fill-opacity:1;" d="M 1.523438 5.574219 C 1.523438 5.503906 1.453125 5.535156 1.441406 5.558594 C 1.347656 5.71875 1.210938 5.753906 1.074219 5.695312 C 0.941406 5.640625 0.867188 5.515625 0.878906 5.335938 C 0.902344 5.0625 1.121094 4.761719 1.230469 4.589844 C 1.328125 4.4375 1.441406 4.253906 1.554688 4.019531 C 1.691406 4.289062 1.761719 4.363281 1.910156 4.609375 C 2.042969 4.824219 2.222656 5.039062 2.238281 5.296875 C 2.238281 5.496094 2.152344 5.683594 1.964844 5.71875 C 1.855469 5.738281 1.757812 5.683594 1.683594 5.554688 C 1.660156 5.523438 1.613281 5.539062 1.613281 5.585938 C 1.628906 5.753906 1.691406 5.902344 1.84375 6.082031 L 1.289062 6.082031 C 1.402344 5.957031 1.519531 5.785156 1.523438 5.574219 Z M 1.523438 5.574219 "/>
<path style=" stroke:none;fill-rule:nonzero;fill:rgb(0%,0%,0%);fill-opacity:1;" d="M 16.609375 19.40625 C 16.609375 19.472656 16.535156 19.441406 16.527344 19.417969 C 16.433594 19.261719 16.296875 19.222656 16.160156 19.28125 C 16.027344 19.339844 15.953125 19.464844 15.964844 19.644531 C 15.988281 19.917969 16.207031 20.21875 16.3125 20.386719 C 16.414062 20.542969 16.523438 20.726562 16.640625 20.960938 C 16.777344 20.691406 16.847656 20.613281 16.996094 20.367188 C 17.125 20.152344 17.308594 19.941406 17.320312 19.679688 C 17.320312 19.480469 17.238281 19.292969 17.050781 19.261719 C 16.941406 19.242188 16.839844 19.296875 16.765625 19.421875 C 16.746094 19.453125 16.699219 19.4375 16.699219 19.394531 C 16.714844 19.226562 16.777344 19.074219 16.925781 18.898438 L 16.375 18.898438 C 16.488281 19.023438 16.601562 19.191406 16.609375 19.40625 Z M 16.609375 19.40625 "/>
</g>
</svg>
