<?xml version="1.0" encoding="UTF-8"?>
<svg xmlns="http://www.w3.org/2000/svg" xmlns:xlink="http://www.w3.org/1999/xlink" width="18pt" height="25pt" viewBox="0 0 18 25" version="1.1">
<g id="surface1">
<path style="fill-rule:nonzero;fill:rgb(100%,100%,100%);fill-opacity:1;stroke-width:0.996733;stroke-linecap:butt;stroke-linejoin:miter;stroke:rgb(0%,0%,0%);stroke-opacity:1;stroke-miterlimit:4;" d="M 6491.791294 -2746.820337 L 6693.770461 -2746.820337 C 6699.603794 -2746.820337 6704.367683 -2742.027524 6704.367683 -2736.158774 L 6704.367683 -2445.606743 C 6704.367683 -2439.737993 6699.603794 -2434.994087 6693.770461 -2434.994087 L 6491.791294 -2434.994087 C 6485.90935 -2434.994087 6481.145461 -2439.737993 6481.145461 -2445.606743 L 6481.145461 -2736.158774 C 6481.145461 -2742.027524 6485.90935 -2746.820337 6491.791294 -2746.820337 Z M 6491.791294 -2746.820337 " transform="matrix(0.0803571,0,0,0.0798722,-520.767269,219.433658)"/>
<path style=" stroke:none;fill-rule:nonzero;fill:rgb(0%,0%,0%);fill-opacity:1;" d="M 0.59375 3.058594 L 0.800781 2.910156 C 0.984375 3.195312 1.183594 3.386719 1.492188 3.351562 C 1.953125 3.320312 2.144531 2.851562 2.046875 2.492188 C 1.953125 2.175781 1.570312 2.019531 1.269531 2.191406 C 1.195312 2.230469 1.113281 2.28125 1.113281 2.28125 L 1.003906 2.105469 L 1.71875 1.28125 L 0.945312 1.28125 L 0.945312 1.621094 L 0.648438 1.621094 L 0.648438 1.011719 L 2.160156 1.011719 L 2.160156 1.21875 C 2.160156 1.21875 1.753906 1.628906 1.621094 1.851562 C 1.949219 1.863281 2.214844 2.066406 2.3125 2.390625 C 2.367188 2.558594 2.34375 2.949219 2.269531 3.113281 C 2.148438 3.394531 1.816406 3.621094 1.511719 3.632812 C 1 3.667969 0.730469 3.316406 0.59375 3.058594 Z M 0.59375 3.058594 "/>
<path style=" stroke:none;fill-rule:nonzero;fill:rgb(0%,0%,0%);fill-opacity:1;" d="M 17.375 21.925781 L 17.167969 22.074219 C 16.988281 21.789062 16.785156 21.597656 16.480469 21.632812 C 16.019531 21.664062 15.828125 22.132812 15.921875 22.492188 C 16.015625 22.808594 16.398438 22.964844 16.703125 22.792969 C 16.773438 22.753906 16.855469 22.710938 16.855469 22.710938 L 16.984375 22.878906 L 16.253906 23.703125 L 17.027344 23.703125 L 17.027344 23.363281 L 17.320312 23.363281 L 17.320312 23.972656 L 15.808594 23.972656 L 15.808594 23.765625 C 15.808594 23.765625 16.214844 23.355469 16.347656 23.132812 C 16.019531 23.121094 15.753906 22.917969 15.660156 22.59375 C 15.601562 22.425781 15.628906 22.035156 15.699219 21.871094 C 15.824219 21.589844 16.15625 21.363281 16.457031 21.351562 C 16.96875 21.316406 17.238281 21.667969 17.375 21.925781 Z M 17.375 21.925781 "/>
<path style=" stroke:none;fill-rule:nonzero;fill:rgb(0%,0%,0%);fill-opacity:1;" d="M 8.386719 14.800781 C 8.621094 14.335938 8.792969 13.855469 8.820312 13.34375 C 8.851562 13.15625 8.734375 13.152344 8.71875 13.285156 C 8.386719 14.546875 6.621094 14.203125 6.683594 13.019531 C 6.730469 12.058594 7.691406 11.851562 8.195312 12.164062 C 8.390625 12.28125 8.382812 12.210938 8.273438 12.089844 C 7.527344 11.265625 7.980469 10.203125 8.984375 10.183594 C 10.074219 10.246094 10.355469 11.386719 9.6875 12.054688 C 9.605469 12.132812 9.421875 12.394531 9.699219 12.210938 C 10.371094 11.734375 11.308594 12.246094 11.289062 12.980469 C 11.253906 14.335938 9.59375 14.4375 9.238281 13.304688 C 9.203125 13.179688 9.105469 13.117188 9.132812 13.332031 C 9.183594 13.714844 9.285156 14.296875 9.574219 14.800781 Z M 8.386719 14.800781 "/>
<path style=" stroke:none;fill-rule:nonzero;fill:rgb(0%,0%,0%);fill-opacity:1;" d="M 8.382812 6.847656 C 8.617188 6.378906 8.785156 5.898438 8.816406 5.386719 C 8.84375 5.199219 8.730469 5.195312 8.710938 5.328125 C 8.378906 6.589844 6.617188 6.25 6.679688 5.0625 C 6.726562 4.101562 7.6875 3.894531 8.1875 4.207031 C 8.386719 4.324219 8.375 4.253906 8.269531 4.136719 C 7.523438 3.308594 7.972656 2.246094 8.980469 2.226562 C 10.066406 2.292969 10.351562 3.429688 9.683594 4.097656 C 9.601562 4.179688 9.417969 4.4375 9.691406 4.257812 C 10.367188 3.78125 11.300781 4.292969 11.285156 5.027344 C 11.25 6.378906 9.589844 6.480469 9.234375 5.351562 C 9.199219 5.226562 9.101562 5.160156 9.128906 5.375 C 9.175781 5.761719 9.28125 6.339844 9.570312 6.847656 Z M 8.382812 6.847656 "/>
<path style=" stroke:none;fill-rule:nonzero;fill:rgb(0%,0%,0%);fill-opacity:1;" d="M 9.578125 18.160156 C 9.34375 18.625 9.171875 19.105469 9.144531 19.617188 C 9.113281 19.804688 9.230469 19.808594 9.246094 19.675781 C 9.578125 18.414062 11.34375 18.757812 11.28125 19.941406 C 11.234375 20.90625 10.273438 21.109375 9.769531 20.796875 C 9.574219 20.679688 9.585938 20.75 9.691406 20.871094 C 10.4375 21.695312 9.984375 22.757812 8.980469 22.777344 C 7.890625 22.714844 7.609375 21.578125 8.277344 20.90625 C 8.359375 20.828125 8.542969 20.570312 8.265625 20.75 C 7.59375 21.226562 6.65625 20.714844 6.675781 19.980469 C 6.710938 18.625 8.371094 18.527344 8.726562 19.65625 C 8.761719 19.78125 8.859375 19.84375 8.832031 19.632812 C 8.78125 19.246094 8.679688 18.664062 8.390625 18.160156 Z M 9.578125 18.160156 "/>
<path style=" stroke:none;fill-rule:nonzero;fill:rgb(0%,0%,0%);fill-opacity:1;" d="M 1.078125 5.960938 C 1.175781 5.761719 1.269531 5.578125 1.320312 5.363281 C 1.355469 5.15625 1.285156 5.234375 1.246094 5.367188 C 1.1875 5.554688 1.023438 5.636719 0.871094 5.640625 C 0.597656 5.644531 0.460938 5.429688 0.46875 5.199219 C 0.441406 4.957031 0.6875 4.785156 0.875 4.796875 C 1.011719 4.808594 1.136719 4.882812 1.210938 4.941406 C 1.257812 4.96875 1.308594 4.976562 1.238281 4.914062 C 1.101562 4.765625 0.988281 4.671875 0.988281 4.449219 C 0.992188 4.242188 1.171875 4.023438 1.410156 4.03125 C 1.707031 4.039062 1.839844 4.265625 1.839844 4.476562 C 1.839844 4.628906 1.761719 4.769531 1.644531 4.855469 C 1.566406 4.917969 1.589844 4.964844 1.675781 4.90625 C 1.761719 4.832031 1.859375 4.800781 1.964844 4.800781 C 2.25 4.792969 2.359375 5.039062 2.34375 5.265625 C 2.328125 5.476562 2.144531 5.695312 1.90625 5.671875 C 1.691406 5.644531 1.582031 5.46875 1.515625 5.285156 C 1.496094 5.226562 1.460938 5.214844 1.460938 5.296875 C 1.511719 5.707031 1.664062 5.960938 1.664062 5.960938 Z M 1.078125 5.960938 "/>
<path style=" stroke:none;fill-rule:nonzero;fill:rgb(0%,0%,0%);fill-opacity:1;" d="M 16.941406 19.082031 C 16.84375 19.28125 16.75 19.464844 16.699219 19.683594 C 16.664062 19.886719 16.734375 19.808594 16.773438 19.675781 C 16.832031 19.492188 16.996094 19.40625 17.144531 19.402344 C 17.421875 19.398438 17.558594 19.613281 17.546875 19.84375 C 17.578125 20.085938 17.332031 20.257812 17.144531 20.246094 C 17.003906 20.234375 16.882812 20.160156 16.808594 20.101562 C 16.761719 20.078125 16.707031 20.066406 16.78125 20.132812 C 16.917969 20.277344 17.03125 20.371094 17.027344 20.59375 C 17.027344 20.800781 16.847656 21.019531 16.609375 21.011719 C 16.3125 21.003906 16.175781 20.777344 16.179688 20.570312 C 16.179688 20.417969 16.253906 20.277344 16.375 20.1875 C 16.449219 20.125 16.429688 20.082031 16.339844 20.140625 C 16.257812 20.210938 16.15625 20.242188 16.054688 20.246094 C 15.769531 20.25 15.660156 20.003906 15.675781 19.777344 C 15.691406 19.566406 15.871094 19.347656 16.113281 19.371094 C 16.324219 19.398438 16.4375 19.574219 16.503906 19.757812 C 16.523438 19.816406 16.558594 19.832031 16.554688 19.746094 C 16.507812 19.335938 16.355469 19.082031 16.351562 19.082031 Z M 16.941406 19.082031 "/>
</g>
</svg>
