<?xml version="1.0" encoding="UTF-8"?>
<svg xmlns="http://www.w3.org/2000/svg" xmlns:xlink="http://www.w3.org/1999/xlink" width="18pt" height="25pt" viewBox="0 0 18 25" version="1.1">
<g id="surface1">
<path style="fill-rule:nonzero;fill:rgb(100%,100%,100%);fill-opacity:1;stroke-width:0.996733;stroke-linecap:butt;stroke-linejoin:miter;stroke:rgb(0%,0%,0%);stroke-opacity:1;stroke-miterlimit:4;" d="M 6491.791294 -2746.820338 L 6693.770461 -2746.820338 C 6699.603794 -2746.820338 6704.367683 -2742.027525 6704.367683 -2736.158775 L 6704.367683 -2445.606744 C 6704.367683 -2439.737994 6699.603794 -2434.994088 6693.770461 -2434.994088 L 6491.791294 -2434.994088 C 6485.90935 -2434.994088 6481.145461 -2439.737994 6481.145461 -2445.606744 L 6481.145461 -2736.158775 C 6481.145461 -2742.027525 6485.90935 -2746.820338 6491.791294 -2746.820338 Z M 6491.791294 -2746.820338 " transform="matrix(0.0803571,0,0,0.0798722,-520.767269,219.433658)"/>
<path style=" stroke:none;fill-rule:nonzero;fill:rgb(83.137255%,0%,0%);fill-opacity:1;" d="M 7.21875 4.648438 C 8.015625 3.875 8.539062 3.035156 9.039062 2.222656 C 9.476562 3.113281 10.109375 3.894531 10.789062 4.648438 C 10.0625 5.398438 9.496094 6.199219 9.042969 7.039062 C 8.539062 6.175781 8.007812 5.394531 7.21875 4.648438 Z M 7.21875 4.648438 "/>
<path style=" stroke:none;fill-rule:nonzero;fill:rgb(83.137255%,0%,0%);fill-opacity:1;" d="M 7.21875 20.394531 C 8.015625 19.621094 8.539062 18.777344 9.039062 17.964844 C 9.476562 18.859375 10.109375 19.636719 10.789062 20.394531 C 10.0625 21.140625 9.496094 21.941406 9.042969 22.78125 C 8.539062 21.921875 8.007812 21.140625 7.21875 20.394531 Z M 7.21875 20.394531 "/>
<path style=" stroke:none;fill-rule:nonzero;fill:rgb(83.137255%,0%,0%);fill-opacity:1;" d="M 7.21875 12.515625 C 8.015625 11.742188 8.539062 10.898438 9.039062 10.085938 C 9.476562 10.980469 10.109375 11.761719 10.789062 12.515625 C 10.0625 13.261719 9.496094 14.0625 9.042969 14.90625 C 8.539062 14.042969 8.007812 13.261719 7.21875 12.515625 Z M 7.21875 12.515625 "/>
<path style=" stroke:none;fill-rule:nonzero;fill:rgb(83.137255%,0%,0%);fill-opacity:1;" d="M 15.8125 19.964844 C 16.140625 19.648438 16.355469 19.304688 16.558594 18.972656 C 16.738281 19.335938 17 19.65625 17.277344 19.964844 C 16.980469 20.273438 16.746094 20.601562 16.5625 20.945312 C 16.355469 20.589844 16.136719 20.273438 15.8125 19.964844 Z M 15.8125 19.964844 "/>
<path style=" stroke:none;fill-rule:nonzero;fill:rgb(83.137255%,0%,0%);fill-opacity:1;" d="M 0.789062 5.09375 C 1.113281 4.777344 1.328125 4.429688 1.535156 4.097656 C 1.714844 4.464844 1.972656 4.785156 2.25 5.09375 C 1.953125 5.398438 1.722656 5.726562 1.535156 6.070312 C 1.328125 5.71875 1.113281 5.398438 0.789062 5.09375 Z M 0.789062 5.09375 "/>
<path style=" stroke:none;fill-rule:nonzero;fill:rgb(83.137255%,0%,0%);fill-opacity:1;" d="M 0.71875 3.171875 L 0.921875 3.023438 C 1.101562 3.308594 1.300781 3.492188 1.605469 3.460938 C 2.058594 3.429688 2.25 2.964844 2.152344 2.613281 C 2.0625 2.296875 1.683594 2.144531 1.382812 2.3125 C 1.3125 2.351562 1.230469 2.402344 1.230469 2.402344 L 1.125 2.226562 L 1.828125 1.414062 L 1.0625 1.414062 L 1.0625 1.75 L 0.769531 1.75 L 0.769531 1.144531 L 2.265625 1.144531 L 2.265625 1.351562 C 2.265625 1.351562 1.863281 1.757812 1.730469 1.976562 C 2.058594 1.988281 2.320312 2.191406 2.414062 2.511719 C 2.46875 2.675781 2.445312 3.0625 2.375 3.226562 C 2.253906 3.503906 1.925781 3.726562 1.625 3.738281 C 1.121094 3.773438 0.851562 3.425781 0.71875 3.171875 Z M 0.71875 3.171875 "/>
<path style=" stroke:none;fill-rule:nonzero;fill:rgb(83.137255%,0%,0%);fill-opacity:1;" d="M 17.300781 21.8125 L 17.09375 21.960938 C 16.917969 21.675781 16.71875 21.492188 16.414062 21.523438 C 15.957031 21.554688 15.769531 22.019531 15.863281 22.371094 C 15.957031 22.6875 16.335938 22.839844 16.632812 22.671875 C 16.707031 22.632812 16.789062 22.589844 16.789062 22.589844 L 16.914062 22.753906 L 16.191406 23.570312 L 16.953125 23.570312 L 16.953125 23.234375 L 17.246094 23.234375 L 17.246094 23.839844 L 15.753906 23.839844 L 15.753906 23.632812 C 15.753906 23.632812 16.152344 23.226562 16.285156 23.007812 C 15.960938 22.996094 15.699219 22.792969 15.601562 22.472656 C 15.546875 22.308594 15.574219 21.921875 15.644531 21.757812 C 15.765625 21.484375 16.09375 21.257812 16.394531 21.246094 C 16.898438 21.214844 17.164062 21.558594 17.300781 21.8125 Z M 17.300781 21.8125 "/>
</g>
</svg>
