<?xml version="1.0" encoding="UTF-8"?>
<svg xmlns="http://www.w3.org/2000/svg" xmlns:xlink="http://www.w3.org/1999/xlink" width="18pt" height="25pt" viewBox="0 0 18 25" version="1.1">
<g id="surface1">
<path style="fill-rule:nonzero;fill:rgb(100%,100%,100%);fill-opacity:1;stroke-width:0.996733;stroke-linecap:butt;stroke-linejoin:miter;stroke:rgb(0%,0%,0%);stroke-opacity:1;stroke-miterlimit:4;" d="M 6491.791294 -2746.820337 L 6693.770461 -2746.820337 C 6699.603794 -2746.820337 6704.367683 -2742.027525 6704.367683 -2736.158775 L 6704.367683 -2445.606744 C 6704.367683 -2439.737994 6699.603794 -2434.994087 6693.770461 -2434.994087 L 6491.791294 -2434.994087 C 6485.90935 -2434.994087 6481.145461 -2439.737994 6481.145461 -2445.606744 L 6481.145461 -2736.158775 C 6481.145461 -2742.027525 6485.90935 -2746.820337 6491.791294 -2746.820337 Z M 6491.791294 -2746.820337 " transform="matrix(0.0803571,0,0,0.0798722,-520.767269,219.433658)"/>
<path style=" stroke:none;fill-rule:nonzero;fill:rgb(83.137255%,0%,0%);fill-opacity:1;" d="M 0.71875 3.171875 L 0.921875 3.023438 C 1.101562 3.308594 1.300781 3.492188 1.605469 3.460938 C 2.058594 3.429688 2.25 2.964844 2.152344 2.613281 C 2.0625 2.296875 1.683594 2.144531 1.382812 2.3125 C 1.3125 2.351562 1.230469 2.402344 1.230469 2.402344 L 1.125 2.226562 L 1.828125 1.414062 L 1.0625 1.414062 L 1.0625 1.75 L 0.769531 1.75 L 0.769531 1.144531 L 2.265625 1.144531 L 2.265625 1.351562 C 2.265625 1.351562 1.863281 1.757812 1.730469 1.976562 C 2.058594 1.988281 2.320312 2.191406 2.414062 2.511719 C 2.46875 2.675781 2.445312 3.0625 2.375 3.226562 C 2.253906 3.503906 1.925781 3.726562 1.625 3.738281 C 1.121094 3.773438 0.851562 3.425781 0.71875 3.171875 Z M 0.71875 3.171875 "/>
<path style=" stroke:none;fill-rule:nonzero;fill:rgb(83.137255%,0%,0%);fill-opacity:1;" d="M 17.300781 21.8125 L 17.09375 21.960938 C 16.917969 21.675781 16.71875 21.492188 16.414062 21.523438 C 15.957031 21.554688 15.769531 22.019531 15.863281 22.371094 C 15.957031 22.6875 16.335938 22.839844 16.632812 22.671875 C 16.707031 22.632812 16.789062 22.589844 16.789062 22.589844 L 16.914062 22.753906 L 16.191406 23.570312 L 16.953125 23.570312 L 16.953125 23.234375 L 17.246094 23.234375 L 17.246094 23.839844 L 15.753906 23.839844 L 15.753906 23.632812 C 15.753906 23.632812 16.152344 23.226562 16.285156 23.007812 C 15.960938 22.996094 15.699219 22.792969 15.601562 22.472656 C 15.546875 22.308594 15.574219 21.921875 15.644531 21.757812 C 15.765625 21.484375 16.09375 21.257812 16.394531 21.246094 C 16.898438 21.214844 17.164062 21.558594 17.300781 21.8125 Z M 17.300781 21.8125 "/>
<path style=" stroke:none;fill-rule:nonzero;fill:rgb(83.137255%,0%,0%);fill-opacity:1;" d="M 0.824219 4.886719 C 0.695312 4.609375 0.683594 4.132812 1.0625 4.070312 C 1.347656 4.035156 1.464844 4.164062 1.488281 4.367188 C 1.5 4.429688 1.53125 4.433594 1.542969 4.363281 C 1.558594 4.15625 1.765625 4.035156 1.929688 4.066406 C 2.375 4.140625 2.347656 4.625 2.203125 4.957031 C 1.984375 5.394531 1.753906 5.667969 1.539062 6.109375 C 1.296875 5.652344 1.015625 5.277344 0.824219 4.886719 Z M 0.824219 4.886719 "/>
<path style=" stroke:none;fill-rule:nonzero;fill:rgb(83.137255%,0%,0%);fill-opacity:1;" d="M 8.035156 2.335938 C 8.609375 2.296875 8.910156 2.785156 8.96875 3.167969 C 9.003906 3.230469 9.019531 3.210938 9.035156 3.164062 C 9.0625 2.671875 9.507812 2.269531 9.917969 2.324219 C 10.585938 2.332031 10.992188 3.074219 10.878906 3.699219 C 10.738281 4.464844 10.324219 4.925781 10.011719 5.398438 C 9.65625 5.890625 9.175781 6.601562 9.023438 6.941406 C 9.023438 6.941406 8.539062 6.207031 7.90625 5.34375 C 7.480469 4.765625 7.144531 4.136719 7.113281 3.597656 C 7.078125 2.984375 7.332031 2.429688 8.035156 2.335938 Z M 8.035156 2.335938 "/>
<path style=" stroke:none;fill-rule:nonzero;fill:rgb(83.137255%,0%,0%);fill-opacity:1;" d="M 8.039062 10.195312 C 8.613281 10.160156 8.914062 10.644531 8.972656 11.03125 C 9.007812 11.089844 9.027344 11.074219 9.039062 11.027344 C 9.066406 10.535156 9.511719 10.128906 9.921875 10.183594 C 10.59375 10.195312 11 10.933594 10.882812 11.5625 C 10.746094 12.324219 10.332031 12.785156 10.015625 13.261719 C 9.660156 13.753906 9.183594 14.460938 9.027344 14.804688 C 9.027344 14.804688 8.542969 14.070312 7.910156 13.203125 C 7.488281 12.625 7.148438 12 7.117188 11.460938 C 7.082031 10.84375 7.335938 10.292969 8.039062 10.195312 Z M 8.039062 10.195312 "/>
<path style=" stroke:none;fill-rule:nonzero;fill:rgb(83.137255%,0%,0%);fill-opacity:1;" d="M 15.847656 20.15625 C 15.722656 20.433594 15.707031 20.910156 16.085938 20.972656 C 16.375 21.007812 16.488281 20.878906 16.511719 20.675781 C 16.523438 20.613281 16.558594 20.609375 16.570312 20.679688 C 16.585938 20.886719 16.792969 21.007812 16.957031 20.976562 C 17.398438 20.902344 17.375 20.417969 17.226562 20.085938 C 17.007812 19.648438 16.777344 19.375 16.566406 18.933594 C 16.320312 19.390625 16.042969 19.765625 15.847656 20.15625 Z M 15.847656 20.15625 "/>
<path style=" stroke:none;fill-rule:nonzero;fill:rgb(83.137255%,0%,0%);fill-opacity:1;" d="M 8.035156 22.671875 C 8.609375 22.707031 8.910156 22.222656 8.96875 21.835938 C 9.003906 21.777344 9.019531 21.792969 9.035156 21.839844 C 9.0625 22.332031 9.507812 22.734375 9.917969 22.679688 C 10.585938 22.671875 10.992188 21.933594 10.878906 21.304688 C 10.738281 20.539062 10.324219 20.078125 10.011719 19.605469 C 9.65625 19.113281 9.175781 18.402344 9.023438 18.0625 C 9.023438 18.0625 8.539062 18.796875 7.90625 19.660156 C 7.480469 20.238281 7.144531 20.867188 7.113281 21.40625 C 7.078125 22.023438 7.332031 22.574219 8.035156 22.671875 Z M 8.035156 22.671875 "/>
</g>
</svg>
