<?xml version="1.0" encoding="UTF-8"?>
<svg xmlns="http://www.w3.org/2000/svg" xmlns:xlink="http://www.w3.org/1999/xlink" width="18pt" height="25pt" viewBox="0 0 18 25" version="1.1">
<g id="surface1">
<path style="fill-rule:nonzero;fill:rgb(100%,100%,100%);fill-opacity:1;stroke-width:0.996733;stroke-linecap:butt;stroke-linejoin:miter;stroke:rgb(0%,0%,0%);stroke-opacity:1;stroke-miterlimit:4;" d="M 6491.791294 -2746.820337 L 6693.770461 -2746.820337 C 6699.603794 -2746.820337 6704.367683 -2742.027524 6704.367683 -2736.158774 L 6704.367683 -2445.606743 C 6704.367683 -2439.737993 6699.603794 -2434.994087 6693.770461 -2434.994087 L 6491.791294 -2434.994087 C 6485.90935 -2434.994087 6481.145461 -2439.737993 6481.145461 -2445.606743 L 6481.145461 -2736.158774 C 6481.145461 -2742.027524 6485.90935 -2746.820337 6491.791294 -2746.820337 Z M 6491.791294 -2746.820337 " transform="matrix(0.0803571,0,0,0.0798722,-520.767269,219.433658)"/>
<path style=" stroke:none;fill-rule:nonzero;fill:rgb(0%,0%,0%);fill-opacity:1;" d="M 0.71875 3.171875 L 0.921875 3.023438 C 1.101562 3.308594 1.300781 3.492188 1.605469 3.460938 C 2.058594 3.429688 2.25 2.964844 2.152344 2.613281 C 2.0625 2.296875 1.683594 2.144531 1.382812 2.3125 C 1.3125 2.351562 1.230469 2.402344 1.230469 2.402344 L 1.125 2.226562 L 1.828125 1.414062 L 1.0625 1.414062 L 1.0625 1.75 L 0.769531 1.75 L 0.769531 1.144531 L 2.265625 1.144531 L 2.265625 1.351562 C 2.265625 1.351562 1.863281 1.757812 1.730469 1.976562 C 2.058594 1.988281 2.320312 2.191406 2.414062 2.511719 C 2.46875 2.675781 2.445312 3.0625 2.375 3.226562 C 2.253906 3.503906 1.925781 3.726562 1.625 3.738281 C 1.121094 3.773438 0.851562 3.425781 0.71875 3.171875 Z M 0.71875 3.171875 "/>
<path style=" stroke:none;fill-rule:nonzero;fill:rgb(0%,0%,0%);fill-opacity:1;" d="M 17.300781 21.8125 L 17.09375 21.960938 C 16.917969 21.675781 16.71875 21.492188 16.414062 21.523438 C 15.957031 21.554688 15.769531 22.019531 15.863281 22.371094 C 15.957031 22.6875 16.335938 22.839844 16.632812 22.671875 C 16.707031 22.632812 16.789062 22.589844 16.789062 22.589844 L 16.914062 22.753906 L 16.191406 23.570312 L 16.953125 23.570312 L 16.953125 23.234375 L 17.246094 23.234375 L 17.246094 23.839844 L 15.753906 23.839844 L 15.753906 23.632812 C 15.753906 23.632812 16.152344 23.226562 16.285156 23.007812 C 15.960938 22.996094 15.699219 22.792969 15.601562 22.472656 C 15.546875 22.308594 15.574219 21.921875 15.644531 21.757812 C 15.765625 21.484375 16.09375 21.257812 16.394531 21.246094 C 16.898438 21.214844 17.164062 21.558594 17.300781 21.8125 Z M 17.300781 21.8125 "/>
<path style=" stroke:none;fill-rule:nonzero;fill:rgb(0%,0%,0%);fill-opacity:1;" d="M 8.832031 5.546875 C 8.832031 5.382812 8.703125 5.378906 8.707031 5.5 C 8.695312 6.09375 8.191406 6.382812 7.824219 6.316406 C 7.257812 6.207031 7.078125 5.652344 7.082031 5.320312 C 7.101562 4.308594 8.125 3.558594 9.054688 2.261719 C 9.734375 3.433594 10.851562 4.355469 10.917969 5.261719 C 11.007812 6.46875 9.472656 6.917969 9.253906 5.511719 C 9.238281 5.414062 9.121094 5.367188 9.128906 5.507812 C 9.164062 5.890625 9.117188 6.054688 9.554688 7.003906 L 8.410156 7.003906 C 8.664062 6.558594 8.816406 6.015625 8.832031 5.546875 Z M 8.832031 5.546875 "/>
<path style=" stroke:none;fill-rule:nonzero;fill:rgb(0%,0%,0%);fill-opacity:1;" d="M 8.839844 11.578125 C 8.839844 11.742188 8.710938 11.746094 8.710938 11.625 C 8.699219 11.035156 8.195312 10.742188 7.828125 10.808594 C 7.265625 10.917969 7.082031 11.476562 7.089844 11.804688 C 7.105469 12.816406 8.132812 13.566406 9.058594 14.867188 C 9.738281 13.691406 10.859375 12.769531 10.925781 11.863281 C 11.015625 10.65625 9.476562 10.207031 9.257812 11.613281 C 9.246094 11.710938 9.128906 11.757812 9.136719 11.617188 C 9.167969 11.234375 9.121094 11.074219 9.558594 10.125 L 8.417969 10.125 C 8.671875 10.566406 8.820312 11.113281 8.839844 11.578125 Z M 8.839844 11.578125 "/>
<path style=" stroke:none;fill-rule:nonzero;fill:rgb(0%,0%,0%);fill-opacity:1;" d="M 8.832031 19.460938 C 8.835938 19.625 8.707031 19.625 8.707031 19.507812 C 8.695312 18.914062 8.191406 18.621094 7.824219 18.691406 C 7.257812 18.800781 7.078125 19.355469 7.082031 19.683594 C 7.101562 20.699219 8.128906 21.449219 9.054688 22.746094 C 9.734375 21.574219 10.855469 20.652344 10.921875 19.746094 C 11.007812 18.539062 9.472656 18.089844 9.253906 19.496094 C 9.238281 19.59375 9.121094 19.640625 9.132812 19.5 C 9.164062 19.113281 9.117188 18.953125 9.554688 18.003906 L 8.410156 18.003906 C 8.664062 18.449219 8.816406 18.992188 8.832031 19.460938 Z M 8.832031 19.460938 "/>
<path style=" stroke:none;fill-rule:nonzero;fill:rgb(0%,0%,0%);fill-opacity:1;" d="M 1.484375 5.609375 C 1.488281 5.539062 1.414062 5.570312 1.402344 5.59375 C 1.3125 5.75 1.175781 5.789062 1.039062 5.730469 C 0.90625 5.675781 0.828125 5.550781 0.839844 5.371094 C 0.867188 5.097656 1.085938 4.796875 1.191406 4.625 C 1.292969 4.472656 1.402344 4.289062 1.519531 4.054688 C 1.65625 4.324219 1.726562 4.398438 1.871094 4.644531 C 2.003906 4.859375 2.1875 5.070312 2.199219 5.332031 C 2.199219 5.53125 2.117188 5.71875 1.925781 5.753906 C 1.820312 5.773438 1.71875 5.71875 1.644531 5.589844 C 1.621094 5.558594 1.578125 5.574219 1.578125 5.621094 C 1.589844 5.785156 1.65625 5.9375 1.804688 6.117188 L 1.25 6.117188 C 1.363281 5.988281 1.480469 5.820312 1.484375 5.609375 Z M 1.484375 5.609375 "/>
<path style=" stroke:none;fill-rule:nonzero;fill:rgb(0%,0%,0%);fill-opacity:1;" d="M 16.511719 19.433594 C 16.511719 19.503906 16.4375 19.472656 16.429688 19.449219 C 16.335938 19.289062 16.199219 19.253906 16.0625 19.3125 C 15.929688 19.367188 15.855469 19.492188 15.867188 19.671875 C 15.890625 19.945312 16.109375 20.246094 16.214844 20.417969 C 16.316406 20.570312 16.429688 20.753906 16.542969 20.988281 C 16.679688 20.71875 16.75 20.644531 16.898438 20.398438 C 17.027344 20.183594 17.210938 19.972656 17.226562 19.710938 C 17.226562 19.511719 17.140625 19.324219 16.953125 19.289062 C 16.84375 19.269531 16.746094 19.324219 16.671875 19.453125 C 16.648438 19.484375 16.601562 19.46875 16.601562 19.421875 C 16.617188 19.257812 16.679688 19.105469 16.832031 18.925781 L 16.277344 18.925781 C 16.390625 19.054688 16.507812 19.222656 16.511719 19.433594 Z M 16.511719 19.433594 "/>
</g>
</svg>
