<?xml version="1.0" encoding="UTF-8"?>
<svg xmlns="http://www.w3.org/2000/svg" xmlns:xlink="http://www.w3.org/1999/xlink" width="18pt" height="25pt" viewBox="0 0 18 25" version="1.1">
<g id="surface1">
<path style="fill-rule:nonzero;fill:rgb(100%,100%,100%);fill-opacity:1;stroke-width:0.996733;stroke-linecap:butt;stroke-linejoin:miter;stroke:rgb(0%,0%,0%);stroke-opacity:1;stroke-miterlimit:4;" d="M 6715.019324 -2746.820337 L 6916.998491 -2746.820337 C 6922.831824 -2746.820337 6927.595713 -2742.027524 6927.595713 -2736.158774 L 6927.595713 -2445.606743 C 6927.595713 -2439.737993 6922.831824 -2434.994087 6916.998491 -2434.994087 L 6715.019324 -2434.994087 C 6709.13738 -2434.994087 6704.373491 -2439.737993 6704.373491 -2445.606743 L 6704.373491 -2736.158774 C 6704.373491 -2742.027524 6709.13738 -2746.820337 6715.019324 -2746.820337 Z M 6715.019324 -2746.820337 " transform="matrix(0.0803571,0,0,0.0798722,-538.705236,219.433658)"/>
<path style=" stroke:none;fill-rule:nonzero;fill:rgb(0%,0%,0%);fill-opacity:1;" d="M 1.519531 3.742188 L 1.519531 3.519531 L 1.726562 3.519531 L 1.726562 3.148438 L 0.6875 3.148438 L 0.6875 2.886719 L 1.8125 1.203125 L 1.996094 1.203125 L 1.996094 2.886719 L 2.3125 2.886719 L 2.3125 3.148438 L 1.996094 3.148438 L 1.988281 3.519531 L 2.164062 3.519531 L 2.164062 3.742188 Z M 1.726562 1.820312 L 1.015625 2.886719 L 1.726562 2.886719 Z M 1.726562 1.820312 "/>
<path style=" stroke:none;fill-rule:nonzero;fill:rgb(0%,0%,0%);fill-opacity:1;" d="M 16.589844 21.242188 L 16.589844 21.464844 L 16.382812 21.464844 L 16.382812 21.835938 L 17.421875 21.835938 L 17.421875 22.097656 L 16.296875 23.78125 L 16.113281 23.78125 L 16.113281 22.097656 L 15.796875 22.097656 L 15.796875 21.835938 L 16.113281 21.835938 L 16.121094 21.464844 L 15.945312 21.464844 L 15.945312 21.242188 Z M 16.382812 23.164062 L 17.097656 22.097656 L 16.382812 22.097656 Z M 16.382812 23.164062 "/>
<path style=" stroke:none;fill-rule:nonzero;fill:rgb(0%,0%,0%);fill-opacity:1;" d="M 12.398438 6.699219 C 12.628906 6.238281 12.800781 5.765625 12.828125 5.257812 C 12.855469 5.074219 12.742188 5.070312 12.726562 5.199219 C 12.398438 6.445312 10.65625 6.109375 10.714844 4.9375 C 10.765625 3.988281 11.714844 3.78125 12.207031 4.09375 C 12.402344 4.207031 12.394531 4.140625 12.285156 4.019531 C 11.550781 3.207031 11.996094 2.15625 12.992188 2.136719 C 14.066406 2.199219 14.34375 3.324219 13.683594 3.984375 C 13.601562 4.0625 13.421875 4.320312 13.695312 4.140625 C 14.359375 3.671875 15.285156 4.175781 15.265625 4.902344 C 15.230469 6.238281 13.589844 6.339844 13.242188 5.222656 C 13.207031 5.097656 13.109375 5.035156 13.136719 5.246094 C 13.183594 5.625 13.285156 6.199219 13.574219 6.699219 Z M 12.398438 6.699219 "/>
<path style=" stroke:none;fill-rule:nonzero;fill:rgb(0%,0%,0%);fill-opacity:1;" d="M 4.402344 6.699219 C 4.632812 6.238281 4.800781 5.765625 4.832031 5.257812 C 4.859375 5.074219 4.746094 5.070312 4.726562 5.199219 C 4.398438 6.445312 2.65625 6.109375 2.71875 4.9375 C 2.765625 3.988281 3.714844 3.78125 4.210938 4.09375 C 4.40625 4.207031 4.394531 4.140625 4.289062 4.019531 C 3.550781 3.207031 4 2.15625 4.992188 2.136719 C 6.066406 2.199219 6.347656 3.324219 5.6875 3.984375 C 5.605469 4.0625 5.421875 4.320312 5.695312 4.140625 C 6.363281 3.671875 7.285156 4.175781 7.269531 4.902344 C 7.234375 6.238281 5.59375 6.339844 5.242188 5.222656 C 5.207031 5.097656 5.113281 5.035156 5.136719 5.246094 C 5.1875 5.625 5.289062 6.199219 5.574219 6.699219 Z M 4.402344 6.699219 "/>
<path style=" stroke:none;fill-rule:nonzero;fill:rgb(0%,0%,0%);fill-opacity:1;" d="M 13.582031 18.019531 C 13.347656 18.480469 13.179688 18.953125 13.152344 19.457031 C 13.125 19.644531 13.238281 19.648438 13.253906 19.515625 C 13.582031 18.269531 15.324219 18.609375 15.265625 19.78125 C 15.214844 20.730469 14.265625 20.933594 13.773438 20.625 C 13.574219 20.507812 13.585938 20.578125 13.695312 20.695312 C 14.429688 21.511719 13.984375 22.5625 12.988281 22.582031 C 11.914062 22.519531 11.636719 21.394531 12.296875 20.734375 C 12.378906 20.652344 12.558594 20.398438 12.285156 20.578125 C 11.621094 21.046875 10.695312 20.542969 10.714844 19.816406 C 10.75 18.480469 12.390625 18.378906 12.738281 19.496094 C 12.773438 19.621094 12.871094 19.683594 12.84375 19.472656 C 12.792969 19.089844 12.695312 18.515625 12.40625 18.019531 Z M 13.582031 18.019531 "/>
<path style=" stroke:none;fill-rule:nonzero;fill:rgb(0%,0%,0%);fill-opacity:1;" d="M 5.582031 18.019531 C 5.351562 18.480469 5.183594 18.953125 5.152344 19.457031 C 5.125 19.644531 5.238281 19.648438 5.257812 19.515625 C 5.582031 18.269531 7.328125 18.609375 7.265625 19.78125 C 7.21875 20.730469 6.269531 20.933594 5.773438 20.625 C 5.578125 20.507812 5.589844 20.578125 5.695312 20.695312 C 6.429688 21.511719 5.984375 22.5625 4.992188 22.582031 C 3.917969 22.519531 3.636719 21.394531 4.296875 20.734375 C 4.378906 20.652344 4.5625 20.398438 4.289062 20.578125 C 3.621094 21.046875 2.695312 20.542969 2.714844 19.816406 C 2.75 18.480469 4.390625 18.378906 4.742188 19.496094 C 4.773438 19.621094 4.871094 19.683594 4.84375 19.472656 C 4.796875 19.089844 4.695312 18.515625 4.410156 18.019531 Z M 5.582031 18.019531 "/>
<path style=" stroke:none;fill-rule:nonzero;fill:rgb(0%,0%,0%);fill-opacity:1;" d="M 1.160156 6.0625 C 1.257812 5.867188 1.351562 5.6875 1.402344 5.472656 C 1.433594 5.269531 1.367188 5.347656 1.328125 5.476562 C 1.269531 5.660156 1.109375 5.746094 0.960938 5.746094 C 0.6875 5.75 0.554688 5.539062 0.5625 5.3125 C 0.53125 5.070312 0.777344 4.902344 0.960938 4.914062 C 1.097656 4.925781 1.21875 5 1.292969 5.058594 C 1.339844 5.082031 1.390625 5.09375 1.320312 5.027344 C 1.183594 4.882812 1.074219 4.792969 1.074219 4.574219 C 1.078125 4.367188 1.253906 4.152344 1.488281 4.160156 C 1.78125 4.167969 1.917969 4.390625 1.914062 4.597656 C 1.914062 4.746094 1.839844 4.886719 1.722656 4.972656 C 1.644531 5.035156 1.667969 5.078125 1.753906 5.019531 C 1.835938 4.949219 1.9375 4.917969 2.039062 4.917969 C 2.320312 4.914062 2.429688 5.152344 2.414062 5.378906 C 2.398438 5.585938 2.21875 5.800781 1.980469 5.777344 C 1.769531 5.753906 1.660156 5.578125 1.59375 5.398438 C 1.574219 5.339844 1.542969 5.324219 1.542969 5.410156 C 1.589844 5.8125 1.742188 6.0625 1.742188 6.0625 Z M 1.160156 6.0625 "/>
<path style=" stroke:none;fill-rule:nonzero;fill:rgb(0%,0%,0%);fill-opacity:1;" d="M 16.855469 18.945312 C 16.761719 19.140625 16.667969 19.320312 16.617188 19.535156 C 16.582031 19.738281 16.652344 19.660156 16.691406 19.53125 C 16.75 19.347656 16.910156 19.261719 17.058594 19.261719 C 17.328125 19.257812 17.464844 19.46875 17.457031 19.695312 C 17.484375 19.9375 17.242188 20.105469 17.058594 20.09375 C 16.917969 20.082031 16.796875 20.007812 16.726562 19.949219 C 16.675781 19.925781 16.625 19.914062 16.699219 19.980469 C 16.832031 20.125 16.945312 20.214844 16.941406 20.433594 C 16.941406 20.640625 16.761719 20.855469 16.527344 20.847656 C 16.234375 20.839844 16.101562 20.617188 16.101562 20.410156 C 16.101562 20.261719 16.179688 20.121094 16.296875 20.035156 C 16.371094 19.972656 16.351562 19.929688 16.265625 19.988281 C 16.179688 20.058594 16.082031 20.089844 15.980469 20.089844 C 15.699219 20.09375 15.589844 19.855469 15.605469 19.632812 C 15.621094 19.421875 15.800781 19.207031 16.035156 19.230469 C 16.246094 19.253906 16.359375 19.429688 16.421875 19.609375 C 16.445312 19.667969 16.476562 19.683594 16.476562 19.597656 C 16.425781 19.195312 16.277344 18.945312 16.273438 18.945312 Z M 16.855469 18.945312 "/>
</g>
</svg>
