<?xml version="1.0" encoding="UTF-8"?>
<svg xmlns="http://www.w3.org/2000/svg" xmlns:xlink="http://www.w3.org/1999/xlink" width="18pt" height="25pt" viewBox="0 0 18 25" version="1.1">
<g id="surface1">
<path style="fill-rule:nonzero;fill:rgb(100%,100%,100%);fill-opacity:1;stroke-width:0.996733;stroke-linecap:butt;stroke-linejoin:miter;stroke:rgb(0%,0%,0%);stroke-opacity:1;stroke-miterlimit:4;" d="M 6715.019324 -2746.820338 L 6916.998491 -2746.820338 C 6922.831824 -2746.820338 6927.595713 -2742.027525 6927.595713 -2736.158775 L 6927.595713 -2445.606744 C 6927.595713 -2439.737994 6922.831824 -2434.994088 6916.998491 -2434.994088 L 6715.019324 -2434.994088 C 6709.13738 -2434.994088 6704.373491 -2439.737994 6704.373491 -2445.606744 L 6704.373491 -2736.158775 C 6704.373491 -2742.027525 6709.13738 -2746.820338 6715.019324 -2746.820338 Z M 6715.019324 -2746.820338 " transform="matrix(0.0803571,0,0,0.0798722,-538.705236,219.433658)"/>
<path style=" stroke:none;fill-rule:nonzero;fill:rgb(83.137255%,0%,0%);fill-opacity:1;" d="M 2.839844 4.4375 C 3.636719 3.664062 4.160156 2.820312 4.660156 2.007812 C 5.097656 2.902344 5.730469 3.683594 6.410156 4.4375 C 5.679688 5.183594 5.117188 5.984375 4.660156 6.824219 C 4.15625 5.964844 3.628906 5.183594 2.839844 4.4375 Z M 2.839844 4.4375 "/>
<path style=" stroke:none;fill-rule:nonzero;fill:rgb(83.137255%,0%,0%);fill-opacity:1;" d="M 2.839844 20.320312 C 3.636719 19.546875 4.160156 18.703125 4.660156 17.890625 C 5.097656 18.785156 5.730469 19.5625 6.410156 20.320312 C 5.679688 21.066406 5.117188 21.867188 4.660156 22.707031 C 4.15625 21.847656 3.628906 21.066406 2.839844 20.320312 Z M 2.839844 20.320312 "/>
<path style=" stroke:none;fill-rule:nonzero;fill:rgb(83.137255%,0%,0%);fill-opacity:1;" d="M 11.800781 4.4375 C 12.597656 3.664062 13.121094 2.820312 13.621094 2.007812 C 14.0625 2.902344 14.691406 3.683594 15.371094 4.4375 C 14.644531 5.183594 14.078125 5.984375 13.625 6.824219 C 13.121094 5.964844 12.589844 5.183594 11.800781 4.4375 Z M 11.800781 4.4375 "/>
<path style=" stroke:none;fill-rule:nonzero;fill:rgb(83.137255%,0%,0%);fill-opacity:1;" d="M 11.800781 20.320312 C 12.597656 19.546875 13.121094 18.703125 13.621094 17.890625 C 14.0625 18.785156 14.691406 19.5625 15.371094 20.320312 C 14.644531 21.066406 14.078125 21.867188 13.625 22.707031 C 13.121094 21.847656 12.589844 21.066406 11.800781 20.320312 Z M 11.800781 20.320312 "/>
<path style=" stroke:none;fill-rule:nonzero;fill:rgb(83.137255%,0%,0%);fill-opacity:1;" d="M 15.753906 19.90625 C 16.078125 19.585938 16.292969 19.242188 16.5 18.910156 C 16.679688 19.277344 16.9375 19.59375 17.214844 19.90625 C 16.917969 20.210938 16.6875 20.539062 16.5 20.882812 C 16.292969 20.53125 16.078125 20.210938 15.753906 19.90625 Z M 15.753906 19.90625 "/>
<path style=" stroke:none;fill-rule:nonzero;fill:rgb(83.137255%,0%,0%);fill-opacity:1;" d="M 0.707031 5.117188 C 1.035156 4.800781 1.25 4.457031 1.453125 4.125 C 1.636719 4.488281 1.894531 4.808594 2.171875 5.117188 C 1.875 5.425781 1.640625 5.753906 1.457031 6.097656 C 1.25 5.746094 1.03125 5.425781 0.707031 5.117188 Z M 0.707031 5.117188 "/>
<path style=" stroke:none;fill-rule:nonzero;fill:rgb(83.137255%,0%,0%);fill-opacity:1;" d="M 1.472656 3.742188 L 1.472656 3.519531 L 1.679688 3.519531 L 1.679688 3.148438 L 0.640625 3.148438 L 0.640625 2.886719 L 1.765625 1.203125 L 1.949219 1.203125 L 1.949219 2.886719 L 2.265625 2.886719 L 2.265625 3.148438 L 1.949219 3.148438 L 1.945312 3.519531 L 2.117188 3.519531 L 2.117188 3.742188 Z M 1.679688 1.820312 L 0.96875 2.886719 L 1.679688 2.886719 Z M 1.679688 1.820312 "/>
<path style=" stroke:none;fill-rule:nonzero;fill:rgb(83.137255%,0%,0%);fill-opacity:1;" d="M 16.542969 21.242188 L 16.542969 21.464844 L 16.335938 21.464844 L 16.335938 21.835938 L 17.375 21.835938 L 17.375 22.097656 L 16.25 23.78125 L 16.066406 23.78125 L 16.066406 22.097656 L 15.75 22.097656 L 15.75 21.835938 L 16.066406 21.835938 L 16.074219 21.464844 L 15.898438 21.464844 L 15.898438 21.242188 Z M 16.335938 23.164062 L 17.050781 22.097656 L 16.335938 22.097656 Z M 16.335938 23.164062 "/>
</g>
</svg>
