<?xml version="1.0" encoding="UTF-8"?>
<svg xmlns="http://www.w3.org/2000/svg" xmlns:xlink="http://www.w3.org/1999/xlink" width="18pt" height="25pt" viewBox="0 0 18 25" version="1.1">
<g id="surface1">
<path style="fill-rule:nonzero;fill:rgb(100%,100%,100%);fill-opacity:1;stroke-width:0.996733;stroke-linecap:butt;stroke-linejoin:miter;stroke:rgb(0%,0%,0%);stroke-opacity:1;stroke-miterlimit:4;" d="M 6715.019324 -2746.820337 L 6916.998491 -2746.820337 C 6922.831824 -2746.820337 6927.595713 -2742.027525 6927.595713 -2736.158775 L 6927.595713 -2445.606744 C 6927.595713 -2439.737994 6922.831824 -2434.994087 6916.998491 -2434.994087 L 6715.019324 -2434.994087 C 6709.13738 -2434.994087 6704.373491 -2439.737994 6704.373491 -2445.606744 L 6704.373491 -2736.158775 C 6704.373491 -2742.027525 6709.13738 -2746.820337 6715.019324 -2746.820337 Z M 6715.019324 -2746.820337 " transform="matrix(0.0803571,0,0,0.0798722,-538.705236,219.433658)"/>
<path style=" stroke:none;fill-rule:nonzero;fill:rgb(83.137255%,0%,0%);fill-opacity:1;" d="M 1.472656 3.742188 L 1.472656 3.519531 L 1.679688 3.519531 L 1.679688 3.148438 L 0.640625 3.148438 L 0.640625 2.886719 L 1.765625 1.203125 L 1.949219 1.203125 L 1.949219 2.886719 L 2.265625 2.886719 L 2.265625 3.148438 L 1.949219 3.148438 L 1.945312 3.519531 L 2.117188 3.519531 L 2.117188 3.742188 Z M 1.679688 1.820312 L 0.96875 2.886719 L 1.679688 2.886719 Z M 1.679688 1.820312 "/>
<path style=" stroke:none;fill-rule:nonzero;fill:rgb(83.137255%,0%,0%);fill-opacity:1;" d="M 16.542969 21.242188 L 16.542969 21.464844 L 16.335938 21.464844 L 16.335938 21.835938 L 17.375 21.835938 L 17.375 22.097656 L 16.25 23.78125 L 16.066406 23.78125 L 16.066406 22.097656 L 15.75 22.097656 L 15.75 21.835938 L 16.066406 21.835938 L 16.074219 21.464844 L 15.898438 21.464844 L 15.898438 21.242188 Z M 16.335938 23.164062 L 17.050781 22.097656 L 16.335938 22.097656 Z M 16.335938 23.164062 "/>
<path style=" stroke:none;fill-rule:nonzero;fill:rgb(83.137255%,0%,0%);fill-opacity:1;" d="M 0.742188 4.910156 C 0.617188 4.632812 0.601562 4.160156 0.980469 4.097656 C 1.269531 4.058594 1.386719 4.191406 1.410156 4.394531 C 1.417969 4.453125 1.453125 4.457031 1.464844 4.390625 C 1.480469 4.183594 1.6875 4.058594 1.851562 4.089844 C 2.292969 4.167969 2.269531 4.652344 2.125 4.980469 C 1.902344 5.417969 1.671875 5.695312 1.460938 6.136719 C 1.214844 5.675781 0.9375 5.304688 0.742188 4.910156 Z M 0.742188 4.910156 "/>
<path style=" stroke:none;fill-rule:nonzero;fill:rgb(83.137255%,0%,0%);fill-opacity:1;" d="M 3.65625 2.121094 C 4.230469 2.082031 4.527344 2.570312 4.585938 2.957031 C 4.621094 3.015625 4.640625 3 4.65625 2.953125 C 4.683594 2.457031 5.128906 2.054688 5.539062 2.109375 C 6.207031 2.121094 6.613281 2.859375 6.5 3.484375 C 6.359375 4.25 5.945312 4.710938 5.632812 5.1875 C 5.277344 5.679688 4.796875 6.386719 4.644531 6.730469 C 4.644531 6.730469 4.15625 5.996094 3.527344 5.128906 C 3.101562 4.550781 2.765625 3.925781 2.734375 3.386719 C 2.695312 2.769531 2.953125 2.21875 3.65625 2.121094 Z M 3.65625 2.121094 "/>
<path style=" stroke:none;fill-rule:nonzero;fill:rgb(83.137255%,0%,0%);fill-opacity:1;" d="M 12.457031 2.121094 C 13.03125 2.082031 13.332031 2.570312 13.390625 2.957031 C 13.425781 3.015625 13.441406 3 13.457031 2.953125 C 13.484375 2.457031 13.929688 2.054688 14.339844 2.109375 C 15.007812 2.121094 15.414062 2.859375 15.300781 3.484375 C 15.160156 4.25 14.746094 4.710938 14.433594 5.1875 C 14.078125 5.679688 13.597656 6.386719 13.445312 6.730469 C 13.445312 6.730469 12.960938 5.996094 12.328125 5.128906 C 11.90625 4.550781 11.566406 3.925781 11.535156 3.386719 C 11.5 2.769531 11.753906 2.21875 12.457031 2.121094 Z M 12.457031 2.121094 "/>
<path style=" stroke:none;fill-rule:nonzero;fill:rgb(83.137255%,0%,0%);fill-opacity:1;" d="M 3.65625 22.597656 C 4.230469 22.632812 4.527344 22.148438 4.585938 21.761719 C 4.621094 21.703125 4.640625 21.71875 4.65625 21.765625 C 4.683594 22.257812 5.128906 22.660156 5.539062 22.605469 C 6.207031 22.597656 6.613281 21.859375 6.5 21.230469 C 6.359375 20.464844 5.945312 20.003906 5.632812 19.53125 C 5.277344 19.039062 4.796875 18.328125 4.644531 17.988281 C 4.644531 17.988281 4.15625 18.722656 3.527344 19.585938 C 3.101562 20.164062 2.765625 20.792969 2.734375 21.332031 C 2.695312 21.949219 2.953125 22.5 3.65625 22.597656 Z M 3.65625 22.597656 "/>
<path style=" stroke:none;fill-rule:nonzero;fill:rgb(83.137255%,0%,0%);fill-opacity:1;" d="M 12.457031 22.597656 C 13.03125 22.632812 13.332031 22.148438 13.390625 21.761719 C 13.425781 21.703125 13.441406 21.71875 13.457031 21.765625 C 13.484375 22.257812 13.929688 22.660156 14.339844 22.605469 C 15.007812 22.597656 15.414062 21.859375 15.300781 21.230469 C 15.160156 20.464844 14.746094 20.003906 14.433594 19.53125 C 14.078125 19.039062 13.597656 18.328125 13.445312 17.988281 C 13.445312 17.988281 12.960938 18.722656 12.328125 19.585938 C 11.90625 20.164062 11.566406 20.792969 11.535156 21.332031 C 11.5 21.949219 11.753906 22.5 12.457031 22.597656 Z M 12.457031 22.597656 "/>
<path style=" stroke:none;fill-rule:nonzero;fill:rgb(83.137255%,0%,0%);fill-opacity:1;" d="M 15.789062 20.097656 C 15.660156 20.375 15.648438 20.847656 16.027344 20.910156 C 16.3125 20.949219 16.429688 20.816406 16.453125 20.613281 C 16.464844 20.554688 16.496094 20.550781 16.507812 20.617188 C 16.523438 20.824219 16.734375 20.949219 16.894531 20.917969 C 17.339844 20.839844 17.3125 20.355469 17.167969 20.027344 C 16.949219 19.589844 16.71875 19.3125 16.503906 18.871094 C 16.261719 19.332031 15.980469 19.703125 15.789062 20.097656 Z M 15.789062 20.097656 "/>
</g>
</svg>
