<?xml version="1.0" encoding="UTF-8"?>
<svg xmlns="http://www.w3.org/2000/svg" xmlns:xlink="http://www.w3.org/1999/xlink" width="18pt" height="25pt" viewBox="0 0 18 25" version="1.1">
<g id="surface1">
<path style="fill-rule:nonzero;fill:rgb(100%,100%,100%);fill-opacity:1;stroke-width:0.996733;stroke-linecap:butt;stroke-linejoin:miter;stroke:rgb(0%,0%,0%);stroke-opacity:1;stroke-miterlimit:4;" d="M 6715.01932 -2746.820337 L 6916.998487 -2746.820337 C 6922.83182 -2746.820337 6927.595709 -2742.027524 6927.595709 -2736.158774 L 6927.595709 -2445.606743 C 6927.595709 -2439.737993 6922.83182 -2434.994087 6916.998487 -2434.994087 L 6715.01932 -2434.994087 C 6709.137376 -2434.994087 6704.373487 -2439.737993 6704.373487 -2445.606743 L 6704.373487 -2736.158774 C 6704.373487 -2742.027524 6709.137376 -2746.820337 6715.01932 -2746.820337 Z M 6715.01932 -2746.820337 " transform="matrix(0.0803571,0,0,0.0798722,-538.705236,219.433658)"/>
<path style=" stroke:none;fill-rule:nonzero;fill:rgb(0%,0%,0%);fill-opacity:1;" d="M 1.472656 3.742188 L 1.472656 3.519531 L 1.679688 3.519531 L 1.679688 3.148438 L 0.640625 3.148438 L 0.640625 2.886719 L 1.765625 1.203125 L 1.949219 1.203125 L 1.949219 2.886719 L 2.265625 2.886719 L 2.265625 3.148438 L 1.949219 3.148438 L 1.945312 3.519531 L 2.117188 3.519531 L 2.117188 3.742188 Z M 1.679688 1.820312 L 0.96875 2.886719 L 1.679688 2.886719 Z M 1.679688 1.820312 "/>
<path style=" stroke:none;fill-rule:nonzero;fill:rgb(0%,0%,0%);fill-opacity:1;" d="M 16.542969 21.242188 L 16.542969 21.464844 L 16.335938 21.464844 L 16.335938 21.835938 L 17.375 21.835938 L 17.375 22.097656 L 16.25 23.78125 L 16.066406 23.78125 L 16.066406 22.097656 L 15.75 22.097656 L 15.75 21.835938 L 16.066406 21.835938 L 16.074219 21.464844 L 15.898438 21.464844 L 15.898438 21.242188 Z M 16.335938 23.164062 L 17.050781 22.097656 L 16.335938 22.097656 Z M 16.335938 23.164062 "/>
<path style=" stroke:none;fill-rule:nonzero;fill:rgb(0%,0%,0%);fill-opacity:1;" d="M 4.453125 5.332031 C 4.453125 5.171875 4.324219 5.167969 4.324219 5.285156 C 4.316406 5.878906 3.808594 6.171875 3.445312 6.101562 C 2.878906 5.996094 2.699219 5.4375 2.703125 5.109375 C 2.71875 4.09375 3.746094 3.347656 4.671875 2.046875 C 5.351562 3.21875 6.472656 4.140625 6.539062 5.046875 C 6.628906 6.253906 5.09375 6.703125 4.875 5.300781 C 4.859375 5.199219 4.742188 5.15625 4.75 5.292969 C 4.785156 5.679688 4.738281 5.839844 5.175781 6.789062 L 4.03125 6.789062 C 4.285156 6.34375 4.433594 5.800781 4.453125 5.332031 Z M 4.453125 5.332031 "/>
<path style=" stroke:none;fill-rule:nonzero;fill:rgb(0%,0%,0%);fill-opacity:1;" d="M 13.414062 5.332031 C 13.414062 5.171875 13.289062 5.167969 13.289062 5.285156 C 13.277344 5.878906 12.773438 6.171875 12.40625 6.101562 C 11.839844 5.996094 11.660156 5.4375 11.664062 5.109375 C 11.683594 4.09375 12.710938 3.347656 13.636719 2.046875 C 14.316406 3.21875 15.4375 4.140625 15.503906 5.046875 C 15.589844 6.253906 14.054688 6.703125 13.835938 5.300781 C 13.820312 5.199219 13.703125 5.15625 13.714844 5.292969 C 13.746094 5.679688 13.699219 5.839844 14.136719 6.789062 L 12.992188 6.789062 C 13.246094 6.34375 13.398438 5.800781 13.414062 5.332031 Z M 13.414062 5.332031 "/>
<path style=" stroke:none;fill-rule:nonzero;fill:rgb(0%,0%,0%);fill-opacity:1;" d="M 4.453125 19.386719 C 4.453125 19.550781 4.324219 19.550781 4.328125 19.433594 C 4.316406 18.839844 3.8125 18.546875 3.445312 18.617188 C 2.878906 18.726562 2.699219 19.28125 2.703125 19.609375 C 2.722656 20.625 3.746094 21.375 4.675781 22.671875 C 5.355469 21.5 6.472656 20.578125 6.539062 19.671875 C 6.628906 18.464844 5.09375 18.015625 4.875 19.421875 C 4.859375 19.519531 4.742188 19.566406 4.75 19.425781 C 4.785156 19.039062 4.738281 18.878906 5.175781 17.929688 L 4.03125 17.929688 C 4.285156 18.375 4.4375 18.917969 4.453125 19.386719 Z M 4.453125 19.386719 "/>
<path style=" stroke:none;fill-rule:nonzero;fill:rgb(0%,0%,0%);fill-opacity:1;" d="M 13.414062 19.386719 C 13.417969 19.550781 13.289062 19.550781 13.289062 19.433594 C 13.277344 18.839844 12.773438 18.546875 12.40625 18.617188 C 11.839844 18.726562 11.660156 19.28125 11.667969 19.609375 C 11.683594 20.625 12.710938 21.375 13.636719 22.671875 C 14.316406 21.5 15.4375 20.578125 15.503906 19.671875 C 15.589844 18.464844 14.054688 18.015625 13.835938 19.421875 C 13.824219 19.519531 13.703125 19.566406 13.714844 19.425781 C 13.746094 19.039062 13.699219 18.878906 14.136719 17.929688 L 12.996094 17.929688 C 13.246094 18.375 13.398438 18.917969 13.414062 19.386719 Z M 13.414062 19.386719 "/>
<path style=" stroke:none;fill-rule:nonzero;fill:rgb(0%,0%,0%);fill-opacity:1;" d="M 1.40625 5.636719 C 1.40625 5.566406 1.335938 5.597656 1.324219 5.621094 C 1.230469 5.777344 1.09375 5.816406 0.957031 5.757812 C 0.824219 5.703125 0.75 5.574219 0.761719 5.398438 C 0.785156 5.121094 1.003906 4.820312 1.113281 4.652344 C 1.210938 4.496094 1.324219 4.316406 1.4375 4.082031 C 1.574219 4.347656 1.644531 4.425781 1.792969 4.671875 C 1.925781 4.886719 2.105469 5.097656 2.121094 5.359375 C 2.121094 5.558594 2.035156 5.746094 1.847656 5.78125 C 1.738281 5.800781 1.640625 5.746094 1.566406 5.617188 C 1.542969 5.585938 1.496094 5.601562 1.496094 5.644531 C 1.511719 5.8125 1.574219 5.964844 1.726562 6.140625 L 1.171875 6.140625 C 1.285156 6.015625 1.402344 5.847656 1.40625 5.636719 Z M 1.40625 5.636719 "/>
<path style=" stroke:none;fill-rule:nonzero;fill:rgb(0%,0%,0%);fill-opacity:1;" d="M 16.449219 19.371094 C 16.453125 19.441406 16.378906 19.410156 16.367188 19.386719 C 16.273438 19.230469 16.136719 19.191406 16.003906 19.25 C 15.871094 19.304688 15.792969 19.433594 15.804688 19.609375 C 15.832031 19.886719 16.050781 20.1875 16.15625 20.355469 C 16.257812 20.511719 16.367188 20.691406 16.484375 20.925781 C 16.621094 20.660156 16.6875 20.582031 16.835938 20.335938 C 16.96875 20.121094 17.152344 19.910156 17.164062 19.648438 C 17.164062 19.449219 17.082031 19.261719 16.890625 19.226562 C 16.785156 19.207031 16.683594 19.261719 16.609375 19.390625 C 16.585938 19.421875 16.542969 19.40625 16.542969 19.363281 C 16.554688 19.195312 16.621094 19.042969 16.769531 18.867188 L 16.214844 18.867188 C 16.328125 18.992188 16.445312 19.160156 16.449219 19.371094 Z M 16.449219 19.371094 "/>
</g>
</svg>
