<?xml version="1.0" encoding="UTF-8"?>
<svg xmlns="http://www.w3.org/2000/svg" xmlns:xlink="http://www.w3.org/1999/xlink" width="18pt" height="25pt" viewBox="0 0 18 25" version="1.1">
<g id="surface1">
<path style="fill-rule:nonzero;fill:rgb(100%,100%,100%);fill-opacity:1;stroke-width:0.996733;stroke-linecap:butt;stroke-linejoin:miter;stroke:rgb(0%,0%,0%);stroke-opacity:1;stroke-miterlimit:4;" d="M 6938.247834 -2746.820338 L 7140.227001 -2746.820338 C 7146.060334 -2746.820338 7150.824223 -2742.027525 7150.824223 -2736.158775 L 7150.824223 -2445.606744 C 7150.824223 -2439.737994 7146.060334 -2434.994088 7140.227001 -2434.994088 L 6938.247834 -2434.994088 C 6932.36589 -2434.994088 6927.602001 -2439.737994 6927.602001 -2445.606744 L 6927.602001 -2736.158775 C 6927.602001 -2742.027525 6932.36589 -2746.820338 6938.247834 -2746.820338 Z M 6938.247834 -2746.820338 " transform="matrix(0.0803571,0,0,0.0798722,-556.643241,219.433658)"/>
<path style=" stroke:none;fill-rule:nonzero;fill:rgb(0%,0%,0%);fill-opacity:1;" d="M 0.703125 3.039062 L 0.960938 3.035156 C 1.011719 3.191406 1.121094 3.347656 1.269531 3.394531 C 1.6875 3.492188 1.957031 3.257812 2.046875 2.988281 C 2.152344 2.664062 2.042969 2.207031 1.753906 2.046875 C 1.515625 1.910156 1.160156 2.023438 1 2.3125 L 0.816406 2.203125 L 0.914062 1.128906 L 2.097656 1.128906 L 2.097656 1.382812 L 1.140625 1.382812 L 1.125 1.828125 C 1.328125 1.6875 1.648438 1.6875 1.855469 1.789062 C 2.246094 1.972656 2.425781 2.394531 2.351562 2.890625 C 2.246094 3.386719 2.011719 3.664062 1.488281 3.703125 C 0.90625 3.710938 0.699219 3.3125 0.703125 3.039062 Z M 0.703125 3.039062 "/>
<path style=" stroke:none;fill-rule:nonzero;fill:rgb(0%,0%,0%);fill-opacity:1;" d="M 17.328125 21.945312 L 17.066406 21.949219 C 17.019531 21.792969 16.910156 21.636719 16.761719 21.589844 C 16.34375 21.492188 16.074219 21.726562 15.984375 21.996094 C 15.875 22.320312 15.988281 22.777344 16.273438 22.9375 C 16.515625 23.074219 16.867188 22.960938 17.03125 22.671875 L 17.214844 22.78125 L 17.117188 23.855469 L 15.933594 23.855469 L 15.933594 23.601562 L 16.890625 23.601562 L 16.90625 23.15625 C 16.699219 23.300781 16.382812 23.296875 16.175781 23.195312 C 15.785156 23.011719 15.605469 22.589844 15.679688 22.09375 C 15.785156 21.597656 16.015625 21.320312 16.542969 21.28125 C 17.125 21.273438 17.328125 21.671875 17.328125 21.945312 Z M 17.328125 21.945312 "/>
<path style=" stroke:none;fill-rule:nonzero;fill:rgb(0%,0%,0%);fill-opacity:1;" d="M 8.417969 14.777344 C 8.648438 14.316406 8.820312 13.839844 8.847656 13.335938 C 8.875 13.148438 8.761719 13.144531 8.746094 13.277344 C 8.417969 14.523438 6.675781 14.1875 6.734375 13.015625 C 6.785156 12.0625 7.734375 11.859375 8.226562 12.171875 C 8.421875 12.285156 8.414062 12.214844 8.304688 12.097656 C 7.570312 11.28125 8.015625 10.230469 9.007812 10.210938 C 10.085938 10.277344 10.363281 11.398438 9.703125 12.0625 C 9.621094 12.140625 9.441406 12.394531 9.714844 12.21875 C 10.378906 11.746094 11.304688 12.253906 11.285156 12.976562 C 11.25 14.316406 9.609375 14.414062 9.261719 13.296875 C 9.226562 13.175781 9.128906 13.113281 9.15625 13.320312 C 9.203125 13.703125 9.304688 14.277344 9.59375 14.777344 Z M 8.417969 14.777344 "/>
<path style=" stroke:none;fill-rule:nonzero;fill:rgb(0%,0%,0%);fill-opacity:1;" d="M 12.375 6.847656 C 12.605469 6.386719 12.777344 5.914062 12.804688 5.40625 C 12.832031 5.222656 12.71875 5.21875 12.703125 5.347656 C 12.375 6.59375 10.632812 6.257812 10.691406 5.085938 C 10.742188 4.136719 11.691406 3.929688 12.183594 4.242188 C 12.378906 4.355469 12.371094 4.289062 12.261719 4.167969 C 11.527344 3.355469 11.972656 2.304688 12.964844 2.285156 C 14.042969 2.347656 14.320312 3.472656 13.660156 4.132812 C 13.578125 4.210938 13.398438 4.46875 13.671875 4.289062 C 14.335938 3.820312 15.261719 4.324219 15.242188 5.050781 C 15.207031 6.386719 13.566406 6.488281 13.21875 5.371094 C 13.183594 5.246094 13.085938 5.183594 13.113281 5.394531 C 13.160156 5.773438 13.261719 6.347656 13.550781 6.847656 Z M 12.375 6.847656 "/>
<path style=" stroke:none;fill-rule:nonzero;fill:rgb(0%,0%,0%);fill-opacity:1;" d="M 4.445312 6.847656 C 4.675781 6.386719 4.847656 5.914062 4.875 5.40625 C 4.902344 5.222656 4.789062 5.21875 4.773438 5.347656 C 4.445312 6.59375 2.703125 6.257812 2.761719 5.085938 C 2.8125 4.136719 3.761719 3.929688 4.253906 4.242188 C 4.449219 4.355469 4.441406 4.289062 4.332031 4.167969 C 3.597656 3.355469 4.042969 2.304688 5.035156 2.285156 C 6.113281 2.347656 6.390625 3.472656 5.730469 4.132812 C 5.648438 4.210938 5.46875 4.46875 5.742188 4.289062 C 6.40625 3.820312 7.332031 4.324219 7.3125 5.050781 C 7.277344 6.386719 5.636719 6.488281 5.289062 5.371094 C 5.253906 5.246094 5.15625 5.183594 5.183594 5.394531 C 5.230469 5.773438 5.332031 6.347656 5.621094 6.847656 Z M 4.445312 6.847656 "/>
<path style=" stroke:none;fill-rule:nonzero;fill:rgb(0%,0%,0%);fill-opacity:1;" d="M 13.558594 17.992188 C 13.324219 18.453125 13.15625 18.925781 13.128906 19.433594 C 13.101562 19.617188 13.214844 19.621094 13.230469 19.488281 C 13.558594 18.246094 15.300781 18.582031 15.242188 19.753906 C 15.191406 20.703125 14.242188 20.90625 13.746094 20.597656 C 13.550781 20.484375 13.5625 20.550781 13.671875 20.667969 C 14.40625 21.484375 13.960938 22.535156 12.964844 22.554688 C 11.890625 22.492188 11.613281 21.367188 12.273438 20.707031 C 12.355469 20.625 12.535156 20.371094 12.261719 20.550781 C 11.597656 21.019531 10.671875 20.515625 10.691406 19.789062 C 10.726562 18.453125 12.363281 18.351562 12.714844 19.46875 C 12.75 19.59375 12.847656 19.65625 12.820312 19.445312 C 12.769531 19.066406 12.671875 18.492188 12.382812 17.992188 Z M 13.558594 17.992188 "/>
<path style=" stroke:none;fill-rule:nonzero;fill:rgb(0%,0%,0%);fill-opacity:1;" d="M 5.628906 17.992188 C 5.394531 18.453125 5.226562 18.925781 5.199219 19.433594 C 5.171875 19.617188 5.285156 19.621094 5.300781 19.488281 C 5.628906 18.246094 7.371094 18.582031 7.3125 19.753906 C 7.261719 20.703125 6.3125 20.90625 5.816406 20.597656 C 5.621094 20.484375 5.632812 20.550781 5.742188 20.667969 C 6.476562 21.484375 6.03125 22.535156 5.035156 22.554688 C 3.960938 22.492188 3.683594 21.367188 4.34375 20.707031 C 4.425781 20.625 4.605469 20.371094 4.332031 20.550781 C 3.667969 21.019531 2.742188 20.515625 2.761719 19.789062 C 2.796875 18.453125 4.433594 18.351562 4.785156 19.46875 C 4.820312 19.59375 4.917969 19.65625 4.890625 19.445312 C 4.839844 19.066406 4.742188 18.492188 4.453125 17.992188 Z M 5.628906 17.992188 "/>
<path style=" stroke:none;fill-rule:nonzero;fill:rgb(0%,0%,0%);fill-opacity:1;" d="M 1.183594 6.03125 C 1.277344 5.835938 1.371094 5.65625 1.421875 5.441406 C 1.457031 5.238281 1.386719 5.3125 1.347656 5.445312 C 1.289062 5.628906 1.128906 5.714844 0.980469 5.714844 C 0.707031 5.71875 0.574219 5.507812 0.582031 5.28125 C 0.550781 5.039062 0.796875 4.871094 0.980469 4.882812 C 1.121094 4.894531 1.238281 4.96875 1.3125 5.027344 C 1.359375 5.050781 1.414062 5.0625 1.339844 4.996094 C 1.207031 4.851562 1.09375 4.761719 1.097656 4.542969 C 1.097656 4.335938 1.277344 4.121094 1.511719 4.128906 C 1.804688 4.136719 1.9375 4.359375 1.9375 4.566406 C 1.9375 4.714844 1.859375 4.855469 1.742188 4.941406 C 1.667969 5 1.6875 5.046875 1.773438 4.988281 C 1.859375 4.917969 1.957031 4.886719 2.058594 4.886719 C 2.339844 4.878906 2.449219 5.121094 2.433594 5.34375 C 2.417969 5.554688 2.238281 5.769531 2.003906 5.746094 C 1.789062 5.722656 1.679688 5.546875 1.617188 5.363281 C 1.59375 5.308594 1.5625 5.292969 1.5625 5.378906 C 1.613281 5.78125 1.761719 6.03125 1.765625 6.03125 Z M 1.183594 6.03125 "/>
<path style=" stroke:none;fill-rule:nonzero;fill:rgb(0%,0%,0%);fill-opacity:1;" d="M 16.835938 18.972656 C 16.738281 19.167969 16.648438 19.347656 16.597656 19.5625 C 16.5625 19.765625 16.632812 19.691406 16.671875 19.558594 C 16.726562 19.375 16.890625 19.289062 17.039062 19.289062 C 17.308594 19.285156 17.445312 19.496094 17.4375 19.722656 C 17.464844 19.964844 17.222656 20.132812 17.039062 20.121094 C 16.898438 20.109375 16.777344 20.035156 16.703125 19.976562 C 16.65625 19.953125 16.605469 19.941406 16.675781 20.007812 C 16.8125 20.152344 16.925781 20.242188 16.921875 20.460938 C 16.917969 20.667969 16.742188 20.882812 16.507812 20.875 C 16.214844 20.867188 16.082031 20.644531 16.082031 20.4375 C 16.082031 20.289062 16.160156 20.148438 16.277344 20.0625 C 16.351562 20.003906 16.328125 19.957031 16.242188 20.015625 C 16.160156 20.085938 16.0625 20.117188 15.957031 20.117188 C 15.679688 20.125 15.570312 19.882812 15.585938 19.660156 C 15.601562 19.449219 15.777344 19.234375 16.015625 19.257812 C 16.226562 19.28125 16.339844 19.457031 16.402344 19.640625 C 16.421875 19.695312 16.457031 19.710938 16.457031 19.625 C 16.40625 19.222656 16.253906 18.972656 16.253906 18.972656 Z M 16.835938 18.972656 "/>
</g>
</svg>
