<?xml version="1.0" encoding="UTF-8"?>
<svg xmlns="http://www.w3.org/2000/svg" xmlns:xlink="http://www.w3.org/1999/xlink" width="18pt" height="25pt" viewBox="0 0 18 25" version="1.1">
<g id="surface1">
<path style="fill-rule:nonzero;fill:rgb(100%,100%,100%);fill-opacity:1;stroke-width:0.996733;stroke-linecap:butt;stroke-linejoin:miter;stroke:rgb(0%,0%,0%);stroke-opacity:1;stroke-miterlimit:4;" d="M 6938.247834 -2746.820338 L 7140.227001 -2746.820338 C 7146.060334 -2746.820338 7150.824223 -2742.027525 7150.824223 -2736.158775 L 7150.824223 -2445.606744 C 7150.824223 -2439.737994 7146.060334 -2434.994088 7140.227001 -2434.994088 L 6938.247834 -2434.994088 C 6932.36589 -2434.994088 6927.602001 -2439.737994 6927.602001 -2445.606744 L 6927.602001 -2736.158775 C 6927.602001 -2742.027525 6932.36589 -2746.820338 6938.247834 -2746.820338 Z M 6938.247834 -2746.820338 " transform="matrix(0.0803571,0,0,0.0798722,-556.643241,219.433658)"/>
<path style=" stroke:none;fill-rule:nonzero;fill:rgb(83.137255%,0%,0%);fill-opacity:1;" d="M 2.761719 4.585938 C 3.558594 3.8125 4.082031 2.96875 4.582031 2.15625 C 5.023438 3.050781 5.652344 3.832031 6.335938 4.585938 C 5.605469 5.332031 5.039062 6.132812 4.585938 6.972656 C 4.082031 6.113281 3.550781 5.332031 2.761719 4.585938 Z M 2.761719 4.585938 "/>
<path style=" stroke:none;fill-rule:nonzero;fill:rgb(83.137255%,0%,0%);fill-opacity:1;" d="M 2.761719 20.292969 C 3.558594 19.519531 4.082031 18.675781 4.582031 17.863281 C 5.023438 18.757812 5.652344 19.539062 6.335938 20.292969 C 5.605469 21.039062 5.039062 21.839844 4.585938 22.679688 C 4.082031 21.820312 3.550781 21.039062 2.761719 20.292969 Z M 2.761719 20.292969 "/>
<path style=" stroke:none;fill-rule:nonzero;fill:rgb(83.137255%,0%,0%);fill-opacity:1;" d="M 11.65625 4.585938 C 12.453125 3.8125 12.976562 2.96875 13.476562 2.15625 C 13.917969 3.050781 14.546875 3.832031 15.230469 4.585938 C 14.5 5.332031 13.933594 6.132812 13.480469 6.972656 C 12.976562 6.113281 12.445312 5.332031 11.65625 4.585938 Z M 11.65625 4.585938 "/>
<path style=" stroke:none;fill-rule:nonzero;fill:rgb(83.137255%,0%,0%);fill-opacity:1;" d="M 7.21875 12.511719 C 8.015625 11.738281 8.539062 10.898438 9.039062 10.085938 C 9.476562 10.976562 10.109375 11.757812 10.789062 12.511719 C 10.058594 13.261719 9.496094 14.0625 9.039062 14.902344 C 8.539062 14.039062 8.007812 13.257812 7.21875 12.511719 Z M 7.21875 12.511719 "/>
<path style=" stroke:none;fill-rule:nonzero;fill:rgb(83.137255%,0%,0%);fill-opacity:1;" d="M 11.65625 20.292969 C 12.453125 19.519531 12.976562 18.675781 13.476562 17.863281 C 13.917969 18.757812 14.546875 19.539062 15.230469 20.292969 C 14.5 21.039062 13.933594 21.839844 13.480469 22.679688 C 12.976562 21.820312 12.445312 21.039062 11.65625 20.292969 Z M 11.65625 20.292969 "/>
<path style=" stroke:none;fill-rule:nonzero;fill:rgb(83.137255%,0%,0%);fill-opacity:1;" d="M 15.773438 19.933594 C 16.097656 19.617188 16.3125 19.269531 16.519531 18.9375 C 16.699219 19.304688 16.957031 19.621094 17.234375 19.933594 C 16.9375 20.238281 16.707031 20.566406 16.519531 20.910156 C 16.3125 20.558594 16.097656 20.238281 15.773438 19.933594 Z M 15.773438 19.933594 "/>
<path style=" stroke:none;fill-rule:nonzero;fill:rgb(83.137255%,0%,0%);fill-opacity:1;" d="M 0.769531 5.085938 C 1.097656 4.769531 1.3125 4.425781 1.515625 4.09375 C 1.695312 4.457031 1.953125 4.777344 2.234375 5.085938 C 1.933594 5.394531 1.703125 5.722656 1.515625 6.066406 C 1.308594 5.710938 1.09375 5.394531 0.769531 5.085938 Z M 0.769531 5.085938 "/>
<path style=" stroke:none;fill-rule:nonzero;fill:rgb(83.137255%,0%,0%);fill-opacity:1;" d="M 0.699219 3.039062 L 0.957031 3.035156 C 1.003906 3.191406 1.113281 3.347656 1.261719 3.394531 C 1.679688 3.492188 1.953125 3.257812 2.039062 2.988281 C 2.148438 2.664062 2.039062 2.207031 1.75 2.046875 C 1.511719 1.910156 1.15625 2.023438 0.992188 2.3125 L 0.8125 2.203125 L 0.90625 1.128906 L 2.09375 1.128906 L 2.09375 1.382812 L 1.132812 1.382812 L 1.117188 1.828125 C 1.324219 1.6875 1.640625 1.6875 1.847656 1.789062 C 2.238281 1.972656 2.421875 2.394531 2.34375 2.890625 C 2.238281 3.386719 2.007812 3.664062 1.484375 3.707031 C 0.902344 3.710938 0.695312 3.3125 0.699219 3.039062 Z M 0.699219 3.039062 "/>
<path style=" stroke:none;fill-rule:nonzero;fill:rgb(83.137255%,0%,0%);fill-opacity:1;" d="M 17.320312 21.945312 L 17.0625 21.949219 C 17.011719 21.792969 16.902344 21.636719 16.753906 21.589844 C 16.335938 21.492188 16.066406 21.726562 15.976562 21.996094 C 15.871094 22.320312 15.980469 22.777344 16.269531 22.9375 C 16.507812 23.074219 16.863281 22.960938 17.027344 22.671875 L 17.207031 22.78125 L 17.109375 23.855469 L 15.925781 23.855469 L 15.925781 23.601562 L 16.886719 23.601562 L 16.902344 23.15625 C 16.695312 23.300781 16.375 23.296875 16.171875 23.195312 C 15.78125 23.011719 15.597656 22.589844 15.675781 22.09375 C 15.78125 21.597656 16.011719 21.320312 16.535156 21.28125 C 17.117188 21.273438 17.324219 21.671875 17.320312 21.945312 Z M 17.320312 21.945312 "/>
</g>
</svg>
