<?xml version="1.0" encoding="UTF-8"?>
<svg xmlns="http://www.w3.org/2000/svg" xmlns:xlink="http://www.w3.org/1999/xlink" width="18pt" height="25pt" viewBox="0 0 18 25" version="1.1">
<g id="surface1">
<path style="fill-rule:nonzero;fill:rgb(100%,100%,100%);fill-opacity:1;stroke-width:0.996733;stroke-linecap:butt;stroke-linejoin:miter;stroke:rgb(0%,0%,0%);stroke-opacity:1;stroke-miterlimit:4;" d="M 6938.247834 -2746.820337 L 7140.227001 -2746.820337 C 7146.060334 -2746.820337 7150.824223 -2742.027525 7150.824223 -2736.158775 L 7150.824223 -2445.606744 C 7150.824223 -2439.737994 7146.060334 -2434.994087 7140.227001 -2434.994087 L 6938.247834 -2434.994087 C 6932.36589 -2434.994087 6927.602001 -2439.737994 6927.602001 -2445.606744 L 6927.602001 -2736.158775 C 6927.602001 -2742.027525 6932.36589 -2746.820337 6938.247834 -2746.820337 Z M 6938.247834 -2746.820337 " transform="matrix(0.0803571,0,0,0.0798722,-556.643241,219.433658)"/>
<path style=" stroke:none;fill-rule:nonzero;fill:rgb(83.137255%,0%,0%);fill-opacity:1;" d="M 0.699219 3.039062 L 0.957031 3.035156 C 1.003906 3.191406 1.113281 3.347656 1.261719 3.394531 C 1.679688 3.492188 1.953125 3.257812 2.039062 2.988281 C 2.148438 2.664062 2.039062 2.207031 1.75 2.046875 C 1.511719 1.910156 1.15625 2.023438 0.992188 2.3125 L 0.8125 2.203125 L 0.90625 1.128906 L 2.09375 1.128906 L 2.09375 1.382812 L 1.132812 1.382812 L 1.117188 1.828125 C 1.324219 1.6875 1.640625 1.6875 1.847656 1.789062 C 2.238281 1.972656 2.421875 2.394531 2.34375 2.890625 C 2.238281 3.386719 2.007812 3.664062 1.484375 3.707031 C 0.902344 3.710938 0.695312 3.3125 0.699219 3.039062 Z M 0.699219 3.039062 "/>
<path style=" stroke:none;fill-rule:nonzero;fill:rgb(83.137255%,0%,0%);fill-opacity:1;" d="M 17.320312 21.945312 L 17.0625 21.949219 C 17.011719 21.792969 16.902344 21.636719 16.753906 21.589844 C 16.335938 21.492188 16.066406 21.726562 15.976562 21.996094 C 15.871094 22.320312 15.980469 22.777344 16.269531 22.9375 C 16.507812 23.074219 16.863281 22.960938 17.027344 22.671875 L 17.207031 22.78125 L 17.109375 23.855469 L 15.925781 23.855469 L 15.925781 23.601562 L 16.886719 23.601562 L 16.902344 23.15625 C 16.695312 23.300781 16.375 23.296875 16.171875 23.195312 C 15.78125 23.011719 15.597656 22.589844 15.675781 22.09375 C 15.78125 21.597656 16.011719 21.320312 16.535156 21.28125 C 17.117188 21.273438 17.324219 21.671875 17.320312 21.945312 Z M 17.320312 21.945312 "/>
<path style=" stroke:none;fill-rule:nonzero;fill:rgb(83.137255%,0%,0%);fill-opacity:1;" d="M 0.804688 4.878906 C 0.675781 4.601562 0.664062 4.128906 1.042969 4.066406 C 1.328125 4.027344 1.445312 4.160156 1.46875 4.363281 C 1.480469 4.421875 1.515625 4.425781 1.523438 4.359375 C 1.542969 4.148438 1.75 4.027344 1.910156 4.058594 C 2.355469 4.132812 2.328125 4.621094 2.183594 4.949219 C 1.964844 5.386719 1.734375 5.664062 1.523438 6.105469 C 1.277344 5.644531 1 5.273438 0.804688 4.878906 Z M 0.804688 4.878906 "/>
<path style=" stroke:none;fill-rule:nonzero;fill:rgb(83.137255%,0%,0%);fill-opacity:1;" d="M 3.582031 2.269531 C 4.152344 2.230469 4.453125 2.71875 4.511719 3.105469 C 4.546875 3.164062 4.566406 3.148438 4.578125 3.101562 C 4.605469 2.605469 5.050781 2.203125 5.460938 2.257812 C 6.132812 2.269531 6.539062 3.007812 6.425781 3.632812 C 6.285156 4.398438 5.871094 4.859375 5.554688 5.335938 C 5.199219 5.828125 4.722656 6.535156 4.566406 6.878906 C 4.566406 6.878906 4.082031 6.144531 3.449219 5.277344 C 3.027344 4.699219 2.6875 4.074219 2.65625 3.535156 C 2.621094 2.917969 2.875 2.367188 3.582031 2.269531 Z M 3.582031 2.269531 "/>
<path style=" stroke:none;fill-rule:nonzero;fill:rgb(83.137255%,0%,0%);fill-opacity:1;" d="M 12.472656 2.269531 C 13.046875 2.230469 13.347656 2.71875 13.40625 3.105469 C 13.441406 3.164062 13.460938 3.148438 13.472656 3.101562 C 13.5 2.605469 13.945312 2.203125 14.355469 2.257812 C 15.027344 2.269531 15.433594 3.007812 15.316406 3.632812 C 15.179688 4.398438 14.765625 4.859375 14.449219 5.335938 C 14.09375 5.828125 13.617188 6.535156 13.460938 6.878906 C 13.460938 6.878906 12.976562 6.144531 12.34375 5.277344 C 11.921875 4.699219 11.582031 4.074219 11.550781 3.535156 C 11.515625 2.917969 11.769531 2.367188 12.472656 2.269531 Z M 12.472656 2.269531 "/>
<path style=" stroke:none;fill-rule:nonzero;fill:rgb(83.137255%,0%,0%);fill-opacity:1;" d="M 8.039062 10.195312 C 8.613281 10.160156 8.914062 10.644531 8.972656 11.03125 C 9.007812 11.089844 9.027344 11.074219 9.039062 11.027344 C 9.066406 10.535156 9.511719 10.128906 9.921875 10.183594 C 10.59375 10.195312 11 10.933594 10.882812 11.5625 C 10.746094 12.324219 10.332031 12.785156 10.015625 13.261719 C 9.660156 13.753906 9.183594 14.460938 9.027344 14.804688 C 9.027344 14.804688 8.542969 14.070312 7.910156 13.203125 C 7.488281 12.625 7.148438 12 7.117188 11.460938 C 7.082031 10.84375 7.335938 10.292969 8.039062 10.195312 Z M 8.039062 10.195312 "/>
<path style=" stroke:none;fill-rule:nonzero;fill:rgb(83.137255%,0%,0%);fill-opacity:1;" d="M 3.582031 22.570312 C 4.152344 22.605469 4.453125 22.121094 4.511719 21.734375 C 4.546875 21.675781 4.566406 21.691406 4.578125 21.738281 C 4.605469 22.230469 5.050781 22.636719 5.460938 22.578125 C 6.132812 22.570312 6.539062 21.832031 6.425781 21.203125 C 6.285156 20.4375 5.871094 19.980469 5.554688 19.503906 C 5.199219 19.011719 4.722656 18.300781 4.566406 17.960938 C 4.566406 17.960938 4.082031 18.695312 3.449219 19.5625 C 3.027344 20.140625 2.6875 20.765625 2.65625 21.304688 C 2.621094 21.921875 2.875 22.472656 3.582031 22.570312 Z M 3.582031 22.570312 "/>
<path style=" stroke:none;fill-rule:nonzero;fill:rgb(83.137255%,0%,0%);fill-opacity:1;" d="M 12.472656 22.570312 C 13.046875 22.605469 13.347656 22.121094 13.40625 21.734375 C 13.441406 21.675781 13.460938 21.691406 13.472656 21.738281 C 13.5 22.230469 13.945312 22.636719 14.355469 22.578125 C 15.027344 22.570312 15.433594 21.832031 15.316406 21.203125 C 15.179688 20.4375 14.765625 19.980469 14.449219 19.503906 C 14.09375 19.011719 13.617188 18.300781 13.460938 17.960938 C 13.460938 17.960938 12.976562 18.695312 12.34375 19.5625 C 11.921875 20.140625 11.582031 20.765625 11.550781 21.304688 C 11.515625 21.921875 11.769531 22.472656 12.472656 22.570312 Z M 12.472656 22.570312 "/>
<path style=" stroke:none;fill-rule:nonzero;fill:rgb(83.137255%,0%,0%);fill-opacity:1;" d="M 15.808594 20.125 C 15.679688 20.402344 15.667969 20.875 16.046875 20.9375 C 16.332031 20.976562 16.449219 20.84375 16.472656 20.640625 C 16.484375 20.582031 16.515625 20.578125 16.527344 20.644531 C 16.542969 20.855469 16.753906 20.976562 16.914062 20.945312 C 17.359375 20.871094 17.332031 20.382812 17.1875 20.054688 C 16.96875 19.617188 16.738281 19.339844 16.523438 18.898438 C 16.28125 19.359375 16.003906 19.730469 15.808594 20.125 Z M 15.808594 20.125 "/>
</g>
</svg>
