<?xml version="1.0" encoding="UTF-8"?>
<svg xmlns="http://www.w3.org/2000/svg" xmlns:xlink="http://www.w3.org/1999/xlink" width="18pt" height="25pt" viewBox="0 0 18 25" version="1.1">
<g id="surface1">
<path style="fill-rule:nonzero;fill:rgb(100%,100%,100%);fill-opacity:1;stroke-width:0.996733;stroke-linecap:butt;stroke-linejoin:miter;stroke:rgb(0%,0%,0%);stroke-opacity:1;stroke-miterlimit:4;" d="M 6938.247834 -2746.820337 L 7140.227001 -2746.820337 C 7146.060334 -2746.820337 7150.824223 -2742.027524 7150.824223 -2736.158774 L 7150.824223 -2445.606743 C 7150.824223 -2439.737993 7146.060334 -2434.994087 7140.227001 -2434.994087 L 6938.247834 -2434.994087 C 6932.36589 -2434.994087 6927.602001 -2439.737993 6927.602001 -2445.606743 L 6927.602001 -2736.158774 C 6927.602001 -2742.027524 6932.36589 -2746.820337 6938.247834 -2746.820337 Z M 6938.247834 -2746.820337 " transform="matrix(0.0803571,0,0,0.0798722,-556.643241,219.433658)"/>
<path style=" stroke:none;fill-rule:nonzero;fill:rgb(0%,0%,0%);fill-opacity:1;" d="M 0.699219 3.039062 L 0.957031 3.035156 C 1.003906 3.191406 1.113281 3.347656 1.261719 3.394531 C 1.679688 3.492188 1.953125 3.257812 2.039062 2.988281 C 2.148438 2.664062 2.039062 2.207031 1.75 2.046875 C 1.511719 1.910156 1.15625 2.023438 0.992188 2.3125 L 0.8125 2.203125 L 0.90625 1.128906 L 2.09375 1.128906 L 2.09375 1.382812 L 1.132812 1.382812 L 1.117188 1.828125 C 1.324219 1.6875 1.640625 1.6875 1.847656 1.789062 C 2.238281 1.972656 2.421875 2.394531 2.34375 2.890625 C 2.238281 3.386719 2.007812 3.664062 1.484375 3.707031 C 0.902344 3.710938 0.695312 3.3125 0.699219 3.039062 Z M 0.699219 3.039062 "/>
<path style=" stroke:none;fill-rule:nonzero;fill:rgb(0%,0%,0%);fill-opacity:1;" d="M 17.320312 21.945312 L 17.0625 21.949219 C 17.011719 21.792969 16.902344 21.636719 16.753906 21.589844 C 16.335938 21.492188 16.066406 21.726562 15.976562 21.996094 C 15.871094 22.320312 15.980469 22.777344 16.269531 22.9375 C 16.507812 23.074219 16.863281 22.960938 17.027344 22.671875 L 17.207031 22.78125 L 17.109375 23.855469 L 15.925781 23.855469 L 15.925781 23.601562 L 16.886719 23.601562 L 16.902344 23.15625 C 16.695312 23.300781 16.375 23.296875 16.171875 23.195312 C 15.78125 23.011719 15.597656 22.589844 15.675781 22.09375 C 15.78125 21.597656 16.011719 21.320312 16.535156 21.28125 C 17.117188 21.273438 17.324219 21.671875 17.320312 21.945312 Z M 17.320312 21.945312 "/>
<path style=" stroke:none;fill-rule:nonzero;fill:rgb(0%,0%,0%);fill-opacity:1;" d="M 4.375 5.480469 C 4.378906 5.320312 4.25 5.316406 4.25 5.433594 C 4.238281 6.027344 3.734375 6.320312 3.367188 6.25 C 2.800781 6.144531 2.621094 5.585938 2.628906 5.257812 C 2.644531 4.242188 3.671875 3.496094 4.597656 2.195312 C 5.277344 3.367188 6.398438 4.289062 6.464844 5.195312 C 6.550781 6.402344 5.015625 6.851562 4.796875 5.445312 C 4.785156 5.347656 4.664062 5.304688 4.675781 5.441406 C 4.707031 5.828125 4.660156 5.988281 5.097656 6.9375 L 3.957031 6.9375 C 4.207031 6.492188 4.359375 5.949219 4.375 5.480469 Z M 4.375 5.480469 "/>
<path style=" stroke:none;fill-rule:nonzero;fill:rgb(0%,0%,0%);fill-opacity:1;" d="M 13.269531 5.480469 C 13.273438 5.320312 13.144531 5.316406 13.144531 5.433594 C 13.132812 6.027344 12.628906 6.320312 12.261719 6.25 C 11.695312 6.144531 11.515625 5.585938 11.523438 5.257812 C 11.539062 4.242188 12.566406 3.496094 13.492188 2.195312 C 14.171875 3.367188 15.292969 4.289062 15.359375 5.195312 C 15.445312 6.402344 13.910156 6.851562 13.691406 5.445312 C 13.675781 5.347656 13.558594 5.304688 13.570312 5.441406 C 13.601562 5.828125 13.554688 5.988281 13.992188 6.9375 L 12.847656 6.9375 C 13.101562 6.492188 13.253906 5.949219 13.269531 5.480469 Z M 13.269531 5.480469 "/>
<path style=" stroke:none;fill-rule:nonzero;fill:rgb(0%,0%,0%);fill-opacity:1;" d="M 8.832031 13.410156 C 8.832031 13.246094 8.703125 13.242188 8.707031 13.363281 C 8.695312 13.957031 8.191406 14.246094 7.824219 14.179688 C 7.257812 14.070312 7.078125 13.511719 7.082031 13.183594 C 7.097656 12.171875 8.125 11.421875 9.054688 10.125 C 9.730469 11.296875 10.851562 12.21875 10.917969 13.125 C 11.007812 14.332031 9.472656 14.78125 9.253906 13.375 C 9.238281 13.277344 9.121094 13.230469 9.128906 13.371094 C 9.164062 13.753906 9.117188 13.914062 9.554688 14.867188 L 8.410156 14.867188 C 8.664062 14.421875 8.8125 13.878906 8.832031 13.410156 Z M 8.832031 13.410156 "/>
<path style=" stroke:none;fill-rule:nonzero;fill:rgb(0%,0%,0%);fill-opacity:1;" d="M 4.378906 19.359375 C 4.378906 19.523438 4.25 19.523438 4.25 19.40625 C 4.242188 18.8125 3.734375 18.523438 3.367188 18.589844 C 2.804688 18.699219 2.625 19.253906 2.628906 19.585938 C 2.644531 20.597656 3.671875 21.347656 4.597656 22.644531 C 5.277344 21.472656 6.398438 20.550781 6.464844 19.644531 C 6.554688 18.4375 5.019531 17.988281 4.796875 19.394531 C 4.785156 19.492188 4.667969 19.539062 4.675781 19.398438 C 4.710938 19.015625 4.660156 18.851562 5.097656 17.902344 L 3.957031 17.902344 C 4.210938 18.347656 4.359375 18.890625 4.378906 19.359375 Z M 4.378906 19.359375 "/>
<path style=" stroke:none;fill-rule:nonzero;fill:rgb(0%,0%,0%);fill-opacity:1;" d="M 13.269531 19.359375 C 13.273438 19.523438 13.144531 19.523438 13.144531 19.40625 C 13.132812 18.8125 12.628906 18.523438 12.261719 18.589844 C 11.699219 18.699219 11.515625 19.253906 11.523438 19.585938 C 11.539062 20.597656 12.566406 21.347656 13.492188 22.644531 C 14.171875 21.472656 15.292969 20.550781 15.359375 19.644531 C 15.445312 18.4375 13.910156 17.988281 13.691406 19.394531 C 13.679688 19.492188 13.5625 19.539062 13.570312 19.398438 C 13.601562 19.015625 13.554688 18.851562 13.992188 17.902344 L 12.851562 17.902344 C 13.101562 18.347656 13.253906 18.890625 13.269531 19.359375 Z M 13.269531 19.359375 "/>
<path style=" stroke:none;fill-rule:nonzero;fill:rgb(0%,0%,0%);fill-opacity:1;" d="M 1.46875 5.601562 C 1.46875 5.535156 1.394531 5.566406 1.386719 5.589844 C 1.292969 5.746094 1.15625 5.785156 1.019531 5.726562 C 0.886719 5.667969 0.808594 5.542969 0.824219 5.363281 C 0.847656 5.089844 1.066406 4.789062 1.171875 4.621094 C 1.273438 4.464844 1.382812 4.28125 1.5 4.046875 C 1.636719 4.316406 1.707031 4.394531 1.855469 4.640625 C 1.984375 4.855469 2.167969 5.066406 2.179688 5.328125 C 2.179688 5.527344 2.097656 5.714844 1.90625 5.746094 C 1.800781 5.765625 1.699219 5.710938 1.625 5.585938 C 1.605469 5.554688 1.558594 5.570312 1.558594 5.613281 C 1.570312 5.78125 1.636719 5.933594 1.785156 6.109375 L 1.234375 6.109375 C 1.347656 5.984375 1.460938 5.8125 1.46875 5.601562 Z M 1.46875 5.601562 "/>
<path style=" stroke:none;fill-rule:nonzero;fill:rgb(0%,0%,0%);fill-opacity:1;" d="M 16.46875 19.402344 C 16.472656 19.46875 16.398438 19.4375 16.386719 19.414062 C 16.296875 19.257812 16.160156 19.21875 16.023438 19.277344 C 15.890625 19.335938 15.8125 19.460938 15.824219 19.640625 C 15.851562 19.914062 16.070312 20.214844 16.175781 20.382812 C 16.277344 20.539062 16.386719 20.722656 16.503906 20.957031 C 16.640625 20.6875 16.707031 20.609375 16.855469 20.363281 C 16.988281 20.148438 17.171875 19.9375 17.183594 19.675781 C 17.183594 19.476562 17.101562 19.289062 16.910156 19.257812 C 16.804688 19.238281 16.703125 19.292969 16.628906 19.417969 C 16.605469 19.449219 16.5625 19.433594 16.5625 19.390625 C 16.574219 19.222656 16.640625 19.070312 16.789062 18.894531 L 16.234375 18.894531 C 16.347656 19.019531 16.464844 19.1875 16.46875 19.402344 Z M 16.46875 19.402344 "/>
</g>
</svg>
