<?xml version="1.0" encoding="UTF-8"?>
<svg xmlns="http://www.w3.org/2000/svg" xmlns:xlink="http://www.w3.org/1999/xlink" width="18pt" height="25pt" viewBox="0 0 18 25" version="1.1">
<g id="surface1">
<path style="fill-rule:nonzero;fill:rgb(100%,100%,100%);fill-opacity:1;stroke-width:0.996733;stroke-linecap:butt;stroke-linejoin:miter;stroke:rgb(0%,0%,0%);stroke-opacity:1;stroke-miterlimit:4;" d="M 7161.476354 -2746.820337 L 7363.455521 -2746.820337 C 7369.288854 -2746.820337 7374.052743 -2742.027524 7374.052743 -2736.158774 L 7374.052743 -2445.606743 C 7374.052743 -2439.737993 7369.288854 -2434.994087 7363.455521 -2434.994087 L 7161.476354 -2434.994087 C 7155.59441 -2434.994087 7150.830521 -2439.737993 7150.830521 -2445.606743 L 7150.830521 -2736.158774 C 7150.830521 -2742.027524 7155.59441 -2746.820337 7161.476354 -2746.820337 Z M 7161.476354 -2746.820337 " transform="matrix(0.0803571,0,0,0.0798722,-574.581247,219.433658)"/>
<path style=" stroke:none;fill-rule:nonzero;fill:rgb(0%,0%,0%);fill-opacity:1;" d="M 0.691406 2.914062 C 0.660156 2.695312 0.660156 2.128906 0.6875 1.960938 C 0.769531 1.449219 0.972656 1.214844 1.308594 1.136719 C 1.636719 1.0625 2.09375 1.144531 2.195312 1.574219 L 1.921875 1.578125 C 1.773438 1.289062 1.398438 1.367188 1.1875 1.492188 C 1.019531 1.59375 0.945312 2.011719 0.976562 2.039062 C 0.976562 2.039062 1.296875 1.808594 1.546875 1.828125 C 2.082031 1.878906 2.304688 2.332031 2.285156 2.761719 C 2.265625 3.277344 2.101562 3.6875 1.53125 3.714844 C 0.992188 3.695312 0.746094 3.410156 0.691406 2.914062 Z M 2.023438 2.777344 C 2.027344 2.421875 1.859375 2.152344 1.546875 2.125 C 1.230469 2.09375 0.914062 2.394531 0.9375 2.757812 C 0.957031 3.125 1.101562 3.433594 1.484375 3.429688 C 1.894531 3.429688 2.023438 3.035156 2.023438 2.777344 Z M 2.023438 2.777344 "/>
<path style=" stroke:none;fill-rule:nonzero;fill:rgb(0%,0%,0%);fill-opacity:1;" d="M 17.304688 22.070312 C 17.339844 22.289062 17.339844 22.855469 17.3125 23.023438 C 17.230469 23.535156 17.027344 23.773438 16.691406 23.847656 C 16.363281 23.921875 15.90625 23.839844 15.804688 23.410156 L 16.078125 23.40625 C 16.226562 23.695312 16.597656 23.617188 16.808594 23.492188 C 16.976562 23.390625 17.054688 22.972656 17.023438 22.945312 C 17.023438 22.945312 16.703125 23.175781 16.453125 23.160156 C 15.917969 23.105469 15.695312 22.652344 15.714844 22.222656 C 15.730469 21.707031 15.898438 21.296875 16.46875 21.269531 C 17.007812 21.289062 17.253906 21.574219 17.304688 22.070312 Z M 15.976562 22.207031 C 15.972656 22.5625 16.136719 22.832031 16.453125 22.859375 C 16.769531 22.890625 17.085938 22.589844 17.0625 22.226562 C 17.039062 21.859375 16.894531 21.550781 16.515625 21.554688 C 16.105469 21.554688 15.976562 21.953125 15.976562 22.207031 Z M 15.976562 22.207031 "/>
<path style=" stroke:none;fill-rule:nonzero;fill:rgb(0%,0%,0%);fill-opacity:1;" d="M 12.417969 14.78125 C 12.652344 14.320312 12.820312 13.847656 12.847656 13.339844 C 12.875 13.15625 12.761719 13.152344 12.746094 13.285156 C 12.417969 14.527344 10.675781 14.191406 10.734375 13.019531 C 10.785156 12.070312 11.734375 11.867188 12.230469 12.175781 C 12.425781 12.289062 12.414062 12.222656 12.304688 12.101562 C 11.570312 11.289062 12.015625 10.238281 13.011719 10.21875 C 14.085938 10.28125 14.363281 11.40625 13.703125 12.066406 C 13.621094 12.144531 13.441406 12.402344 13.714844 12.222656 C 14.378906 11.753906 15.304688 12.257812 15.285156 12.984375 C 15.25 14.320312 13.613281 14.421875 13.261719 13.304688 C 13.226562 13.179688 13.128906 13.117188 13.15625 13.328125 C 13.207031 13.707031 13.304688 14.28125 13.59375 14.78125 Z M 12.417969 14.78125 "/>
<path style=" stroke:none;fill-rule:nonzero;fill:rgb(0%,0%,0%);fill-opacity:1;" d="M 4.421875 14.78125 C 4.652344 14.320312 4.820312 13.847656 4.851562 13.339844 C 4.878906 13.15625 4.765625 13.152344 4.746094 13.285156 C 4.417969 14.527344 2.675781 14.191406 2.738281 13.019531 C 2.785156 12.070312 3.734375 11.867188 4.230469 12.175781 C 4.425781 12.289062 4.414062 12.222656 4.308594 12.101562 C 3.574219 11.289062 4.019531 10.238281 5.011719 10.21875 C 6.085938 10.28125 6.367188 11.40625 5.707031 12.066406 C 5.625 12.144531 5.441406 12.402344 5.714844 12.222656 C 6.382812 11.753906 7.308594 12.257812 7.289062 12.984375 C 7.253906 14.320312 5.613281 14.421875 5.261719 13.304688 C 5.230469 13.179688 5.132812 13.117188 5.160156 13.328125 C 5.207031 13.707031 5.308594 14.28125 5.59375 14.78125 Z M 4.421875 14.78125 "/>
<path style=" stroke:none;fill-rule:nonzero;fill:rgb(0%,0%,0%);fill-opacity:1;" d="M 12.417969 6.882812 C 12.652344 6.421875 12.820312 5.949219 12.847656 5.441406 C 12.875 5.257812 12.761719 5.253906 12.746094 5.382812 C 12.417969 6.628906 10.675781 6.292969 10.734375 5.121094 C 10.785156 4.171875 11.734375 3.964844 12.230469 4.277344 C 12.425781 4.390625 12.414062 4.324219 12.304688 4.203125 C 11.570312 3.390625 12.015625 2.339844 13.011719 2.320312 C 14.085938 2.382812 14.363281 3.507812 13.703125 4.167969 C 13.621094 4.246094 13.441406 4.503906 13.714844 4.324219 C 14.378906 3.855469 15.304688 4.359375 15.285156 5.085938 C 15.25 6.421875 13.613281 6.523438 13.261719 5.40625 C 13.226562 5.28125 13.128906 5.21875 13.15625 5.429688 C 13.207031 5.808594 13.304688 6.382812 13.59375 6.882812 Z M 12.417969 6.882812 "/>
<path style=" stroke:none;fill-rule:nonzero;fill:rgb(0%,0%,0%);fill-opacity:1;" d="M 4.421875 6.882812 C 4.652344 6.421875 4.820312 5.949219 4.851562 5.441406 C 4.878906 5.257812 4.765625 5.253906 4.746094 5.382812 C 4.417969 6.628906 2.675781 6.292969 2.738281 5.121094 C 2.785156 4.171875 3.734375 3.964844 4.230469 4.277344 C 4.425781 4.390625 4.414062 4.324219 4.308594 4.203125 C 3.574219 3.390625 4.019531 2.339844 5.011719 2.320312 C 6.085938 2.382812 6.367188 3.507812 5.707031 4.167969 C 5.625 4.246094 5.441406 4.503906 5.714844 4.324219 C 6.382812 3.855469 7.308594 4.359375 7.289062 5.085938 C 7.253906 6.421875 5.613281 6.523438 5.261719 5.40625 C 5.230469 5.28125 5.132812 5.21875 5.160156 5.429688 C 5.207031 5.808594 5.308594 6.382812 5.59375 6.882812 Z M 4.421875 6.882812 "/>
<path style=" stroke:none;fill-rule:nonzero;fill:rgb(0%,0%,0%);fill-opacity:1;" d="M 13.601562 18.09375 C 13.371094 18.554688 13.199219 19.027344 13.171875 19.535156 C 13.144531 19.71875 13.257812 19.722656 13.273438 19.59375 C 13.601562 18.347656 15.34375 18.683594 15.285156 19.855469 C 15.234375 20.804688 14.285156 21.011719 13.792969 20.699219 C 13.597656 20.585938 13.605469 20.652344 13.714844 20.773438 C 14.449219 21.585938 14.003906 22.636719 13.011719 22.65625 C 11.933594 22.59375 11.65625 21.46875 12.316406 20.808594 C 12.398438 20.730469 12.578125 20.472656 12.304688 20.652344 C 11.640625 21.121094 10.714844 20.617188 10.734375 19.890625 C 10.769531 18.554688 12.410156 18.457031 12.757812 19.570312 C 12.792969 19.695312 12.890625 19.757812 12.863281 19.546875 C 12.816406 19.167969 12.714844 18.59375 12.425781 18.09375 Z M 13.601562 18.09375 "/>
<path style=" stroke:none;fill-rule:nonzero;fill:rgb(0%,0%,0%);fill-opacity:1;" d="M 5.601562 18.09375 C 5.371094 18.554688 5.203125 19.027344 5.171875 19.535156 C 5.144531 19.71875 5.257812 19.722656 5.277344 19.59375 C 5.605469 18.347656 7.347656 18.683594 7.285156 19.855469 C 7.238281 20.804688 6.289062 21.011719 5.792969 20.699219 C 5.597656 20.585938 5.609375 20.652344 5.714844 20.773438 C 6.453125 21.585938 6.003906 22.636719 5.011719 22.65625 C 3.9375 22.59375 3.65625 21.46875 4.316406 20.808594 C 4.398438 20.730469 4.582031 20.472656 4.308594 20.652344 C 3.640625 21.121094 2.71875 20.617188 2.734375 19.890625 C 2.769531 18.554688 4.410156 18.457031 4.761719 19.570312 C 4.792969 19.695312 4.890625 19.757812 4.867188 19.546875 C 4.816406 19.167969 4.714844 18.59375 4.429688 18.09375 Z M 5.601562 18.09375 "/>
<path style=" stroke:none;fill-rule:nonzero;fill:rgb(0%,0%,0%);fill-opacity:1;" d="M 1.097656 5.933594 C 1.195312 5.738281 1.285156 5.558594 1.335938 5.34375 C 1.371094 5.140625 1.300781 5.214844 1.261719 5.347656 C 1.207031 5.53125 1.042969 5.617188 0.894531 5.617188 C 0.625 5.621094 0.488281 5.410156 0.496094 5.183594 C 0.46875 4.941406 0.710938 4.773438 0.894531 4.785156 C 1.035156 4.796875 1.15625 4.871094 1.226562 4.929688 C 1.277344 4.953125 1.328125 4.964844 1.257812 4.898438 C 1.121094 4.753906 1.007812 4.664062 1.011719 4.445312 C 1.011719 4.238281 1.191406 4.023438 1.425781 4.03125 C 1.71875 4.039062 1.851562 4.261719 1.851562 4.46875 C 1.851562 4.617188 1.773438 4.757812 1.65625 4.84375 C 1.582031 4.902344 1.601562 4.949219 1.691406 4.890625 C 1.773438 4.820312 1.871094 4.789062 1.976562 4.789062 C 2.253906 4.78125 2.363281 5.023438 2.347656 5.246094 C 2.332031 5.457031 2.152344 5.671875 1.917969 5.648438 C 1.707031 5.625 1.59375 5.449219 1.53125 5.265625 C 1.511719 5.210938 1.476562 5.195312 1.476562 5.28125 C 1.527344 5.683594 1.679688 5.933594 1.679688 5.933594 Z M 1.097656 5.933594 "/>
<path style=" stroke:none;fill-rule:nonzero;fill:rgb(0%,0%,0%);fill-opacity:1;" d="M 16.921875 18.875 C 16.824219 19.070312 16.730469 19.25 16.679688 19.464844 C 16.648438 19.667969 16.714844 19.59375 16.753906 19.460938 C 16.8125 19.277344 16.972656 19.191406 17.121094 19.191406 C 17.394531 19.1875 17.527344 19.398438 17.519531 19.625 C 17.550781 19.867188 17.304688 20.035156 17.121094 20.023438 C 16.984375 20.011719 16.863281 19.9375 16.789062 19.878906 C 16.742188 19.855469 16.691406 19.84375 16.761719 19.910156 C 16.898438 20.054688 17.007812 20.144531 17.007812 20.363281 C 17.003906 20.570312 16.828125 20.785156 16.59375 20.777344 C 16.300781 20.769531 16.164062 20.546875 16.167969 20.339844 C 16.167969 20.191406 16.242188 20.050781 16.359375 19.964844 C 16.4375 19.90625 16.414062 19.859375 16.328125 19.917969 C 16.246094 19.988281 16.144531 20.019531 16.042969 20.019531 C 15.761719 20.027344 15.652344 19.785156 15.667969 19.5625 C 15.683594 19.351562 15.863281 19.136719 16.101562 19.160156 C 16.3125 19.183594 16.421875 19.359375 16.488281 19.542969 C 16.507812 19.597656 16.542969 19.613281 16.539062 19.527344 C 16.492188 19.125 16.339844 18.875 16.339844 18.875 Z M 16.921875 18.875 "/>
</g>
</svg>
