<?xml version="1.0" encoding="UTF-8"?>
<svg xmlns="http://www.w3.org/2000/svg" xmlns:xlink="http://www.w3.org/1999/xlink" width="18pt" height="25pt" viewBox="0 0 18 25" version="1.1">
<g id="surface1">
<path style="fill-rule:nonzero;fill:rgb(100%,100%,100%);fill-opacity:1;stroke-width:0.996733;stroke-linecap:butt;stroke-linejoin:miter;stroke:rgb(0%,0%,0%);stroke-opacity:1;stroke-miterlimit:4;" d="M 7161.476354 -2746.820338 L 7363.455521 -2746.820338 C 7369.288854 -2746.820338 7374.052743 -2742.027525 7374.052743 -2736.158775 L 7374.052743 -2445.606744 C 7374.052743 -2439.737994 7369.288854 -2434.994088 7363.455521 -2434.994088 L 7161.476354 -2434.994088 C 7155.59441 -2434.994088 7150.830521 -2439.737994 7150.830521 -2445.606744 L 7150.830521 -2736.158775 C 7150.830521 -2742.027525 7155.59441 -2746.820338 7161.476354 -2746.820338 Z M 7161.476354 -2746.820338 " transform="matrix(0.0803571,0,0,0.0798722,-574.581247,219.433658)"/>
<path style=" stroke:none;fill-rule:nonzero;fill:rgb(83.137255%,0%,0%);fill-opacity:1;" d="M 2.753906 4.621094 C 3.550781 3.847656 4.074219 3.003906 4.574219 2.191406 C 5.011719 3.085938 5.644531 3.867188 6.324219 4.621094 C 5.597656 5.367188 5.03125 6.167969 4.578125 7.007812 C 4.074219 6.148438 3.542969 5.367188 2.753906 4.621094 Z M 2.753906 4.621094 "/>
<path style=" stroke:none;fill-rule:nonzero;fill:rgb(83.137255%,0%,0%);fill-opacity:1;" d="M 2.753906 12.519531 C 3.550781 11.746094 4.074219 10.902344 4.574219 10.089844 C 5.011719 10.984375 5.644531 11.765625 6.324219 12.519531 C 5.597656 13.265625 5.03125 14.066406 4.578125 14.910156 C 4.074219 14.046875 3.542969 13.265625 2.753906 12.519531 Z M 2.753906 12.519531 "/>
<path style=" stroke:none;fill-rule:nonzero;fill:rgb(83.137255%,0%,0%);fill-opacity:1;" d="M 2.753906 20.394531 C 3.550781 19.621094 4.074219 18.777344 4.574219 17.96875 C 5.011719 18.859375 5.644531 19.640625 6.324219 20.394531 C 5.597656 21.140625 5.03125 21.941406 4.578125 22.785156 C 4.074219 21.921875 3.542969 21.140625 2.753906 20.394531 Z M 2.753906 20.394531 "/>
<path style=" stroke:none;fill-rule:nonzero;fill:rgb(83.137255%,0%,0%);fill-opacity:1;" d="M 11.714844 4.621094 C 12.511719 3.847656 13.035156 3.003906 13.535156 2.191406 C 13.976562 3.085938 14.605469 3.867188 15.289062 4.621094 C 14.558594 5.367188 13.992188 6.167969 13.539062 7.007812 C 13.035156 6.148438 12.503906 5.367188 11.714844 4.621094 Z M 11.714844 4.621094 "/>
<path style=" stroke:none;fill-rule:nonzero;fill:rgb(83.137255%,0%,0%);fill-opacity:1;" d="M 11.714844 12.519531 C 12.511719 11.746094 13.035156 10.902344 13.535156 10.089844 C 13.976562 10.984375 14.605469 11.765625 15.289062 12.519531 C 14.558594 13.265625 13.992188 14.066406 13.539062 14.910156 C 13.035156 14.046875 12.503906 13.265625 11.714844 12.519531 Z M 11.714844 12.519531 "/>
<path style=" stroke:none;fill-rule:nonzero;fill:rgb(83.137255%,0%,0%);fill-opacity:1;" d="M 11.714844 20.394531 C 12.511719 19.621094 13.035156 18.777344 13.535156 17.96875 C 13.976562 18.859375 14.605469 19.640625 15.289062 20.394531 C 14.558594 21.140625 13.992188 21.941406 13.539062 22.785156 C 13.035156 21.921875 12.503906 21.140625 11.714844 20.394531 Z M 11.714844 20.394531 "/>
<path style=" stroke:none;fill-rule:nonzero;fill:rgb(83.137255%,0%,0%);fill-opacity:1;" d="M 15.875 19.835938 C 16.199219 19.519531 16.414062 19.171875 16.621094 18.839844 C 16.800781 19.207031 17.058594 19.523438 17.335938 19.835938 C 17.039062 20.140625 16.804688 20.46875 16.621094 20.8125 C 16.414062 20.460938 16.195312 20.140625 15.875 19.835938 Z M 15.875 19.835938 "/>
<path style=" stroke:none;fill-rule:nonzero;fill:rgb(83.137255%,0%,0%);fill-opacity:1;" d="M 0.699219 4.988281 C 1.027344 4.671875 1.242188 4.328125 1.445312 3.996094 C 1.625 4.359375 1.882812 4.679688 2.164062 4.988281 C 1.863281 5.296875 1.632812 5.625 1.449219 5.96875 C 1.242188 5.613281 1.023438 5.296875 0.699219 4.988281 Z M 0.699219 4.988281 "/>
<path style=" stroke:none;fill-rule:nonzero;fill:rgb(83.137255%,0%,0%);fill-opacity:1;" d="M 0.703125 2.914062 C 0.667969 2.695312 0.667969 2.128906 0.695312 1.960938 C 0.78125 1.449219 0.980469 1.214844 1.316406 1.136719 C 1.644531 1.0625 2.105469 1.144531 2.203125 1.574219 L 1.929688 1.578125 C 1.785156 1.289062 1.410156 1.367188 1.199219 1.492188 C 1.03125 1.59375 0.953125 2.011719 0.988281 2.039062 C 0.988281 2.039062 1.304688 1.808594 1.554688 1.828125 C 2.089844 1.878906 2.3125 2.332031 2.292969 2.761719 C 2.277344 3.277344 2.109375 3.6875 1.542969 3.714844 C 1 3.695312 0.753906 3.410156 0.703125 2.914062 Z M 2.035156 2.777344 C 2.035156 2.421875 1.871094 2.152344 1.554688 2.125 C 1.242188 2.09375 0.921875 2.394531 0.945312 2.757812 C 0.96875 3.125 1.113281 3.433594 1.496094 3.429688 C 1.90625 3.429688 2.03125 3.035156 2.035156 2.777344 Z M 2.035156 2.777344 "/>
<path style=" stroke:none;fill-rule:nonzero;fill:rgb(83.137255%,0%,0%);fill-opacity:1;" d="M 17.316406 22.070312 C 17.347656 22.289062 17.347656 22.855469 17.320312 23.023438 C 17.238281 23.535156 17.039062 23.773438 16.699219 23.847656 C 16.375 23.921875 15.914062 23.839844 15.8125 23.410156 L 16.085938 23.40625 C 16.234375 23.695312 16.609375 23.617188 16.820312 23.492188 C 16.988281 23.390625 17.0625 22.972656 17.03125 22.945312 C 17.03125 22.945312 16.714844 23.175781 16.460938 23.160156 C 15.925781 23.105469 15.707031 22.652344 15.722656 22.222656 C 15.742188 21.707031 15.910156 21.296875 16.476562 21.269531 C 17.015625 21.289062 17.265625 21.574219 17.316406 22.070312 Z M 15.984375 22.207031 C 15.980469 22.5625 16.148438 22.832031 16.460938 22.859375 C 16.777344 22.890625 17.09375 22.589844 17.074219 22.226562 C 17.050781 21.859375 16.90625 21.550781 16.523438 21.554688 C 16.113281 21.554688 15.988281 21.953125 15.984375 22.207031 Z M 15.984375 22.207031 "/>
</g>
</svg>
