<?xml version="1.0" encoding="UTF-8"?>
<svg xmlns="http://www.w3.org/2000/svg" xmlns:xlink="http://www.w3.org/1999/xlink" width="18pt" height="25pt" viewBox="0 0 18 25" version="1.1">
<g id="surface1">
<path style="fill-rule:nonzero;fill:rgb(100%,100%,100%);fill-opacity:1;stroke-width:0.996733;stroke-linecap:butt;stroke-linejoin:miter;stroke:rgb(0%,0%,0%);stroke-opacity:1;stroke-miterlimit:4;" d="M 7161.476354 -2746.820337 L 7363.455521 -2746.820337 C 7369.288854 -2746.820337 7374.052743 -2742.027525 7374.052743 -2736.158775 L 7374.052743 -2445.606744 C 7374.052743 -2439.737994 7369.288854 -2434.994087 7363.455521 -2434.994087 L 7161.476354 -2434.994087 C 7155.59441 -2434.994087 7150.830521 -2439.737994 7150.830521 -2445.606744 L 7150.830521 -2736.158775 C 7150.830521 -2742.027525 7155.59441 -2746.820337 7161.476354 -2746.820337 Z M 7161.476354 -2746.820337 " transform="matrix(0.0803571,0,0,0.0798722,-574.581247,219.433658)"/>
<path style=" stroke:none;fill-rule:nonzero;fill:rgb(83.137255%,0%,0%);fill-opacity:1;" d="M 0.703125 2.914062 C 0.667969 2.695312 0.667969 2.128906 0.695312 1.960938 C 0.78125 1.449219 0.980469 1.214844 1.316406 1.136719 C 1.644531 1.0625 2.105469 1.144531 2.203125 1.574219 L 1.929688 1.578125 C 1.785156 1.289062 1.410156 1.367188 1.199219 1.492188 C 1.03125 1.59375 0.953125 2.011719 0.988281 2.039062 C 0.988281 2.039062 1.304688 1.808594 1.554688 1.828125 C 2.089844 1.878906 2.3125 2.332031 2.292969 2.761719 C 2.277344 3.277344 2.109375 3.6875 1.542969 3.714844 C 1 3.695312 0.753906 3.410156 0.703125 2.914062 Z M 2.035156 2.777344 C 2.035156 2.421875 1.871094 2.152344 1.554688 2.125 C 1.242188 2.09375 0.921875 2.394531 0.945312 2.757812 C 0.96875 3.125 1.113281 3.433594 1.496094 3.429688 C 1.90625 3.429688 2.03125 3.035156 2.035156 2.777344 Z M 2.035156 2.777344 "/>
<path style=" stroke:none;fill-rule:nonzero;fill:rgb(83.137255%,0%,0%);fill-opacity:1;" d="M 17.316406 22.070312 C 17.347656 22.289062 17.347656 22.855469 17.320312 23.023438 C 17.238281 23.535156 17.039062 23.773438 16.699219 23.847656 C 16.375 23.921875 15.914062 23.839844 15.8125 23.410156 L 16.085938 23.40625 C 16.234375 23.695312 16.609375 23.617188 16.820312 23.492188 C 16.988281 23.390625 17.0625 22.972656 17.03125 22.945312 C 17.03125 22.945312 16.714844 23.175781 16.460938 23.160156 C 15.925781 23.105469 15.707031 22.652344 15.722656 22.222656 C 15.742188 21.707031 15.910156 21.296875 16.476562 21.269531 C 17.015625 21.289062 17.265625 21.574219 17.316406 22.070312 Z M 15.984375 22.207031 C 15.980469 22.5625 16.148438 22.832031 16.460938 22.859375 C 16.777344 22.890625 17.09375 22.589844 17.074219 22.226562 C 17.050781 21.859375 16.90625 21.550781 16.523438 21.554688 C 16.113281 21.554688 15.988281 21.953125 15.984375 22.207031 Z M 15.984375 22.207031 "/>
<path style=" stroke:none;fill-rule:nonzero;fill:rgb(83.137255%,0%,0%);fill-opacity:1;" d="M 0.734375 4.78125 C 0.609375 4.503906 0.59375 4.03125 0.972656 3.964844 C 1.261719 3.929688 1.375 4.0625 1.398438 4.265625 C 1.410156 4.324219 1.445312 4.328125 1.457031 4.261719 C 1.472656 4.050781 1.679688 3.929688 1.84375 3.960938 C 2.285156 4.035156 2.261719 4.523438 2.113281 4.851562 C 1.894531 5.289062 1.664062 5.566406 1.453125 6.007812 C 1.207031 5.546875 0.929688 5.175781 0.734375 4.78125 Z M 0.734375 4.78125 "/>
<path style=" stroke:none;fill-rule:nonzero;fill:rgb(83.137255%,0%,0%);fill-opacity:1;" d="M 3.570312 2.304688 C 4.144531 2.265625 4.445312 2.753906 4.503906 3.140625 C 4.539062 3.199219 4.554688 3.183594 4.570312 3.136719 C 4.597656 2.640625 5.042969 2.238281 5.453125 2.292969 C 6.121094 2.304688 6.527344 3.042969 6.414062 3.667969 C 6.273438 4.433594 5.859375 4.894531 5.546875 5.371094 C 5.191406 5.863281 4.710938 6.570312 4.558594 6.914062 C 4.558594 6.914062 4.074219 6.179688 3.441406 5.3125 C 3.015625 4.734375 2.679688 4.109375 2.648438 3.570312 C 2.613281 2.953125 2.867188 2.402344 3.570312 2.304688 Z M 3.570312 2.304688 "/>
<path style=" stroke:none;fill-rule:nonzero;fill:rgb(83.137255%,0%,0%);fill-opacity:1;" d="M 12.535156 2.304688 C 13.105469 2.265625 13.40625 2.753906 13.464844 3.140625 C 13.5 3.199219 13.519531 3.183594 13.53125 3.136719 C 13.558594 2.640625 14.003906 2.238281 14.414062 2.292969 C 15.085938 2.304688 15.492188 3.042969 15.378906 3.667969 C 15.238281 4.433594 14.824219 4.894531 14.507812 5.371094 C 14.152344 5.863281 13.675781 6.570312 13.519531 6.914062 C 13.519531 6.914062 13.035156 6.179688 12.402344 5.3125 C 11.980469 4.734375 11.640625 4.109375 11.609375 3.570312 C 11.574219 2.953125 11.828125 2.402344 12.535156 2.304688 Z M 12.535156 2.304688 "/>
<path style=" stroke:none;fill-rule:nonzero;fill:rgb(83.137255%,0%,0%);fill-opacity:1;" d="M 12.535156 10.203125 C 13.105469 10.167969 13.40625 10.652344 13.464844 11.039062 C 13.5 11.097656 13.519531 11.082031 13.53125 11.035156 C 13.558594 10.542969 14.003906 10.136719 14.414062 10.191406 C 15.085938 10.203125 15.492188 10.941406 15.378906 11.570312 C 15.238281 12.332031 14.824219 12.792969 14.507812 13.269531 C 14.152344 13.761719 13.675781 14.46875 13.519531 14.8125 C 13.519531 14.8125 13.035156 14.078125 12.402344 13.210938 C 11.980469 12.632812 11.640625 12.007812 11.609375 11.46875 C 11.574219 10.851562 11.828125 10.300781 12.535156 10.203125 Z M 12.535156 10.203125 "/>
<path style=" stroke:none;fill-rule:nonzero;fill:rgb(83.137255%,0%,0%);fill-opacity:1;" d="M 3.570312 10.203125 C 4.144531 10.167969 4.445312 10.652344 4.503906 11.039062 C 4.539062 11.097656 4.554688 11.082031 4.570312 11.035156 C 4.597656 10.542969 5.042969 10.136719 5.453125 10.191406 C 6.121094 10.203125 6.527344 10.941406 6.414062 11.570312 C 6.273438 12.332031 5.859375 12.792969 5.546875 13.269531 C 5.191406 13.761719 4.710938 14.46875 4.558594 14.8125 C 4.558594 14.8125 4.074219 14.078125 3.441406 13.210938 C 3.015625 12.632812 2.679688 12.007812 2.648438 11.46875 C 2.613281 10.851562 2.867188 10.300781 3.570312 10.203125 Z M 3.570312 10.203125 "/>
<path style=" stroke:none;fill-rule:nonzero;fill:rgb(83.137255%,0%,0%);fill-opacity:1;" d="M 3.570312 22.671875 C 4.144531 22.710938 4.445312 22.222656 4.503906 21.839844 C 4.539062 21.777344 4.554688 21.792969 4.570312 21.839844 C 4.597656 22.335938 5.042969 22.738281 5.453125 22.683594 C 6.121094 22.671875 6.527344 21.933594 6.414062 21.308594 C 6.273438 20.542969 5.859375 20.082031 5.546875 19.605469 C 5.191406 19.113281 4.710938 18.40625 4.558594 18.0625 C 4.558594 18.0625 4.074219 18.796875 3.441406 19.664062 C 3.015625 20.242188 2.679688 20.867188 2.648438 21.40625 C 2.613281 22.023438 2.867188 22.574219 3.570312 22.671875 Z M 3.570312 22.671875 "/>
<path style=" stroke:none;fill-rule:nonzero;fill:rgb(83.137255%,0%,0%);fill-opacity:1;" d="M 12.535156 22.671875 C 13.105469 22.710938 13.40625 22.222656 13.464844 21.839844 C 13.5 21.777344 13.519531 21.792969 13.53125 21.839844 C 13.558594 22.335938 14.003906 22.738281 14.414062 22.683594 C 15.085938 22.671875 15.492188 21.933594 15.378906 21.308594 C 15.238281 20.542969 14.824219 20.082031 14.507812 19.605469 C 14.152344 19.113281 13.675781 18.40625 13.519531 18.0625 C 13.519531 18.0625 13.035156 18.796875 12.402344 19.664062 C 11.980469 20.242188 11.640625 20.867188 11.609375 21.40625 C 11.574219 22.023438 11.828125 22.574219 12.535156 22.671875 Z M 12.535156 22.671875 "/>
<path style=" stroke:none;fill-rule:nonzero;fill:rgb(83.137255%,0%,0%);fill-opacity:1;" d="M 15.90625 20.027344 C 15.78125 20.304688 15.765625 20.777344 16.148438 20.839844 C 16.433594 20.878906 16.550781 20.746094 16.574219 20.542969 C 16.582031 20.484375 16.617188 20.480469 16.628906 20.546875 C 16.644531 20.757812 16.851562 20.878906 17.015625 20.847656 C 17.457031 20.769531 17.433594 20.285156 17.289062 19.957031 C 17.066406 19.519531 16.835938 19.242188 16.625 18.800781 C 16.382812 19.261719 16.101562 19.632812 15.90625 20.027344 Z M 15.90625 20.027344 "/>
</g>
</svg>
