<?xml version="1.0" encoding="UTF-8"?>
<svg xmlns="http://www.w3.org/2000/svg" xmlns:xlink="http://www.w3.org/1999/xlink" width="18pt" height="25pt" viewBox="0 0 18 25" version="1.1">
<g id="surface1">
<path style="fill-rule:nonzero;fill:rgb(100%,100%,100%);fill-opacity:1;stroke-width:0.996733;stroke-linecap:butt;stroke-linejoin:miter;stroke:rgb(0%,0%,0%);stroke-opacity:1;stroke-miterlimit:4;" d="M 7161.476354 -2746.820337 L 7363.455521 -2746.820337 C 7369.288854 -2746.820337 7374.052743 -2742.027524 7374.052743 -2736.158774 L 7374.052743 -2445.606743 C 7374.052743 -2439.737993 7369.288854 -2434.994087 7363.455521 -2434.994087 L 7161.476354 -2434.994087 C 7155.59441 -2434.994087 7150.830521 -2439.737993 7150.830521 -2445.606743 L 7150.830521 -2736.158774 C 7150.830521 -2742.027524 7155.59441 -2746.820337 7161.476354 -2746.820337 Z M 7161.476354 -2746.820337 " transform="matrix(0.0803571,0,0,0.0798722,-574.581247,219.433658)"/>
<path style=" stroke:none;fill-rule:nonzero;fill:rgb(0%,0%,0%);fill-opacity:1;" d="M 0.703125 2.914062 C 0.667969 2.695312 0.667969 2.128906 0.695312 1.960938 C 0.78125 1.449219 0.980469 1.214844 1.316406 1.136719 C 1.644531 1.0625 2.105469 1.144531 2.203125 1.574219 L 1.929688 1.578125 C 1.785156 1.289062 1.410156 1.367188 1.199219 1.492188 C 1.03125 1.59375 0.953125 2.011719 0.988281 2.039062 C 0.988281 2.039062 1.304688 1.808594 1.554688 1.828125 C 2.089844 1.878906 2.3125 2.332031 2.292969 2.761719 C 2.277344 3.277344 2.109375 3.6875 1.542969 3.714844 C 1 3.695312 0.753906 3.410156 0.703125 2.914062 Z M 2.035156 2.777344 C 2.035156 2.421875 1.871094 2.152344 1.554688 2.125 C 1.242188 2.09375 0.921875 2.394531 0.945312 2.757812 C 0.96875 3.125 1.113281 3.433594 1.496094 3.429688 C 1.90625 3.429688 2.03125 3.035156 2.035156 2.777344 Z M 2.035156 2.777344 "/>
<path style=" stroke:none;fill-rule:nonzero;fill:rgb(0%,0%,0%);fill-opacity:1;" d="M 17.316406 22.070312 C 17.347656 22.289062 17.347656 22.855469 17.320312 23.023438 C 17.238281 23.535156 17.039062 23.773438 16.699219 23.847656 C 16.375 23.921875 15.914062 23.839844 15.8125 23.410156 L 16.085938 23.40625 C 16.234375 23.695312 16.609375 23.617188 16.820312 23.492188 C 16.988281 23.390625 17.0625 22.972656 17.03125 22.945312 C 17.03125 22.945312 16.714844 23.175781 16.460938 23.160156 C 15.925781 23.105469 15.707031 22.652344 15.722656 22.222656 C 15.742188 21.707031 15.910156 21.296875 16.476562 21.269531 C 17.015625 21.289062 17.265625 21.574219 17.316406 22.070312 Z M 15.984375 22.207031 C 15.980469 22.5625 16.148438 22.832031 16.460938 22.859375 C 16.777344 22.890625 17.09375 22.589844 17.074219 22.226562 C 17.050781 21.859375 16.90625 21.550781 16.523438 21.554688 C 16.113281 21.554688 15.988281 21.953125 15.984375 22.207031 Z M 15.984375 22.207031 "/>
<path style=" stroke:none;fill-rule:nonzero;fill:rgb(0%,0%,0%);fill-opacity:1;" d="M 4.367188 5.515625 C 4.367188 5.355469 4.238281 5.351562 4.242188 5.46875 C 4.230469 6.0625 3.726562 6.355469 3.359375 6.285156 C 2.792969 6.179688 2.613281 5.621094 2.617188 5.292969 C 2.636719 4.277344 3.660156 3.53125 4.589844 2.230469 C 5.269531 3.402344 6.386719 4.324219 6.453125 5.230469 C 6.542969 6.4375 5.007812 6.886719 4.789062 5.484375 C 4.773438 5.382812 4.65625 5.339844 4.664062 5.476562 C 4.699219 5.863281 4.652344 6.023438 5.089844 6.972656 L 3.945312 6.972656 C 4.199219 6.527344 4.351562 5.984375 4.367188 5.515625 Z M 4.367188 5.515625 "/>
<path style=" stroke:none;fill-rule:nonzero;fill:rgb(0%,0%,0%);fill-opacity:1;" d="M 13.328125 5.515625 C 13.332031 5.355469 13.203125 5.351562 13.203125 5.46875 C 13.191406 6.0625 12.6875 6.355469 12.320312 6.285156 C 11.753906 6.179688 11.574219 5.621094 11.582031 5.292969 C 11.597656 4.277344 12.625 3.53125 13.550781 2.230469 C 14.230469 3.402344 15.351562 4.324219 15.417969 5.230469 C 15.503906 6.4375 13.96875 6.886719 13.75 5.484375 C 13.738281 5.382812 13.617188 5.339844 13.628906 5.476562 C 13.660156 5.863281 13.613281 6.023438 14.050781 6.972656 L 12.910156 6.972656 C 13.160156 6.527344 13.3125 5.984375 13.328125 5.515625 Z M 13.328125 5.515625 "/>
<path style=" stroke:none;fill-rule:nonzero;fill:rgb(0%,0%,0%);fill-opacity:1;" d="M 4.367188 11.585938 C 4.371094 11.75 4.242188 11.753906 4.242188 11.632812 C 4.230469 11.042969 3.726562 10.75 3.359375 10.816406 C 2.792969 10.925781 2.613281 11.484375 2.617188 11.8125 C 2.636719 12.824219 3.664062 13.574219 4.589844 14.875 C 5.269531 13.699219 6.390625 12.777344 6.457031 11.871094 C 6.542969 10.664062 5.007812 10.214844 4.789062 11.621094 C 4.773438 11.71875 4.65625 11.765625 4.667969 11.625 C 4.699219 11.242188 4.652344 11.082031 5.089844 10.132812 L 3.945312 10.132812 C 4.199219 10.574219 4.351562 11.121094 4.367188 11.585938 Z M 4.367188 11.585938 "/>
<path style=" stroke:none;fill-rule:nonzero;fill:rgb(0%,0%,0%);fill-opacity:1;" d="M 13.332031 11.585938 C 13.332031 11.75 13.203125 11.753906 13.203125 11.632812 C 13.195312 11.042969 12.6875 10.75 12.320312 10.816406 C 11.757812 10.925781 11.574219 11.484375 11.582031 11.8125 C 11.597656 12.824219 12.625 13.574219 13.550781 14.875 C 14.230469 13.699219 15.351562 12.777344 15.417969 11.871094 C 15.507812 10.664062 13.972656 10.214844 13.75 11.621094 C 13.738281 11.71875 13.621094 11.765625 13.628906 11.625 C 13.664062 11.242188 13.613281 11.082031 14.050781 10.132812 L 12.910156 10.132812 C 13.164062 10.574219 13.3125 11.121094 13.332031 11.585938 Z M 13.332031 11.585938 "/>
<path style=" stroke:none;fill-rule:nonzero;fill:rgb(0%,0%,0%);fill-opacity:1;" d="M 13.332031 19.460938 C 13.332031 19.625 13.203125 19.628906 13.203125 19.507812 C 13.195312 18.917969 12.6875 18.625 12.320312 18.695312 C 11.757812 18.800781 11.574219 19.359375 11.582031 19.6875 C 11.597656 20.699219 12.625 21.449219 13.550781 22.75 C 14.230469 21.574219 15.351562 20.652344 15.417969 19.746094 C 15.507812 18.539062 13.972656 18.089844 13.75 19.496094 C 13.738281 19.59375 13.621094 19.640625 13.628906 19.5 C 13.664062 19.117188 13.613281 18.957031 14.050781 18.007812 L 12.910156 18.007812 C 13.164062 18.449219 13.3125 18.996094 13.332031 19.460938 Z M 13.332031 19.460938 "/>
<path style=" stroke:none;fill-rule:nonzero;fill:rgb(0%,0%,0%);fill-opacity:1;" d="M 4.367188 19.460938 C 4.371094 19.625 4.242188 19.628906 4.242188 19.507812 C 4.230469 18.917969 3.726562 18.625 3.359375 18.695312 C 2.792969 18.800781 2.613281 19.359375 2.617188 19.6875 C 2.636719 20.699219 3.664062 21.449219 4.589844 22.75 C 5.269531 21.574219 6.390625 20.652344 6.457031 19.746094 C 6.542969 18.539062 5.007812 18.089844 4.789062 19.496094 C 4.773438 19.59375 4.65625 19.640625 4.667969 19.5 C 4.699219 19.117188 4.652344 18.957031 5.089844 18.007812 L 3.945312 18.007812 C 4.199219 18.449219 4.351562 18.996094 4.367188 19.460938 Z M 4.367188 19.460938 "/>
<path style=" stroke:none;fill-rule:nonzero;fill:rgb(0%,0%,0%);fill-opacity:1;" d="M 1.398438 5.503906 C 1.398438 5.4375 1.324219 5.46875 1.316406 5.492188 C 1.222656 5.648438 1.085938 5.6875 0.949219 5.628906 C 0.816406 5.570312 0.742188 5.445312 0.753906 5.265625 C 0.777344 4.992188 0.996094 4.691406 1.101562 4.523438 C 1.203125 4.367188 1.3125 4.183594 1.429688 3.949219 C 1.566406 4.21875 1.636719 4.296875 1.785156 4.542969 C 1.914062 4.757812 2.097656 4.96875 2.113281 5.230469 C 2.113281 5.429688 2.027344 5.617188 1.839844 5.648438 C 1.730469 5.667969 1.632812 5.613281 1.558594 5.488281 C 1.535156 5.453125 1.488281 5.472656 1.488281 5.515625 C 1.503906 5.683594 1.566406 5.835938 1.71875 6.011719 L 1.164062 6.011719 C 1.277344 5.886719 1.390625 5.714844 1.398438 5.503906 Z M 1.398438 5.503906 "/>
<path style=" stroke:none;fill-rule:nonzero;fill:rgb(0%,0%,0%);fill-opacity:1;" d="M 16.570312 19.304688 C 16.570312 19.371094 16.5 19.339844 16.488281 19.316406 C 16.394531 19.160156 16.257812 19.121094 16.125 19.179688 C 15.988281 19.238281 15.914062 19.363281 15.925781 19.542969 C 15.949219 19.816406 16.167969 20.117188 16.277344 20.285156 C 16.375 20.441406 16.488281 20.625 16.601562 20.855469 C 16.738281 20.589844 16.808594 20.511719 16.957031 20.265625 C 17.089844 20.050781 17.269531 19.839844 17.285156 19.578125 C 17.285156 19.378906 17.199219 19.191406 17.011719 19.160156 C 16.902344 19.140625 16.804688 19.195312 16.730469 19.320312 C 16.707031 19.351562 16.660156 19.335938 16.664062 19.292969 C 16.675781 19.125 16.738281 18.972656 16.890625 18.796875 L 16.335938 18.796875 C 16.449219 18.921875 16.566406 19.089844 16.570312 19.304688 Z M 16.570312 19.304688 "/>
</g>
</svg>
