<?xml version="1.0" encoding="UTF-8"?>
<svg xmlns="http://www.w3.org/2000/svg" xmlns:xlink="http://www.w3.org/1999/xlink" width="18pt" height="25pt" viewBox="0 0 18 25" version="1.1">
<g id="surface1">
<path style="fill-rule:nonzero;fill:rgb(100%,100%,100%);fill-opacity:1;stroke-width:0.99;stroke-linecap:butt;stroke-linejoin:miter;stroke:rgb(0%,0%,0%);stroke-opacity:1;stroke-miterlimit:3.8;" d="M 6045.337624 -2435.005938 L 6247.316791 -2435.005938 C 6253.150124 -2435.005938 6257.914013 -2430.262031 6257.914013 -2424.393281 L 6257.914013 -2133.84125 C 6257.914013 -2127.9725 6253.150124 -2123.179688 6247.316791 -2123.179688 L 6045.337624 -2123.179688 C 6039.45568 -2123.179688 6034.691791 -2127.9725 6034.691791 -2133.84125 L 6034.691791 -2424.393281 C 6034.691791 -2430.262031 6039.45568 -2435.005938 6045.337624 -2435.005938 Z M 6045.337624 -2435.005938 " transform="matrix(0.0803571,0,0,0.0798722,-484.891528,194.528355)"/>
<path style=" stroke:none;fill-rule:nonzero;fill:rgb(0%,0%,0%);fill-opacity:1;" d="M 1.007812 3.753906 C 1.179688 2.867188 1.363281 2.203125 1.84375 1.480469 L 0.867188 1.480469 L 0.867188 1.792969 L 0.609375 1.792969 L 0.609375 1.207031 L 2.035156 1.207031 L 2.210938 1.480469 C 1.699219 2.023438 1.234375 3.78125 1.316406 3.753906 Z M 1.007812 3.753906 "/>
<path style=" stroke:none;fill-rule:nonzero;fill:rgb(0%,0%,0%);fill-opacity:1;" d="M 16.960938 21.230469 C 16.792969 22.117188 16.609375 22.78125 16.128906 23.5 L 17.101562 23.5 L 17.101562 23.191406 L 17.363281 23.191406 L 17.363281 23.777344 L 15.9375 23.777344 L 15.761719 23.5 C 16.269531 22.957031 16.734375 21.203125 16.652344 21.230469 Z M 16.960938 21.230469 "/>
<path style=" stroke:none;fill-rule:nonzero;fill:rgb(0%,0%,0%);fill-opacity:1;" d="M 12.503906 7 C 12.738281 6.535156 12.90625 6.0625 12.933594 5.558594 C 12.960938 5.371094 12.847656 5.367188 12.832031 5.5 C 12.503906 6.746094 10.761719 6.40625 10.820312 5.234375 C 10.871094 4.285156 11.820312 4.082031 12.3125 4.390625 C 12.511719 4.507812 12.5 4.4375 12.390625 4.320312 C 11.65625 3.503906 12.101562 2.453125 13.097656 2.433594 C 14.171875 2.496094 14.449219 3.621094 13.789062 4.285156 C 13.707031 4.363281 13.527344 4.617188 13.800781 4.441406 C 14.464844 3.96875 15.390625 4.476562 15.371094 5.199219 C 15.335938 6.535156 13.695312 6.636719 13.347656 5.519531 C 13.3125 5.394531 13.214844 5.332031 13.242188 5.542969 C 13.292969 5.925781 13.390625 6.5 13.679688 7 Z M 12.503906 7 "/>
<path style=" stroke:none;fill-rule:nonzero;fill:rgb(0%,0%,0%);fill-opacity:1;" d="M 12.503906 15.003906 C 12.738281 14.542969 12.90625 14.070312 12.933594 13.566406 C 12.960938 13.378906 12.847656 13.375 12.832031 13.507812 C 12.503906 14.753906 10.761719 14.414062 10.820312 13.242188 C 10.871094 12.292969 11.820312 12.089844 12.3125 12.398438 C 12.511719 12.515625 12.5 12.445312 12.390625 12.328125 C 11.65625 11.511719 12.101562 10.460938 13.097656 10.441406 C 14.171875 10.503906 14.449219 11.628906 13.789062 12.289062 C 13.707031 12.371094 13.527344 12.625 13.800781 12.445312 C 14.464844 11.976562 15.390625 12.480469 15.371094 13.207031 C 15.335938 14.542969 13.695312 14.644531 13.347656 13.527344 C 13.3125 13.402344 13.214844 13.339844 13.242188 13.550781 C 13.292969 13.933594 13.390625 14.507812 13.679688 15.003906 Z M 12.503906 15.003906 "/>
<path style=" stroke:none;fill-rule:nonzero;fill:rgb(0%,0%,0%);fill-opacity:1;" d="M 4.347656 15.003906 C 4.578125 14.542969 4.746094 14.070312 4.777344 13.566406 C 4.804688 13.378906 4.691406 13.375 4.671875 13.507812 C 4.34375 14.753906 2.601562 14.414062 2.664062 13.242188 C 2.710938 12.292969 3.660156 12.089844 4.15625 12.398438 C 4.351562 12.515625 4.339844 12.445312 4.234375 12.328125 C 3.496094 11.511719 3.941406 10.460938 4.9375 10.441406 C 6.011719 10.503906 6.292969 11.628906 5.632812 12.289062 C 5.550781 12.371094 5.367188 12.625 5.640625 12.445312 C 6.308594 11.976562 7.230469 12.480469 7.214844 13.207031 C 7.179688 14.542969 5.539062 14.644531 5.1875 13.527344 C 5.152344 13.402344 5.058594 13.339844 5.082031 13.550781 C 5.132812 13.933594 5.234375 14.507812 5.519531 15.003906 Z M 4.347656 15.003906 "/>
<path style=" stroke:none;fill-rule:nonzero;fill:rgb(0%,0%,0%);fill-opacity:1;" d="M 8.398438 11 C 8.628906 10.539062 8.800781 10.066406 8.828125 9.5625 C 8.855469 9.375 8.742188 9.371094 8.726562 9.503906 C 8.398438 10.75 6.65625 10.410156 6.714844 9.238281 C 6.761719 8.289062 7.714844 8.085938 8.207031 8.394531 C 8.402344 8.511719 8.394531 8.441406 8.285156 8.324219 C 7.550781 7.507812 7.996094 6.457031 8.988281 6.4375 C 10.066406 6.5 10.34375 7.625 9.683594 8.285156 C 9.601562 8.367188 9.421875 8.621094 9.695312 8.441406 C 10.359375 7.972656 11.285156 8.476562 11.265625 9.203125 C 11.230469 10.539062 9.589844 10.640625 9.242188 9.523438 C 9.207031 9.398438 9.109375 9.335938 9.136719 9.546875 C 9.183594 9.929688 9.285156 10.503906 9.574219 11 Z M 8.398438 11 "/>
<path style=" stroke:none;fill-rule:nonzero;fill:rgb(0%,0%,0%);fill-opacity:1;" d="M 4.347656 7 C 4.578125 6.535156 4.746094 6.0625 4.777344 5.558594 C 4.804688 5.371094 4.691406 5.367188 4.671875 5.5 C 4.34375 6.746094 2.601562 6.40625 2.664062 5.234375 C 2.710938 4.285156 3.660156 4.082031 4.15625 4.390625 C 4.351562 4.507812 4.339844 4.4375 4.234375 4.320312 C 3.496094 3.503906 3.941406 2.453125 4.9375 2.433594 C 6.011719 2.496094 6.292969 3.621094 5.632812 4.285156 C 5.550781 4.363281 5.367188 4.617188 5.640625 4.441406 C 6.308594 3.96875 7.230469 4.476562 7.214844 5.199219 C 7.179688 6.535156 5.539062 6.636719 5.1875 5.519531 C 5.152344 5.394531 5.058594 5.332031 5.082031 5.542969 C 5.132812 5.925781 5.234375 6.5 5.519531 7 Z M 4.347656 7 "/>
<path style=" stroke:none;fill-rule:nonzero;fill:rgb(0%,0%,0%);fill-opacity:1;" d="M 13.6875 18.316406 C 13.457031 18.777344 13.285156 19.25 13.257812 19.757812 C 13.230469 19.945312 13.34375 19.945312 13.359375 19.816406 C 13.6875 18.570312 15.429688 18.90625 15.371094 20.078125 C 15.320312 21.027344 14.371094 21.234375 13.878906 20.921875 C 13.683594 20.808594 13.691406 20.875 13.800781 20.996094 C 14.535156 21.8125 14.089844 22.863281 13.09375 22.878906 C 12.019531 22.816406 11.742188 21.691406 12.402344 21.03125 C 12.484375 20.953125 12.664062 20.695312 12.390625 20.875 C 11.726562 21.347656 10.800781 20.839844 10.820312 20.113281 C 10.855469 18.777344 12.496094 18.679688 12.84375 19.796875 C 12.878906 19.917969 12.976562 19.980469 12.949219 19.769531 C 12.902344 19.390625 12.800781 18.816406 12.511719 18.316406 Z M 13.6875 18.316406 "/>
<path style=" stroke:none;fill-rule:nonzero;fill:rgb(0%,0%,0%);fill-opacity:1;" d="M 5.527344 18.316406 C 5.296875 18.777344 5.128906 19.25 5.097656 19.757812 C 5.070312 19.945312 5.183594 19.945312 5.203125 19.816406 C 5.527344 18.570312 7.273438 18.90625 7.210938 20.078125 C 7.164062 21.027344 6.214844 21.234375 5.71875 20.921875 C 5.523438 20.808594 5.535156 20.875 5.640625 20.996094 C 6.375 21.8125 5.929688 22.863281 4.9375 22.878906 C 3.863281 22.816406 3.582031 21.691406 4.242188 21.03125 C 4.324219 20.953125 4.507812 20.695312 4.230469 20.875 C 3.566406 21.347656 2.640625 20.839844 2.660156 20.113281 C 2.695312 18.777344 4.335938 18.679688 4.6875 19.796875 C 4.71875 19.917969 4.816406 19.980469 4.789062 19.769531 C 4.742188 19.390625 4.640625 18.816406 4.351562 18.316406 Z M 5.527344 18.316406 "/>
<path style=" stroke:none;fill-rule:nonzero;fill:rgb(0%,0%,0%);fill-opacity:1;" d="M 1.097656 6.140625 C 1.191406 5.945312 1.285156 5.765625 1.335938 5.550781 C 1.371094 5.347656 1.300781 5.421875 1.261719 5.554688 C 1.203125 5.738281 1.042969 5.820312 0.894531 5.824219 C 0.625 5.828125 0.488281 5.617188 0.496094 5.386719 C 0.46875 5.148438 0.710938 4.980469 0.894531 4.992188 C 1.035156 5.003906 1.15625 5.078125 1.226562 5.132812 C 1.277344 5.160156 1.328125 5.171875 1.253906 5.105469 C 1.121094 4.960938 1.007812 4.867188 1.011719 4.648438 C 1.011719 4.445312 1.191406 4.230469 1.425781 4.234375 C 1.71875 4.242188 1.851562 4.464844 1.851562 4.671875 C 1.851562 4.824219 1.773438 4.964844 1.65625 5.050781 C 1.582031 5.109375 1.601562 5.15625 1.691406 5.097656 C 1.773438 5.027344 1.871094 4.996094 1.972656 4.992188 C 2.253906 4.988281 2.363281 5.230469 2.347656 5.453125 C 2.332031 5.664062 2.152344 5.878906 1.917969 5.855469 C 1.707031 5.832031 1.59375 5.65625 1.53125 5.472656 C 1.511719 5.417969 1.476562 5.402344 1.476562 5.484375 C 1.527344 5.890625 1.679688 6.140625 1.679688 6.140625 Z M 1.097656 6.140625 "/>
<path style=" stroke:none;fill-rule:nonzero;fill:rgb(0%,0%,0%);fill-opacity:1;" d="M 16.921875 19.082031 C 16.824219 19.277344 16.730469 19.457031 16.679688 19.671875 C 16.648438 19.875 16.714844 19.796875 16.753906 19.664062 C 16.8125 19.484375 16.972656 19.398438 17.121094 19.398438 C 17.394531 19.394531 17.527344 19.605469 17.519531 19.832031 C 17.550781 20.070312 17.304688 20.242188 17.121094 20.226562 C 16.984375 20.21875 16.863281 20.144531 16.789062 20.085938 C 16.742188 20.0625 16.691406 20.050781 16.761719 20.117188 C 16.898438 20.261719 17.007812 20.351562 17.007812 20.570312 C 17.003906 20.777344 16.828125 20.992188 16.59375 20.984375 C 16.296875 20.976562 16.164062 20.753906 16.167969 20.546875 C 16.167969 20.398438 16.242188 20.257812 16.359375 20.171875 C 16.4375 20.109375 16.414062 20.066406 16.328125 20.121094 C 16.246094 20.195312 16.144531 20.226562 16.042969 20.226562 C 15.761719 20.230469 15.652344 19.992188 15.667969 19.765625 C 15.683594 19.558594 15.863281 19.339844 16.101562 19.367188 C 16.3125 19.390625 16.421875 19.566406 16.488281 19.746094 C 16.507812 19.804688 16.539062 19.816406 16.539062 19.734375 C 16.492188 19.332031 16.339844 19.082031 16.339844 19.082031 Z M 16.921875 19.082031 "/>
</g>
</svg>
