<?xml version="1.0" encoding="UTF-8"?>
<svg xmlns="http://www.w3.org/2000/svg" xmlns:xlink="http://www.w3.org/1999/xlink" width="18pt" height="25pt" viewBox="0 0 18 25" version="1.1">
<g id="surface1">
<path style="fill-rule:nonzero;fill:rgb(100%,100%,100%);fill-opacity:1;stroke-width:0.99;stroke-linecap:butt;stroke-linejoin:miter;stroke:rgb(0%,0%,0%);stroke-opacity:1;stroke-miterlimit:3.8;" d="M 6045.337624 -2435.005938 L 6247.316791 -2435.005938 C 6253.150124 -2435.005938 6257.914013 -2430.262031 6257.914013 -2424.393281 L 6257.914013 -2133.84125 C 6257.914013 -2127.9725 6253.150124 -2123.179688 6247.316791 -2123.179688 L 6045.337624 -2123.179688 C 6039.45568 -2123.179688 6034.691791 -2127.9725 6034.691791 -2133.84125 L 6034.691791 -2424.393281 C 6034.691791 -2430.262031 6039.45568 -2435.005938 6045.337624 -2435.005938 Z M 6045.337624 -2435.005938 " transform="matrix(0.0803571,0,0,0.0798722,-484.891528,194.528355)"/>
<path style=" stroke:none;fill-rule:nonzero;fill:rgb(83.137255%,0%,0%);fill-opacity:1;" d="M 2.691406 4.734375 C 3.488281 3.960938 4.011719 3.117188 4.515625 2.308594 C 4.953125 3.199219 5.582031 3.980469 6.265625 4.734375 C 5.535156 5.484375 4.96875 6.285156 4.515625 7.125 C 4.011719 6.261719 3.480469 5.480469 2.691406 4.734375 Z M 2.691406 4.734375 "/>
<path style=" stroke:none;fill-rule:nonzero;fill:rgb(83.137255%,0%,0%);fill-opacity:1;" d="M 2.691406 12.742188 C 3.488281 11.96875 4.011719 11.125 4.515625 10.316406 C 4.953125 11.207031 5.582031 11.988281 6.265625 12.742188 C 5.535156 13.492188 4.96875 14.289062 4.515625 15.132812 C 4.011719 14.269531 3.480469 13.488281 2.691406 12.742188 Z M 2.691406 12.742188 "/>
<path style=" stroke:none;fill-rule:nonzero;fill:rgb(83.137255%,0%,0%);fill-opacity:1;" d="M 2.691406 20.617188 C 3.488281 19.84375 4.011719 19 4.515625 18.191406 C 4.953125 19.082031 5.582031 19.863281 6.265625 20.617188 C 5.535156 21.367188 4.96875 22.164062 4.515625 23.007812 C 4.011719 22.144531 3.480469 21.363281 2.691406 20.617188 Z M 2.691406 20.617188 "/>
<path style=" stroke:none;fill-rule:nonzero;fill:rgb(83.137255%,0%,0%);fill-opacity:1;" d="M 7.226562 8.738281 C 8.023438 7.964844 8.546875 7.121094 9.046875 6.3125 C 9.488281 7.203125 10.117188 7.984375 10.800781 8.738281 C 10.070312 9.488281 9.503906 10.289062 9.050781 11.128906 C 8.546875 10.265625 8.015625 9.484375 7.226562 8.738281 Z M 7.226562 8.738281 "/>
<path style=" stroke:none;fill-rule:nonzero;fill:rgb(83.137255%,0%,0%);fill-opacity:1;" d="M 11.65625 4.734375 C 12.453125 3.960938 12.976562 3.117188 13.476562 2.308594 C 13.914062 3.199219 14.546875 3.980469 15.226562 4.734375 C 14.496094 5.484375 13.933594 6.285156 13.476562 7.125 C 12.976562 6.261719 12.445312 5.480469 11.65625 4.734375 Z M 11.65625 4.734375 "/>
<path style=" stroke:none;fill-rule:nonzero;fill:rgb(83.137255%,0%,0%);fill-opacity:1;" d="M 11.65625 12.742188 C 12.453125 11.96875 12.976562 11.125 13.476562 10.316406 C 13.914062 11.207031 14.546875 11.988281 15.226562 12.742188 C 14.496094 13.492188 13.933594 14.289062 13.476562 15.132812 C 12.976562 14.269531 12.445312 13.488281 11.65625 12.742188 Z M 11.65625 12.742188 "/>
<path style=" stroke:none;fill-rule:nonzero;fill:rgb(83.137255%,0%,0%);fill-opacity:1;" d="M 11.65625 20.617188 C 12.453125 19.84375 12.976562 19 13.476562 18.191406 C 13.914062 19.082031 14.546875 19.863281 15.226562 20.617188 C 14.496094 21.367188 13.933594 22.164062 13.476562 23.007812 C 12.976562 22.144531 12.445312 21.363281 11.65625 20.617188 Z M 11.65625 20.617188 "/>
<path style=" stroke:none;fill-rule:nonzero;fill:rgb(83.137255%,0%,0%);fill-opacity:1;" d="M 15.886719 20.039062 C 16.214844 19.722656 16.429688 19.378906 16.632812 19.046875 C 16.8125 19.410156 17.070312 19.730469 17.351562 20.039062 C 17.050781 20.347656 16.820312 20.675781 16.632812 21.019531 C 16.429688 20.667969 16.210938 20.347656 15.886719 20.039062 Z M 15.886719 20.039062 "/>
<path style=" stroke:none;fill-rule:nonzero;fill:rgb(83.137255%,0%,0%);fill-opacity:1;" d="M 0.714844 5.195312 C 1.039062 4.878906 1.253906 4.535156 1.460938 4.203125 C 1.640625 4.566406 1.898438 4.886719 2.175781 5.195312 C 1.878906 5.503906 1.648438 5.832031 1.460938 6.175781 C 1.253906 5.820312 1.039062 5.5 0.714844 5.195312 Z M 0.714844 5.195312 "/>
<path style=" stroke:none;fill-rule:nonzero;fill:rgb(83.137255%,0%,0%);fill-opacity:1;" d="M 1.03125 3.753906 C 1.203125 2.867188 1.386719 2.203125 1.867188 1.480469 L 0.890625 1.480469 L 0.890625 1.792969 L 0.632812 1.792969 L 0.632812 1.207031 L 2.058594 1.207031 L 2.234375 1.480469 C 1.722656 2.023438 1.257812 3.78125 1.339844 3.753906 Z M 1.03125 3.753906 "/>
<path style=" stroke:none;fill-rule:nonzero;fill:rgb(83.137255%,0%,0%);fill-opacity:1;" d="M 16.984375 21.230469 C 16.816406 22.117188 16.632812 22.78125 16.152344 23.5 L 17.128906 23.5 L 17.128906 23.191406 L 17.386719 23.191406 L 17.386719 23.777344 L 15.960938 23.777344 L 15.785156 23.5 C 16.292969 22.957031 16.761719 21.203125 16.675781 21.230469 Z M 16.984375 21.230469 "/>
</g>
</svg>
