<?xml version="1.0" encoding="UTF-8"?>
<svg xmlns="http://www.w3.org/2000/svg" xmlns:xlink="http://www.w3.org/1999/xlink" width="18pt" height="25pt" viewBox="0 0 18 25" version="1.1">
<g id="surface1">
<path style="fill-rule:nonzero;fill:rgb(100%,100%,100%);fill-opacity:1;stroke-width:0.99;stroke-linecap:butt;stroke-linejoin:miter;stroke:rgb(0%,0%,0%);stroke-opacity:1;stroke-miterlimit:3.8;" d="M 6045.337624 -2435.005938 L 6247.316791 -2435.005938 C 6253.150124 -2435.005938 6257.914013 -2430.262031 6257.914013 -2424.393281 L 6257.914013 -2133.84125 C 6257.914013 -2127.9725 6253.150124 -2123.179688 6247.316791 -2123.179688 L 6045.337624 -2123.179688 C 6039.45568 -2123.179688 6034.691791 -2127.9725 6034.691791 -2133.84125 L 6034.691791 -2424.393281 C 6034.691791 -2430.262031 6039.45568 -2435.005938 6045.337624 -2435.005938 Z M 6045.337624 -2435.005938 " transform="matrix(0.0803571,0,0,0.0798722,-484.891528,194.528355)"/>
<path style=" stroke:none;fill-rule:nonzero;fill:rgb(83.137255%,0%,0%);fill-opacity:1;" d="M 1.03125 3.753906 C 1.203125 2.867188 1.386719 2.203125 1.867188 1.480469 L 0.890625 1.480469 L 0.890625 1.792969 L 0.632812 1.792969 L 0.632812 1.207031 L 2.058594 1.207031 L 2.234375 1.480469 C 1.722656 2.023438 1.257812 3.78125 1.339844 3.753906 Z M 1.03125 3.753906 "/>
<path style=" stroke:none;fill-rule:nonzero;fill:rgb(83.137255%,0%,0%);fill-opacity:1;" d="M 16.984375 21.230469 C 16.816406 22.117188 16.632812 22.78125 16.152344 23.5 L 17.128906 23.5 L 17.128906 23.191406 L 17.386719 23.191406 L 17.386719 23.777344 L 15.960938 23.777344 L 15.785156 23.5 C 16.292969 22.957031 16.761719 21.203125 16.675781 21.230469 Z M 16.984375 21.230469 "/>
<path style=" stroke:none;fill-rule:nonzero;fill:rgb(83.137255%,0%,0%);fill-opacity:1;" d="M 0.75 4.988281 C 0.621094 4.710938 0.609375 4.238281 0.988281 4.171875 C 1.273438 4.136719 1.390625 4.269531 1.414062 4.472656 C 1.425781 4.53125 1.457031 4.535156 1.46875 4.46875 C 1.484375 4.257812 1.695312 4.136719 1.855469 4.167969 C 2.300781 4.242188 2.273438 4.730469 2.128906 5.058594 C 1.910156 5.496094 1.679688 5.773438 1.464844 6.214844 C 1.222656 5.753906 0.945312 5.382812 0.75 4.988281 Z M 0.75 4.988281 "/>
<path style=" stroke:none;fill-rule:nonzero;fill:rgb(83.137255%,0%,0%);fill-opacity:1;" d="M 3.511719 2.421875 C 4.085938 2.382812 4.382812 2.871094 4.441406 3.253906 C 4.476562 3.316406 4.496094 3.296875 4.507812 3.25 C 4.539062 2.757812 4.980469 2.355469 5.390625 2.410156 C 6.0625 2.417969 6.46875 3.160156 6.355469 3.785156 C 6.214844 4.550781 5.800781 5.011719 5.484375 5.484375 C 5.128906 5.976562 4.652344 6.6875 4.496094 7.027344 C 4.496094 7.027344 4.011719 6.292969 3.378906 5.429688 C 2.957031 4.851562 2.617188 4.222656 2.585938 3.683594 C 2.550781 3.066406 2.804688 2.515625 3.511719 2.421875 Z M 3.511719 2.421875 "/>
<path style=" stroke:none;fill-rule:nonzero;fill:rgb(83.137255%,0%,0%);fill-opacity:1;" d="M 12.472656 2.421875 C 13.046875 2.382812 13.347656 2.871094 13.40625 3.253906 C 13.4375 3.316406 13.457031 3.296875 13.472656 3.25 C 13.5 2.757812 13.945312 2.355469 14.355469 2.410156 C 15.023438 2.417969 15.429688 3.160156 15.316406 3.785156 C 15.175781 4.550781 14.761719 5.011719 14.449219 5.484375 C 14.09375 5.976562 13.613281 6.6875 13.460938 7.027344 C 13.460938 7.027344 12.972656 6.292969 12.34375 5.429688 C 11.917969 4.851562 11.582031 4.222656 11.550781 3.683594 C 11.511719 3.066406 11.769531 2.515625 12.472656 2.421875 Z M 12.472656 2.421875 "/>
<path style=" stroke:none;fill-rule:nonzero;fill:rgb(83.137255%,0%,0%);fill-opacity:1;" d="M 8.046875 6.425781 C 8.617188 6.386719 8.917969 6.875 8.976562 7.257812 C 9.011719 7.320312 9.03125 7.300781 9.042969 7.253906 C 9.070312 6.761719 9.515625 6.359375 9.925781 6.414062 C 10.597656 6.421875 11.003906 7.160156 10.890625 7.789062 C 10.75 8.554688 10.335938 9.015625 10.019531 9.488281 C 9.664062 9.980469 9.1875 10.691406 9.03125 11.03125 C 9.03125 11.03125 8.546875 10.296875 7.914062 9.433594 C 7.492188 8.855469 7.152344 8.226562 7.121094 7.6875 C 7.085938 7.070312 7.339844 6.519531 8.046875 6.425781 Z M 8.046875 6.425781 "/>
<path style=" stroke:none;fill-rule:nonzero;fill:rgb(83.137255%,0%,0%);fill-opacity:1;" d="M 3.511719 10.425781 C 4.085938 10.390625 4.382812 10.875 4.441406 11.261719 C 4.476562 11.320312 4.496094 11.304688 4.507812 11.257812 C 4.539062 10.765625 4.980469 10.363281 5.390625 10.417969 C 6.0625 10.425781 6.46875 11.164062 6.355469 11.792969 C 6.214844 12.558594 5.800781 13.019531 5.484375 13.492188 C 5.128906 13.984375 4.652344 14.695312 4.496094 15.035156 C 4.496094 15.035156 4.011719 14.300781 3.378906 13.4375 C 2.957031 12.859375 2.617188 12.230469 2.585938 11.691406 C 2.550781 11.074219 2.804688 10.523438 3.511719 10.425781 Z M 3.511719 10.425781 "/>
<path style=" stroke:none;fill-rule:nonzero;fill:rgb(83.137255%,0%,0%);fill-opacity:1;" d="M 12.472656 10.425781 C 13.046875 10.390625 13.347656 10.875 13.40625 11.261719 C 13.4375 11.320312 13.457031 11.304688 13.472656 11.257812 C 13.5 10.765625 13.945312 10.363281 14.355469 10.417969 C 15.023438 10.425781 15.429688 11.164062 15.316406 11.792969 C 15.175781 12.558594 14.761719 13.019531 14.449219 13.492188 C 14.09375 13.984375 13.613281 14.695312 13.460938 15.035156 C 13.460938 15.035156 12.972656 14.300781 12.34375 13.4375 C 11.917969 12.859375 11.582031 12.230469 11.550781 11.691406 C 11.511719 11.074219 11.769531 10.523438 12.472656 10.425781 Z M 12.472656 10.425781 "/>
<path style=" stroke:none;fill-rule:nonzero;fill:rgb(83.137255%,0%,0%);fill-opacity:1;" d="M 15.921875 20.234375 C 15.792969 20.511719 15.78125 20.984375 16.160156 21.046875 C 16.445312 21.085938 16.5625 20.953125 16.585938 20.75 C 16.597656 20.691406 16.632812 20.6875 16.640625 20.753906 C 16.660156 20.960938 16.867188 21.082031 17.027344 21.054688 C 17.472656 20.976562 17.445312 20.492188 17.300781 20.164062 C 17.082031 19.726562 16.851562 19.449219 16.640625 19.007812 C 16.394531 19.464844 16.117188 19.839844 15.921875 20.234375 Z M 15.921875 20.234375 "/>
<path style=" stroke:none;fill-rule:nonzero;fill:rgb(83.137255%,0%,0%);fill-opacity:1;" d="M 12.472656 22.894531 C 13.046875 22.933594 13.347656 22.445312 13.40625 22.0625 C 13.4375 22 13.457031 22.015625 13.472656 22.066406 C 13.5 22.558594 13.945312 22.960938 14.355469 22.90625 C 15.023438 22.898438 15.429688 22.15625 15.316406 21.53125 C 15.175781 20.765625 14.761719 20.304688 14.449219 19.828125 C 14.09375 19.339844 13.613281 18.628906 13.460938 18.285156 C 13.460938 18.285156 12.972656 19.023438 12.34375 19.886719 C 11.917969 20.464844 11.582031 21.089844 11.550781 21.628906 C 11.511719 22.246094 11.769531 22.800781 12.472656 22.894531 Z M 12.472656 22.894531 "/>
<path style=" stroke:none;fill-rule:nonzero;fill:rgb(83.137255%,0%,0%);fill-opacity:1;" d="M 3.511719 22.894531 C 4.085938 22.933594 4.382812 22.445312 4.441406 22.0625 C 4.476562 22 4.496094 22.015625 4.507812 22.066406 C 4.539062 22.558594 4.980469 22.960938 5.390625 22.90625 C 6.0625 22.898438 6.46875 22.15625 6.355469 21.53125 C 6.214844 20.765625 5.800781 20.304688 5.484375 19.828125 C 5.128906 19.339844 4.652344 18.628906 4.496094 18.285156 C 4.496094 18.285156 4.011719 19.023438 3.378906 19.886719 C 2.957031 20.464844 2.617188 21.089844 2.585938 21.628906 C 2.550781 22.246094 2.804688 22.800781 3.511719 22.894531 Z M 3.511719 22.894531 "/>
</g>
</svg>
