<?xml version="1.0" encoding="UTF-8"?>
<svg xmlns="http://www.w3.org/2000/svg" xmlns:xlink="http://www.w3.org/1999/xlink" width="18pt" height="25pt" viewBox="0 0 18 25" version="1.1">
<g id="surface1">
<path style="fill-rule:nonzero;fill:rgb(100%,100%,100%);fill-opacity:1;stroke-width:0.99;stroke-linecap:butt;stroke-linejoin:miter;stroke:rgb(0%,0%,0%);stroke-opacity:1;stroke-miterlimit:3.8;" d="M 6045.337624 -2435.005938 L 6247.316791 -2435.005938 C 6253.150124 -2435.005938 6257.914013 -2430.262031 6257.914013 -2424.393281 L 6257.914013 -2133.84125 C 6257.914013 -2127.9725 6253.150124 -2123.179688 6247.316791 -2123.179688 L 6045.337624 -2123.179688 C 6039.45568 -2123.179688 6034.691791 -2127.9725 6034.691791 -2133.84125 L 6034.691791 -2424.393281 C 6034.691791 -2430.262031 6039.45568 -2435.005938 6045.337624 -2435.005938 Z M 6045.337624 -2435.005938 " transform="matrix(0.0803571,0,0,0.0798722,-484.891528,194.528355)"/>
<path style=" stroke:none;fill-rule:nonzero;fill:rgb(0%,0%,0%);fill-opacity:1;" d="M 1.03125 3.753906 C 1.203125 2.867188 1.386719 2.203125 1.867188 1.480469 L 0.890625 1.480469 L 0.890625 1.792969 L 0.632812 1.792969 L 0.632812 1.207031 L 2.058594 1.207031 L 2.234375 1.480469 C 1.722656 2.023438 1.257812 3.78125 1.339844 3.753906 Z M 1.03125 3.753906 "/>
<path style=" stroke:none;fill-rule:nonzero;fill:rgb(0%,0%,0%);fill-opacity:1;" d="M 16.984375 21.230469 C 16.816406 22.117188 16.632812 22.78125 16.152344 23.5 L 17.128906 23.5 L 17.128906 23.191406 L 17.386719 23.191406 L 17.386719 23.777344 L 15.960938 23.777344 L 15.785156 23.5 C 16.292969 22.957031 16.761719 21.203125 16.675781 21.230469 Z M 16.984375 21.230469 "/>
<path style=" stroke:none;fill-rule:nonzero;fill:rgb(0%,0%,0%);fill-opacity:1;" d="M 4.304688 5.632812 C 4.308594 5.46875 4.179688 5.464844 4.179688 5.585938 C 4.167969 6.175781 3.664062 6.46875 3.296875 6.398438 C 2.734375 6.292969 2.550781 5.734375 2.558594 5.40625 C 2.574219 4.394531 3.601562 3.644531 4.527344 2.34375 C 5.207031 3.519531 6.328125 4.441406 6.394531 5.347656 C 6.480469 6.554688 4.945312 7.003906 4.726562 5.597656 C 4.714844 5.5 4.597656 5.453125 4.605469 5.59375 C 4.636719 5.976562 4.589844 6.136719 5.027344 7.085938 L 3.886719 7.085938 C 4.136719 6.644531 4.289062 6.097656 4.304688 5.632812 Z M 4.304688 5.632812 "/>
<path style=" stroke:none;fill-rule:nonzero;fill:rgb(0%,0%,0%);fill-opacity:1;" d="M 13.269531 5.632812 C 13.269531 5.46875 13.140625 5.464844 13.144531 5.585938 C 13.132812 6.175781 12.628906 6.46875 12.261719 6.398438 C 11.695312 6.292969 11.515625 5.734375 11.519531 5.40625 C 11.535156 4.394531 12.5625 3.644531 13.492188 2.34375 C 14.167969 3.519531 15.289062 4.441406 15.355469 5.347656 C 15.445312 6.554688 13.910156 7.003906 13.691406 5.597656 C 13.675781 5.5 13.558594 5.453125 13.566406 5.59375 C 13.601562 5.976562 13.554688 6.136719 13.992188 7.085938 L 12.847656 7.085938 C 13.101562 6.644531 13.25 6.097656 13.269531 5.632812 Z M 13.269531 5.632812 "/>
<path style=" stroke:none;fill-rule:nonzero;fill:rgb(0%,0%,0%);fill-opacity:1;" d="M 8.839844 9.632812 C 8.84375 9.472656 8.714844 9.46875 8.714844 9.585938 C 8.703125 10.179688 8.199219 10.472656 7.832031 10.402344 C 7.265625 10.296875 7.085938 9.738281 7.09375 9.410156 C 7.109375 8.398438 8.136719 7.648438 9.0625 6.347656 C 9.742188 7.523438 10.863281 8.445312 10.929688 9.351562 C 11.015625 10.558594 9.480469 11.007812 9.261719 9.601562 C 9.25 9.5 9.128906 9.457031 9.140625 9.597656 C 9.171875 9.980469 9.125 10.140625 9.5625 11.089844 L 8.421875 11.089844 C 8.671875 10.648438 8.824219 10.101562 8.839844 9.632812 Z M 8.839844 9.632812 "/>
<path style=" stroke:none;fill-rule:nonzero;fill:rgb(0%,0%,0%);fill-opacity:1;" d="M 13.269531 13.636719 C 13.269531 13.476562 13.140625 13.472656 13.144531 13.589844 C 13.132812 14.183594 12.628906 14.476562 12.261719 14.40625 C 11.695312 14.300781 11.515625 13.742188 11.519531 13.414062 C 11.535156 12.398438 12.5625 11.652344 13.492188 10.351562 C 14.167969 11.527344 15.289062 12.449219 15.355469 13.355469 C 15.445312 14.558594 13.910156 15.011719 13.691406 13.605469 C 13.675781 13.503906 13.558594 13.460938 13.566406 13.597656 C 13.601562 13.984375 13.554688 14.144531 13.992188 15.09375 L 12.847656 15.09375 C 13.101562 14.652344 13.25 14.105469 13.269531 13.636719 Z M 13.269531 13.636719 "/>
<path style=" stroke:none;fill-rule:nonzero;fill:rgb(0%,0%,0%);fill-opacity:1;" d="M 4.304688 13.636719 C 4.308594 13.476562 4.179688 13.472656 4.179688 13.589844 C 4.167969 14.183594 3.664062 14.476562 3.296875 14.40625 C 2.734375 14.300781 2.550781 13.742188 2.558594 13.414062 C 2.574219 12.398438 3.601562 11.652344 4.527344 10.351562 C 5.207031 11.527344 6.328125 12.449219 6.394531 13.355469 C 6.480469 14.558594 4.945312 15.011719 4.726562 13.605469 C 4.714844 13.503906 4.597656 13.460938 4.605469 13.597656 C 4.636719 13.984375 4.589844 14.144531 5.027344 15.09375 L 3.886719 15.09375 C 4.136719 14.652344 4.289062 14.105469 4.304688 13.636719 Z M 4.304688 13.636719 "/>
<path style=" stroke:none;fill-rule:nonzero;fill:rgb(0%,0%,0%);fill-opacity:1;" d="M 13.269531 19.6875 C 13.269531 19.847656 13.140625 19.851562 13.144531 19.734375 C 13.132812 19.140625 12.628906 18.847656 12.261719 18.917969 C 11.695312 19.023438 11.515625 19.582031 11.519531 19.910156 C 11.539062 20.925781 12.566406 21.671875 13.492188 22.972656 C 14.171875 21.796875 15.292969 20.875 15.355469 19.96875 C 15.445312 18.765625 13.910156 18.3125 13.691406 19.71875 C 13.675781 19.820312 13.558594 19.863281 13.570312 19.726562 C 13.601562 19.339844 13.554688 19.179688 13.992188 18.230469 L 12.847656 18.230469 C 13.101562 18.671875 13.253906 19.21875 13.269531 19.6875 Z M 13.269531 19.6875 "/>
<path style=" stroke:none;fill-rule:nonzero;fill:rgb(0%,0%,0%);fill-opacity:1;" d="M 4.308594 19.6875 C 4.308594 19.847656 4.179688 19.851562 4.179688 19.734375 C 4.171875 19.140625 3.664062 18.847656 3.300781 18.917969 C 2.734375 19.023438 2.554688 19.582031 2.558594 19.910156 C 2.574219 20.925781 3.601562 21.671875 4.527344 22.972656 C 5.207031 21.796875 6.328125 20.875 6.394531 19.96875 C 6.484375 18.765625 4.949219 18.3125 4.730469 19.71875 C 4.714844 19.820312 4.597656 19.863281 4.605469 19.726562 C 4.640625 19.339844 4.59375 19.179688 5.027344 18.230469 L 3.886719 18.230469 C 4.140625 18.671875 4.289062 19.21875 4.308594 19.6875 Z M 4.308594 19.6875 "/>
<path style=" stroke:none;fill-rule:nonzero;fill:rgb(0%,0%,0%);fill-opacity:1;" d="M 1.410156 5.710938 C 1.414062 5.640625 1.339844 5.675781 1.328125 5.695312 C 1.238281 5.855469 1.101562 5.890625 0.964844 5.835938 C 0.832031 5.777344 0.753906 5.652344 0.765625 5.472656 C 0.792969 5.199219 1.011719 4.898438 1.117188 4.730469 C 1.21875 4.574219 1.328125 4.390625 1.445312 4.15625 C 1.582031 4.425781 1.652344 4.503906 1.800781 4.746094 C 1.929688 4.964844 2.113281 5.175781 2.125 5.4375 C 2.125 5.636719 2.042969 5.824219 1.851562 5.855469 C 1.746094 5.875 1.644531 5.820312 1.570312 5.695312 C 1.546875 5.660156 1.503906 5.679688 1.503906 5.722656 C 1.515625 5.890625 1.582031 6.039062 1.730469 6.21875 L 1.175781 6.21875 C 1.289062 6.09375 1.40625 5.921875 1.410156 5.710938 Z M 1.410156 5.710938 "/>
<path style=" stroke:none;fill-rule:nonzero;fill:rgb(0%,0%,0%);fill-opacity:1;" d="M 16.585938 19.507812 C 16.585938 19.578125 16.511719 19.546875 16.503906 19.523438 C 16.410156 19.367188 16.273438 19.328125 16.136719 19.386719 C 16.003906 19.441406 15.929688 19.566406 15.941406 19.746094 C 15.964844 20.023438 16.183594 20.324219 16.289062 20.492188 C 16.390625 20.644531 16.5 20.828125 16.617188 21.0625 C 16.753906 20.796875 16.824219 20.71875 16.972656 20.472656 C 17.101562 20.257812 17.285156 20.046875 17.296875 19.785156 C 17.296875 19.585938 17.214844 19.398438 17.023438 19.363281 C 16.917969 19.34375 16.816406 19.398438 16.742188 19.527344 C 16.722656 19.558594 16.675781 19.542969 16.675781 19.5 C 16.6875 19.332031 16.753906 19.179688 16.902344 19.003906 L 16.351562 19.003906 C 16.464844 19.128906 16.578125 19.296875 16.585938 19.507812 Z M 16.585938 19.507812 "/>
</g>
</svg>
