<?xml version="1.0" encoding="UTF-8"?>
<svg xmlns="http://www.w3.org/2000/svg" xmlns:xlink="http://www.w3.org/1999/xlink" width="18pt" height="25pt" viewBox="0 0 18 25" version="1.1">
<g id="surface1">
<path style="fill-rule:nonzero;fill:rgb(100%,100%,100%);fill-opacity:1;stroke-width:0.996733;stroke-linecap:butt;stroke-linejoin:miter;stroke:rgb(0%,0%,0%);stroke-opacity:1;stroke-miterlimit:4;" d="M 6268.562774 -2435.009307 L 6470.541941 -2435.009307 C 6476.375274 -2435.009307 6481.139163 -2430.216495 6481.139163 -2424.347745 L 6481.139163 -2133.795714 C 6481.139163 -2127.926964 6476.375274 -2123.183057 6470.541941 -2123.183057 L 6268.562774 -2123.183057 C 6262.68083 -2123.183057 6257.916941 -2127.926964 6257.916941 -2133.795714 L 6257.916941 -2424.347745 C 6257.916941 -2430.216495 6262.68083 -2435.009307 6268.562774 -2435.009307 Z M 6268.562774 -2435.009307 " transform="matrix(0.0803571,0,0,0.0798722,-502.829263,194.528624)"/>
<path style=" stroke:none;fill-rule:nonzero;fill:rgb(0%,0%,0%);fill-opacity:1;" d="M 0.53125 3.039062 C 0.542969 2.691406 0.671875 2.558594 0.925781 2.375 C 0.722656 2.230469 0.636719 2.019531 0.65625 1.839844 C 0.695312 1.40625 1.042969 1.1875 1.417969 1.199219 C 1.792969 1.207031 2.117188 1.5 2.140625 1.816406 C 2.164062 2.089844 2.078125 2.222656 1.878906 2.367188 C 2.117188 2.5625 2.269531 2.691406 2.261719 3.035156 C 2.257812 3.378906 1.957031 3.789062 1.433594 3.800781 C 0.910156 3.8125 0.515625 3.386719 0.53125 3.039062 Z M 1.988281 3.039062 C 2.011719 2.722656 1.726562 2.511719 1.402344 2.507812 C 1.085938 2.503906 0.804688 2.765625 0.804688 3.050781 C 0.804688 3.355469 1.171875 3.519531 1.410156 3.523438 C 1.695312 3.523438 1.96875 3.3125 1.988281 3.039062 Z M 1.886719 1.90625 C 1.894531 1.640625 1.640625 1.449219 1.382812 1.457031 C 1.148438 1.464844 0.90625 1.636719 0.90625 1.859375 C 0.90625 2.140625 1.183594 2.277344 1.421875 2.28125 C 1.636719 2.289062 1.882812 2.109375 1.886719 1.90625 Z M 1.886719 1.90625 "/>
<path style=" stroke:none;fill-rule:nonzero;fill:rgb(0%,0%,0%);fill-opacity:1;" d="M 17.367188 21.945312 C 17.355469 22.296875 17.226562 22.425781 16.96875 22.609375 C 17.171875 22.753906 17.257812 22.964844 17.242188 23.144531 C 17.199219 23.578125 16.855469 23.796875 16.480469 23.785156 C 16.105469 23.777344 15.78125 23.484375 15.753906 23.167969 C 15.734375 22.894531 15.816406 22.761719 16.015625 22.617188 C 15.78125 22.421875 15.628906 22.292969 15.632812 21.949219 C 15.640625 21.605469 15.941406 21.195312 16.460938 21.183594 C 16.984375 21.171875 17.378906 21.597656 17.367188 21.945312 Z M 15.90625 21.945312 C 15.886719 22.261719 16.171875 22.472656 16.496094 22.476562 C 16.808594 22.480469 17.09375 22.21875 17.09375 21.933594 C 17.09375 21.628906 16.726562 21.464844 16.488281 21.460938 C 16.199219 21.460938 15.925781 21.671875 15.90625 21.945312 Z M 16.011719 23.078125 C 16.003906 23.34375 16.257812 23.535156 16.515625 23.527344 C 16.746094 23.519531 16.992188 23.347656 16.992188 23.125 C 16.992188 22.847656 16.714844 22.707031 16.476562 22.703125 C 16.261719 22.695312 16.015625 22.875 16.011719 23.078125 Z M 16.011719 23.078125 "/>
<path style=" stroke:none;fill-rule:nonzero;fill:rgb(0%,0%,0%);fill-opacity:1;" d="M 12.578125 6.824219 C 12.808594 6.363281 12.980469 5.890625 13.007812 5.382812 C 13.035156 5.199219 12.921875 5.195312 12.90625 5.328125 C 12.578125 6.570312 10.835938 6.234375 10.894531 5.0625 C 10.945312 4.113281 11.894531 3.910156 12.386719 4.21875 C 12.582031 4.332031 12.574219 4.265625 12.464844 4.144531 C 11.730469 3.332031 12.175781 2.28125 13.171875 2.261719 C 14.246094 2.324219 14.523438 3.449219 13.863281 4.109375 C 13.78125 4.191406 13.601562 4.445312 13.875 4.265625 C 14.539062 3.796875 15.464844 4.300781 15.445312 5.027344 C 15.410156 6.363281 13.769531 6.464844 13.421875 5.347656 C 13.386719 5.222656 13.289062 5.160156 13.316406 5.371094 C 13.363281 5.75 13.464844 6.324219 13.753906 6.824219 Z M 12.578125 6.824219 "/>
<path style=" stroke:none;fill-rule:nonzero;fill:rgb(0%,0%,0%);fill-opacity:1;" d="M 12.578125 14.832031 C 12.808594 14.371094 12.980469 13.898438 13.007812 13.390625 C 13.035156 13.207031 12.921875 13.203125 12.90625 13.332031 C 12.578125 14.578125 10.835938 14.242188 10.894531 13.070312 C 10.945312 12.121094 11.894531 11.914062 12.386719 12.226562 C 12.582031 12.339844 12.574219 12.273438 12.464844 12.152344 C 11.730469 11.339844 12.175781 10.289062 13.171875 10.269531 C 14.246094 10.332031 14.523438 11.457031 13.863281 12.117188 C 13.78125 12.195312 13.601562 12.453125 13.875 12.273438 C 14.539062 11.804688 15.464844 12.308594 15.445312 13.035156 C 15.410156 14.371094 13.769531 14.46875 13.421875 13.355469 C 13.386719 13.230469 13.289062 13.167969 13.316406 13.378906 C 13.363281 13.757812 13.464844 14.332031 13.753906 14.832031 Z M 12.578125 14.832031 "/>
<path style=" stroke:none;fill-rule:nonzero;fill:rgb(0%,0%,0%);fill-opacity:1;" d="M 4.257812 14.832031 C 4.492188 14.371094 4.660156 13.898438 4.6875 13.390625 C 4.714844 13.207031 4.601562 13.203125 4.585938 13.332031 C 4.257812 14.578125 2.515625 14.242188 2.574219 13.070312 C 2.625 12.121094 3.574219 11.914062 4.070312 12.226562 C 4.265625 12.339844 4.253906 12.273438 4.144531 12.152344 C 3.410156 11.339844 3.855469 10.289062 4.851562 10.269531 C 5.925781 10.332031 6.203125 11.457031 5.546875 12.117188 C 5.464844 12.195312 5.28125 12.453125 5.554688 12.273438 C 6.222656 11.804688 7.144531 12.308594 7.125 13.035156 C 7.089844 14.371094 5.453125 14.46875 5.101562 13.355469 C 5.066406 13.230469 4.96875 13.167969 4.996094 13.378906 C 5.046875 13.757812 5.144531 14.332031 5.433594 14.832031 Z M 4.257812 14.832031 "/>
<path style=" stroke:none;fill-rule:nonzero;fill:rgb(0%,0%,0%);fill-opacity:1;" d="M 8.292969 10.828125 C 8.523438 10.367188 8.691406 9.894531 8.722656 9.386719 C 8.75 9.203125 8.636719 9.199219 8.617188 9.328125 C 8.289062 10.574219 6.546875 10.238281 6.609375 9.066406 C 6.65625 8.117188 7.605469 7.914062 8.101562 8.222656 C 8.296875 8.335938 8.285156 8.269531 8.179688 8.148438 C 7.441406 7.335938 7.890625 6.285156 8.882812 6.265625 C 9.957031 6.328125 10.238281 7.453125 9.578125 8.113281 C 9.496094 8.191406 9.3125 8.449219 9.585938 8.269531 C 10.253906 7.800781 11.175781 8.304688 11.160156 9.03125 C 11.125 10.367188 9.484375 10.46875 9.132812 9.351562 C 9.101562 9.226562 9.003906 9.164062 9.03125 9.375 C 9.078125 9.753906 9.179688 10.328125 9.464844 10.828125 Z M 8.292969 10.828125 "/>
<path style=" stroke:none;fill-rule:nonzero;fill:rgb(0%,0%,0%);fill-opacity:1;" d="M 4.257812 6.824219 C 4.492188 6.363281 4.660156 5.890625 4.6875 5.382812 C 4.714844 5.199219 4.601562 5.195312 4.585938 5.328125 C 4.257812 6.570312 2.515625 6.234375 2.574219 5.0625 C 2.625 4.113281 3.574219 3.910156 4.070312 4.21875 C 4.265625 4.332031 4.253906 4.265625 4.144531 4.144531 C 3.410156 3.332031 3.855469 2.28125 4.851562 2.261719 C 5.925781 2.324219 6.203125 3.449219 5.546875 4.109375 C 5.464844 4.191406 5.28125 4.445312 5.554688 4.265625 C 6.222656 3.796875 7.144531 4.300781 7.125 5.027344 C 7.089844 6.363281 5.453125 6.464844 5.101562 5.347656 C 5.066406 5.222656 4.96875 5.160156 4.996094 5.371094 C 5.046875 5.75 5.144531 6.324219 5.433594 6.824219 Z M 4.257812 6.824219 "/>
<path style=" stroke:none;fill-rule:nonzero;fill:rgb(0%,0%,0%);fill-opacity:1;" d="M 13.761719 18.144531 C 13.527344 18.605469 13.359375 19.078125 13.332031 19.585938 C 13.304688 19.769531 13.417969 19.773438 13.433594 19.640625 C 13.761719 18.398438 15.503906 18.734375 15.445312 19.90625 C 15.394531 20.855469 14.445312 21.058594 13.953125 20.75 C 13.753906 20.636719 13.765625 20.703125 13.875 20.824219 C 14.609375 21.636719 14.164062 22.6875 13.167969 22.707031 C 12.09375 22.644531 11.816406 21.519531 12.476562 20.859375 C 12.558594 20.777344 12.738281 20.523438 12.464844 20.703125 C 11.800781 21.171875 10.875 20.667969 10.894531 19.941406 C 10.929688 18.605469 12.566406 18.503906 12.917969 19.621094 C 12.953125 19.746094 13.050781 19.808594 13.023438 19.597656 C 12.972656 19.21875 12.875 18.644531 12.585938 18.144531 Z M 13.761719 18.144531 "/>
<path style=" stroke:none;fill-rule:nonzero;fill:rgb(0%,0%,0%);fill-opacity:1;" d="M 9.472656 14.207031 C 9.242188 14.667969 9.074219 15.140625 9.042969 15.648438 C 9.015625 15.832031 9.128906 15.835938 9.148438 15.703125 C 9.476562 14.460938 11.21875 14.796875 11.15625 15.96875 C 11.109375 16.917969 10.160156 17.121094 9.664062 16.8125 C 9.46875 16.699219 9.480469 16.765625 9.585938 16.886719 C 10.320312 17.699219 9.875 18.75 8.882812 18.769531 C 7.808594 18.707031 7.527344 17.582031 8.1875 16.921875 C 8.269531 16.839844 8.453125 16.585938 8.179688 16.765625 C 7.511719 17.234375 6.585938 16.730469 6.605469 16.003906 C 6.640625 14.667969 8.28125 14.566406 8.632812 15.683594 C 8.664062 15.808594 8.761719 15.871094 8.734375 15.660156 C 8.6875 15.28125 8.585938 14.707031 8.300781 14.207031 Z M 9.472656 14.207031 "/>
<path style=" stroke:none;fill-rule:nonzero;fill:rgb(0%,0%,0%);fill-opacity:1;" d="M 5.441406 18.144531 C 5.210938 18.605469 5.039062 19.078125 5.011719 19.585938 C 4.984375 19.769531 5.097656 19.773438 5.113281 19.640625 C 5.441406 18.398438 7.183594 18.734375 7.125 19.90625 C 7.078125 20.855469 6.125 21.058594 5.632812 20.75 C 5.4375 20.636719 5.445312 20.703125 5.554688 20.824219 C 6.289062 21.636719 5.84375 22.6875 4.851562 22.707031 C 3.773438 22.644531 3.496094 21.519531 4.15625 20.859375 C 4.238281 20.777344 4.417969 20.523438 4.144531 20.703125 C 3.480469 21.171875 2.554688 20.667969 2.574219 19.941406 C 2.609375 18.605469 4.25 18.503906 4.597656 19.621094 C 4.632812 19.746094 4.730469 19.808594 4.703125 19.597656 C 4.65625 19.21875 4.554688 18.644531 4.265625 18.144531 Z M 5.441406 18.144531 "/>
<path style=" stroke:none;fill-rule:nonzero;fill:rgb(0%,0%,0%);fill-opacity:1;" d="M 1.121094 6.21875 C 1.21875 6.023438 1.308594 5.839844 1.359375 5.625 C 1.394531 5.425781 1.324219 5.5 1.285156 5.632812 C 1.230469 5.816406 1.066406 5.898438 0.917969 5.898438 C 0.648438 5.902344 0.511719 5.691406 0.519531 5.464844 C 0.492188 5.226562 0.734375 5.054688 0.921875 5.070312 C 1.058594 5.078125 1.179688 5.152344 1.253906 5.210938 C 1.300781 5.234375 1.351562 5.246094 1.28125 5.183594 C 1.144531 5.035156 1.03125 4.945312 1.035156 4.726562 C 1.039062 4.519531 1.214844 4.304688 1.449219 4.3125 C 1.742188 4.320312 1.875 4.542969 1.875 4.75 C 1.875 4.898438 1.800781 5.039062 1.683594 5.125 C 1.605469 5.1875 1.628906 5.230469 1.714844 5.175781 C 1.796875 5.101562 1.894531 5.070312 2 5.070312 C 2.277344 5.066406 2.386719 5.304688 2.371094 5.53125 C 2.359375 5.738281 2.179688 5.957031 1.941406 5.929688 C 1.730469 5.90625 1.617188 5.730469 1.554688 5.550781 C 1.535156 5.492188 1.5 5.480469 1.5 5.5625 C 1.550781 5.964844 1.703125 6.21875 1.703125 6.21875 Z M 1.121094 6.21875 "/>
<path style=" stroke:none;fill-rule:nonzero;fill:rgb(0%,0%,0%);fill-opacity:1;" d="M 16.898438 19.082031 C 16.800781 19.277344 16.707031 19.457031 16.65625 19.671875 C 16.625 19.875 16.691406 19.796875 16.730469 19.667969 C 16.789062 19.484375 16.949219 19.398438 17.097656 19.398438 C 17.371094 19.394531 17.503906 19.605469 17.496094 19.832031 C 17.527344 20.074219 17.28125 20.242188 17.097656 20.230469 C 16.960938 20.21875 16.839844 20.144531 16.765625 20.085938 C 16.71875 20.0625 16.667969 20.050781 16.738281 20.117188 C 16.875 20.261719 16.984375 20.351562 16.984375 20.570312 C 16.980469 20.777344 16.804688 20.992188 16.570312 20.984375 C 16.273438 20.976562 16.140625 20.753906 16.144531 20.546875 C 16.144531 20.398438 16.21875 20.257812 16.335938 20.171875 C 16.414062 20.109375 16.390625 20.066406 16.304688 20.125 C 16.222656 20.195312 16.121094 20.226562 16.019531 20.226562 C 15.738281 20.230469 15.628906 19.992188 15.644531 19.765625 C 15.660156 19.558594 15.839844 19.34375 16.078125 19.367188 C 16.289062 19.390625 16.398438 19.566406 16.464844 19.746094 C 16.484375 19.804688 16.515625 19.820312 16.515625 19.734375 C 16.46875 19.332031 16.316406 19.082031 16.316406 19.082031 Z M 16.898438 19.082031 "/>
</g>
</svg>
