<?xml version="1.0" encoding="UTF-8"?>
<svg xmlns="http://www.w3.org/2000/svg" xmlns:xlink="http://www.w3.org/1999/xlink" width="18pt" height="25pt" viewBox="0 0 18 25" version="1.1">
<g id="surface1">
<path style="fill-rule:nonzero;fill:rgb(100%,100%,100%);fill-opacity:1;stroke-width:0.996733;stroke-linecap:butt;stroke-linejoin:miter;stroke:rgb(0%,0%,0%);stroke-opacity:1;stroke-miterlimit:4;" d="M 6268.562774 -2435.009307 L 6470.541941 -2435.009307 C 6476.375274 -2435.009307 6481.139163 -2430.216495 6481.139163 -2424.347745 L 6481.139163 -2133.795714 C 6481.139163 -2127.926964 6476.375274 -2123.183057 6470.541941 -2123.183057 L 6268.562774 -2123.183057 C 6262.68083 -2123.183057 6257.916941 -2127.926964 6257.916941 -2133.795714 L 6257.916941 -2424.347745 C 6257.916941 -2430.216495 6262.68083 -2435.009307 6268.562774 -2435.009307 Z M 6268.562774 -2435.009307 " transform="matrix(0.0803571,0,0,0.0798722,-502.829263,194.528624)"/>
<path style=" stroke:none;fill-rule:nonzero;fill:rgb(83.137255%,0%,0%);fill-opacity:1;" d="M 2.640625 4.5625 C 3.441406 3.789062 3.964844 2.945312 4.464844 2.136719 C 4.902344 3.027344 5.53125 3.808594 6.214844 4.5625 C 5.484375 5.308594 4.921875 6.109375 4.464844 6.953125 C 3.960938 6.089844 3.433594 5.308594 2.640625 4.5625 Z M 2.640625 4.5625 "/>
<path style=" stroke:none;fill-rule:nonzero;fill:rgb(83.137255%,0%,0%);fill-opacity:1;" d="M 2.640625 12.570312 C 3.441406 11.796875 3.964844 10.953125 4.464844 10.140625 C 4.902344 11.035156 5.53125 11.816406 6.214844 12.570312 C 5.484375 13.316406 4.921875 14.117188 4.464844 14.957031 C 3.960938 14.097656 3.433594 13.316406 2.640625 12.570312 Z M 2.640625 12.570312 "/>
<path style=" stroke:none;fill-rule:nonzero;fill:rgb(83.137255%,0%,0%);fill-opacity:1;" d="M 2.640625 20.445312 C 3.441406 19.671875 3.964844 18.828125 4.464844 18.015625 C 4.902344 18.910156 5.53125 19.691406 6.214844 20.445312 C 5.484375 21.191406 4.921875 21.992188 4.464844 22.835938 C 3.960938 21.972656 3.433594 21.191406 2.640625 20.445312 Z M 2.640625 20.445312 "/>
<path style=" stroke:none;fill-rule:nonzero;fill:rgb(83.137255%,0%,0%);fill-opacity:1;" d="M 7.15625 8.566406 C 7.953125 7.792969 8.476562 6.949219 8.976562 6.136719 C 9.417969 7.03125 10.046875 7.8125 10.730469 8.566406 C 10 9.3125 9.433594 10.113281 8.980469 10.957031 C 8.476562 10.09375 7.945312 9.3125 7.15625 8.566406 Z M 7.15625 8.566406 "/>
<path style=" stroke:none;fill-rule:nonzero;fill:rgb(83.137255%,0%,0%);fill-opacity:1;" d="M 11.605469 4.5625 C 12.402344 3.789062 12.925781 2.945312 13.425781 2.136719 C 13.867188 3.027344 14.496094 3.808594 15.175781 4.5625 C 14.449219 5.308594 13.882812 6.109375 13.429688 6.953125 C 12.925781 6.089844 12.394531 5.308594 11.605469 4.5625 Z M 11.605469 4.5625 "/>
<path style=" stroke:none;fill-rule:nonzero;fill:rgb(83.137255%,0%,0%);fill-opacity:1;" d="M 11.605469 12.570312 C 12.402344 11.796875 12.925781 10.953125 13.425781 10.140625 C 13.867188 11.035156 14.496094 11.816406 15.175781 12.570312 C 14.449219 13.316406 13.882812 14.117188 13.429688 14.957031 C 12.925781 14.097656 12.394531 13.316406 11.605469 12.570312 Z M 11.605469 12.570312 "/>
<path style=" stroke:none;fill-rule:nonzero;fill:rgb(83.137255%,0%,0%);fill-opacity:1;" d="M 11.605469 20.445312 C 12.402344 19.671875 12.925781 18.828125 13.425781 18.015625 C 13.867188 18.910156 14.496094 19.691406 15.175781 20.445312 C 14.449219 21.191406 13.882812 21.992188 13.429688 22.835938 C 12.925781 21.972656 12.394531 21.191406 11.605469 20.445312 Z M 11.605469 20.445312 "/>
<path style=" stroke:none;fill-rule:nonzero;fill:rgb(83.137255%,0%,0%);fill-opacity:1;" d="M 7.15625 16.507812 C 7.953125 15.734375 8.476562 14.890625 8.976562 14.078125 C 9.417969 14.972656 10.046875 15.753906 10.730469 16.507812 C 10 17.253906 9.433594 18.054688 8.980469 18.894531 C 8.476562 18.035156 7.945312 17.253906 7.15625 16.507812 Z M 7.15625 16.507812 "/>
<path style=" stroke:none;fill-rule:nonzero;fill:rgb(83.137255%,0%,0%);fill-opacity:1;" d="M 15.949219 20.117188 C 16.273438 19.800781 16.488281 19.453125 16.695312 19.121094 C 16.875 19.488281 17.132812 19.808594 17.410156 20.117188 C 17.113281 20.421875 16.882812 20.75 16.695312 21.09375 C 16.488281 20.742188 16.269531 20.421875 15.949219 20.117188 Z M 15.949219 20.117188 "/>
<path style=" stroke:none;fill-rule:nonzero;fill:rgb(83.137255%,0%,0%);fill-opacity:1;" d="M 0.773438 5.273438 C 1.101562 4.957031 1.316406 4.609375 1.519531 4.277344 C 1.703125 4.644531 1.960938 4.960938 2.238281 5.273438 C 1.941406 5.578125 1.707031 5.90625 1.523438 6.25 C 1.316406 5.898438 1.097656 5.578125 0.773438 5.273438 Z M 0.773438 5.273438 "/>
<path style=" stroke:none;fill-rule:nonzero;fill:rgb(83.137255%,0%,0%);fill-opacity:1;" d="M 0.589844 3.039062 C 0.601562 2.691406 0.730469 2.558594 0.988281 2.375 C 0.785156 2.230469 0.699219 2.019531 0.714844 1.839844 C 0.757812 1.40625 1.101562 1.1875 1.476562 1.199219 C 1.851562 1.207031 2.175781 1.5 2.203125 1.816406 C 2.222656 2.089844 2.140625 2.222656 1.941406 2.367188 C 2.179688 2.5625 2.328125 2.691406 2.324219 3.035156 C 2.316406 3.378906 2.019531 3.789062 1.496094 3.800781 C 0.972656 3.8125 0.578125 3.386719 0.589844 3.039062 Z M 2.050781 3.039062 C 2.074219 2.722656 1.785156 2.511719 1.460938 2.507812 C 1.148438 2.503906 0.867188 2.765625 0.867188 3.050781 C 0.867188 3.355469 1.230469 3.519531 1.46875 3.523438 C 1.757812 3.523438 2.03125 3.3125 2.050781 3.039062 Z M 1.945312 1.90625 C 1.953125 1.640625 1.699219 1.449219 1.441406 1.457031 C 1.210938 1.464844 0.964844 1.636719 0.964844 1.859375 C 0.964844 2.140625 1.242188 2.277344 1.480469 2.28125 C 1.695312 2.289062 1.941406 2.109375 1.945312 1.90625 Z M 1.945312 1.90625 "/>
<path style=" stroke:none;fill-rule:nonzero;fill:rgb(83.137255%,0%,0%);fill-opacity:1;" d="M 17.429688 21.945312 C 17.414062 22.296875 17.285156 22.425781 17.03125 22.609375 C 17.234375 22.753906 17.320312 22.964844 17.300781 23.144531 C 17.261719 23.578125 16.917969 23.796875 16.539062 23.785156 C 16.164062 23.777344 15.839844 23.484375 15.816406 23.167969 C 15.792969 22.894531 15.878906 22.761719 16.078125 22.617188 C 15.839844 22.421875 15.6875 22.292969 15.695312 21.949219 C 15.699219 21.605469 16 21.195312 16.523438 21.183594 C 17.046875 21.171875 17.441406 21.597656 17.429688 21.945312 Z M 15.96875 21.945312 C 15.945312 22.261719 16.230469 22.472656 16.554688 22.476562 C 16.871094 22.480469 17.152344 22.21875 17.152344 21.933594 C 17.152344 21.628906 16.785156 21.464844 16.550781 21.460938 C 16.261719 21.460938 15.988281 21.671875 15.96875 21.945312 Z M 16.070312 23.078125 C 16.066406 23.34375 16.316406 23.535156 16.578125 23.527344 C 16.808594 23.519531 17.050781 23.347656 17.050781 23.125 C 17.054688 22.847656 16.773438 22.707031 16.535156 22.703125 C 16.320312 22.695312 16.074219 22.875 16.070312 23.078125 Z M 16.070312 23.078125 "/>
</g>
</svg>
