<?xml version="1.0" encoding="UTF-8"?>
<svg xmlns="http://www.w3.org/2000/svg" xmlns:xlink="http://www.w3.org/1999/xlink" width="18pt" height="25pt" viewBox="0 0 18 25" version="1.1">
<g id="surface1">
<path style="fill-rule:nonzero;fill:rgb(100%,100%,100%);fill-opacity:1;stroke-width:0.996733;stroke-linecap:butt;stroke-linejoin:miter;stroke:rgb(0%,0%,0%);stroke-opacity:1;stroke-miterlimit:4;" d="M 6268.562774 -2435.009307 L 6470.541941 -2435.009307 C 6476.375274 -2435.009307 6481.139163 -2430.216495 6481.139163 -2424.347745 L 6481.139163 -2133.795714 C 6481.139163 -2127.926964 6476.375274 -2123.183057 6470.541941 -2123.183057 L 6268.562774 -2123.183057 C 6262.68083 -2123.183057 6257.916941 -2127.926964 6257.916941 -2133.795714 L 6257.916941 -2424.347745 C 6257.916941 -2430.216495 6262.68083 -2435.009307 6268.562774 -2435.009307 Z M 6268.562774 -2435.009307 " transform="matrix(0.0803571,0,0,0.0798722,-502.829263,194.528624)"/>
<path style=" stroke:none;fill-rule:nonzero;fill:rgb(83.137255%,0%,0%);fill-opacity:1;" d="M 0.589844 3.039062 C 0.601562 2.691406 0.730469 2.558594 0.988281 2.375 C 0.785156 2.230469 0.699219 2.019531 0.714844 1.839844 C 0.757812 1.40625 1.101562 1.1875 1.476562 1.199219 C 1.851562 1.207031 2.175781 1.5 2.203125 1.816406 C 2.222656 2.089844 2.140625 2.222656 1.941406 2.367188 C 2.179688 2.5625 2.328125 2.691406 2.324219 3.035156 C 2.316406 3.378906 2.019531 3.789062 1.496094 3.800781 C 0.972656 3.8125 0.578125 3.386719 0.589844 3.039062 Z M 2.050781 3.039062 C 2.074219 2.722656 1.785156 2.511719 1.460938 2.507812 C 1.148438 2.503906 0.867188 2.765625 0.867188 3.050781 C 0.867188 3.355469 1.230469 3.519531 1.46875 3.523438 C 1.757812 3.523438 2.03125 3.3125 2.050781 3.039062 Z M 1.945312 1.90625 C 1.953125 1.640625 1.699219 1.449219 1.441406 1.457031 C 1.210938 1.464844 0.964844 1.636719 0.964844 1.859375 C 0.964844 2.140625 1.242188 2.277344 1.480469 2.28125 C 1.695312 2.289062 1.941406 2.109375 1.945312 1.90625 Z M 1.945312 1.90625 "/>
<path style=" stroke:none;fill-rule:nonzero;fill:rgb(83.137255%,0%,0%);fill-opacity:1;" d="M 17.429688 21.945312 C 17.414062 22.296875 17.285156 22.425781 17.03125 22.609375 C 17.234375 22.753906 17.320312 22.964844 17.300781 23.144531 C 17.261719 23.578125 16.917969 23.796875 16.539062 23.785156 C 16.164062 23.777344 15.839844 23.484375 15.816406 23.167969 C 15.792969 22.894531 15.878906 22.761719 16.078125 22.617188 C 15.839844 22.421875 15.6875 22.292969 15.695312 21.949219 C 15.699219 21.605469 16 21.195312 16.523438 21.183594 C 17.046875 21.171875 17.441406 21.597656 17.429688 21.945312 Z M 15.96875 21.945312 C 15.945312 22.261719 16.230469 22.472656 16.554688 22.476562 C 16.871094 22.480469 17.152344 22.21875 17.152344 21.933594 C 17.152344 21.628906 16.785156 21.464844 16.550781 21.460938 C 16.261719 21.460938 15.988281 21.671875 15.96875 21.945312 Z M 16.070312 23.078125 C 16.066406 23.34375 16.316406 23.535156 16.578125 23.527344 C 16.808594 23.519531 17.050781 23.347656 17.050781 23.125 C 17.054688 22.847656 16.773438 22.707031 16.535156 22.703125 C 16.320312 22.695312 16.074219 22.875 16.070312 23.078125 Z M 16.070312 23.078125 "/>
<path style=" stroke:none;fill-rule:nonzero;fill:rgb(83.137255%,0%,0%);fill-opacity:1;" d="M 0.808594 5.066406 C 0.683594 4.789062 0.667969 4.3125 1.046875 4.25 C 1.335938 4.210938 1.453125 4.34375 1.476562 4.546875 C 1.484375 4.609375 1.519531 4.609375 1.53125 4.542969 C 1.546875 4.335938 1.753906 4.214844 1.917969 4.242188 C 2.359375 4.320312 2.335938 4.804688 2.191406 5.136719 C 1.96875 5.574219 1.738281 5.847656 1.527344 6.289062 C 1.28125 5.832031 1.003906 5.457031 0.808594 5.066406 Z M 0.808594 5.066406 "/>
<path style=" stroke:none;fill-rule:nonzero;fill:rgb(83.137255%,0%,0%);fill-opacity:1;" d="M 3.621094 2.246094 C 4.195312 2.210938 4.492188 2.695312 4.550781 3.082031 C 4.585938 3.140625 4.605469 3.125 4.621094 3.078125 C 4.648438 2.585938 5.09375 2.179688 5.503906 2.238281 C 6.171875 2.246094 6.578125 2.984375 6.464844 3.613281 C 6.324219 4.378906 5.910156 4.835938 5.597656 5.3125 C 5.242188 5.804688 4.761719 6.511719 4.609375 6.855469 C 4.609375 6.855469 4.121094 6.121094 3.492188 5.253906 C 3.066406 4.675781 2.730469 4.050781 2.699219 3.511719 C 2.660156 2.894531 2.917969 2.34375 3.621094 2.246094 Z M 3.621094 2.246094 "/>
<path style=" stroke:none;fill-rule:nonzero;fill:rgb(83.137255%,0%,0%);fill-opacity:1;" d="M 12.421875 2.246094 C 12.996094 2.210938 13.296875 2.695312 13.355469 3.082031 C 13.390625 3.140625 13.40625 3.125 13.421875 3.078125 C 13.449219 2.585938 13.894531 2.179688 14.304688 2.238281 C 14.972656 2.246094 15.378906 2.984375 15.265625 3.613281 C 15.125 4.378906 14.710938 4.835938 14.398438 5.3125 C 14.042969 5.804688 13.5625 6.511719 13.410156 6.855469 C 13.410156 6.855469 12.925781 6.121094 12.292969 5.253906 C 11.871094 4.675781 11.53125 4.050781 11.5 3.511719 C 11.464844 2.894531 11.71875 2.34375 12.421875 2.246094 Z M 12.421875 2.246094 "/>
<path style=" stroke:none;fill-rule:nonzero;fill:rgb(83.137255%,0%,0%);fill-opacity:1;" d="M 7.976562 6.25 C 8.550781 6.210938 8.847656 6.699219 8.90625 7.085938 C 8.941406 7.144531 8.960938 7.128906 8.972656 7.082031 C 9 6.585938 9.445312 6.183594 9.855469 6.238281 C 10.527344 6.25 10.933594 6.988281 10.820312 7.613281 C 10.679688 8.378906 10.265625 8.839844 9.949219 9.316406 C 9.59375 9.808594 9.117188 10.515625 8.960938 10.859375 C 8.960938 10.859375 8.476562 10.125 7.84375 9.257812 C 7.421875 8.679688 7.082031 8.054688 7.050781 7.515625 C 7.015625 6.898438 7.269531 6.347656 7.976562 6.25 Z M 7.976562 6.25 "/>
<path style=" stroke:none;fill-rule:nonzero;fill:rgb(83.137255%,0%,0%);fill-opacity:1;" d="M 3.621094 10.253906 C 4.195312 10.214844 4.492188 10.703125 4.550781 11.085938 C 4.585938 11.148438 4.605469 11.132812 4.621094 11.085938 C 4.648438 10.589844 5.09375 10.1875 5.503906 10.242188 C 6.171875 10.253906 6.578125 10.992188 6.464844 11.617188 C 6.324219 12.382812 5.910156 12.84375 5.597656 13.320312 C 5.242188 13.8125 4.761719 14.519531 4.609375 14.863281 C 4.609375 14.863281 4.121094 14.128906 3.492188 13.261719 C 3.066406 12.683594 2.730469 12.058594 2.699219 11.519531 C 2.660156 10.902344 2.917969 10.351562 3.621094 10.253906 Z M 3.621094 10.253906 "/>
<path style=" stroke:none;fill-rule:nonzero;fill:rgb(83.137255%,0%,0%);fill-opacity:1;" d="M 12.421875 10.253906 C 12.996094 10.214844 13.296875 10.703125 13.355469 11.085938 C 13.390625 11.148438 13.40625 11.132812 13.421875 11.085938 C 13.449219 10.589844 13.894531 10.1875 14.304688 10.242188 C 14.972656 10.253906 15.378906 10.992188 15.265625 11.617188 C 15.125 12.382812 14.710938 12.84375 14.398438 13.320312 C 14.042969 13.8125 13.5625 14.519531 13.410156 14.863281 C 13.410156 14.863281 12.925781 14.128906 12.292969 13.261719 C 11.871094 12.683594 11.53125 12.058594 11.5 11.519531 C 11.464844 10.902344 11.71875 10.351562 12.421875 10.253906 Z M 12.421875 10.253906 "/>
<path style=" stroke:none;fill-rule:nonzero;fill:rgb(83.137255%,0%,0%);fill-opacity:1;" d="M 12.421875 22.722656 C 12.996094 22.757812 13.296875 22.273438 13.355469 21.886719 C 13.390625 21.828125 13.40625 21.84375 13.421875 21.890625 C 13.449219 22.382812 13.894531 22.789062 14.304688 22.734375 C 14.972656 22.722656 15.378906 21.984375 15.265625 21.355469 C 15.125 20.59375 14.710938 20.132812 14.398438 19.65625 C 14.042969 19.164062 13.5625 18.457031 13.410156 18.113281 C 13.410156 18.113281 12.925781 18.847656 12.292969 19.714844 C 11.871094 20.292969 11.53125 20.917969 11.5 21.457031 C 11.464844 22.074219 11.71875 22.625 12.421875 22.722656 Z M 12.421875 22.722656 "/>
<path style=" stroke:none;fill-rule:nonzero;fill:rgb(83.137255%,0%,0%);fill-opacity:1;" d="M 7.976562 18.785156 C 8.550781 18.820312 8.847656 18.335938 8.90625 17.949219 C 8.941406 17.890625 8.960938 17.90625 8.972656 17.953125 C 9 18.445312 9.445312 18.851562 9.855469 18.796875 C 10.527344 18.785156 10.933594 18.046875 10.820312 17.417969 C 10.679688 16.65625 10.265625 16.195312 9.949219 15.71875 C 9.59375 15.226562 9.117188 14.519531 8.960938 14.175781 C 8.960938 14.175781 8.476562 14.910156 7.84375 15.777344 C 7.421875 16.355469 7.082031 16.980469 7.050781 17.519531 C 7.015625 18.136719 7.269531 18.6875 7.976562 18.785156 Z M 7.976562 18.785156 "/>
<path style=" stroke:none;fill-rule:nonzero;fill:rgb(83.137255%,0%,0%);fill-opacity:1;" d="M 3.621094 22.722656 C 4.195312 22.757812 4.492188 22.273438 4.550781 21.886719 C 4.585938 21.828125 4.605469 21.84375 4.621094 21.890625 C 4.648438 22.382812 5.09375 22.789062 5.503906 22.734375 C 6.171875 22.722656 6.578125 21.984375 6.464844 21.355469 C 6.324219 20.59375 5.910156 20.132812 5.597656 19.65625 C 5.242188 19.164062 4.761719 18.457031 4.609375 18.113281 C 4.609375 18.113281 4.121094 18.847656 3.492188 19.714844 C 3.066406 20.292969 2.730469 20.917969 2.699219 21.457031 C 2.660156 22.074219 2.917969 22.625 3.621094 22.722656 Z M 3.621094 22.722656 "/>
<path style=" stroke:none;fill-rule:nonzero;fill:rgb(83.137255%,0%,0%);fill-opacity:1;" d="M 15.984375 20.308594 C 15.855469 20.585938 15.839844 21.058594 16.222656 21.125 C 16.507812 21.160156 16.625 21.027344 16.648438 20.824219 C 16.660156 20.765625 16.691406 20.761719 16.703125 20.828125 C 16.71875 21.039062 16.925781 21.160156 17.089844 21.128906 C 17.535156 21.054688 17.507812 20.566406 17.363281 20.238281 C 17.144531 19.800781 16.914062 19.523438 16.699219 19.085938 C 16.457031 19.542969 16.175781 19.914062 15.984375 20.308594 Z M 15.984375 20.308594 "/>
</g>
</svg>
