<?xml version="1.0" encoding="UTF-8"?>
<svg xmlns="http://www.w3.org/2000/svg" xmlns:xlink="http://www.w3.org/1999/xlink" width="18pt" height="25pt" viewBox="0 0 18 25" version="1.1">
<g id="surface1">
<path style="fill-rule:nonzero;fill:rgb(100%,100%,100%);fill-opacity:1;stroke-width:0.996733;stroke-linecap:butt;stroke-linejoin:miter;stroke:rgb(0%,0%,0%);stroke-opacity:1;stroke-miterlimit:4;" d="M 6268.562774 -2435.009307 L 6470.541941 -2435.009307 C 6476.375274 -2435.009307 6481.139163 -2430.216495 6481.139163 -2424.347745 L 6481.139163 -2133.795714 C 6481.139163 -2127.926964 6476.375274 -2123.183057 6470.541941 -2123.183057 L 6268.562774 -2123.183057 C 6262.68083 -2123.183057 6257.916941 -2127.926964 6257.916941 -2133.795714 L 6257.916941 -2424.347745 C 6257.916941 -2430.216495 6262.68083 -2435.009307 6268.562774 -2435.009307 Z M 6268.562774 -2435.009307 " transform="matrix(0.0803571,0,0,0.0798722,-502.829263,194.528624)"/>
<path style=" stroke:none;fill-rule:nonzero;fill:rgb(0%,0%,0%);fill-opacity:1;" d="M 0.589844 3.039062 C 0.601562 2.691406 0.730469 2.558594 0.988281 2.375 C 0.785156 2.230469 0.699219 2.019531 0.714844 1.839844 C 0.757812 1.40625 1.101562 1.1875 1.476562 1.199219 C 1.851562 1.207031 2.175781 1.5 2.203125 1.816406 C 2.222656 2.089844 2.140625 2.222656 1.941406 2.367188 C 2.179688 2.5625 2.328125 2.691406 2.324219 3.035156 C 2.316406 3.378906 2.019531 3.789062 1.496094 3.800781 C 0.972656 3.8125 0.578125 3.386719 0.589844 3.039062 Z M 2.050781 3.039062 C 2.074219 2.722656 1.785156 2.511719 1.460938 2.507812 C 1.148438 2.503906 0.867188 2.765625 0.867188 3.050781 C 0.867188 3.355469 1.230469 3.519531 1.46875 3.523438 C 1.757812 3.523438 2.03125 3.3125 2.050781 3.039062 Z M 1.945312 1.90625 C 1.953125 1.640625 1.699219 1.449219 1.441406 1.457031 C 1.210938 1.464844 0.964844 1.636719 0.964844 1.859375 C 0.964844 2.140625 1.242188 2.277344 1.480469 2.28125 C 1.695312 2.289062 1.941406 2.109375 1.945312 1.90625 Z M 1.945312 1.90625 "/>
<path style=" stroke:none;fill-rule:nonzero;fill:rgb(0%,0%,0%);fill-opacity:1;" d="M 17.429688 21.945312 C 17.414062 22.296875 17.285156 22.425781 17.03125 22.609375 C 17.234375 22.753906 17.320312 22.964844 17.300781 23.144531 C 17.261719 23.578125 16.917969 23.796875 16.539062 23.785156 C 16.164062 23.777344 15.839844 23.484375 15.816406 23.167969 C 15.792969 22.894531 15.878906 22.761719 16.078125 22.617188 C 15.839844 22.421875 15.6875 22.292969 15.695312 21.949219 C 15.699219 21.605469 16 21.195312 16.523438 21.183594 C 17.046875 21.171875 17.441406 21.597656 17.429688 21.945312 Z M 15.96875 21.945312 C 15.945312 22.261719 16.230469 22.472656 16.554688 22.476562 C 16.871094 22.480469 17.152344 22.21875 17.152344 21.933594 C 17.152344 21.628906 16.785156 21.464844 16.550781 21.460938 C 16.261719 21.460938 15.988281 21.671875 15.96875 21.945312 Z M 16.070312 23.078125 C 16.066406 23.34375 16.316406 23.535156 16.578125 23.527344 C 16.808594 23.519531 17.050781 23.347656 17.050781 23.125 C 17.054688 22.847656 16.773438 22.707031 16.535156 22.703125 C 16.320312 22.695312 16.074219 22.875 16.070312 23.078125 Z M 16.070312 23.078125 "/>
<path style=" stroke:none;fill-rule:nonzero;fill:rgb(0%,0%,0%);fill-opacity:1;" d="M 4.257812 5.457031 C 4.257812 5.296875 4.128906 5.292969 4.128906 5.410156 C 4.121094 6.003906 3.613281 6.296875 3.246094 6.226562 C 2.683594 6.121094 2.503906 5.5625 2.507812 5.234375 C 2.523438 4.21875 3.550781 3.472656 4.476562 2.171875 C 5.15625 3.34375 6.277344 4.265625 6.34375 5.175781 C 6.433594 6.378906 4.898438 6.828125 4.675781 5.425781 C 4.664062 5.324219 4.546875 5.28125 4.554688 5.417969 C 4.589844 5.804688 4.539062 5.964844 4.976562 6.914062 L 3.835938 6.914062 C 4.089844 6.472656 4.238281 5.925781 4.257812 5.457031 Z M 4.257812 5.457031 "/>
<path style=" stroke:none;fill-rule:nonzero;fill:rgb(0%,0%,0%);fill-opacity:1;" d="M 13.21875 5.457031 C 13.21875 5.296875 13.089844 5.292969 13.09375 5.410156 C 13.082031 6.003906 12.578125 6.296875 12.210938 6.226562 C 11.644531 6.121094 11.464844 5.5625 11.46875 5.234375 C 11.488281 4.21875 12.511719 3.472656 13.441406 2.171875 C 14.121094 3.34375 15.238281 4.265625 15.304688 5.175781 C 15.394531 6.378906 13.859375 6.828125 13.640625 5.425781 C 13.625 5.324219 13.507812 5.28125 13.515625 5.417969 C 13.550781 5.804688 13.503906 5.964844 13.941406 6.914062 L 12.796875 6.914062 C 13.050781 6.472656 13.203125 5.925781 13.21875 5.457031 Z M 13.21875 5.457031 "/>
<path style=" stroke:none;fill-rule:nonzero;fill:rgb(0%,0%,0%);fill-opacity:1;" d="M 8.769531 9.460938 C 8.773438 9.300781 8.644531 9.296875 8.644531 9.414062 C 8.632812 10.007812 8.128906 10.300781 7.761719 10.230469 C 7.195312 10.125 7.015625 9.566406 7.023438 9.238281 C 7.039062 8.222656 8.066406 7.476562 8.992188 6.175781 C 9.671875 7.347656 10.792969 8.269531 10.859375 9.179688 C 10.945312 10.382812 9.410156 10.832031 9.191406 9.429688 C 9.179688 9.328125 9.0625 9.285156 9.070312 9.421875 C 9.101562 9.808594 9.054688 9.96875 9.492188 10.917969 L 8.351562 10.917969 C 8.601562 10.472656 8.753906 9.929688 8.769531 9.460938 Z M 8.769531 9.460938 "/>
<path style=" stroke:none;fill-rule:nonzero;fill:rgb(0%,0%,0%);fill-opacity:1;" d="M 4.257812 13.464844 C 4.257812 13.304688 4.128906 13.300781 4.128906 13.417969 C 4.121094 14.011719 3.613281 14.304688 3.246094 14.234375 C 2.683594 14.128906 2.503906 13.570312 2.507812 13.242188 C 2.523438 12.226562 3.550781 11.480469 4.476562 10.179688 C 5.15625 11.351562 6.277344 12.273438 6.34375 13.179688 C 6.433594 14.386719 4.898438 14.835938 4.675781 13.429688 C 4.664062 13.332031 4.546875 13.289062 4.554688 13.425781 C 4.589844 13.8125 4.539062 13.972656 4.976562 14.921875 L 3.835938 14.921875 C 4.089844 14.476562 4.238281 13.933594 4.257812 13.464844 Z M 4.257812 13.464844 "/>
<path style=" stroke:none;fill-rule:nonzero;fill:rgb(0%,0%,0%);fill-opacity:1;" d="M 13.21875 13.464844 C 13.21875 13.304688 13.089844 13.300781 13.09375 13.417969 C 13.082031 14.011719 12.578125 14.304688 12.210938 14.234375 C 11.644531 14.128906 11.464844 13.570312 11.46875 13.242188 C 11.488281 12.226562 12.511719 11.480469 13.441406 10.179688 C 14.121094 11.351562 15.238281 12.273438 15.304688 13.179688 C 15.394531 14.386719 13.859375 14.835938 13.640625 13.429688 C 13.625 13.332031 13.507812 13.289062 13.515625 13.425781 C 13.550781 13.8125 13.503906 13.972656 13.941406 14.921875 L 12.796875 14.921875 C 13.050781 14.476562 13.203125 13.933594 13.21875 13.464844 Z M 13.21875 13.464844 "/>
<path style=" stroke:none;fill-rule:nonzero;fill:rgb(0%,0%,0%);fill-opacity:1;" d="M 13.21875 19.511719 C 13.222656 19.675781 13.09375 19.679688 13.09375 19.558594 C 13.082031 18.964844 12.578125 18.675781 12.210938 18.742188 C 11.644531 18.851562 11.464844 19.410156 11.472656 19.738281 C 11.488281 20.75 12.515625 21.5 13.441406 22.796875 C 14.121094 21.625 15.242188 20.703125 15.308594 19.796875 C 15.394531 18.589844 13.859375 18.140625 13.640625 19.546875 C 13.625 19.644531 13.507812 19.691406 13.519531 19.550781 C 13.550781 19.167969 13.503906 19.007812 13.941406 18.054688 L 12.796875 18.054688 C 13.050781 18.5 13.203125 19.046875 13.21875 19.511719 Z M 13.21875 19.511719 "/>
<path style=" stroke:none;fill-rule:nonzero;fill:rgb(0%,0%,0%);fill-opacity:1;" d="M 8.773438 15.574219 C 8.773438 15.738281 8.644531 15.742188 8.644531 15.621094 C 8.636719 15.027344 8.128906 14.738281 7.761719 14.804688 C 7.199219 14.914062 7.019531 15.472656 7.023438 15.800781 C 7.039062 16.8125 8.066406 17.5625 8.992188 18.859375 C 9.671875 17.6875 10.792969 16.765625 10.859375 15.859375 C 10.949219 14.652344 9.414062 14.203125 9.191406 15.609375 C 9.179688 15.707031 9.0625 15.753906 9.070312 15.613281 C 9.105469 15.230469 9.054688 15.070312 9.492188 14.117188 L 8.351562 14.117188 C 8.605469 14.5625 8.753906 15.105469 8.773438 15.574219 Z M 8.773438 15.574219 "/>
<path style=" stroke:none;fill-rule:nonzero;fill:rgb(0%,0%,0%);fill-opacity:1;" d="M 4.257812 19.511719 C 4.257812 19.675781 4.128906 19.679688 4.132812 19.558594 C 4.121094 18.964844 3.617188 18.675781 3.25 18.742188 C 2.683594 18.851562 2.503906 19.410156 2.507812 19.738281 C 2.523438 20.75 3.550781 21.5 4.480469 22.796875 C 5.15625 21.625 6.277344 20.703125 6.34375 19.796875 C 6.433594 18.589844 4.898438 18.140625 4.679688 19.546875 C 4.664062 19.644531 4.546875 19.691406 4.554688 19.550781 C 4.589844 19.167969 4.542969 19.007812 4.980469 18.054688 L 3.835938 18.054688 C 4.089844 18.5 4.238281 19.046875 4.257812 19.511719 Z M 4.257812 19.511719 "/>
<path style=" stroke:none;fill-rule:nonzero;fill:rgb(0%,0%,0%);fill-opacity:1;" d="M 1.472656 5.789062 C 1.472656 5.71875 1.402344 5.75 1.390625 5.773438 C 1.296875 5.929688 1.160156 5.96875 1.023438 5.910156 C 0.890625 5.855469 0.816406 5.730469 0.828125 5.550781 C 0.851562 5.273438 1.070312 4.976562 1.179688 4.804688 C 1.277344 4.652344 1.390625 4.46875 1.503906 4.234375 C 1.640625 4.503906 1.710938 4.578125 1.859375 4.824219 C 1.992188 5.039062 2.171875 5.25 2.1875 5.511719 C 2.1875 5.710938 2.101562 5.898438 1.914062 5.933594 C 1.804688 5.953125 1.707031 5.898438 1.632812 5.769531 C 1.609375 5.738281 1.5625 5.753906 1.5625 5.800781 C 1.578125 5.964844 1.640625 6.117188 1.792969 6.296875 L 1.238281 6.296875 C 1.351562 6.167969 1.46875 6 1.472656 5.789062 Z M 1.472656 5.789062 "/>
<path style=" stroke:none;fill-rule:nonzero;fill:rgb(0%,0%,0%);fill-opacity:1;" d="M 16.644531 19.585938 C 16.644531 19.65625 16.574219 19.621094 16.5625 19.601562 C 16.46875 19.441406 16.332031 19.40625 16.199219 19.460938 C 16.0625 19.519531 15.988281 19.644531 16 19.824219 C 16.027344 20.097656 16.246094 20.398438 16.351562 20.570312 C 16.453125 20.722656 16.5625 20.90625 16.679688 21.140625 C 16.816406 20.871094 16.882812 20.792969 17.03125 20.550781 C 17.164062 20.332031 17.34375 20.121094 17.359375 19.859375 C 17.359375 19.664062 17.273438 19.476562 17.085938 19.441406 C 16.980469 19.421875 16.878906 19.476562 16.804688 19.601562 C 16.78125 19.636719 16.734375 19.617188 16.738281 19.574219 C 16.75 19.40625 16.8125 19.257812 16.964844 19.078125 L 16.410156 19.078125 C 16.523438 19.203125 16.640625 19.375 16.644531 19.585938 Z M 16.644531 19.585938 "/>
</g>
</svg>
