<?xml version="1.0" encoding="UTF-8"?>
<svg xmlns="http://www.w3.org/2000/svg" xmlns:xlink="http://www.w3.org/1999/xlink" width="18pt" height="25pt" viewBox="0 0 18 25" version="1.1">
<g id="surface1">
<path style="fill-rule:nonzero;fill:rgb(100%,100%,100%);fill-opacity:1;stroke-width:0.996733;stroke-linecap:butt;stroke-linejoin:miter;stroke:rgb(0%,0%,0%);stroke-opacity:1;stroke-miterlimit:4;" d="M 6491.791294 -2435.009307 L 6693.770461 -2435.009307 C 6699.603794 -2435.009307 6704.367683 -2430.216495 6704.367683 -2424.347745 L 6704.367683 -2133.795714 C 6704.367683 -2127.926964 6699.603794 -2123.183057 6693.770461 -2123.183057 L 6491.791294 -2123.183057 C 6485.90935 -2123.183057 6481.145461 -2127.926964 6481.145461 -2133.795714 L 6481.145461 -2424.347745 C 6481.145461 -2430.216495 6485.90935 -2435.009307 6491.791294 -2435.009307 Z M 6491.791294 -2435.009307 " transform="matrix(0.0803571,0,0,0.0798722,-520.767269,194.528624)"/>
<path style=" stroke:none;fill-rule:nonzero;fill:rgb(0%,0%,0%);fill-opacity:1;" d="M 0.699219 3.183594 L 0.945312 3.109375 C 1.035156 3.347656 1.222656 3.417969 1.417969 3.402344 C 1.769531 3.375 1.886719 2.992188 1.914062 2.652344 C 1.777344 2.792969 1.570312 2.863281 1.394531 2.859375 C 0.832031 2.828125 0.6875 2.390625 0.683594 1.929688 C 0.667969 1.542969 0.832031 1.265625 1.113281 1.136719 C 1.261719 1.070312 1.605469 1.070312 1.753906 1.148438 C 2.097656 1.324219 2.226562 1.628906 2.203125 2.359375 C 2.203125 2.960938 2.070312 3.660156 1.410156 3.675781 C 1.03125 3.726562 0.738281 3.4375 0.699219 3.183594 Z M 1.65625 2.523438 C 1.769531 2.453125 1.835938 2.386719 1.886719 2.289062 C 1.929688 2.207031 1.941406 2.164062 1.929688 1.996094 C 1.898438 1.558594 1.667969 1.3125 1.328125 1.359375 C 1.136719 1.386719 1.035156 1.492188 0.972656 1.683594 C 0.863281 2.039062 1.003906 2.457031 1.265625 2.550781 C 1.382812 2.59375 1.5625 2.582031 1.65625 2.523438 Z M 1.65625 2.523438 "/>
<path style=" stroke:none;fill-rule:nonzero;fill:rgb(0%,0%,0%);fill-opacity:1;" d="M 17.257812 21.800781 L 17.015625 21.878906 C 16.921875 21.636719 16.738281 21.566406 16.539062 21.582031 C 16.1875 21.609375 16.070312 21.992188 16.046875 22.332031 C 16.183594 22.191406 16.390625 22.121094 16.566406 22.125 C 17.125 22.15625 17.269531 22.59375 17.273438 23.054688 C 17.289062 23.441406 17.125 23.71875 16.84375 23.847656 C 16.695312 23.914062 16.355469 23.914062 16.207031 23.835938 C 15.859375 23.660156 15.734375 23.355469 15.757812 22.625 C 15.757812 22.023438 15.886719 21.324219 16.546875 21.308594 C 16.929688 21.257812 17.21875 21.546875 17.257812 21.800781 Z M 16.300781 22.460938 C 16.1875 22.53125 16.125 22.597656 16.070312 22.695312 C 16.03125 22.777344 16.015625 22.820312 16.027344 22.988281 C 16.058594 23.425781 16.292969 23.671875 16.632812 23.625 C 16.820312 23.597656 16.925781 23.492188 16.984375 23.300781 C 17.09375 22.945312 16.953125 22.527344 16.695312 22.433594 C 16.578125 22.390625 16.394531 22.402344 16.300781 22.460938 Z M 16.300781 22.460938 "/>
<path style=" stroke:none;fill-rule:nonzero;fill:rgb(0%,0%,0%);fill-opacity:1;" d="M 12.5 12.125 C 12.730469 11.664062 12.898438 11.191406 12.929688 10.6875 C 12.957031 10.5 12.839844 10.496094 12.824219 10.628906 C 12.496094 11.871094 10.753906 11.535156 10.8125 10.363281 C 10.863281 9.414062 11.8125 9.210938 12.308594 9.519531 C 12.503906 9.636719 12.492188 9.566406 12.386719 9.449219 C 11.648438 8.632812 12.09375 7.582031 13.089844 7.5625 C 14.164062 7.625 14.441406 8.75 13.785156 9.410156 C 13.703125 9.492188 13.519531 9.746094 13.792969 9.566406 C 14.460938 9.097656 15.382812 9.601562 15.363281 10.328125 C 15.328125 11.664062 13.691406 11.765625 13.339844 10.648438 C 13.304688 10.523438 13.207031 10.460938 13.234375 10.671875 C 13.285156 11.054688 13.382812 11.625 13.671875 12.125 Z M 12.5 12.125 "/>
<path style=" stroke:none;fill-rule:nonzero;fill:rgb(0%,0%,0%);fill-opacity:1;" d="M 8.414062 14.296875 C 8.644531 13.832031 8.8125 13.359375 8.84375 12.855469 C 8.871094 12.667969 8.757812 12.664062 8.742188 12.796875 C 8.414062 14.042969 6.671875 13.703125 6.730469 12.53125 C 6.777344 11.582031 7.726562 11.378906 8.222656 11.6875 C 8.417969 11.804688 8.40625 11.734375 8.300781 11.617188 C 7.566406 10.800781 8.011719 9.75 9.003906 9.730469 C 10.082031 9.792969 10.359375 10.917969 9.699219 11.578125 C 9.617188 11.660156 9.4375 11.914062 9.710938 11.734375 C 10.375 11.265625 11.300781 11.773438 11.28125 12.496094 C 11.246094 13.832031 9.605469 13.933594 9.253906 12.816406 C 9.222656 12.691406 9.125 12.628906 9.152344 12.839844 C 9.199219 13.222656 9.300781 13.796875 9.589844 14.296875 Z M 8.414062 14.296875 "/>
<path style=" stroke:none;fill-rule:nonzero;fill:rgb(0%,0%,0%);fill-opacity:1;" d="M 4.339844 12.125 C 4.570312 11.664062 4.738281 11.191406 4.769531 10.6875 C 4.796875 10.5 4.683594 10.496094 4.664062 10.628906 C 4.339844 11.871094 2.59375 11.535156 2.65625 10.363281 C 2.703125 9.414062 3.652344 9.210938 4.148438 9.519531 C 4.34375 9.636719 4.332031 9.566406 4.226562 9.449219 C 3.492188 8.632812 3.9375 7.582031 4.929688 7.5625 C 6.003906 7.625 6.285156 8.75 5.625 9.410156 C 5.542969 9.492188 5.359375 9.746094 5.632812 9.566406 C 6.300781 9.097656 7.226562 9.601562 7.207031 10.328125 C 7.171875 11.664062 5.53125 11.765625 5.179688 10.648438 C 5.148438 10.523438 5.050781 10.460938 5.078125 10.671875 C 5.125 11.054688 5.226562 11.625 5.511719 12.125 Z M 4.339844 12.125 "/>
<path style=" stroke:none;fill-rule:nonzero;fill:rgb(0%,0%,0%);fill-opacity:1;" d="M 12.5 6.910156 C 12.730469 6.445312 12.898438 5.972656 12.929688 5.46875 C 12.957031 5.28125 12.839844 5.277344 12.824219 5.410156 C 12.496094 6.65625 10.753906 6.316406 10.8125 5.144531 C 10.863281 4.195312 11.8125 3.992188 12.308594 4.300781 C 12.503906 4.417969 12.492188 4.347656 12.386719 4.230469 C 11.648438 3.414062 12.09375 2.363281 13.089844 2.34375 C 14.164062 2.40625 14.441406 3.53125 13.785156 4.191406 C 13.703125 4.273438 13.519531 4.527344 13.792969 4.347656 C 14.460938 3.878906 15.382812 4.386719 15.363281 5.109375 C 15.328125 6.445312 13.691406 6.546875 13.339844 5.429688 C 13.304688 5.304688 13.207031 5.242188 13.234375 5.453125 C 13.285156 5.835938 13.382812 6.410156 13.671875 6.910156 Z M 12.5 6.910156 "/>
<path style=" stroke:none;fill-rule:nonzero;fill:rgb(0%,0%,0%);fill-opacity:1;" d="M 4.339844 6.910156 C 4.570312 6.445312 4.738281 5.972656 4.769531 5.46875 C 4.796875 5.28125 4.683594 5.277344 4.664062 5.410156 C 4.339844 6.65625 2.59375 6.316406 2.65625 5.144531 C 2.703125 4.195312 3.652344 3.992188 4.148438 4.300781 C 4.34375 4.417969 4.332031 4.347656 4.226562 4.230469 C 3.492188 3.414062 3.9375 2.363281 4.929688 2.34375 C 6.003906 2.40625 6.285156 3.53125 5.625 4.191406 C 5.542969 4.273438 5.359375 4.527344 5.632812 4.347656 C 6.300781 3.878906 7.226562 4.386719 7.207031 5.109375 C 7.171875 6.445312 5.53125 6.546875 5.179688 5.429688 C 5.148438 5.304688 5.050781 5.242188 5.078125 5.453125 C 5.125 5.835938 5.226562 6.410156 5.511719 6.910156 Z M 4.339844 6.910156 "/>
<path style=" stroke:none;fill-rule:nonzero;fill:rgb(0%,0%,0%);fill-opacity:1;" d="M 5.519531 18.105469 C 5.289062 18.566406 5.121094 19.039062 5.089844 19.546875 C 5.0625 19.734375 5.175781 19.734375 5.195312 19.605469 C 5.523438 18.359375 7.265625 18.695312 7.203125 19.867188 C 7.15625 20.816406 6.207031 21.023438 5.710938 20.710938 C 5.515625 20.597656 5.527344 20.664062 5.632812 20.785156 C 6.371094 21.601562 5.921875 22.652344 4.929688 22.667969 C 3.855469 22.605469 3.574219 21.480469 4.234375 20.820312 C 4.316406 20.742188 4.5 20.484375 4.226562 20.664062 C 3.558594 21.136719 2.636719 20.628906 2.652344 19.902344 C 2.6875 18.566406 4.328125 18.46875 4.679688 19.585938 C 4.714844 19.707031 4.808594 19.769531 4.785156 19.558594 C 4.734375 19.179688 4.632812 18.605469 4.347656 18.105469 Z M 5.519531 18.105469 "/>
<path style=" stroke:none;fill-rule:nonzero;fill:rgb(0%,0%,0%);fill-opacity:1;" d="M 13.679688 18.105469 C 13.449219 18.566406 13.28125 19.039062 13.25 19.546875 C 13.222656 19.734375 13.335938 19.734375 13.351562 19.605469 C 13.679688 18.359375 15.421875 18.695312 15.363281 19.867188 C 15.316406 20.816406 14.367188 21.023438 13.871094 20.710938 C 13.675781 20.597656 13.6875 20.664062 13.792969 20.785156 C 14.527344 21.601562 14.082031 22.652344 13.089844 22.667969 C 12.011719 22.605469 11.734375 21.480469 12.394531 20.820312 C 12.476562 20.742188 12.65625 20.484375 12.382812 20.664062 C 11.71875 21.136719 10.792969 20.628906 10.8125 19.902344 C 10.847656 18.566406 12.488281 18.46875 12.839844 19.585938 C 12.871094 19.707031 12.96875 19.769531 12.941406 19.558594 C 12.894531 19.179688 12.792969 18.605469 12.503906 18.105469 Z M 13.679688 18.105469 "/>
<path style=" stroke:none;fill-rule:nonzero;fill:rgb(0%,0%,0%);fill-opacity:1;" d="M 13.679688 12.90625 C 13.449219 13.367188 13.28125 13.839844 13.25 14.347656 C 13.222656 14.53125 13.335938 14.535156 13.351562 14.40625 C 13.679688 13.160156 15.421875 13.496094 15.363281 14.667969 C 15.316406 15.617188 14.367188 15.820312 13.871094 15.511719 C 13.675781 15.398438 13.6875 15.464844 13.792969 15.585938 C 14.527344 16.398438 14.082031 17.449219 13.089844 17.46875 C 12.011719 17.40625 11.734375 16.28125 12.394531 15.621094 C 12.476562 15.542969 12.65625 15.285156 12.382812 15.464844 C 11.71875 15.933594 10.792969 15.429688 10.8125 14.703125 C 10.847656 13.367188 12.488281 13.265625 12.839844 14.382812 C 12.871094 14.507812 12.96875 14.570312 12.941406 14.359375 C 12.894531 13.980469 12.792969 13.40625 12.503906 12.90625 Z M 13.679688 12.90625 "/>
<path style=" stroke:none;fill-rule:nonzero;fill:rgb(0%,0%,0%);fill-opacity:1;" d="M 5.519531 12.90625 C 5.289062 13.367188 5.121094 13.839844 5.089844 14.347656 C 5.0625 14.53125 5.175781 14.535156 5.195312 14.40625 C 5.523438 13.160156 7.265625 13.496094 7.203125 14.667969 C 7.15625 15.617188 6.207031 15.820312 5.710938 15.511719 C 5.515625 15.398438 5.527344 15.464844 5.632812 15.585938 C 6.371094 16.398438 5.921875 17.449219 4.929688 17.46875 C 3.855469 17.40625 3.574219 16.28125 4.234375 15.621094 C 4.316406 15.542969 4.5 15.285156 4.226562 15.464844 C 3.558594 15.933594 2.636719 15.429688 2.652344 14.703125 C 2.6875 13.367188 4.328125 13.265625 4.679688 14.382812 C 4.714844 14.507812 4.808594 14.570312 4.785156 14.359375 C 4.734375 13.980469 4.632812 13.40625 4.347656 12.90625 Z M 5.519531 12.90625 "/>
<path style=" stroke:none;fill-rule:nonzero;fill:rgb(0%,0%,0%);fill-opacity:1;" d="M 1.097656 5.851562 C 1.195312 5.65625 1.285156 5.472656 1.335938 5.257812 C 1.371094 5.058594 1.300781 5.132812 1.261719 5.265625 C 1.207031 5.449219 1.042969 5.53125 0.894531 5.535156 C 0.625 5.539062 0.488281 5.324219 0.496094 5.097656 C 0.46875 4.859375 0.710938 4.691406 0.894531 4.703125 C 1.035156 4.710938 1.15625 4.785156 1.226562 4.84375 C 1.277344 4.871094 1.328125 4.878906 1.257812 4.816406 C 1.121094 4.667969 1.007812 4.578125 1.011719 4.359375 C 1.011719 4.152344 1.191406 3.9375 1.425781 3.945312 C 1.71875 3.953125 1.851562 4.175781 1.851562 4.382812 C 1.851562 4.535156 1.773438 4.671875 1.65625 4.757812 C 1.582031 4.820312 1.601562 4.867188 1.691406 4.808594 C 1.773438 4.738281 1.871094 4.707031 1.976562 4.703125 C 2.253906 4.699219 2.363281 4.941406 2.347656 5.164062 C 2.332031 5.375 2.152344 5.589844 1.917969 5.566406 C 1.707031 5.539062 1.59375 5.363281 1.53125 5.183594 C 1.511719 5.128906 1.476562 5.113281 1.476562 5.195312 C 1.527344 5.597656 1.679688 5.851562 1.679688 5.851562 Z M 1.097656 5.851562 "/>
<path style=" stroke:none;fill-rule:nonzero;fill:rgb(0%,0%,0%);fill-opacity:1;" d="M 16.921875 19.003906 C 16.824219 19.199219 16.730469 19.378906 16.679688 19.59375 C 16.648438 19.796875 16.714844 19.722656 16.753906 19.589844 C 16.8125 19.40625 16.972656 19.320312 17.121094 19.320312 C 17.394531 19.316406 17.527344 19.527344 17.519531 19.753906 C 17.550781 19.996094 17.304688 20.164062 17.121094 20.152344 C 16.984375 20.140625 16.863281 20.066406 16.789062 20.011719 C 16.742188 19.984375 16.691406 19.972656 16.761719 20.039062 C 16.898438 20.183594 17.007812 20.273438 17.007812 20.496094 C 17.003906 20.699219 16.828125 20.914062 16.59375 20.910156 C 16.300781 20.898438 16.164062 20.679688 16.167969 20.472656 C 16.167969 20.320312 16.242188 20.179688 16.359375 20.09375 C 16.4375 20.035156 16.414062 19.988281 16.328125 20.046875 C 16.246094 20.117188 16.144531 20.148438 16.042969 20.152344 C 15.761719 20.15625 15.652344 19.914062 15.667969 19.691406 C 15.683594 19.480469 15.863281 19.265625 16.101562 19.289062 C 16.3125 19.3125 16.421875 19.488281 16.488281 19.671875 C 16.507812 19.726562 16.542969 19.742188 16.539062 19.660156 C 16.492188 19.253906 16.339844 19.003906 16.339844 19.003906 Z M 16.921875 19.003906 "/>
</g>
</svg>
