<?xml version="1.0" encoding="UTF-8"?>
<svg xmlns="http://www.w3.org/2000/svg" xmlns:xlink="http://www.w3.org/1999/xlink" width="18pt" height="25pt" viewBox="0 0 18 25" version="1.1">
<g id="surface1">
<path style="fill-rule:nonzero;fill:rgb(100%,100%,100%);fill-opacity:1;stroke-width:0.996733;stroke-linecap:butt;stroke-linejoin:miter;stroke:rgb(0%,0%,0%);stroke-opacity:1;stroke-miterlimit:4;" d="M 6491.791294 -2435.009307 L 6693.770461 -2435.009307 C 6699.603794 -2435.009307 6704.367683 -2430.216495 6704.367683 -2424.347745 L 6704.367683 -2133.795714 C 6704.367683 -2127.926964 6699.603794 -2123.183057 6693.770461 -2123.183057 L 6491.791294 -2123.183057 C 6485.90935 -2123.183057 6481.145461 -2127.926964 6481.145461 -2133.795714 L 6481.145461 -2424.347745 C 6481.145461 -2430.216495 6485.90935 -2435.009307 6491.791294 -2435.009307 Z M 6491.791294 -2435.009307 " transform="matrix(0.0803571,0,0,0.0798722,-520.767269,194.528624)"/>
<path style=" stroke:none;fill-rule:nonzero;fill:rgb(83.137255%,0%,0%);fill-opacity:1;" d="M 2.664062 4.644531 C 3.464844 3.871094 3.988281 3.027344 4.488281 2.21875 C 4.925781 3.109375 5.554688 3.890625 6.238281 4.644531 C 5.507812 5.394531 4.945312 6.195312 4.488281 7.035156 C 3.984375 6.171875 3.457031 5.390625 2.664062 4.644531 Z M 2.664062 4.644531 "/>
<path style=" stroke:none;fill-rule:nonzero;fill:rgb(83.137255%,0%,0%);fill-opacity:1;" d="M 2.664062 9.863281 C 3.464844 9.089844 3.988281 8.246094 4.488281 7.4375 C 4.925781 8.328125 5.554688 9.109375 6.238281 9.863281 C 5.507812 10.613281 4.945312 11.410156 4.488281 12.253906 C 3.984375 11.390625 3.457031 10.609375 2.664062 9.863281 Z M 2.664062 9.863281 "/>
<path style=" stroke:none;fill-rule:nonzero;fill:rgb(83.137255%,0%,0%);fill-opacity:1;" d="M 2.664062 15.207031 C 3.464844 14.433594 3.988281 13.589844 4.488281 12.777344 C 4.925781 13.671875 5.554688 14.453125 6.238281 15.207031 C 5.507812 15.953125 4.945312 16.753906 4.488281 17.597656 C 3.984375 16.734375 3.457031 15.953125 2.664062 15.207031 Z M 2.664062 15.207031 "/>
<path style=" stroke:none;fill-rule:nonzero;fill:rgb(83.137255%,0%,0%);fill-opacity:1;" d="M 2.664062 20.40625 C 3.464844 19.632812 3.988281 18.789062 4.488281 17.980469 C 4.925781 18.871094 5.554688 19.652344 6.238281 20.40625 C 5.507812 21.15625 4.945312 21.953125 4.488281 22.796875 C 3.984375 21.933594 3.457031 21.152344 2.664062 20.40625 Z M 2.664062 20.40625 "/>
<path style=" stroke:none;fill-rule:nonzero;fill:rgb(83.137255%,0%,0%);fill-opacity:1;" d="M 7.203125 12.511719 C 8 11.738281 8.523438 10.894531 9.023438 10.082031 C 9.460938 10.976562 10.09375 11.753906 10.773438 12.511719 C 10.042969 13.257812 9.480469 14.058594 9.023438 14.898438 C 8.519531 14.039062 7.992188 13.257812 7.203125 12.511719 Z M 7.203125 12.511719 "/>
<path style=" stroke:none;fill-rule:nonzero;fill:rgb(83.137255%,0%,0%);fill-opacity:1;" d="M 11.628906 4.644531 C 12.425781 3.871094 12.949219 3.027344 13.449219 2.21875 C 13.890625 3.109375 14.519531 3.890625 15.199219 4.644531 C 14.472656 5.394531 13.90625 6.195312 13.453125 7.035156 C 12.949219 6.171875 12.417969 5.390625 11.628906 4.644531 Z M 11.628906 4.644531 "/>
<path style=" stroke:none;fill-rule:nonzero;fill:rgb(83.137255%,0%,0%);fill-opacity:1;" d="M 11.628906 9.863281 C 12.425781 9.089844 12.949219 8.246094 13.449219 7.4375 C 13.890625 8.328125 14.519531 9.109375 15.199219 9.863281 C 14.472656 10.613281 13.90625 11.410156 13.453125 12.253906 C 12.949219 11.390625 12.417969 10.609375 11.628906 9.863281 Z M 11.628906 9.863281 "/>
<path style=" stroke:none;fill-rule:nonzero;fill:rgb(83.137255%,0%,0%);fill-opacity:1;" d="M 11.628906 15.207031 C 12.425781 14.433594 12.949219 13.589844 13.449219 12.777344 C 13.890625 13.671875 14.519531 14.453125 15.199219 15.207031 C 14.472656 15.953125 13.90625 16.753906 13.453125 17.597656 C 12.949219 16.734375 12.417969 15.953125 11.628906 15.207031 Z M 11.628906 15.207031 "/>
<path style=" stroke:none;fill-rule:nonzero;fill:rgb(83.137255%,0%,0%);fill-opacity:1;" d="M 11.628906 20.40625 C 12.425781 19.632812 12.949219 18.789062 13.449219 17.980469 C 13.890625 18.871094 14.519531 19.652344 15.199219 20.40625 C 14.472656 21.15625 13.90625 21.953125 13.453125 22.796875 C 12.949219 21.933594 12.417969 21.152344 11.628906 20.40625 Z M 11.628906 20.40625 "/>
<path style=" stroke:none;fill-rule:nonzero;fill:rgb(83.137255%,0%,0%);fill-opacity:1;" d="M 15.867188 19.75 C 16.195312 19.433594 16.410156 19.089844 16.613281 18.757812 C 16.792969 19.121094 17.050781 19.441406 17.332031 19.75 C 17.03125 20.058594 16.800781 20.386719 16.613281 20.730469 C 16.410156 20.375 16.191406 20.054688 15.867188 19.75 Z M 15.867188 19.75 "/>
<path style=" stroke:none;fill-rule:nonzero;fill:rgb(83.137255%,0%,0%);fill-opacity:1;" d="M 0.695312 4.90625 C 1.023438 4.589844 1.234375 4.242188 1.441406 3.910156 C 1.621094 4.277344 1.878906 4.597656 2.160156 4.90625 C 1.859375 5.210938 1.628906 5.539062 1.441406 5.882812 C 1.234375 5.53125 1.019531 5.210938 0.695312 4.90625 Z M 0.695312 4.90625 "/>
<path style=" stroke:none;fill-rule:nonzero;fill:rgb(83.137255%,0%,0%);fill-opacity:1;" d="M 0.703125 3.183594 L 0.949219 3.109375 C 1.039062 3.347656 1.226562 3.417969 1.421875 3.402344 C 1.773438 3.375 1.890625 2.992188 1.917969 2.652344 C 1.78125 2.792969 1.574219 2.863281 1.398438 2.859375 C 0.835938 2.828125 0.691406 2.390625 0.6875 1.929688 C 0.671875 1.542969 0.835938 1.265625 1.117188 1.136719 C 1.265625 1.070312 1.609375 1.070312 1.757812 1.148438 C 2.101562 1.324219 2.230469 1.628906 2.207031 2.359375 C 2.207031 2.960938 2.074219 3.660156 1.414062 3.675781 C 1.035156 3.726562 0.746094 3.4375 0.703125 3.183594 Z M 1.660156 2.523438 C 1.773438 2.453125 1.839844 2.386719 1.890625 2.289062 C 1.933594 2.207031 1.945312 2.164062 1.933594 1.996094 C 1.902344 1.558594 1.671875 1.3125 1.332031 1.359375 C 1.140625 1.386719 1.039062 1.492188 0.976562 1.683594 C 0.867188 2.039062 1.007812 2.457031 1.269531 2.550781 C 1.386719 2.59375 1.566406 2.582031 1.660156 2.523438 Z M 1.660156 2.523438 "/>
<path style=" stroke:none;fill-rule:nonzero;fill:rgb(83.137255%,0%,0%);fill-opacity:1;" d="M 17.261719 21.800781 L 17.019531 21.878906 C 16.925781 21.636719 16.742188 21.566406 16.542969 21.582031 C 16.191406 21.609375 16.074219 21.992188 16.050781 22.332031 C 16.1875 22.191406 16.394531 22.121094 16.570312 22.125 C 17.128906 22.15625 17.273438 22.59375 17.277344 23.054688 C 17.292969 23.441406 17.128906 23.71875 16.847656 23.847656 C 16.699219 23.914062 16.359375 23.914062 16.210938 23.835938 C 15.863281 23.660156 15.738281 23.355469 15.761719 22.625 C 15.761719 22.023438 15.890625 21.324219 16.550781 21.308594 C 16.933594 21.257812 17.222656 21.546875 17.261719 21.800781 Z M 16.304688 22.460938 C 16.191406 22.53125 16.128906 22.597656 16.074219 22.695312 C 16.035156 22.777344 16.019531 22.820312 16.03125 22.988281 C 16.0625 23.425781 16.296875 23.671875 16.636719 23.625 C 16.824219 23.597656 16.929688 23.492188 16.988281 23.300781 C 17.097656 22.945312 16.957031 22.527344 16.699219 22.433594 C 16.582031 22.390625 16.398438 22.402344 16.304688 22.460938 Z M 16.304688 22.460938 "/>
</g>
</svg>
