<?xml version="1.0" encoding="UTF-8"?>
<svg xmlns="http://www.w3.org/2000/svg" xmlns:xlink="http://www.w3.org/1999/xlink" width="18pt" height="25pt" viewBox="0 0 18 25" version="1.1">
<g id="surface1">
<path style="fill-rule:nonzero;fill:rgb(100%,100%,100%);fill-opacity:1;stroke-width:0.996733;stroke-linecap:butt;stroke-linejoin:miter;stroke:rgb(0%,0%,0%);stroke-opacity:1;stroke-miterlimit:4;" d="M 6491.791294 -2435.009307 L 6693.770461 -2435.009307 C 6699.603794 -2435.009307 6704.367683 -2430.216495 6704.367683 -2424.347745 L 6704.367683 -2133.795714 C 6704.367683 -2127.926964 6699.603794 -2123.183057 6693.770461 -2123.183057 L 6491.791294 -2123.183057 C 6485.90935 -2123.183057 6481.145461 -2127.926964 6481.145461 -2133.795714 L 6481.145461 -2424.347745 C 6481.145461 -2430.216495 6485.90935 -2435.009307 6491.791294 -2435.009307 Z M 6491.791294 -2435.009307 " transform="matrix(0.0803571,0,0,0.0798722,-520.767269,194.528624)"/>
<path style=" stroke:none;fill-rule:nonzero;fill:rgb(83.137255%,0%,0%);fill-opacity:1;" d="M 0.703125 3.183594 L 0.949219 3.109375 C 1.039062 3.347656 1.226562 3.417969 1.421875 3.402344 C 1.773438 3.375 1.890625 2.992188 1.917969 2.652344 C 1.78125 2.792969 1.574219 2.863281 1.398438 2.859375 C 0.835938 2.828125 0.691406 2.390625 0.6875 1.929688 C 0.671875 1.542969 0.835938 1.265625 1.117188 1.136719 C 1.265625 1.070312 1.609375 1.070312 1.757812 1.148438 C 2.101562 1.324219 2.230469 1.628906 2.207031 2.359375 C 2.207031 2.960938 2.074219 3.660156 1.414062 3.675781 C 1.035156 3.726562 0.746094 3.4375 0.703125 3.183594 Z M 1.660156 2.523438 C 1.773438 2.453125 1.839844 2.386719 1.890625 2.289062 C 1.933594 2.207031 1.945312 2.164062 1.933594 1.996094 C 1.902344 1.558594 1.671875 1.3125 1.332031 1.359375 C 1.140625 1.386719 1.039062 1.492188 0.976562 1.683594 C 0.867188 2.039062 1.007812 2.457031 1.269531 2.550781 C 1.386719 2.59375 1.566406 2.582031 1.660156 2.523438 Z M 1.660156 2.523438 "/>
<path style=" stroke:none;fill-rule:nonzero;fill:rgb(83.137255%,0%,0%);fill-opacity:1;" d="M 17.261719 21.800781 L 17.019531 21.878906 C 16.925781 21.636719 16.742188 21.566406 16.542969 21.582031 C 16.191406 21.609375 16.074219 21.992188 16.050781 22.332031 C 16.1875 22.191406 16.394531 22.121094 16.570312 22.125 C 17.128906 22.15625 17.273438 22.59375 17.277344 23.054688 C 17.292969 23.441406 17.128906 23.71875 16.847656 23.847656 C 16.699219 23.914062 16.359375 23.914062 16.210938 23.835938 C 15.863281 23.660156 15.738281 23.355469 15.761719 22.625 C 15.761719 22.023438 15.890625 21.324219 16.550781 21.308594 C 16.933594 21.257812 17.222656 21.546875 17.261719 21.800781 Z M 16.304688 22.460938 C 16.191406 22.53125 16.128906 22.597656 16.074219 22.695312 C 16.035156 22.777344 16.019531 22.820312 16.03125 22.988281 C 16.0625 23.425781 16.296875 23.671875 16.636719 23.625 C 16.824219 23.597656 16.929688 23.492188 16.988281 23.300781 C 17.097656 22.945312 16.957031 22.527344 16.699219 22.433594 C 16.582031 22.390625 16.398438 22.402344 16.304688 22.460938 Z M 16.304688 22.460938 "/>
<path style=" stroke:none;fill-rule:nonzero;fill:rgb(83.137255%,0%,0%);fill-opacity:1;" d="M 0.730469 4.699219 C 0.601562 4.421875 0.589844 3.945312 0.96875 3.882812 C 1.253906 3.847656 1.371094 3.980469 1.394531 4.183594 C 1.40625 4.242188 1.441406 4.246094 1.449219 4.175781 C 1.464844 3.96875 1.675781 3.847656 1.835938 3.878906 C 2.28125 3.953125 2.253906 4.4375 2.109375 4.769531 C 1.890625 5.207031 1.660156 5.484375 1.445312 5.921875 C 1.203125 5.464844 0.925781 5.09375 0.730469 4.699219 Z M 0.730469 4.699219 "/>
<path style=" stroke:none;fill-rule:nonzero;fill:rgb(83.137255%,0%,0%);fill-opacity:1;" d="M 3.644531 2.332031 C 4.21875 2.292969 4.515625 2.78125 4.574219 3.164062 C 4.609375 3.226562 4.628906 3.207031 4.644531 3.160156 C 4.671875 2.667969 5.117188 2.265625 5.527344 2.320312 C 6.195312 2.328125 6.601562 3.066406 6.488281 3.695312 C 6.347656 4.460938 5.933594 4.921875 5.621094 5.394531 C 5.265625 5.886719 4.785156 6.597656 4.632812 6.9375 C 4.632812 6.9375 4.144531 6.203125 3.515625 5.339844 C 3.089844 4.761719 2.753906 4.132812 2.722656 3.59375 C 2.683594 2.976562 2.941406 2.425781 3.644531 2.332031 Z M 3.644531 2.332031 "/>
<path style=" stroke:none;fill-rule:nonzero;fill:rgb(83.137255%,0%,0%);fill-opacity:1;" d="M 12.445312 2.332031 C 13.019531 2.292969 13.320312 2.78125 13.378906 3.164062 C 13.414062 3.226562 13.429688 3.207031 13.445312 3.160156 C 13.472656 2.667969 13.917969 2.265625 14.328125 2.320312 C 14.996094 2.328125 15.402344 3.066406 15.289062 3.695312 C 15.148438 4.460938 14.734375 4.921875 14.421875 5.394531 C 14.066406 5.886719 13.585938 6.597656 13.433594 6.9375 C 13.433594 6.9375 12.949219 6.203125 12.316406 5.339844 C 11.894531 4.761719 11.554688 4.132812 11.523438 3.59375 C 11.488281 2.976562 11.742188 2.425781 12.445312 2.332031 Z M 12.445312 2.332031 "/>
<path style=" stroke:none;fill-rule:nonzero;fill:rgb(83.137255%,0%,0%);fill-opacity:1;" d="M 12.445312 7.546875 C 13.019531 7.511719 13.320312 7.996094 13.378906 8.382812 C 13.414062 8.441406 13.429688 8.425781 13.445312 8.378906 C 13.472656 7.886719 13.917969 7.480469 14.328125 7.539062 C 14.996094 7.546875 15.402344 8.285156 15.289062 8.914062 C 15.148438 9.679688 14.734375 10.140625 14.421875 10.613281 C 14.066406 11.105469 13.585938 11.816406 13.433594 12.15625 C 13.433594 12.15625 12.949219 11.421875 12.316406 10.554688 C 11.894531 9.976562 11.554688 9.351562 11.523438 8.8125 C 11.488281 8.195312 11.742188 7.644531 12.445312 7.546875 Z M 12.445312 7.546875 "/>
<path style=" stroke:none;fill-rule:nonzero;fill:rgb(83.137255%,0%,0%);fill-opacity:1;" d="M 8.039062 10.195312 C 8.613281 10.160156 8.914062 10.644531 8.972656 11.03125 C 9.007812 11.089844 9.027344 11.074219 9.039062 11.027344 C 9.066406 10.535156 9.511719 10.128906 9.921875 10.183594 C 10.59375 10.195312 11 10.933594 10.882812 11.5625 C 10.746094 12.324219 10.332031 12.785156 10.015625 13.261719 C 9.660156 13.753906 9.183594 14.460938 9.027344 14.804688 C 9.027344 14.804688 8.542969 14.070312 7.910156 13.203125 C 7.488281 12.625 7.148438 12 7.117188 11.460938 C 7.082031 10.84375 7.335938 10.292969 8.039062 10.195312 Z M 8.039062 10.195312 "/>
<path style=" stroke:none;fill-rule:nonzero;fill:rgb(83.137255%,0%,0%);fill-opacity:1;" d="M 3.644531 7.546875 C 4.21875 7.511719 4.515625 7.996094 4.574219 8.382812 C 4.609375 8.441406 4.628906 8.425781 4.644531 8.378906 C 4.671875 7.886719 5.117188 7.480469 5.527344 7.539062 C 6.195312 7.546875 6.601562 8.285156 6.488281 8.914062 C 6.347656 9.679688 5.933594 10.140625 5.621094 10.613281 C 5.265625 11.105469 4.785156 11.816406 4.632812 12.15625 C 4.632812 12.15625 4.144531 11.421875 3.515625 10.554688 C 3.089844 9.976562 2.753906 9.351562 2.722656 8.8125 C 2.683594 8.195312 2.941406 7.644531 3.644531 7.546875 Z M 3.644531 7.546875 "/>
<path style=" stroke:none;fill-rule:nonzero;fill:rgb(83.137255%,0%,0%);fill-opacity:1;" d="M 12.445312 17.484375 C 13.019531 17.523438 13.320312 17.035156 13.378906 16.648438 C 13.414062 16.589844 13.429688 16.605469 13.445312 16.652344 C 13.472656 17.148438 13.917969 17.550781 14.328125 17.496094 C 14.996094 17.484375 15.402344 16.746094 15.289062 16.121094 C 15.148438 15.355469 14.734375 14.894531 14.421875 14.417969 C 14.066406 13.925781 13.585938 13.21875 13.433594 12.875 C 13.433594 12.875 12.949219 13.609375 12.316406 14.476562 C 11.894531 15.054688 11.554688 15.679688 11.523438 16.21875 C 11.488281 16.835938 11.742188 17.386719 12.445312 17.484375 Z M 12.445312 17.484375 "/>
<path style=" stroke:none;fill-rule:nonzero;fill:rgb(83.137255%,0%,0%);fill-opacity:1;" d="M 12.445312 22.683594 C 13.019531 22.722656 13.320312 22.234375 13.378906 21.851562 C 13.414062 21.789062 13.429688 21.804688 13.445312 21.851562 C 13.472656 22.347656 13.917969 22.75 14.328125 22.695312 C 14.996094 22.6875 15.402344 21.945312 15.289062 21.320312 C 15.148438 20.554688 14.734375 20.09375 14.421875 19.617188 C 14.066406 19.128906 13.585938 18.417969 13.433594 18.074219 C 13.433594 18.074219 12.949219 18.8125 12.316406 19.675781 C 11.894531 20.253906 11.554688 20.878906 11.523438 21.417969 C 11.488281 22.035156 11.742188 22.589844 12.445312 22.683594 Z M 12.445312 22.683594 "/>
<path style=" stroke:none;fill-rule:nonzero;fill:rgb(83.137255%,0%,0%);fill-opacity:1;" d="M 3.644531 22.683594 C 4.21875 22.722656 4.515625 22.234375 4.574219 21.851562 C 4.609375 21.789062 4.628906 21.804688 4.644531 21.851562 C 4.671875 22.347656 5.117188 22.75 5.527344 22.695312 C 6.195312 22.6875 6.601562 21.945312 6.488281 21.320312 C 6.347656 20.554688 5.933594 20.09375 5.621094 19.617188 C 5.265625 19.128906 4.785156 18.417969 4.632812 18.074219 C 4.632812 18.074219 4.144531 18.8125 3.515625 19.675781 C 3.089844 20.253906 2.753906 20.878906 2.722656 21.417969 C 2.683594 22.035156 2.941406 22.589844 3.644531 22.683594 Z M 3.644531 22.683594 "/>
<path style=" stroke:none;fill-rule:nonzero;fill:rgb(83.137255%,0%,0%);fill-opacity:1;" d="M 3.644531 17.484375 C 4.21875 17.523438 4.515625 17.035156 4.574219 16.648438 C 4.609375 16.589844 4.628906 16.605469 4.644531 16.652344 C 4.671875 17.148438 5.117188 17.550781 5.527344 17.496094 C 6.195312 17.484375 6.601562 16.746094 6.488281 16.121094 C 6.347656 15.355469 5.933594 14.894531 5.621094 14.417969 C 5.265625 13.925781 4.785156 13.21875 4.632812 12.875 C 4.632812 12.875 4.144531 13.609375 3.515625 14.476562 C 3.089844 15.054688 2.753906 15.679688 2.722656 16.21875 C 2.683594 16.835938 2.941406 17.386719 3.644531 17.484375 Z M 3.644531 17.484375 "/>
<path style=" stroke:none;fill-rule:nonzero;fill:rgb(83.137255%,0%,0%);fill-opacity:1;" d="M 15.902344 19.941406 C 15.773438 20.21875 15.761719 20.695312 16.140625 20.757812 C 16.425781 20.792969 16.542969 20.664062 16.566406 20.460938 C 16.578125 20.398438 16.613281 20.394531 16.621094 20.464844 C 16.640625 20.671875 16.847656 20.792969 17.007812 20.761719 C 17.453125 20.6875 17.425781 20.203125 17.28125 19.871094 C 17.0625 19.433594 16.832031 19.160156 16.621094 18.71875 C 16.375 19.175781 16.097656 19.550781 15.902344 19.941406 Z M 15.902344 19.941406 "/>
</g>
</svg>
