<?xml version="1.0" encoding="UTF-8"?>
<svg xmlns="http://www.w3.org/2000/svg" xmlns:xlink="http://www.w3.org/1999/xlink" width="18pt" height="25pt" viewBox="0 0 18 25" version="1.1">
<g id="surface1">
<path style="fill-rule:nonzero;fill:rgb(100%,100%,100%);fill-opacity:1;stroke-width:0.996733;stroke-linecap:butt;stroke-linejoin:miter;stroke:rgb(0%,0%,0%);stroke-opacity:1;stroke-miterlimit:4;" d="M 6491.791294 -2435.009307 L 6693.770461 -2435.009307 C 6699.603794 -2435.009307 6704.367683 -2430.216495 6704.367683 -2424.347745 L 6704.367683 -2133.795714 C 6704.367683 -2127.926964 6699.603794 -2123.183057 6693.770461 -2123.183057 L 6491.791294 -2123.183057 C 6485.90935 -2123.183057 6481.145461 -2127.926964 6481.145461 -2133.795714 L 6481.145461 -2424.347745 C 6481.145461 -2430.216495 6485.90935 -2435.009307 6491.791294 -2435.009307 Z M 6491.791294 -2435.009307 " transform="matrix(0.0803571,0,0,0.0798722,-520.767269,194.528624)"/>
<path style=" stroke:none;fill-rule:nonzero;fill:rgb(0%,0%,0%);fill-opacity:1;" d="M 0.703125 3.183594 L 0.949219 3.109375 C 1.039062 3.347656 1.226562 3.417969 1.421875 3.402344 C 1.773438 3.375 1.890625 2.992188 1.917969 2.652344 C 1.78125 2.792969 1.574219 2.863281 1.398438 2.859375 C 0.835938 2.828125 0.691406 2.390625 0.6875 1.929688 C 0.671875 1.542969 0.835938 1.265625 1.117188 1.136719 C 1.265625 1.070312 1.609375 1.070312 1.757812 1.148438 C 2.101562 1.324219 2.230469 1.628906 2.207031 2.359375 C 2.207031 2.960938 2.074219 3.660156 1.414062 3.675781 C 1.035156 3.726562 0.746094 3.4375 0.703125 3.183594 Z M 1.660156 2.523438 C 1.773438 2.453125 1.839844 2.386719 1.890625 2.289062 C 1.933594 2.207031 1.945312 2.164062 1.933594 1.996094 C 1.902344 1.558594 1.671875 1.3125 1.332031 1.359375 C 1.140625 1.386719 1.039062 1.492188 0.976562 1.683594 C 0.867188 2.039062 1.007812 2.457031 1.269531 2.550781 C 1.386719 2.59375 1.566406 2.582031 1.660156 2.523438 Z M 1.660156 2.523438 "/>
<path style=" stroke:none;fill-rule:nonzero;fill:rgb(0%,0%,0%);fill-opacity:1;" d="M 17.261719 21.800781 L 17.019531 21.878906 C 16.925781 21.636719 16.742188 21.566406 16.542969 21.582031 C 16.191406 21.609375 16.074219 21.992188 16.050781 22.332031 C 16.1875 22.191406 16.394531 22.121094 16.570312 22.125 C 17.128906 22.15625 17.273438 22.59375 17.277344 23.054688 C 17.292969 23.441406 17.128906 23.71875 16.847656 23.847656 C 16.699219 23.914062 16.359375 23.914062 16.210938 23.835938 C 15.863281 23.660156 15.738281 23.355469 15.761719 22.625 C 15.761719 22.023438 15.890625 21.324219 16.550781 21.308594 C 16.933594 21.257812 17.222656 21.546875 17.261719 21.800781 Z M 16.304688 22.460938 C 16.191406 22.53125 16.128906 22.597656 16.074219 22.695312 C 16.035156 22.777344 16.019531 22.820312 16.03125 22.988281 C 16.0625 23.425781 16.296875 23.671875 16.636719 23.625 C 16.824219 23.597656 16.929688 23.492188 16.988281 23.300781 C 17.097656 22.945312 16.957031 22.527344 16.699219 22.433594 C 16.582031 22.390625 16.398438 22.402344 16.304688 22.460938 Z M 16.304688 22.460938 "/>
<path style=" stroke:none;fill-rule:nonzero;fill:rgb(0%,0%,0%);fill-opacity:1;" d="M 4.28125 5.539062 C 4.28125 5.378906 4.152344 5.375 4.152344 5.492188 C 4.144531 6.085938 3.636719 6.378906 3.269531 6.308594 C 2.707031 6.203125 2.527344 5.644531 2.53125 5.316406 C 2.546875 4.304688 3.574219 3.554688 4.5 2.253906 C 5.179688 3.429688 6.300781 4.351562 6.367188 5.257812 C 6.457031 6.464844 4.921875 6.914062 4.699219 5.507812 C 4.6875 5.40625 4.570312 5.363281 4.578125 5.503906 C 4.613281 5.886719 4.5625 6.046875 5 6.996094 L 3.859375 6.996094 C 4.113281 6.554688 4.261719 6.007812 4.28125 5.539062 Z M 4.28125 5.539062 "/>
<path style=" stroke:none;fill-rule:nonzero;fill:rgb(0%,0%,0%);fill-opacity:1;" d="M 13.242188 5.539062 C 13.242188 5.378906 13.113281 5.375 13.117188 5.492188 C 13.105469 6.085938 12.601562 6.378906 12.234375 6.308594 C 11.667969 6.203125 11.488281 5.644531 11.492188 5.316406 C 11.511719 4.304688 12.535156 3.554688 13.464844 2.253906 C 14.144531 3.429688 15.261719 4.351562 15.328125 5.257812 C 15.417969 6.464844 13.882812 6.914062 13.664062 5.507812 C 13.648438 5.40625 13.53125 5.363281 13.539062 5.503906 C 13.574219 5.886719 13.527344 6.046875 13.964844 6.996094 L 12.820312 6.996094 C 13.074219 6.554688 13.226562 6.007812 13.242188 5.539062 Z M 13.242188 5.539062 "/>
<path style=" stroke:none;fill-rule:nonzero;fill:rgb(0%,0%,0%);fill-opacity:1;" d="M 13.242188 10.757812 C 13.242188 10.597656 13.113281 10.59375 13.117188 10.710938 C 13.105469 11.304688 12.601562 11.597656 12.234375 11.527344 C 11.667969 11.421875 11.488281 10.863281 11.492188 10.535156 C 11.511719 9.519531 12.535156 8.773438 13.464844 7.472656 C 14.144531 8.648438 15.261719 9.566406 15.328125 10.476562 C 15.417969 11.679688 13.882812 12.132812 13.664062 10.726562 C 13.648438 10.625 13.53125 10.582031 13.539062 10.71875 C 13.574219 11.105469 13.527344 11.265625 13.964844 12.214844 L 12.820312 12.214844 C 13.074219 11.773438 13.226562 11.226562 13.242188 10.757812 Z M 13.242188 10.757812 "/>
<path style=" stroke:none;fill-rule:nonzero;fill:rgb(0%,0%,0%);fill-opacity:1;" d="M 4.28125 10.757812 C 4.28125 10.597656 4.152344 10.59375 4.152344 10.710938 C 4.144531 11.304688 3.636719 11.597656 3.269531 11.527344 C 2.707031 11.421875 2.527344 10.863281 2.53125 10.535156 C 2.546875 9.519531 3.574219 8.773438 4.5 7.472656 C 5.179688 8.648438 6.300781 9.566406 6.367188 10.476562 C 6.457031 11.679688 4.921875 12.132812 4.699219 10.726562 C 4.6875 10.625 4.570312 10.582031 4.578125 10.71875 C 4.613281 11.105469 4.5625 11.265625 5 12.214844 L 3.859375 12.214844 C 4.113281 11.773438 4.261719 11.226562 4.28125 10.757812 Z M 4.28125 10.757812 "/>
<path style=" stroke:none;fill-rule:nonzero;fill:rgb(0%,0%,0%);fill-opacity:1;" d="M 13.242188 19.476562 C 13.246094 19.636719 13.117188 19.640625 13.117188 19.523438 C 13.105469 18.929688 12.601562 18.636719 12.234375 18.707031 C 11.667969 18.8125 11.488281 19.371094 11.496094 19.699219 C 11.511719 20.714844 12.539062 21.460938 13.464844 22.761719 C 14.144531 21.585938 15.265625 20.664062 15.332031 19.757812 C 15.417969 18.554688 13.882812 18.101562 13.664062 19.507812 C 13.648438 19.609375 13.53125 19.652344 13.542969 19.515625 C 13.574219 19.128906 13.527344 18.96875 13.964844 18.019531 L 12.820312 18.019531 C 13.074219 18.460938 13.226562 19.007812 13.242188 19.476562 Z M 13.242188 19.476562 "/>
<path style=" stroke:none;fill-rule:nonzero;fill:rgb(0%,0%,0%);fill-opacity:1;" d="M 13.242188 14.273438 C 13.246094 14.4375 13.117188 14.441406 13.117188 14.320312 C 13.105469 13.726562 12.601562 13.4375 12.234375 13.503906 C 11.667969 13.613281 11.488281 14.171875 11.496094 14.5 C 11.511719 15.511719 12.539062 16.261719 13.464844 17.5625 C 14.144531 16.386719 15.265625 15.464844 15.332031 14.558594 C 15.417969 13.351562 13.882812 12.902344 13.664062 14.308594 C 13.648438 14.40625 13.53125 14.453125 13.542969 14.3125 C 13.574219 13.929688 13.527344 13.769531 13.964844 12.820312 L 12.820312 12.820312 C 13.074219 13.261719 13.226562 13.808594 13.242188 14.273438 Z M 13.242188 14.273438 "/>
<path style=" stroke:none;fill-rule:nonzero;fill:rgb(0%,0%,0%);fill-opacity:1;" d="M 8.816406 11.578125 C 8.816406 11.742188 8.6875 11.742188 8.691406 11.625 C 8.679688 11.03125 8.175781 10.738281 7.808594 10.808594 C 7.242188 10.914062 7.0625 11.472656 7.066406 11.800781 C 7.085938 12.816406 8.109375 13.5625 9.039062 14.863281 C 9.71875 13.691406 10.835938 12.769531 10.902344 11.863281 C 10.992188 10.65625 9.457031 10.207031 9.238281 11.613281 C 9.222656 11.710938 9.105469 11.753906 9.113281 11.617188 C 9.148438 11.230469 9.101562 11.070312 9.539062 10.121094 L 8.394531 10.121094 C 8.648438 10.566406 8.800781 11.109375 8.816406 11.578125 Z M 8.816406 11.578125 "/>
<path style=" stroke:none;fill-rule:nonzero;fill:rgb(0%,0%,0%);fill-opacity:1;" d="M 4.28125 14.273438 C 4.28125 14.4375 4.152344 14.441406 4.15625 14.320312 C 4.144531 13.726562 3.640625 13.4375 3.273438 13.503906 C 2.707031 13.613281 2.527344 14.171875 2.53125 14.5 C 2.546875 15.511719 3.574219 16.261719 4.503906 17.5625 C 5.179688 16.386719 6.300781 15.464844 6.367188 14.558594 C 6.457031 13.351562 4.921875 12.902344 4.703125 14.308594 C 4.6875 14.40625 4.570312 14.453125 4.578125 14.3125 C 4.613281 13.929688 4.566406 13.769531 5.003906 12.820312 L 3.859375 12.820312 C 4.113281 13.261719 4.261719 13.808594 4.28125 14.273438 Z M 4.28125 14.273438 "/>
<path style=" stroke:none;fill-rule:nonzero;fill:rgb(0%,0%,0%);fill-opacity:1;" d="M 4.28125 19.476562 C 4.28125 19.636719 4.152344 19.640625 4.15625 19.523438 C 4.144531 18.929688 3.640625 18.636719 3.273438 18.707031 C 2.707031 18.8125 2.527344 19.371094 2.53125 19.699219 C 2.546875 20.714844 3.574219 21.460938 4.503906 22.761719 C 5.179688 21.585938 6.300781 20.664062 6.367188 19.757812 C 6.457031 18.554688 4.921875 18.101562 4.703125 19.507812 C 4.6875 19.609375 4.570312 19.652344 4.578125 19.515625 C 4.613281 19.128906 4.566406 18.96875 5.003906 18.019531 L 3.859375 18.019531 C 4.113281 18.460938 4.261719 19.007812 4.28125 19.476562 Z M 4.28125 19.476562 "/>
<path style=" stroke:none;fill-rule:nonzero;fill:rgb(0%,0%,0%);fill-opacity:1;" d="M 1.390625 5.421875 C 1.394531 5.351562 1.320312 5.382812 1.3125 5.40625 C 1.21875 5.566406 1.082031 5.601562 0.945312 5.542969 C 0.8125 5.488281 0.734375 5.363281 0.746094 5.183594 C 0.773438 4.910156 0.992188 4.609375 1.097656 4.4375 C 1.199219 4.285156 1.308594 4.101562 1.425781 3.867188 C 1.5625 4.136719 1.632812 4.210938 1.78125 4.457031 C 1.910156 4.671875 2.09375 4.886719 2.105469 5.144531 C 2.105469 5.34375 2.023438 5.53125 1.832031 5.566406 C 1.726562 5.585938 1.625 5.53125 1.550781 5.402344 C 1.527344 5.371094 1.484375 5.386719 1.484375 5.433594 C 1.496094 5.601562 1.5625 5.75 1.710938 5.929688 L 1.15625 5.929688 C 1.269531 5.804688 1.386719 5.632812 1.390625 5.421875 Z M 1.390625 5.421875 "/>
<path style=" stroke:none;fill-rule:nonzero;fill:rgb(0%,0%,0%);fill-opacity:1;" d="M 16.566406 19.21875 C 16.566406 19.289062 16.492188 19.257812 16.484375 19.234375 C 16.390625 19.074219 16.253906 19.039062 16.117188 19.097656 C 15.984375 19.152344 15.910156 19.277344 15.921875 19.457031 C 15.945312 19.730469 16.164062 20.03125 16.269531 20.203125 C 16.371094 20.355469 16.480469 20.539062 16.597656 20.773438 C 16.734375 20.503906 16.804688 20.429688 16.953125 20.183594 C 17.082031 19.96875 17.265625 19.753906 17.277344 19.496094 C 17.277344 19.296875 17.195312 19.109375 17.003906 19.074219 C 16.898438 19.054688 16.796875 19.109375 16.722656 19.238281 C 16.703125 19.269531 16.65625 19.253906 16.65625 19.207031 C 16.671875 19.042969 16.734375 18.890625 16.882812 18.710938 L 16.332031 18.710938 C 16.445312 18.839844 16.558594 19.007812 16.566406 19.21875 Z M 16.566406 19.21875 "/>
</g>
</svg>
