<?xml version="1.0" encoding="UTF-8"?>
<svg xmlns="http://www.w3.org/2000/svg" xmlns:xlink="http://www.w3.org/1999/xlink" width="18pt" height="25pt" viewBox="0 0 18 25" version="1.1">
<g id="surface1">
<path style="fill-rule:nonzero;fill:rgb(100%,100%,100%);fill-opacity:1;stroke-width:0.996733;stroke-linecap:butt;stroke-linejoin:miter;stroke:rgb(0%,0%,0%);stroke-opacity:1;stroke-miterlimit:4;" d="M 6045.33426 -2746.820337 L 6247.313427 -2746.820337 C 6253.14676 -2746.820337 6257.910649 -2742.027524 6257.910649 -2736.158774 L 6257.910649 -2445.606743 C 6257.910649 -2439.737993 6253.14676 -2434.994087 6247.313427 -2434.994087 L 6045.33426 -2434.994087 C 6039.452316 -2434.994087 6034.688427 -2439.737993 6034.688427 -2445.606743 L 6034.688427 -2736.158774 C 6034.688427 -2742.027524 6039.452316 -2746.820337 6045.33426 -2746.820337 Z M 6045.33426 -2746.820337 " transform="matrix(0.0803571,0,0,0.0798722,-484.891258,219.433658)"/>
<path style=" stroke:none;fill-rule:nonzero;fill:rgb(0%,0%,0%);fill-opacity:1;" d="M 0.621094 3.71875 L 0.621094 3.5 L 0.835938 3.5 L 1.289062 1.164062 L 1.550781 1.164062 L 2.050781 3.5 L 2.222656 3.5 L 2.222656 3.71875 L 1.636719 3.71875 L 1.636719 3.5 L 1.792969 3.5 L 1.730469 3.140625 L 1.136719 3.140625 L 1.09375 3.5 L 1.25 3.5 L 1.25 3.71875 Z M 1.679688 2.886719 L 1.421875 1.636719 L 1.179688 2.886719 Z M 1.679688 2.886719 "/>
<path style=" stroke:none;fill-rule:nonzero;fill:rgb(0%,0%,0%);fill-opacity:1;" d="M 17.398438 21.265625 L 17.398438 21.484375 L 17.183594 21.484375 L 16.726562 23.820312 L 16.46875 23.820312 L 15.96875 21.484375 L 15.792969 21.484375 L 15.792969 21.265625 L 16.382812 21.265625 L 16.382812 21.484375 L 16.222656 21.484375 L 16.285156 21.84375 L 16.878906 21.84375 L 16.925781 21.484375 L 16.765625 21.484375 L 16.765625 21.265625 Z M 16.335938 22.097656 L 16.59375 23.347656 L 16.835938 22.097656 Z M 16.335938 22.097656 "/>
<path style=" stroke:none;fill-rule:nonzero;fill:rgb(0%,0%,0%);fill-opacity:1;" d="M 8.417969 14.773438 C 8.648438 14.3125 8.816406 13.839844 8.847656 13.332031 C 8.875 13.148438 8.761719 13.144531 8.746094 13.277344 C 8.417969 14.519531 6.675781 14.183594 6.734375 13.011719 C 6.78125 12.0625 7.730469 11.859375 8.226562 12.167969 C 8.421875 12.28125 8.410156 12.214844 8.304688 12.09375 C 7.570312 11.28125 8.015625 10.230469 9.007812 10.210938 C 10.085938 10.273438 10.363281 11.398438 9.703125 12.058594 C 9.621094 12.140625 9.441406 12.394531 9.714844 12.214844 C 10.378906 11.746094 11.304688 12.25 11.285156 12.976562 C 11.25 14.3125 9.609375 14.414062 9.257812 13.296875 C 9.226562 13.171875 9.128906 13.109375 9.15625 13.320312 C 9.203125 13.699219 9.304688 14.273438 9.59375 14.773438 Z M 8.417969 14.773438 "/>
<path style=" stroke:none;fill-rule:nonzero;fill:rgb(0%,0%,0%);fill-opacity:1;" d="M 1.078125 6.042969 C 1.171875 5.847656 1.265625 5.667969 1.316406 5.453125 C 1.351562 5.25 1.28125 5.328125 1.242188 5.460938 C 1.183594 5.640625 1.023438 5.726562 0.875 5.726562 C 0.605469 5.730469 0.46875 5.519531 0.476562 5.292969 C 0.449219 5.054688 0.691406 4.882812 0.875 4.898438 C 1.015625 4.90625 1.136719 4.980469 1.207031 5.039062 C 1.257812 5.0625 1.308594 5.074219 1.234375 5.007812 C 1.101562 4.863281 0.988281 4.773438 0.992188 4.554688 C 0.992188 4.347656 1.171875 4.132812 1.40625 4.140625 C 1.699219 4.148438 1.832031 4.371094 1.832031 4.578125 C 1.832031 4.726562 1.753906 4.867188 1.636719 4.953125 C 1.5625 5.015625 1.582031 5.058594 1.667969 5.003906 C 1.753906 4.929688 1.851562 4.898438 1.953125 4.898438 C 2.234375 4.894531 2.34375 5.132812 2.328125 5.359375 C 2.3125 5.566406 2.132812 5.785156 1.898438 5.757812 C 1.6875 5.734375 1.574219 5.558594 1.511719 5.378906 C 1.488281 5.320312 1.457031 5.308594 1.457031 5.390625 C 1.507812 5.792969 1.65625 6.046875 1.660156 6.042969 Z M 1.078125 6.042969 "/>
<path style=" stroke:none;fill-rule:nonzero;fill:rgb(0%,0%,0%);fill-opacity:1;" d="M 16.863281 18.96875 C 16.769531 19.164062 16.675781 19.347656 16.625 19.5625 C 16.589844 19.761719 16.660156 19.6875 16.699219 19.554688 C 16.757812 19.371094 16.917969 19.289062 17.066406 19.289062 C 17.339844 19.285156 17.472656 19.496094 17.464844 19.722656 C 17.496094 19.960938 17.25 20.132812 17.066406 20.117188 C 16.929688 20.109375 16.808594 20.035156 16.734375 19.976562 C 16.6875 19.953125 16.636719 19.941406 16.707031 20.003906 C 16.839844 20.152344 16.953125 20.242188 16.953125 20.460938 C 16.949219 20.667969 16.773438 20.882812 16.539062 20.875 C 16.242188 20.867188 16.109375 20.644531 16.109375 20.4375 C 16.113281 20.289062 16.1875 20.148438 16.304688 20.0625 C 16.378906 20 16.359375 19.957031 16.273438 20.011719 C 16.191406 20.085938 16.089844 20.117188 15.988281 20.117188 C 15.707031 20.121094 15.597656 19.882812 15.613281 19.65625 C 15.628906 19.449219 15.808594 19.230469 16.046875 19.257812 C 16.257812 19.28125 16.367188 19.457031 16.429688 19.636719 C 16.453125 19.695312 16.484375 19.707031 16.484375 19.625 C 16.4375 19.222656 16.285156 18.96875 16.285156 18.96875 Z M 16.863281 18.96875 "/>
</g>
</svg>
