<?xml version="1.0" encoding="UTF-8"?>
<svg xmlns="http://www.w3.org/2000/svg" xmlns:xlink="http://www.w3.org/1999/xlink" width="18pt" height="25pt" viewBox="0 0 18 25" version="1.1">
<g id="surface1">
<path style="fill-rule:nonzero;fill:rgb(100%,100%,100%);fill-opacity:1;stroke-width:0.996733;stroke-linecap:butt;stroke-linejoin:miter;stroke:rgb(0%,0%,0%);stroke-opacity:1;stroke-miterlimit:4;" d="M 6045.334264 -2746.820338 L 6247.313431 -2746.820338 C 6253.146764 -2746.820338 6257.910653 -2742.027525 6257.910653 -2736.158775 L 6257.910653 -2445.606744 C 6257.910653 -2439.737994 6253.146764 -2434.994088 6247.313431 -2434.994088 L 6045.334264 -2434.994088 C 6039.45232 -2434.994088 6034.688431 -2439.737994 6034.688431 -2445.606744 L 6034.688431 -2736.158775 C 6034.688431 -2742.027525 6039.45232 -2746.820338 6045.334264 -2746.820338 Z M 6045.334264 -2746.820338 " transform="matrix(0.0803571,0,0,0.0798722,-484.891258,219.433658)"/>
<path style=" stroke:none;fill-rule:nonzero;fill:rgb(83.137255%,0%,0%);fill-opacity:1;" d="M 7.210938 12.503906 C 8.007812 11.730469 8.53125 10.886719 9.03125 10.074219 C 9.472656 10.96875 10.101562 11.75 10.785156 12.503906 C 10.054688 13.25 9.488281 14.050781 9.035156 14.890625 C 8.53125 14.03125 8 13.25 7.210938 12.503906 Z M 7.210938 12.503906 "/>
<path style=" stroke:none;fill-rule:nonzero;fill:rgb(83.137255%,0%,0%);fill-opacity:1;" d="M 15.808594 19.929688 C 16.136719 19.613281 16.347656 19.269531 16.554688 18.9375 C 16.734375 19.300781 16.992188 19.621094 17.273438 19.929688 C 16.972656 20.238281 16.742188 20.566406 16.554688 20.910156 C 16.347656 20.558594 16.132812 20.238281 15.808594 19.929688 Z M 15.808594 19.929688 "/>
<path style=" stroke:none;fill-rule:nonzero;fill:rgb(83.137255%,0%,0%);fill-opacity:1;" d="M 0.671875 5.101562 C 0.996094 4.78125 1.210938 4.4375 1.417969 4.105469 C 1.597656 4.472656 1.855469 4.789062 2.132812 5.101562 C 1.835938 5.40625 1.605469 5.734375 1.417969 6.078125 C 1.210938 5.726562 0.996094 5.40625 0.671875 5.101562 Z M 0.671875 5.101562 "/>
<path style=" stroke:none;fill-rule:nonzero;fill:rgb(83.137255%,0%,0%);fill-opacity:1;" d="M 0.621094 3.71875 L 0.621094 3.5 L 0.835938 3.5 L 1.289062 1.164062 L 1.550781 1.164062 L 2.050781 3.5 L 2.222656 3.5 L 2.222656 3.71875 L 1.636719 3.71875 L 1.636719 3.5 L 1.792969 3.5 L 1.730469 3.140625 L 1.136719 3.140625 L 1.09375 3.5 L 1.25 3.5 L 1.25 3.71875 Z M 1.679688 2.886719 L 1.421875 1.636719 L 1.179688 2.886719 Z M 1.679688 2.886719 "/>
<path style=" stroke:none;fill-rule:nonzero;fill:rgb(83.137255%,0%,0%);fill-opacity:1;" d="M 17.398438 21.265625 L 17.398438 21.484375 L 17.183594 21.484375 L 16.726562 23.820312 L 16.46875 23.820312 L 15.96875 21.484375 L 15.792969 21.484375 L 15.792969 21.265625 L 16.382812 21.265625 L 16.382812 21.484375 L 16.222656 21.484375 L 16.285156 21.84375 L 16.878906 21.84375 L 16.925781 21.484375 L 16.765625 21.484375 L 16.765625 21.265625 Z M 16.335938 22.097656 L 16.59375 23.347656 L 16.835938 22.097656 Z M 16.335938 22.097656 "/>
</g>
</svg>
