<?xml version="1.0" encoding="UTF-8"?>
<svg xmlns="http://www.w3.org/2000/svg" xmlns:xlink="http://www.w3.org/1999/xlink" width="18pt" height="25pt" viewBox="0 0 18 25" version="1.1">
<g id="surface1">
<path style="fill-rule:nonzero;fill:rgb(100%,100%,100%);fill-opacity:1;stroke-width:0.996733;stroke-linecap:butt;stroke-linejoin:miter;stroke:rgb(0%,0%,0%);stroke-opacity:1;stroke-miterlimit:4;" d="M 6045.334264 -2746.820337 L 6247.313431 -2746.820337 C 6253.146764 -2746.820337 6257.910653 -2742.027525 6257.910653 -2736.158775 L 6257.910653 -2445.606744 C 6257.910653 -2439.737994 6253.146764 -2434.994087 6247.313431 -2434.994087 L 6045.334264 -2434.994087 C 6039.45232 -2434.994087 6034.688431 -2439.737994 6034.688431 -2445.606744 L 6034.688431 -2736.158775 C 6034.688431 -2742.027525 6039.45232 -2746.820337 6045.334264 -2746.820337 Z M 6045.334264 -2746.820337 " transform="matrix(0.0803571,0,0,0.0798722,-484.891258,219.433658)"/>
<path style=" stroke:none;fill-rule:nonzero;fill:rgb(83.137255%,0%,0%);fill-opacity:1;" d="M 0.621094 3.71875 L 0.621094 3.5 L 0.835938 3.5 L 1.289062 1.164062 L 1.550781 1.164062 L 2.050781 3.5 L 2.222656 3.5 L 2.222656 3.71875 L 1.636719 3.71875 L 1.636719 3.5 L 1.792969 3.5 L 1.730469 3.140625 L 1.136719 3.140625 L 1.09375 3.5 L 1.25 3.5 L 1.25 3.71875 Z M 1.679688 2.886719 L 1.421875 1.636719 L 1.179688 2.886719 Z M 1.679688 2.886719 "/>
<path style=" stroke:none;fill-rule:nonzero;fill:rgb(83.137255%,0%,0%);fill-opacity:1;" d="M 17.398438 21.265625 L 17.398438 21.484375 L 17.183594 21.484375 L 16.726562 23.820312 L 16.46875 23.820312 L 15.96875 21.484375 L 15.792969 21.484375 L 15.792969 21.265625 L 16.382812 21.265625 L 16.382812 21.484375 L 16.222656 21.484375 L 16.285156 21.84375 L 16.878906 21.84375 L 16.925781 21.484375 L 16.765625 21.484375 L 16.765625 21.265625 Z M 16.335938 22.097656 L 16.59375 23.347656 L 16.835938 22.097656 Z M 16.335938 22.097656 "/>
<path style=" stroke:none;fill-rule:nonzero;fill:rgb(83.137255%,0%,0%);fill-opacity:1;" d="M 0.707031 4.890625 C 0.578125 4.613281 0.5625 4.140625 0.945312 4.078125 C 1.230469 4.039062 1.347656 4.171875 1.371094 4.375 C 1.382812 4.433594 1.414062 4.4375 1.425781 4.371094 C 1.441406 4.164062 1.648438 4.042969 1.8125 4.070312 C 2.257812 4.148438 2.230469 4.632812 2.085938 4.960938 C 1.867188 5.402344 1.636719 5.675781 1.421875 6.117188 C 1.179688 5.660156 0.898438 5.285156 0.707031 4.890625 Z M 0.707031 4.890625 "/>
<path style=" stroke:none;fill-rule:nonzero;fill:rgb(83.137255%,0%,0%);fill-opacity:1;" d="M 8.039062 10.195312 C 8.613281 10.160156 8.914062 10.644531 8.972656 11.03125 C 9.007812 11.089844 9.027344 11.074219 9.039062 11.027344 C 9.066406 10.535156 9.511719 10.128906 9.921875 10.183594 C 10.59375 10.195312 11 10.933594 10.882812 11.5625 C 10.746094 12.324219 10.332031 12.785156 10.015625 13.261719 C 9.660156 13.753906 9.183594 14.460938 9.027344 14.804688 C 9.027344 14.804688 8.542969 14.070312 7.910156 13.203125 C 7.488281 12.625 7.148438 12 7.117188 11.460938 C 7.082031 10.84375 7.335938 10.292969 8.039062 10.195312 Z M 8.039062 10.195312 "/>
<path style=" stroke:none;fill-rule:nonzero;fill:rgb(83.137255%,0%,0%);fill-opacity:1;" d="M 15.84375 20.121094 C 15.714844 20.398438 15.703125 20.875 16.082031 20.9375 C 16.367188 20.976562 16.484375 20.84375 16.507812 20.640625 C 16.519531 20.582031 16.554688 20.578125 16.5625 20.644531 C 16.578125 20.851562 16.789062 20.972656 16.949219 20.945312 C 17.394531 20.867188 17.367188 20.382812 17.222656 20.050781 C 17.003906 19.613281 16.773438 19.339844 16.558594 18.898438 C 16.316406 19.355469 16.039062 19.730469 15.84375 20.121094 Z M 15.84375 20.121094 "/>
</g>
</svg>
