<?xml version="1.0" encoding="UTF-8"?>
<svg xmlns="http://www.w3.org/2000/svg" xmlns:xlink="http://www.w3.org/1999/xlink" width="18pt" height="25pt" viewBox="0 0 18 25" version="1.1">
<g id="surface1">
<path style="fill-rule:nonzero;fill:rgb(100%,100%,100%);fill-opacity:1;stroke-width:0.996733;stroke-linecap:butt;stroke-linejoin:miter;stroke:rgb(0%,0%,0%);stroke-opacity:1;stroke-miterlimit:4;" d="M 6045.33426 -2746.820337 L 6247.313427 -2746.820337 C 6253.14676 -2746.820337 6257.910649 -2742.027524 6257.910649 -2736.158774 L 6257.910649 -2445.606743 C 6257.910649 -2439.737993 6253.14676 -2434.994087 6247.313427 -2434.994087 L 6045.33426 -2434.994087 C 6039.452316 -2434.994087 6034.688427 -2439.737993 6034.688427 -2445.606743 L 6034.688427 -2736.158774 C 6034.688427 -2742.027524 6039.452316 -2746.820337 6045.33426 -2746.820337 Z M 6045.33426 -2746.820337 " transform="matrix(0.0803571,0,0,0.0798722,-484.891258,219.433658)"/>
<path style=" stroke:none;fill-rule:nonzero;fill:rgb(0%,0%,0%);fill-opacity:1;" d="M 0.621094 3.71875 L 0.621094 3.5 L 0.835938 3.5 L 1.289062 1.164062 L 1.550781 1.164062 L 2.050781 3.5 L 2.222656 3.5 L 2.222656 3.71875 L 1.636719 3.71875 L 1.636719 3.5 L 1.792969 3.5 L 1.730469 3.140625 L 1.136719 3.140625 L 1.09375 3.5 L 1.25 3.5 L 1.25 3.71875 Z M 1.679688 2.886719 L 1.421875 1.636719 L 1.179688 2.886719 Z M 1.679688 2.886719 "/>
<path style=" stroke:none;fill-rule:nonzero;fill:rgb(0%,0%,0%);fill-opacity:1;" d="M 17.398438 21.265625 L 17.398438 21.484375 L 17.183594 21.484375 L 16.726562 23.820312 L 16.46875 23.820312 L 15.96875 21.484375 L 15.792969 21.484375 L 15.792969 21.265625 L 16.382812 21.265625 L 16.382812 21.484375 L 16.222656 21.484375 L 16.285156 21.84375 L 16.878906 21.84375 L 16.925781 21.484375 L 16.765625 21.484375 L 16.765625 21.265625 Z M 16.335938 22.097656 L 16.59375 23.347656 L 16.835938 22.097656 Z M 16.335938 22.097656 "/>
<path style=" stroke:none;fill-rule:nonzero;fill:rgb(0%,0%,0%);fill-opacity:1;" d="M 8.90625 13.398438 C 8.90625 13.238281 8.777344 13.234375 8.78125 13.351562 C 8.769531 13.945312 8.265625 14.238281 7.898438 14.167969 C 7.332031 14.0625 7.152344 13.503906 7.15625 13.175781 C 7.171875 12.160156 8.199219 11.414062 9.128906 10.113281 C 9.804688 11.285156 10.925781 12.207031 10.992188 13.113281 C 11.082031 14.320312 9.546875 14.769531 9.328125 13.363281 C 9.3125 13.265625 9.195312 13.222656 9.203125 13.359375 C 9.238281 13.746094 9.191406 13.90625 9.628906 14.855469 L 8.484375 14.855469 C 8.738281 14.410156 8.886719 13.867188 8.90625 13.398438 Z M 8.90625 13.398438 "/>
<path style=" stroke:none;fill-rule:nonzero;fill:rgb(0%,0%,0%);fill-opacity:1;" d="M 1.449219 5.617188 C 1.449219 5.546875 1.375 5.578125 1.367188 5.601562 C 1.273438 5.757812 1.136719 5.796875 1 5.738281 C 0.867188 5.683594 0.792969 5.558594 0.804688 5.378906 C 0.828125 5.101562 1.046875 4.800781 1.152344 4.632812 C 1.253906 4.480469 1.363281 4.296875 1.480469 4.0625 C 1.617188 4.328125 1.6875 4.40625 1.835938 4.652344 C 1.964844 4.867188 2.148438 5.078125 2.164062 5.339844 C 2.164062 5.539062 2.078125 5.726562 1.890625 5.761719 C 1.78125 5.78125 1.683594 5.726562 1.605469 5.597656 C 1.585938 5.566406 1.539062 5.582031 1.539062 5.625 C 1.554688 5.792969 1.617188 5.945312 1.765625 6.121094 L 1.214844 6.121094 C 1.328125 5.996094 1.441406 5.828125 1.449219 5.617188 Z M 1.449219 5.617188 "/>
<path style=" stroke:none;fill-rule:nonzero;fill:rgb(0%,0%,0%);fill-opacity:1;" d="M 16.585938 19.398438 C 16.585938 19.46875 16.515625 19.4375 16.503906 19.414062 C 16.410156 19.257812 16.273438 19.21875 16.136719 19.277344 C 16.003906 19.332031 15.929688 19.457031 15.941406 19.636719 C 15.964844 19.914062 16.183594 20.210938 16.292969 20.382812 C 16.390625 20.535156 16.503906 20.71875 16.617188 20.953125 C 16.753906 20.683594 16.824219 20.609375 16.972656 20.363281 C 17.105469 20.148438 17.285156 19.9375 17.300781 19.675781 C 17.300781 19.476562 17.214844 19.289062 17.027344 19.253906 C 16.917969 19.234375 16.820312 19.289062 16.746094 19.417969 C 16.722656 19.449219 16.675781 19.433594 16.675781 19.390625 C 16.691406 19.222656 16.753906 19.070312 16.90625 18.890625 L 16.351562 18.890625 C 16.464844 19.019531 16.582031 19.1875 16.585938 19.398438 Z M 16.585938 19.398438 "/>
</g>
</svg>
