<?xml version="1.0" encoding="utf-8"?>
<!-- Generator: Adobe Illustrator 15.0.2, SVG Export Plug-In . SVG Version: 6.00 Build 0)  -->
<!DOCTYPE svg PUBLIC "-//W3C//DTD SVG 1.1//EN" "http://www.w3.org/Graphics/SVG/1.1/DTD/svg11.dtd" [
	<!ENTITY ns_extend "http://ns.adobe.com/Extensibility/1.0/">
	<!ENTITY ns_ai "http://ns.adobe.com/AdobeIllustrator/10.0/">
	<!ENTITY ns_graphs "http://ns.adobe.com/Graphs/1.0/">
	<!ENTITY ns_vars "http://ns.adobe.com/Variables/1.0/">
	<!ENTITY ns_imrep "http://ns.adobe.com/ImageReplacement/1.0/">
	<!ENTITY ns_sfw "http://ns.adobe.com/SaveForWeb/1.0/">
	<!ENTITY ns_custom "http://ns.adobe.com/GenericCustomNamespace/1.0/">
	<!ENTITY ns_adobe_xpath "http://ns.adobe.com/XPath/1.0/">
]>
<svg version="1.1" id="Layer_1" xmlns:x="&ns_extend;" xmlns:i="&ns_ai;" xmlns:graph="&ns_graphs;"
	 xmlns="http://www.w3.org/2000/svg" xmlns:xlink="http://www.w3.org/1999/xlink" x="0px" y="0px" width="200px" height="200px"
	 viewBox="0 0 200 200" enable-background="new 0 0 200 200" xml:space="preserve">
<switch>
	<g i:extraneous="self">
		<rect fill="none" width="200" height="200"/>
		<g>
			<g>
				<path d="M100,199.065c-6.721,0-13.438-0.677-19.964-2.013c-6.361-1.302-12.618-3.244-18.597-5.772
					c-5.871-2.483-11.532-5.557-16.828-9.134c-5.246-3.544-10.179-7.614-14.661-12.097s-8.553-9.415-12.097-14.661
					c-3.577-5.296-6.65-10.957-9.134-16.827c-2.528-5.979-4.471-12.236-5.772-18.598C1.611,113.438,0.935,106.721,0.935,100
					s0.677-13.438,2.013-19.964c1.302-6.361,3.244-12.618,5.772-18.597c2.483-5.871,5.557-11.532,9.134-16.828
					c3.544-5.246,7.614-10.179,12.097-14.661s9.415-8.553,14.661-12.097c5.296-3.577,10.957-6.65,16.828-9.134
					c5.979-2.528,12.235-4.471,18.597-5.772C86.562,1.611,93.279,0.935,100,0.935s13.438,0.677,19.964,2.013
					c6.361,1.302,12.618,3.244,18.597,5.772c5.871,2.483,11.532,5.557,16.828,9.134c5.246,3.544,10.179,7.614,14.661,12.097
					s8.553,9.415,12.097,14.661c3.578,5.296,6.65,10.957,9.134,16.828c2.528,5.979,4.471,12.235,5.772,18.597
					c1.336,6.526,2.013,13.243,2.013,19.964s-0.677,13.438-2.013,19.964c-1.302,6.361-3.244,12.618-5.772,18.598
					c-2.483,5.87-5.556,11.531-9.134,16.827c-3.544,5.246-7.614,10.179-12.097,14.661s-9.415,8.553-14.661,12.097
					c-5.296,3.577-10.957,6.65-16.828,9.134c-5.979,2.528-12.235,4.471-18.597,5.772C113.438,198.389,106.721,199.065,100,199.065z"
					/>
				<path d="M100,1.869c54.196,0,98.131,43.935,98.131,98.131S154.196,198.131,100,198.131S1.869,154.196,1.869,100
					S45.804,1.869,100,1.869 M100,0c-6.783,0-13.563,0.684-20.151,2.031c-6.422,1.314-12.737,3.275-18.773,5.828
					c-5.926,2.506-11.642,5.608-16.987,9.22c-5.295,3.577-10.273,7.686-14.799,12.21c-4.524,4.525-8.633,9.504-12.209,14.799
					c-3.612,5.346-6.715,11.062-9.221,16.987C5.307,67.11,3.346,73.427,2.031,79.849C0.684,86.437,0,93.217,0,100
					s0.684,13.563,2.031,20.151c1.314,6.422,3.275,12.738,5.828,18.773c2.506,5.926,5.608,11.642,9.221,16.987
					c3.576,5.295,7.685,10.273,12.209,14.799c4.525,4.524,9.504,8.633,14.799,12.209c5.346,3.612,11.062,6.715,16.987,9.221
					c6.036,2.553,12.352,4.514,18.773,5.828C86.437,199.316,93.217,200,100,200s13.563-0.684,20.151-2.031
					c6.422-1.314,12.738-3.275,18.773-5.828c5.926-2.506,11.642-5.608,16.987-9.221c5.295-3.576,10.273-7.685,14.799-12.209
					c4.524-4.525,8.633-9.504,12.21-14.799c3.611-5.346,6.714-11.062,9.22-16.987c2.553-6.035,4.514-12.352,5.828-18.773
					C199.316,113.563,200,106.783,200,100s-0.684-13.563-2.031-20.151c-1.314-6.422-3.275-12.738-5.828-18.773
					c-2.506-5.926-5.608-11.642-9.22-16.987c-3.577-5.295-7.686-10.273-12.21-14.799c-4.525-4.524-9.504-8.633-14.799-12.21
					c-5.346-3.611-11.062-6.714-16.987-9.22c-6.035-2.553-12.352-4.514-18.773-5.828C113.563,0.684,106.783,0,100,0L100,0z"/>
			</g>
			<path fill="#FFFFFF" d="M34.91,137.58c-9.062-15.695-12.675-16.966-12.675-16.966l-15.783,9.112
				c4.344,13.681,11.604,26.062,21.054,36.412l15.76-9.1C43.266,157.039,43.972,153.274,34.91,137.58z"/>
			<path fill="#FFFFFF" d="M165.09,62.42c9.062,15.695,12.675,16.966,12.675,16.966l15.783-9.112
				c-4.344-13.681-11.604-26.062-21.054-36.412l-15.76,9.1C156.734,42.961,156.028,46.726,165.09,62.42z"/>
			<path fill="#FFFFFF" d="M34.91,62.42c9.062-15.694,8.355-19.459,8.355-19.459l-15.76-9.1
				c-9.449,10.351-16.71,22.731-21.054,36.412l15.783,9.112C22.235,79.386,25.849,78.115,34.91,62.42z"/>
			<path fill="#FFFFFF" d="M177.765,120.614c0,0-3.613,1.271-12.675,16.966c-9.062,15.694-8.355,19.459-8.355,19.459l15.76,9.1
				c9.449-10.351,16.71-22.731,21.054-36.412L177.765,120.614z"/>
			<path fill="#FFFFFF" d="M100,175.159c-18.123,0-21.03,2.494-21.03,2.494v18.219c6.775,1.479,13.812,2.259,21.03,2.259
				s14.255-0.779,21.03-2.259v-18.219C121.03,177.653,118.123,175.159,100,175.159z"/>
			<path fill="#FFFFFF" d="M100,24.841c18.123,0,21.03-2.494,21.03-2.494V4.128c-6.775-1.479-13.812-2.259-21.03-2.259
				S85.745,2.648,78.97,4.128v18.219C78.97,22.347,81.877,24.841,100,24.841z"/>
			<path d="M100,172.212c-9.76,0-19.214-1.905-28.1-5.664c-4.273-1.808-8.397-4.046-12.257-6.653
				c-3.829-2.587-7.431-5.559-10.705-8.833s-6.246-6.876-8.833-10.705c-2.607-3.859-4.846-7.983-6.653-12.256
				c-3.759-8.887-5.664-18.341-5.664-28.101s1.905-19.214,5.664-28.1c1.808-4.273,4.046-8.397,6.653-12.257
				c2.587-3.829,5.559-7.431,8.833-10.705s6.876-6.246,10.705-8.833c3.859-2.607,7.983-4.846,12.257-6.653
				c8.886-3.759,18.34-5.664,28.1-5.664s19.215,1.905,28.1,5.664c4.273,1.808,8.397,4.046,12.257,6.653
				c3.829,2.587,7.431,5.559,10.705,8.833s6.246,6.876,8.833,10.705c2.607,3.859,4.846,7.983,6.653,12.257
				c3.759,8.886,5.664,18.34,5.664,28.1s-1.905,19.214-5.664,28.101c-1.808,4.272-4.046,8.396-6.653,12.256
				c-2.587,3.829-5.559,7.431-8.833,10.705s-6.876,6.246-10.705,8.833c-3.859,2.607-7.983,4.846-12.257,6.653
				C119.215,170.307,109.76,172.212,100,172.212z"/>
			<path fill="#FFFFFF" d="M100.084,172.228c-1.691,0-3.402-0.061-5.086-0.18c-0.846-0.06-1.703-0.135-2.547-0.225l0.659-6.196
				c0.771,0.082,1.554,0.151,2.327,0.206c1.537,0.109,3.101,0.164,4.646,0.164c2.275,0,4.57-0.119,6.821-0.354l0.646,6.197
				C105.086,172.098,102.574,172.228,100.084,172.228z M122.326,168.698l-1.934-5.923c4.337-1.416,8.576-3.312,12.598-5.634
				l0.027-0.016l3.092,5.409l-1.546-2.705l1.544,2.707l0.011-0.007l-0.013,0.007C131.71,165.075,127.073,167.148,122.326,168.698z
				 M77.688,168.679c-3.207-1.041-6.363-2.313-9.38-3.782c-1.491-0.726-2.978-1.515-4.418-2.344l3.108-5.399
				c1.316,0.758,2.675,1.479,4.037,2.142c2.758,1.342,5.643,2.506,8.576,3.457L77.688,168.679z M51.664,153.687
				c-3.735-3.362-7.131-7.144-10.093-11.236l5.048-3.652c2.704,3.737,5.804,7.188,9.213,10.258L51.664,153.687z M148.346,153.672
				l-4.164-4.635c3.092-2.778,5.938-5.877,8.457-9.211c0.257-0.341,0.516-0.689,0.768-1.038l5.045,3.657
				c-0.276,0.381-0.56,0.764-0.842,1.137C154.851,147.233,151.733,150.628,148.346,153.672z M34.026,129.385
				c-2.064-4.611-3.642-9.442-4.687-14.359l6.095-1.295c0.954,4.486,2.394,8.896,4.278,13.107L34.026,129.385z M165.982,129.357
				l-5.695-2.526c1.396-3.148,2.556-6.431,3.445-9.754c0.299-1.111,0.571-2.247,0.811-3.375l6.095,1.296
				c-0.263,1.234-0.561,2.477-0.887,3.691C168.777,122.324,167.51,125.914,165.982,129.357z M34.003,100.012l-6.23-0.007
				c0.002-1.665,0.062-3.35,0.179-5.007c0.236-3.344,0.712-6.71,1.413-10.005l6.095,1.296c-0.642,3.014-1.076,6.092-1.292,9.148
				C34.06,96.951,34.005,98.49,34.003,100.012z M172.228,99.991l-6.23-0.018v-0.058c0-2.703-0.167-5.424-0.498-8.087
				c-0.231-1.865-0.546-3.738-0.935-5.567l6.094-1.296c0.426,2.003,0.771,4.054,1.023,6.096c0.362,2.917,0.546,5.896,0.546,8.854
				V99.991z M39.717,73.161l-5.695-2.526c0.346-0.781,0.71-1.563,1.082-2.327c1.83-3.761,4.001-7.381,6.451-10.76l5.045,3.657
				c-2.238,3.087-4.222,6.395-5.895,9.83C40.365,71.732,40.033,72.447,39.717,73.161z M160.283,73.154
				c-0.932-2.08-1.988-4.147-3.142-6.145c-1.157-2.005-2.424-3.961-3.766-5.814l5.048-3.652c1.466,2.025,2.85,4.162,4.113,6.352
				c1.26,2.181,2.414,4.439,3.433,6.713L160.283,73.154z M55.824,50.958l-4.162-4.636c3.715-3.337,7.828-6.316,12.225-8.855
				l3.115,5.396C62.98,45.186,59.219,47.909,55.824,50.958z M144.161,50.938c-1.384-1.245-2.843-2.449-4.335-3.577
				c-2.165-1.635-4.463-3.155-6.832-4.519l3.108-5.4c2.592,1.492,5.108,3.157,7.479,4.948c1.635,1.234,3.231,2.553,4.747,3.917
				L144.161,50.938z M120.381,37.245c-1.09-0.354-2.201-0.683-3.304-0.979c-3.331-0.893-6.761-1.53-10.195-1.895l0.658-6.196
				c3.755,0.399,7.507,1.097,11.149,2.073c1.207,0.323,2.422,0.683,3.614,1.069L120.381,37.245z M79.6,37.227l-1.935-5.922
				c4.339-1.417,8.846-2.422,13.396-2.987c0.455-0.056,0.919-0.108,1.378-0.157l0.646,6.197c-0.419,0.044-0.842,0.092-1.257,0.144
				C87.674,35.017,83.559,35.934,79.6,37.227z"/>
			<path fill="#FFFFFF" d="M100,160.686c-8.209,0-16.152-1.6-23.609-4.754c-3.588-1.518-7.052-3.397-10.294-5.588
				c-3.222-2.177-6.252-4.678-9.008-7.433c-2.755-2.756-5.256-5.786-7.433-9.008c-2.19-3.242-4.07-6.706-5.588-10.293
				c-3.154-7.458-4.754-15.401-4.754-23.61s1.6-16.152,4.754-23.61c1.518-3.587,3.397-7.051,5.588-10.293
				c2.177-3.222,4.678-6.252,7.433-9.008c2.755-2.755,5.786-5.256,9.008-7.433c3.242-2.19,6.706-4.07,10.293-5.588
				c7.458-3.154,15.401-4.754,23.61-4.754s16.152,1.6,23.609,4.754c3.589,1.518,7.052,3.397,10.294,5.588
				c3.222,2.177,6.253,4.678,9.008,7.433c2.755,2.756,5.256,5.786,7.433,9.008c2.19,3.242,4.07,6.706,5.588,10.293
				c3.154,7.458,4.754,15.401,4.754,23.61s-1.6,16.152-4.754,23.61c-1.518,3.587-3.397,7.051-5.588,10.293
				c-2.177,3.222-4.678,6.252-7.433,9.008c-2.755,2.755-5.786,5.256-9.007,7.433c-3.243,2.19-6.706,4.07-10.294,5.588
				C116.152,159.086,108.209,160.686,100,160.686z"/>
		</g>
	</g>
</switch>
</svg>
