<?xml version="1.0" encoding="utf-8"?>
<!-- Generator: Adobe Illustrator 15.0.2, SVG Export Plug-In . SVG Version: 6.00 Build 0)  -->
<!DOCTYPE svg PUBLIC "-//W3C//DTD SVG 1.1//EN" "http://www.w3.org/Graphics/SVG/1.1/DTD/svg11.dtd">
<svg version="1.1" id="Layer_1" xmlns="http://www.w3.org/2000/svg" xmlns:xlink="http://www.w3.org/1999/xlink" x="0px" y="0px"
	 width="200px" height="200px" viewBox="0 0 200 200" enable-background="new 0 0 200 200" xml:space="preserve">
<rect fill="none" width="200" height="200"/>
<g>
	<g>
		<g>
			<g>
				<path fill="#FF0000" d="M100,199.065c-13.374,0-26.347-2.619-38.561-7.785c-11.797-4.99-22.391-12.133-31.489-21.23
					s-16.241-19.692-21.23-31.488C3.554,126.347,0.935,113.373,0.935,100s2.62-26.347,7.786-38.561
					c4.989-11.797,12.132-22.392,21.23-31.489S49.642,13.71,61.439,8.72C73.653,3.554,86.626,0.935,100,0.935
					c13.373,0,26.348,2.619,38.561,7.785c11.797,4.99,22.393,12.133,31.49,21.23s16.24,19.692,21.23,31.489
					c5.166,12.214,7.785,25.188,7.785,38.561s-2.619,26.347-7.785,38.562c-4.99,11.796-12.133,22.391-21.23,31.488
					s-19.693,16.24-31.49,21.23C126.348,196.446,113.373,199.065,100,199.065z"/>
				<path d="M100,1.869c54.197,0,98.131,43.935,98.131,98.131S154.197,198.131,100,198.131c-54.196,0-98.131-43.935-98.131-98.131
					S45.804,1.869,100,1.869 M100,0C86.501,0,73.404,2.645,61.075,7.859c-11.908,5.036-22.603,12.247-31.786,21.43
					c-9.183,9.184-16.393,19.878-21.43,31.786C2.645,73.404,0,86.501,0,100s2.645,26.596,7.859,38.925
					c5.037,11.908,12.247,22.603,21.43,31.786c9.184,9.183,19.878,16.394,31.786,21.43C73.404,197.355,86.501,200,100,200
					s26.596-2.645,38.926-7.859c11.908-5.036,22.602-12.247,31.785-21.43c9.184-9.184,16.393-19.878,21.43-31.786
					C197.355,126.596,200,113.499,200,100s-2.645-26.596-7.859-38.925c-5.037-11.908-12.246-22.603-21.43-31.786
					c-9.184-9.183-19.877-16.394-31.785-21.43C126.596,2.645,113.499,0,100,0L100,0z"/>
			</g>
		</g>
		<g>
			<path fill="#FFFFFF" d="M34.91,137.579c-9.062-15.695-12.675-16.965-12.675-16.965l-15.783,9.112
				c4.344,13.681,11.605,26.062,21.053,36.412l15.76-9.099C43.265,157.04,43.972,153.274,34.91,137.579z"/>
		</g>
		<g>
			<path fill="#FFFFFF" d="M165.09,62.421c9.062,15.695,12.676,16.965,12.676,16.965l15.783-9.112
				c-4.344-13.68-11.605-26.062-21.055-36.412l-15.76,9.1C156.734,42.961,156.029,46.726,165.09,62.421z"/>
		</g>
		<g>
			<path fill="#FFFFFF" d="M34.91,62.421c9.062-15.695,8.355-19.46,8.355-19.46l-15.76-9.1
				C18.058,44.212,10.796,56.594,6.452,70.273l15.783,9.112C22.235,79.386,25.849,78.116,34.91,62.421z"/>
		</g>
		<g>
			<path fill="#FFFFFF" d="M177.766,120.614c0,0-3.613,1.27-12.676,16.965s-8.355,19.461-8.355,19.461l15.76,9.099
				c9.449-10.351,16.711-22.731,21.055-36.412L177.766,120.614z"/>
		</g>
		<g>
			<path fill="#FFFFFF" d="M100,175.159c-18.123,0-21.03,2.494-21.03,2.494v18.219c6.775,1.479,13.812,2.259,21.03,2.259
				s14.255-0.78,21.03-2.259v-18.219C121.03,177.653,118.123,175.159,100,175.159z"/>
		</g>
		<g>
			<path fill="#FFFFFF" d="M100,24.841c18.123,0,21.03-2.494,21.03-2.494V4.128c-6.775-1.479-13.812-2.259-21.03-2.259
				s-14.255,0.78-21.03,2.259v18.219C78.97,22.347,81.877,24.841,100,24.841z"/>
		</g>
		<g>
			<path d="M100,172.212c-9.76,0-19.214-1.905-28.1-5.664c-4.273-1.808-8.397-4.046-12.256-6.653
				c-3.829-2.587-7.431-5.559-10.705-8.833c-3.274-3.274-6.246-6.876-8.833-10.705c-2.607-3.859-4.846-7.982-6.653-12.256
				c-3.759-8.887-5.664-18.34-5.664-28.101c0-9.76,1.905-19.214,5.664-28.1c1.808-4.274,4.046-8.397,6.653-12.257
				c2.587-3.829,5.559-7.431,8.833-10.705c3.274-3.274,6.876-6.246,10.705-8.833c3.859-2.607,7.983-4.846,12.256-6.653
				c8.886-3.759,18.34-5.664,28.1-5.664s19.214,1.905,28.1,5.664c4.273,1.808,8.398,4.046,12.258,6.653
				c3.828,2.587,7.43,5.559,10.705,8.833c3.273,3.274,6.244,6.876,8.832,10.705c2.607,3.859,4.846,7.982,6.654,12.257
				c3.758,8.886,5.664,18.34,5.664,28.1c0,9.761-1.906,19.214-5.664,28.101c-1.809,4.273-4.047,8.396-6.654,12.256
				c-2.588,3.829-5.559,7.431-8.832,10.705c-3.275,3.274-6.877,6.246-10.705,8.833c-3.859,2.607-7.984,4.846-12.258,6.653
				C119.214,170.307,109.76,172.212,100,172.212z"/>
		</g>
		<g>
			<path fill="#FFFFFF" d="M100.084,172.228c-1.691,0-3.403-0.061-5.086-0.179c-0.846-0.061-1.703-0.137-2.547-0.226l0.66-6.196
				c0.771,0.083,1.554,0.151,2.327,0.206c1.538,0.109,3.101,0.164,4.647,0.164c2.275,0,4.57-0.119,6.821-0.354l0.646,6.197
				C105.086,172.098,102.573,172.228,100.084,172.228z M122.326,168.698l-1.935-5.924c4.337-1.415,8.577-3.311,12.599-5.633
				l0.027-0.016l3.092,5.409l-1.545-2.704l1.543,2.706l0.01-0.007l-0.012,0.007C131.709,165.075,127.073,167.148,122.326,168.698z
				 M77.688,168.679c-3.207-1.041-6.363-2.313-9.38-3.782c-1.491-0.727-2.978-1.514-4.418-2.344l3.108-5.399
				c1.316,0.757,2.675,1.479,4.037,2.141c2.757,1.343,5.643,2.506,8.576,3.458L77.688,168.679z M51.664,153.687
				c-3.736-3.363-7.132-7.144-10.093-11.236l5.048-3.652c2.704,3.737,5.804,7.189,9.213,10.258L51.664,153.687z M148.346,153.672
				l-4.164-4.636c3.092-2.777,5.938-5.876,8.457-9.211c0.258-0.34,0.516-0.688,0.768-1.037l5.045,3.657
				c-0.275,0.381-0.559,0.763-0.842,1.137C154.85,147.233,151.734,150.627,148.346,153.672z M34.026,129.385
				c-2.064-4.611-3.642-9.442-4.687-14.359l6.095-1.295c0.954,4.487,2.393,8.897,4.278,13.108L34.026,129.385z M165.982,129.356
				l-5.695-2.524c1.396-3.149,2.555-6.432,3.445-9.755c0.299-1.111,0.57-2.246,0.811-3.375l6.096,1.295
				c-0.264,1.234-0.562,2.477-0.887,3.692C168.777,122.325,167.51,125.913,165.982,129.356z M34.003,100.012l-6.23-0.006
				c0.002-1.665,0.062-3.351,0.179-5.008c0.237-3.344,0.712-6.71,1.413-10.005l6.094,1.297c-0.641,3.014-1.075,6.091-1.292,9.146
				C34.06,96.95,34.004,98.491,34.003,100.012z M172.229,99.991l-6.23-0.018v-0.057c0-2.704-0.168-5.426-0.498-8.089
				c-0.232-1.864-0.547-3.737-0.936-5.566l6.094-1.296c0.426,2.003,0.77,4.054,1.023,6.096c0.363,2.917,0.547,5.896,0.547,8.855
				V99.991z M39.717,73.161l-5.695-2.526c0.346-0.781,0.71-1.563,1.082-2.327c1.83-3.76,4.001-7.381,6.451-10.761l5.044,3.658
				c-2.239,3.087-4.221,6.395-5.894,9.83C40.365,71.732,40.033,72.448,39.717,73.161z M160.283,73.154
				c-0.932-2.08-1.988-4.148-3.141-6.146c-1.158-2.004-2.426-3.96-3.766-5.813l5.047-3.652c1.467,2.025,2.85,4.162,4.113,6.351
				c1.26,2.182,2.414,4.44,3.432,6.713L160.283,73.154z M55.825,50.958l-4.164-4.636c3.716-3.337,7.829-6.316,12.225-8.854
				l3.116,5.395C62.979,45.186,59.219,47.909,55.825,50.958z M144.162,50.938c-1.385-1.246-2.844-2.448-4.336-3.576
				c-2.164-1.636-4.463-3.157-6.832-4.52l3.109-5.4c2.592,1.492,5.107,3.156,7.479,4.948c1.635,1.235,3.232,2.553,4.748,3.916
				L144.162,50.938z M120.381,37.245c-1.09-0.354-2.201-0.684-3.304-0.979c-3.331-0.893-6.762-1.529-10.195-1.895l0.658-6.195
				c3.755,0.398,7.507,1.097,11.149,2.072c1.206,0.323,2.422,0.683,3.614,1.068L120.381,37.245z M79.6,37.228l-1.935-5.923
				c4.338-1.417,8.846-2.423,13.396-2.987c0.455-0.057,0.918-0.109,1.378-0.157l0.647,6.197c-0.419,0.044-0.842,0.093-1.258,0.145
				C87.674,35.017,83.559,35.933,79.6,37.228z"/>
		</g>
		<g>
			<path fill="#FFFFFF" d="M100,160.686c-8.209,0-16.153-1.601-23.61-4.754c-3.588-1.517-7.051-3.397-10.293-5.588
				c-3.222-2.177-6.252-4.677-9.008-7.433s-5.256-5.786-7.432-9.008c-2.191-3.242-4.071-6.705-5.588-10.293
				c-3.154-7.458-4.754-15.401-4.754-23.61s1.6-16.152,4.754-23.61c1.518-3.588,3.397-7.051,5.588-10.293
				c2.176-3.222,4.676-6.252,7.432-9.008c2.755-2.755,5.786-5.255,9.008-7.433c3.242-2.19,6.706-4.071,10.293-5.588
				c7.457-3.154,15.4-4.754,23.61-4.754c8.209,0,16.152,1.6,23.609,4.754c3.588,1.517,7.052,3.397,10.295,5.588
				c3.221,2.178,6.252,4.678,9.008,7.433c2.754,2.756,5.256,5.786,7.432,9.008c2.191,3.242,4.07,6.705,5.588,10.293
				c3.154,7.458,4.754,15.401,4.754,23.61s-1.6,16.152-4.754,23.61c-1.518,3.588-3.396,7.051-5.588,10.293
				c-2.176,3.222-4.678,6.252-7.432,9.008c-2.756,2.756-5.787,5.256-9.008,7.433c-3.243,2.19-6.707,4.071-10.295,5.588
				C116.152,159.085,108.209,160.686,100,160.686z"/>
		</g>
	</g>
	<g>
		<g>
			<g>
				<path fill="#FFFFFF" d="M85.926,151.94c-2.71,0-5.82-3.112-7.315-4.607c-0.753-0.753-1.458-1.185-2.433-1.783
					c-1.882-1.154-4.727-2.9-10.476-8.649c-8.485-8.486-12.176-14.599-10.968-18.168c0.053-0.158,0.182-0.279,0.343-0.323
					c0.267-0.071,0.531-0.108,0.785-0.108c0.643,0,1.225,0.228,1.728,0.677c0.562,0.499,1.377,1.745,2.505,3.47
					c2.313,3.538,5.81,8.886,10.402,12.885c3.999,3.482,6.75,5.451,8.758,6.889c1.422,1.018,2.449,1.753,3.246,2.551
					c0.46,0.46,0.882,0.93,1.282,1.376c1.118,1.246,2,2.23,3.018,2.23l0.123-0.005c0.425-0.031,0.945-0.228,1.548-0.585
					c0.079-0.046,0.167-0.069,0.255-0.069c0.087,0,0.175,0.022,0.252,0.068c0.157,0.092,0.252,0.262,0.248,0.443
					c-0.018,0.775-0.042,1.838-0.895,2.69C87.655,151.598,86.846,151.94,85.926,151.94z"/>
				<path d="M55.863,118.801c0.458,0,0.94,0.145,1.395,0.55c1.592,1.414,6.058,10.39,12.911,16.358
					c6.851,5.967,10.124,7.559,11.979,9.416c1.801,1.799,2.994,3.753,4.654,3.753c0.053,0,0.106-0.002,0.16-0.006
					c0.569-0.042,1.187-0.311,1.765-0.653c-0.019,0.822-0.07,1.67-0.749,2.349c-0.617,0.617-1.314,0.872-2.052,0.872
					c-2.386,0-5.181-2.679-6.961-4.46c-2.329-2.328-4.244-1.768-12.909-10.433c-5.633-5.634-12.299-13.365-10.848-17.654
					C55.417,118.836,55.637,118.801,55.863,118.801 M55.863,117.801v1V117.801c-0.298,0-0.606,0.042-0.916,0.126
					c-0.322,0.087-0.58,0.329-0.687,0.646c-1.292,3.817,2.335,9.929,11.088,18.682c5.791,5.791,8.666,7.555,10.568,8.723
					c0.946,0.58,1.63,0.999,2.341,1.711c2.467,2.468,5.104,4.753,7.668,4.753c1.057,0,1.986-0.393,2.759-1.166
					c0.994-0.994,1.022-2.221,1.041-3.032c0.008-0.363-0.181-0.703-0.495-0.887c-0.156-0.092-0.331-0.137-0.505-0.137
					c-0.176,0-0.353,0.046-0.51,0.14c-0.667,0.395-1.091,0.498-1.329,0.516c-0.03,0.003-0.058,0.004-0.086,0.004
					c-0.794,0-1.652-0.957-2.646-2.064c-0.407-0.454-0.828-0.924-1.301-1.396c-0.825-0.826-1.867-1.571-3.308-2.603
					c-2-1.432-4.74-3.393-8.721-6.859c-4.54-3.954-8.014-9.267-10.312-12.781c-1.191-1.822-1.979-3.026-2.592-3.571
					C57.334,118.079,56.622,117.801,55.863,117.801L55.863,117.801z"/>
			</g>
			<g>
				<path fill="#FF0000" d="M86.801,149.378c-1.465,0-2.53-1.188-3.763-2.563c-0.388-0.433-0.797-0.889-1.244-1.336
					c-0.739-0.739-1.738-1.454-3.121-2.444c-2.025-1.449-4.798-3.434-8.833-6.948c-4.696-4.09-8.238-9.507-10.582-13.091
					c-1.044-1.598-1.869-2.859-2.333-3.271c-0.319-0.285-0.667-0.423-1.062-0.423c-0.166,0-0.342,0.024-0.524,0.074
					c-0.043,0.011-0.087,0.017-0.13,0.017c-0.136,0-0.269-0.056-0.365-0.157c-0.126-0.135-0.168-0.328-0.109-0.503
					c0.194-0.575,0.513-1.086,0.947-1.52c0.342-0.342,0.943-0.465,1.775-0.636c0.867-0.177,1.946-0.398,3.107-0.925
					c1.882-0.853,4.036-2.69,5.512-4.083c3.648-3.439,6.691-8.063,6.623-9.437c-0.044-0.894-0.424-2.647-0.906-4.869
					c-1.106-5.107-2.622-12.103-2.005-17.126c0.754-6.14,2.062-12.429,6.477-16.845c3.358-3.357,6.316-4.855,9.593-4.855
					c1.637,0,3.343,0.38,5.216,1.16c3.184,1.326,5.117,2.955,5.911,4.98c0.712,1.817,0.503,3.91-0.637,6.399
					c-0.644,1.404-1.311,1.946-1.899,2.426c-0.273,0.223-0.532,0.433-0.773,0.722c-0.88,1.056-0.7,2.156-0.451,3.68
					c0.02,0.123,0.041,0.247,0.061,0.373l3.993-2.507l6.433-5.117c-0.143-1.534-0.44-8.667,5.755-12.564
					c3.618-2.276,6.76-3.792,10.332-3.792c1.873,0,3.686,0.427,5.539,1.305c8.527,4.038,12.898,9.246,17.986,21.431
					c6.814,16.323-3.225,26.344-14.85,37.946l-1.051,1.05c-7.639,7.638-16.492,10.352-19.401,11.243
					c-0.296,0.091-0.601,0.184-0.722,0.23c-0.283,0.297-0.967,1.109-1.752,2.04c-1.541,1.83-3.653,4.337-5.038,5.721
					c-1.218,1.219-3.497,3.535-5.474,5.544c-1.512,1.537-2.848,2.895-3.397,3.444c-1.168,1.169-2.367,3.656-2.412,4.089
					c-0.017,0.157-0.108,0.328-0.245,0.409c-0.747,0.442-1.396,0.678-1.983,0.722C86.932,149.376,86.867,149.378,86.801,149.378z"/>
				<path d="M119.797,54.697c1.684,0,3.451,0.369,5.326,1.257c8.637,4.091,12.816,9.384,17.738,21.171
					c6.889,16.506-4.006,26.663-15.793,38.45c-8.961,8.96-19.762,11.109-20.074,11.422c-0.706,0.706-4.685,5.659-6.838,7.812
					c-2.15,2.15-7.604,7.721-8.871,8.988c-1.267,1.267-2.545,3.922-2.558,4.421c-0.579,0.343-1.196,0.611-1.765,0.653
					c-0.054,0.004-0.107,0.006-0.16,0.006c-1.659,0-2.853-1.954-4.654-3.753c-1.855-1.857-5.128-3.449-11.979-9.416
					c-6.854-5.969-11.319-14.944-12.911-16.358c-0.454-0.405-0.937-0.55-1.395-0.55c-0.226,0-0.446,0.035-0.655,0.092
					c0.166-0.49,0.435-0.935,0.827-1.326c0.512-0.512,2.488-0.439,4.735-1.458c2.021-0.916,4.278-2.882,5.648-4.175
					c3.549-3.347,6.861-8.174,6.779-9.825c-0.148-2.996-3.795-14.731-2.914-21.91c0.673-5.475,1.825-12.042,6.334-16.552
					c3.064-3.063,5.937-4.709,9.24-4.708c1.557,0,3.21,0.365,5.024,1.121c5.659,2.356,7.308,5.696,5.011,10.71
					c-0.896,1.953-1.792,2.063-2.602,3.035c-1.267,1.52-0.644,3.155-0.392,5.206l4.645-2.916l6.695-5.321
					c0,0-1.242-8.123,5.492-12.36C112.855,56.447,116.129,54.697,119.797,54.697 M119.797,53.697c-3.909,0-7.404,1.859-10.599,3.869
					c-6.2,3.901-6.177,10.711-6.014,12.767l-6.22,4.944l-3.306,2.075c-0.21-1.345-0.243-2.135,0.4-2.907
					c0.21-0.252,0.439-0.438,0.705-0.654c0.6-0.488,1.346-1.095,2.038-2.604c1.2-2.619,1.412-4.841,0.648-6.791
					c-0.846-2.158-2.869-3.879-6.184-5.26c-1.936-0.806-3.705-1.198-5.409-1.198c-3.42,0-6.488,1.543-9.947,5.002
					c-4.522,4.522-5.854,10.909-6.619,17.137c-0.627,5.107,0.898,12.15,2.013,17.293c0.458,2.112,0.853,3.937,0.895,4.789
					c0.055,1.112-2.82,5.609-6.467,9.048c-2.076,1.958-3.935,3.339-5.375,3.991c-1.11,0.503-2.158,0.718-3,0.89
					c-0.918,0.188-1.581,0.324-2.029,0.772c-0.488,0.488-0.847,1.064-1.067,1.712c-0.118,0.351-0.034,0.736,0.218,1.006
					c0.192,0.204,0.457,0.315,0.729,0.315c0.087,0,0.174-0.011,0.261-0.034c0.14-0.038,0.272-0.057,0.394-0.057
					c0.271,0,0.502,0.094,0.729,0.295c0.415,0.369,1.265,1.668,2.248,3.172c2.359,3.607,5.923,9.06,10.672,13.194
					c4.053,3.53,6.837,5.523,8.871,6.979c1.363,0.976,2.349,1.681,3.058,2.391c0.435,0.435,0.837,0.883,1.226,1.316
					c1.258,1.404,2.447,2.73,4.135,2.73c0.078,0,0.156-0.003,0.235-0.009c0.666-0.05,1.386-0.308,2.2-0.791
					c0.28-0.165,0.46-0.456,0.487-0.777c0.11-0.485,1.195-2.724,2.268-3.796c0.55-0.551,1.887-1.909,3.401-3.448
					c1.976-2.008,4.253-4.323,5.471-5.541c1.398-1.398,3.519-3.914,5.066-5.752c0.686-0.813,1.34-1.589,1.65-1.932
					c0.141-0.046,0.366-0.115,0.587-0.184c2.938-0.9,11.883-3.642,19.608-11.367l1.051-1.05
					c11.264-11.241,21.9-21.859,14.959-38.493c-5.145-12.318-9.576-17.589-18.234-21.689
					C123.654,54.152,121.719,53.697,119.797,53.697L119.797,53.697z"/>
			</g>
		</g>
		<g>
			<path fill="#FFFFFF" d="M87.75,143.539c-0.096,0-0.192-0.03-0.273-0.092c-0.861-0.656-21.126-16.14-25.113-22.572
				c-0.112-0.182-0.083-0.417,0.072-0.564c2.635-2.518,9.639-9.347,10.4-10.694c0.975-1.737,1.793-2.564,1.827-2.6
				c0.086-0.086,0.202-0.132,0.319-0.132c0.066,0,0.133,0.015,0.195,0.044c0.16,0.076,16.124,7.821,24.714,21.396
				c0.104,0.165,0.091,0.379-0.034,0.529c-0.046,0.056-4.662,5.627-7.815,9.62c-3.163,4.006-3.922,4.877-3.953,4.912
				C88,143.487,87.875,143.539,87.75,143.539z"/>
			<path d="M74.981,107.336c0,0,15.908,7.608,24.528,21.229c0,0-4.629,5.585-7.822,9.629c-3.191,4.042-3.938,4.894-3.938,4.894
				s-21.014-16.015-25.003-22.451c0,0,9.521-9.098,10.481-10.799C74.185,108.134,74.981,107.336,74.981,107.336 M74.982,106.433
				c-0.235,0-0.466,0.092-0.639,0.266c-0.036,0.036-0.896,0.906-1.902,2.697c-0.65,1.153-6.674,7.106-10.317,10.589
				c-0.309,0.295-0.369,0.766-0.144,1.128c4.031,6.503,24.36,22.036,25.223,22.693c0.163,0.124,0.355,0.186,0.547,0.186
				c0.252,0,0.502-0.105,0.68-0.309c0.031-0.035,0.798-0.915,3.967-4.929c3.15-3.989,7.762-9.557,7.809-9.612
				c0.25-0.301,0.277-0.729,0.067-1.059c-8.659-13.684-24.242-21.246-24.901-21.562C75.247,106.462,75.114,106.433,74.982,106.433
				L74.982,106.433z"/>
		</g>
		<g>
			<path fill="#FFFFFF" d="M87.215,138.914c-0.097,0-0.195-0.031-0.277-0.096c-7.06-5.512-16.04-13.017-20.069-17.552
				c-0.16-0.181-0.15-0.454,0.022-0.623c0.955-0.932,2.122-2.075,3.276-3.229c4.077-4.075,5.05-5.308,5.463-5.976
				c0.085-0.138,0.233-0.214,0.384-0.214c0.076,0,0.153,0.019,0.224,0.06c4.686,2.686,13.447,8.44,19.479,16.817
				c0.12,0.166,0.113,0.392-0.017,0.55c-2.688,3.274-4.741,5.812-6.275,7.755c-0.75,0.949-1.36,1.72-1.858,2.34
				C87.478,138.856,87.347,138.914,87.215,138.914z"/>
			<path d="M76.014,111.676c4.294,2.461,13.257,8.246,19.337,16.689c-1.647,2.007-4.259,5.201-6.28,7.762
				c-0.749,0.947-1.358,1.717-1.855,2.336c-6.967-5.439-15.98-12.962-20.009-17.496c0.956-0.933,2.125-2.078,3.28-3.233
				C74.554,113.666,75.573,112.387,76.014,111.676 M76.015,110.772c-0.303,0-0.598,0.152-0.769,0.428
				c-0.377,0.608-1.331,1.828-5.398,5.895c-1.153,1.152-2.318,2.296-3.272,3.226c-0.345,0.337-0.365,0.886-0.044,1.246
				c4.049,4.558,13.053,12.084,20.128,17.608c0.165,0.129,0.361,0.191,0.555,0.191c0.264,0,0.526-0.116,0.704-0.338
				c0.499-0.62,1.109-1.392,1.86-2.342c1.533-1.941,3.584-4.477,6.27-7.748c0.26-0.316,0.274-0.769,0.035-1.101
				c-6.082-8.446-14.904-14.242-19.622-16.945C76.321,110.812,76.167,110.772,76.015,110.772L76.015,110.772z"/>
		</g>
	</g>
</g>
</svg>
