<?xml version="1.0" encoding="utf-8"?>
<!-- Generator: Adobe Illustrator 15.0.2, SVG Export Plug-In . SVG Version: 6.00 Build 0)  -->
<!DOCTYPE svg PUBLIC "-//W3C//DTD SVG 1.1//EN" "http://www.w3.org/Graphics/SVG/1.1/DTD/svg11.dtd">
<svg version="1.1" id="Layer_1" xmlns="http://www.w3.org/2000/svg" xmlns:xlink="http://www.w3.org/1999/xlink" x="0px" y="0px"
	 width="200px" height="200px" viewBox="0 0 200 200" enable-background="new 0 0 200 200" xml:space="preserve">
<rect fill="none" width="200" height="200"/>
<g>
	<g>
		<g>
			<path d="M100,199.065c-13.373,0-26.348-2.619-38.561-7.785c-11.797-4.99-22.393-12.133-31.49-21.23s-16.24-19.692-21.229-31.488
				C3.555,126.347,0.934,113.373,0.934,100s2.621-26.347,7.787-38.561c4.988-11.797,12.131-22.392,21.229-31.489
				s19.693-16.24,31.49-21.23C73.652,3.554,86.627,0.935,100,0.935s26.348,2.619,38.561,7.785
				c11.797,4.99,22.391,12.133,31.488,21.23s16.24,19.692,21.23,31.489c5.166,12.214,7.785,25.188,7.785,38.561
				s-2.619,26.347-7.785,38.562c-4.99,11.796-12.133,22.391-21.23,31.488s-19.691,16.24-31.488,21.23
				C126.348,196.446,113.373,199.065,100,199.065z"/>
			<path d="M100,1.869c54.195,0,98.131,43.935,98.131,98.131S154.195,198.131,100,198.131c-54.197,0-98.131-43.935-98.131-98.131
				S45.803,1.869,100,1.869 M100,0C86.5,0,73.404,2.645,61.074,7.859c-11.908,5.036-22.602,12.247-31.785,21.43
				c-9.184,9.184-16.393,19.878-21.43,31.786C2.645,73.404,0,86.501,0,100s2.645,26.596,7.859,38.925
				c5.037,11.908,12.246,22.603,21.43,31.786c9.184,9.183,19.877,16.394,31.785,21.43C73.404,197.355,86.5,200,100,200
				c13.498,0,26.596-2.645,38.924-7.859c11.908-5.036,22.604-12.247,31.787-21.43c9.184-9.184,16.393-19.878,21.43-31.786
				C197.355,126.596,200,113.499,200,100s-2.645-26.596-7.859-38.925c-5.037-11.908-12.246-22.603-21.43-31.786
				c-9.184-9.183-19.879-16.394-31.787-21.43C126.596,2.645,113.498,0,100,0L100,0z"/>
		</g>
	</g>
	<g>
		<path fill="#FFFFFF" d="M34.91,137.579c-9.062-15.695-12.676-16.965-12.676-16.965l-15.783,9.112
			c4.344,13.681,11.605,26.062,21.055,36.412l15.76-9.099C43.266,157.04,43.971,153.274,34.91,137.579z"/>
	</g>
	<g>
		<path fill="#FFFFFF" d="M165.09,62.421c9.061,15.695,12.674,16.965,12.674,16.965l15.783-9.112
			c-4.344-13.68-11.605-26.062-21.053-36.412l-15.76,9.1C156.734,42.961,156.027,46.726,165.09,62.421z"/>
	</g>
	<g>
		<path fill="#FFFFFF" d="M34.91,62.421c9.061-15.695,8.355-19.46,8.355-19.46l-15.76-9.1C18.057,44.212,10.795,56.594,6.451,70.273
			l15.783,9.112C22.234,79.386,25.848,78.116,34.91,62.421z"/>
	</g>
	<g>
		<path fill="#FFFFFF" d="M177.764,120.614c0,0-3.613,1.27-12.674,16.965c-9.062,15.695-8.355,19.461-8.355,19.461l15.76,9.099
			c9.447-10.351,16.709-22.731,21.053-36.412L177.764,120.614z"/>
	</g>
	<g>
		<path fill="#FFFFFF" d="M100,175.159c-18.123,0-21.031,2.494-21.031,2.494v18.219c6.775,1.479,13.812,2.259,21.031,2.259
			s14.254-0.78,21.029-2.259v-18.219C121.029,177.653,118.123,175.159,100,175.159z"/>
	</g>
	<g>
		<path fill="#FFFFFF" d="M100,24.841c18.123,0,21.029-2.494,21.029-2.494V4.128C114.254,2.649,107.219,1.869,100,1.869
			s-14.256,0.78-21.031,2.259v18.219C78.969,22.347,81.877,24.841,100,24.841z"/>
	</g>
	<g>
		<path fill="#FF0000" d="M100,172.212c-9.76,0-19.215-1.905-28.1-5.664c-4.273-1.808-8.398-4.046-12.258-6.653
			c-3.828-2.587-7.43-5.559-10.705-8.833c-3.273-3.274-6.246-6.876-8.832-10.705c-2.607-3.859-4.846-7.982-6.654-12.256
			c-3.758-8.887-5.664-18.34-5.664-28.101c0-9.76,1.906-19.214,5.664-28.1c1.809-4.274,4.047-8.397,6.654-12.257
			c2.586-3.829,5.559-7.431,8.832-10.705c3.275-3.274,6.877-6.246,10.705-8.833c3.859-2.607,7.984-4.846,12.258-6.653
			c8.885-3.759,18.34-5.664,28.1-5.664s19.213,1.905,28.1,5.664c4.273,1.808,8.396,4.046,12.256,6.653
			c3.83,2.587,7.432,5.559,10.705,8.833c3.275,3.274,6.246,6.876,8.834,10.705c2.607,3.859,4.846,7.982,6.652,12.257
			c3.76,8.886,5.664,18.34,5.664,28.1c0,9.761-1.904,19.214-5.664,28.101c-1.807,4.273-4.045,8.396-6.652,12.256
			c-2.588,3.829-5.559,7.431-8.834,10.705c-3.273,3.274-6.875,6.246-10.705,8.833c-3.859,2.607-7.982,4.846-12.256,6.653
			C119.213,170.307,109.76,172.212,100,172.212z"/>
	</g>
	<g>
		<path fill="#E0D86A" d="M100.084,172.228c-1.691,0-3.404-0.061-5.086-0.179c-0.846-0.061-1.703-0.137-2.547-0.226l0.658-6.196
			c0.771,0.083,1.555,0.151,2.328,0.206c1.537,0.109,3.1,0.164,4.646,0.164c2.275,0,4.57-0.119,6.82-0.354l0.646,6.197
			C105.086,172.098,102.572,172.228,100.084,172.228z M122.326,168.698l-1.936-5.924c4.338-1.415,8.578-3.311,12.6-5.633
			l0.027-0.016l3.092,5.409l-1.547-2.704l1.543,2.706l0.012-0.007l-0.012,0.007C131.709,165.075,127.072,167.148,122.326,168.698z
			 M77.688,168.679c-3.207-1.041-6.363-2.313-9.381-3.782c-1.49-0.727-2.977-1.514-4.418-2.344l3.109-5.399
			c1.316,0.757,2.674,1.479,4.037,2.141c2.758,1.343,5.643,2.506,8.576,3.458L77.688,168.679z M51.664,153.687
			c-3.736-3.363-7.133-7.144-10.094-11.236l5.049-3.652c2.703,3.737,5.805,7.189,9.213,10.258L51.664,153.687z M148.346,153.672
			l-4.164-4.636c3.092-2.777,5.938-5.876,8.455-9.211c0.258-0.34,0.518-0.688,0.77-1.037l5.043,3.657
			c-0.275,0.381-0.559,0.763-0.84,1.137C154.85,147.233,151.732,150.627,148.346,153.672z M34.025,129.385
			c-2.064-4.611-3.641-9.442-4.686-14.358l6.094-1.296c0.955,4.487,2.395,8.897,4.279,13.108L34.025,129.385z M165.982,129.356
			l-5.695-2.524c1.395-3.149,2.555-6.432,3.445-9.755c0.299-1.111,0.57-2.246,0.811-3.375l6.094,1.295
			c-0.262,1.234-0.561,2.477-0.887,3.692C168.777,122.325,167.508,125.913,165.982,129.356z M34.002,100.012l-6.23-0.006
			c0.002-1.665,0.062-3.351,0.18-5.008c0.236-3.344,0.713-6.71,1.412-10.005l6.094,1.297c-0.641,3.014-1.074,6.091-1.291,9.146
			C34.059,96.95,34.004,98.491,34.002,100.012z M172.227,99.991l-6.23-0.018v-0.057c0-2.704-0.166-5.426-0.498-8.089
			c-0.23-1.864-0.545-3.737-0.936-5.566l6.096-1.296c0.426,2.003,0.77,4.054,1.023,6.096c0.361,2.917,0.545,5.896,0.545,8.855
			V99.991z M39.717,73.161l-5.695-2.526c0.346-0.781,0.709-1.563,1.082-2.327c1.83-3.76,4-7.381,6.451-10.761l5.045,3.658
			c-2.24,3.087-4.223,6.395-5.895,9.83C40.365,71.732,40.033,72.448,39.717,73.161z M160.283,73.154
			c-0.932-2.08-1.988-4.148-3.143-6.146c-1.156-2.004-2.424-3.96-3.766-5.813l5.049-3.652c1.465,2.025,2.85,4.162,4.113,6.351
			c1.26,2.182,2.414,4.44,3.432,6.713L160.283,73.154z M55.824,50.958l-4.164-4.636c3.717-3.337,7.83-6.316,12.225-8.854
			l3.117,5.395C62.979,45.186,59.219,47.909,55.824,50.958z M144.16,50.938c-1.383-1.246-2.842-2.448-4.334-3.576
			c-2.166-1.636-4.465-3.157-6.832-4.52l3.107-5.4c2.592,1.492,5.109,3.156,7.48,4.948c1.635,1.235,3.23,2.553,4.746,3.916
			L144.16,50.938z M120.381,37.245c-1.09-0.354-2.201-0.684-3.305-0.979c-3.33-0.893-6.762-1.529-10.195-1.895l0.658-6.195
			c3.756,0.398,7.508,1.097,11.15,2.072c1.205,0.323,2.422,0.683,3.613,1.068L120.381,37.245z M79.6,37.228l-1.936-5.923
			c4.34-1.417,8.846-2.423,13.396-2.987c0.455-0.057,0.92-0.109,1.379-0.157l0.646,6.197c-0.42,0.044-0.842,0.093-1.258,0.145
			C87.674,35.017,83.559,35.933,79.6,37.228z"/>
	</g>
	<path fill="#E0D86A" d="M41.023,114.347c0.764,3.156,1.771,6.251,3.045,9.264c1.518,3.588,3.396,7.051,5.588,10.293
		c2.176,3.222,4.678,6.252,7.432,9.008c2.756,2.756,5.787,5.256,9.008,7.433c3.242,2.19,6.707,4.071,10.295,5.588
		c7.457,3.153,15.4,4.754,23.609,4.754s16.152-1.601,23.609-4.754c3.588-1.517,7.051-3.397,10.293-5.588
		c3.223-2.177,6.252-4.677,9.008-7.433s5.256-5.786,7.434-9.008c2.189-3.242,4.07-6.705,5.588-10.293
		c1.274-3.013,2.281-6.107,3.045-9.264H41.023z"/>
	<g>
		<defs>
			<path id="SVGID_1_" d="M100,160.686c-8.209,0-16.152-1.601-23.609-4.754c-3.588-1.517-7.053-3.397-10.295-5.588
				c-3.221-2.177-6.252-4.677-9.008-7.433c-2.754-2.756-5.256-5.786-7.432-9.008c-2.191-3.242-4.07-6.705-5.588-10.293
				c-3.154-7.458-4.754-15.401-4.754-23.61s1.6-16.152,4.754-23.61c1.518-3.588,3.396-7.051,5.588-10.293
				c2.176-3.222,4.676-6.252,7.432-9.008c2.756-2.755,5.787-5.255,9.008-7.433c3.242-2.19,6.707-4.071,10.295-5.588
				c7.457-3.154,15.4-4.754,23.609-4.754s16.152,1.6,23.609,4.754c3.588,1.517,7.051,3.397,10.293,5.588
				c3.223,2.178,6.252,4.678,9.008,7.433c2.756,2.756,5.256,5.786,7.434,9.008c2.189,3.242,4.07,6.705,5.588,10.293
				c3.154,7.458,4.754,15.401,4.754,23.61s-1.6,16.152-4.754,23.61c-1.518,3.588-3.398,7.051-5.588,10.293
				c-2.178,3.222-4.678,6.252-7.434,9.008s-5.785,5.256-9.008,7.433c-3.242,2.19-6.705,4.071-10.293,5.588
				C116.152,159.085,108.209,160.686,100,160.686z"/>
		</defs>
		<clipPath id="SVGID_2_">
			<use xlink:href="#SVGID_1_"  overflow="visible"/>
		</clipPath>
		<g clip-path="url(#SVGID_2_)">
			<path fill="#009600" d="M50.126,136.354c2.589,1.169,32.565,14.366,55.139,22.8c7.873,2.941,14.705,5.077,18.962,6.34
				c5.575,1.655,19.193,3.374,26.115-3.955s-4.014-20.183-26.174-31.06s-46.88-10.935-54.499-10.935
				c-4.593,0-9.714,0.523-15.82,2.501C47.741,124.023,39.163,131.403,50.126,136.354z"/>
			<path d="M134.805,167.638c-0.001,0-0.002,0-0.002,0c-5.39,0-9.61-1.129-10.775-1.475c-6.447-1.914-12.843-4.052-19.007-6.355
				c-21.924-8.191-51.479-21.146-55.183-22.817c-3.913-1.767-5.823-4.003-5.676-6.646c0.229-4.142,5.677-7.734,9.471-8.963
				c5.342-1.729,10.437-2.535,16.036-2.535c21.487,0,39.927,3.703,54.807,11.006c16.46,8.079,27.105,17.429,28.477,25.01
				c0.496,2.746-0.211,5.153-2.103,7.156C146.463,166.663,139.703,167.638,134.805,167.638z M69.669,120.243
				c-5.449,0-10.407,0.783-15.605,2.467c-3.957,1.281-8.335,4.594-8.508,7.712c-0.111,2.009,1.522,3.79,4.857,5.296
				c3.696,1.67,33.208,14.604,55.096,22.783c6.135,2.291,12.499,4.42,18.916,6.324c1.119,0.332,5.177,1.417,10.378,1.417h0.001
				c4.625,0,10.985-0.899,15.03-5.183c1.57-1.662,2.157-3.664,1.744-5.949c-1.272-7.039-11.894-16.238-27.718-24.004
				C109.174,123.897,90.941,120.243,69.669,120.243z"/>
		</g>
		<path clip-path="url(#SVGID_2_)" d="M118.585,126.409c8.329,3.553,16.833,8.182,23.091,13.377c5.984,4.969,9.86,9.943,10.645,11.4
			c2.064,3.838,1.978,9.132-4.014,13.959c-7.946,6.403-20.008,5.118-26.581,3.432c-6.572-1.687-28.238-11.153-28.238-11.153
			s0-4.274,0-5.017c0-0.741,0.087-1.526,2.312-2.312c4.021-1.419,9.379,0.567,15.966,3.402c11.929,5.135,20.154,6.325,22.466,6.325
			c2.312,0,10.121-1.876,10.121-4.624s-0.785-5.147-7.939-11.734s-18.642-13.276-34.404-17.579
			c-15.762-4.305-36.491-3.433-42.889-2.327c-6.398,1.104-8.935,5.409-8.935,5.409c1.047,2.326,9.364,4.537,12.854,5.933
			c3.489,1.396,3.266,3.542,3.266,5.868c0,2.327-1.463,4.602-1.463,4.602s-13.494-5.584-16.46-7.504
			c-2.967-1.918-5.759-3.896-4.712-8.143c1.129-4.576,7.968-11.516,30.245-11.226C96.192,118.789,110.255,122.855,118.585,126.409z"
			/>
	</g>
	<g>
		<path fill="#FFFFFF" d="M50.456,62.681H68.15v5.587H56.395V80.84h10.24v5.589h-10.24v17.695h-5.938V62.681z"/>
		<path fill="#FFFFFF" d="M73.261,62.681h5.938v41.443h-5.938V62.681z"/>
		<path fill="#FFFFFF" d="M85.819,62.681h5.704l8.966,24.972h0.115V62.681h5.938v41.443h-5.589l-9.082-24.915h-0.115v24.915h-5.937
			V62.681z"/>
		<path fill="#FFFFFF" d="M121.751,62.681h4.948l9.256,41.443h-5.938l-1.745-8.908h-8.092l-1.747,8.908h-5.937L121.751,62.681z
			 M124.256,74.613h-0.118l-2.91,15.016h5.937L124.256,74.613z"/>
		<path fill="#FFFFFF" d="M142.144,62.681h5.937v35.505h11.758v5.938h-17.694V62.681z"/>
	</g>
</g>
</svg>
