<?xml version="1.0" encoding="UTF-8"?>
<!-- Generator: Adobe Illustrator 14.0.0, SVG Export Plug-In . SVG Version: 6.00 Build 43363)  -->
<!DOCTYPE svg PUBLIC "-//W3C//DTD SVG 1.1//EN" "http://www.w3.org/Graphics/SVG/1.1/DTD/svg11.dtd">
<svg version="1.1" id="Logo" xmlns="http://www.w3.org/2000/svg" xmlns:xlink="http://www.w3.org/1999/xlink" x="0px" y="0px" width="192.756px" height="192.756px" viewBox="0 0 192.756 192.756" enable-background="new 0 0 192.756 192.756" xml:space="preserve">
<g>
	<g>
		<path d="M184.185,110.758c0.018,0.605,0.026,1.212,0.026,1.795c0,18.986-8.511,36.84-23.964,50.276    c-15.488,13.468-36.092,20.883-58.016,20.883c-21.922,0-42.526-7.415-58.015-20.883c-15.453-13.437-23.963-31.29-23.963-50.276    c0-0.586,0.008-1.189,0.025-1.795l0-0.025l0-0.027c-0.017-0.573-0.025-1.148-0.025-1.704c0-37.276,36.774-67.604,81.979-67.604    c45.203,0,81.979,30.327,81.979,67.604c0,0.554-0.009,1.129-0.026,1.704v0.027V110.758z"/>
		<path fill="#1c1b1d" d="M23.45,122.65c-1.119-4.458-1.71-9.08-1.71-13.813c0-8.709,1.99-17.032,5.612-24.671l-1.26-0.464    c-3.767,7.827-5.839,16.362-5.839,25.299c0,5.281,0.723,10.421,2.093,15.357l0.027-1.311L23.45,122.65z"/>
		<path fill="none" d="M151.701,77.961c-7.692-10.095-6.272-10.487-6.272-10.487l13.184-6.732    c-10.845-8.826-24.657-15.143-40.083-17.814l-0.917,12.104c0,0-3.787,1.567-15.149,1.567c-11.363,0-16.327-1.666-16.327-1.666    L85.205,42.94c-15.422,2.683-29.23,9.008-40.064,17.843l13.047,6.852c0,0-1.502,4.507-6.922,11.298    c-5.42,6.792-10.645,10.448-10.645,10.448l-14.149-5.216c-3.623,7.639-5.613,15.962-5.613,24.671c0,4.733,0.591,9.355,1.71,13.813    l15.929-5.875c0,0,3.432,2.401,8.822,10.587c5.391,8.184,6.762,14.505,6.762,14.505l-16.149,8.313    c10.985,11.714,26.53,20.331,44.422,24.012l0.005-0.226l1.666-16.611c0,0,2.548-2.108,17.104-2.108    c14.555,0,18.477,2.108,18.477,2.108l1.664,16.611l-0.002,0.264c17.893-3.646,33.453-12.221,44.466-23.899l-16.335-8.708    c0,0,0.148-4.02,6.569-13.869c6.419-9.852,9.262-10.978,9.262-10.978l15.966,6.037c1.145-4.51,1.753-9.185,1.753-13.976    c0-8.762-2.018-17.132-5.682-24.81l-14.293,5.451C162.972,89.479,159.396,88.058,151.701,77.961z"/>
		<path fill="#1c1b1d" d="M185.95,110.708v0.051c0-0.009,0-0.017,0-0.025C185.95,110.726,185.95,110.717,185.95,110.708z"/>
		<path fill="#1c1b1d" d="M18.515,110.729c0,0.012,0,0.021,0,0.029v-0.051C18.515,110.716,18.515,110.724,18.515,110.729z"/>
		<path fill="#C0C3C7" d="M118.61,41.856l0.067-0.894c-5.358-0.879-10.861-1.329-16.446-1.329c-5.838,0-11.583,0.496-17.17,1.455    l0.069,0.891c5.519-0.958,11.238-1.464,17.101-1.464C107.838,40.516,113.316,40.979,118.61,41.856z"/>
		<path fill="#999EA1" d="M21.308,131.425c3.037,9.945,8.475,19.216,16.069,27.278l0.036-7.037    c-7.596-7.874-13.138-17.159-15.95-27.308L21.308,131.425z"/>
		<path fill="#C0C3C7" d="M47.318,127.362c-5.39-8.186-8.822-10.587-8.822-10.587l-15.929,5.875    c2.565,10.218,7.916,19.584,15.364,27.529l16.149-8.313C54.08,141.867,52.708,135.546,47.318,127.362z"/>
		<path fill="#9BA0A2" d="M82.327,175.495l-0.156,7.885c6.488,1.382,13.211,2.097,20.061,2.097c6.458,0,12.804-0.636,18.945-1.866    l0.074-7.937c-6.106,1.187-12.474,1.814-19.02,1.814C95.369,177.488,88.704,176.796,82.327,175.495z"/>
		<path fill="#C0C3C7" d="M119.604,157.354c0,0-3.922-2.108-18.477-2.108c-14.555,0-17.104,2.108-17.104,2.108l-1.666,16.611    l-0.005,0.226c6.261,1.289,12.807,1.977,19.548,1.977c6.674,0,13.159-0.676,19.364-1.938l0.002-0.264L119.604,157.354z"/>
		<path fill="#C0C3C7" d="M155.966,127.753c-6.421,9.85-6.569,13.869-6.569,13.869l16.335,8.708    c7.482-7.934,12.864-17.298,15.462-27.518l-15.966-6.037C165.228,116.775,162.385,117.901,155.966,127.753z"/>
		<path fill="#999EA1" d="M166.49,159.322c7.061-7.33,12.319-15.686,15.582-24.659l0.355-2.009l-0.063-6.168    c-3.058,9.594-8.566,18.367-15.945,25.828L166.49,159.322z"/>
		<path fill="#151415" d="M37.931,150.18l-0.513,0.264l-0.005,1.223c11.212,11.621,26.902,20.16,44.915,23.829l0.026-1.304    C64.461,170.511,48.916,161.894,37.931,150.18z"/>
		<path fill="#151415" d="M165.731,150.33c-11.013,11.679-26.573,20.254-44.466,23.899l-0.015,1.444    c18.047-3.504,33.817-11.881,45.169-23.359l-0.016-1.627L165.731,150.33z"/>
		<path fill="#1c1b1d" d="M178.779,83.338l-1.809,0.689c3.665,7.678,5.682,16.048,5.682,24.81c0,4.791-0.608,9.466-1.753,13.976    l1.137,0.431l0.033,3.243c1.779-5.581,2.73-11.442,2.73-17.485C184.8,99.925,182.659,91.264,178.779,83.338z"/>
		<path fill="#BEC1C5" d="M37.931,150.18c-7.448-7.945-12.799-17.312-15.364-27.529l-1.076,0.397l-0.029,1.311    c2.812,10.148,8.354,19.434,15.95,27.308l0.005-1.223L37.931,150.18z"/>
		<path fill="#A2A5A9" d="M101.901,176.168c-6.741,0-13.288-0.688-19.548-1.977l-0.026,1.304c6.376,1.301,13.042,1.993,19.904,1.993    c6.546,0,12.913-0.628,19.02-1.814l0.015-1.444C115.061,175.492,108.575,176.168,101.901,176.168z"/>
		<path fill="#BEC1C5" d="M181.193,122.813c-2.598,10.22-7.979,19.584-15.462,27.518l0.673,0.357l0.016,1.627    c7.379-7.461,12.888-16.234,15.945-25.828l-0.035-3.243L181.193,122.813z"/>
		<path fill="#C0C3C7" d="M161.389,59.895c-0.145-0.118-0.29-0.232-0.433-0.349l-0.861,0.438l-1.482,0.758l-13.184,6.732    c0,0-1.42,0.392,6.272,10.487c7.694,10.096,11.271,11.517,11.271,11.517l14.293-5.451l1.808-0.689l0.852-0.324    C175.756,74.459,169.509,66.607,161.389,59.895z"/>
		<path d="M185.976,109.001c0-18.561-8.731-36.001-24.587-49.106c-15.808-13.065-36.816-20.261-59.157-20.261    c-22.339,0-43.348,7.196-59.156,20.261C27.22,73,18.488,90.44,18.488,109.001c0,0.574,0.009,1.165,0.027,1.758v-0.051    c-0.019,0.622-0.027,1.241-0.027,1.845c0,19.503,8.726,37.832,24.571,51.606c15.811,13.746,36.824,21.317,59.173,21.317    s43.362-7.571,59.174-21.317c15.846-13.774,24.57-32.104,24.57-51.606c0-0.599-0.009-1.222-0.025-1.845v0.051    C185.967,110.164,185.976,109.575,185.976,109.001z M184.185,110.758c0.018,0.605,0.026,1.212,0.026,1.795    c0,18.986-8.511,36.84-23.964,50.276c-15.488,13.468-36.092,20.883-58.016,20.883c-21.922,0-42.526-7.415-58.015-20.883    c-15.453-13.437-23.963-31.29-23.963-50.276c0-0.586,0.008-1.189,0.025-1.795l0-0.025l0-0.027    c-0.017-0.573-0.025-1.148-0.025-1.704c0-37.276,36.774-67.604,81.979-67.604c45.203,0,81.979,30.327,81.979,67.604    c0,0.554-0.009,1.129-0.026,1.704v0.027V110.758z"/>
	</g>
	<g>
		<path d="M171.722,94.586c0.017,0.607,0.025,1.212,0.025,1.795c0,18.985-8.511,36.839-23.965,50.275    c-15.489,13.468-36.093,20.883-58.016,20.883s-42.525-7.415-58.015-20.883c-15.454-13.436-23.964-31.29-23.964-50.275    c0-0.586,0.008-1.189,0.026-1.795l0.001-0.026l-0.001-0.026c-0.018-0.575-0.026-1.148-0.026-1.705    c0-37.276,36.775-67.603,81.979-67.603c45.204,0,81.98,30.327,81.98,67.603c0,0.556-0.009,1.13-0.025,1.705l-0.003,0.026    L171.722,94.586z"/>
		<path fill="#393F45" d="M10.986,106.479c-1.119-4.459-1.71-9.08-1.71-13.814c0-8.709,1.989-17.032,5.612-24.671l-1.26-0.464    c-3.768,7.827-5.84,16.364-5.84,25.299c0,5.281,0.724,10.422,2.093,15.357l0.028-1.31L10.986,106.479z"/>
		<path fill="none" d="M139.238,61.79c-7.694-10.096-6.273-10.487-6.273-10.487l13.183-6.731    c-10.843-8.827-24.655-15.143-40.082-17.815l-0.916,12.104c0,0-3.787,1.567-15.151,1.567c-11.362,0-16.326-1.665-16.326-1.665    L72.74,26.768c-15.422,2.683-29.23,9.008-40.065,17.842l13.047,6.853c0,0-1.502,4.506-6.922,11.298    c-5.42,6.792-10.646,10.448-10.646,10.448l-14.149-5.216c-3.622,7.639-5.612,15.962-5.612,24.671c0,4.734,0.591,9.355,1.71,13.814    l15.929-5.875c0,0,3.431,2.401,8.821,10.586c5.391,8.184,6.763,14.505,6.763,14.505l-16.149,8.313    c10.985,11.715,26.53,20.331,44.422,24.012l0.004-0.225l1.666-16.612c0,0,2.548-2.108,17.104-2.108    c14.554,0,18.475,2.108,18.475,2.108l1.666,16.612l-0.002,0.263c17.894-3.646,33.451-12.221,44.467-23.899l-16.335-8.708    c0,0,0.147-4.02,6.566-13.868c6.422-9.853,9.264-10.978,9.264-10.978l15.965,6.038c1.146-4.511,1.752-9.185,1.752-13.978    c0-8.762-2.015-17.131-5.68-24.809l-14.292,5.451C150.509,73.306,146.933,71.885,139.238,61.79z"/>
		<path fill="#393F45" d="M173.484,94.535v0.051c0-0.009,0-0.017,0-0.025C173.484,94.553,173.484,94.544,173.484,94.535z"/>
		<path fill="#393F45" d="M6.05,94.558c0,0.009,0,0.02,0,0.028v-0.051C6.051,94.544,6.051,94.55,6.05,94.558z"/>
		<path fill="#E0E1E4" d="M106.146,25.684l0.067-0.895c-5.358-0.878-10.86-1.328-16.446-1.328c-5.838,0-11.583,0.496-17.17,1.455    l0.069,0.89c5.518-0.957,11.237-1.463,17.101-1.463C95.375,24.343,100.851,24.807,106.146,25.684z"/>
		<path fill="#BBBDC2" d="M8.844,115.252c3.036,9.945,8.475,19.219,16.069,27.278l0.036-7.037    c-7.596-7.874-13.138-17.159-15.95-27.308L8.844,115.252z"/>
		<path fill="#E0E1E4" d="M34.853,111.189c-5.39-8.185-8.821-10.586-8.821-10.586l-15.929,5.875    c2.565,10.218,7.916,19.584,15.364,27.528l16.149-8.313C41.616,125.694,40.244,119.373,34.853,111.189z"/>
		<path fill="#BCBFC4" d="M69.862,159.322l-0.156,7.886c6.487,1.381,13.211,2.096,20.06,2.096c6.458,0,12.804-0.636,18.945-1.866    l0.075-7.937c-6.107,1.187-12.475,1.815-19.021,1.815C82.905,161.316,76.239,160.623,69.862,159.322z"/>
		<path fill="#E0E1E4" d="M107.138,141.182c0,0-3.921-2.108-18.475-2.108c-14.555,0-17.104,2.108-17.104,2.108l-1.666,16.612    l-0.004,0.225c6.261,1.29,12.807,1.977,19.547,1.977c6.675,0,13.158-0.675,19.365-1.938l0.002-0.263L107.138,141.182z"/>
		<path fill="#E0E1E4" d="M143.5,111.581c-6.419,9.849-6.566,13.868-6.566,13.868l16.335,8.708    c7.48-7.934,12.862-17.298,15.46-27.516l-15.965-6.038C152.764,100.604,149.922,101.729,143.5,111.581z"/>
		<path fill="#BBBDC2" d="M154.026,143.151c7.061-7.332,12.317-15.688,15.581-24.661l0.357-2.009l-0.064-6.168    c-3.056,9.594-8.567,18.367-15.945,25.828L154.026,143.151z"/>
		<path fill="#383E44" d="M25.467,134.007l-0.513,0.264l-0.005,1.223c11.211,11.622,26.902,20.16,44.914,23.829l0.027-1.304    C51.997,154.338,36.452,145.722,25.467,134.007z"/>
		<path fill="#383E44" d="M153.269,134.157c-11.016,11.679-26.573,20.254-44.467,23.899l-0.015,1.444    c18.048-3.503,33.816-11.88,45.168-23.359l-0.016-1.627L153.269,134.157z"/>
		<path fill="#393F45" d="M166.315,67.166l-1.809,0.689c3.665,7.678,5.68,16.047,5.68,24.809c0,4.793-0.606,9.467-1.752,13.978    l1.138,0.43l0.034,3.242c1.776-5.581,2.729-11.442,2.729-17.485C172.335,83.754,170.193,75.092,166.315,67.166z"/>
		<path fill="#DEDFE3" d="M25.467,134.007c-7.448-7.944-12.799-17.311-15.364-27.528l-1.076,0.397l-0.029,1.31    c2.812,10.148,8.354,19.434,15.95,27.308l0.005-1.223L25.467,134.007z"/>
		<path fill="#C2C5C9" d="M89.437,159.995c-6.741,0-13.287-0.687-19.547-1.977l-0.027,1.304c6.377,1.301,13.042,1.994,19.904,1.994    c6.545,0,12.913-0.629,19.021-1.815l0.015-1.444C102.595,159.32,96.112,159.995,89.437,159.995z"/>
		<path fill="#DEDFE3" d="M168.729,106.642c-2.598,10.218-7.979,19.582-15.46,27.516l0.671,0.357l0.016,1.627    c7.378-7.461,12.89-16.234,15.945-25.828l-0.034-3.242L168.729,106.642z"/>
		<path d="M173.51,92.828c0-18.561-8.731-36-24.587-49.105c-15.807-13.066-36.816-20.261-59.156-20.261    c-22.339,0-43.348,7.195-59.156,20.261C14.756,56.828,6.023,74.268,6.023,92.828c0,0.574,0.009,1.167,0.027,1.758v-0.051    c-0.019,0.622-0.027,1.244-0.027,1.846c0,19.502,8.726,37.831,24.571,51.605c15.81,13.746,36.824,21.317,59.172,21.317    c22.348,0,43.364-7.571,59.173-21.317c15.846-13.774,24.57-32.103,24.57-51.605c0-0.601-0.008-1.222-0.025-1.846v0.051    C173.502,93.992,173.51,93.401,173.51,92.828z M171.722,94.586c0.017,0.607,0.025,1.212,0.025,1.795    c0,18.985-8.511,36.839-23.965,50.275c-15.489,13.468-36.093,20.883-58.016,20.883s-42.525-7.415-58.015-20.883    c-15.454-13.436-23.964-31.29-23.964-50.275c0-0.586,0.008-1.189,0.026-1.795l0.001-0.026l-0.001-0.026    c-0.018-0.575-0.026-1.148-0.026-1.705c0-37.276,36.775-67.603,81.979-67.603c45.204,0,81.98,30.327,81.98,67.603    c0,0.556-0.009,1.13-0.025,1.705l-0.003,0.026L171.722,94.586z"/>
	</g>
	<g>
		<path d="M178.912,76.943c0.017,0.607,0.025,1.212,0.025,1.796c0,18.984-8.511,36.839-23.965,50.276    c-15.489,13.466-36.093,20.883-58.016,20.883c-21.922,0-42.526-7.417-58.015-20.883c-15.454-13.437-23.964-31.292-23.964-50.276    c0-0.586,0.009-1.19,0.027-1.796l0.001-0.025l-0.001-0.027c-0.018-0.574-0.027-1.147-0.027-1.704    c0-37.276,36.776-67.603,81.979-67.603c45.204,0,81.98,30.327,81.98,67.603c0,0.555-0.009,1.128-0.025,1.705l-0.003,0.026    L178.912,76.943z"/>
		<path fill="#60666D" d="M18.175,88.836c-1.118-4.459-1.71-9.08-1.71-13.815c0-8.708,1.99-17.031,5.613-24.67l-1.261-0.465    c-3.767,7.828-5.84,16.364-5.84,25.3c0,5.28,0.725,10.421,2.093,15.357l0.029-1.31L18.175,88.836z"/>
		<path fill="none" d="M146.428,44.147c-7.694-10.095-6.274-10.488-6.274-10.488l13.185-6.732    c-10.843-8.826-24.655-15.142-40.083-17.814l-0.915,12.104c0,0-3.789,1.567-15.152,1.567c-11.362,0-16.325-1.666-16.325-1.666    L79.93,9.126c-15.422,2.683-29.229,9.008-40.063,17.843l13.046,6.852c0,0-1.502,4.506-6.922,11.298    c-5.421,6.792-10.645,10.448-10.645,10.448l-14.15-5.215c-3.623,7.639-5.612,15.961-5.612,24.67c0,4.735,0.591,9.356,1.711,13.815    l15.929-5.876c0,0,3.43,2.402,8.821,10.584c5.391,8.185,6.763,14.507,6.763,14.507l-16.149,8.313    c10.985,11.716,26.53,20.331,44.422,24.013l0.004-0.226l1.667-16.613c0,0,2.548-2.108,17.103-2.108    c14.556,0,18.476,2.108,18.476,2.108l1.667,16.613l-0.004,0.262c17.894-3.644,33.452-12.219,44.468-23.897l-16.335-8.708    c0,0,0.147-4.02,6.566-13.869c6.419-9.851,9.264-10.978,9.264-10.978l15.964,6.039c1.147-4.51,1.753-9.185,1.753-13.978    c0-8.761-2.015-17.131-5.679-24.808l-14.293,5.45C157.699,55.664,154.12,54.243,146.428,44.147z"/>
		<path fill="#60666D" d="M180.674,76.893v0.051c0.001-0.009,0.001-0.017,0.001-0.025C180.675,76.91,180.675,76.902,180.674,76.893z    "/>
		<path fill="#60666D" d="M13.24,76.916c0,0.01,0,0.019,0.001,0.029v-0.052C13.24,76.901,13.24,76.908,13.24,76.916z"/>
		<path fill="#FFFFFF" d="M113.335,8.042l0.068-0.894c-5.358-0.879-10.86-1.329-16.446-1.329c-5.838,0-11.583,0.496-17.171,1.455    l0.069,0.89c5.519-0.957,11.238-1.463,17.102-1.463C102.564,6.701,108.041,7.164,113.335,8.042z"/>
		<path fill="#FFFFFF" d="M97.188,22.785c11.363,0,15.152-1.567,15.152-1.567l0.915-12.104c-5.368-0.93-10.93-1.422-16.628-1.422    c-5.725,0-11.308,0.496-16.697,1.434l0.933,11.993C80.863,21.119,85.825,22.785,97.188,22.785z"/>
		<path fill="#DCDCE0" d="M16.033,97.608c3.038,9.946,8.476,19.219,16.07,27.28l0.036-7.037    C24.542,109.978,19,100.692,16.188,90.543L16.033,97.608z"/>
		<path fill="#FFFFFF" d="M42.043,93.545c-5.391-8.183-8.821-10.584-8.821-10.584l-15.929,5.876    c2.564,10.217,7.915,19.584,15.363,27.528l16.149-8.313C48.806,108.052,47.434,101.729,42.043,93.545z"/>
		<path fill="#DDDEE1" d="M77.053,141.682l-0.156,7.883c6.487,1.383,13.21,2.099,20.06,2.099c6.458,0,12.803-0.637,18.944-1.869    l0.077-7.935c-6.109,1.187-12.477,1.815-19.021,1.815C90.094,143.675,83.429,142.981,77.053,141.682z"/>
		<path fill="#FFFFFF" d="M114.328,123.538c0,0-3.92-2.108-18.476-2.108c-14.555,0-17.103,2.108-17.103,2.108l-1.667,16.613    l-0.004,0.226c6.261,1.288,12.808,1.977,19.548,1.977c6.675,0,13.158-0.675,19.364-1.94l0.004-0.262L114.328,123.538z"/>
		<path fill="#FFFFFF" d="M150.69,93.938c-6.419,9.85-6.566,13.869-6.566,13.869l16.335,8.708    c7.48-7.934,12.862-17.299,15.459-27.517l-15.964-6.039C159.954,82.96,157.109,84.088,150.69,93.938z"/>
		<path fill="#DCDCE0" d="M161.217,125.509c7.058-7.33,12.317-15.687,15.581-24.66l0.357-2.011l-0.065-6.166    c-3.056,9.594-8.565,18.366-15.944,25.826L161.217,125.509z"/>
		<path fill="#60666C" d="M32.657,116.364l-0.513,0.265l-0.005,1.223c11.211,11.622,26.901,20.158,44.914,23.83l0.026-1.305    C59.187,136.695,43.642,128.08,32.657,116.364z"/>
		<path fill="#60666C" d="M160.459,116.516c-11.016,11.679-26.574,20.254-44.468,23.897l-0.013,1.446    c18.045-3.502,33.815-11.881,45.167-23.361l-0.016-1.625L160.459,116.516z"/>
		<path fill="#60666D" d="M173.506,49.523l-1.809,0.69c3.665,7.677,5.68,16.047,5.68,24.808c0,4.793-0.606,9.467-1.752,13.978    l1.139,0.431l0.033,3.243c1.777-5.583,2.729-11.442,2.729-17.486C179.525,66.111,177.385,57.45,173.506,49.523z"/>
		<path fill="#DFDFE2" d="M96.627,8.868c5.698,0,11.26,0.492,16.628,1.421l0.08-1.072c-5.294-0.877-10.771-1.341-16.378-1.341    c-5.863,0-11.583,0.507-17.102,1.463l0.074,0.961C85.319,9.364,90.902,8.868,96.627,8.868z"/>
		<path fill="#FFFFFF" d="M39.866,26.969l-1.068-0.561l-0.85-0.446c-0.049,0.04-0.099,0.079-0.147,0.119    c-8.239,6.81-14.549,14.792-18.716,23.493l0.851,0.313l1.259,0.465l14.15,5.215c0,0,5.224-3.657,10.645-10.448    c5.42-6.792,6.922-11.298,6.922-11.298L39.866,26.969z"/>
		<path fill="#FDFEFE" d="M32.657,116.364c-7.448-7.943-12.799-17.311-15.363-27.528l-1.076,0.397l-0.03,1.31    c2.813,10.149,8.354,19.434,15.951,27.308l0.005-1.223L32.657,116.364z"/>
		<path fill="#E3E4E7" d="M96.627,142.354c-6.741,0-13.287-0.688-19.548-1.977l-0.026,1.305c6.376,1.3,13.042,1.993,19.904,1.993    c6.545,0,12.912-0.629,19.021-1.815l0.013-1.446C109.785,141.679,103.302,142.354,96.627,142.354z"/>
		<path fill="#FDFEFE" d="M175.918,88.999c-2.597,10.218-7.979,19.583-15.459,27.517l0.671,0.357l0.016,1.625    c7.379-7.46,12.889-16.231,15.944-25.826l-0.033-3.243L175.918,88.999z"/>
		<path fill="#FFFFFF" d="M156.113,26.08c-0.142-0.118-0.288-0.232-0.433-0.349l-0.86,0.439l-1.482,0.757l-13.185,6.732    c0,0-1.42,0.393,6.274,10.488c7.692,10.095,11.271,11.516,11.271,11.516l14.293-5.45l1.808-0.69l0.849-0.324    C170.48,40.645,164.234,32.792,156.113,26.08z"/>
		<path d="M180.701,75.187c0-18.562-8.732-36.001-24.588-49.106C140.306,13.015,119.296,5.819,96.957,5.819    c-22.34,0-43.349,7.196-59.156,20.261C21.945,39.186,13.213,56.625,13.213,75.187c0,0.574,0.009,1.166,0.028,1.758v-0.052    c-0.019,0.622-0.028,1.243-0.028,1.846c0,19.503,8.727,37.83,24.571,51.607c15.81,13.745,36.825,21.317,59.173,21.317    c22.348,0,43.363-7.572,59.173-21.317c15.846-13.777,24.571-32.104,24.571-51.607c0-0.601-0.009-1.222-0.027-1.846v0.051    C180.692,76.35,180.701,75.759,180.701,75.187z M178.912,76.943c0.017,0.607,0.025,1.212,0.025,1.796    c0,18.984-8.511,36.839-23.965,50.276c-15.489,13.466-36.093,20.883-58.016,20.883c-21.922,0-42.526-7.417-58.015-20.883    c-15.454-13.437-23.964-31.292-23.964-50.276c0-0.586,0.009-1.19,0.027-1.796l0.001-0.025l-0.001-0.027    c-0.018-0.574-0.027-1.147-0.027-1.704c0-37.276,36.776-67.603,81.979-67.603c45.204,0,81.98,30.327,81.98,67.603    c0,0.555-0.009,1.128-0.025,1.705l-0.003,0.026L178.912,76.943z"/>
		<path fill="#FFFFFF" d="M71.917,31.388l-0.391-1.2C67.1,31.976,63,34.219,59.318,36.845l1.239,0.826    C63.994,35.21,67.806,33.094,71.917,31.388z"/>
		<path fill="#FFFFFF" d="M92.957,26.661l0.091-1.182c-4.979,0.264-9.783,1.046-14.331,2.286l0.518,1.115    C83.591,27.684,88.191,26.924,92.957,26.661z"/>
		<path fill="#FFFFFF" d="M54.637,42.617l-1.119-0.994c-3.168,3.016-5.872,6.367-8.018,9.98l1.685,0.434    C49.189,48.637,51.701,45.476,54.637,42.617z"/>
		<path fill="#FFFFFF" d="M114.28,28.905l0.66-1.116c-4.452-1.221-9.151-2.003-14.021-2.289l0.061,1.188    C105.598,26.979,110.053,27.737,114.28,28.905z"/>
		<path fill="#FFFFFF" d="M146.453,52.418l1.874-0.366c-2.151-3.725-4.894-7.18-8.126-10.283l-1.367,0.896    C141.857,45.619,144.426,48.894,146.453,52.418z"/>
		<path fill="#FFFFFF" d="M151.656,70.625l2.06,0.276c-0.103-4.314-0.927-8.483-2.377-12.433l-1.886,0.428    C150.788,62.628,151.552,66.56,151.656,70.625z"/>
		<path fill="#FFFFFF" d="M44.146,58.404l-1.651-0.64c-1.515,3.896-2.415,8.016-2.611,12.282l1.912-0.204    C41.979,65.876,42.788,62.043,44.146,58.404z"/>
		<path fill="#FFFFFF" d="M112.495,114.74l0.352,1.629c5.244-1.255,10.177-3.107,14.673-5.462l-1.067-1.437    C122.171,111.73,117.48,113.518,112.495,114.74z"/>
		<path fill="#FFFFFF" d="M133.397,105.123l1.112,1.466c3.999-2.887,7.5-6.225,10.377-9.917l-1.729-0.997    C140.443,99.183,137.153,102.362,133.397,105.123z"/>
		<path fill="#FFFFFF" d="M151.177,77.641c-0.664,4.042-1.979,7.916-3.858,11.545l1.738,1.069c2.05-3.861,3.479-7.994,4.179-12.314    L151.177,77.641z"/>
		<path fill="#FFFFFF" d="M96.71,116.629c-2.799,0-5.55-0.175-8.237-0.504l-0.521,1.563c2.879,0.366,5.828,0.557,8.832,0.557    c2.6,0,5.159-0.146,7.667-0.419l-0.513-1.586C101.572,116.494,99.161,116.629,96.71,116.629z"/>
		<path fill="#FFFFFF" d="M42.142,76.973l-1.919,0.226c0.61,4.309,1.944,8.439,3.9,12.306l1.646-0.987    C43.966,84.882,42.729,81.01,42.142,76.973z"/>
		<path fill="#FFFFFF" d="M49.728,94.974l-1.752,0.769c2.758,3.731,6.141,7.119,10.031,10.069l1.2-1.302    C55.544,101.705,52.348,98.5,49.728,94.974z"/>
		<path fill="#FFFFFF" d="M66.009,108.951l-1.209,1.281c4.378,2.431,9.195,4.371,14.333,5.736l0.528-1.554    C74.774,113.11,70.187,111.262,66.009,108.951z"/>
		<path fill="#FFFFFF" d="M122.588,30.409l-0.847,1.077c4.197,1.763,8.078,3.957,11.562,6.507l1.007-1.104    C130.764,34.353,126.829,32.17,122.588,30.409z"/>
		<ellipse fill="#FFFFFF" cx="96.699" cy="71.338" rx="52.735" ry="43.193"/>
	</g>
</g>
</svg>
