<?xml version="1.0" encoding="UTF-8" standalone="no"?>
<!-- Generator: Adobe Illustrator 14.0.0, SVG Export Plug-In . SVG Version: 6.00 Build 43363)  -->

<svg
   xmlns:dc="http://purl.org/dc/elements/1.1/"
   xmlns:cc="http://creativecommons.org/ns#"
   xmlns:rdf="http://www.w3.org/1999/02/22-rdf-syntax-ns#"
   xmlns:svg="http://www.w3.org/2000/svg"
   xmlns="http://www.w3.org/2000/svg"
   xmlns:sodipodi="http://sodipodi.sourceforge.net/DTD/sodipodi-0.dtd"
   xmlns:inkscape="http://www.inkscape.org/namespaces/inkscape"
   version="1.1"
   id="Logo"
   x="0px"
   y="0px"
   width="192.756px"
   height="192.756px"
   viewBox="0 0 192.756 192.756"
   enable-background="new 0 0 192.756 192.756"
   xml:space="preserve"
   inkscape:version="0.48.4 r9939"
   sodipodi:docname="poker_celebs.svg"><metadata
     id="metadata171"><rdf:RDF><cc:Work
         rdf:about=""><dc:format>image/svg+xml</dc:format><dc:type
           rdf:resource="http://purl.org/dc/dcmitype/StillImage" /><dc:title></dc:title></cc:Work></rdf:RDF></metadata><defs
     id="defs169"><filter
       id="filter3756"
       inkscape:label="Colorize"
       inkscape:menu="Color"
       inkscape:menu-tooltip="Blend image or object with a flood color and set lightness and contrast"
       x="0"
       y="0"
       width="1"
       height="1"
       color-interpolation-filters="sRGB"><feColorMatrix
         id="feColorMatrix3758"
         values="1"
         in="SourceGraphic"
         type="saturate"
         result="result2" /><feFlood
         id="feFlood3760"
         flood-color="rgb(254,102,0)"
         flood-opacity="1"
         result="result1" /><feBlend
         id="feBlend3762"
         in2="result2"
         mode="multiply"
         in="result1"
         result="result3" /><feComposite
         id="feComposite3764"
         in2="SourceGraphic"
         operator="in"
         result="result4" /></filter><filter
       id="filter3970"
       style="color-interpolation-filters:sRGB;"
       inkscape:label="Drop Shadow"><feFlood
         id="feFlood3972"
         flood-opacity="0.5"
         flood-color="rgb(0,0,0)"
         result="flood" /><feComposite
         id="feComposite3974"
         in2="SourceGraphic"
         in="flood"
         operator="in"
         result="composite1" /><feGaussianBlur
         id="feGaussianBlur3976"
         in="composite"
         stdDeviation="2"
         result="blur" /><feOffset
         id="feOffset3978"
         dx="4"
         dy="4"
         result="offset" /><feComposite
         id="feComposite3980"
         in2="offset"
         in="SourceGraphic"
         operator="over"
         result="composite2" /></filter></defs><sodipodi:namedview
     pagecolor="#ffffff"
     bordercolor="#666666"
     borderopacity="1"
     objecttolerance="10"
     gridtolerance="10"
     guidetolerance="10"
     inkscape:pageopacity="0"
     inkscape:pageshadow="2"
     inkscape:window-width="1216"
     inkscape:window-height="920"
     id="namedview167"
     showgrid="false"
     inkscape:zoom="3.4629729"
     inkscape:cx="125.39226"
     inkscape:cy="102.01446"
     inkscape:window-x="198"
     inkscape:window-y="230"
     inkscape:window-maximized="0"
     inkscape:current-layer="g3" /><g
     id="g3"><g
       id="g5"><path
         d="M184.185,110.758c0.018,0.605,0.026,1.212,0.026,1.795c0,18.986-8.511,36.84-23.964,50.276    c-15.488,13.468-36.092,20.883-58.016,20.883c-21.922,0-42.526-7.415-58.015-20.883c-15.453-13.437-23.963-31.29-23.963-50.276    c0-0.586,0.008-1.189,0.025-1.795l0-0.025l0-0.027c-0.017-0.573-0.025-1.148-0.025-1.704c0-37.276,36.774-67.604,81.979-67.604    c45.203,0,81.979,30.327,81.979,67.604c0,0.554-0.009,1.129-0.026,1.704v0.027V110.758z"
         id="path7" /><path
         fill="#1c1b1d"
         d="M23.45,122.65c-1.119-4.458-1.71-9.08-1.71-13.813c0-8.709,1.99-17.032,5.612-24.671l-1.26-0.464    c-3.767,7.827-5.839,16.362-5.839,25.299c0,5.281,0.723,10.421,2.093,15.357l0.027-1.311L23.45,122.65z"
         id="path9" /><path
         fill="none"
         d="M151.701,77.961c-7.692-10.095-6.272-10.487-6.272-10.487l13.184-6.732    c-10.845-8.826-24.657-15.143-40.083-17.814l-0.917,12.104c0,0-3.787,1.567-15.149,1.567c-11.363,0-16.327-1.666-16.327-1.666    L85.205,42.94c-15.422,2.683-29.23,9.008-40.064,17.843l13.047,6.852c0,0-1.502,4.507-6.922,11.298    c-5.42,6.792-10.645,10.448-10.645,10.448l-14.149-5.216c-3.623,7.639-5.613,15.962-5.613,24.671c0,4.733,0.591,9.355,1.71,13.813    l15.929-5.875c0,0,3.432,2.401,8.822,10.587c5.391,8.184,6.762,14.505,6.762,14.505l-16.149,8.313    c10.985,11.714,26.53,20.331,44.422,24.012l0.005-0.226l1.666-16.611c0,0,2.548-2.108,17.104-2.108    c14.555,0,18.477,2.108,18.477,2.108l1.664,16.611l-0.002,0.264c17.893-3.646,33.453-12.221,44.466-23.899l-16.335-8.708    c0,0,0.148-4.02,6.569-13.869c6.419-9.852,9.262-10.978,9.262-10.978l15.966,6.037c1.145-4.51,1.753-9.185,1.753-13.976    c0-8.762-2.018-17.132-5.682-24.81l-14.293,5.451C162.972,89.479,159.396,88.058,151.701,77.961z"
         id="path11" /><path
         fill="#1c1b1d"
         d="M185.95,110.708v0.051c0-0.009,0-0.017,0-0.025C185.95,110.726,185.95,110.717,185.95,110.708z"
         id="path13" /><path
         fill="#1c1b1d"
         d="M18.515,110.729c0,0.012,0,0.021,0,0.029v-0.051C18.515,110.716,18.515,110.724,18.515,110.729z"
         id="path15" /><path
         fill="#C0C3C7"
         d="M118.61,41.856l0.067-0.894c-5.358-0.879-10.861-1.329-16.446-1.329c-5.838,0-11.583,0.496-17.17,1.455    l0.069,0.891c5.519-0.958,11.238-1.464,17.101-1.464C107.838,40.516,113.316,40.979,118.61,41.856z"
         id="path17" /><path
         fill="#999EA1"
         d="M21.308,131.425c3.037,9.945,8.475,19.216,16.069,27.278l0.036-7.037    c-7.596-7.874-13.138-17.159-15.95-27.308L21.308,131.425z"
         id="path19" /><path
         fill="#C0C3C7"
         d="M47.318,127.362c-5.39-8.186-8.822-10.587-8.822-10.587l-15.929,5.875    c2.565,10.218,7.916,19.584,15.364,27.529l16.149-8.313C54.08,141.867,52.708,135.546,47.318,127.362z"
         id="path21" /><path
         fill="#9BA0A2"
         d="M82.327,175.495l-0.156,7.885c6.488,1.382,13.211,2.097,20.061,2.097c6.458,0,12.804-0.636,18.945-1.866    l0.074-7.937c-6.106,1.187-12.474,1.814-19.02,1.814C95.369,177.488,88.704,176.796,82.327,175.495z"
         id="path23" /><path
         fill="#C0C3C7"
         d="M119.604,157.354c0,0-3.922-2.108-18.477-2.108c-14.555,0-17.104,2.108-17.104,2.108l-1.666,16.611    l-0.005,0.226c6.261,1.289,12.807,1.977,19.548,1.977c6.674,0,13.159-0.676,19.364-1.938l0.002-0.264L119.604,157.354z"
         id="path25" /><path
         fill="#C0C3C7"
         d="M155.966,127.753c-6.421,9.85-6.569,13.869-6.569,13.869l16.335,8.708    c7.482-7.934,12.864-17.298,15.462-27.518l-15.966-6.037C165.228,116.775,162.385,117.901,155.966,127.753z"
         id="path27" /><path
         fill="#999EA1"
         d="M166.49,159.322c7.061-7.33,12.319-15.686,15.582-24.659l0.355-2.009l-0.063-6.168    c-3.058,9.594-8.566,18.367-15.945,25.828L166.49,159.322z"
         id="path29" /><path
         fill="#151415"
         d="M37.931,150.18l-0.513,0.264l-0.005,1.223c11.212,11.621,26.902,20.16,44.915,23.829l0.026-1.304    C64.461,170.511,48.916,161.894,37.931,150.18z"
         id="path31" /><path
         fill="#151415"
         d="M165.731,150.33c-11.013,11.679-26.573,20.254-44.466,23.899l-0.015,1.444    c18.047-3.504,33.817-11.881,45.169-23.359l-0.016-1.627L165.731,150.33z"
         id="path33" /><path
         fill="#1c1b1d"
         d="M178.779,83.338l-1.809,0.689c3.665,7.678,5.682,16.048,5.682,24.81c0,4.791-0.608,9.466-1.753,13.976    l1.137,0.431l0.033,3.243c1.779-5.581,2.73-11.442,2.73-17.485C184.8,99.925,182.659,91.264,178.779,83.338z"
         id="path35" /><path
         fill="#BEC1C5"
         d="M37.931,150.18c-7.448-7.945-12.799-17.312-15.364-27.529l-1.076,0.397l-0.029,1.311    c2.812,10.148,8.354,19.434,15.95,27.308l0.005-1.223L37.931,150.18z"
         id="path37" /><path
         fill="#A2A5A9"
         d="M101.901,176.168c-6.741,0-13.288-0.688-19.548-1.977l-0.026,1.304c6.376,1.301,13.042,1.993,19.904,1.993    c6.546,0,12.913-0.628,19.02-1.814l0.015-1.444C115.061,175.492,108.575,176.168,101.901,176.168z"
         id="path39" /><path
         fill="#BEC1C5"
         d="M181.193,122.813c-2.598,10.22-7.979,19.584-15.462,27.518l0.673,0.357l0.016,1.627    c7.379-7.461,12.888-16.234,15.945-25.828l-0.035-3.243L181.193,122.813z"
         id="path41" /><path
         fill="#C0C3C7"
         d="M161.389,59.895c-0.145-0.118-0.29-0.232-0.433-0.349l-0.861,0.438l-1.482,0.758l-13.184,6.732    c0,0-1.42,0.392,6.272,10.487c7.694,10.096,11.271,11.517,11.271,11.517l14.293-5.451l1.808-0.689l0.852-0.324    C175.756,74.459,169.509,66.607,161.389,59.895z"
         id="path43" /><path
         d="M185.976,109.001c0-18.561-8.731-36.001-24.587-49.106c-15.808-13.065-36.816-20.261-59.157-20.261    c-22.339,0-43.348,7.196-59.156,20.261C27.22,73,18.488,90.44,18.488,109.001c0,0.574,0.009,1.165,0.027,1.758v-0.051    c-0.019,0.622-0.027,1.241-0.027,1.845c0,19.503,8.726,37.832,24.571,51.606c15.811,13.746,36.824,21.317,59.173,21.317    s43.362-7.571,59.174-21.317c15.846-13.774,24.57-32.104,24.57-51.606c0-0.599-0.009-1.222-0.025-1.845v0.051    C185.967,110.164,185.976,109.575,185.976,109.001z M184.185,110.758c0.018,0.605,0.026,1.212,0.026,1.795    c0,18.986-8.511,36.84-23.964,50.276c-15.488,13.468-36.092,20.883-58.016,20.883c-21.922,0-42.526-7.415-58.015-20.883    c-15.453-13.437-23.963-31.29-23.963-50.276c0-0.586,0.008-1.189,0.025-1.795l0-0.025l0-0.027    c-0.017-0.573-0.025-1.148-0.025-1.704c0-37.276,36.774-67.604,81.979-67.604c45.203,0,81.979,30.327,81.979,67.604    c0,0.554-0.009,1.129-0.026,1.704v0.027V110.758z"
         id="path45" /><text
         xml:space="preserve"
         style="font-size:40px;font-style:normal;font-weight:normal;line-height:125%;letter-spacing:0px;word-spacing:0px;fill:#000000;fill-opacity:1;stroke:none;font-family:Sans"
         x="60.641537"
         y="70.317848"
         id="text3148"
         sodipodi:linespacing="125%"><tspan
           sodipodi:role="line"
           id="tspan3150"></tspan></text>
<flowRoot
         xml:space="preserve"
         id="flowRoot3169"
         style="fill:black;stroke:none;stroke-opacity:1;stroke-width:1px;stroke-linejoin:miter;stroke-linecap:butt;fill-opacity:1;font-family:Sans;font-style:normal;font-weight:normal;font-size:40px;line-height:125%;letter-spacing:0px;word-spacing:0px"><flowRegion
           id="flowRegion3171"><rect
             id="rect3173"
             width="39.561382"
             height="51.978458"
             x="226.68384"
             y="139.91122" /></flowRegion><flowPara
           id="flowPara3175"></flowPara></flowRoot></g><g
       id="g47"><path
         d="M171.722,94.586c0.017,0.607,0.025,1.212,0.025,1.795c0,18.985-8.511,36.839-23.965,50.275    c-15.489,13.468-36.093,20.883-58.016,20.883s-42.525-7.415-58.015-20.883c-15.454-13.436-23.964-31.29-23.964-50.275    c0-0.586,0.008-1.189,0.026-1.795l0.001-0.026l-0.001-0.026c-0.018-0.575-0.026-1.148-0.026-1.705    c0-37.276,36.775-67.603,81.979-67.603c45.204,0,81.98,30.327,81.98,67.603c0,0.556-0.009,1.13-0.025,1.705l-0.003,0.026    L171.722,94.586z"
         id="path49" /><path
         fill="#393F45"
         d="M10.986,106.479c-1.119-4.459-1.71-9.08-1.71-13.814c0-8.709,1.989-17.032,5.612-24.671l-1.26-0.464    c-3.768,7.827-5.84,16.364-5.84,25.299c0,5.281,0.724,10.422,2.093,15.357l0.028-1.31L10.986,106.479z"
         id="path51" /><path
         fill="none"
         d="M139.238,61.79c-7.694-10.096-6.273-10.487-6.273-10.487l13.183-6.731    c-10.843-8.827-24.655-15.143-40.082-17.815l-0.916,12.104c0,0-3.787,1.567-15.151,1.567c-11.362,0-16.326-1.665-16.326-1.665    L72.74,26.768c-15.422,2.683-29.23,9.008-40.065,17.842l13.047,6.853c0,0-1.502,4.506-6.922,11.298    c-5.42,6.792-10.646,10.448-10.646,10.448l-14.149-5.216c-3.622,7.639-5.612,15.962-5.612,24.671c0,4.734,0.591,9.355,1.71,13.814    l15.929-5.875c0,0,3.431,2.401,8.821,10.586c5.391,8.184,6.763,14.505,6.763,14.505l-16.149,8.313    c10.985,11.715,26.53,20.331,44.422,24.012l0.004-0.225l1.666-16.612c0,0,2.548-2.108,17.104-2.108    c14.554,0,18.475,2.108,18.475,2.108l1.666,16.612l-0.002,0.263c17.894-3.646,33.451-12.221,44.467-23.899l-16.335-8.708    c0,0,0.147-4.02,6.566-13.868c6.422-9.853,9.264-10.978,9.264-10.978l15.965,6.038c1.146-4.511,1.752-9.185,1.752-13.978    c0-8.762-2.015-17.131-5.68-24.809l-14.292,5.451C150.509,73.306,146.933,71.885,139.238,61.79z"
         id="path53" /><path
         fill="#393F45"
         d="M173.484,94.535v0.051c0-0.009,0-0.017,0-0.025C173.484,94.553,173.484,94.544,173.484,94.535z"
         id="path55" /><path
         fill="#393F45"
         d="M6.05,94.558c0,0.009,0,0.02,0,0.028v-0.051C6.051,94.544,6.051,94.55,6.05,94.558z"
         id="path57" /><path
         fill="#E0E1E4"
         d="M106.146,25.684l0.067-0.895c-5.358-0.878-10.86-1.328-16.446-1.328c-5.838,0-11.583,0.496-17.17,1.455    l0.069,0.89c5.518-0.957,11.237-1.463,17.101-1.463C95.375,24.343,100.851,24.807,106.146,25.684z"
         id="path59" /><path
         fill="#BBBDC2"
         d="M8.844,115.252c3.036,9.945,8.475,19.219,16.069,27.278l0.036-7.037    c-7.596-7.874-13.138-17.159-15.95-27.308L8.844,115.252z"
         id="path61" /><path
         fill="#E0E1E4"
         d="M34.853,111.189c-5.39-8.185-8.821-10.586-8.821-10.586l-15.929,5.875    c2.565,10.218,7.916,19.584,15.364,27.528l16.149-8.313C41.616,125.694,40.244,119.373,34.853,111.189z"
         id="path63" /><path
         fill="#BCBFC4"
         d="M69.862,159.322l-0.156,7.886c6.487,1.381,13.211,2.096,20.06,2.096c6.458,0,12.804-0.636,18.945-1.866    l0.075-7.937c-6.107,1.187-12.475,1.815-19.021,1.815C82.905,161.316,76.239,160.623,69.862,159.322z"
         id="path65" /><path
         fill="#E0E1E4"
         d="M107.138,141.182c0,0-3.921-2.108-18.475-2.108c-14.555,0-17.104,2.108-17.104,2.108l-1.666,16.612    l-0.004,0.225c6.261,1.29,12.807,1.977,19.547,1.977c6.675,0,13.158-0.675,19.365-1.938l0.002-0.263L107.138,141.182z"
         id="path67" /><path
         fill="#E0E1E4"
         d="M143.5,111.581c-6.419,9.849-6.566,13.868-6.566,13.868l16.335,8.708    c7.48-7.934,12.862-17.298,15.46-27.516l-15.965-6.038C152.764,100.604,149.922,101.729,143.5,111.581z"
         id="path69" /><path
         fill="#BBBDC2"
         d="M154.026,143.151c7.061-7.332,12.317-15.688,15.581-24.661l0.357-2.009l-0.064-6.168    c-3.056,9.594-8.567,18.367-15.945,25.828L154.026,143.151z"
         id="path71" /><path
         fill="#383E44"
         d="M25.467,134.007l-0.513,0.264l-0.005,1.223c11.211,11.622,26.902,20.16,44.914,23.829l0.027-1.304    C51.997,154.338,36.452,145.722,25.467,134.007z"
         id="path73" /><path
         fill="#383E44"
         d="M153.269,134.157c-11.016,11.679-26.573,20.254-44.467,23.899l-0.015,1.444    c18.048-3.503,33.816-11.88,45.168-23.359l-0.016-1.627L153.269,134.157z"
         id="path75" /><path
         fill="#393F45"
         d="M166.315,67.166l-1.809,0.689c3.665,7.678,5.68,16.047,5.68,24.809c0,4.793-0.606,9.467-1.752,13.978    l1.138,0.43l0.034,3.242c1.776-5.581,2.729-11.442,2.729-17.485C172.335,83.754,170.193,75.092,166.315,67.166z"
         id="path77" /><path
         fill="#DEDFE3"
         d="M25.467,134.007c-7.448-7.944-12.799-17.311-15.364-27.528l-1.076,0.397l-0.029,1.31    c2.812,10.148,8.354,19.434,15.95,27.308l0.005-1.223L25.467,134.007z"
         id="path79" /><path
         fill="#C2C5C9"
         d="M89.437,159.995c-6.741,0-13.287-0.687-19.547-1.977l-0.027,1.304c6.377,1.301,13.042,1.994,19.904,1.994    c6.545,0,12.913-0.629,19.021-1.815l0.015-1.444C102.595,159.32,96.112,159.995,89.437,159.995z"
         id="path81" /><path
         fill="#DEDFE3"
         d="M168.729,106.642c-2.598,10.218-7.979,19.582-15.46,27.516l0.671,0.357l0.016,1.627    c7.378-7.461,12.89-16.234,15.945-25.828l-0.034-3.242L168.729,106.642z"
         id="path83" /><path
         d="M173.51,92.828c0-18.561-8.731-36-24.587-49.105c-15.807-13.066-36.816-20.261-59.156-20.261    c-22.339,0-43.348,7.195-59.156,20.261C14.756,56.828,6.023,74.268,6.023,92.828c0,0.574,0.009,1.167,0.027,1.758v-0.051    c-0.019,0.622-0.027,1.244-0.027,1.846c0,19.502,8.726,37.831,24.571,51.605c15.81,13.746,36.824,21.317,59.172,21.317    c22.348,0,43.364-7.571,59.173-21.317c15.846-13.774,24.57-32.103,24.57-51.605c0-0.601-0.008-1.222-0.025-1.846v0.051    C173.502,93.992,173.51,93.401,173.51,92.828z M171.722,94.586c0.017,0.607,0.025,1.212,0.025,1.795    c0,18.985-8.511,36.839-23.965,50.275c-15.489,13.468-36.093,20.883-58.016,20.883s-42.525-7.415-58.015-20.883    c-15.454-13.436-23.964-31.29-23.964-50.275c0-0.586,0.008-1.189,0.026-1.795l0.001-0.026l-0.001-0.026    c-0.018-0.575-0.026-1.148-0.026-1.705c0-37.276,36.775-67.603,81.979-67.603c45.204,0,81.98,30.327,81.98,67.603    c0,0.556-0.009,1.13-0.025,1.705l-0.003,0.026L171.722,94.586z"
         id="path85" /></g><g
       id="g87"
       transform="translate(-1.1550769,2.3101538)"><path
         d="m 178.912,76.943 c 0.017,0.607 0.025,1.212 0.025,1.796 0,18.984 -8.511,36.839 -23.965,50.276 -15.489,13.466 -36.093,20.883 -58.016,20.883 -21.922,0 -42.526,-7.417 -58.015,-20.883 C 23.487,115.578 14.977,97.723 14.977,78.739 c 0,-0.586 0.009,-1.19 0.027,-1.796 l 0.001,-0.025 -0.001,-0.027 c -0.018,-0.574 -0.027,-1.147 -0.027,-1.704 0,-37.276 36.776,-67.603 81.979,-67.603 45.204,0 81.98,30.327 81.98,67.603 0,0.555 -0.009,1.128 -0.025,1.705 l -0.003,0.026 0.004,0.025 z"
         id="path89"
         inkscape:connector-curvature="0" /><path
         d="m 18.175,88.836 c -1.118,-4.459 -1.71,-9.08 -1.71,-13.815 0,-8.708 1.99,-17.031 5.613,-24.67 l -1.261,-0.465 c -3.767,7.828 -5.84,16.364 -5.84,25.3 0,5.28 0.725,10.421 2.093,15.357 l 0.029,-1.31 1.076,-0.397 z"
         id="path91"
         inkscape:connector-curvature="0"
         style="fill:#60666d" /><path
         d="m 146.428,44.147 c -7.694,-10.095 -6.274,-10.488 -6.274,-10.488 l 13.185,-6.732 C 142.496,18.101 128.684,11.785 113.256,9.113 l -0.915,12.104 c 0,0 -3.789,1.567 -15.152,1.567 -11.362,0 -16.325,-1.666 -16.325,-1.666 L 79.93,9.126 C 64.508,11.809 50.701,18.134 39.867,26.969 l 13.046,6.852 c 0,0 -1.502,4.506 -6.922,11.298 -5.421,6.792 -10.645,10.448 -10.645,10.448 l -14.15,-5.215 c -3.623,7.639 -5.612,15.961 -5.612,24.67 0,4.735 0.591,9.356 1.711,13.815 l 15.929,-5.876 c 0,0 3.43,2.402 8.821,10.584 5.391,8.185 6.763,14.507 6.763,14.507 l -16.149,8.313 c 10.985,11.716 26.53,20.331 44.422,24.013 l 0.004,-0.226 1.667,-16.613 c 0,0 2.548,-2.108 17.103,-2.108 14.556,0 18.476,2.108 18.476,2.108 l 1.667,16.613 -0.004,0.262 c 17.894,-3.644 33.452,-12.219 44.468,-23.897 l -16.335,-8.708 c 0,0 0.147,-4.02 6.566,-13.869 6.419,-9.851 9.264,-10.978 9.264,-10.978 l 15.964,6.039 c 1.147,-4.51 1.753,-9.185 1.753,-13.978 0,-8.761 -2.015,-17.131 -5.679,-24.808 l -14.293,5.45 c -0.003,-10e-4 -3.582,-1.422 -11.274,-11.518 z"
         id="path93"
         inkscape:connector-curvature="0"
         style="fill:none" /><path
         d="m 180.674,76.893 v 0.051 c 0.001,-0.009 0.001,-0.017 0.001,-0.025 0,-0.009 0,-0.017 -0.001,-0.026 z"
         id="path95"
         inkscape:connector-curvature="0"
         style="fill:#60666d" /><path
         d="m 13.24,76.916 c 0,0.01 0,0.019 10e-4,0.029 v -0.052 c -10e-4,0.008 -10e-4,0.015 -10e-4,0.023 z"
         id="path97"
         inkscape:connector-curvature="0"
         style="fill:#60666d" /><path
         d="m 113.335,8.042 0.068,-0.894 c -5.358,-0.879 -10.86,-1.329 -16.446,-1.329 -5.838,0 -11.583,0.496 -17.171,1.455 l 0.069,0.89 c 5.519,-0.957 11.238,-1.463 17.102,-1.463 5.607,0 11.084,0.463 16.378,1.341 z"
         id="path99"
         inkscape:connector-curvature="0"
         style="fill:#ffffff" /><path
         d="m 97.188,22.785 c 11.363,0 15.152,-1.567 15.152,-1.567 l 0.915,-12.104 c -5.368,-0.93 -10.93,-1.422 -16.628,-1.422 -5.725,0 -11.308,0.496 -16.697,1.434 l 0.933,11.993 c 0,0 4.962,1.666 16.325,1.666 z"
         id="path101"
         inkscape:connector-curvature="0"
         style="fill:#ffffff" /><path
         d="m 16.033,97.608 c 3.038,9.946 8.476,19.219 16.07,27.28 l 0.036,-7.037 C 24.542,109.978 19,100.692 16.188,90.543 l -0.155,7.065 z"
         id="path103"
         inkscape:connector-curvature="0"
         style="fill:#dcdce0" /><path
         d="M 42.043,93.545 C 36.652,85.362 33.222,82.961 33.222,82.961 l -15.929,5.876 c 2.564,10.217 7.915,19.584 15.363,27.528 l 16.149,-8.313 c 10e-4,0 -1.371,-6.323 -6.762,-14.507 z"
         id="path105"
         inkscape:connector-curvature="0"
         style="fill:#ffffff" /><path
         d="m 77.053,141.682 -0.156,7.883 c 6.487,1.383 13.21,2.099 20.06,2.099 6.458,0 12.803,-0.637 18.944,-1.869 l 0.077,-7.935 c -6.109,1.187 -12.477,1.815 -19.021,1.815 -6.863,0 -13.528,-0.694 -19.904,-1.993 z"
         id="path107"
         inkscape:connector-curvature="0"
         style="fill:#dddee1" /><path
         d="m 114.328,123.538 c 0,0 -3.92,-2.108 -18.476,-2.108 -14.555,0 -17.103,2.108 -17.103,2.108 l -1.667,16.613 -0.004,0.226 c 6.261,1.288 12.808,1.977 19.548,1.977 6.675,0 13.158,-0.675 19.364,-1.94 l 0.004,-0.262 -1.666,-16.614 z"
         id="path109"
         inkscape:connector-curvature="0"
         style="fill:#ffffff" /><path
         d="m 150.69,93.938 c -6.419,9.85 -6.566,13.869 -6.566,13.869 l 16.335,8.708 c 7.48,-7.934 12.862,-17.299 15.459,-27.517 l -15.964,-6.039 c 0,10e-4 -2.845,1.129 -9.264,10.979 z"
         id="path111"
         inkscape:connector-curvature="0"
         style="fill:#ffffff" /><path
         d="m 161.217,125.509 c 7.058,-7.33 12.317,-15.687 15.581,-24.66 l 0.357,-2.011 -0.065,-6.166 c -3.056,9.594 -8.565,18.366 -15.944,25.826 l 0.071,7.011 z"
         id="path113"
         inkscape:connector-curvature="0"
         style="fill:#dcdce0" /><path
         d="m 32.657,116.364 -0.513,0.265 -0.005,1.223 c 11.211,11.622 26.901,20.158 44.914,23.83 l 0.026,-1.305 C 59.187,136.695 43.642,128.08 32.657,116.364 z"
         id="path115"
         inkscape:connector-curvature="0"
         style="fill:#60666c" /><path
         d="m 160.459,116.516 c -11.016,11.679 -26.574,20.254 -44.468,23.897 l -0.013,1.446 c 18.045,-3.502 33.815,-11.881 45.167,-23.361 l -0.016,-1.625 -0.67,-0.357 z"
         id="path117"
         inkscape:connector-curvature="0"
         style="fill:#60666c" /><path
         d="m 173.506,49.523 -1.809,0.69 c 3.665,7.677 5.68,16.047 5.68,24.808 0,4.793 -0.606,9.467 -1.752,13.978 l 1.139,0.431 0.033,3.243 c 1.777,-5.583 2.729,-11.442 2.729,-17.486 -0.001,-9.076 -2.141,-17.737 -6.02,-25.664 z"
         id="path119"
         inkscape:connector-curvature="0"
         style="fill:#60666d" /><path
         d="m 96.627,8.868 c 5.698,0 11.26,0.492 16.628,1.421 l 0.08,-1.072 C 108.041,8.34 102.564,7.876 96.957,7.876 91.094,7.876 85.374,8.383 79.855,9.339 L 79.929,10.3 C 85.319,9.364 90.902,8.868 96.627,8.868 z"
         id="path121"
         inkscape:connector-curvature="0"
         style="fill:#dfdfe2" /><path
         d="m 39.866,26.969 -1.068,-0.561 -0.85,-0.446 c -0.049,0.04 -0.099,0.079 -0.147,0.119 -8.239,6.81 -14.549,14.792 -18.716,23.493 l 0.851,0.313 1.259,0.465 14.15,5.215 c 0,0 5.224,-3.657 10.645,-10.448 5.42,-6.792 6.922,-11.298 6.922,-11.298 L 39.866,26.969 z"
         id="path123"
         inkscape:connector-curvature="0"
         style="fill:#ffffff" /><path
         d="M 32.657,116.364 C 25.209,108.421 19.858,99.053 17.294,88.836 l -1.076,0.397 -0.03,1.31 c 2.813,10.149 8.354,19.434 15.951,27.308 l 0.005,-1.223 0.513,-0.264 z"
         id="path125"
         inkscape:connector-curvature="0"
         style="fill:#fdfefe" /><path
         d="m 96.627,142.354 c -6.741,0 -13.287,-0.688 -19.548,-1.977 l -0.026,1.305 c 6.376,1.3 13.042,1.993 19.904,1.993 6.545,0 12.912,-0.629 19.021,-1.815 l 0.013,-1.446 c -6.206,1.265 -12.689,1.94 -19.364,1.94 z"
         id="path127"
         inkscape:connector-curvature="0"
         style="fill:#e3e4e7" /><path
         d="m 175.918,88.999 c -2.597,10.218 -7.979,19.583 -15.459,27.517 l 0.671,0.357 0.016,1.625 c 7.379,-7.46 12.889,-16.231 15.944,-25.826 l -0.033,-3.243 -1.139,-0.43 z"
         id="path129"
         inkscape:connector-curvature="0"
         style="fill:#fdfefe" /><path
         d="m 156.113,26.08 c -0.142,-0.118 -0.288,-0.232 -0.433,-0.349 l -0.86,0.439 -1.482,0.757 -13.185,6.732 c 0,0 -1.42,0.393 6.274,10.488 7.692,10.095 11.271,11.516 11.271,11.516 l 14.293,-5.45 1.808,-0.69 0.849,-0.324 C 170.48,40.645 164.234,32.792 156.113,26.08 z"
         id="path131"
         inkscape:connector-curvature="0"
         style="fill:#ffffff" /><path
         d="m 180.701,75.187 c 0,-18.562 -8.732,-36.001 -24.588,-49.106 C 140.306,13.015 119.296,5.819 96.957,5.819 74.617,5.819 53.608,13.015 37.801,26.08 21.945,39.186 13.213,56.625 13.213,75.187 c 0,0.574 0.009,1.166 0.028,1.758 v -0.052 c -0.019,0.622 -0.028,1.243 -0.028,1.846 0,19.503 8.727,37.83 24.571,51.607 15.81,13.745 36.825,21.317 59.173,21.317 22.348,0 43.363,-7.572 59.173,-21.317 15.846,-13.777 24.571,-32.104 24.571,-51.607 0,-0.601 -0.009,-1.222 -0.027,-1.846 v 0.051 c 0.018,-0.594 0.027,-1.185 0.027,-1.757 z m -1.789,1.756 c 0.017,0.607 0.025,1.212 0.025,1.796 0,18.984 -8.511,36.839 -23.965,50.276 -15.489,13.466 -36.093,20.883 -58.016,20.883 -21.922,0 -42.526,-7.417 -58.015,-20.883 C 23.487,115.578 14.977,97.723 14.977,78.739 c 0,-0.586 0.009,-1.19 0.027,-1.796 l 0.001,-0.025 -0.001,-0.027 c -0.018,-0.574 -0.027,-1.147 -0.027,-1.704 0,-37.276 36.776,-67.603 81.979,-67.603 45.204,0 81.98,30.327 81.98,67.603 0,0.555 -0.009,1.128 -0.025,1.705 l -0.003,0.026 0.004,0.025 z"
         id="path133"
         inkscape:connector-curvature="0" /><path
         d="m 71.917,31.388 -0.391,-1.2 C 67.1,31.976 63,34.219 59.318,36.845 l 1.239,0.826 c 3.437,-2.461 7.249,-4.577 11.36,-6.283 z"
         id="path135"
         inkscape:connector-curvature="0"
         style="fill:#ffffff" /><path
         d="m 92.957,26.661 0.091,-1.182 c -4.979,0.264 -9.783,1.046 -14.331,2.286 l 0.518,1.115 c 4.356,-1.196 8.956,-1.956 13.722,-2.219 z"
         id="path137"
         inkscape:connector-curvature="0"
         style="fill:#ffffff" /><path
         d="m 54.637,42.617 -1.119,-0.994 c -3.168,3.016 -5.872,6.367 -8.018,9.98 l 1.685,0.434 c 2.004,-3.4 4.516,-6.561 7.452,-9.42 z"
         id="path139"
         inkscape:connector-curvature="0"
         style="fill:#ffffff" /><path
         d="m 114.28,28.905 0.66,-1.116 c -4.452,-1.221 -9.151,-2.003 -14.021,-2.289 l 0.061,1.188 c 4.618,0.291 9.073,1.049 13.3,2.217 z"
         id="path141"
         inkscape:connector-curvature="0"
         style="fill:#ffffff" /><path
         d="m 146.453,52.418 1.874,-0.366 c -2.151,-3.725 -4.894,-7.18 -8.126,-10.283 l -1.367,0.896 c 3.023,2.954 5.592,6.229 7.619,9.753 z"
         id="path143"
         inkscape:connector-curvature="0"
         style="fill:#ffffff" /><path
         d="m 151.656,70.625 2.06,0.276 c -0.103,-4.314 -0.927,-8.483 -2.377,-12.433 l -1.886,0.428 c 1.335,3.732 2.099,7.664 2.203,11.729 z"
         id="path145"
         inkscape:connector-curvature="0"
         style="fill:#ffffff" /><path
         d="m 44.146,58.404 -1.651,-0.64 C 40.98,61.66 40.08,65.78 39.884,70.046 l 1.912,-0.204 c 0.183,-3.966 0.992,-7.799 2.35,-11.438 z"
         id="path147"
         inkscape:connector-curvature="0"
         style="fill:#ffffff" /><path
         d="m 112.495,114.74 0.352,1.629 c 5.244,-1.255 10.177,-3.107 14.673,-5.462 l -1.067,-1.437 c -4.282,2.26 -8.973,4.048 -13.958,5.27 z"
         id="path149"
         inkscape:connector-curvature="0"
         style="fill:#ffffff" /><path
         d="m 133.397,105.123 1.112,1.466 c 3.999,-2.887 7.5,-6.225 10.377,-9.917 l -1.729,-0.997 c -2.714,3.508 -6.004,6.687 -9.76,9.448 z"
         id="path151"
         inkscape:connector-curvature="0"
         style="fill:#ffffff" /><path
         d="m 151.177,77.641 c -0.664,4.042 -1.979,7.916 -3.858,11.545 l 1.738,1.069 c 2.05,-3.861 3.479,-7.994 4.179,-12.314 l -2.059,-0.3 z"
         id="path153"
         inkscape:connector-curvature="0"
         style="fill:#ffffff" /><path
         d="m 96.71,116.629 c -2.799,0 -5.55,-0.175 -8.237,-0.504 l -0.521,1.563 c 2.879,0.366 5.828,0.557 8.832,0.557 2.6,0 5.159,-0.146 7.667,-0.419 l -0.513,-1.586 c -2.366,0.254 -4.777,0.389 -7.228,0.389 z"
         id="path155"
         inkscape:connector-curvature="0"
         style="fill:#ffffff" /><path
         d="m 42.142,76.973 -1.919,0.226 c 0.61,4.309 1.944,8.439 3.9,12.306 l 1.646,-0.987 C 43.966,84.882 42.729,81.01 42.142,76.973 z"
         id="path157"
         inkscape:connector-curvature="0"
         style="fill:#ffffff" /><path
         d="m 49.728,94.974 -1.752,0.769 c 2.758,3.731 6.141,7.119 10.031,10.069 l 1.2,-1.302 c -3.663,-2.805 -6.859,-6.01 -9.479,-9.536 z"
         id="path159"
         inkscape:connector-curvature="0"
         style="fill:#ffffff" /><path
         d="m 66.009,108.951 -1.209,1.281 c 4.378,2.431 9.195,4.371 14.333,5.736 l 0.528,-1.554 c -4.887,-1.304 -9.474,-3.152 -13.652,-5.463 z"
         id="path161"
         inkscape:connector-curvature="0"
         style="fill:#ffffff" /><path
         d="m 122.588,30.409 -0.847,1.077 c 4.197,1.763 8.078,3.957 11.562,6.507 l 1.007,-1.104 c -3.546,-2.536 -7.481,-4.719 -11.722,-6.48 z"
         id="path163"
         inkscape:connector-curvature="0"
         style="fill:#ffffff" /><ellipse
         cx="96.698997"
         cy="71.337997"
         rx="52.735001"
         ry="43.193001"
         id="ellipse165"
         d="m 149.434,71.337997 c 0,23.854836 -23.61027,43.193003 -52.735003,43.193003 -29.124736,0 -52.735,-19.338167 -52.735,-43.193003 0,-23.854835 23.610264,-43.193 52.735,-43.193 29.124733,0 52.735003,19.338165 52.735003,43.193 z"
         sodipodi:cx="96.698997"
         sodipodi:cy="71.337997"
         sodipodi:rx="52.735001"
         sodipodi:ry="43.193001"
         style="fill:#ffffff" /></g><path
       d="m 258.96496,150.61392 h -24.042 v -34.28 l 43.394,-53.566998 h -99.80101 l 44.18701,53.301998 v 34.545 h -23.581 c -8.151,0.019 -8.151,12.153 0,12.153 h 59.843 c 8.101,0 8.034,-12.135 0,-12.153 z m -30.317,-57.791998 c -0.008,-4.261 3.458,-7.728 7.73,-7.73 4.276,0.002 7.744,3.469 7.725,7.73 0.02,4.292 -3.448,7.755998 -7.725,7.727998 -4.273,0.028 -7.738,-3.434998 -7.73,-7.727998 z"
       id="path3"
       inkscape:connector-curvature="0"
       style="fill-rule:evenodd;filter:url(#filter3756)"
       transform="matrix(0.7453764,0,0,0.7343323,68.555911,-4.1162412)" /><path
       style="fill:#d40000;fill-opacity:0"
       d="m 215.47428,115.03259 c -1.25745,-0.36895 -2.5989,-1.98621 -2.84226,-3.42663 -0.15906,-0.94144 -0.0607,-1.46406 0.47602,-2.53032 1.19971,-2.38321 1.25466,-2.39404 12.15055,-2.39404 l 9.46169,0 0,-12.82569 0,-12.825688 -16.33323,-19.40244 c -8.98327,-10.671341 -16.28142,-19.454248 -16.21809,-19.517569 0.0633,-0.06332 16.62029,-0.08215 36.79326,-0.04183 l 36.67813,0.0733 -16.1285,19.618435 -16.12849,19.618435 0,12.651526 0,12.651524 9.60158,5.8e-4 c 8.57049,2.9e-4 9.7079,0.0547 10.59174,0.50534 2.92795,1.493 3.08728,5.77565 0.27663,7.43536 -0.95426,0.56351 -1.54306,0.57875 -24.22395,0.62707 -13.53265,0.0289 -23.62581,-0.0619 -24.15508,-0.21723 l 0,-1.3e-4 z m 32.42583,-46.058928 c 0.43563,-0.325244 1.18356,-1.075074 1.66207,-1.666292 1.22842,-1.51775 1.39642,-4.081274 0.39076,-5.962537 -1.03203,-1.930582 -2.96333,-3.03857 -5.24757,-3.010535 -1.89314,0.02323 -2.73901,0.345212 -4.01891,1.52978 -2.8392,2.627753 -2.22059,7.426984 1.19636,9.281361 1.46337,0.794172 4.85312,0.697404 6.01729,-0.171777 l 0,0 z"
       id="path3178"
       inkscape:connector-curvature="0" /><path
       style="fill:#d40000;fill-opacity:0"
       d="m 215.47428,115.03259 c -1.25745,-0.36895 -2.5989,-1.98621 -2.84226,-3.42663 -0.15906,-0.94144 -0.0607,-1.46406 0.47602,-2.53032 1.19971,-2.38321 1.25466,-2.39404 12.15055,-2.39404 l 9.46169,0 0,-12.82569 0,-12.825688 -16.33323,-19.40244 c -8.98327,-10.671341 -16.28142,-19.454248 -16.21809,-19.517569 0.0633,-0.06332 16.62029,-0.08215 36.79326,-0.04183 l 36.67813,0.0733 -16.1285,19.618435 -16.12849,19.618435 0,12.651526 0,12.651524 9.60158,5.8e-4 c 8.57049,2.9e-4 9.7079,0.0547 10.59174,0.50534 2.92795,1.493 3.08728,5.77565 0.27663,7.43536 -0.95426,0.56351 -1.54306,0.57875 -24.22395,0.62707 -13.53265,0.0289 -23.62581,-0.0619 -24.15508,-0.21723 l 0,-1.3e-4 z m 32.42583,-46.058928 c 0.43563,-0.325244 1.18356,-1.075074 1.66207,-1.666292 1.22842,-1.51775 1.39642,-4.081274 0.39076,-5.962537 -1.03203,-1.930582 -2.96333,-3.03857 -5.24757,-3.010535 -1.89314,0.02323 -2.73901,0.345212 -4.01891,1.52978 -2.8392,2.627753 -2.22059,7.426984 1.19636,9.281361 1.46337,0.794172 4.85312,0.697404 6.01729,-0.171777 l 0,0 z"
       id="path3180"
       inkscape:connector-curvature="0" /><path
       style="fill:#d40000;fill-opacity:1"
       d="m 242.3673,69.027952 c -1.99158,-0.867785 -3.57708,-3.756483 -3.16042,-5.75809 0.8887,-4.269218 5.88823,-6.159319 9.11352,-3.445419 3.8931,3.275827 1.58993,9.630337 -3.47754,9.594625 -0.88214,-0.0062 -1.99614,-0.182219 -2.47556,-0.391116 l 0,0 z"
       id="path3182"
       inkscape:connector-curvature="0" /><path
       style="fill:#d40000;fill-opacity:1;filter:url(#filter3970)"
       d="m 72.241544,113.49154 c -1.33963,-0.4823 -1.86587,-0.9074 -2.39865,-1.93769 -0.99273,-1.91972 -0.21336,-4.58766 1.67682,-5.74012 0.88842,-0.54168 1.47088,-0.57388 10.39833,-0.5749 l 9.4572,-10e-4 -0.01,-12.922418 -0.01,-12.922422 -16.29742,-19.347538 -16.29744,-19.347538 18.49545,-0.07432 c 10.1725,-0.04088 26.743336,-0.04088 36.824096,0 l 18.32865,0.07432 -16.03425,19.491922 -16.03424,19.491923 -0.007,12.778038 -0.007,12.778033 9.56226,0 c 9.17067,0 9.60633,0.0248 10.63828,0.60476 2.71272,1.52463 2.82229,5.35779 0.20885,7.30621 -0.81118,0.60476 -0.92869,0.60803 -24.112226,0.6707 -18.98229,0.0513 -23.49815,-0.009 -24.3827,-0.32788 l 0,0 z M 104.30916,67.728484 c 1.9631,-1.001926 2.98964,-2.751305 2.98964,-5.09482 0,-1.897728 -0.65256,-3.346742 -2.01174,-4.467091 -2.83078,-2.333369 -7.299036,-1.466212 -8.949046,1.736745 -1.43578,2.787112 -0.32598,6.449995 2.35659,7.777857 1.568556,0.776435 4.143456,0.798131 5.614556,0.04731 z"
       id="path3952"
       inkscape:connector-curvature="0"
       transform="matrix(1.3132065,0,0,1.2573106,-26.905608,-19.146141)" /></g></svg>