<?xml version="1.0" encoding="UTF-8"?>
<svg xmlns="http://www.w3.org/2000/svg" xmlns:xlink="http://www.w3.org/1999/xlink" width="25pt" height="25pt" viewBox="0 0 25 25" version="1.1">
<g id="surface1">
<path style=" stroke:none;fill-rule:nonzero;fill:rgb(0%,0%,0%);fill-opacity:1;" d="M 23.859375 14.347656 C 23.859375 14.425781 23.863281 14.503906 23.863281 14.578125 C 23.863281 17.039062 22.757812 19.351562 20.757812 21.09375 C 18.75 22.835938 16.082031 23.796875 13.242188 23.796875 C 10.402344 23.796875 7.734375 22.835938 5.726562 21.09375 C 3.726562 19.351562 2.625 17.039062 2.625 14.578125 C 2.625 14.503906 2.625 14.425781 2.625 14.347656 L 2.625 14.339844 C 2.625 14.265625 2.625 14.191406 2.625 14.121094 C 2.625 9.289062 7.386719 5.363281 13.242188 5.363281 C 19.097656 5.363281 23.863281 9.289062 23.863281 14.121094 C 23.863281 14.191406 23.859375 14.265625 23.859375 14.339844 Z M 23.859375 14.347656 "/>
<path style=" stroke:none;fill-rule:nonzero;fill:rgb(10.980392%,10.588235%,11.372549%);fill-opacity:1;" d="M 3.039062 15.886719 C 2.894531 15.308594 2.816406 14.710938 2.816406 14.097656 C 2.816406 12.96875 3.074219 11.890625 3.542969 10.902344 L 3.378906 10.84375 C 2.890625 11.855469 2.625 12.960938 2.625 14.121094 C 2.625 14.804688 2.71875 15.46875 2.894531 16.109375 L 2.898438 15.9375 Z M 3.039062 15.886719 "/>
<path style=" stroke:none;fill-rule:nonzero;fill:rgb(75.294118%,76.470588%,78.039216%);fill-opacity:1;" d="M 15.363281 5.421875 L 15.371094 5.304688 C 14.679688 5.191406 13.964844 5.132812 13.242188 5.132812 C 12.484375 5.132812 11.742188 5.199219 11.019531 5.324219 L 11.027344 5.4375 C 11.742188 5.3125 12.484375 5.25 13.242188 5.25 C 13.96875 5.25 14.679688 5.308594 15.363281 5.421875 Z M 15.363281 5.421875 "/>
<path style=" stroke:none;fill-rule:nonzero;fill:rgb(60%,61.960784%,63.137255%);fill-opacity:1;" d="M 2.761719 17.023438 C 3.152344 18.3125 3.859375 19.511719 4.839844 20.558594 L 4.847656 19.644531 C 3.863281 18.625 3.144531 17.421875 2.78125 16.109375 Z M 2.761719 17.023438 "/>
<path style=" stroke:none;fill-rule:nonzero;fill:rgb(75.294118%,76.470588%,78.039216%);fill-opacity:1;" d="M 6.128906 16.496094 C 5.429688 15.4375 4.988281 15.125 4.988281 15.125 L 2.921875 15.886719 C 3.253906 17.210938 3.949219 18.425781 4.914062 19.453125 L 7.003906 18.375 C 7.003906 18.375 6.828125 17.558594 6.128906 16.496094 Z M 6.128906 16.496094 "/>
<path style=" stroke:none;fill-rule:nonzero;fill:rgb(60.784314%,62.745098%,63.529412%);fill-opacity:1;" d="M 10.664062 22.734375 L 10.644531 23.753906 C 11.484375 23.933594 12.355469 24.027344 13.242188 24.027344 C 14.078125 24.027344 14.902344 23.941406 15.695312 23.785156 L 15.707031 22.753906 C 14.914062 22.910156 14.089844 22.992188 13.242188 22.992188 C 12.351562 22.992188 11.488281 22.902344 10.664062 22.734375 Z M 10.664062 22.734375 "/>
<path style=" stroke:none;fill-rule:nonzero;fill:rgb(75.294118%,76.470588%,78.039216%);fill-opacity:1;" d="M 15.492188 20.382812 C 15.492188 20.382812 14.984375 20.109375 13.097656 20.109375 C 11.214844 20.109375 10.882812 20.382812 10.882812 20.382812 L 10.667969 22.535156 L 10.667969 22.5625 C 11.476562 22.730469 12.328125 22.820312 13.199219 22.820312 C 14.0625 22.820312 14.902344 22.730469 15.707031 22.570312 L 15.707031 22.535156 Z M 15.492188 20.382812 "/>
<path style=" stroke:none;fill-rule:nonzero;fill:rgb(75.294118%,76.470588%,78.039216%);fill-opacity:1;" d="M 20.203125 16.546875 C 19.371094 17.824219 19.351562 18.34375 19.351562 18.34375 L 21.46875 19.472656 C 22.4375 18.445312 23.132812 17.230469 23.472656 15.910156 L 21.402344 15.125 C 21.402344 15.125 21.035156 15.273438 20.203125 16.546875 Z M 20.203125 16.546875 "/>
<path style=" stroke:none;fill-rule:nonzero;fill:rgb(60%,61.960784%,63.137255%);fill-opacity:1;" d="M 21.566406 20.636719 C 22.480469 19.6875 23.160156 18.605469 23.585938 17.445312 L 23.628906 17.183594 L 23.621094 16.382812 C 23.226562 17.625 22.511719 18.761719 21.558594 19.730469 Z M 21.566406 20.636719 "/>
<path style=" stroke:none;fill-rule:nonzero;fill:rgb(8.235294%,7.843137%,8.235294%);fill-opacity:1;" d="M 4.914062 19.453125 L 4.847656 19.488281 L 4.847656 19.644531 C 6.296875 21.152344 8.332031 22.257812 10.664062 22.734375 L 10.667969 22.5625 C 8.351562 22.085938 6.335938 20.972656 4.914062 19.453125 Z M 4.914062 19.453125 "/>
<path style=" stroke:none;fill-rule:nonzero;fill:rgb(8.235294%,7.843137%,8.235294%);fill-opacity:1;" d="M 21.46875 19.472656 C 20.042969 20.984375 18.027344 22.097656 15.707031 22.570312 L 15.707031 22.753906 C 18.042969 22.300781 20.085938 21.214844 21.558594 19.730469 L 21.554688 19.519531 Z M 21.46875 19.472656 "/>
<path style=" stroke:none;fill-rule:nonzero;fill:rgb(10.980392%,10.588235%,11.372549%);fill-opacity:1;" d="M 23.15625 10.796875 L 22.921875 10.882812 C 23.398438 11.878906 23.660156 12.964844 23.660156 14.097656 C 23.660156 14.71875 23.582031 15.324219 23.433594 15.910156 L 23.578125 15.964844 L 23.585938 16.382812 C 23.816406 15.660156 23.9375 14.902344 23.9375 14.121094 C 23.9375 12.945312 23.660156 11.820312 23.15625 10.796875 Z M 23.15625 10.796875 "/>
<path style=" stroke:none;fill-rule:nonzero;fill:rgb(74.509804%,75.686275%,77.254902%);fill-opacity:1;" d="M 4.914062 19.453125 C 3.949219 18.425781 3.253906 17.210938 2.921875 15.886719 L 2.785156 15.9375 L 2.78125 16.109375 C 3.144531 17.421875 3.863281 18.625 4.847656 19.644531 L 4.847656 19.488281 Z M 4.914062 19.453125 "/>
<path style=" stroke:none;fill-rule:nonzero;fill:rgb(63.529412%,64.705882%,66.27451%);fill-opacity:1;" d="M 13.199219 22.820312 C 12.328125 22.820312 11.476562 22.730469 10.667969 22.5625 L 10.664062 22.734375 C 11.488281 22.902344 12.351562 22.992188 13.242188 22.992188 C 14.089844 22.992188 14.914062 22.910156 15.707031 22.753906 L 15.707031 22.570312 C 14.902344 22.730469 14.0625 22.820312 13.199219 22.820312 Z M 13.199219 22.820312 "/>
<path style=" stroke:none;fill-rule:nonzero;fill:rgb(74.509804%,75.686275%,77.254902%);fill-opacity:1;" d="M 23.46875 15.910156 C 23.132812 17.230469 22.4375 18.445312 21.46875 19.472656 L 21.554688 19.519531 L 21.558594 19.730469 C 22.511719 18.761719 23.226562 17.628906 23.621094 16.382812 L 23.617188 15.964844 Z M 23.46875 15.910156 "/>
<path style=" stroke:none;fill-rule:nonzero;fill:rgb(75.294118%,76.470588%,78.039216%);fill-opacity:1;" d="M 20.90625 7.757812 C 20.886719 7.742188 20.867188 7.726562 20.847656 7.714844 L 20.738281 7.769531 L 20.546875 7.867188 L 18.839844 8.738281 C 18.839844 8.738281 18.652344 8.789062 19.648438 10.097656 C 20.648438 11.40625 21.109375 11.589844 21.109375 11.589844 L 22.960938 10.882812 L 23.195312 10.796875 L 23.304688 10.753906 C 22.765625 9.644531 21.957031 8.628906 20.90625 7.757812 Z M 20.90625 7.757812 "/>
<path style=" stroke:none;fill-rule:nonzero;fill:rgb(0%,0%,0%);fill-opacity:1;" d="M 24.089844 14.121094 C 24.089844 11.714844 22.960938 9.457031 20.90625 7.757812 C 18.859375 6.066406 16.136719 5.132812 13.242188 5.132812 C 10.347656 5.132812 7.628906 6.066406 5.578125 7.757812 C 3.527344 9.457031 2.394531 11.714844 2.394531 14.121094 C 2.394531 14.195312 2.394531 14.269531 2.398438 14.347656 L 2.398438 14.339844 C 2.394531 14.421875 2.394531 14.5 2.394531 14.578125 C 2.394531 17.105469 3.523438 19.480469 5.578125 21.265625 C 7.625 23.042969 10.347656 24.023438 13.242188 24.023438 C 16.136719 24.023438 18.859375 23.042969 20.90625 21.265625 C 22.960938 19.480469 24.089844 17.105469 24.089844 14.578125 C 24.089844 14.5 24.089844 14.421875 24.085938 14.339844 L 24.085938 14.347656 C 24.089844 14.269531 24.089844 14.195312 24.089844 14.121094 Z M 23.859375 14.347656 C 23.859375 14.425781 23.863281 14.503906 23.863281 14.578125 C 23.863281 17.039062 22.757812 19.351562 20.757812 21.09375 C 18.75 22.835938 16.082031 23.796875 13.242188 23.796875 C 10.402344 23.796875 7.734375 22.835938 5.726562 21.09375 C 3.726562 19.351562 2.625 17.039062 2.625 14.578125 C 2.625 14.503906 2.625 14.425781 2.625 14.347656 L 2.625 14.339844 C 2.625 14.265625 2.625 14.191406 2.625 14.121094 C 2.625 9.289062 7.386719 5.363281 13.242188 5.363281 C 19.097656 5.363281 23.863281 9.289062 23.863281 14.121094 C 23.863281 14.191406 23.859375 14.265625 23.859375 14.339844 Z M 23.859375 14.347656 "/>
<path style=" stroke:none;fill-rule:nonzero;fill:rgb(0%,0%,0%);fill-opacity:1;" d="M 22.242188 12.253906 C 22.246094 12.332031 22.246094 12.410156 22.246094 12.484375 C 22.246094 14.945312 21.144531 17.257812 19.144531 18.996094 C 17.136719 20.742188 14.46875 21.703125 11.628906 21.703125 C 8.789062 21.703125 6.121094 20.742188 4.113281 18.996094 C 2.109375 17.257812 1.007812 14.945312 1.007812 12.484375 C 1.007812 12.410156 1.007812 12.332031 1.011719 12.253906 L 1.011719 12.246094 C 1.007812 12.171875 1.007812 12.097656 1.007812 12.023438 C 1.007812 7.195312 5.773438 3.269531 11.628906 3.269531 C 17.484375 3.269531 22.246094 7.195312 22.246094 12.023438 C 22.246094 12.097656 22.246094 12.171875 22.242188 12.246094 Z M 22.242188 12.253906 "/>
<path style=" stroke:none;fill-rule:nonzero;fill:rgb(22.352941%,24.705882%,27.058824%);fill-opacity:1;" d="M 1.421875 13.792969 C 1.277344 13.214844 1.203125 12.617188 1.203125 12.003906 C 1.203125 10.875 1.460938 9.796875 1.929688 8.808594 L 1.765625 8.746094 C 1.277344 9.761719 1.007812 10.867188 1.007812 12.023438 C 1.007812 12.707031 1.101562 13.375 1.28125 14.015625 L 1.285156 13.84375 Z M 1.421875 13.792969 "/>
<path style=" stroke:none;fill-rule:nonzero;fill:rgb(87.843137%,88.235294%,89.411765%);fill-opacity:1;" d="M 13.75 3.328125 L 13.757812 3.210938 C 13.0625 3.097656 12.351562 3.039062 11.628906 3.039062 C 10.871094 3.039062 10.128906 3.101562 9.402344 3.226562 L 9.414062 3.34375 C 10.128906 3.21875 10.867188 3.152344 11.628906 3.152344 C 12.355469 3.152344 13.0625 3.214844 13.75 3.328125 Z M 13.75 3.328125 "/>
<path style=" stroke:none;fill-rule:nonzero;fill:rgb(73.333333%,74.117647%,76.078431%);fill-opacity:1;" d="M 1.144531 14.929688 C 1.539062 16.21875 2.242188 17.417969 3.226562 18.460938 L 3.230469 17.550781 C 2.246094 16.53125 1.53125 15.328125 1.164062 14.011719 Z M 1.144531 14.929688 "/>
<path style=" stroke:none;fill-rule:nonzero;fill:rgb(87.843137%,88.235294%,89.411765%);fill-opacity:1;" d="M 4.515625 14.402344 C 3.816406 13.34375 3.371094 13.03125 3.371094 13.03125 L 1.308594 13.792969 C 1.640625 15.117188 2.335938 16.328125 3.300781 17.359375 L 5.390625 16.28125 C 5.390625 16.28125 5.214844 15.460938 4.515625 14.402344 Z M 4.515625 14.402344 "/>
<path style=" stroke:none;fill-rule:nonzero;fill:rgb(73.72549%,74.901961%,76.862745%);fill-opacity:1;" d="M 9.050781 20.636719 L 9.027344 21.660156 C 9.871094 21.839844 10.742188 21.929688 11.628906 21.929688 C 12.464844 21.929688 13.285156 21.847656 14.082031 21.6875 L 14.089844 20.660156 C 13.300781 20.816406 12.476562 20.894531 11.628906 20.894531 C 10.738281 20.894531 9.875 20.804688 9.050781 20.636719 Z M 9.050781 20.636719 "/>
<path style=" stroke:none;fill-rule:nonzero;fill:rgb(87.843137%,88.235294%,89.411765%);fill-opacity:1;" d="M 13.878906 18.289062 C 13.878906 18.289062 13.371094 18.015625 11.484375 18.015625 C 9.597656 18.015625 9.269531 18.289062 9.269531 18.289062 L 9.054688 20.441406 L 9.054688 20.46875 C 9.863281 20.636719 10.710938 20.726562 11.585938 20.726562 C 12.449219 20.726562 13.289062 20.636719 14.09375 20.472656 L 14.09375 20.441406 Z M 13.878906 18.289062 "/>
<path style=" stroke:none;fill-rule:nonzero;fill:rgb(87.843137%,88.235294%,89.411765%);fill-opacity:1;" d="M 18.589844 14.453125 C 17.757812 15.730469 17.738281 16.25 17.738281 16.25 L 19.851562 17.378906 C 20.824219 16.351562 21.519531 15.136719 21.855469 13.8125 L 19.789062 13.03125 C 19.789062 13.03125 19.421875 13.175781 18.589844 14.453125 Z M 18.589844 14.453125 "/>
<path style=" stroke:none;fill-rule:nonzero;fill:rgb(73.333333%,74.117647%,76.078431%);fill-opacity:1;" d="M 19.953125 18.542969 C 20.867188 17.59375 21.546875 16.511719 21.96875 15.347656 L 22.015625 15.089844 L 22.007812 14.289062 C 21.613281 15.53125 20.898438 16.667969 19.941406 17.636719 Z M 19.953125 18.542969 "/>
<path style=" stroke:none;fill-rule:nonzero;fill:rgb(21.960784%,24.313725%,26.666667%);fill-opacity:1;" d="M 3.300781 17.359375 L 3.230469 17.394531 L 3.230469 17.550781 C 4.683594 19.054688 6.714844 20.164062 9.050781 20.636719 L 9.054688 20.46875 C 6.734375 19.992188 4.722656 18.875 3.300781 17.359375 Z M 3.300781 17.359375 "/>
<path style=" stroke:none;fill-rule:nonzero;fill:rgb(21.960784%,24.313725%,26.666667%);fill-opacity:1;" d="M 19.851562 17.378906 C 18.425781 18.890625 16.410156 20 14.09375 20.472656 L 14.089844 20.660156 C 16.429688 20.207031 18.472656 19.121094 19.941406 17.636719 L 19.941406 17.425781 Z M 19.851562 17.378906 "/>
<path style=" stroke:none;fill-rule:nonzero;fill:rgb(22.352941%,24.705882%,27.058824%);fill-opacity:1;" d="M 21.542969 8.699219 L 21.308594 8.789062 C 21.785156 9.785156 22.042969 10.867188 22.042969 12.003906 C 22.042969 12.625 21.964844 13.230469 21.816406 13.8125 L 21.964844 13.871094 L 21.96875 14.289062 C 22.199219 13.566406 22.324219 12.808594 22.324219 12.023438 C 22.324219 10.847656 22.046875 9.726562 21.542969 8.699219 Z M 21.542969 8.699219 "/>
<path style=" stroke:none;fill-rule:nonzero;fill:rgb(87.058824%,87.45098%,89.019608%);fill-opacity:1;" d="M 3.300781 17.359375 C 2.335938 16.328125 1.640625 15.117188 1.308594 13.792969 L 1.167969 13.84375 L 1.164062 14.015625 C 1.53125 15.328125 2.246094 16.53125 3.230469 17.550781 L 3.230469 17.394531 Z M 3.300781 17.359375 "/>
<path style=" stroke:none;fill-rule:nonzero;fill:rgb(76.078431%,77.254902%,78.823529%);fill-opacity:1;" d="M 11.585938 20.726562 C 10.710938 20.726562 9.863281 20.636719 9.054688 20.46875 L 9.050781 20.636719 C 9.875 20.804688 10.738281 20.894531 11.628906 20.894531 C 12.476562 20.894531 13.300781 20.8125 14.089844 20.660156 L 14.09375 20.472656 C 13.289062 20.636719 12.449219 20.726562 11.585938 20.726562 Z M 11.585938 20.726562 "/>
<path style=" stroke:none;fill-rule:nonzero;fill:rgb(87.058824%,87.45098%,89.019608%);fill-opacity:1;" d="M 21.855469 13.8125 C 21.519531 15.136719 20.824219 16.351562 19.851562 17.378906 L 19.941406 17.425781 L 19.941406 17.636719 C 20.898438 16.667969 21.613281 15.53125 22.007812 14.289062 L 22.003906 13.871094 Z M 21.855469 13.8125 "/>
<path style=" stroke:none;fill-rule:nonzero;fill:rgb(0%,0%,0%);fill-opacity:1;" d="M 22.476562 12.023438 C 22.476562 9.621094 21.34375 7.359375 19.289062 5.664062 C 17.242188 3.972656 14.523438 3.039062 11.628906 3.039062 C 8.734375 3.039062 6.011719 3.972656 3.964844 5.664062 C 1.910156 7.359375 0.78125 9.621094 0.78125 12.023438 C 0.78125 12.097656 0.78125 12.175781 0.785156 12.253906 L 0.785156 12.246094 C 0.78125 12.324219 0.78125 12.40625 0.78125 12.484375 C 0.78125 15.011719 1.910156 17.386719 3.964844 19.167969 C 6.011719 20.949219 8.734375 21.929688 11.628906 21.929688 C 14.523438 21.929688 17.246094 20.949219 19.292969 19.167969 C 21.34375 17.386719 22.476562 15.011719 22.476562 12.484375 C 22.476562 12.40625 22.472656 12.328125 22.472656 12.246094 L 22.472656 12.253906 C 22.472656 12.175781 22.476562 12.097656 22.476562 12.023438 Z M 22.242188 12.253906 C 22.246094 12.332031 22.246094 12.410156 22.246094 12.484375 C 22.246094 14.945312 21.144531 17.257812 19.144531 18.996094 C 17.136719 20.742188 14.46875 21.703125 11.628906 21.703125 C 8.789062 21.703125 6.121094 20.742188 4.113281 18.996094 C 2.109375 17.257812 1.007812 14.945312 1.007812 12.484375 C 1.007812 12.410156 1.007812 12.332031 1.011719 12.253906 L 1.011719 12.246094 C 1.007812 12.171875 1.007812 12.097656 1.007812 12.023438 C 1.007812 7.195312 5.773438 3.269531 11.628906 3.269531 C 17.484375 3.269531 22.246094 7.195312 22.246094 12.023438 C 22.246094 12.097656 22.246094 12.171875 22.242188 12.246094 Z M 22.242188 12.253906 "/>
<path style=" stroke:none;fill-rule:nonzero;fill:rgb(0%,0%,0%);fill-opacity:1;" d="M 23.175781 9.964844 C 23.175781 10.046875 23.179688 10.125 23.179688 10.199219 C 23.179688 12.660156 22.074219 14.972656 20.074219 16.710938 C 18.066406 18.457031 15.398438 19.417969 12.558594 19.417969 C 9.71875 19.417969 7.050781 18.457031 5.042969 16.710938 C 3.042969 14.972656 1.941406 12.660156 1.941406 10.199219 C 1.941406 10.125 1.941406 10.046875 1.945312 9.964844 L 1.945312 9.960938 C 1.941406 9.886719 1.941406 9.8125 1.941406 9.738281 C 1.941406 4.910156 6.703125 0.980469 12.558594 0.980469 C 18.414062 0.980469 23.179688 4.910156 23.179688 9.738281 C 23.179688 9.8125 23.175781 9.886719 23.175781 9.960938 Z M 23.175781 9.964844 "/>
<path style=" stroke:none;fill-rule:nonzero;fill:rgb(37.647059%,40%,42.745098%);fill-opacity:1;" d="M 2.355469 11.507812 C 2.210938 10.929688 2.132812 10.332031 2.132812 9.71875 C 2.132812 8.589844 2.390625 7.511719 2.859375 6.523438 L 2.695312 6.460938 C 2.207031 7.476562 1.941406 8.582031 1.941406 9.738281 C 1.941406 10.421875 2.035156 11.089844 2.210938 11.726562 L 2.214844 11.558594 Z M 2.355469 11.507812 "/>
<path style=" stroke:none;fill-rule:nonzero;fill:rgb(100%,100%,100%);fill-opacity:1;" d="M 14.679688 1.042969 L 14.691406 0.925781 C 13.996094 0.8125 13.28125 0.753906 12.558594 0.753906 C 11.804688 0.753906 11.058594 0.816406 10.335938 0.941406 L 10.34375 1.058594 C 11.058594 0.933594 11.800781 0.867188 12.558594 0.867188 C 13.285156 0.867188 13.996094 0.929688 14.679688 1.042969 Z M 14.679688 1.042969 "/>
<path style=" stroke:none;fill-rule:nonzero;fill:rgb(100%,100%,100%);fill-opacity:1;" d="M 12.589844 2.953125 C 14.0625 2.953125 14.550781 2.75 14.550781 2.75 L 14.671875 1.179688 C 13.976562 1.058594 13.253906 0.996094 12.515625 0.996094 C 11.773438 0.996094 11.050781 1.0625 10.355469 1.183594 L 10.472656 2.734375 C 10.472656 2.734375 11.117188 2.953125 12.589844 2.953125 Z M 12.589844 2.953125 "/>
<path style=" stroke:none;fill-rule:nonzero;fill:rgb(86.27451%,86.27451%,87.843137%);fill-opacity:1;" d="M 2.078125 12.644531 C 2.46875 13.933594 3.175781 15.132812 4.160156 16.175781 L 4.164062 15.265625 C 3.179688 14.246094 2.460938 13.042969 2.097656 11.726562 Z M 2.078125 12.644531 "/>
<path style=" stroke:none;fill-rule:nonzero;fill:rgb(100%,100%,100%);fill-opacity:1;" d="M 5.445312 12.117188 C 4.746094 11.058594 4.304688 10.746094 4.304688 10.746094 L 2.238281 11.507812 C 2.570312 12.832031 3.265625 14.042969 4.230469 15.074219 L 6.320312 13.996094 C 6.320312 13.996094 6.144531 13.175781 5.445312 12.117188 Z M 5.445312 12.117188 "/>
<path style=" stroke:none;fill-rule:nonzero;fill:rgb(86.666667%,87.058824%,88.235294%);fill-opacity:1;" d="M 9.980469 18.351562 L 9.960938 19.375 C 10.800781 19.554688 11.671875 19.644531 12.558594 19.644531 C 13.394531 19.644531 14.21875 19.5625 15.011719 19.402344 L 15.023438 18.375 C 14.230469 18.53125 13.40625 18.609375 12.558594 18.609375 C 11.671875 18.609375 10.808594 18.519531 9.980469 18.351562 Z M 9.980469 18.351562 "/>
<path style=" stroke:none;fill-rule:nonzero;fill:rgb(100%,100%,100%);fill-opacity:1;" d="M 14.808594 16.003906 C 14.808594 16.003906 14.300781 15.730469 12.417969 15.730469 C 10.53125 15.730469 10.199219 16.003906 10.199219 16.003906 L 9.984375 18.152344 L 9.984375 18.183594 C 10.796875 18.351562 11.644531 18.441406 12.515625 18.441406 C 13.382812 18.441406 14.222656 18.351562 15.023438 18.1875 L 15.023438 18.15625 Z M 14.808594 16.003906 "/>
<path style=" stroke:none;fill-rule:nonzero;fill:rgb(100%,100%,100%);fill-opacity:1;" d="M 19.519531 12.167969 C 18.6875 13.445312 18.667969 13.964844 18.667969 13.964844 L 20.785156 15.09375 C 21.753906 14.066406 22.449219 12.851562 22.789062 11.527344 L 20.71875 10.746094 C 20.71875 10.746094 20.351562 10.890625 19.519531 12.167969 Z M 19.519531 12.167969 "/>
<path style=" stroke:none;fill-rule:nonzero;fill:rgb(86.27451%,86.27451%,87.843137%);fill-opacity:1;" d="M 20.882812 16.257812 C 21.796875 15.308594 22.476562 14.226562 22.902344 13.0625 L 22.949219 12.804688 L 22.9375 12.003906 C 22.542969 13.246094 21.828125 14.382812 20.875 15.347656 Z M 20.882812 16.257812 "/>
<path style=" stroke:none;fill-rule:nonzero;fill:rgb(37.647059%,40%,42.352941%);fill-opacity:1;" d="M 4.230469 15.074219 L 4.164062 15.105469 L 4.164062 15.265625 C 5.617188 16.769531 7.648438 17.875 9.980469 18.351562 L 9.984375 18.183594 C 7.667969 17.707031 5.652344 16.589844 4.230469 15.074219 Z M 4.230469 15.074219 "/>
<path style=" stroke:none;fill-rule:nonzero;fill:rgb(37.647059%,40%,42.352941%);fill-opacity:1;" d="M 20.785156 15.09375 C 19.359375 16.605469 17.34375 17.714844 15.023438 18.1875 L 15.023438 18.375 C 17.359375 17.921875 19.402344 16.835938 20.875 15.347656 L 20.871094 15.140625 Z M 20.785156 15.09375 "/>
<path style=" stroke:none;fill-rule:nonzero;fill:rgb(37.647059%,40%,42.745098%);fill-opacity:1;" d="M 22.476562 6.414062 L 22.242188 6.503906 C 22.714844 7.5 22.976562 8.582031 22.976562 9.71875 C 22.976562 10.339844 22.898438 10.945312 22.75 11.527344 L 22.898438 11.585938 L 22.902344 12.003906 C 23.132812 11.28125 23.253906 10.523438 23.253906 9.738281 C 23.253906 8.5625 22.976562 7.441406 22.476562 6.414062 Z M 22.476562 6.414062 "/>
<path style=" stroke:none;fill-rule:nonzero;fill:rgb(87.45098%,87.45098%,88.627451%);fill-opacity:1;" d="M 12.515625 1.148438 C 13.253906 1.148438 13.976562 1.210938 14.671875 1.332031 L 14.679688 1.195312 C 13.996094 1.082031 13.285156 1.019531 12.558594 1.019531 C 11.800781 1.019531 11.058594 1.085938 10.34375 1.210938 L 10.351562 1.335938 C 11.050781 1.214844 11.773438 1.148438 12.515625 1.148438 Z M 12.515625 1.148438 "/>
<path style=" stroke:none;fill-rule:nonzero;fill:rgb(100%,100%,100%);fill-opacity:1;" d="M 5.164062 3.492188 L 5.027344 3.421875 L 4.914062 3.363281 C 4.910156 3.367188 4.902344 3.375 4.898438 3.378906 C 3.828125 4.261719 3.011719 5.292969 2.472656 6.421875 L 2.582031 6.460938 L 2.746094 6.523438 L 4.578125 7.199219 C 4.578125 7.199219 5.253906 6.722656 5.957031 5.84375 C 6.660156 4.964844 6.855469 4.382812 6.855469 4.382812 Z M 5.164062 3.492188 "/>
<path style=" stroke:none;fill-rule:nonzero;fill:rgb(99.215686%,99.607843%,99.607843%);fill-opacity:1;" d="M 4.230469 15.074219 C 3.265625 14.042969 2.574219 12.832031 2.238281 11.507812 L 2.101562 11.558594 L 2.097656 11.726562 C 2.460938 13.042969 3.179688 14.246094 4.164062 15.265625 L 4.164062 15.105469 Z M 4.230469 15.074219 "/>
<path style=" stroke:none;fill-rule:nonzero;fill:rgb(89.019608%,89.411765%,90.588235%);fill-opacity:1;" d="M 12.515625 18.441406 C 11.644531 18.441406 10.796875 18.351562 9.984375 18.183594 L 9.980469 18.351562 C 10.808594 18.519531 11.671875 18.609375 12.558594 18.609375 C 13.40625 18.609375 14.230469 18.527344 15.023438 18.375 L 15.023438 18.1875 C 14.222656 18.351562 13.382812 18.441406 12.515625 18.441406 Z M 12.515625 18.441406 "/>
<path style=" stroke:none;fill-rule:nonzero;fill:rgb(99.215686%,99.607843%,99.607843%);fill-opacity:1;" d="M 22.789062 11.527344 C 22.449219 12.851562 21.753906 14.066406 20.785156 15.09375 L 20.871094 15.140625 L 20.875 15.347656 C 21.828125 14.382812 22.542969 13.246094 22.9375 12.003906 L 22.933594 11.585938 Z M 22.789062 11.527344 "/>
<path style=" stroke:none;fill-rule:nonzero;fill:rgb(100%,100%,100%);fill-opacity:1;" d="M 20.222656 3.378906 C 20.203125 3.363281 20.183594 3.347656 20.164062 3.332031 L 20.054688 3.390625 L 19.863281 3.488281 L 18.15625 4.359375 C 18.15625 4.359375 17.96875 4.410156 18.96875 5.71875 C 19.964844 7.027344 20.425781 7.210938 20.425781 7.210938 L 22.277344 6.503906 L 22.511719 6.414062 L 22.621094 6.371094 C 22.082031 5.265625 21.273438 4.246094 20.222656 3.378906 Z M 20.222656 3.378906 "/>
<path style=" stroke:none;fill-rule:nonzero;fill:rgb(0%,0%,0%);fill-opacity:1;" d="M 23.40625 9.738281 C 23.40625 7.335938 22.277344 5.074219 20.222656 3.378906 C 18.175781 1.6875 15.453125 0.753906 12.558594 0.753906 C 9.664062 0.753906 6.945312 1.6875 4.898438 3.378906 C 2.84375 5.074219 1.710938 7.335938 1.710938 9.738281 C 1.710938 9.8125 1.710938 9.890625 1.714844 9.96875 L 1.714844 9.960938 C 1.710938 10.039062 1.710938 10.121094 1.710938 10.199219 C 1.710938 12.726562 2.84375 15.101562 4.894531 16.882812 C 6.941406 18.664062 9.664062 19.644531 12.558594 19.644531 C 15.453125 19.644531 18.175781 18.664062 20.222656 16.882812 C 22.277344 15.101562 23.40625 12.726562 23.40625 10.199219 C 23.40625 10.121094 23.40625 10.042969 23.402344 9.960938 L 23.402344 9.96875 C 23.40625 9.890625 23.40625 9.8125 23.40625 9.738281 Z M 23.175781 9.964844 C 23.175781 10.046875 23.179688 10.125 23.179688 10.199219 C 23.179688 12.660156 22.074219 14.972656 20.074219 16.710938 C 18.066406 18.457031 15.398438 19.417969 12.558594 19.417969 C 9.71875 19.417969 7.050781 18.457031 5.042969 16.710938 C 3.042969 14.972656 1.941406 12.660156 1.941406 10.199219 C 1.941406 10.125 1.941406 10.046875 1.945312 9.964844 L 1.945312 9.960938 C 1.941406 9.886719 1.941406 9.8125 1.941406 9.738281 C 1.941406 4.910156 6.703125 0.980469 12.558594 0.980469 C 18.414062 0.980469 23.179688 4.910156 23.179688 9.738281 C 23.179688 9.8125 23.175781 9.886719 23.175781 9.960938 Z M 23.175781 9.964844 "/>
<path style=" stroke:none;fill-rule:nonzero;fill:rgb(100%,100%,100%);fill-opacity:1;" d="M 9.316406 4.066406 L 9.265625 3.910156 C 8.691406 4.140625 8.160156 4.433594 7.683594 4.773438 L 7.84375 4.878906 C 8.289062 4.5625 8.78125 4.285156 9.316406 4.066406 Z M 9.316406 4.066406 "/>
<path style=" stroke:none;fill-rule:nonzero;fill:rgb(100%,100%,100%);fill-opacity:1;" d="M 12.042969 3.453125 L 12.054688 3.300781 C 11.40625 3.335938 10.785156 3.4375 10.195312 3.597656 L 10.261719 3.742188 C 10.828125 3.585938 11.421875 3.488281 12.042969 3.453125 Z M 12.042969 3.453125 "/>
<path style=" stroke:none;fill-rule:nonzero;fill:rgb(100%,100%,100%);fill-opacity:1;" d="M 7.078125 5.519531 L 6.933594 5.390625 C 6.523438 5.78125 6.171875 6.214844 5.894531 6.683594 L 6.113281 6.742188 C 6.371094 6.300781 6.695312 5.890625 7.078125 5.519531 Z M 7.078125 5.519531 "/>
<path style=" stroke:none;fill-rule:nonzero;fill:rgb(100%,100%,100%);fill-opacity:1;" d="M 14.804688 3.746094 L 14.886719 3.601562 C 14.3125 3.441406 13.703125 3.339844 13.074219 3.304688 L 13.082031 3.457031 C 13.679688 3.496094 14.253906 3.59375 14.804688 3.746094 Z M 14.804688 3.746094 "/>
<path style=" stroke:none;fill-rule:nonzero;fill:rgb(100%,100%,100%);fill-opacity:1;" d="M 18.96875 6.789062 L 19.214844 6.742188 C 18.933594 6.261719 18.578125 5.8125 18.160156 5.410156 L 17.984375 5.527344 C 18.375 5.910156 18.707031 6.332031 18.96875 6.789062 Z M 18.96875 6.789062 "/>
<path style=" stroke:none;fill-rule:nonzero;fill:rgb(100%,100%,100%);fill-opacity:1;" d="M 19.644531 9.148438 L 19.910156 9.183594 C 19.898438 8.625 19.792969 8.085938 19.601562 7.574219 L 19.359375 7.628906 C 19.53125 8.113281 19.632812 8.621094 19.644531 9.148438 Z M 19.644531 9.148438 "/>
<path style=" stroke:none;fill-rule:nonzero;fill:rgb(100%,100%,100%);fill-opacity:1;" d="M 5.71875 7.566406 L 5.503906 7.480469 C 5.308594 7.988281 5.191406 8.519531 5.167969 9.074219 L 5.414062 9.046875 C 5.4375 8.53125 5.542969 8.035156 5.71875 7.566406 Z M 5.71875 7.566406 "/>
<path style=" stroke:none;fill-rule:nonzero;fill:rgb(100%,100%,100%);fill-opacity:1;" d="M 14.570312 14.863281 L 14.617188 15.074219 C 15.296875 14.910156 15.9375 14.671875 16.519531 14.367188 L 16.378906 14.179688 C 15.824219 14.472656 15.21875 14.703125 14.570312 14.863281 Z M 14.570312 14.863281 "/>
<path style=" stroke:none;fill-rule:nonzero;fill:rgb(100%,100%,100%);fill-opacity:1;" d="M 17.28125 13.617188 L 17.421875 13.808594 C 17.941406 13.433594 18.394531 13 18.769531 12.523438 L 18.542969 12.394531 C 18.191406 12.847656 17.765625 13.257812 17.28125 13.617188 Z M 17.28125 13.617188 "/>
<path style=" stroke:none;fill-rule:nonzero;fill:rgb(100%,100%,100%);fill-opacity:1;" d="M 19.582031 10.058594 C 19.496094 10.582031 19.324219 11.082031 19.082031 11.550781 L 19.308594 11.691406 C 19.574219 11.191406 19.757812 10.65625 19.847656 10.097656 Z M 19.582031 10.058594 "/>
<path style=" stroke:none;fill-rule:nonzero;fill:rgb(100%,100%,100%);fill-opacity:1;" d="M 12.527344 15.105469 C 12.164062 15.105469 11.808594 15.085938 11.460938 15.042969 L 11.394531 15.246094 C 11.765625 15.292969 12.148438 15.316406 12.535156 15.316406 C 12.875 15.316406 13.203125 15.296875 13.53125 15.261719 L 13.464844 15.058594 C 13.15625 15.089844 12.84375 15.105469 12.527344 15.105469 Z M 12.527344 15.105469 "/>
<path style=" stroke:none;fill-rule:nonzero;fill:rgb(100%,100%,100%);fill-opacity:1;" d="M 5.457031 9.96875 L 5.210938 10 C 5.289062 10.558594 5.460938 11.09375 5.714844 11.59375 L 5.929688 11.464844 C 5.695312 10.996094 5.535156 10.492188 5.457031 9.96875 Z M 5.457031 9.96875 "/>
<path style=" stroke:none;fill-rule:nonzero;fill:rgb(100%,100%,100%);fill-opacity:1;" d="M 6.441406 12.300781 L 6.214844 12.402344 C 6.570312 12.886719 7.011719 13.324219 7.515625 13.707031 L 7.667969 13.539062 C 7.195312 13.175781 6.78125 12.757812 6.441406 12.300781 Z M 6.441406 12.300781 "/>
<path style=" stroke:none;fill-rule:nonzero;fill:rgb(100%,100%,100%);fill-opacity:1;" d="M 8.550781 14.113281 L 8.394531 14.277344 C 8.960938 14.59375 9.585938 14.84375 10.25 15.023438 L 10.320312 14.820312 C 9.6875 14.652344 9.089844 14.414062 8.550781 14.113281 Z M 8.550781 14.113281 "/>
<path style=" stroke:none;fill-rule:nonzero;fill:rgb(100%,100%,100%);fill-opacity:1;" d="M 15.878906 3.9375 L 15.769531 4.078125 C 16.3125 4.308594 16.816406 4.589844 17.265625 4.921875 L 17.398438 4.777344 C 16.9375 4.449219 16.429688 4.167969 15.878906 3.9375 Z M 15.878906 3.9375 "/>
<path style=" stroke:none;fill-rule:nonzero;fill:rgb(100%,100%,100%);fill-opacity:1;" d="M 19.355469 9.242188 C 19.355469 6.152344 16.296875 3.644531 12.527344 3.644531 C 8.753906 3.644531 5.695312 6.152344 5.695312 9.242188 C 5.695312 12.332031 8.753906 14.835938 12.527344 14.835938 C 16.296875 14.835938 19.355469 12.332031 19.355469 9.242188 Z M 19.355469 9.242188 "/>
<path style="fill-rule:nonzero;fill:rgb(100%,100%,100%);fill-opacity:1;stroke-width:0.996733;stroke-linecap:butt;stroke-linejoin:miter;stroke:rgb(0%,0%,0%);stroke-opacity:1;stroke-miterlimit:4;" d="M 6491.751003 -2434.970476 L 6693.774528 -2435.009218 C 6699.651487 -2434.97479 6704.375512 -2430.24645 6704.41647 -2424.345647 L 6704.394955 -2133.774663 C 6704.384371 -2127.973089 6699.632187 -2123.173678 6693.755228 -2123.208106 L 6491.807089 -2123.14552 C 6485.930129 -2123.179948 6481.130718 -2127.932132 6481.165146 -2133.809091 L 6481.186661 -2424.380075 C 6481.145703 -2430.280879 6485.949429 -2434.98106 6491.751003 -2434.970476 Z M 6491.751003 -2434.970476 " transform="matrix(0.0471044,-0.0148987,0.0148987,0.0471044,-267.340365,215.494853)"/>
<path style=" stroke:none;fill-rule:nonzero;fill:rgb(83.137255%,0%,0%);fill-opacity:1;" d="M 2.648438 5.964844 L 2.777344 5.875 C 2.875 6 2.996094 6.007812 3.109375 5.960938 C 3.3125 5.878906 3.308594 5.632812 3.261719 5.425781 C 3.207031 5.535156 3.097656 5.617188 2.996094 5.644531 C 2.660156 5.730469 2.492188 5.5 2.40625 5.230469 C 2.324219 5.003906 2.367188 4.808594 2.507812 4.679688 C 2.582031 4.613281 2.785156 4.550781 2.886719 4.570312 C 3.121094 4.609375 3.253906 4.765625 3.375 5.203125 C 3.488281 5.554688 3.542969 5.992188 3.15625 6.125 C 2.941406 6.226562 2.71875 6.109375 2.648438 5.964844 Z M 3.085938 5.398438 C 3.140625 5.335938 3.164062 5.285156 3.175781 5.21875 C 3.1875 5.160156 3.1875 5.132812 3.148438 5.035156 C 3.046875 4.785156 2.863281 4.683594 2.675781 4.773438 C 2.570312 4.824219 2.527344 4.90625 2.527344 5.03125 C 2.53125 5.261719 2.691406 5.480469 2.859375 5.488281 C 2.9375 5.492188 3.042969 5.449219 3.085938 5.398438 Z M 3.085938 5.398438 "/>
<path style=" stroke:none;fill-rule:nonzero;fill:rgb(83.137255%,0%,0%);fill-opacity:1;" d="M 15.828125 13.875 L 15.699219 13.964844 C 15.601562 13.839844 15.476562 13.832031 15.367188 13.878906 C 15.164062 13.960938 15.167969 14.207031 15.214844 14.414062 C 15.269531 14.304688 15.375 14.222656 15.480469 14.195312 C 15.816406 14.109375 15.980469 14.339844 16.070312 14.609375 C 16.152344 14.835938 16.109375 15.03125 15.964844 15.160156 C 15.890625 15.226562 15.691406 15.289062 15.589844 15.269531 C 15.355469 15.230469 15.222656 15.074219 15.101562 14.636719 C 14.988281 14.285156 14.933594 13.847656 15.316406 13.714844 C 15.53125 13.613281 15.757812 13.730469 15.828125 13.875 Z M 15.390625 14.441406 C 15.335938 14.503906 15.308594 14.554688 15.296875 14.625 C 15.289062 14.679688 15.289062 14.707031 15.328125 14.804688 C 15.425781 15.054688 15.609375 15.15625 15.800781 15.066406 C 15.90625 15.015625 15.945312 14.933594 15.945312 14.808594 C 15.945312 14.582031 15.785156 14.359375 15.613281 14.351562 C 15.539062 14.347656 15.433594 14.390625 15.390625 14.441406 Z M 15.390625 14.441406 "/>
<path style=" stroke:none;fill-rule:nonzero;fill:rgb(83.137255%,0%,0%);fill-opacity:1;" d="M 2.945312 6.855469 C 2.820312 6.714844 2.722656 6.4375 2.933594 6.328125 C 3.09375 6.253906 3.1875 6.3125 3.238281 6.425781 C 3.257812 6.460938 3.277344 6.453125 3.269531 6.414062 C 3.242188 6.289062 3.339844 6.175781 3.441406 6.164062 C 3.714844 6.128906 3.792969 6.417969 3.769531 6.640625 C 3.71875 6.9375 3.636719 7.144531 3.59375 7.441406 C 3.367188 7.21875 3.132812 7.050781 2.945312 6.855469 Z M 2.945312 6.855469 "/>
<path style=" stroke:none;fill-rule:nonzero;fill:rgb(83.137255%,0%,0%);fill-opacity:1;" d="M 4.210938 4.917969 C 4.542969 4.789062 4.808594 5.019531 4.914062 5.234375 C 4.945312 5.265625 4.953125 5.25 4.953125 5.222656 C 4.878906 4.925781 5.0625 4.605469 5.3125 4.5625 C 5.707031 4.441406 6.085938 4.804688 6.132812 5.195312 C 6.195312 5.671875 6.039062 6.019531 5.941406 6.359375 C 5.824219 6.714844 5.675781 7.222656 5.652344 7.453125 C 5.652344 7.453125 5.230469 7.109375 4.695312 6.714844 C 4.339844 6.453125 4.027344 6.144531 3.90625 5.832031 C 3.769531 5.476562 3.816406 5.105469 4.210938 4.917969 Z M 4.210938 4.917969 "/>
<path style=" stroke:none;fill-rule:nonzero;fill:rgb(83.137255%,0%,0%);fill-opacity:1;" d="M 9.371094 3.285156 C 9.703125 3.15625 9.96875 3.386719 10.074219 3.605469 C 10.105469 3.632812 10.113281 3.621094 10.113281 3.589844 C 10.035156 3.292969 10.222656 2.972656 10.472656 2.929688 C 10.867188 2.8125 11.242188 3.171875 11.292969 3.5625 C 11.355469 4.039062 11.195312 4.386719 11.101562 4.726562 C 10.984375 5.082031 10.835938 5.589844 10.808594 5.820312 C 10.808594 5.820312 10.386719 5.476562 9.855469 5.082031 C 9.5 4.820312 9.1875 4.515625 9.066406 4.203125 C 8.929688 3.84375 8.976562 3.472656 9.371094 3.285156 Z M 9.371094 3.285156 "/>
<path style=" stroke:none;fill-rule:nonzero;fill:rgb(83.137255%,0%,0%);fill-opacity:1;" d="M 10.34375 6.363281 C 10.675781 6.234375 10.941406 6.464844 11.046875 6.679688 C 11.078125 6.710938 11.085938 6.695312 11.085938 6.667969 C 11.011719 6.371094 11.195312 6.050781 11.445312 6.007812 C 11.839844 5.886719 12.21875 6.25 12.265625 6.640625 C 12.328125 7.117188 12.171875 7.464844 12.074219 7.804688 C 11.957031 8.160156 11.808594 8.667969 11.785156 8.898438 C 11.785156 8.898438 11.363281 8.554688 10.828125 8.160156 C 10.472656 7.898438 10.160156 7.589844 10.039062 7.277344 C 9.902344 6.921875 9.949219 6.550781 10.34375 6.363281 Z M 10.34375 6.363281 "/>
<path style=" stroke:none;fill-rule:nonzero;fill:rgb(83.137255%,0%,0%);fill-opacity:1;" d="M 8.257812 8.742188 C 8.585938 8.613281 8.851562 8.84375 8.957031 9.058594 C 8.992188 9.089844 9 9.074219 8.996094 9.046875 C 8.921875 8.75 9.105469 8.429688 9.359375 8.386719 C 9.753906 8.265625 10.128906 8.628906 10.179688 9.019531 C 10.238281 9.496094 10.082031 9.84375 9.988281 10.183594 C 9.871094 10.539062 9.722656 11.046875 9.695312 11.273438 C 9.695312 11.273438 9.273438 10.933594 8.742188 10.539062 C 8.386719 10.277344 8.070312 9.96875 7.953125 9.65625 C 7.816406 9.300781 7.863281 8.929688 8.257812 8.742188 Z M 8.257812 8.742188 "/>
<path style=" stroke:none;fill-rule:nonzero;fill:rgb(83.137255%,0%,0%);fill-opacity:1;" d="M 5.1875 7.996094 C 5.515625 7.867188 5.78125 8.097656 5.886719 8.3125 C 5.917969 8.34375 5.925781 8.328125 5.925781 8.296875 C 5.851562 8.003906 6.035156 7.683594 6.289062 7.640625 C 6.679688 7.519531 7.058594 7.882812 7.105469 8.273438 C 7.167969 8.75 7.011719 9.097656 6.914062 9.4375 C 6.800781 9.792969 6.652344 10.296875 6.625 10.527344 C 6.625 10.527344 6.203125 10.183594 5.671875 9.792969 C 5.316406 9.53125 5 9.222656 4.878906 8.910156 C 4.746094 8.554688 4.789062 8.179688 5.1875 7.996094 Z M 5.1875 7.996094 "/>
<path style=" stroke:none;fill-rule:nonzero;fill:rgb(83.137255%,0%,0%);fill-opacity:1;" d="M 12.199219 12.222656 C 12.542969 12.136719 12.625 11.792969 12.589844 11.558594 C 12.597656 11.515625 12.613281 11.523438 12.628906 11.546875 C 12.738281 11.832031 13.074219 11.988281 13.304688 11.878906 C 13.695312 11.75 13.796875 11.238281 13.609375 10.890625 C 13.386719 10.464844 13.058594 10.269531 12.785156 10.046875 C 12.484375 9.824219 12.070312 9.492188 11.917969 9.320312 C 11.917969 9.320312 11.769531 9.84375 11.5625 10.472656 C 11.421875 10.890625 11.339844 11.324219 11.421875 11.648438 C 11.515625 12.019531 11.765625 12.296875 12.199219 12.222656 Z M 12.199219 12.222656 "/>
<path style=" stroke:none;fill-rule:nonzero;fill:rgb(83.137255%,0%,0%);fill-opacity:1;" d="M 13.167969 15.289062 C 13.511719 15.203125 13.597656 14.863281 13.558594 14.625 C 13.566406 14.582031 13.582031 14.589844 13.597656 14.613281 C 13.707031 14.898438 14.042969 15.054688 14.273438 14.945312 C 14.664062 14.816406 14.765625 14.304688 14.582031 13.957031 C 14.355469 13.53125 14.027344 13.335938 13.753906 13.113281 C 13.453125 12.890625 13.042969 12.5625 12.886719 12.386719 C 12.886719 12.386719 12.738281 12.910156 12.53125 13.539062 C 12.390625 13.957031 12.308594 14.390625 12.390625 14.714844 C 12.484375 15.085938 12.738281 15.363281 13.167969 15.289062 Z M 13.167969 15.289062 "/>
<path style=" stroke:none;fill-rule:nonzero;fill:rgb(83.137255%,0%,0%);fill-opacity:1;" d="M 8.007812 16.921875 C 8.351562 16.835938 8.4375 16.492188 8.398438 16.257812 C 8.410156 16.214844 8.421875 16.21875 8.441406 16.246094 C 8.546875 16.53125 8.882812 16.6875 9.113281 16.578125 C 9.503906 16.449219 9.605469 15.9375 9.421875 15.589844 C 9.195312 15.164062 8.867188 14.96875 8.59375 14.746094 C 8.296875 14.523438 7.882812 14.191406 7.726562 14.019531 C 7.726562 14.019531 7.582031 14.542969 7.371094 15.171875 C 7.230469 15.589844 7.148438 16.023438 7.230469 16.347656 C 7.324219 16.714844 7.578125 16.996094 8.007812 16.921875 Z M 8.007812 16.921875 "/>
<path style=" stroke:none;fill-rule:nonzero;fill:rgb(83.137255%,0%,0%);fill-opacity:1;" d="M 7.039062 13.855469 C 7.382812 13.769531 7.46875 13.425781 7.429688 13.1875 C 7.4375 13.148438 7.453125 13.152344 7.46875 13.179688 C 7.578125 13.464844 7.914062 13.621094 8.144531 13.511719 C 8.535156 13.382812 8.636719 12.871094 8.453125 12.523438 C 8.226562 12.097656 7.898438 11.902344 7.625 11.679688 C 7.324219 11.457031 6.914062 11.125 6.757812 10.953125 C 6.757812 10.953125 6.609375 11.476562 6.402344 12.105469 C 6.261719 12.523438 6.179688 12.957031 6.261719 13.28125 C 6.355469 13.648438 6.609375 13.929688 7.039062 13.855469 Z M 7.039062 13.855469 "/>
<path style=" stroke:none;fill-rule:nonzero;fill:rgb(83.137255%,0%,0%);fill-opacity:1;" d="M 14.683594 13.03125 C 14.660156 13.21875 14.742188 13.5 14.976562 13.46875 C 15.148438 13.4375 15.195312 13.335938 15.167969 13.210938 C 15.164062 13.175781 15.183594 13.167969 15.203125 13.203125 C 15.25 13.324219 15.394531 13.359375 15.484375 13.308594 C 15.730469 13.183594 15.625 12.902344 15.480469 12.734375 C 15.269531 12.515625 15.082031 12.394531 14.875 12.175781 C 14.816406 12.492188 14.722656 12.761719 14.683594 13.03125 Z M 14.683594 13.03125 "/>
<path style="fill-rule:nonzero;fill:rgb(100%,100%,100%);fill-opacity:1;stroke-width:0.996733;stroke-linecap:butt;stroke-linejoin:miter;stroke:rgb(0%,0%,0%);stroke-opacity:1;stroke-miterlimit:4;" d="M 6491.784341 -2435.015164 L 6693.747704 -2434.993521 C 6699.606635 -2434.967338 6704.391918 -2430.240991 6704.406506 -2424.37175 L 6704.374131 -2133.851977 C 6704.388719 -2127.982736 6699.652615 -2123.228381 6693.737359 -2123.159669 L 6491.773996 -2123.181312 C 6485.915066 -2123.207495 6481.129783 -2127.933842 6481.193049 -2133.823047 L 6481.12604 -2424.397787 C 6481.111451 -2430.267027 6485.925411 -2435.041347 6491.784341 -2435.015164 Z M 6491.784341 -2435.015164 " transform="matrix(0.0467302,0.0124506,-0.0134271,0.0485539,-321.112272,39.773706)"/>
<path style=" stroke:none;fill-rule:nonzero;fill:rgb(0%,0%,0%);fill-opacity:1;" d="M 14.308594 4.253906 L 14.460938 4.246094 C 14.472656 4.40625 14.570312 4.476562 14.6875 4.496094 C 14.894531 4.535156 15.027344 4.320312 15.101562 4.117188 C 14.996094 4.183594 14.867188 4.195312 14.765625 4.164062 C 14.441406 4.058594 14.433594 3.769531 14.507812 3.488281 C 14.5625 3.253906 14.707031 3.105469 14.890625 3.074219 C 14.988281 3.054688 15.1875 3.109375 15.261719 3.179688 C 15.429688 3.339844 15.453125 3.546875 15.316406 3.984375 C 15.21875 4.351562 15.023438 4.757812 14.636719 4.664062 C 14.40625 4.636719 14.285156 4.414062 14.308594 4.253906 Z M 14.972656 4 C 15.050781 3.976562 15.101562 3.945312 15.148438 3.894531 C 15.183594 3.851562 15.199219 3.824219 15.222656 3.722656 C 15.277344 3.453125 15.183594 3.265625 14.976562 3.242188 C 14.863281 3.230469 14.785156 3.277344 14.71875 3.382812 C 14.59375 3.582031 14.605469 3.859375 14.742188 3.957031 C 14.800781 4 14.910156 4.023438 14.972656 4 Z M 14.972656 4 "/>
<path style=" stroke:none;fill-rule:nonzero;fill:rgb(0%,0%,0%);fill-opacity:1;" d="M 20.804688 18.136719 L 20.652344 18.144531 C 20.636719 17.984375 20.542969 17.914062 20.425781 17.890625 C 20.214844 17.855469 20.082031 18.070312 20.011719 18.273438 C 20.113281 18.207031 20.246094 18.195312 20.347656 18.226562 C 20.667969 18.332031 20.679688 18.621094 20.605469 18.898438 C 20.546875 19.136719 20.40625 19.28125 20.222656 19.316406 C 20.125 19.332031 19.925781 19.28125 19.851562 19.210938 C 19.679688 19.050781 19.65625 18.84375 19.792969 18.402344 C 19.894531 18.039062 20.089844 17.632812 20.476562 17.726562 C 20.707031 17.753906 20.824219 17.976562 20.804688 18.136719 Z M 20.140625 18.390625 C 20.058594 18.414062 20.011719 18.445312 19.964844 18.496094 C 19.925781 18.539062 19.910156 18.5625 19.890625 18.667969 C 19.835938 18.9375 19.929688 19.125 20.136719 19.148438 C 20.25 19.160156 20.328125 19.113281 20.394531 19.003906 C 20.519531 18.804688 20.507812 18.53125 20.371094 18.433594 C 20.308594 18.390625 20.203125 18.367188 20.140625 18.390625 Z M 20.140625 18.390625 "/>
<path style=" stroke:none;fill-rule:nonzero;fill:rgb(0%,0%,0%);fill-opacity:1;" d="M 15.988281 6.242188 C 16.015625 6.140625 15.941406 6.121094 15.925781 6.191406 C 15.816406 6.550781 15.476562 6.652344 15.273438 6.550781 C 14.960938 6.398438 14.953125 6.03125 15.011719 5.832031 C 15.191406 5.21875 15.914062 4.925781 16.671875 4.277344 C 16.867188 5.097656 17.363281 5.828125 17.25 6.390625 C 17.097656 7.136719 16.132812 7.171875 16.238281 6.285156 C 16.25 6.222656 16.1875 6.175781 16.167969 6.261719 C 16.125 6.503906 16.070312 6.59375 16.164062 7.238281 L 15.5 7.0625 C 15.722656 6.832031 15.902344 6.523438 15.988281 6.242188 Z M 15.988281 6.242188 "/>
<path style=" stroke:none;fill-rule:nonzero;fill:rgb(0%,0%,0%);fill-opacity:1;" d="M 21.203125 7.628906 C 21.230469 7.53125 21.15625 7.507812 21.136719 7.582031 C 21.03125 7.941406 20.6875 8.039062 20.484375 7.941406 C 20.175781 7.789062 20.164062 7.421875 20.222656 7.222656 C 20.402344 6.609375 21.125 6.3125 21.882812 5.667969 C 22.078125 6.484375 22.578125 7.21875 22.464844 7.78125 C 22.3125 8.527344 21.34375 8.5625 21.453125 7.675781 C 21.460938 7.613281 21.398438 7.566406 21.382812 7.652344 C 21.335938 7.890625 21.28125 7.980469 21.375 8.625 L 20.710938 8.449219 C 20.933594 8.21875 21.113281 7.910156 21.203125 7.628906 Z M 21.203125 7.628906 "/>
<path style=" stroke:none;fill-rule:nonzero;fill:rgb(0%,0%,0%);fill-opacity:1;" d="M 20.324219 10.800781 C 20.351562 10.703125 20.277344 10.679688 20.257812 10.753906 C 20.152344 11.113281 19.808594 11.210938 19.609375 11.113281 C 19.296875 10.960938 19.285156 10.59375 19.34375 10.394531 C 19.523438 9.78125 20.246094 9.484375 21.003906 8.839844 C 21.203125 9.65625 21.699219 10.390625 21.585938 10.953125 C 21.433594 11.699219 20.464844 11.734375 20.574219 10.847656 C 20.582031 10.785156 20.523438 10.738281 20.503906 10.824219 C 20.457031 11.0625 20.40625 11.152344 20.5 11.796875 L 19.835938 11.621094 C 20.054688 11.390625 20.234375 11.082031 20.324219 10.800781 Z M 20.324219 10.800781 "/>
<path style=" stroke:none;fill-rule:nonzero;fill:rgb(0%,0%,0%);fill-opacity:1;" d="M 15.113281 9.414062 C 15.140625 9.3125 15.066406 9.292969 15.046875 9.363281 C 14.941406 9.722656 14.597656 9.824219 14.394531 9.722656 C 14.085938 9.570312 14.074219 9.203125 14.132812 9.003906 C 14.3125 8.390625 15.035156 8.097656 15.792969 7.449219 C 15.992188 8.269531 16.488281 9 16.375 9.5625 C 16.222656 10.308594 15.253906 10.347656 15.363281 9.457031 C 15.371094 9.394531 15.308594 9.347656 15.292969 9.433594 C 15.246094 9.675781 15.191406 9.765625 15.285156 10.410156 L 14.621094 10.234375 C 14.84375 10.003906 15.023438 9.695312 15.113281 9.414062 Z M 15.113281 9.414062 "/>
<path style=" stroke:none;fill-rule:nonzero;fill:rgb(0%,0%,0%);fill-opacity:1;" d="M 18.859375 16.101562 C 18.832031 16.199219 18.757812 16.179688 18.777344 16.109375 C 18.871094 15.746094 18.628906 15.492188 18.402344 15.476562 C 18.054688 15.453125 17.855469 15.765625 17.804688 15.964844 C 17.644531 16.582031 18.117188 17.199219 18.4375 18.132812 C 19.027344 17.523438 19.835938 17.136719 20.027344 16.597656 C 20.28125 15.875 19.460938 15.363281 19.097656 16.183594 C 19.074219 16.242188 18.996094 16.253906 19.027344 16.167969 C 19.109375 15.941406 19.109375 15.835938 19.523438 15.328125 L 18.859375 15.148438 C 18.933594 15.457031 18.929688 15.8125 18.859375 16.101562 Z M 18.859375 16.101562 "/>
<path style=" stroke:none;fill-rule:nonzero;fill:rgb(0%,0%,0%);fill-opacity:1;" d="M 19.734375 12.9375 C 19.707031 13.039062 19.632812 13.019531 19.652344 12.949219 C 19.746094 12.585938 19.5 12.328125 19.277344 12.316406 C 18.929688 12.292969 18.730469 12.601562 18.679688 12.804688 C 18.519531 13.421875 18.988281 14.035156 19.308594 14.96875 C 19.902344 14.363281 20.707031 13.976562 20.898438 13.433594 C 21.152344 12.714844 20.335938 12.203125 19.972656 13.023438 C 19.949219 13.082031 19.871094 13.089844 19.902344 13.007812 C 19.984375 12.78125 19.984375 12.675781 20.398438 12.164062 L 19.734375 11.988281 C 19.804688 12.296875 19.800781 12.652344 19.734375 12.9375 Z M 19.734375 12.9375 "/>
<path style=" stroke:none;fill-rule:nonzero;fill:rgb(0%,0%,0%);fill-opacity:1;" d="M 17.613281 10.613281 C 17.585938 10.710938 17.511719 10.695312 17.53125 10.621094 C 17.625 10.261719 17.378906 10.003906 17.15625 9.988281 C 16.808594 9.96875 16.609375 10.277344 16.558594 10.480469 C 16.398438 11.097656 16.867188 11.710938 17.1875 12.644531 C 17.78125 12.039062 18.585938 11.652344 18.777344 11.109375 C 19.03125 10.390625 18.214844 9.878906 17.851562 10.699219 C 17.828125 10.757812 17.75 10.765625 17.78125 10.683594 C 17.863281 10.453125 17.863281 10.347656 18.277344 9.839844 L 17.613281 9.664062 C 17.683594 9.972656 17.679688 10.328125 17.613281 10.613281 Z M 17.613281 10.613281 "/>
<path style=" stroke:none;fill-rule:nonzero;fill:rgb(0%,0%,0%);fill-opacity:1;" d="M 14.523438 11.550781 C 14.496094 11.648438 14.417969 11.628906 14.441406 11.558594 C 14.535156 11.195312 14.289062 10.941406 14.0625 10.925781 C 13.71875 10.902344 13.519531 11.214844 13.46875 11.414062 C 13.304688 12.035156 13.777344 12.648438 14.097656 13.582031 C 14.691406 12.972656 15.496094 12.585938 15.6875 12.046875 C 15.941406 11.328125 15.125 10.816406 14.761719 11.636719 C 14.734375 11.695312 14.660156 11.703125 14.6875 11.621094 C 14.773438 11.390625 14.773438 11.285156 15.1875 10.777344 L 14.523438 10.597656 C 14.59375 10.910156 14.589844 11.261719 14.523438 11.550781 Z M 14.523438 11.550781 "/>
<path style=" stroke:none;fill-rule:nonzero;fill:rgb(0%,0%,0%);fill-opacity:1;" d="M 13.648438 14.710938 C 13.621094 14.808594 13.546875 14.792969 13.566406 14.71875 C 13.660156 14.359375 13.414062 14.101562 13.191406 14.085938 C 12.84375 14.066406 12.644531 14.375 12.59375 14.578125 C 12.433594 15.195312 12.902344 15.808594 13.222656 16.742188 C 13.816406 16.136719 14.621094 15.75 14.8125 15.207031 C 15.066406 14.488281 14.25 13.976562 13.886719 14.796875 C 13.863281 14.855469 13.785156 14.863281 13.816406 14.78125 C 13.898438 14.550781 13.898438 14.445312 14.3125 13.9375 L 13.648438 13.761719 C 13.71875 14.070312 13.714844 14.425781 13.648438 14.710938 Z M 13.648438 14.710938 "/>
<path style=" stroke:none;fill-rule:nonzero;fill:rgb(0%,0%,0%);fill-opacity:1;" d="M 14.332031 5.71875 C 14.34375 5.679688 14.292969 5.6875 14.285156 5.699219 C 14.203125 5.78125 14.117188 5.78125 14.050781 5.726562 C 13.980469 5.671875 13.957031 5.582031 13.996094 5.476562 C 14.054688 5.3125 14.234375 5.164062 14.324219 5.078125 C 14.410156 5 14.503906 4.90625 14.609375 4.78125 C 14.644531 4.964844 14.671875 5.023438 14.71875 5.195312 C 14.757812 5.347656 14.828125 5.503906 14.792969 5.664062 C 14.757812 5.785156 14.679688 5.886719 14.5625 5.875 C 14.496094 5.871094 14.449219 5.824219 14.425781 5.734375 C 14.417969 5.710938 14.390625 5.714844 14.382812 5.742188 C 14.363281 5.84375 14.371094 5.945312 14.429688 6.078125 L 14.109375 5.992188 C 14.195312 5.933594 14.292969 5.847656 14.332031 5.71875 Z M 14.332031 5.71875 "/>
<path style=" stroke:none;fill-rule:nonzero;fill:rgb(0%,0%,0%);fill-opacity:1;" d="M 20.835938 16.460938 C 20.824219 16.5 20.785156 16.46875 20.785156 16.457031 C 20.757812 16.34375 20.683594 16.300781 20.59375 16.316406 C 20.507812 16.328125 20.441406 16.394531 20.417969 16.503906 C 20.386719 16.675781 20.464844 16.890625 20.496094 17.011719 C 20.53125 17.121094 20.5625 17.25 20.59375 17.410156 C 20.714844 17.265625 20.769531 17.230469 20.898438 17.105469 C 21.007812 16.992188 21.152344 16.894531 21.203125 16.738281 C 21.238281 16.617188 21.21875 16.488281 21.113281 16.4375 C 21.054688 16.410156 20.988281 16.429688 20.921875 16.496094 C 20.90625 16.511719 20.882812 16.492188 20.890625 16.464844 C 20.925781 16.367188 20.988281 16.285156 21.105469 16.199219 L 20.78125 16.113281 C 20.828125 16.207031 20.867188 16.328125 20.835938 16.460938 Z M 20.835938 16.460938 "/>
</g>
</svg>
