<?xml version="1.0" encoding="utf-8"?>
<!-- Generator: Adobe Illustrator 15.0.2, SVG Export Plug-In . SVG Version: 6.00 Build 0)  -->
<!DOCTYPE svg PUBLIC "-//W3C//DTD SVG 1.1//EN" "http://www.w3.org/Graphics/SVG/1.1/DTD/svg11.dtd">
<svg version="1.1" id="Layer_1" xmlns="http://www.w3.org/2000/svg" xmlns:xlink="http://www.w3.org/1999/xlink" x="0px" y="0px"
	 width="200px" height="100px" viewBox="0 0 200 100" style="enable-background:new 0 0 200 100;" xml:space="preserve">
<style type="text/css">
<![CDATA[
	.st0{fill:#E6C47E;}
	.st1{fill:#EAD7A8;}
	.st2{fill:#ED1C24;}
	.st3{fill:#231F20;}
	.st4{font-family:'ArialNarrow-Bold';}
	.st5{font-size:100;}
	.st6{fill:none;}
	.st7{fill:#A78F6C;}
]]>
</style>
<rect class="st6" width="200" height="100"/>
<path class="st7" d="M100,98.9c-31.6,0-77.2-5.9-88-8.9C1,87,1,79.8,1,76.7V23.2c0-3.1,0-10.3,11-13.3C22.8,6.9,68.4,1,100,1
	c31.6,0,77.2,5.9,88,8.9c10.9,3,10.9,10.2,10.9,13.3v53.5c0,3.1,0,10.4-10.9,13.4C177.2,93,131.6,98.9,100,98.9z"/>
<path d="M100,2.1c31.9,0,77.5,6,87.8,8.8S198,20.1,198,23.3c0,2.3,0,51.2,0,53.4c0,3.1,0.1,9.6-10.2,12.4S132,97.9,100,97.9
	c-31.9,0-77.5-6-87.8-8.8C2,86.2,2.1,79.8,2.1,76.7c0-2.3,0-51.2,0-53.4c0-3.1-0.1-9.6,10.2-12.4C22.5,8.1,68.1,2.1,100,2.1 M100,0
	C68.3,0,22.6,5.9,11.7,8.9C0,12.1,0,19.9,0,23.2v0.1v53.4v0.1c0,3.3,0,11.1,11.7,14.3c10.9,3,56.6,8.9,88.3,8.9
	c31.6,0,77.4-5.9,88.3-8.9c11.7-3.2,11.7-11,11.7-14.3v-0.1V23.2v-0.1c0-3.3,0-11.1-11.7-14.3C177.4,5.9,131.7,0,100,0L100,0z"/>
<path class="st1" d="M100,92.7c-32.7,0-78.5-6.5-86.4-8.6c-6-1.6-6.4-4.1-6.4-7.4V23.2c0-3.3,0.5-5.7,6.4-7.4
	c7.9-2.2,53.7-8.6,86.4-8.6s78.5,6.5,86.4,8.6c6,1.6,6.4,4.1,6.4,7.4v53.5c0,3.3-0.5,5.7-6.4,7.4C178.5,86.2,132.7,92.7,100,92.7z"
	/>
<path class="st0" d="M100,8.2c32.3,0,78.4,6.5,86.1,8.6c5.7,1.5,5.7,3.7,5.7,6.4v53.5c0,2.7,0,4.8-5.7,6.4
	c-7.8,2.1-53.8,8.6-86.1,8.6s-78.4-6.5-86.1-8.6c-5.7-1.5-5.7-3.7-5.7-6.4V23.2c0-2.7,0-4.8,5.7-6.4C21.7,14.7,67.7,8.2,100,8.2
	 M100,6.2c-32.7,0-78.8,6.5-86.7,8.7c-6.6,1.8-7.2,4.9-7.2,8.4v53.5c0,3.5,0.5,6.5,7.2,8.4c7.9,2.2,53.9,8.7,86.7,8.7
	s78.8-6.5,86.7-8.7c6.6-1.8,7.2-4.9,7.2-8.4V23.2c0-3.5-0.5-6.5-7.2-8.4C178.8,12.7,132.7,6.2,100,6.2L100,6.2z"/>
<g>
	<g>
		<path class="st3" d="M179.8,28.9c-2.7,4.8-8.9,9.7-8.9,11.8c0,2.1,2.1,3.8,4.6,3.8c1.6,0,3.1-0.7,3.9-1.8
			c-0.3,2.4-1.7,4.4-5.9,4.6c-0.5,0-1,0-1.5,0v0.6h15.6v-0.6c-0.5,0-1,0-1.5,0c-4.2-0.2-5.7-2.2-5.9-4.6c0.8,1,2.3,1.8,3.9,1.8
			c2.5,0,4.6-1.7,4.6-3.8C188.6,38.5,182.4,33.7,179.8,28.9z"/>
		<path class="st2" d="M179.8,53.1l-5.7,10.8l5.7,10.8l5.7-10.8L179.8,53.1z"/>
	</g>
	<g>
		<path class="st2" d="M20.2,31.8C19.5,30.1,17.9,29,16,29c-2.5,0-4.6,2.1-4.6,4.6s6.2,8.4,8.9,14.2c2.7-5.8,8.9-11.7,8.9-14.2
			S27.1,29,24.6,29C22.6,29,20.9,30.1,20.2,31.8z"/>
		<path class="st3" d="M16.1,58.5c0,0.9,0.3,1.8,0.8,2.4c0.2,0.3,0.4,0.8,0.2,1c-0.2,0.3-0.7,0.1-0.9,0c0,0-0.1,0-0.1-0.1l0,0
			c-0.5-0.2-0.9-0.3-1.5-0.3c-2.3,0-4.1,1.8-4.1,4.1c0,2.3,1.8,4.1,4.1,4.1c1.7,0,3.1-1,3.8-2.5l0.1-0.1c0,0,0.2-0.4,0.9-0.4
			c0.3,0,0.4,0.2,0.5,0.5c0,2.7-1.3,5.2-6,5.4c-0.5,0-1,0-1.5,0v0.6H28v-0.6c-0.5,0-1,0-1.5,0c-4.7-0.3-6-2.7-6-5.4
			c0.1-0.3,0.3-0.5,0.6-0.5c0.7,0,0.9,0.4,0.9,0.4l0.1,0.1c0.6,1.5,2.1,2.5,3.7,2.5c2.3,0,4.1-1.8,4.1-4.1c0-2.2-1.8-4.1-4.1-4.1
			c-0.5,0-1,0.1-1.5,0.3l0,0c0,0-0.1,0-0.1,0.1c-0.2,0.1-0.7,0.3-0.9,0c-0.2-0.2,0-0.6,0.2-1c0.5-0.7,0.8-1.5,0.8-2.4
			c0-2.3-1.8-4.1-4.1-4.1C18,54.4,16.1,56.3,16.1,58.5z"/>
	</g>
</g>
<text transform="matrix(1 0 0 1 31.5928 85.1309)" class="st4 st5">000</text>
</svg>
