<?xml version="1.0" encoding="utf-8"?>
<!-- Generator: Adobe Illustrator 15.0.2, SVG Export Plug-In . SVG Version: 6.00 Build 0)  -->
<!DOCTYPE svg PUBLIC "-//W3C//DTD SVG 1.1//EN" "http://www.w3.org/Graphics/SVG/1.1/DTD/svg11.dtd">
<svg version="1.1" id="Layer_1" xmlns="http://www.w3.org/2000/svg" xmlns:xlink="http://www.w3.org/1999/xlink" x="0px" y="0px"
	 width="200px" height="200px" viewBox="0 0 200 200" enable-background="new 0 0 200 200" xml:space="preserve">
<rect fill="none" width="200" height="200"/>
<g>
	<g>
		<g>
			<g>
				<path fill="#AAAAAA" d="M100,199.065c-13.373,0-26.348-2.619-38.561-7.785c-11.797-4.99-22.393-12.133-31.49-21.23
					s-16.24-19.692-21.229-31.488C3.555,126.347,0.934,113.373,0.934,100s2.621-26.347,7.787-38.561
					c4.988-11.797,12.131-22.392,21.229-31.489s19.693-16.24,31.49-21.23C73.652,3.554,86.627,0.935,100,0.935
					s26.348,2.619,38.561,7.785c11.797,4.99,22.391,12.133,31.488,21.23s16.24,19.692,21.23,31.489
					c5.166,12.214,7.785,25.188,7.785,38.561s-2.619,26.347-7.785,38.562c-4.99,11.796-12.133,22.391-21.23,31.488
					s-19.691,16.24-31.488,21.23C126.348,196.446,113.373,199.065,100,199.065z"/>
				<path d="M100,1.869c54.195,0,98.131,43.935,98.131,98.131S154.195,198.131,100,198.131c-54.197,0-98.131-43.935-98.131-98.131
					S45.803,1.869,100,1.869 M100,0C86.5,0,73.404,2.645,61.074,7.859c-11.908,5.036-22.602,12.247-31.785,21.43
					c-9.184,9.184-16.393,19.878-21.43,31.786C2.645,73.404,0,86.501,0,100s2.645,26.596,7.859,38.925
					c5.037,11.908,12.246,22.603,21.43,31.786c9.184,9.183,19.877,16.394,31.785,21.43C73.404,197.355,86.5,200,100,200
					c13.498,0,26.596-2.645,38.924-7.859c11.908-5.036,22.604-12.247,31.787-21.43c9.184-9.184,16.393-19.878,21.43-31.786
					C197.355,126.596,200,113.499,200,100s-2.645-26.596-7.859-38.925c-5.037-11.908-12.246-22.603-21.43-31.786
					c-9.184-9.183-19.879-16.394-31.787-21.43C126.596,2.645,113.498,0,100,0L100,0z"/>
			</g>
		</g>
		<g>
			<path d="M34.91,137.579c-9.062-15.695-12.676-16.965-12.676-16.965l-15.783,9.112c4.344,13.681,11.605,26.062,21.055,36.412
				l15.76-9.099C43.266,157.04,43.971,153.274,34.91,137.579z"/>
		</g>
		<g>
			<path d="M165.09,62.421c9.061,15.695,12.674,16.965,12.674,16.965l15.783-9.112c-4.344-13.68-11.605-26.062-21.053-36.412
				l-15.76,9.1C156.734,42.961,156.027,46.726,165.09,62.421z"/>
		</g>
		<g>
			<path d="M34.91,62.421c9.061-15.695,8.355-19.46,8.355-19.46l-15.76-9.1C18.057,44.212,10.795,56.594,6.451,70.273l15.783,9.112
				C22.234,79.386,25.848,78.116,34.91,62.421z"/>
		</g>
		<g>
			<path d="M177.764,120.614c0,0-3.613,1.27-12.674,16.965c-9.062,15.695-8.355,19.461-8.355,19.461l15.76,9.099
				c9.447-10.351,16.709-22.731,21.053-36.412L177.764,120.614z"/>
		</g>
		<g>
			<path d="M100,175.159c-18.123,0-21.031,2.494-21.031,2.494v18.219c6.775,1.479,13.812,2.259,21.031,2.259
				s14.254-0.78,21.029-2.259v-18.219C121.029,177.653,118.123,175.159,100,175.159z"/>
		</g>
		<g>
			<path d="M100,24.841c18.123,0,21.029-2.494,21.029-2.494V4.128C114.254,2.649,107.219,1.869,100,1.869s-14.256,0.78-21.031,2.259
				v18.219C78.969,22.347,81.877,24.841,100,24.841z"/>
		</g>
		<g>
			<path fill="#FFFFFF" d="M100,172.212c-9.76,0-19.215-1.905-28.1-5.664c-4.273-1.808-8.398-4.046-12.258-6.653
				c-3.828-2.587-7.43-5.559-10.705-8.833c-3.273-3.274-6.246-6.876-8.832-10.705c-2.607-3.859-4.846-7.982-6.654-12.256
				c-3.758-8.887-5.664-18.34-5.664-28.101c0-9.76,1.906-19.214,5.664-28.1c1.809-4.274,4.047-8.397,6.654-12.257
				c2.586-3.829,5.559-7.431,8.832-10.705c3.275-3.274,6.877-6.246,10.705-8.833c3.859-2.607,7.984-4.846,12.258-6.653
				c8.885-3.759,18.34-5.664,28.1-5.664s19.213,1.905,28.1,5.664c4.273,1.808,8.396,4.046,12.256,6.653
				c3.83,2.587,7.432,5.559,10.705,8.833c3.275,3.274,6.246,6.876,8.834,10.705c2.607,3.859,4.846,7.982,6.652,12.257
				c3.76,8.886,5.664,18.34,5.664,28.1c0,9.761-1.904,19.214-5.664,28.101c-1.807,4.273-4.045,8.396-6.652,12.256
				c-2.588,3.829-5.559,7.431-8.834,10.705c-3.273,3.274-6.875,6.246-10.705,8.833c-3.859,2.607-7.982,4.846-12.256,6.653
				C119.213,170.307,109.76,172.212,100,172.212z"/>
		</g>
		<g>
			<path d="M100.084,172.228c-1.691,0-3.404-0.061-5.086-0.179c-0.846-0.061-1.703-0.137-2.547-0.226l0.658-6.196
				c0.771,0.083,1.555,0.151,2.328,0.206c1.537,0.109,3.1,0.164,4.646,0.164c2.275,0,4.57-0.119,6.82-0.354l0.646,6.197
				C105.086,172.098,102.572,172.228,100.084,172.228z M122.326,168.698l-1.936-5.924c4.338-1.415,8.578-3.311,12.6-5.633
				l0.027-0.016l3.092,5.409l-1.547-2.704l1.543,2.706l0.012-0.007l-0.012,0.007C131.709,165.075,127.072,167.148,122.326,168.698z
				 M77.688,168.679c-3.207-1.041-6.363-2.313-9.381-3.782c-1.49-0.727-2.977-1.514-4.418-2.344l3.109-5.399
				c1.316,0.757,2.674,1.479,4.037,2.141c2.758,1.343,5.643,2.506,8.576,3.458L77.688,168.679z M51.664,153.687
				c-3.736-3.363-7.133-7.144-10.094-11.236l5.049-3.652c2.703,3.737,5.805,7.189,9.213,10.258L51.664,153.687z M148.346,153.672
				l-4.164-4.636c3.092-2.777,5.938-5.876,8.455-9.211c0.258-0.34,0.518-0.688,0.77-1.037l5.043,3.657
				c-0.275,0.381-0.559,0.763-0.84,1.137C154.85,147.233,151.732,150.627,148.346,153.672z M34.025,129.385
				c-2.064-4.611-3.641-9.442-4.686-14.359l6.094-1.295c0.955,4.487,2.395,8.897,4.279,13.108L34.025,129.385z M165.982,129.356
				l-5.695-2.524c1.395-3.149,2.555-6.432,3.445-9.755c0.299-1.111,0.57-2.246,0.811-3.375l6.094,1.295
				c-0.262,1.234-0.561,2.477-0.887,3.692C168.777,122.325,167.508,125.913,165.982,129.356z M34.002,100.012l-6.23-0.006
				c0.002-1.665,0.062-3.351,0.18-5.008c0.236-3.344,0.713-6.71,1.412-10.005l6.094,1.297c-0.641,3.014-1.074,6.091-1.291,9.146
				C34.059,96.95,34.004,98.491,34.002,100.012z M172.227,99.991l-6.23-0.018v-0.057c0-2.704-0.166-5.426-0.498-8.089
				c-0.23-1.864-0.545-3.737-0.936-5.566l6.096-1.296c0.426,2.003,0.77,4.054,1.023,6.096c0.361,2.917,0.545,5.896,0.545,8.855
				V99.991z M39.717,73.161l-5.695-2.526c0.346-0.781,0.709-1.563,1.082-2.327c1.83-3.76,4-7.381,6.451-10.761l5.045,3.658
				c-2.24,3.087-4.223,6.395-5.895,9.83C40.365,71.732,40.033,72.448,39.717,73.161z M160.283,73.154
				c-0.932-2.08-1.988-4.148-3.143-6.146c-1.156-2.004-2.424-3.96-3.766-5.813l5.049-3.652c1.465,2.025,2.85,4.162,4.113,6.351
				c1.26,2.182,2.414,4.44,3.432,6.713L160.283,73.154z M55.824,50.958l-4.164-4.636c3.717-3.337,7.83-6.316,12.225-8.854
				l3.117,5.395C62.979,45.186,59.219,47.909,55.824,50.958z M144.16,50.938c-1.383-1.246-2.842-2.448-4.334-3.576
				c-2.166-1.636-4.465-3.157-6.832-4.52l3.107-5.4c2.592,1.492,5.109,3.156,7.48,4.948c1.635,1.235,3.23,2.553,4.746,3.916
				L144.16,50.938z M120.381,37.245c-1.09-0.354-2.201-0.684-3.305-0.979c-3.33-0.893-6.762-1.529-10.195-1.895l0.658-6.195
				c3.756,0.398,7.508,1.097,11.15,2.072c1.205,0.323,2.422,0.683,3.613,1.068L120.381,37.245z M79.6,37.228l-1.936-5.923
				c4.34-1.417,8.846-2.423,13.396-2.987c0.455-0.057,0.92-0.109,1.379-0.157l0.646,6.197c-0.42,0.044-0.842,0.093-1.258,0.145
				C87.674,35.017,83.559,35.933,79.6,37.228z"/>
		</g>
		<g>
			<g>
				<path d="M100,160.686c-8.209,0-16.152-1.601-23.609-4.754c-3.588-1.517-7.053-3.397-10.295-5.588
					c-3.221-2.177-6.252-4.677-9.008-7.433c-2.754-2.756-5.256-5.786-7.432-9.008c-2.191-3.242-4.07-6.705-5.588-10.293
					c-3.154-7.458-4.754-15.401-4.754-23.61s1.6-16.152,4.754-23.61c1.518-3.588,3.396-7.051,5.588-10.293
					c2.176-3.222,4.676-6.252,7.432-9.008c2.756-2.755,5.787-5.255,9.008-7.433c3.242-2.19,6.707-4.071,10.295-5.588
					c7.457-3.154,15.4-4.754,23.609-4.754s16.152,1.6,23.609,4.754c3.588,1.517,7.051,3.397,10.293,5.588
					c3.223,2.178,6.252,4.678,9.008,7.433c2.756,2.756,5.256,5.786,7.434,9.008c2.189,3.242,4.07,6.705,5.588,10.293
					c3.154,7.458,4.754,15.401,4.754,23.61s-1.6,16.152-4.754,23.61c-1.518,3.588-3.398,7.051-5.588,10.293
					c-2.178,3.222-4.678,6.252-7.434,9.008s-5.785,5.256-9.008,7.433c-3.242,2.19-6.705,4.071-10.293,5.588
					C116.152,159.085,108.209,160.686,100,160.686z"/>
			</g>
		</g>
	</g>
	<g>
		<g>
			<path fill="#E0D86A" d="M84.958,149.785l-0.036-0.339c-0.013-0.117-0.289-2.898,1.618-3.907l1.089-0.57
				c1.678-0.878,3.975-2.079,4.649-2.529c0.262-0.175,0.411-0.386,0.556-0.589c0.211-0.298,0.474-0.667,1.038-0.669
				c0.044-0.462,0.205-1.182,0.753-1.763c0.655-0.695,1.316-2.305,1.316-4.33v-2.219c0-0.606-0.405-1.01-0.73-1.333
				c-0.298-0.297-0.45-0.808-0.451-1.387c-0.001-0.526,0.123-1.533,0.961-2.373c0.939-0.938,1.499-2.288,1.499-3.612
				c0-0.704-0.735-2.29-1.712-3.689c-0.302-0.434-1.625-1.789-2.562-2.666c-3.58-3.353-6.704-6.977-9.034-10.479
				c-3.355-5.044-6.293-11.718-8.061-18.31c-2.921-10.891-3.166-20.362-3.166-28.385v-0.379h54.63v0.379
				c0,8.022-0.245,17.494-3.166,28.385c-1.767,6.59-4.705,13.264-8.061,18.31c-2.33,3.502-5.454,7.126-9.034,10.479
				c-0.938,0.877-2.261,2.232-2.562,2.665c-0.977,1.4-1.712,2.986-1.712,3.69c0,1.324,0.56,2.675,1.499,3.612
				c0.555,0.556,0.893,1.308,0.952,2.118c0.05,0.681-0.103,1.303-0.386,1.586c-0.381,0.378-0.787,0.781-0.787,1.389v2.219
				c0,2.025,0.661,3.635,1.316,4.33c0.548,0.581,0.709,1.301,0.753,1.763c0.564,0.002,0.826,0.371,1.037,0.668
				c0.145,0.203,0.294,0.414,0.557,0.589c0.673,0.449,2.96,1.646,4.63,2.521l1.107,0.58c1.908,1.009,1.632,3.79,1.619,3.907
				l-0.036,0.339H84.958z"/>
			<g>
				<path fill="#BE9819" d="M126.936,60.637c0,7.095-0.13,17.017-3.152,28.287c-1.514,5.646-4.205,12.476-8.011,18.197
					c-3.123,4.694-6.869,8.438-8.978,10.412c-0.847,0.792-2.269,2.229-2.614,2.726c-0.911,1.307-1.78,3.017-1.78,3.906
					c0,1.23,0.473,2.744,1.61,3.88c1.135,1.137,0.922,2.814,0.566,3.169s-0.898,0.852-0.898,1.656s0,0.186,0,2.219
					c0,2.036,0.662,3.785,1.42,4.59c0.757,0.803,0.661,1.938,0.661,1.938c0.142-0.038,0.262-0.056,0.364-0.056
					c0.656,0,0.649,0.702,1.387,1.193c0.851,0.567,4.068,2.223,5.771,3.12c1.703,0.9,1.42,3.532,1.42,3.532h-13.257h-2.891H85.298
					c0,0-0.283-2.632,1.419-3.532c1.703-0.897,4.921-2.553,5.771-3.12c0.735-0.491,0.73-1.193,1.387-1.193
					c0.103,0,0.223,0.018,0.364,0.056c0,0-0.096-1.135,0.661-1.938c0.758-0.805,1.42-2.554,1.42-4.59c0-2.033,0-1.414,0-2.219
					s-0.543-1.302-0.897-1.656c-0.356-0.354-0.569-2.032,0.565-3.169c1.138-1.136,1.61-2.649,1.61-3.88c0-0.89-0.869-2.6-1.78-3.906
					c-0.346-0.497-1.768-1.934-2.614-2.726c-2.108-1.975-5.854-5.718-8.978-10.412c-3.807-5.722-6.497-12.552-8.011-18.197
					c-3.022-11.271-3.152-21.192-3.152-28.287h25.49h2.891H126.936 M127.692,59.88h-0.757h-25.491h-2.891h-25.49h-0.757v0.757
					c0,8.047,0.245,17.548,3.178,28.483c1.778,6.63,4.734,13.344,8.112,18.42c2.346,3.526,5.489,7.173,9.09,10.546
					c0.905,0.847,2.227,2.197,2.511,2.605c1.029,1.477,1.645,2.926,1.645,3.474c0,1.227-0.519,2.477-1.389,3.345
					c-0.935,0.937-1.072,2.057-1.071,2.641c0,0.33,0.051,1.146,0.507,1.6l0.056,0.055c0.362,0.361,0.619,0.648,0.619,1.065v2.219
					c0,1.911-0.629,3.45-1.214,4.071c-0.513,0.543-0.728,1.181-0.815,1.68c-0.533,0.121-0.813,0.516-1.009,0.791
					c-0.137,0.192-0.254,0.357-0.457,0.494c-0.658,0.438-2.945,1.635-4.615,2.508l-1.089,0.571
					c-2.133,1.128-1.833,4.155-1.819,4.283l0.073,0.676h0.68h13.256h2.891h13.257h0.68l0.073-0.676
					c0.014-0.128,0.313-3.155-1.819-4.282l-1.108-0.582c-1.663-0.869-3.939-2.062-4.596-2.499c-0.204-0.136-0.322-0.302-0.458-0.494
					c-0.196-0.275-0.476-0.669-1.008-0.79c-0.088-0.499-0.303-1.137-0.815-1.681c-0.585-0.62-1.214-2.159-1.214-4.07v-2.219
					c0-0.418,0.258-0.705,0.621-1.065l0.055-0.055c0.436-0.435,0.542-1.257,0.496-1.883c-0.065-0.9-0.442-1.737-1.061-2.357
					c-0.871-0.868-1.39-2.118-1.39-3.345c0-0.548,0.615-1.997,1.645-3.474c0.284-0.408,1.605-1.759,2.51-2.605
					c3.602-3.373,6.745-7.02,9.091-10.546c3.378-5.078,6.335-11.792,8.112-18.42c2.933-10.936,3.178-20.437,3.178-28.483V59.88
					L127.692,59.88z"/>
			</g>
		</g>
		<g>
			<g>
				<path fill="#E0D86A" d="M114.826,123.136c-0.728,0-1.409-0.17-2.028-0.505c-1.788-0.957-2.59-3.045-2.59-4.689
					c0-3.085,1.177-5.697,3.702-8.222l2.71-2.709c14.764-14.733,23.674-23.626,23.674-31.832c0-4.909-2.364-7.601-4.576-8.482
					c-0.623-0.249-1.271-0.375-1.927-0.375c-1.587,0-3.169,0.748-4.454,2.104c-4.238,4.469-0.551,9.442-0.117,9.995l0.232,0.295
					l-2.063,1.656l-0.236-0.296c-1.984-2.473-4.482-8.471,0.26-13.472c1.798-1.896,4.057-2.939,6.358-2.939
					c0.993,0,1.979,0.191,2.929,0.57c3.852,1.535,6.245,5.729,6.245,10.943c0,9.305-9.204,18.49-24.451,33.708l-2.712,2.705
					c-1.994,1.996-2.922,4.015-2.922,6.35c0,0.854,0.409,1.938,1.191,2.356c0.229,0.122,0.488,0.185,0.771,0.185
					c0.602,0,1.337-0.278,2.128-0.806l0.315-0.209l1.468,2.205l-0.314,0.21C117.169,122.714,115.961,123.136,114.826,123.136z"/>
				<path fill="#BE9819" d="M133.771,64.043c0.934,0,1.873,0.18,2.789,0.544c3.704,1.477,6.006,5.535,6.006,10.592
					c0,9.147-9.161,18.291-24.34,33.44l-2.712,2.705c-2.069,2.072-3.033,4.174-3.033,6.617c0,0.937,0.436,2.179,1.392,2.69
					c0.302,0.161,0.623,0.229,0.949,0.229c0.827,0,1.685-0.434,2.338-0.868l1.049,1.575c-1.332,0.887-2.461,1.189-3.382,1.189
					c-0.758,0-1.377-0.204-1.848-0.459c-1.65-0.883-2.392-2.824-2.392-4.356c0-2.978,1.142-5.506,3.591-7.954l2.71-2.709
					c14.833-14.803,23.785-23.738,23.785-32.1c0-5.098-2.487-7.906-4.815-8.834c-0.676-0.27-1.371-0.401-2.066-0.401
					c-1.677,0-3.351,0.768-4.729,2.223c-4.551,4.797-0.339,10.235-0.14,10.488l-0.738,0.592l0.245-0.195l-0.982,0.789
					c-1.912-2.384-4.325-8.161,0.239-12.975C129.441,65.016,131.592,64.043,133.771,64.043 M128.923,78.654L128.923,78.654
					L128.923,78.654L128.923,78.654 M128.923,78.654c0,0.001,0.001,0.002,0.001,0.002l-0.494,0.395L128.923,78.654 M133.771,63.287
					v0.756V63.287c-2.407-0.001-4.763,1.085-6.633,3.057c-4.922,5.191-2.336,11.408-0.281,13.97l0.475,0.591l0.59-0.475l0.982-0.789
					l0.492-0.393l0.59-0.471l-0.468-0.59v-0.001c-0.414-0.526-3.925-5.263,0.094-9.499c1.214-1.282,2.698-1.987,4.18-1.988
					c0.606,0,1.208,0.117,1.786,0.349c2.098,0.836,4.339,3.411,4.339,8.131c0,8.049-8.869,16.9-23.562,31.563l-2.711,2.71
					c-2.601,2.6-3.812,5.298-3.812,8.489c0,1.758,0.863,3.992,2.791,5.023c0.672,0.363,1.414,0.549,2.205,0.549
					c1.21,0,2.489-0.443,3.801-1.316l0.631-0.419l-0.42-0.63l-1.049-1.576l-0.419-0.629l-0.63,0.419
					c-0.729,0.485-1.393,0.741-1.919,0.741c-0.223,0-0.417-0.045-0.593-0.14c-0.644-0.345-0.991-1.299-0.991-2.022
					c0-2.229,0.894-4.161,2.812-6.082l2.711-2.704c15.317-15.288,24.562-24.515,24.562-33.977c0-5.373-2.484-9.701-6.482-11.295
					C135.845,63.487,134.812,63.287,133.771,63.287L133.771,63.287z"/>
			</g>
		</g>
		<g>
			<g>
				<path fill="#E0D86A" d="M85.173,123.136c-1.135,0-2.343-0.422-3.592-1.253l-0.314-0.21l1.468-2.205l0.315,0.21
					c0.79,0.526,1.525,0.805,2.128,0.805c0.282,0,0.542-0.062,0.771-0.185c0.781-0.418,1.19-1.502,1.19-2.356
					c0-2.335-0.928-4.354-2.922-6.35l-2.712-2.705C66.259,93.669,57.055,84.483,57.055,75.179c0-5.215,2.394-9.408,6.245-10.943
					c0.949-0.379,1.935-0.57,2.929-0.57c2.302,0,4.561,1.044,6.358,2.939c4.744,5.003,2.244,11,0.259,13.473l-0.237,0.295
					l-2.063-1.654l0.233-0.296c0.435-0.554,4.122-5.527-0.116-9.995c-1.285-1.357-2.867-2.105-4.454-2.105
					c-0.655,0-1.304,0.126-1.926,0.375c-2.213,0.882-4.577,3.572-4.577,8.482c0,8.206,8.91,17.099,23.674,31.832l2.71,2.709
					c2.525,2.524,3.702,5.137,3.702,8.222c0,1.645-0.802,3.732-2.592,4.69C86.582,122.966,85.9,123.136,85.173,123.136z"/>
				<path fill="#BE9819" d="M66.229,64.043c2.179,0,4.329,0.973,6.084,2.822c4.564,4.813,2.152,10.591,0.238,12.975l-1.024-0.824
					l0.288,0.23l-0.738-0.592c0.199-0.253,4.411-5.691-0.14-10.488c-1.378-1.455-3.052-2.223-4.729-2.223
					c-0.695,0-1.391,0.132-2.066,0.401c-2.329,0.928-4.815,3.736-4.815,8.834c0,8.361,8.952,17.297,23.785,32.1l2.71,2.709
					c2.449,2.448,3.591,4.977,3.591,7.954c0,1.532-0.741,3.474-2.392,4.356c-0.471,0.255-1.09,0.459-1.848,0.459
					c-0.922,0-2.05-0.303-3.382-1.189l1.049-1.575c0.652,0.435,1.511,0.868,2.338,0.868c0.326,0,0.647-0.067,0.949-0.229
					c0.956-0.512,1.392-1.754,1.392-2.69c0-2.443-0.964-4.545-3.033-6.617l-2.712-2.705c-15.179-15.149-24.34-24.293-24.34-33.44
					c0-5.057,2.302-9.115,6.006-10.592C64.354,64.223,65.294,64.043,66.229,64.043 M71.076,78.654L71.076,78.654L71.076,78.654
					L71.076,78.654 M71.076,78.654l0.45,0.361l-0.451-0.359C71.075,78.656,71.076,78.655,71.076,78.654 M66.229,63.287
					c-1.042,0-2.075,0.2-3.069,0.597c-3.998,1.594-6.482,5.922-6.482,11.295c0,9.462,9.245,18.688,24.562,33.976l2.713,2.706
					c1.917,1.92,2.811,3.853,2.811,6.081c0,0.724-0.348,1.678-0.992,2.023c-0.175,0.094-0.369,0.139-0.592,0.139
					c-0.527,0-1.19-0.256-1.918-0.741l-0.63-0.42l-0.42,0.63l-1.049,1.576l-0.42,0.63l0.631,0.419
					c1.312,0.873,2.591,1.316,3.801,1.316c0.791,0,1.534-0.186,2.208-0.551c1.925-1.029,2.788-3.264,2.788-5.021
					c0-3.191-1.212-5.89-3.812-8.489l-2.71-2.709C68.952,92.079,60.083,83.228,60.083,75.179c0-4.721,2.241-7.296,4.339-8.131
					c0.578-0.231,1.18-0.349,1.786-0.349c1.481,0,2.966,0.706,4.179,1.987c3.953,4.167,0.624,8.815,0.118,9.471l-0.024,0.031
					l-0.467,0.589l0.59,0.471l0.449,0.358l1.023,0.823l0.591,0.475l0.474-0.591c2.057-2.561,4.645-8.776-0.279-13.969
					C70.991,64.373,68.635,63.287,66.229,63.287L66.229,63.287z"/>
			</g>
		</g>
	</g>
</g>
</svg>
