<?xml version="1.0" encoding="utf-8"?>
<!-- Generator: Adobe Illustrator 15.0.2, SVG Export Plug-In . SVG Version: 6.00 Build 0)  -->
<!DOCTYPE svg PUBLIC "-//W3C//DTD SVG 1.1//EN" "http://www.w3.org/Graphics/SVG/1.1/DTD/svg11.dtd">
<svg version="1.1" id="Layer_1" xmlns="http://www.w3.org/2000/svg" xmlns:xlink="http://www.w3.org/1999/xlink" x="0px" y="0px"
	 width="200px" height="200px" viewBox="0 0 200 200" enable-background="new 0 0 200 200" xml:space="preserve">
<rect fill="none" width="200" height="200"/>
<g>
	<g>
		<g>
			<g>
				<path fill="#FF0000" d="M100,199.065c-13.373,0-26.348-2.619-38.561-7.785c-11.797-4.99-22.393-12.133-31.49-21.23
					s-16.24-19.692-21.229-31.488C3.555,126.347,0.934,113.373,0.934,100s2.621-26.347,7.787-38.561
					c4.988-11.797,12.131-22.392,21.229-31.489s19.693-16.24,31.49-21.23C73.652,3.554,86.627,0.935,100,0.935
					s26.348,2.619,38.561,7.785c11.797,4.99,22.391,12.133,31.488,21.23s16.24,19.692,21.23,31.489
					c5.166,12.214,7.785,25.188,7.785,38.561s-2.619,26.347-7.785,38.562c-4.99,11.796-12.133,22.391-21.23,31.488
					s-19.691,16.24-31.488,21.23C126.348,196.446,113.373,199.065,100,199.065z"/>
				<path d="M100,1.869c54.195,0,98.131,43.935,98.131,98.131S154.195,198.131,100,198.131c-54.197,0-98.131-43.935-98.131-98.131
					S45.803,1.869,100,1.869 M100,0C86.5,0,73.404,2.645,61.074,7.859c-11.908,5.036-22.602,12.247-31.785,21.43
					c-9.184,9.184-16.393,19.878-21.43,31.786C2.645,73.404,0,86.501,0,100s2.645,26.596,7.859,38.925
					c5.037,11.908,12.246,22.603,21.43,31.786c9.184,9.183,19.877,16.394,31.785,21.43C73.404,197.355,86.5,200,100,200
					c13.498,0,26.596-2.645,38.924-7.859c11.908-5.036,22.604-12.247,31.787-21.43c9.184-9.184,16.393-19.878,21.43-31.786
					C197.355,126.596,200,113.499,200,100s-2.645-26.596-7.859-38.925c-5.037-11.908-12.246-22.603-21.43-31.786
					c-9.184-9.183-19.879-16.394-31.787-21.43C126.596,2.645,113.498,0,100,0L100,0z"/>
			</g>
		</g>
		<g>
			<path fill="#E0D86A" d="M34.91,137.579c-9.062-15.695-12.676-16.965-12.676-16.965l-15.783,9.112
				c4.344,13.681,11.605,26.062,21.055,36.412l15.76-9.099C43.266,157.04,43.971,153.274,34.91,137.579z"/>
		</g>
		<g>
			<path fill="#E0D86A" d="M165.09,62.421c9.061,15.695,12.674,16.965,12.674,16.965l15.783-9.112
				c-4.344-13.68-11.605-26.062-21.053-36.412l-15.76,9.1C156.734,42.961,156.027,46.726,165.09,62.421z"/>
		</g>
		<g>
			<path fill="#E0D86A" d="M34.91,62.421c9.061-15.695,8.355-19.46,8.355-19.46l-15.76-9.1
				C18.057,44.212,10.795,56.594,6.451,70.273l15.783,9.112C22.234,79.386,25.848,78.116,34.91,62.421z"/>
		</g>
		<g>
			<path fill="#E0D86A" d="M177.764,120.614c0,0-3.613,1.27-12.674,16.965c-9.062,15.695-8.355,19.461-8.355,19.461l15.76,9.099
				c9.447-10.351,16.709-22.731,21.053-36.412L177.764,120.614z"/>
		</g>
		<g>
			<path fill="#E0D86A" d="M100,175.159c-18.123,0-21.031,2.494-21.031,2.494v18.219c6.775,1.479,13.812,2.259,21.031,2.259
				s14.254-0.78,21.029-2.259v-18.219C121.029,177.653,118.123,175.159,100,175.159z"/>
		</g>
		<g>
			<path fill="#E0D86A" d="M100,24.841c18.123,0,21.029-2.494,21.029-2.494V4.128C114.254,2.649,107.219,1.869,100,1.869
				s-14.256,0.78-21.031,2.259v18.219C78.969,22.347,81.877,24.841,100,24.841z"/>
		</g>
		<g>
			<path d="M100,172.212c-9.76,0-19.215-1.905-28.1-5.664c-4.273-1.808-8.398-4.046-12.258-6.653
				c-3.828-2.587-7.43-5.559-10.705-8.833c-3.273-3.274-6.246-6.876-8.832-10.705c-2.607-3.859-4.846-7.982-6.654-12.256
				c-3.758-8.887-5.664-18.34-5.664-28.101c0-9.76,1.906-19.214,5.664-28.1c1.809-4.274,4.047-8.397,6.654-12.257
				c2.586-3.829,5.559-7.431,8.832-10.705c3.275-3.274,6.877-6.246,10.705-8.833c3.859-2.607,7.984-4.846,12.258-6.653
				c8.885-3.759,18.34-5.664,28.1-5.664s19.213,1.905,28.1,5.664c4.273,1.808,8.396,4.046,12.256,6.653
				c3.83,2.587,7.432,5.559,10.705,8.833c3.275,3.274,6.246,6.876,8.834,10.705c2.607,3.859,4.846,7.982,6.652,12.257
				c3.76,8.886,5.664,18.34,5.664,28.1c0,9.761-1.904,19.214-5.664,28.101c-1.807,4.273-4.045,8.396-6.652,12.256
				c-2.588,3.829-5.559,7.431-8.834,10.705c-3.273,3.274-6.875,6.246-10.705,8.833c-3.859,2.607-7.982,4.846-12.256,6.653
				C119.213,170.307,109.76,172.212,100,172.212z"/>
		</g>
		<g>
			<path fill="#FFFFFF" d="M100.084,172.228c-1.691,0-3.404-0.061-5.086-0.179c-0.846-0.061-1.703-0.137-2.547-0.226l0.658-6.196
				c0.771,0.083,1.555,0.151,2.328,0.206c1.537,0.109,3.1,0.164,4.646,0.164c2.275,0,4.57-0.119,6.82-0.354l0.646,6.197
				C105.086,172.098,102.572,172.228,100.084,172.228z M122.326,168.698l-1.936-5.924c4.338-1.415,8.578-3.311,12.6-5.633
				l0.027-0.016l3.092,5.409l-1.547-2.704l1.543,2.706l0.012-0.007l-0.012,0.007C131.709,165.075,127.072,167.148,122.326,168.698z
				 M77.688,168.679c-3.207-1.041-6.363-2.313-9.381-3.782c-1.49-0.727-2.977-1.514-4.418-2.344l3.109-5.399
				c1.316,0.757,2.674,1.479,4.037,2.141c2.758,1.343,5.643,2.506,8.576,3.458L77.688,168.679z M51.664,153.687
				c-3.736-3.363-7.133-7.144-10.094-11.236l5.049-3.652c2.703,3.737,5.805,7.189,9.213,10.258L51.664,153.687z M148.346,153.672
				l-4.164-4.636c3.092-2.777,5.938-5.876,8.455-9.211c0.258-0.34,0.518-0.688,0.77-1.037l5.043,3.657
				c-0.275,0.381-0.559,0.763-0.84,1.137C154.85,147.233,151.732,150.627,148.346,153.672z M34.025,129.385
				c-2.064-4.611-3.641-9.442-4.686-14.359l6.094-1.295c0.955,4.487,2.395,8.897,4.279,13.108L34.025,129.385z M165.982,129.356
				l-5.695-2.524c1.395-3.149,2.555-6.432,3.445-9.755c0.299-1.111,0.57-2.246,0.811-3.375l6.094,1.295
				c-0.262,1.234-0.561,2.477-0.887,3.692C168.777,122.325,167.508,125.913,165.982,129.356z M34.002,100.012l-6.23-0.006
				c0.002-1.665,0.062-3.351,0.18-5.008c0.236-3.344,0.713-6.71,1.412-10.005l6.094,1.297c-0.641,3.014-1.074,6.091-1.291,9.146
				C34.059,96.95,34.004,98.491,34.002,100.012z M172.227,99.991l-6.23-0.018v-0.057c0-2.704-0.166-5.426-0.498-8.089
				c-0.23-1.864-0.545-3.737-0.936-5.566l6.096-1.296c0.426,2.003,0.77,4.054,1.023,6.096c0.361,2.917,0.545,5.896,0.545,8.855
				V99.991z M39.717,73.161l-5.695-2.526c0.346-0.781,0.709-1.563,1.082-2.327c1.83-3.76,4-7.381,6.451-10.761l5.045,3.658
				c-2.24,3.087-4.223,6.395-5.895,9.83C40.365,71.732,40.033,72.448,39.717,73.161z M160.283,73.154
				c-0.932-2.08-1.988-4.148-3.143-6.146c-1.156-2.004-2.424-3.96-3.766-5.813l5.049-3.652c1.465,2.025,2.85,4.162,4.113,6.351
				c1.26,2.182,2.414,4.44,3.432,6.713L160.283,73.154z M55.824,50.958l-4.164-4.636c3.717-3.337,7.83-6.316,12.225-8.854
				l3.117,5.395C62.979,45.186,59.219,47.909,55.824,50.958z M144.16,50.938c-1.383-1.246-2.842-2.448-4.334-3.576
				c-2.166-1.636-4.465-3.157-6.832-4.52l3.107-5.4c2.592,1.492,5.109,3.156,7.48,4.948c1.635,1.235,3.23,2.553,4.746,3.916
				L144.16,50.938z M120.381,37.245c-1.09-0.354-2.201-0.684-3.305-0.979c-3.33-0.893-6.762-1.529-10.195-1.895l0.658-6.195
				c3.756,0.398,7.508,1.097,11.15,2.072c1.205,0.323,2.422,0.683,3.613,1.068L120.381,37.245z M79.6,37.228l-1.936-5.923
				c4.34-1.417,8.846-2.423,13.396-2.987c0.455-0.057,0.92-0.109,1.379-0.157l0.646,6.197c-0.42,0.044-0.842,0.093-1.258,0.145
				C87.674,35.017,83.559,35.933,79.6,37.228z"/>
		</g>
		<g>
			<g>
				<path fill="#FFFFFF" d="M100,160.686c-8.209,0-16.152-1.601-23.609-4.754c-3.588-1.517-7.053-3.397-10.295-5.588
					c-3.221-2.177-6.252-4.677-9.008-7.433c-2.754-2.756-5.256-5.786-7.432-9.008c-2.191-3.242-4.07-6.705-5.588-10.293
					c-3.154-7.458-4.754-15.401-4.754-23.61s1.6-16.152,4.754-23.61c1.518-3.588,3.396-7.051,5.588-10.293
					c2.176-3.222,4.676-6.252,7.432-9.008c2.756-2.755,5.787-5.255,9.008-7.433c3.242-2.19,6.707-4.071,10.295-5.588
					c7.457-3.154,15.4-4.754,23.609-4.754s16.152,1.6,23.609,4.754c3.588,1.517,7.051,3.397,10.293,5.588
					c3.223,2.178,6.252,4.678,9.008,7.433c2.756,2.756,5.256,5.786,7.434,9.008c2.189,3.242,4.07,6.705,5.588,10.293
					c3.154,7.458,4.754,15.401,4.754,23.61s-1.6,16.152-4.754,23.61c-1.518,3.588-3.398,7.051-5.588,10.293
					c-2.178,3.222-4.678,6.252-7.434,9.008s-5.785,5.256-9.008,7.433c-3.242,2.19-6.705,4.071-10.293,5.588
					C116.152,159.085,108.209,160.686,100,160.686z"/>
			</g>
		</g>
	</g>
	<g>
		<g>
			<g>
				<path fill="#FF0000" d="M134.165,120.953c-0.022,0-0.044-0.001-0.064-0.007l-2.87-0.754c-0.104-0.028-0.174-0.121-0.174-0.227
					l0.173-31.472c0.001-0.07,0.032-0.138,0.088-0.181c0.04-0.031,0.089-0.049,0.138-0.05c0.02-0.001,0.041,0.001,0.059,0.006
					l4.947,1.15c0.112,0.026,0.188,0.128,0.179,0.243l-2.248,31.075c-0.005,0.067-0.041,0.132-0.098,0.172
					C134.256,120.938,134.212,120.952,134.165,120.953z"/>
				<path d="M131.462,88.496l4.946,1.149l-2.249,31.075l-2.278-0.599l-0.592-0.156L131.462,88.496 M131.45,88.032
					c-0.1,0.002-0.197,0.037-0.276,0.099c-0.11,0.087-0.176,0.222-0.177,0.362l-0.173,31.471c-0.001,0.213,0.142,0.398,0.348,0.453
					l0.59,0.154l2.28,0.6c0.042,0.012,0.086,0.016,0.129,0.015c0.091-0.002,0.182-0.032,0.258-0.087
					c0.113-0.08,0.184-0.205,0.194-0.344l2.249-31.074c0.016-0.229-0.136-0.435-0.358-0.486l-4.947-1.15
					C131.527,88.034,131.488,88.03,131.45,88.032L131.45,88.032z"/>
			</g>
			<g>
				<path d="M131.002,119.411c0,0-0.177,0.409-0.178,0.555l-0.011,1.927c-0.002,0.211,0.142,0.397,0.347,0.45l1.151,0.303
					l1.594,0.439c0.042,0.01,0.311-0.038,0.387-0.092c0.113-0.081,0.183-0.207,0.194-0.346l0.137-1.893
					c0.017-0.224-0.13-0.428-0.347-0.484L131.002,119.411z"/>
			</g>
			<g>
				<path fill="#FF0000" d="M134.176,120.816c-0.05,0.002-0.099-0.014-0.141-0.041c-0.073-0.048-0.113-0.133-0.107-0.22
					l2.237-30.927c0.005-0.052,0.025-0.101,0.058-0.14l5.307-6.266c0.046-0.054,0.111-0.084,0.18-0.087
					c0.036,0,0.069,0.007,0.104,0.021c0.099,0.043,0.156,0.147,0.144,0.254l-4.49,35.664c-0.011,0.08-0.061,0.149-0.134,0.188
					l-3.055,1.527C134.246,120.806,134.212,120.815,134.176,120.816z"/>
				<path d="M141.715,83.38l-4.491,35.665l-3.054,1.527l2.238-30.927L141.715,83.38 M141.702,82.896
					c-0.135,0.002-0.266,0.062-0.357,0.17l-5.307,6.268c-0.066,0.078-0.107,0.176-0.113,0.277l-2.239,30.928
					c-0.013,0.174,0.069,0.341,0.215,0.439c0.084,0.056,0.183,0.084,0.281,0.082c0.07-0.002,0.141-0.02,0.205-0.052l3.055-1.528
					c0.146-0.072,0.244-0.213,0.266-0.374l4.489-35.664c0.026-0.214-0.09-0.42-0.286-0.505
					C141.844,82.906,141.773,82.894,141.702,82.896L141.702,82.896z"/>
			</g>
			<g>
				<path d="M137.224,119.046h0.003 M135.654,119.288l-1.702,0.853c-0.153,0.075-0.255,0.228-0.267,0.399l-0.147,2.039
					c-0.014,0.172,0.068,0.342,0.214,0.438c0.085,0.057,0.184,0.086,0.282,0.082c0.07-0.002,0.141-0.018,0.205-0.05l1.611-0.807
					l1.326-0.665c0.146-0.071,0.245-0.211,0.265-0.373l0.26-2.063c0.008-0.035,0.01-0.071,0.01-0.107
					c-0.006-0.176-0.116-0.715-0.116-0.715L135.654,119.288z"/>
			</g>
		</g>
		<g>
			<path fill="#FF0000" d="M123.434,54.273c-5.34,0.135-16.113,11.092-25.61,34.159c-7.476,18.162-15.591,21.416-22.09,24.727
				c-9.524,4.852-19.986,11.311-19.819,17.984c0.169,6.675,13.396,6.338,17.765,6.229c4.369-0.109,34.76-0.966,39.415-8.976
				c4.656-8.011,5.035-14.854,8.853-22.356c3.817-7.504,21.294-17.537,21.096-25.426C142.843,72.728,137.146,53.927,123.434,54.273z
				"/>
			<path d="M73.687,137.614l-0.008-0.242l-0.001,0.242c-2.146,0.055-6.612,0.168-10.508-0.574c-4.9-0.933-7.423-2.914-7.497-5.889
				c-0.182-7.123,11.301-13.803,19.951-18.209c0.35-0.178,0.703-0.355,1.062-0.535c6.181-3.104,13.873-6.965,20.913-24.066
				c9.193-22.33,19.951-34.162,25.828-34.311c14.453-0.365,19.682,19.642,19.856,26.578c0.119,4.725-5.84,10.1-11.604,15.296
				c-4.091,3.688-7.954,7.171-9.518,10.246c-1.718,3.377-2.715,6.552-3.77,9.911c-1.243,3.957-2.527,8.048-5.091,12.457
				C108.873,136.144,81.859,137.409,73.687,137.614z M123.441,54.515c-5.581,0.143-16.376,12.109-25.393,34.012
				c-7.109,17.268-14.892,21.175-21.145,24.313c-0.357,0.181-0.712,0.356-1.061,0.536c-8.533,4.345-19.859,10.914-19.687,17.764
				c0.069,2.715,2.459,4.539,7.104,5.423c3.845,0.732,8.275,0.62,10.404,0.565h0.007c8.111-0.203,34.906-1.446,39.212-8.854
				c2.533-4.363,3.811-8.426,5.045-12.358c1.016-3.231,2.063-6.573,3.801-9.987c1.604-3.152,5.501-6.666,9.625-10.385
				c5.682-5.123,11.556-10.422,11.443-14.924C142.627,73.81,137.526,54.16,123.441,54.515z"/>
		</g>
		<g>
			<g>
				<path fill="#E0D86A" d="M107.701,92.392c-2.398,5.826-4.996,10.376-8.082,14.912c-2.261,3.324-6.958,8.545-12.218,11.18
					c2.867,1.346,5.734,3.126,8.961,3.461c5.057,0.524,11.078-1.23,11.758-2.4c2.44-4.199,11.133-23.491,12.812-29.381
					c1.758-6.154,3.716-13.654,5.075-19.949C115.254,72.46,109.668,87.615,107.701,92.392z"/>
				<path d="M98.843,122.275L98.843,122.275c-0.876,0.021-1.719-0.009-2.507-0.09c-2.59-0.269-4.948-1.45-7.228-2.595
					c-0.606-0.305-1.208-0.607-1.811-0.889l-0.453-0.213l0.447-0.223c4.793-2.4,9.544-7.303,12.126-11.1
					c3.394-4.988,5.879-9.573,8.059-14.869c0.105-0.254,0.221-0.537,0.346-0.846c2.343-5.782,7.828-19.322,18.137-21.477
					l0.366-0.076l-0.079,0.365c-1.226,5.672-3.077,12.948-5.08,19.965c-1.637,5.738-10.308,25.084-12.836,29.436
					C107.697,120.756,103.323,122.163,98.843,122.275z M87.946,118.474c0.459,0.221,0.918,0.453,1.379,0.684
					c2.242,1.124,4.56,2.285,7.062,2.546c0.766,0.079,1.588,0.108,2.443,0.087c4.315-0.108,8.582-1.511,9.08-2.367
					c2.52-4.337,11.159-23.611,12.789-29.325c1.957-6.854,3.769-13.958,4.992-19.563c-9.819,2.344-15.135,15.459-17.419,21.099
					c-0.126,0.311-0.242,0.596-0.346,0.851c-2.193,5.328-4.693,9.941-8.107,14.957C97.462,110.907,92.975,115.81,87.946,118.474z"/>
			</g>
			<g>
				<path fill="#BE9819" d="M99.619,107.304c3.086-4.536,5.684-9.086,8.082-14.912c1.967-4.776,7.553-19.932,18.307-22.178
					c1.068-4.936,1.767-9.132,1.711-11.354c-0.058-2.266-3.146-3.584-5.61-2.945c-3.285,0.854-13.217,8.076-23.387,32.779
					c-5.195,12.619-10.842,18.276-15.979,21.684c-0.904,0.6-4.109,2.336-5.173,2.866c-2.006,1.005-4.084,2.153-2.112,1.952
					c2.625-0.27,7.513,1.539,10.071,2.488c0.627,0.232,1.25,0.506,1.873,0.799C92.661,115.849,97.358,110.628,99.619,107.304z"/>
				<path d="M87.404,118.753l-0.106-0.051c-0.709-0.334-1.299-0.584-1.854-0.79c-2.539-0.941-7.381-2.733-9.961-2.475
					c-0.132,0.014-0.246,0.022-0.345,0.024c-0.188,0.004-0.627,0.016-0.708-0.305c-0.079-0.319,0.092-0.658,3.031-2.13
					c1.079-0.54,4.272-2.272,5.147-2.853c4.137-2.742,10.286-7.964,15.888-21.572c9.775-23.742,19.681-31.916,23.552-32.923
					c2.435-0.634,5.85,0.637,5.914,3.174c0.052,2.065-0.526,5.904-1.716,11.411l-0.033,0.154l-0.154,0.033
					c-10.055,2.1-15.473,15.472-17.786,21.181c-0.126,0.311-0.242,0.596-0.346,0.851c-2.193,5.328-4.693,9.941-8.107,14.957
					c-2.426,3.566-7.105,8.654-12.309,11.259L87.404,118.753z M75.853,114.929c2.752-0.069,7.311,1.621,9.76,2.528
					c0.54,0.2,1.109,0.441,1.785,0.755c4.757-2.416,9.457-7.275,12.021-11.045c3.394-4.988,5.879-9.573,8.059-14.869
					c0.105-0.254,0.221-0.537,0.346-0.846c2.332-5.754,7.774-19.188,17.982-21.441c1.159-5.389,1.722-9.137,1.671-11.144
					c-0.045-1.778-2.208-2.918-4.201-2.868c-0.382,0.01-0.753,0.06-1.104,0.152c-3.791,0.982-13.522,9.07-23.225,32.636
					c-5.652,13.733-11.879,19.015-16.068,21.794c-0.905,0.6-4.082,2.322-5.198,2.881c-1.747,0.875-2.414,1.305-2.657,1.514
					c0.097,0.004,0.242-0.003,0.412-0.021C75.568,114.942,75.708,114.933,75.853,114.929z"/>
			</g>
		</g>
	</g>
</g>
</svg>
