<?xml version="1.0" encoding="utf-8"?>
<!-- Generator: Adobe Illustrator 15.0.2, SVG Export Plug-In . SVG Version: 6.00 Build 0)  -->
<!DOCTYPE svg PUBLIC "-//W3C//DTD SVG 1.1//EN" "http://www.w3.org/Graphics/SVG/1.1/DTD/svg11.dtd">
<svg version="1.1" id="Layer_1" xmlns="http://www.w3.org/2000/svg" xmlns:xlink="http://www.w3.org/1999/xlink" x="0px" y="0px"
	 width="200px" height="200px" viewBox="0 0 200 200" enable-background="new 0 0 200 200" xml:space="preserve">
<rect fill="none" width="200" height="200"/>
<g>
	<g>
		<path d="M99.645,195.113c-13.862,0-27.102-2.299-39.354-6.836c-5.888-2.18-11.536-4.885-16.787-8.041
			c-5.188-3.115-10.046-6.705-14.441-10.668c-4.378-3.947-8.342-8.307-11.782-12.957c-3.456-4.672-6.418-9.688-8.805-14.904
			c-4.923-10.76-7.42-22.285-7.42-34.254c0-0.254-0.008-0.877-0.019-1.742c-0.043-3.305-0.132-10.182,0.02-13.212
			c0.597-11.841,3.689-23.326,9.191-34.136c2.643-5.192,5.842-10.2,9.508-14.884c3.63-4.638,7.75-8.998,12.245-12.96
			c4.494-3.96,9.4-7.557,14.581-10.688c5.231-3.161,10.79-5.875,16.521-8.068c11.926-4.563,24.465-6.877,37.271-6.877
			s25.326,2.314,37.214,6.877c5.714,2.194,11.25,4.909,16.455,8.07c5.156,3.131,10.032,6.728,14.493,10.689
			c4.463,3.963,8.546,8.324,12.138,12.962c3.627,4.684,6.784,9.692,9.383,14.886c5.412,10.811,8.408,22.296,8.905,34.137
			c0.118,2.808,0.053,9.395,0.018,12.935c-0.01,0.982-0.017,1.695-0.017,2.012c0,11.92-2.535,23.424-7.536,34.189
			c-2.421,5.211-5.424,10.225-8.923,14.9c-3.481,4.65-7.49,9.012-11.916,12.967c-4.439,3.967-9.344,7.561-14.574,10.686
			c-5.294,3.16-10.98,5.871-16.902,8.059C126.783,192.805,113.506,195.113,99.645,195.113z"/>
		<path d="M100.373,5.857c51.901,0,95.605,38.813,97.617,86.69c0.15,3.563,0,13.436,0,14.906c0,47.965-42.019,86.689-98.346,86.689
			c-56.327,0-97.618-38.559-97.618-86.689c0-1.258-0.191-11.124,0-14.906C4.441,44.67,48.471,5.857,100.373,5.857 M100.373,3.915
			c-6.496,0-13.018,0.604-19.385,1.794c-6.206,1.16-12.34,2.892-18.232,5.146C56.97,13.069,51.359,15.809,46.08,19
			c-5.231,3.161-10.185,6.792-14.722,10.791c-4.54,4.001-8.701,8.406-12.367,13.09c-3.705,4.732-6.938,9.794-9.608,15.042
			c-2.723,5.349-4.889,10.949-6.439,16.643C1.351,80.411,0.39,86.429,0.086,92.45c-0.154,3.062-0.064,9.958-0.021,13.273
			c0.011,0.83,0.019,1.482,0.019,1.73c0,6.068,0.649,12.111,1.929,17.959c1.255,5.732,3.132,11.352,5.579,16.699
			c2.415,5.279,5.412,10.352,8.908,15.076c3.478,4.703,7.486,9.111,11.912,13.102c4.441,4.006,9.351,7.633,14.592,10.781
			c5.303,3.184,11.006,5.916,16.95,8.117c6.06,2.244,12.448,3.967,18.987,5.117c6.707,1.182,13.673,1.781,20.704,1.781
			c7.03,0,14.007-0.602,20.735-1.787c6.559-1.156,12.974-2.883,19.066-5.135c5.979-2.207,11.72-4.943,17.064-8.135
			c5.284-3.156,10.237-6.787,14.724-10.797c4.473-3.996,8.525-8.406,12.046-13.107c3.541-4.729,6.578-9.801,9.026-15.074
			c2.483-5.346,4.39-10.959,5.664-16.68c1.302-5.842,1.963-11.869,1.963-17.918c0-0.314,0.007-1.059,0.017-2.002
			c0.035-3.549,0.101-10.152-0.019-12.986c-0.253-6.021-1.163-12.038-2.706-17.885c-1.502-5.695-3.623-11.295-6.301-16.647
			c-2.627-5.249-5.818-10.311-9.484-15.045c-3.628-4.685-7.753-9.09-12.26-13.092c-4.505-4-9.429-7.632-14.635-10.794
			c-5.254-3.191-10.843-5.932-16.611-8.146c-5.874-2.255-11.994-3.986-18.19-5.147C113.386,4.518,106.868,3.915,100.373,3.915
			L100.373,3.915z"/>
	</g>
	<path fill="#FFFFFF" d="M5.448,118.752v12.176c3.835,12.777,10.77,24.338,20.163,33.975v-14.039L5.448,118.752z"/>
	<path fill="#FFFFFF" d="M33.86,125.746c-8.647-13.865-12.243-14.988-12.243-14.988l-16.169,7.996
		c3.885,12.057,10.847,22.975,20.163,32.109l16.191-7.926C41.802,142.938,42.625,139.611,33.86,125.746z"/>
	<path fill="#FFFFFF" d="M164.389,59.209c9.332,13.865,12.944,14.988,12.944,14.988l15.144-7.967
		c-4.688-12.115-12.138-23.074-21.613-32.228l-15.073,8.016C155.79,42.018,155.176,45.344,164.389,59.209z"/>
	<path fill="#FFFFFF" d="M36.174,59.349c9.331-13.865,8.744-17.19,8.744-17.19l-15.261-8.167
		c-9.556,9.154-17.1,20.115-21.892,32.232l15.34,8.114C23.105,74.337,26.726,73.214,36.174,59.349z"/>
	<path fill="#FFFFFF" d="M173.916,150.863v14.145c9.452-9.545,16.482-20.982,20.433-33.605v-12.65L173.916,150.863z"/>
	<path fill="#FFFFFF" d="M194.349,118.752l-16.103-7.994c0,0-3.604,1.123-12.368,14.988c-8.882,13.865-8.086,17.191-8.086,17.191
		l16.124,7.926C183.309,141.729,190.362,130.811,194.349,118.752z"/>
	<path fill="#FFFFFF" d="M77.816,177.229v14.895c6.962,1.322,14.26,2.02,21.829,2.02c7.562,0,14.866-0.697,21.846-2.021v-14.893
		H77.816z"/>
	<path fill="#FFFFFF" d="M99.73,158.943c-18.662,0-21.687,2.205-21.687,2.205l-0.227,16.08c6.998,1.314,14.3,2.01,21.829,2.01
		s14.837-0.695,21.846-2.01l-0.092-16.08C121.398,161.148,118.392,158.943,99.73,158.943z"/>
	<path fill="#FFFFFF" d="M100.288,26.15c17.529,0,20.329-2.203,20.329-2.203l-0.089-16.108c-6.521-1.298-13.266-1.982-20.154-1.982
		c-6.891,0-13.643,0.685-20.176,1.983l-0.219,16.107C79.978,23.947,82.759,26.15,100.288,26.15z"/>
	<g>
		<path fill="#FFFFFF" d="M99.827,155.057c-1.739,0-3.5-0.053-5.23-0.156c-0.869-0.055-1.75-0.121-2.617-0.199l0.718-5.473
			c0.791,0.07,1.593,0.133,2.386,0.182c1.577,0.096,3.18,0.145,4.767,0.145c2.334,0,4.689-0.105,6.999-0.312l0.659,5.473
			C104.972,154.943,102.388,155.057,99.827,155.057z M122.684,151.939l-2.014-5.23c4.435-1.252,8.759-2.926,12.852-4.979
			l0.027-0.014l3.222,4.779l-1.612-2.389l1.61,2.391l0.011-0.008l-0.012,0.008C132.287,148.74,127.549,150.57,122.684,151.939z
			 M76.837,151.924c-3.279-0.92-6.499-2.045-9.569-3.342c-1.517-0.643-3.027-1.338-4.487-2.07l3.279-4.77
			c1.333,0.668,2.709,1.305,4.092,1.891c2.802,1.188,5.74,2.213,8.733,3.055L76.837,151.924z M50.467,138.678
			c-3.728-2.969-7.088-6.309-9.988-9.926l5.224-3.227c2.651,3.303,5.72,6.352,9.122,9.062L50.467,138.678z M149.161,138.666
			l-4.318-4.094c3.106-2.455,5.949-5.193,8.449-8.139c0.255-0.301,0.51-0.609,0.76-0.916l5.193,3.23
			c-0.272,0.336-0.553,0.674-0.832,1.004C155.679,132.977,152.565,135.977,149.161,138.666z M33.22,117.209
			c-1.939-4.074-3.372-8.342-4.262-12.684l6.163-1.145c0.823,3.963,2.141,7.859,3.919,11.58L33.22,117.209z M166.588,117.186
			l-5.811-2.23c1.341-2.783,2.437-5.682,3.257-8.617c0.274-0.982,0.522-1.984,0.737-2.982l6.152,1.146
			c-0.231,1.09-0.5,2.186-0.797,3.26C169.238,110.973,168.047,114.143,166.588,117.186z M34.111,91.262l-6.22-0.006
			c0.058-1.471,0.175-2.959,0.348-4.423c0.348-2.955,0.933-5.928,1.739-8.838l6.007,1.145c-0.729,2.662-1.257,5.381-1.567,8.081
			C34.264,88.558,34.16,89.917,34.111,91.262z M172.127,91.243l-6.222-0.015l-0.001-0.051c-0.064-2.388-0.297-4.792-0.688-7.145
			c-0.273-1.647-0.631-3.302-1.06-4.918l6.018-1.145c0.475,1.771,0.869,3.582,1.175,5.385c0.437,2.578,0.698,5.209,0.775,7.823
			L172.127,91.243z M40.589,67.541l-5.544-2.232c0.366-0.689,0.748-1.381,1.138-2.056c1.916-3.321,4.157-6.52,6.658-9.505
			l4.853,3.231c-2.281,2.727-4.324,5.648-6.069,8.685C41.271,66.279,40.923,66.912,40.589,67.541z M159.627,67.535
			c-0.964-1.837-2.049-3.664-3.226-5.429c-1.179-1.77-2.463-3.499-3.815-5.136l4.884-3.227c1.479,1.79,2.886,3.678,4.176,5.611
			c1.288,1.927,2.478,3.922,3.535,5.931L159.627,67.535z M56.983,47.926l-3.961-4.095c3.701-2.948,7.771-5.58,12.099-7.822
			l2.937,4.766C64.092,42.828,60.367,45.233,56.983,47.926z M143.384,47.909c-1.371-1.1-2.813-2.163-4.286-3.159
			c-2.134-1.445-4.394-2.788-6.717-3.993l2.968-4.77c2.539,1.318,5.011,2.789,7.345,4.372c1.612,1.09,3.189,2.254,4.691,3.459
			L143.384,47.909z M120.06,35.813c-1.061-0.312-2.143-0.604-3.216-0.864c-3.239-0.789-6.572-1.352-9.908-1.674l0.643-5.474
			c3.639,0.353,7.274,0.969,10.809,1.831c1.171,0.287,2.352,0.604,3.51,0.946L120.06,35.813z M80.405,35.797l-1.804-5.232
			c4.224-1.252,8.603-2.14,13.016-2.638c0.441-0.051,0.89-0.098,1.335-0.14l0.586,5.475c-0.408,0.039-0.819,0.081-1.222,0.126
			C88.275,33.844,84.269,34.654,80.405,35.797z"/>
	</g>
	<path opacity="0.2" d="M198.054,96.272c-0.355,46.149-43.551,82.966-98.409,82.966c-54.338,0-96.931-36.121-97.702-81.655
		c-0.004,4.192,0.084,9.017,0.084,9.87c0,48.131,41.291,86.689,97.618,86.689c56.327,0,98.346-38.725,98.346-86.689
		C197.99,106.357,198.073,100.61,198.054,96.272z"/>
	<path opacity="0.5" fill="#FFFFFF" d="M198.054,96.272c-0.355,46.149-43.551,82.966-98.409,82.966
		c-54.338,0-96.931-36.121-97.702-81.655c-0.004,4.192,0.084,5.899,0.084,8.573c0,4.094,3.337,26.416,23.584,47.328
		c14.438,14.912,37.475,28.334,74.034,28.334c36.528,0,59.685-13.4,74.271-28.299c20.484-20.92,24.074-44.045,24.074-49.547
		C197.99,100.477,198.073,100.61,198.054,96.272z"/>
	<g>
		<path fill="#FFFFFF" d="M99.784,144.213c-8.404,0-16.519-1.412-24.106-4.199c-3.644-1.34-7.149-3.002-10.418-4.936
			c-3.243-1.922-6.279-4.133-9.022-6.566c-2.738-2.434-5.205-5.111-7.332-7.957c-2.135-2.865-3.945-5.926-5.381-9.094
			c-2.969-6.588-4.347-13.606-4.109-20.858c0.238-7.251,2.054-14.27,5.383-20.857c1.595-3.169,3.54-6.229,5.779-9.094
			c2.218-2.846,4.746-5.523,7.51-7.958c2.759-2.434,5.775-4.643,8.966-6.566c3.206-1.935,6.617-3.596,10.138-4.937
			c7.305-2.786,15.053-4.199,23.042-4.199c7.989,0,15.725,1.413,23.007,4.199c3.511,1.341,6.907,3.002,10.097,4.937
			c3.174,1.923,6.173,4.132,8.91,6.566c2.744,2.434,5.249,5.112,7.443,7.958c2.215,2.864,4.134,5.924,5.703,9.094
			c3.273,6.587,5.03,13.605,5.208,20.857c0.176,7.252-1.261,14.27-4.285,20.858c-1.462,3.168-3.298,6.229-5.457,9.094
			c-2.151,2.846-4.641,5.523-7.398,7.957c-2.766,2.434-5.819,4.643-9.077,6.566c-3.286,1.934-6.806,3.596-10.46,4.936
			C116.314,142.801,108.188,144.213,99.784,144.213z"/>
	</g>
	<g>
		<g>
			<g>
				<defs>
					<path id="SVGID_1_" d="M141.843,93.065c8.549-7.267,10.549-17.332,0.596-25.792c-2.389-2.03-5.538-3.45-8.864-4.103
						c-15.795-3.107-49.755-1.027-74.028-6.969c6.99,20.632,4.543,49.498,8.199,62.925c0.768,2.826,2.437,5.504,4.826,7.533
						c9.954,8.461,21.795,6.76,30.343-0.506c6.455-5.486,10.489-16.133,9.669-22.396c16.302,13.857-0.384,30.949-0.384,30.949
						l2.456,2.086c0,0,10.488-11.508,18.327-18.17c7.838-6.662,21.377-15.578,21.377-15.578l-2.455-2.087
						c0,0-20.108,14.183-36.409,0.325C122.861,101.981,135.388,98.552,141.843,93.065z"/>
				</defs>
				<clipPath id="SVGID_2_">
					<use xlink:href="#SVGID_1_"  overflow="visible"/>
				</clipPath>
			</g>
		</g>
		<g>
			<path d="M141.843,93.065c8.549-7.267,10.549-17.332,0.596-25.792c-2.389-2.03-5.538-3.45-8.864-4.103
				c-15.795-3.107-49.755-1.027-74.028-6.969c6.99,20.632,4.543,49.498,8.199,62.925c0.768,2.826,2.437,5.504,4.826,7.533
				c9.954,8.461,21.795,6.76,30.343-0.506c6.455-5.486,10.489-16.133,9.669-22.396c16.302,13.857-0.384,30.949-0.384,30.949
				l2.456,2.086c0,0,10.488-11.508,18.327-18.17c7.838-6.662,21.377-15.578,21.377-15.578l-2.455-2.087
				c0,0-20.108,14.183-36.409,0.325C122.861,101.981,135.388,98.552,141.843,93.065z"/>
			<g>
				<defs>
					<path id="SVGID_3_" d="M141.843,93.065c8.549-7.267,10.549-17.332,0.596-25.792c-2.389-2.03-5.538-3.45-8.864-4.103
						c-15.795-3.107-49.755-1.027-74.028-6.969c6.99,20.632,4.543,49.498,8.199,62.925c0.768,2.826,2.437,5.504,4.826,7.533
						c9.954,8.461,21.795,6.76,30.343-0.506c6.455-5.486,10.489-16.133,9.669-22.396c16.302,13.857-0.384,30.949-0.384,30.949
						l2.456,2.086c0,0,10.488-11.508,18.327-18.17c7.838-6.662,21.377-15.578,21.377-15.578l-2.455-2.087
						c0,0-20.108,14.183-36.409,0.325C122.861,101.981,135.388,98.552,141.843,93.065z"/>
				</defs>
				<clipPath id="SVGID_4_">
					<use xlink:href="#SVGID_3_"  overflow="visible"/>
				</clipPath>
				<g clip-path="url(#SVGID_4_)">
					<path fill="#FA961E" d="M136.376,49.829c0,0-8.701,2.762-14.624,4.818c-3.703,1.284-6.728-0.065-14.398,2.312
						c-4.07,1.262-6.422,4.721-9.408,5.396c-6.375,1.439-16.917,5.164-16.338,13.397c1.827-0.974,3.964-1.522,6.097-1.522
						c5.177,0,10.708,3.226,10.708,12.278c0,4.242-3.599,7.328-4.255,7.857c5.722,5.001,11.04,5.709,18.827,2.487
						c9.002-3.728,8.237-10.986,8.237-10.986s9.146,3.02,17.761-6.23C147.6,70.386,158.406,43.019,136.376,49.829z"/>
					<path fill="#FFFFFF" d="M81.961,78.93c0,0-25.847,19.946,6.349,47.312c0,0-12.47-20.141,3.628-33.822
						c0,0,3.288-2.572,3.288-5.911C95.225,75.524,86.174,75.553,81.961,78.93z"/>
				</g>
			</g>
		</g>
		<g>
			<g>
				<defs>
					<path id="SVGID_5_" d="M141.843,93.065c8.549-7.267,10.549-17.332,0.596-25.792c-2.389-2.03-5.538-3.45-8.864-4.103
						c-15.795-3.107-49.755-1.027-74.028-6.969c6.99,20.632,4.543,49.498,8.199,62.925c0.768,2.826,2.437,5.504,4.826,7.533
						c9.954,8.461,21.795,6.76,30.343-0.506c6.455-5.486,10.489-16.133,9.669-22.396c16.302,13.857-0.384,30.949-0.384,30.949
						l2.456,2.086c0,0,10.488-11.508,18.327-18.17c7.838-6.662,21.377-15.578,21.377-15.578l-2.455-2.087
						c0,0-20.108,14.183-36.409,0.325C122.861,101.981,135.388,98.552,141.843,93.065z"/>
				</defs>
				<clipPath id="SVGID_6_">
					<use xlink:href="#SVGID_5_"  overflow="visible"/>
				</clipPath>
			</g>
		</g>
	</g>
</g>
</svg>
