<?xml version="1.0" encoding="utf-8"?>
<!-- Generator: Adobe Illustrator 15.0.2, SVG Export Plug-In . SVG Version: 6.00 Build 0)  -->
<!DOCTYPE svg PUBLIC "-//W3C//DTD SVG 1.1//EN" "http://www.w3.org/Graphics/SVG/1.1/DTD/svg11.dtd">
<svg version="1.1" id="Layer_1" xmlns="http://www.w3.org/2000/svg" xmlns:xlink="http://www.w3.org/1999/xlink" x="0px" y="0px"
	 width="200px" height="200px" viewBox="0 0 200 200" enable-background="new 0 0 200 200" xml:space="preserve">
<rect fill="none" width="200" height="200"/>
<g>
	<g>
		<g>
			<g>
				<path fill="#FF8200" d="M100,199.065c-13.373,0-26.348-2.619-38.561-7.785c-11.797-4.99-22.392-12.133-31.489-21.23
					s-16.241-19.692-21.229-31.488C3.555,126.347,0.935,113.373,0.935,100s2.62-26.347,7.786-38.561
					C13.709,49.643,20.853,39.048,29.95,29.95S49.643,13.71,61.439,8.72C73.652,3.554,86.627,0.935,100,0.935
					s26.348,2.619,38.561,7.785c11.797,4.99,22.392,12.133,31.489,21.23c9.099,9.098,16.241,19.692,21.231,31.489
					c5.166,12.214,7.785,25.188,7.785,38.561s-2.619,26.347-7.785,38.562c-4.99,11.796-12.133,22.391-21.231,31.488
					c-9.098,9.098-19.692,16.24-31.489,21.23C126.348,196.446,113.373,199.065,100,199.065z"/>
				<path d="M100,1.869c54.196,0,98.131,43.935,98.131,98.131S154.196,198.131,100,198.131S1.869,154.196,1.869,100
					S45.804,1.869,100,1.869 M100,0C86.501,0,73.404,2.645,61.075,7.859c-11.908,5.036-22.603,12.247-31.786,21.43
					c-9.184,9.184-16.393,19.878-21.43,31.786C2.645,73.404,0,86.501,0,100s2.645,26.596,7.859,38.925
					c5.037,11.908,12.246,22.603,21.43,31.786c9.184,9.183,19.878,16.394,31.786,21.43C73.404,197.355,86.501,200,100,200
					s26.596-2.645,38.925-7.859c11.908-5.036,22.603-12.247,31.786-21.43c9.184-9.184,16.393-19.878,21.43-31.786
					C197.355,126.596,200,113.499,200,100s-2.645-26.596-7.859-38.925c-5.037-11.908-12.246-22.603-21.43-31.786
					c-9.184-9.183-19.878-16.394-31.786-21.43C126.596,2.645,113.499,0,100,0L100,0z"/>
			</g>
		</g>
		<g>
			<path d="M34.91,137.579c-9.062-15.695-12.675-16.965-12.675-16.965l-15.783,9.112c4.344,13.681,11.605,26.062,21.054,36.412
				l15.76-9.099C43.266,157.04,43.972,153.274,34.91,137.579z"/>
		</g>
		<g>
			<path d="M165.09,62.421c9.062,15.695,12.676,16.965,12.676,16.965l15.783-9.112c-4.344-13.68-11.605-26.062-21.055-36.412
				l-15.76,9.1C156.734,42.961,156.028,46.726,165.09,62.421z"/>
		</g>
		<g>
			<path d="M34.91,62.421c9.062-15.695,8.355-19.46,8.355-19.46l-15.76-9.1c-9.448,10.351-16.71,22.732-21.054,36.412l15.783,9.112
				C22.235,79.386,25.849,78.116,34.91,62.421z"/>
		</g>
		<g>
			<path d="M177.766,120.614c0,0-3.613,1.27-12.676,16.965s-8.355,19.461-8.355,19.461l15.76,9.099
				c9.449-10.351,16.711-22.731,21.055-36.412L177.766,120.614z"/>
		</g>
		<g>
			<path d="M100,175.159c-18.123,0-21.03,2.494-21.03,2.494v18.219c6.774,1.479,13.812,2.259,21.03,2.259s14.255-0.78,21.03-2.259
				v-18.219C121.03,177.653,118.123,175.159,100,175.159z"/>
		</g>
		<g>
			<path d="M100,24.841c18.123,0,21.03-2.494,21.03-2.494V4.128c-6.775-1.479-13.812-2.259-21.03-2.259s-14.256,0.78-21.03,2.259
				v18.219C78.97,22.347,81.877,24.841,100,24.841z"/>
		</g>
		<g>
			<path d="M100,172.212c-9.76,0-19.214-1.905-28.1-5.664c-4.273-1.808-8.397-4.046-12.257-6.653
				c-3.829-2.587-7.431-5.559-10.705-8.833s-6.246-6.876-8.833-10.705c-2.607-3.859-4.846-7.982-6.653-12.256
				c-3.759-8.887-5.664-18.34-5.664-28.101c0-9.76,1.905-19.214,5.664-28.1c1.808-4.274,4.046-8.397,6.653-12.257
				c2.587-3.829,5.559-7.431,8.833-10.705s6.876-6.246,10.705-8.833c3.859-2.607,7.983-4.846,12.257-6.653
				c8.886-3.759,18.34-5.664,28.1-5.664s19.214,1.905,28.1,5.664c4.273,1.808,8.397,4.046,12.257,6.653
				c3.829,2.587,7.431,5.559,10.705,8.833s6.245,6.876,8.833,10.705c2.607,3.859,4.846,7.982,6.653,12.257
				c3.759,8.886,5.664,18.34,5.664,28.1c0,9.761-1.905,19.214-5.664,28.101c-1.808,4.273-4.046,8.396-6.653,12.256
				c-2.588,3.829-5.559,7.431-8.833,10.705s-6.876,6.246-10.705,8.833c-3.859,2.607-7.983,4.846-12.257,6.653
				C119.214,170.307,109.76,172.212,100,172.212z"/>
		</g>
		<g>
			<path fill="#FFFFFF" d="M100.084,172.228c-1.691,0-3.403-0.061-5.086-0.179c-0.846-0.061-1.703-0.137-2.547-0.226l0.659-6.196
				c0.771,0.083,1.554,0.151,2.327,0.206c1.537,0.109,3.101,0.164,4.646,0.164c2.275,0,4.57-0.119,6.821-0.354l0.646,6.197
				C105.086,172.098,102.573,172.228,100.084,172.228z M122.326,168.698l-1.935-5.924c4.337-1.415,8.577-3.311,12.599-5.633
				l0.027-0.016l3.092,5.409l-1.546-2.704l1.543,2.706l0.011-0.007l-0.012,0.007C131.709,165.075,127.073,167.148,122.326,168.698z
				 M77.688,168.679c-3.207-1.041-6.363-2.313-9.38-3.782c-1.491-0.727-2.978-1.514-4.418-2.344l3.108-5.399
				c1.316,0.757,2.675,1.479,4.037,2.141c2.758,1.343,5.643,2.506,8.576,3.458L77.688,168.679z M51.664,153.687
				c-3.736-3.363-7.132-7.144-10.094-11.236l5.049-3.652c2.704,3.737,5.805,7.189,9.213,10.258L51.664,153.687z M148.346,153.672
				l-4.164-4.636c3.092-2.777,5.938-5.876,8.456-9.211c0.258-0.34,0.517-0.688,0.769-1.037l5.044,3.657
				c-0.275,0.381-0.559,0.763-0.841,1.137C154.85,147.233,151.733,150.627,148.346,153.672z M34.026,129.385
				c-2.064-4.611-3.642-9.442-4.687-14.359l6.095-1.295c0.954,4.487,2.394,8.897,4.278,13.108L34.026,129.385z M165.982,129.356
				l-5.695-2.524c1.396-3.149,2.555-6.432,3.445-9.755c0.299-1.111,0.57-2.246,0.811-3.375l6.095,1.295
				c-0.263,1.234-0.562,2.477-0.887,3.692C168.777,122.325,167.509,125.913,165.982,129.356z M34.003,100.012l-6.23-0.006
				c0.002-1.665,0.062-3.351,0.179-5.008c0.237-3.344,0.713-6.71,1.413-10.005l6.094,1.297c-0.641,3.014-1.075,6.091-1.292,9.146
				C34.06,96.95,34.004,98.491,34.003,100.012z M172.228,99.991l-6.23-0.018v-0.057c0-2.704-0.167-5.426-0.498-8.089
				c-0.231-1.864-0.546-3.737-0.936-5.566l6.095-1.296c0.426,2.003,0.77,4.054,1.023,6.096c0.362,2.917,0.546,5.896,0.546,8.855
				V99.991z M39.717,73.161l-5.695-2.526c0.346-0.781,0.71-1.563,1.082-2.327c1.83-3.76,4.001-7.381,6.451-10.761l5.045,3.658
				c-2.239,3.087-4.222,6.395-5.895,9.83C40.365,71.732,40.033,72.448,39.717,73.161z M160.283,73.154
				c-0.932-2.08-1.988-4.148-3.142-6.146c-1.157-2.004-2.425-3.96-3.766-5.813l5.048-3.652c1.466,2.025,2.85,4.162,4.113,6.351
				c1.26,2.182,2.414,4.44,3.432,6.713L160.283,73.154z M55.824,50.958l-4.163-4.636c3.716-3.337,7.829-6.316,12.225-8.854
				l3.116,5.395C62.979,45.186,59.219,47.909,55.824,50.958z M144.161,50.938c-1.384-1.246-2.843-2.448-4.335-3.576
				c-2.165-1.636-4.464-3.157-6.832-4.52l3.108-5.4c2.592,1.492,5.108,3.156,7.479,4.948c1.635,1.235,3.231,2.553,4.747,3.916
				L144.161,50.938z M120.381,37.245c-1.09-0.354-2.201-0.684-3.304-0.979c-3.331-0.893-6.762-1.529-10.195-1.895l0.658-6.195
				c3.755,0.398,7.507,1.097,11.149,2.072c1.206,0.323,2.422,0.683,3.614,1.068L120.381,37.245z M79.6,37.228l-1.935-5.923
				c4.339-1.417,8.846-2.423,13.396-2.987c0.455-0.057,0.919-0.109,1.378-0.157l0.646,6.197c-0.419,0.044-0.842,0.093-1.258,0.145
				C87.674,35.017,83.559,35.933,79.6,37.228z"/>
		</g>
		<g>
			<path fill="#FFFFFF" d="M100,160.686c-8.209,0-16.152-1.601-23.609-4.754c-3.588-1.517-7.052-3.397-10.294-5.588
				c-3.222-2.177-6.253-4.677-9.008-7.433s-5.256-5.786-7.433-9.008c-2.19-3.242-4.07-6.705-5.588-10.293
				c-3.154-7.458-4.754-15.401-4.754-23.61s1.6-16.152,4.754-23.61c1.518-3.588,3.397-7.051,5.588-10.293
				c2.176-3.222,4.677-6.252,7.433-9.008c2.755-2.755,5.786-5.255,9.008-7.433c3.242-2.19,6.706-4.071,10.294-5.588
				c7.457-3.154,15.4-4.754,23.609-4.754s16.152,1.6,23.609,4.754c3.588,1.517,7.052,3.397,10.294,5.588
				c3.222,2.178,6.252,4.678,9.008,7.433c2.755,2.756,5.256,5.786,7.433,9.008c2.19,3.242,4.07,6.705,5.588,10.293
				c3.154,7.458,4.754,15.401,4.754,23.61s-1.6,16.152-4.754,23.61c-1.518,3.588-3.397,7.051-5.588,10.293
				c-2.177,3.222-4.678,6.252-7.433,9.008c-2.756,2.756-5.786,5.256-9.008,7.433c-3.242,2.19-6.706,4.071-10.294,5.588
				C116.152,159.085,108.209,160.686,100,160.686z"/>
		</g>
	</g>
	<g>
		<path d="M103.17,55.623v8.13c-1.523,0.422-2.729,0.878-3.618,1.365c-0.889,0.485-1.576,1.151-2.062,1.998
			c-0.486,0.848-0.804,1.935-0.951,3.268c-0.149,1.334-0.223,3.015-0.223,5.045v52.763c0,0,7.692,0,12.312,0
			c10.573,0,13.939-9.338,14.406-11.581h8.693l-1.396,25.638h-60.48v-10.692c1.564-0.422,2.803-0.889,3.713-1.396
			c0.908-0.509,1.586-1.194,2.031-2.062c0.443-0.866,0.729-1.967,0.855-3.3c0.128-1.334,0.19-3.017,0.19-5.047V75.556
			c0-1.988-0.053-3.658-0.159-5.012c-0.105-1.354-0.38-2.453-0.824-3.301c-0.443-0.846-1.121-1.534-2.031-2.062
			c-0.91-0.529-2.168-1.006-3.775-1.428v-8.13H103.17z"/>
	</g>
</g>
</svg>
