<?xml version="1.0" encoding="utf-8"?>
<!-- Generator: Adobe Illustrator 15.0.2, SVG Export Plug-In . SVG Version: 6.00 Build 0)  -->
<!DOCTYPE svg PUBLIC "-//W3C//DTD SVG 1.1//EN" "http://www.w3.org/Graphics/SVG/1.1/DTD/svg11.dtd">
<svg version="1.1" id="Layer_1" xmlns="http://www.w3.org/2000/svg" xmlns:xlink="http://www.w3.org/1999/xlink" x="0px" y="0px"
	 width="200px" height="200px" viewBox="0 0 200 200" enable-background="new 0 0 200 200" xml:space="preserve">
<rect fill="none" width="200" height="200"/>
<g>
	<g>
		<path d="M100,199.065c-6.721,0-13.438-0.678-19.964-2.013c-6.361-1.302-12.618-3.244-18.597-5.772
			c-5.87-2.483-11.532-5.557-16.828-9.135c-5.246-3.544-10.178-7.613-14.661-12.097c-4.483-4.482-8.553-9.414-12.097-14.66
			c-3.578-5.296-6.651-10.958-9.134-16.828c-2.529-5.979-4.471-12.235-5.772-18.596C1.612,113.438,0.935,106.721,0.935,100
			s0.677-13.438,2.013-19.964c1.301-6.361,3.243-12.618,5.772-18.597c2.483-5.87,5.556-11.532,9.134-16.828
			c3.544-5.246,7.614-10.178,12.097-14.661c4.482-4.483,9.415-8.553,14.661-12.096c5.296-3.578,10.958-6.651,16.828-9.134
			c5.979-2.529,12.236-4.471,18.597-5.772C86.562,1.612,93.279,0.935,100,0.935s13.438,0.677,19.965,2.013
			c6.36,1.301,12.617,3.244,18.597,5.772c5.87,2.483,11.531,5.556,16.828,9.134c5.245,3.543,10.178,7.613,14.66,12.096
			c4.483,4.482,8.553,9.415,12.097,14.661c3.578,5.296,6.65,10.958,9.134,16.828c2.528,5.979,4.472,12.236,5.772,18.597
			c1.336,6.526,2.013,13.244,2.013,19.964s-0.677,13.438-2.013,19.965c-1.301,6.36-3.244,12.617-5.772,18.596
			c-2.483,5.87-5.556,11.532-9.134,16.828c-3.544,5.246-7.613,10.178-12.097,14.66c-4.482,4.483-9.415,8.553-14.66,12.097
			c-5.297,3.578-10.958,6.651-16.828,9.135c-5.979,2.528-12.236,4.471-18.597,5.772C113.438,198.388,106.721,199.065,100,199.065z"
			/>
		<path d="M100,1.869c54.196,0,98.131,43.935,98.131,98.131S154.196,198.13,100,198.13S1.87,154.196,1.87,100
			S45.804,1.869,100,1.869 M100,0c-6.783,0-13.563,0.683-20.151,2.032c-6.421,1.314-12.737,3.274-18.773,5.828
			c-5.926,2.506-11.641,5.608-16.987,9.22c-5.295,3.577-10.273,7.685-14.798,12.209c-4.525,4.525-8.633,9.504-12.21,14.799
			c-3.612,5.346-6.714,11.061-9.22,16.987C5.307,67.11,3.346,73.427,2.032,79.849C0.684,86.437,0,93.216,0,100
			c0,6.784,0.684,13.563,2.032,20.151c1.314,6.421,3.275,12.738,5.828,18.773c2.506,5.926,5.608,11.642,9.22,16.987
			c3.577,5.295,7.685,10.273,12.21,14.799c4.525,4.524,9.503,8.632,14.798,12.209c5.346,3.612,11.062,6.714,16.987,9.221
			c6.036,2.553,12.353,4.513,18.773,5.827C86.437,199.316,93.217,200,100,200c6.784,0,13.564-0.684,20.152-2.032
			c6.421-1.314,12.737-3.274,18.773-5.827c5.926-2.507,11.641-5.608,16.986-9.221c5.295-3.577,10.274-7.685,14.799-12.209
			c4.524-4.525,8.633-9.504,12.21-14.799c3.611-5.346,6.714-11.062,9.22-16.987c2.553-6.035,4.514-12.353,5.828-18.773
			C199.317,113.563,200,106.784,200,100c0-6.784-0.683-13.563-2.031-20.151c-1.314-6.422-3.275-12.738-5.828-18.774
			c-2.506-5.926-5.608-11.641-9.22-16.987c-3.577-5.295-7.686-10.274-12.21-14.799c-4.524-4.524-9.504-8.632-14.799-12.209
			c-5.346-3.612-11.061-6.714-16.986-9.22c-6.036-2.553-12.353-4.514-18.773-5.828C113.564,0.683,106.784,0,100,0L100,0z"/>
		<g>
			<path fill="#FFFFFF" d="M34.911,137.579c-9.062-15.695-12.675-16.965-12.675-16.965l-15.783,9.112
				c4.343,13.681,11.604,26.062,21.053,36.411l15.76-9.099C43.266,157.039,43.972,153.274,34.911,137.579z"/>
		</g>
		<g>
			<path fill="#FFFFFF" d="M165.09,62.42c9.062,15.695,12.675,16.965,12.675,16.965l15.783-9.112
				c-4.343-13.681-11.604-26.062-21.053-36.412l-15.76,9.099C156.735,42.96,156.028,46.725,165.09,62.42z"/>
		</g>
		<g>
			<path fill="#FFFFFF" d="M34.911,62.42c9.062-15.695,8.355-19.46,8.355-19.46l-15.76-9.099
				c-9.449,10.35-16.71,22.731-21.053,36.412l15.783,9.112C22.235,79.386,25.849,78.115,34.911,62.42z"/>
		</g>
		<g>
			<path fill="#FFFFFF" d="M177.765,120.614c0,0-3.613,1.27-12.675,16.965s-8.354,19.46-8.354,19.46l15.759,9.1
				c9.449-10.351,16.711-22.731,21.054-36.412L177.765,120.614z"/>
		</g>
		<g>
			<path fill="#FFFFFF" d="M100,175.159c-18.123,0-21.03,2.494-21.03,2.494v18.219c6.775,1.479,13.811,2.258,21.03,2.258
				s14.256-0.779,21.03-2.258v-18.219C121.03,177.653,118.123,175.159,100,175.159z"/>
		</g>
		<g>
			<path fill="#FFFFFF" d="M100,24.84c18.123,0,21.03-2.494,21.03-2.494V4.128c-6.774-1.479-13.812-2.259-21.03-2.259
				S85.745,2.648,78.97,4.128v18.218C78.97,22.346,81.877,24.84,100,24.84z"/>
		</g>
		<g>
			<path fill="#FFFFFF" d="M100.084,172.228c-1.692,0-3.403-0.061-5.086-0.179c-0.846-0.061-1.702-0.137-2.547-0.226l0.659-6.196
				c0.771,0.082,1.554,0.151,2.327,0.206c1.538,0.108,3.101,0.164,4.647,0.164c2.275,0,4.57-0.119,6.821-0.354l0.646,6.197
				C105.086,172.098,102.574,172.228,100.084,172.228z M122.326,168.698l-1.934-5.923c4.338-1.416,8.576-3.312,12.599-5.634
				l0.027-0.017l3.091,5.41l-1.546-2.705l1.544,2.707l0.011-0.007l-0.012,0.007C131.71,165.075,127.073,167.148,122.326,168.698z
				 M77.688,168.679c-3.208-1.041-6.363-2.313-9.38-3.782c-1.491-0.726-2.978-1.515-4.418-2.344l3.109-5.399
				c1.316,0.757,2.674,1.479,4.036,2.141c2.758,1.343,5.643,2.506,8.576,3.458L77.688,168.679z M51.664,153.687
				c-3.735-3.363-7.131-7.144-10.092-11.236l5.047-3.652c2.705,3.737,5.804,7.188,9.214,10.258L51.664,153.687z M148.346,153.672
				l-4.164-4.635c3.093-2.778,5.938-5.877,8.457-9.212c0.258-0.34,0.516-0.688,0.768-1.037l5.045,3.656
				c-0.276,0.382-0.56,0.764-0.842,1.137C154.851,147.232,151.733,150.628,148.346,153.672z M34.027,129.384
				c-2.064-4.611-3.642-9.442-4.687-14.358l6.094-1.296c0.954,4.487,2.394,8.898,4.279,13.108L34.027,129.384z M165.982,129.356
				l-5.695-2.525c1.396-3.148,2.556-6.431,3.446-9.754c0.298-1.111,0.57-2.247,0.811-3.375l6.094,1.296
				c-0.263,1.234-0.561,2.476-0.886,3.691C168.777,122.324,167.51,125.913,165.982,129.356z M34.004,100.012l-6.231-0.007
				c0.001-1.665,0.062-3.35,0.179-5.007c0.236-3.344,0.711-6.71,1.412-10.005l6.095,1.296c-0.642,3.014-1.076,6.091-1.292,9.148
				C34.06,96.951,34.005,98.49,34.004,100.012z M172.228,99.991l-6.23-0.018v-0.058c0-2.703-0.167-5.424-0.498-8.087
				c-0.23-1.865-0.546-3.738-0.935-5.567l6.094-1.296c0.427,2.003,0.771,4.054,1.024,6.096c0.361,2.917,0.545,5.896,0.545,8.854
				V99.991z M39.717,73.16l-5.696-2.526c0.346-0.78,0.71-1.563,1.082-2.326c1.831-3.761,4.001-7.381,6.451-10.761l5.044,3.657
				c-2.238,3.087-4.221,6.394-5.894,9.831C40.366,71.732,40.033,72.448,39.717,73.16z M160.284,73.154
				c-0.933-2.08-1.989-4.148-3.143-6.145c-1.157-2.005-2.424-3.961-3.765-5.814l5.047-3.653c1.466,2.026,2.851,4.163,4.113,6.352
				c1.26,2.181,2.414,4.44,3.433,6.713L160.284,73.154z M55.825,50.958l-4.163-4.636c3.716-3.337,7.829-6.316,12.225-8.854
				l3.116,5.395C62.98,45.186,59.22,47.909,55.825,50.958z M144.162,50.938c-1.385-1.246-2.843-2.449-4.336-3.577
				c-2.165-1.636-4.464-3.156-6.832-4.519l3.108-5.4c2.592,1.492,5.109,3.157,7.479,4.948c1.635,1.235,3.231,2.552,4.747,3.917
				L144.162,50.938z M120.381,37.245c-1.09-0.353-2.2-0.682-3.303-0.978c-3.332-0.893-6.762-1.53-10.196-1.896l0.658-6.195
				c3.756,0.399,7.507,1.096,11.15,2.072c1.206,0.323,2.422,0.683,3.613,1.07L120.381,37.245z M79.6,37.227l-1.935-5.923
				c4.339-1.417,8.846-2.422,13.397-2.986c0.455-0.057,0.918-0.109,1.378-0.158l0.646,6.197c-0.419,0.044-0.842,0.092-1.258,0.144
				C87.673,35.016,83.56,35.934,79.6,37.227z"/>
		</g>
		<g>
			<path fill="#FFFFFF" d="M100,160.686c-8.208,0-16.152-1.6-23.61-4.754c-3.588-1.518-7.051-3.397-10.293-5.588
				c-3.222-2.177-6.252-4.678-9.007-7.433c-2.755-2.756-5.256-5.786-7.433-9.007c-2.19-3.243-4.071-6.707-5.588-10.294
				c-3.154-7.458-4.754-15.401-4.754-23.61c0-8.209,1.6-16.152,4.754-23.61c1.518-3.588,3.398-7.051,5.588-10.294
				c2.176-3.222,4.677-6.252,7.433-9.007c2.755-2.755,5.786-5.256,9.007-7.433c3.242-2.19,6.706-4.071,10.293-5.588
				c7.458-3.155,15.401-4.754,23.61-4.754c8.209,0,16.152,1.599,23.61,4.754c3.588,1.517,7.052,3.397,10.294,5.588
				c3.221,2.177,6.251,4.677,9.007,7.433s5.256,5.786,7.433,9.007c2.19,3.243,4.071,6.706,5.589,10.294
				c3.154,7.458,4.753,15.4,4.753,23.61c0,8.209-1.599,16.152-4.753,23.61c-1.518,3.587-3.398,7.051-5.589,10.294
				c-2.177,3.221-4.677,6.251-7.433,9.007c-2.755,2.755-5.786,5.256-9.007,7.433c-3.242,2.19-6.706,4.07-10.294,5.588
				C116.153,159.086,108.209,160.686,100,160.686z"/>
		</g>
	</g>
	<g>
		<path d="M140.261,103.717c8.226-8.226,10.149-19.619,0.573-29.196c-2.299-2.298-5.329-3.904-8.529-4.644
			c-15.197-3.517-47.874-1.163-71.228-7.889c6.727,23.354,4.371,56.03,7.888,71.229c0.74,3.199,2.346,6.229,4.645,8.527
			c9.577,9.577,20.97,7.652,29.195-0.572c6.211-6.211,10.092-18.264,9.303-25.352c15.685,15.685-0.369,35.032-0.369,35.032
			l2.363,2.362c0,0,10.092-13.027,17.634-20.568c7.542-7.542,20.568-17.634,20.568-17.634l-2.362-2.363
			c0,0-19.348,16.055-35.032,0.368C121.997,113.809,134.05,109.927,140.261,103.717z"/>
		<g>
			<defs>
				<path id="SVGID_1_" d="M140.261,103.717c8.226-8.226,10.149-19.619,0.573-29.196c-2.299-2.298-5.329-3.904-8.529-4.644
					c-15.197-3.517-47.874-1.163-71.228-7.889c6.727,23.354,4.371,56.03,7.888,71.229c0.74,3.199,2.346,6.229,4.645,8.527
					c9.577,9.577,20.97,7.652,29.195-0.572c6.211-6.211,10.092-18.264,9.303-25.352c15.685,15.685-0.369,35.032-0.369,35.032
					l2.363,2.362c0,0,10.092-13.027,17.634-20.568c7.542-7.542,20.568-17.634,20.568-17.634l-2.362-2.363
					c0,0-19.348,16.055-35.032,0.368C121.997,113.809,134.05,109.927,140.261,103.717z"/>
			</defs>
			<clipPath id="SVGID_2_">
				<use xlink:href="#SVGID_1_"  overflow="visible"/>
			</clipPath>
			<g clip-path="url(#SVGID_2_)">
				<path fill="#FA961E" d="M135,54.774c0,0-8.372,3.126-14.07,5.454c-3.563,1.454-6.473-0.073-13.854,2.618
					c-3.916,1.428-6.179,5.344-9.052,6.108c-6.135,1.63-16.278,5.845-15.721,15.166c1.758-1.102,3.815-1.723,5.868-1.723
					c4.98,0,10.303,3.652,10.303,13.897c0,4.802-3.463,8.295-4.096,8.893c5.507,5.662,10.623,6.464,18.115,2.816
					c8.662-4.22,7.926-12.436,7.926-12.436s8.8,3.419,17.089-7.053C145.8,78.043,156.197,47.065,135,54.774z"/>
				<path fill="#FFFFFF" d="M82.644,87.715c0,0-24.87,22.579,6.108,53.556c0,0-11.999-22.797,3.49-38.285
					c0,0,3.165-2.912,3.165-6.692C95.407,83.859,86.698,83.894,82.644,87.715z"/>
			</g>
		</g>
	</g>
</g>
</svg>
