<?xml version="1.0" encoding="utf-8"?>
<!-- Generator: Adobe Illustrator 15.0.2, SVG Export Plug-In . SVG Version: 6.00 Build 0)  -->
<!DOCTYPE svg PUBLIC "-//W3C//DTD SVG 1.1//EN" "http://www.w3.org/Graphics/SVG/1.1/DTD/svg11.dtd">
<svg version="1.1" id="Layer_1" xmlns="http://www.w3.org/2000/svg" xmlns:xlink="http://www.w3.org/1999/xlink" x="0px" y="0px"
	 width="200px" height="200px" viewBox="0 0 200 200" enable-background="new 0 0 200 200" xml:space="preserve">
<rect fill="none" width="200" height="200"/>
<g>
	<g>
		<g>
			<g>
				<path fill="#2E3191" d="M100,199.065c-13.373,0-26.348-2.619-38.561-7.785c-11.797-4.99-22.393-12.133-31.49-21.23
					s-16.24-19.692-21.229-31.488C3.555,126.347,0.934,113.373,0.934,100s2.621-26.347,7.787-38.561
					c4.988-11.797,12.131-22.392,21.229-31.489s19.693-16.24,31.49-21.23C73.652,3.554,86.627,0.935,100,0.935
					s26.348,2.619,38.561,7.785c11.797,4.99,22.391,12.133,31.488,21.23s16.24,19.692,21.23,31.489
					c5.166,12.214,7.785,25.188,7.785,38.561s-2.619,26.347-7.785,38.562c-4.99,11.796-12.133,22.391-21.23,31.488
					s-19.691,16.24-31.488,21.23C126.348,196.446,113.373,199.065,100,199.065z"/>
				<path d="M100,1.869c54.195,0,98.131,43.935,98.131,98.131S154.195,198.131,100,198.131c-54.197,0-98.131-43.935-98.131-98.131
					S45.803,1.869,100,1.869 M100,0C86.5,0,73.404,2.645,61.074,7.859c-11.908,5.036-22.602,12.247-31.785,21.43
					c-9.184,9.184-16.393,19.878-21.43,31.786C2.645,73.404,0,86.501,0,100s2.645,26.596,7.859,38.925
					c5.037,11.908,12.246,22.603,21.43,31.786c9.184,9.183,19.877,16.394,31.785,21.43C73.404,197.355,86.5,200,100,200
					c13.498,0,26.596-2.645,38.924-7.859c11.908-5.036,22.604-12.247,31.787-21.43c9.184-9.184,16.393-19.878,21.43-31.786
					C197.355,126.596,200,113.499,200,100s-2.645-26.596-7.859-38.925c-5.037-11.908-12.246-22.603-21.43-31.786
					c-9.184-9.183-19.879-16.394-31.787-21.43C126.596,2.645,113.498,0,100,0L100,0z"/>
			</g>
		</g>
		<g>
			<path fill="#FFFFFF" d="M34.91,137.579c-9.062-15.695-12.676-16.965-12.676-16.965l-15.783,9.112
				c4.344,13.681,11.605,26.062,21.055,36.412l15.76-9.099C43.266,157.04,43.971,153.274,34.91,137.579z"/>
		</g>
		<g>
			<path fill="#FFFFFF" d="M165.09,62.421c9.061,15.695,12.674,16.965,12.674,16.965l15.783-9.112
				c-4.344-13.68-11.605-26.062-21.053-36.412l-15.76,9.1C156.734,42.961,156.027,46.726,165.09,62.421z"/>
		</g>
		<g>
			<path fill="#FFFFFF" d="M34.91,62.421c9.061-15.695,8.355-19.46,8.355-19.46l-15.76-9.1
				C18.057,44.212,10.795,56.594,6.451,70.273l15.783,9.112C22.234,79.386,25.848,78.116,34.91,62.421z"/>
		</g>
		<g>
			<path fill="#FFFFFF" d="M177.764,120.614c0,0-3.613,1.27-12.674,16.965c-9.062,15.695-8.355,19.461-8.355,19.461l15.76,9.099
				c9.447-10.351,16.709-22.731,21.053-36.412L177.764,120.614z"/>
		</g>
		<g>
			<path fill="#FFFFFF" d="M100,175.159c-18.123,0-21.031,2.494-21.031,2.494v18.219c6.775,1.479,13.812,2.259,21.031,2.259
				s14.254-0.78,21.029-2.259v-18.219C121.029,177.653,118.123,175.159,100,175.159z"/>
		</g>
		<g>
			<path fill="#FFFFFF" d="M100,24.841c18.123,0,21.029-2.494,21.029-2.494V4.128C114.254,2.649,107.219,1.869,100,1.869
				s-14.256,0.78-21.031,2.259v18.219C78.969,22.347,81.877,24.841,100,24.841z"/>
		</g>
		<g>
			<path fill="#EC1C24" d="M100,172.212c-9.76,0-19.215-1.905-28.1-5.664c-4.273-1.808-8.398-4.046-12.258-6.653
				c-3.828-2.587-7.43-5.559-10.705-8.833c-3.273-3.274-6.246-6.876-8.832-10.705c-2.607-3.859-4.846-7.982-6.654-12.256
				c-3.758-8.887-5.664-18.34-5.664-28.101c0-9.76,1.906-19.214,5.664-28.1c1.809-4.274,4.047-8.397,6.654-12.257
				c2.586-3.829,5.559-7.431,8.832-10.705c3.275-3.274,6.877-6.246,10.705-8.833c3.859-2.607,7.984-4.846,12.258-6.653
				c8.885-3.759,18.34-5.664,28.1-5.664s19.213,1.905,28.1,5.664c4.273,1.808,8.396,4.046,12.256,6.653
				c3.83,2.587,7.432,5.559,10.705,8.833c3.275,3.274,6.246,6.876,8.834,10.705c2.607,3.859,4.846,7.982,6.652,12.257
				c3.76,8.886,5.664,18.34,5.664,28.1c0,9.761-1.904,19.214-5.664,28.101c-1.807,4.273-4.045,8.396-6.652,12.256
				c-2.588,3.829-5.559,7.431-8.834,10.705c-3.273,3.274-6.875,6.246-10.705,8.833c-3.859,2.607-7.982,4.846-12.256,6.653
				C119.213,170.307,109.76,172.212,100,172.212z"/>
		</g>
		<g>
			<path fill="#FFFFFF" d="M100.084,172.228c-1.691,0-3.404-0.061-5.086-0.179c-0.846-0.061-1.703-0.137-2.547-0.226l0.658-6.196
				c0.771,0.083,1.555,0.151,2.328,0.206c1.537,0.109,3.1,0.164,4.646,0.164c2.275,0,4.57-0.119,6.82-0.354l0.646,6.197
				C105.086,172.098,102.572,172.228,100.084,172.228z M122.326,168.698l-1.936-5.924c4.338-1.415,8.578-3.311,12.6-5.633
				l0.027-0.016l3.092,5.409l-1.547-2.704l1.543,2.706l0.012-0.007l-0.012,0.007C131.709,165.075,127.072,167.148,122.326,168.698z
				 M77.688,168.679c-3.207-1.041-6.363-2.313-9.381-3.782c-1.49-0.727-2.977-1.514-4.418-2.344l3.109-5.399
				c1.316,0.757,2.674,1.479,4.037,2.141c2.758,1.343,5.643,2.506,8.576,3.458L77.688,168.679z M51.664,153.687
				c-3.736-3.363-7.133-7.144-10.094-11.236l5.049-3.652c2.703,3.737,5.805,7.189,9.213,10.258L51.664,153.687z M148.346,153.672
				l-4.164-4.636c3.092-2.777,5.938-5.876,8.455-9.211c0.258-0.34,0.518-0.688,0.77-1.037l5.043,3.657
				c-0.275,0.381-0.559,0.763-0.84,1.137C154.85,147.233,151.732,150.627,148.346,153.672z M34.025,129.385
				c-2.064-4.611-3.641-9.442-4.686-14.359l6.094-1.295c0.955,4.487,2.395,8.897,4.279,13.108L34.025,129.385z M165.982,129.356
				l-5.695-2.524c1.395-3.149,2.555-6.432,3.445-9.755c0.299-1.111,0.57-2.246,0.811-3.375l6.094,1.295
				c-0.262,1.234-0.561,2.477-0.887,3.692C168.777,122.325,167.508,125.913,165.982,129.356z M34.002,100.012l-6.23-0.006
				c0.002-1.665,0.062-3.351,0.18-5.008c0.236-3.344,0.713-6.71,1.412-10.005l6.094,1.297c-0.641,3.014-1.074,6.091-1.291,9.146
				C34.059,96.95,34.004,98.491,34.002,100.012z M172.227,99.991l-6.23-0.018v-0.057c0-2.704-0.166-5.426-0.498-8.089
				c-0.23-1.864-0.545-3.737-0.936-5.566l6.096-1.296c0.426,2.003,0.77,4.054,1.023,6.096c0.361,2.917,0.545,5.896,0.545,8.855
				V99.991z M39.717,73.161l-5.695-2.526c0.346-0.781,0.709-1.563,1.082-2.327c1.83-3.76,4-7.381,6.451-10.761l5.045,3.658
				c-2.24,3.087-4.223,6.395-5.895,9.83C40.365,71.732,40.033,72.448,39.717,73.161z M160.283,73.154
				c-0.932-2.08-1.988-4.148-3.143-6.146c-1.156-2.004-2.424-3.96-3.766-5.813l5.049-3.652c1.465,2.025,2.85,4.162,4.113,6.351
				c1.26,2.182,2.414,4.44,3.432,6.713L160.283,73.154z M55.824,50.958l-4.164-4.636c3.717-3.337,7.83-6.316,12.225-8.854
				l3.117,5.395C62.979,45.186,59.219,47.909,55.824,50.958z M144.16,50.938c-1.383-1.246-2.842-2.448-4.334-3.576
				c-2.166-1.636-4.465-3.157-6.832-4.52l3.107-5.4c2.592,1.492,5.109,3.156,7.48,4.948c1.635,1.235,3.23,2.553,4.746,3.916
				L144.16,50.938z M120.381,37.245c-1.09-0.354-2.201-0.684-3.305-0.979c-3.33-0.893-6.762-1.529-10.195-1.895l0.658-6.195
				c3.756,0.398,7.508,1.097,11.15,2.072c1.205,0.323,2.422,0.683,3.613,1.068L120.381,37.245z M79.6,37.228l-1.936-5.923
				c4.34-1.417,8.846-2.423,13.396-2.987c0.455-0.057,0.92-0.109,1.379-0.157l0.646,6.197c-0.42,0.044-0.842,0.093-1.258,0.145
				C87.674,35.017,83.559,35.933,79.6,37.228z"/>
		</g>
		<g>
			<g>
				<path d="M100,160.686c-8.209,0-16.152-1.601-23.609-4.754c-3.588-1.517-7.053-3.397-10.295-5.588
					c-3.221-2.177-6.252-4.677-9.008-7.433c-2.754-2.756-5.256-5.786-7.432-9.008c-2.191-3.242-4.07-6.705-5.588-10.293
					c-3.154-7.458-4.754-15.401-4.754-23.61s1.6-16.152,4.754-23.61c1.518-3.588,3.396-7.051,5.588-10.293
					c2.176-3.222,4.676-6.252,7.432-9.008c2.756-2.755,5.787-5.255,9.008-7.433c3.242-2.19,6.707-4.071,10.295-5.588
					c7.457-3.154,15.4-4.754,23.609-4.754s16.152,1.6,23.609,4.754c3.588,1.517,7.051,3.397,10.293,5.588
					c3.223,2.178,6.252,4.678,9.008,7.433c2.756,2.756,5.256,5.786,7.434,9.008c2.189,3.242,4.07,6.705,5.588,10.293
					c3.154,7.458,4.754,15.401,4.754,23.61s-1.6,16.152-4.754,23.61c-1.518,3.588-3.398,7.051-5.588,10.293
					c-2.178,3.222-4.678,6.252-7.434,9.008s-5.785,5.256-9.008,7.433c-3.242,2.19-6.705,4.071-10.293,5.588
					C116.152,159.085,108.209,160.686,100,160.686z"/>
			</g>
		</g>
	</g>
	<g>
		<path fill-rule="evenodd" clip-rule="evenodd" fill="#FFFFFF" d="M57.513,120.55l-1.913,6.532H53.62l-1.451-5.015l0,0
			l-1.451,5.015h-1.979l-1.913-6.532h1.385l1.518,5.542h0.067l1.582-5.542h1.584l1.648,5.542l0,0l1.584-5.542H57.513L57.513,120.55z
			 M63.978,124.904c0,0.396-0.065,0.726-0.133,0.924c-0.132,0.264-0.197,0.461-0.395,0.594c-0.133,0.264-0.396,0.396-0.659,0.462
			c-0.463,0.198-1.123,0.264-2.112,0.264c-0.527,0-0.989-0.065-1.319-0.132c-0.396-0.066-0.725-0.198-0.924-0.462
			c-0.396-0.33-0.593-0.924-0.593-1.847v-1.781c0-0.792,0.197-1.386,0.461-1.781c0.264-0.33,0.792-0.528,1.518-0.595
			c0.33-0.065,0.66-0.065,1.056-0.065c0.857,0,1.518,0.065,1.979,0.264c0.265,0.066,0.528,0.198,0.66,0.396
			c0.265,0.33,0.462,0.857,0.462,1.648V124.904L63.978,124.904z M62.592,124.707v-1.979c0-0.396-0.132-0.726-0.264-0.857
			c-0.133-0.132-0.396-0.264-0.726-0.264c-0.132-0.066-0.396-0.066-0.726-0.066c-0.857,0-1.32,0.132-1.452,0.462
			c-0.131,0.197-0.197,0.461-0.197,0.857c0,0.066,0,0.132,0,0.198v1.583c0,0.527,0.066,0.857,0.197,1.056
			c0.132,0.198,0.265,0.264,0.463,0.33c0.264,0,0.594,0.065,0.989,0.065c0.396,0,0.726-0.065,0.924-0.132
			c0.264,0,0.395-0.132,0.527-0.264C62.46,125.498,62.592,125.168,62.592,124.707L62.592,124.707z M70.707,122.463
			c0,0.727-0.067,1.254-0.33,1.452c-0.133,0.198-0.463,0.33-0.924,0.462l0,0c0.396,0,0.726,0.132,0.924,0.396
			c0.197,0.263,0.263,0.593,0.263,1.121v1.188h-1.385v-0.99c0-0.462-0.065-0.792-0.197-0.924c-0.133-0.197-0.463-0.264-0.857-0.264
			h-1.914v2.178h-1.385v-6.532h3.496c0.924,0,1.583,0.132,1.913,0.462C70.574,121.342,70.707,121.805,70.707,122.463L70.707,122.463
			z M69.321,122.661c0-0.396,0-0.659-0.132-0.791c-0.132-0.198-0.462-0.264-0.989-0.264h-1.914v2.242h1.979
			c0.396,0,0.726-0.065,0.857-0.264C69.255,123.453,69.321,123.123,69.321,122.661L69.321,122.661z M76.577,127.082h-4.749v-6.532
			h1.385v5.477h3.364V127.082L76.577,127.082z M83.373,124.443c0,1.187-0.33,1.979-1.057,2.374
			c-0.329,0.198-0.857,0.265-1.451,0.265h-3.694v-6.532h3.431c1.254,0,2.111,0.33,2.441,0.925c0.264,0.396,0.33,0.923,0.33,1.583
			V124.443L83.373,124.443z M81.987,124.311v-1.188c0-0.33,0-0.594,0-0.726c-0.066-0.33-0.264-0.527-0.462-0.593
			c-0.198-0.133-0.528-0.198-0.989-0.198h-1.979v4.42h2.045c0.264,0,0.527-0.066,0.66-0.066c0.197-0.065,0.33-0.198,0.462-0.396
			C81.921,125.3,81.987,124.904,81.987,124.311L81.987,124.311z M93.333,122.728c0,0.857-0.131,1.386-0.395,1.716
			c-0.33,0.33-0.925,0.527-1.848,0.527h-2.045v2.111h-1.385v-6.532h3.1c0.594,0,1.056,0.066,1.451,0.132
			c0.396,0.133,0.727,0.33,0.858,0.66C93.268,121.672,93.333,122.134,93.333,122.728L93.333,122.728z M92.014,122.793
			c0-0.396-0.065-0.659-0.132-0.857c-0.131-0.131-0.197-0.197-0.396-0.264c-0.132,0-0.396-0.065-0.726-0.065h-1.715v2.309h1.715
			c0.462,0,0.792-0.066,0.99-0.198c0.065-0.066,0.197-0.198,0.197-0.33C91.948,123.256,92.014,123.058,92.014,122.793
			L92.014,122.793z M100.129,124.904c0,0.396-0.066,0.726-0.132,0.924c-0.066,0.264-0.198,0.461-0.33,0.594
			c-0.198,0.264-0.396,0.396-0.727,0.462c-0.461,0.198-1.121,0.264-2.044,0.264c-0.595,0-1.056-0.065-1.386-0.132
			c-0.396-0.066-0.66-0.198-0.923-0.462c-0.396-0.33-0.528-0.924-0.528-1.847v-1.781c0-0.792,0.132-1.386,0.396-1.781
			c0.264-0.33,0.792-0.528,1.518-0.595c0.329-0.065,0.659-0.065,1.056-0.065c0.857,0,1.518,0.065,1.979,0.264
			c0.264,0.066,0.528,0.198,0.66,0.396c0.264,0.33,0.462,0.857,0.462,1.648V124.904L100.129,124.904z M98.743,124.707v-1.979
			c0-0.396-0.065-0.726-0.264-0.857c-0.132-0.132-0.396-0.264-0.727-0.264c-0.132-0.066-0.329-0.066-0.659-0.066
			c-0.924,0-1.385,0.132-1.517,0.462c-0.133,0.197-0.198,0.461-0.198,0.857c0,0.066,0,0.132,0,0.198v1.583
			c0,0.527,0.065,0.857,0.198,1.056c0.132,0.198,0.264,0.264,0.526,0.33c0.265,0,0.528,0.065,0.925,0.065
			c0.396,0,0.725-0.065,0.989-0.132c0.198,0,0.33-0.132,0.462-0.264C98.678,125.498,98.743,125.168,98.743,124.707L98.743,124.707z
			 M107.451,127.082h-1.715l-2.64-2.771h-0.593v2.771h-1.386v-6.532h1.386v2.64h0.593l2.441-2.64h1.649l-2.902,3.167
			L107.451,127.082L107.451,127.082z M112.729,127.082h-4.882v-6.532h4.882v1.057h-3.562v1.649h3.365v0.989h-3.365v1.781h3.562
			V127.082L112.729,127.082z M119.59,122.463c0,0.727-0.066,1.254-0.33,1.452c-0.198,0.198-0.462,0.33-0.924,0.462l0,0
			c0.396,0,0.726,0.132,0.924,0.396c0.198,0.263,0.264,0.593,0.264,1.121v1.188h-1.385v-0.99c0-0.462-0.066-0.792-0.198-0.924
			c-0.132-0.197-0.462-0.264-0.858-0.264h-1.912v2.178h-1.386v-6.532h3.496c0.924,0,1.583,0.132,1.913,0.462
			C119.458,121.342,119.59,121.805,119.59,122.463L119.59,122.463z M118.204,122.661c0-0.396-0.065-0.659-0.132-0.791
			c-0.132-0.198-0.462-0.264-0.99-0.264h-1.912v2.242h1.979c0.396,0,0.726-0.065,0.857-0.264
			C118.139,123.453,118.204,123.123,118.204,122.661L118.204,122.661z M129.023,121.606h-2.112v5.476h-1.385v-5.476h-2.045v-1.057
			h5.542V121.606L129.023,121.606z M135.487,124.904c0,0.396-0.065,0.726-0.132,0.924c-0.065,0.264-0.197,0.461-0.329,0.594
			c-0.132,0.264-0.396,0.396-0.726,0.462c-0.396,0.198-1.122,0.264-2.045,0.264c-0.528,0-0.99-0.065-1.386-0.132
			c-0.33-0.066-0.66-0.198-0.924-0.462c-0.33-0.33-0.527-0.924-0.527-1.847v-1.781c0-0.792,0.132-1.386,0.396-1.781
			c0.264-0.33,0.792-0.528,1.583-0.595c0.265-0.065,0.66-0.065,1.056-0.065c0.858,0,1.518,0.065,1.913,0.264
			c0.33,0.066,0.528,0.198,0.66,0.396c0.329,0.33,0.461,0.857,0.461,1.648V124.904L135.487,124.904z M134.103,124.707v-1.979
			c0-0.396-0.066-0.726-0.265-0.857c-0.131-0.132-0.395-0.264-0.725-0.264c-0.132-0.066-0.33-0.066-0.66-0.066
			c-0.857,0-1.386,0.132-1.517,0.462c-0.066,0.197-0.132,0.461-0.198,0.857c0.066,0.066,0.066,0.132,0.066,0.198v1.583
			c0,0.527,0.065,0.857,0.197,1.056c0.065,0.198,0.264,0.264,0.462,0.33c0.264,0,0.594,0.065,0.924,0.065
			c0.396,0,0.726-0.065,0.989-0.132c0.198,0,0.396-0.132,0.461-0.264C134.036,125.498,134.103,125.168,134.103,124.707
			L134.103,124.707z M142.414,125.234c0,0.66-0.197,1.188-0.593,1.518c-0.265,0.132-0.594,0.264-1.056,0.33
			c-0.396,0-0.924,0.065-1.518,0.065c-0.462,0-0.792,0-1.122-0.065c-0.329-0.066-0.593-0.133-0.856-0.265
			c-0.265-0.132-0.463-0.33-0.595-0.659c-0.131-0.264-0.197-0.594-0.197-0.99v-4.618h1.386v4.75c0,0.265,0.065,0.462,0.263,0.595
			c0.198,0.132,0.595,0.197,1.255,0.197c0.064,0,0.197,0,0.263,0c0.265,0,0.462-0.065,0.595-0.065c0.264,0,0.462-0.066,0.593-0.198
			c0.132-0.132,0.198-0.396,0.198-0.792v-4.486h1.385V125.234L142.414,125.234z M149.473,122.463c0,0.727-0.132,1.254-0.329,1.452
			s-0.527,0.33-0.989,0.462l0,0c0.462,0,0.792,0.132,0.989,0.396c0.197,0.263,0.264,0.593,0.264,1.121v1.188h-1.386v-0.99
			c0-0.462-0.065-0.792-0.197-0.924c-0.197-0.197-0.462-0.264-0.924-0.264h-1.913v2.178h-1.386v-6.532h3.562
			c0.924,0,1.518,0.132,1.848,0.462C149.341,121.342,149.473,121.805,149.473,122.463L149.473,122.463z M148.088,122.661
			c0-0.396-0.066-0.659-0.198-0.791c-0.131-0.198-0.461-0.264-0.923-0.264h-1.979v2.242h1.979c0.462,0,0.726-0.065,0.923-0.264
			C148.021,123.453,148.088,123.123,148.088,122.661L148.088,122.661z"/>
		<path fill-rule="evenodd" clip-rule="evenodd" fill="#FFFFFF" d="M106.857,97.197h7.059c1.584,0,2.573-0.264,3.101-0.791
			c0.462-0.594,0.726-1.649,0.726-3.299v-2.046c0-1.385-0.33-2.374-0.923-2.968c-0.66-0.594-1.716-0.924-3.299-0.924h-6.663V97.197
			L106.857,97.197z M46.43,79.254h9.367l5.08,26.916l6.597-26.916h10.093l6.004,26.783l5.607-26.783l9.434,0.066l0,0h15.832
			c4.618,0,7.983,0.923,9.962,2.704c0.396,0.396,0.792,0.857,1.121,1.319v-4.09h27.312v7.851h-8.906v27.312h-9.434V87.104h-7.454
			c0.264,1.121,0.33,2.44,0.33,3.892l0.065,2.309c0,4.156-1.055,7.191-3.034,8.972c-2.045,1.848-5.344,2.771-9.962,2.771h-7.586
			v9.368h-8.972V82.485l-7.06,31.931h-14.05l-4.619-22.101l-5.079,22.101h-13.59L46.43,79.254L46.43,79.254z"/>
	</g>
</g>
</svg>
