<?xml version="1.0" encoding="UTF-8" standalone="no"?>
<!-- Created with Inkscape (http://www.inkscape.org/) -->

<svg
   xmlns:dc="http://purl.org/dc/elements/1.1/"
   xmlns:cc="http://creativecommons.org/ns#"
   xmlns:rdf="http://www.w3.org/1999/02/22-rdf-syntax-ns#"
   xmlns:svg="http://www.w3.org/2000/svg"
   xmlns="http://www.w3.org/2000/svg"
   version="1.1"
   width="192.756"
   height="192.756"
   viewBox="0 0 192.756 192.756"
   id="Logo"
   xml:space="preserve"><metadata
     id="metadata223"><rdf:RDF><cc:Work
         rdf:about=""><dc:format>image/svg+xml</dc:format><dc:type
           rdf:resource="http://purl.org/dc/dcmitype/StillImage" /><dc:title></dc:title></cc:Work></rdf:RDF></metadata><defs
     id="defs221" /><g
     id="g3"><g
       id="g5"><path
         d="m 184.185,110.758 c 0.018,0.605 0.026,1.212 0.026,1.795 0,18.986 -8.511,36.84 -23.964,50.276 -15.488,13.468 -36.092,20.883 -58.016,20.883 -21.922,0 -42.526,-7.415 -58.015,-20.883 -15.453,-13.437 -23.963,-31.29 -23.963,-50.276 0,-0.586 0.008,-1.189 0.025,-1.795 l 0,-0.025 0,-0.027 c -0.017,-0.573 -0.025,-1.148 -0.025,-1.704 0,-37.276 36.774,-67.604 81.979,-67.604 45.203,0 81.979,30.327 81.979,67.604 0,0.554 -0.009,1.129 -0.026,1.704 v 0.027 0.025 z"
         id="path7" /><path
         d="m 23.45,122.65 c -1.119,-4.458 -1.71,-9.08 -1.71,-13.813 0,-8.709 1.99,-17.032 5.612,-24.671 l -1.26,-0.464 c -3.767,7.827 -5.839,16.362 -5.839,25.299 0,5.281 0.723,10.421 2.093,15.357 l 0.027,-1.311 1.077,-0.397 z"
         id="path9"
         style="fill:#1c1b1d" /><path
         d="m 151.701,77.961 c -7.692,-10.095 -6.272,-10.487 -6.272,-10.487 l 13.184,-6.732 C 147.768,51.916 133.956,45.599 118.53,42.928 l -0.917,12.104 c 0,0 -3.787,1.567 -15.149,1.567 -11.363,0 -16.327,-1.666 -16.327,-1.666 L 85.205,42.94 c -15.422,2.683 -29.23,9.008 -40.064,17.843 l 13.047,6.852 c 0,0 -1.502,4.507 -6.922,11.298 -5.42,6.792 -10.645,10.448 -10.645,10.448 L 26.472,84.165 c -3.623,7.639 -5.613,15.962 -5.613,24.671 0,4.733 0.591,9.355 1.71,13.813 l 15.929,-5.875 c 0,0 3.432,2.401 8.822,10.587 5.391,8.184 6.762,14.505 6.762,14.505 l -16.149,8.313 c 10.985,11.714 26.53,20.331 44.422,24.012 l 0.005,-0.226 1.666,-16.611 c 0,0 2.548,-2.108 17.104,-2.108 14.555,0 18.477,2.108 18.477,2.108 l 1.664,16.611 -0.002,0.264 c 17.893,-3.646 33.453,-12.221 44.466,-23.899 L 149.4,141.622 c 0,0 0.148,-4.02 6.569,-13.869 6.419,-9.852 9.262,-10.978 9.262,-10.978 l 15.966,6.037 c 1.145,-4.51 1.753,-9.185 1.753,-13.976 0,-8.762 -2.018,-17.132 -5.682,-24.81 l -14.293,5.451 c -0.003,0.002 -3.579,-1.419 -11.274,-11.516 z"
         id="path11"
         style="fill:none" /><path
         d="m 185.95,110.708 v 0.051 c 0,-0.009 0,-0.017 0,-0.025 0,-0.008 0,-0.017 0,-0.026 z"
         id="path13"
         style="fill:#1c1b1d" /><path
         d="m 18.515,110.729 c 0,0.012 0,0.021 0,0.029 v -0.051 c 0,0.009 0,0.017 0,0.022 z"
         id="path15"
         style="fill:#1c1b1d" /><path
         d="m 118.61,41.856 0.067,-0.894 c -5.358,-0.879 -10.861,-1.329 -16.446,-1.329 -5.838,0 -11.583,0.496 -17.17,1.455 l 0.069,0.891 c 5.519,-0.958 11.238,-1.464 17.101,-1.464 5.607,10e-4 11.085,0.464 16.379,1.341 z"
         id="path17"
         style="fill:#c0c3c7" /><path
         d="m 21.308,131.425 c 3.037,9.945 8.475,19.216 16.069,27.278 l 0.036,-7.037 c -7.596,-7.874 -13.138,-17.159 -15.95,-27.308 l -0.155,7.067 z"
         id="path19"
         style="fill:#999ea1" /><path
         d="m 47.318,127.362 c -5.39,-8.186 -8.822,-10.587 -8.822,-10.587 l -15.929,5.875 c 2.565,10.218 7.916,19.584 15.364,27.529 l 16.149,-8.313 c 0,10e-4 -1.372,-6.32 -6.762,-14.504 z"
         id="path21"
         style="fill:#c0c3c7" /><path
         d="m 82.327,175.495 -0.156,7.885 c 6.488,1.382 13.211,2.097 20.061,2.097 6.458,0 12.804,-0.636 18.945,-1.866 l 0.074,-7.937 c -6.106,1.187 -12.474,1.814 -19.02,1.814 -6.862,0 -13.527,-0.692 -19.904,-1.993 z"
         id="path23"
         style="fill:#9ba0a2" /><path
         d="m 119.604,157.354 c 0,0 -3.922,-2.108 -18.477,-2.108 -14.555,0 -17.104,2.108 -17.104,2.108 l -1.666,16.611 -0.005,0.226 c 6.261,1.289 12.807,1.977 19.548,1.977 6.674,0 13.159,-0.676 19.364,-1.938 l 0.002,-0.264 -1.662,-16.612 z"
         id="path25"
         style="fill:#c0c3c7" /><path
         d="m 155.966,127.753 c -6.421,9.85 -6.569,13.869 -6.569,13.869 l 16.335,8.708 c 7.482,-7.934 12.864,-17.298 15.462,-27.518 l -15.966,-6.037 c 0,0 -2.843,1.126 -9.262,10.978 z"
         id="path27"
         style="fill:#c0c3c7" /><path
         d="m 166.49,159.322 c 7.061,-7.33 12.319,-15.686 15.582,-24.659 l 0.355,-2.009 -0.063,-6.168 c -3.058,9.594 -8.566,18.367 -15.945,25.828 l 0.071,7.008 z"
         id="path29"
         style="fill:#999ea1" /><path
         d="m 37.931,150.18 -0.513,0.264 -0.005,1.223 c 11.212,11.621 26.902,20.16 44.915,23.829 l 0.026,-1.304 C 64.461,170.511 48.916,161.894 37.931,150.18 z"
         id="path31"
         style="fill:#151415" /><path
         d="m 165.731,150.33 c -11.013,11.679 -26.573,20.254 -44.466,23.899 l -0.015,1.444 c 18.047,-3.504 33.817,-11.881 45.169,-23.359 l -0.016,-1.627 -0.672,-0.357 z"
         id="path33"
         style="fill:#151415" /><path
         d="m 178.779,83.338 -1.809,0.689 c 3.665,7.678 5.682,16.048 5.682,24.81 0,4.791 -0.608,9.466 -1.753,13.976 l 1.137,0.431 0.033,3.243 c 1.779,-5.581 2.73,-11.442 2.73,-17.485 0.001,-9.077 -2.14,-17.738 -6.02,-25.664 z"
         id="path35"
         style="fill:#1c1b1d" /><path
         d="M 37.931,150.18 C 30.483,142.235 25.132,132.868 22.567,122.651 l -1.076,0.397 -0.029,1.311 c 2.812,10.148 8.354,19.434 15.95,27.308 l 0.005,-1.223 0.514,-0.264 z"
         id="path37"
         style="fill:#bec1c5" /><path
         d="m 101.901,176.168 c -6.741,0 -13.288,-0.688 -19.548,-1.977 l -0.026,1.304 c 6.376,1.301 13.042,1.993 19.904,1.993 6.546,0 12.913,-0.628 19.02,-1.814 l 0.015,-1.444 c -6.205,1.262 -12.691,1.938 -19.365,1.938 z"
         id="path39"
         style="fill:#a2a5a9" /><path
         d="m 181.193,122.813 c -2.598,10.22 -7.979,19.584 -15.462,27.518 l 0.673,0.357 0.016,1.627 c 7.379,-7.461 12.888,-16.234 15.945,-25.828 l -0.035,-3.243 -1.137,-0.431 z"
         id="path41"
         style="fill:#bec1c5" /><path
         d="m 161.389,59.895 c -0.145,-0.118 -0.29,-0.232 -0.433,-0.349 l -0.861,0.438 -1.482,0.758 -13.184,6.732 c 0,0 -1.42,0.392 6.272,10.487 7.694,10.096 11.271,11.517 11.271,11.517 l 14.293,-5.451 1.808,-0.689 0.852,-0.324 C 175.756,74.459 169.509,66.607 161.389,59.895 z"
         id="path43"
         style="fill:#c0c3c7" /><path
         d="M 185.976,109.001 C 185.976,90.44 177.245,73 161.389,59.895 145.581,46.83 124.573,39.634 102.232,39.634 79.893,39.634 58.884,46.83 43.076,59.895 27.22,73 18.488,90.44 18.488,109.001 c 0,0.574 0.009,1.165 0.027,1.758 v -0.051 c -0.019,0.622 -0.027,1.241 -0.027,1.845 0,19.503 8.726,37.832 24.571,51.606 15.811,13.746 36.824,21.317 59.173,21.317 22.349,0 43.362,-7.571 59.174,-21.317 15.846,-13.774 24.57,-32.104 24.57,-51.606 0,-0.599 -0.009,-1.222 -0.025,-1.845 v 0.051 c 0.016,-0.595 0.025,-1.184 0.025,-1.758 z m -1.791,1.757 c 0.018,0.605 0.026,1.212 0.026,1.795 0,18.986 -8.511,36.84 -23.964,50.276 -15.488,13.468 -36.092,20.883 -58.016,20.883 -21.922,0 -42.526,-7.415 -58.015,-20.883 -15.453,-13.437 -23.963,-31.29 -23.963,-50.276 0,-0.586 0.008,-1.189 0.025,-1.795 l 0,-0.025 0,-0.027 c -0.017,-0.573 -0.025,-1.148 -0.025,-1.704 0,-37.276 36.774,-67.604 81.979,-67.604 45.203,0 81.979,30.327 81.979,67.604 0,0.554 -0.009,1.129 -0.026,1.704 v 0.027 0.025 z"
         id="path45" /></g><g
       id="g47"><path
         d="m 171.722,94.586 c 0.017,0.607 0.025,1.212 0.025,1.795 0,18.985 -8.511,36.839 -23.965,50.275 -15.489,13.468 -36.093,20.883 -58.016,20.883 -21.923,0 -42.525,-7.415 -58.015,-20.883 C 16.297,133.22 7.787,115.366 7.787,96.381 c 0,-0.586 0.008,-1.189 0.026,-1.795 L 7.814,94.56 7.813,94.534 C 7.795,93.959 7.787,93.386 7.787,92.829 c 0,-37.276 36.775,-67.603 81.979,-67.603 45.204,0 81.98,30.327 81.98,67.603 0,0.556 -0.009,1.13 -0.025,1.705 l -0.003,0.026 0.004,0.026 z"
         id="path49" /><path
         d="m 10.986,106.479 c -1.119,-4.459 -1.71,-9.08 -1.71,-13.814 0,-8.709 1.989,-17.032 5.612,-24.671 l -1.26,-0.464 c -3.768,7.827 -5.84,16.364 -5.84,25.299 0,5.281 0.724,10.422 2.093,15.357 l 0.028,-1.31 1.077,-0.397 z"
         id="path51"
         style="fill:#393f45" /><path
         d="m 139.238,61.79 c -7.694,-10.096 -6.273,-10.487 -6.273,-10.487 l 13.183,-6.731 C 135.305,35.745 121.493,29.429 106.066,26.757 l -0.916,12.104 c 0,0 -3.787,1.567 -15.151,1.567 -11.362,0 -16.326,-1.665 -16.326,-1.665 L 72.74,26.768 C 57.318,29.451 43.51,35.776 32.675,44.61 l 13.047,6.853 c 0,0 -1.502,4.506 -6.922,11.298 -5.42,6.792 -10.646,10.448 -10.646,10.448 L 14.005,67.993 c -3.622,7.639 -5.612,15.962 -5.612,24.671 0,4.734 0.591,9.355 1.71,13.814 l 15.929,-5.875 c 0,0 3.431,2.401 8.821,10.586 5.391,8.184 6.763,14.505 6.763,14.505 l -16.149,8.313 c 10.985,11.715 26.53,20.331 44.422,24.012 l 0.004,-0.225 1.666,-16.612 c 0,0 2.548,-2.108 17.104,-2.108 14.554,0 18.475,2.108 18.475,2.108 l 1.666,16.612 -0.002,0.263 c 17.894,-3.646 33.451,-12.221 44.467,-23.899 l -16.335,-8.708 c 0,0 0.147,-4.02 6.566,-13.868 6.422,-9.853 9.264,-10.978 9.264,-10.978 l 15.965,6.038 c 1.146,-4.511 1.752,-9.185 1.752,-13.978 0,-8.762 -2.015,-17.131 -5.68,-24.809 l -14.292,5.451 c 0,0 -3.576,-1.421 -11.271,-11.516 z"
         id="path53"
         style="fill:none" /><path
         d="m 173.484,94.535 v 0.051 c 0,-0.009 0,-0.017 0,-0.025 0,-0.008 0,-0.017 0,-0.026 z"
         id="path55"
         style="fill:#393f45" /><path
         d="m 6.05,94.558 c 0,0.009 0,0.02 0,0.028 v -0.051 c 0.001,0.009 0.001,0.015 0,0.023 z"
         id="path57"
         style="fill:#393f45" /><path
         d="m 106.146,25.684 0.067,-0.895 c -5.358,-0.878 -10.86,-1.328 -16.446,-1.328 -5.838,0 -11.583,0.496 -17.17,1.455 l 0.069,0.89 c 5.518,-0.957 11.237,-1.463 17.101,-1.463 5.608,0 11.084,0.464 16.379,1.341 z"
         id="path59"
         style="fill:#e0e1e4" /><path
         d="m 8.844,115.252 c 3.036,9.945 8.475,19.219 16.069,27.278 l 0.036,-7.037 C 17.353,127.619 11.811,118.334 8.999,108.185 l -0.155,7.067 z"
         id="path61"
         style="fill:#bbbdc2" /><path
         d="m 34.853,111.189 c -5.39,-8.185 -8.821,-10.586 -8.821,-10.586 l -15.929,5.875 c 2.565,10.218 7.916,19.584 15.364,27.528 l 16.149,-8.313 c 0,0.001 -1.372,-6.32 -6.763,-14.504 z"
         id="path63"
         style="fill:#e0e1e4" /><path
         d="m 69.862,159.322 -0.156,7.886 c 6.487,1.381 13.211,2.096 20.06,2.096 6.458,0 12.804,-0.636 18.945,-1.866 l 0.075,-7.937 c -6.107,1.187 -12.475,1.815 -19.021,1.815 -6.86,0 -13.526,-0.693 -19.903,-1.994 z"
         id="path65"
         style="fill:#bcbfc4" /><path
         d="m 107.138,141.182 c 0,0 -3.921,-2.108 -18.475,-2.108 -14.555,0 -17.104,2.108 -17.104,2.108 l -1.666,16.612 -0.004,0.225 c 6.261,1.29 12.807,1.977 19.547,1.977 6.675,0 13.158,-0.675 19.365,-1.938 l 0.002,-0.263 -1.665,-16.613 z"
         id="path67"
         style="fill:#e0e1e4" /><path
         d="m 143.5,111.581 c -6.419,9.849 -6.566,13.868 -6.566,13.868 l 16.335,8.708 c 7.48,-7.934 12.862,-17.298 15.46,-27.516 l -15.965,-6.038 c 0,0.001 -2.842,1.126 -9.264,10.978 z"
         id="path69"
         style="fill:#e0e1e4" /><path
         d="m 154.026,143.151 c 7.061,-7.332 12.317,-15.688 15.581,-24.661 l 0.357,-2.009 -0.064,-6.168 c -3.056,9.594 -8.567,18.367 -15.945,25.828 l 0.071,7.01 z"
         id="path71"
         style="fill:#bbbdc2" /><path
         d="m 25.467,134.007 -0.513,0.264 -0.005,1.223 c 11.211,11.622 26.902,20.16 44.914,23.829 l 0.027,-1.304 C 51.997,154.338 36.452,145.722 25.467,134.007 z"
         id="path73"
         style="fill:#383e44" /><path
         d="m 153.269,134.157 c -11.016,11.679 -26.573,20.254 -44.467,23.899 l -0.015,1.444 c 18.048,-3.503 33.816,-11.88 45.168,-23.359 l -0.016,-1.627 -0.67,-0.357 z"
         id="path75"
         style="fill:#383e44" /><path
         d="m 166.315,67.166 -1.809,0.689 c 3.665,7.678 5.68,16.047 5.68,24.809 0,4.793 -0.606,9.467 -1.752,13.978 l 1.138,0.43 0.034,3.242 c 1.776,-5.581 2.729,-11.442 2.729,-17.485 0,-9.075 -2.142,-17.737 -6.02,-25.663 z"
         id="path77"
         style="fill:#393f45" /><path
         d="M 25.467,134.007 C 18.019,126.063 12.668,116.696 10.103,106.479 l -1.076,0.397 -0.029,1.31 c 2.812,10.148 8.354,19.434 15.95,27.308 l 0.005,-1.223 0.514,-0.264 z"
         id="path79"
         style="fill:#dedfe3" /><path
         d="m 89.437,159.995 c -6.741,0 -13.287,-0.687 -19.547,-1.977 l -0.027,1.304 c 6.377,1.301 13.042,1.994 19.904,1.994 6.545,0 12.913,-0.629 19.021,-1.815 l 0.015,-1.444 c -6.208,1.263 -12.691,1.938 -19.366,1.938 z"
         id="path81"
         style="fill:#c2c5c9" /><path
         d="m 168.729,106.642 c -2.598,10.218 -7.979,19.582 -15.46,27.516 l 0.671,0.357 0.016,1.627 c 7.378,-7.461 12.89,-16.234 15.945,-25.828 l -0.034,-3.242 -1.138,-0.43 z"
         id="path83"
         style="fill:#dedfe3" /><path
         d="m 173.51,92.828 c 0,-18.561 -8.731,-36 -24.587,-49.105 C 133.116,30.657 112.107,23.462 89.767,23.462 67.428,23.462 46.419,30.657 30.611,43.723 14.756,56.828 6.023,74.268 6.023,92.828 c 0,0.574 0.009,1.167 0.027,1.758 v -0.051 c -0.019,0.622 -0.027,1.244 -0.027,1.846 0,19.502 8.726,37.831 24.571,51.605 15.81,13.746 36.824,21.317 59.172,21.317 22.348,0 43.364,-7.571 59.173,-21.317 15.846,-13.774 24.57,-32.103 24.57,-51.605 0,-0.601 -0.008,-1.222 -0.025,-1.846 v 0.051 c 0.018,-0.594 0.026,-1.185 0.026,-1.758 z m -1.788,1.758 c 0.017,0.607 0.025,1.212 0.025,1.795 0,18.985 -8.511,36.839 -23.965,50.275 -15.489,13.468 -36.093,20.883 -58.016,20.883 -21.923,0 -42.525,-7.415 -58.015,-20.883 C 16.297,133.22 7.787,115.366 7.787,96.381 c 0,-0.586 0.008,-1.189 0.026,-1.795 L 7.814,94.56 7.813,94.534 C 7.795,93.959 7.787,93.386 7.787,92.829 c 0,-37.276 36.775,-67.603 81.979,-67.603 45.204,0 81.98,30.327 81.98,67.603 0,0.556 -0.009,1.13 -0.025,1.705 l -0.003,0.026 0.004,0.026 z"
         id="path85" /></g><g
       id="g87"><path
         d="m 178.912,76.943 c 0.017,0.607 0.025,1.212 0.025,1.796 0,18.984 -8.511,36.839 -23.965,50.276 -15.489,13.466 -36.093,20.883 -58.016,20.883 -21.922,0 -42.526,-7.417 -58.015,-20.883 C 23.487,115.578 14.977,97.723 14.977,78.739 c 0,-0.586 0.009,-1.19 0.027,-1.796 l 0.001,-0.025 -0.001,-0.027 c -0.018,-0.574 -0.027,-1.147 -0.027,-1.704 0,-37.276 36.776,-67.603 81.979,-67.603 45.204,0 81.98,30.327 81.98,67.603 0,0.555 -0.009,1.128 -0.025,1.705 l -0.003,0.026 0.004,0.025 z"
         id="path89" /><path
         d="m 18.175,88.836 c -1.118,-4.459 -1.71,-9.08 -1.71,-13.815 0,-8.708 1.99,-17.031 5.613,-24.67 l -1.261,-0.465 c -3.767,7.828 -5.84,16.364 -5.84,25.3 0,5.28 0.725,10.421 2.093,15.357 l 0.029,-1.31 1.076,-0.397 z"
         id="path91"
         style="fill:#60666d" /><path
         d="m 146.428,44.147 c -7.694,-10.095 -6.274,-10.488 -6.274,-10.488 l 13.185,-6.732 C 142.496,18.101 128.684,11.785 113.256,9.113 l -0.915,12.104 c 0,0 -3.789,1.567 -15.152,1.567 -11.362,0 -16.325,-1.666 -16.325,-1.666 L 79.93,9.126 C 64.508,11.809 50.701,18.134 39.867,26.969 l 13.046,6.852 c 0,0 -1.502,4.506 -6.922,11.298 -5.421,6.792 -10.645,10.448 -10.645,10.448 l -14.15,-5.215 c -3.623,7.639 -5.612,15.961 -5.612,24.67 0,4.735 0.591,9.356 1.711,13.815 l 15.929,-5.876 c 0,0 3.43,2.402 8.821,10.584 5.391,8.185 6.763,14.507 6.763,14.507 l -16.149,8.313 c 10.985,11.716 26.53,20.331 44.422,24.013 l 0.004,-0.226 1.667,-16.613 c 0,0 2.548,-2.108 17.103,-2.108 14.556,0 18.476,2.108 18.476,2.108 l 1.667,16.613 -0.004,0.262 c 17.894,-3.644 33.452,-12.219 44.468,-23.897 l -16.335,-8.708 c 0,0 0.147,-4.02 6.566,-13.869 6.419,-9.851 9.264,-10.978 9.264,-10.978 l 15.964,6.039 c 1.147,-4.51 1.753,-9.185 1.753,-13.978 0,-8.761 -2.015,-17.131 -5.679,-24.808 l -14.293,5.45 c -0.003,-10e-4 -3.582,-1.422 -11.274,-11.518 z"
         id="path93"
         style="fill:none" /><path
         d="m 180.674,76.893 v 0.051 c 0.001,-0.009 0.001,-0.017 0.001,-0.025 0,-0.009 0,-0.017 -0.001,-0.026 z"
         id="path95"
         style="fill:#60666d" /><path
         d="m 13.24,76.916 c 0,0.01 0,0.019 10e-4,0.029 v -0.052 c -10e-4,0.008 -10e-4,0.015 -10e-4,0.023 z"
         id="path97"
         style="fill:#60666d" /><path
         d="m 113.335,8.042 0.068,-0.894 c -5.358,-0.879 -10.86,-1.329 -16.446,-1.329 -5.838,0 -11.583,0.496 -17.171,1.455 l 0.069,0.89 c 5.519,-0.957 11.238,-1.463 17.102,-1.463 5.607,0 11.084,0.463 16.378,1.341 z"
         id="path99"
         style="fill:#ffffff" /><path
         d="m 97.188,22.785 c 11.363,0 15.152,-1.567 15.152,-1.567 l 0.915,-12.104 c -5.368,-0.93 -10.93,-1.422 -16.628,-1.422 -5.725,0 -11.308,0.496 -16.697,1.434 l 0.933,11.993 c 0,0 4.962,1.666 16.325,1.666 z"
         id="path101"
         style="fill:#ffffff" /><path
         d="m 16.033,97.608 c 3.038,9.946 8.476,19.219 16.07,27.28 l 0.036,-7.037 C 24.542,109.978 19,100.692 16.188,90.543 l -0.155,7.065 z"
         id="path103"
         style="fill:#dcdce0" /><path
         d="M 42.043,93.545 C 36.652,85.362 33.222,82.961 33.222,82.961 l -15.929,5.876 c 2.564,10.217 7.915,19.584 15.363,27.528 l 16.149,-8.313 c 10e-4,0 -1.371,-6.323 -6.762,-14.507 z"
         id="path105"
         style="fill:#ffffff" /><path
         d="m 77.053,141.682 -0.156,7.883 c 6.487,1.383 13.21,2.099 20.06,2.099 6.458,0 12.803,-0.637 18.944,-1.869 l 0.077,-7.935 c -6.109,1.187 -12.477,1.815 -19.021,1.815 -6.863,0 -13.528,-0.694 -19.904,-1.993 z"
         id="path107"
         style="fill:#dddee1" /><path
         d="m 114.328,123.538 c 0,0 -3.92,-2.108 -18.476,-2.108 -14.555,0 -17.103,2.108 -17.103,2.108 l -1.667,16.613 -0.004,0.226 c 6.261,1.288 12.808,1.977 19.548,1.977 6.675,0 13.158,-0.675 19.364,-1.94 l 0.004,-0.262 -1.666,-16.614 z"
         id="path109"
         style="fill:#ffffff" /><path
         d="m 150.69,93.938 c -6.419,9.85 -6.566,13.869 -6.566,13.869 l 16.335,8.708 c 7.48,-7.934 12.862,-17.299 15.459,-27.517 l -15.964,-6.039 c 0,10e-4 -2.845,1.129 -9.264,10.979 z"
         id="path111"
         style="fill:#ffffff" /><path
         d="m 161.217,125.509 c 7.058,-7.33 12.317,-15.687 15.581,-24.66 l 0.357,-2.011 -0.065,-6.166 c -3.056,9.594 -8.565,18.366 -15.944,25.826 l 0.071,7.011 z"
         id="path113"
         style="fill:#dcdce0" /><path
         d="m 32.657,116.364 -0.513,0.265 -0.005,1.223 c 11.211,11.622 26.901,20.158 44.914,23.83 l 0.026,-1.305 C 59.187,136.695 43.642,128.08 32.657,116.364 z"
         id="path115"
         style="fill:#60666c" /><path
         d="m 160.459,116.516 c -11.016,11.679 -26.574,20.254 -44.468,23.897 l -0.013,1.446 c 18.045,-3.502 33.815,-11.881 45.167,-23.361 l -0.016,-1.625 -0.67,-0.357 z"
         id="path117"
         style="fill:#60666c" /><path
         d="m 173.506,49.523 -1.809,0.69 c 3.665,7.677 5.68,16.047 5.68,24.808 0,4.793 -0.606,9.467 -1.752,13.978 l 1.139,0.431 0.033,3.243 c 1.777,-5.583 2.729,-11.442 2.729,-17.486 -0.001,-9.076 -2.141,-17.737 -6.02,-25.664 z"
         id="path119"
         style="fill:#60666d" /><path
         d="m 96.627,8.868 c 5.698,0 11.26,0.492 16.628,1.421 l 0.08,-1.072 C 108.041,8.34 102.564,7.876 96.957,7.876 91.094,7.876 85.374,8.383 79.855,9.339 L 79.929,10.3 C 85.319,9.364 90.902,8.868 96.627,8.868 z"
         id="path121"
         style="fill:#dfdfe2" /><path
         d="m 39.866,26.969 -1.068,-0.561 -0.85,-0.446 c -0.049,0.04 -0.099,0.079 -0.147,0.119 -8.239,6.81 -14.549,14.792 -18.716,23.493 l 0.851,0.313 1.259,0.465 14.15,5.215 c 0,0 5.224,-3.657 10.645,-10.448 5.42,-6.792 6.922,-11.298 6.922,-11.298 L 39.866,26.969 z"
         id="path123"
         style="fill:#ffffff" /><path
         d="M 32.657,116.364 C 25.209,108.421 19.858,99.053 17.294,88.836 l -1.076,0.397 -0.03,1.31 c 2.813,10.149 8.354,19.434 15.951,27.308 l 0.005,-1.223 0.513,-0.264 z"
         id="path125"
         style="fill:#fdfefe" /><path
         d="m 96.627,142.354 c -6.741,0 -13.287,-0.688 -19.548,-1.977 l -0.026,1.305 c 6.376,1.3 13.042,1.993 19.904,1.993 6.545,0 12.912,-0.629 19.021,-1.815 l 0.013,-1.446 c -6.206,1.265 -12.689,1.94 -19.364,1.94 z"
         id="path127"
         style="fill:#e3e4e7" /><path
         d="m 175.918,88.999 c -2.597,10.218 -7.979,19.583 -15.459,27.517 l 0.671,0.357 0.016,1.625 c 7.379,-7.46 12.889,-16.231 15.944,-25.826 l -0.033,-3.243 -1.139,-0.43 z"
         id="path129"
         style="fill:#fdfefe" /><path
         d="m 156.113,26.08 c -0.142,-0.118 -0.288,-0.232 -0.433,-0.349 l -0.86,0.439 -1.482,0.757 -13.185,6.732 c 0,0 -1.42,0.393 6.274,10.488 7.692,10.095 11.271,11.516 11.271,11.516 l 14.293,-5.45 1.808,-0.69 0.849,-0.324 C 170.48,40.645 164.234,32.792 156.113,26.08 z"
         id="path131"
         style="fill:#ffffff" /><path
         d="m 180.701,75.187 c 0,-18.562 -8.732,-36.001 -24.588,-49.106 C 140.306,13.015 119.296,5.819 96.957,5.819 74.617,5.819 53.608,13.015 37.801,26.08 21.945,39.186 13.213,56.625 13.213,75.187 c 0,0.574 0.009,1.166 0.028,1.758 v -0.052 c -0.019,0.622 -0.028,1.243 -0.028,1.846 0,19.503 8.727,37.83 24.571,51.607 15.81,13.745 36.825,21.317 59.173,21.317 22.348,0 43.363,-7.572 59.173,-21.317 15.846,-13.777 24.571,-32.104 24.571,-51.607 0,-0.601 -0.009,-1.222 -0.027,-1.846 v 0.051 c 0.018,-0.594 0.027,-1.185 0.027,-1.757 z m -1.789,1.756 c 0.017,0.607 0.025,1.212 0.025,1.796 0,18.984 -8.511,36.839 -23.965,50.276 -15.489,13.466 -36.093,20.883 -58.016,20.883 -21.922,0 -42.526,-7.417 -58.015,-20.883 C 23.487,115.578 14.977,97.723 14.977,78.739 c 0,-0.586 0.009,-1.19 0.027,-1.796 l 0.001,-0.025 -0.001,-0.027 c -0.018,-0.574 -0.027,-1.147 -0.027,-1.704 0,-37.276 36.776,-67.603 81.979,-67.603 45.204,0 81.98,30.327 81.98,67.603 0,0.555 -0.009,1.128 -0.025,1.705 l -0.003,0.026 0.004,0.025 z"
         id="path133" /><path
         d="m 71.917,31.388 -0.391,-1.2 C 67.1,31.976 63,34.219 59.318,36.845 l 1.239,0.826 c 3.437,-2.461 7.249,-4.577 11.36,-6.283 z"
         id="path135"
         style="fill:#ffffff" /><path
         d="m 92.957,26.661 0.091,-1.182 c -4.979,0.264 -9.783,1.046 -14.331,2.286 l 0.518,1.115 c 4.356,-1.196 8.956,-1.956 13.722,-2.219 z"
         id="path137"
         style="fill:#ffffff" /><path
         d="m 54.637,42.617 -1.119,-0.994 c -3.168,3.016 -5.872,6.367 -8.018,9.98 l 1.685,0.434 c 2.004,-3.4 4.516,-6.561 7.452,-9.42 z"
         id="path139"
         style="fill:#ffffff" /><path
         d="m 114.28,28.905 0.66,-1.116 c -4.452,-1.221 -9.151,-2.003 -14.021,-2.289 l 0.061,1.188 c 4.618,0.291 9.073,1.049 13.3,2.217 z"
         id="path141"
         style="fill:#ffffff" /><path
         d="m 146.453,52.418 1.874,-0.366 c -2.151,-3.725 -4.894,-7.18 -8.126,-10.283 l -1.367,0.896 c 3.023,2.954 5.592,6.229 7.619,9.753 z"
         id="path143"
         style="fill:#ffffff" /><path
         d="m 151.656,70.625 2.06,0.276 c -0.103,-4.314 -0.927,-8.483 -2.377,-12.433 l -1.886,0.428 c 1.335,3.732 2.099,7.664 2.203,11.729 z"
         id="path145"
         style="fill:#ffffff" /><path
         d="m 44.146,58.404 -1.651,-0.64 C 40.98,61.66 40.08,65.78 39.884,70.046 l 1.912,-0.204 c 0.183,-3.966 0.992,-7.799 2.35,-11.438 z"
         id="path147"
         style="fill:#ffffff" /><path
         d="m 112.495,114.74 0.352,1.629 c 5.244,-1.255 10.177,-3.107 14.673,-5.462 l -1.067,-1.437 c -4.282,2.26 -8.973,4.048 -13.958,5.27 z"
         id="path149"
         style="fill:#ffffff" /><path
         d="m 133.397,105.123 1.112,1.466 c 3.999,-2.887 7.5,-6.225 10.377,-9.917 l -1.729,-0.997 c -2.714,3.508 -6.004,6.687 -9.76,9.448 z"
         id="path151"
         style="fill:#ffffff" /><path
         d="m 151.177,77.641 c -0.664,4.042 -1.979,7.916 -3.858,11.545 l 1.738,1.069 c 2.05,-3.861 3.479,-7.994 4.179,-12.314 l -2.059,-0.3 z"
         id="path153"
         style="fill:#ffffff" /><path
         d="m 96.71,116.629 c -2.799,0 -5.55,-0.175 -8.237,-0.504 l -0.521,1.563 c 2.879,0.366 5.828,0.557 8.832,0.557 2.6,0 5.159,-0.146 7.667,-0.419 l -0.513,-1.586 c -2.366,0.254 -4.777,0.389 -7.228,0.389 z"
         id="path155"
         style="fill:#ffffff" /><path
         d="m 42.142,76.973 -1.919,0.226 c 0.61,4.309 1.944,8.439 3.9,12.306 l 1.646,-0.987 C 43.966,84.882 42.729,81.01 42.142,76.973 z"
         id="path157"
         style="fill:#ffffff" /><path
         d="m 49.728,94.974 -1.752,0.769 c 2.758,3.731 6.141,7.119 10.031,10.069 l 1.2,-1.302 c -3.663,-2.805 -6.859,-6.01 -9.479,-9.536 z"
         id="path159"
         style="fill:#ffffff" /><path
         d="m 66.009,108.951 -1.209,1.281 c 4.378,2.431 9.195,4.371 14.333,5.736 l 0.528,-1.554 c -4.887,-1.304 -9.474,-3.152 -13.652,-5.463 z"
         id="path161"
         style="fill:#ffffff" /><path
         d="m 122.588,30.409 -0.847,1.077 c 4.197,1.763 8.078,3.957 11.562,6.507 l 1.007,-1.104 c -3.546,-2.536 -7.481,-4.719 -11.722,-6.48 z"
         id="path163"
         style="fill:#ffffff" /><ellipse
         cx="96.698997"
         cy="71.337997"
         rx="52.735001"
         ry="43.193001"
         id="ellipse165"
         style="fill:#ffffff" /></g><g
       id="g167"><path
         d="m 72.523,94.417 c 0.537,0.91 1.197,1.887 1.98,2.93 0.905,1.207 1.635,2.12 2.19,2.742 -0.446,0.47 -1.176,1.381 -2.19,2.73 -0.82,1.099 -1.477,2.083 -1.972,2.951 -0.163,-0.314 -0.386,-0.68 -0.669,-1.096 -0.489,-0.724 -1.094,-1.564 -1.818,-2.524 -0.157,-0.211 -0.708,-0.898 -1.655,-2.062 0.609,-0.694 1.393,-1.684 2.352,-2.968 0.712,-0.951 1.306,-1.853 1.782,-2.703 z"
         id="path169"
         style="fill:#db2247" /><path
         d="m 86.005,94.417 c 0.157,0.651 0.398,1.232 0.724,1.746 0.326,0.513 0.906,1.147 1.741,1.904 0.835,0.757 1.364,1.337 1.588,1.742 0.223,0.403 0.334,0.814 0.334,1.229 0,0.579 -0.192,1.063 -0.579,1.447 -0.385,0.386 -0.856,0.58 -1.411,0.58 -0.47,0 -0.897,-0.146 -1.28,-0.439 -0.383,-0.293 -0.722,-0.719 -1.018,-1.281 0.006,0.888 0.122,1.592 0.349,2.113 0.226,0.521 0.587,0.932 1.085,1.23 0.498,0.299 1.159,0.475 1.986,0.529 l 0.063,0.336 h -7.173 l 0.072,-0.336 c 1.11,0 1.971,-0.324 2.583,-0.972 0.612,-0.649 0.907,-1.616 0.882,-2.901 -0.271,0.574 -0.608,1.004 -1.009,1.29 -0.401,0.286 -0.855,0.431 -1.362,0.431 -0.542,0 -1.008,-0.197 -1.397,-0.589 -0.39,-0.392 -0.583,-0.862 -0.583,-1.41 0,-0.44 0.099,-0.839 0.298,-1.195 0.271,-0.494 0.712,-0.991 1.321,-1.492 0.609,-0.5 1.059,-0.915 1.348,-1.24 0.44,-0.501 0.762,-0.946 0.963,-1.339 0.203,-0.391 0.361,-0.852 0.475,-1.383 z"
         id="path171" /><path
         d="m 100.891,105.771 c -0.187,-0.713 -0.454,-1.381 -0.801,-2.004 -0.347,-0.624 -1.018,-1.595 -2.013,-2.908 -0.729,-0.967 -1.179,-1.578 -1.348,-1.838 -0.277,-0.422 -0.479,-0.809 -0.601,-1.162 -0.125,-0.354 -0.187,-0.711 -0.187,-1.072 0,-0.67 0.224,-1.23 0.67,-1.683 0.447,-0.453 0.998,-0.678 1.656,-0.678 0.662,0 1.239,0.236 1.728,0.706 0.367,0.35 0.667,0.872 0.896,1.564 0.199,-0.681 0.48,-1.199 0.841,-1.556 0.501,-0.482 1.081,-0.723 1.737,-0.723 0.652,0 1.204,0.224 1.656,0.673 0.452,0.449 0.678,0.985 0.678,1.605 0,0.544 -0.132,1.107 -0.396,1.697 -0.267,0.587 -0.78,1.358 -1.539,2.31 -0.988,1.25 -1.71,2.275 -2.162,3.077 -0.357,0.635 -0.628,1.299 -0.815,1.992 z"
         id="path173"
         style="fill:#db2247" /><path
         d="m 118.882,105.555 h -7.672 l 0.073,-0.309 c 0.994,-0.211 1.656,-0.419 1.98,-0.624 0.488,-0.308 0.889,-0.764 1.201,-1.367 0.31,-0.603 0.465,-1.238 0.465,-1.909 0,-0.095 -0.003,-0.235 -0.009,-0.415 -0.369,0.748 -0.815,1.294 -1.344,1.638 -0.529,0.344 -1.066,0.516 -1.615,0.516 -0.7,0 -1.293,-0.245 -1.781,-0.732 -0.49,-0.489 -0.732,-1.089 -0.732,-1.801 0,-0.7 0.222,-1.289 0.668,-1.77 0.447,-0.479 0.953,-0.718 1.519,-0.718 0.364,0 0.854,0.153 1.478,0.461 -0.254,-0.422 -0.42,-0.739 -0.494,-0.954 -0.075,-0.215 -0.113,-0.445 -0.113,-0.693 0,-0.687 0.237,-1.27 0.715,-1.746 0.476,-0.477 1.069,-0.714 1.783,-0.714 0.71,0 1.31,0.238 1.794,0.714 0.487,0.476 0.729,1.044 0.729,1.701 0,0.537 -0.209,1.1 -0.625,1.692 0.506,-0.241 0.813,-0.376 0.913,-0.408 0.163,-0.048 0.349,-0.072 0.553,-0.072 0.604,0 1.126,0.236 1.57,0.711 0.442,0.474 0.663,1.061 0.663,1.76 0,0.724 -0.24,1.332 -0.728,1.823 -0.484,0.492 -1.067,0.737 -1.75,0.737 -0.381,0 -0.771,-0.093 -1.172,-0.276 -0.401,-0.183 -0.749,-0.429 -1.045,-0.737 -0.211,-0.224 -0.473,-0.6 -0.787,-1.131 0.024,0.959 0.171,1.718 0.439,2.275 0.268,0.559 0.681,1.021 1.235,1.389 0.372,0.247 1.045,0.464 2.017,0.651 l 0.072,0.308 z"
         id="path175" /><rect
         width="34.721001"
         height="1.766"
         x="59.012001"
         y="55.070999"
         id="rect177" /><rect
         width="32.187"
         height="1.766"
         x="102.49"
         y="55.070999"
         id="rect179" /><rect
         width="78.967003"
         height="1.767"
         x="57.629002"
         y="89.560997"
         id="rect181" /><path
         d="M 72.101,41.412 69.915,52.2 h -1.26 L 67.96,46.305 66.785,52.2 h -1.259 l -1.24,-10.788 h 1.917 l 0.731,6.539 1.263,-6.539 h 1.122 l 0.742,6.562 1.291,-6.562 h 0.749 z"
         id="path183"
         style="fill:#db2247" /><path
         d="m 75.292,41.21 c 1.911,0 2.817,1.862 2.719,5.586 -0.098,3.725 -1.135,5.586 -3.109,5.586 -1.974,0 -2.897,-1.904 -2.768,-5.713 0.124,-3.639 1.177,-5.459 3.158,-5.459 z m -0.079,0.863 c -0.356,0 -0.607,0.326 -0.753,0.977 -0.146,0.651 -0.248,1.901 -0.307,3.746 -0.058,1.846 -0.033,3.095 0.073,3.747 0.107,0.65 0.34,0.976 0.701,0.976 0.361,0 0.614,-0.326 0.76,-0.976 0.146,-0.652 0.245,-1.901 0.299,-3.747 0.054,-1.841 0.027,-3.087 -0.08,-3.742 C 75.8,42.4 75.569,42.073 75.213,42.073 z"
         id="path185"
         style="fill:#db2247" /><path
         d="m 78.735,52.199 0.274,-10.788 h 2.826 c 0.736,0 1.319,0.254 1.75,0.763 0.431,0.508 0.639,1.188 0.624,2.042 -0.024,1.307 -0.517,2.158 -1.476,2.553 0.482,0.294 0.792,0.619 0.929,0.972 0.138,0.353 0.223,1.038 0.256,2.055 0.039,1.211 0.149,2.013 0.331,2.403 h -2.1 c -0.123,-0.5 -0.176,-1.125 -0.16,-1.872 L 81.993,49.687 82,48.881 c 0.026,-1.243 -0.268,-1.864 -0.882,-1.864 h -0.329 l -0.119,5.182 h -1.935 z m 2.073,-6.082 h 0.388 c 0.73,0 1.107,-0.619 1.133,-1.856 0.026,-1.237 -0.324,-1.856 -1.05,-1.856 h -0.386 l -0.085,3.712 z"
         id="path187"
         style="fill:#db2247" /><path
         d="m 87.148,41.412 -0.143,9.703 h 2.737 l -0.012,1.084 h -4.675 l 0.187,-10.788 h 1.906 z"
         id="path189"
         style="fill:#db2247" /><path
         d="m 90.14,52.199 0.116,-10.788 h 2.726 c 1.938,0 2.901,1.802 2.889,5.406 -0.013,3.588 -1.038,5.382 -3.074,5.382 H 90.14 z m 1.94,-0.901 h 0.508 c 0.463,0 0.787,-0.325 0.968,-0.974 0.183,-0.649 0.279,-1.824 0.29,-3.523 0.011,-1.699 -0.07,-2.871 -0.241,-3.519 -0.171,-0.647 -0.487,-0.971 -0.948,-0.971 h -0.501 l -0.076,8.987 z"
         id="path191"
         style="fill:#db2247" /><path
         d="m 103.999,44.421 -0.888,0.269 c 0.04,-0.289 0.058,-0.53 0.057,-0.725 -0.006,-1.249 -0.477,-1.874 -1.406,-1.874 -0.735,0 -1.102,0.432 -1.099,1.297 0.001,0.648 0.415,1.204 1.241,1.668 1.596,0.891 2.4,2.208 2.415,3.953 0.006,1.022 -0.212,1.844 -0.655,2.463 -0.446,0.619 -1.041,0.929 -1.786,0.929 -1.649,0 -2.476,-1.038 -2.477,-3.113 0,-0.169 0.005,-0.378 0.016,-0.625 l 0.928,-0.333 c -0.068,0.459 -0.104,0.858 -0.104,1.196 0.003,1.341 0.479,2.011 1.428,2.011 0.761,0 1.138,-0.481 1.133,-1.446 -0.004,-0.717 -0.461,-1.346 -1.369,-1.89 -1.311,-0.78 -1.965,-2.027 -1.967,-3.739 -10e-4,-0.971 0.215,-1.751 0.645,-2.345 0.431,-0.593 0.997,-0.889 1.701,-0.889 1.444,0 2.173,1.065 2.187,3.193 z"
         id="path193"
         style="fill:#db2247" /><path
         d="m 109.348,41.412 0.015,1.084 h -2.342 l 0.035,3.253 h 1.986 l 0.015,1.084 h -1.989 l 0.046,4.282 h 2.774 l 0.015,1.084 h -4.71 l -0.091,-10.788 h 4.246 z"
         id="path195"
         style="fill:#db2247" /><path
         d="m 110.521,52.199 -0.165,-10.788 h 2.826 c 0.737,0 1.331,0.254 1.782,0.763 0.451,0.508 0.686,1.188 0.706,2.042 0.028,1.307 -0.429,2.158 -1.373,2.553 0.495,0.294 0.818,0.619 0.969,0.972 0.153,0.353 0.266,1.038 0.34,2.055 0.087,1.211 0.229,2.013 0.427,2.403 h -2.098 c -0.145,-0.5 -0.224,-1.125 -0.237,-1.872 l -0.021,-0.64 -0.025,-0.806 c -0.024,-1.243 -0.343,-1.864 -0.958,-1.864 h -0.329 l 0.091,5.182 h -1.935 z m 1.827,-6.082 h 0.386 c 0.73,0 1.083,-0.619 1.059,-1.856 -0.024,-1.237 -0.399,-1.856 -1.126,-1.856 h -0.385 l 0.066,3.712 z"
         id="path197"
         style="fill:#db2247" /><path
         d="m 118.496,41.412 0.278,10.788 h -1.933 L 116.59,41.412 h 1.906 z"
         id="path199"
         style="fill:#db2247" /><path
         d="m 123.89,41.412 0.034,1.084 h -2.341 l 0.097,3.253 h 1.986 l 0.035,1.084 h -1.989 l 0.126,4.282 h 2.773 l 0.036,1.084 h -4.71 l -0.293,-10.788 h 4.246 z"
         id="path201"
         style="fill:#db2247" /><path
         d="m 129.311,44.421 -0.879,0.269 c 0.027,-0.289 0.04,-0.53 0.032,-0.725 -0.048,-1.249 -0.538,-1.874 -1.47,-1.874 -0.734,0 -1.085,0.432 -1.055,1.297 0.023,0.648 0.455,1.204 1.295,1.668 1.624,0.891 2.475,2.208 2.543,3.953 0.042,1.022 -0.149,1.844 -0.573,2.463 -0.424,0.619 -1.01,0.929 -1.756,0.929 -1.648,0 -2.509,-1.038 -2.577,-3.113 -0.007,-0.169 -0.008,-0.378 -0.006,-0.625 l 0.915,-0.333 c -0.053,0.459 -0.075,0.858 -0.062,1.196 0.045,1.341 0.544,2.011 1.493,2.011 0.759,0 1.121,-0.481 1.084,-1.446 -0.026,-0.717 -0.505,-1.346 -1.431,-1.89 -1.334,-0.78 -2.031,-2.027 -2.089,-3.739 -0.033,-0.971 0.156,-1.751 0.569,-2.345 0.41,-0.593 0.969,-0.889 1.671,-0.889 1.446,0 2.21,1.065 2.296,3.193 z"
         id="path203"
         style="fill:#db2247" /><path
         d="m 58.741,87.565 1.347,-27.672 h 7.448 c 4.229,0 6.259,2.705 6.091,8.115 -0.171,5.464 -2.656,8.196 -7.455,8.196 h -1.768 l -0.48,11.361 h -5.183 z m 5.771,-13.906 h 1.146 c 1.86,0 2.864,-1.93 3.008,-5.792 0.136,-3.618 -0.714,-5.428 -2.549,-5.428 h -1.129 l -0.476,11.22 z"
         id="path205" /><path
         d="m 82.606,59.375 c 5.018,0 7.476,4.778 7.374,14.331 -0.103,9.555 -2.801,14.332 -8.096,14.332 -5.297,0 -7.796,-4.886 -7.503,-14.656 0.281,-9.338 3.022,-14.007 8.225,-14.007 z m -0.184,2.215 c -0.937,0 -1.588,0.836 -1.958,2.506 -0.37,1.671 -0.61,4.874 -0.721,9.609 -0.111,4.736 -0.017,7.939 0.283,9.61 0.303,1.671 0.936,2.506 1.901,2.506 0.964,0 1.631,-0.835 2.002,-2.506 0.369,-1.67 0.594,-4.874 0.677,-9.61 0.082,-4.721 -0.029,-7.92 -0.331,-9.598 -0.3,-1.678 -0.917,-2.517 -1.853,-2.517 z"
         id="path207" /><path
         d="m 105.679,59.894 -4.283,8.715 6.65,18.957 h -5.771 l -4.182,-12.138 -0.738,1.299 -0.017,10.839 h -5.182 l 0.218,-27.672 h 5.007 l -0.02,12.306 5.964,-12.307 h 2.354 z"
         id="path209" /><path
         d="m 120.163,59.894 0.077,2.781 h -6.167 l 0.161,8.344 h 5.264 l 0.073,2.781 h -5.282 l 0.214,10.984 h 7.419 l 0.08,2.781 h -12.628 l -0.363,-27.672 h 11.152 z"
         id="path211" /><path
         d="m 123.661,87.565 -0.848,-27.672 h 7.421 c 1.936,0 3.509,0.652 4.726,1.956 1.223,1.304 1.887,3.052 1.991,5.24 0.162,3.352 -0.995,5.535 -3.476,6.548 1.331,0.757 2.206,1.588 2.631,2.494 0.425,0.906 0.77,2.663 1.032,5.271 0.311,3.109 0.746,5.163 1.301,6.164 h -5.631 c -0.41,-1.283 -0.654,-2.884 -0.733,-4.803 l -0.093,-1.642 -0.112,-2.066 c -0.13,-3.189 -1.011,-4.783 -2.642,-4.783 h -0.877 l 0.49,13.294 h -5.18 z m 4.605,-15.603 h 1.029 c 1.933,0 2.834,-1.587 2.702,-4.761 -0.135,-3.174 -1.155,-4.762 -3.066,-4.762 h -1.017 l 0.352,9.523 z"
         id="path213" /><path
         d="m 96.866,53.299 c 0.886,0 1.328,0.85 1.328,2.55 0,1.7 -0.455,2.551 -1.364,2.551 -0.909,0 -1.359,-0.869 -1.353,-2.608 0.008,-1.662 0.47,-2.493 1.389,-2.493 z m -0.025,0.394 c -0.165,0 -0.277,0.149 -0.336,0.446 -0.059,0.298 -0.09,0.868 -0.092,1.709 -0.003,0.843 0.025,1.414 0.083,1.711 0.057,0.297 0.168,0.445 0.334,0.445 0.167,0 0.278,-0.148 0.338,-0.445 0.059,-0.297 0.088,-0.868 0.091,-1.711 0,-0.839 -0.028,-1.409 -0.085,-1.708 -0.057,-0.297 -0.168,-0.447 -0.333,-0.447 z"
         id="path215" /><path
         d="m 100.575,53.392 0.003,0.496 h -1.103 l 0.003,1.636 h 0.934 l 0.002,0.495 h -0.936 l 0.003,2.298 h -0.89 v -4.924 h 1.984 z"
         id="path217" /></g></g></svg>