<?xml version="1.0" encoding="utf-8"?>
<!-- Generator: Adobe Illustrator 15.0.2, SVG Export Plug-In . SVG Version: 6.00 Build 0)  -->
<!DOCTYPE svg PUBLIC "-//W3C//DTD SVG 1.1//EN" "http://www.w3.org/Graphics/SVG/1.1/DTD/svg11.dtd">
<svg version="1.1" id="Layer_1" xmlns="http://www.w3.org/2000/svg" xmlns:xlink="http://www.w3.org/1999/xlink" x="0px" y="0px"
	 width="200px" height="200px" viewBox="0 0 200 200" enable-background="new 0 0 200 200" xml:space="preserve">
<rect fill="none" width="200" height="200"/>
<g>
	<g>
		<g>
			<g>
				<path fill="#BE9819" d="M100,199.065c-13.373,0-26.348-2.619-38.561-7.785c-11.797-4.99-22.393-12.133-31.49-21.23
					s-16.24-19.692-21.229-31.488C3.555,126.347,0.934,113.373,0.934,100s2.621-26.347,7.787-38.561
					c4.988-11.797,12.131-22.392,21.229-31.489s19.693-16.24,31.49-21.23C73.652,3.554,86.627,0.935,100,0.935
					s26.348,2.619,38.561,7.785c11.797,4.99,22.391,12.133,31.488,21.23s16.24,19.692,21.23,31.489
					c5.166,12.214,7.785,25.188,7.785,38.561s-2.619,26.347-7.785,38.562c-4.99,11.796-12.133,22.391-21.23,31.488
					s-19.691,16.24-31.488,21.23C126.348,196.446,113.373,199.065,100,199.065z"/>
				<path d="M100,1.869c54.195,0,98.131,43.935,98.131,98.131S154.195,198.131,100,198.131c-54.197,0-98.131-43.935-98.131-98.131
					S45.803,1.869,100,1.869 M100,0C86.5,0,73.404,2.645,61.074,7.859c-11.908,5.036-22.602,12.247-31.785,21.43
					c-9.184,9.184-16.393,19.878-21.43,31.786C2.645,73.404,0,86.501,0,100s2.645,26.596,7.859,38.925
					c5.037,11.908,12.246,22.603,21.43,31.786c9.184,9.183,19.877,16.394,31.785,21.43C73.404,197.355,86.5,200,100,200
					c13.498,0,26.596-2.645,38.924-7.859c11.908-5.036,22.604-12.247,31.787-21.43c9.184-9.184,16.393-19.878,21.43-31.786
					C197.355,126.596,200,113.499,200,100s-2.645-26.596-7.859-38.925c-5.037-11.908-12.246-22.603-21.43-31.786
					c-9.184-9.183-19.879-16.394-31.787-21.43C126.596,2.645,113.498,0,100,0L100,0z"/>
			</g>
		</g>
		<g>
			<path d="M34.91,137.579c-9.062-15.695-12.676-16.965-12.676-16.965l-15.783,9.112c4.344,13.681,11.605,26.062,21.055,36.412
				l15.76-9.099C43.266,157.04,43.971,153.274,34.91,137.579z"/>
		</g>
		<g>
			<path d="M165.09,62.421c9.061,15.695,12.674,16.965,12.674,16.965l15.783-9.112c-4.344-13.68-11.605-26.062-21.053-36.412
				l-15.76,9.1C156.734,42.961,156.027,46.726,165.09,62.421z"/>
		</g>
		<g>
			<path d="M34.91,62.421c9.061-15.695,8.355-19.46,8.355-19.46l-15.76-9.1C18.057,44.212,10.795,56.594,6.451,70.273l15.783,9.112
				C22.234,79.386,25.848,78.116,34.91,62.421z"/>
		</g>
		<g>
			<path d="M177.764,120.614c0,0-3.613,1.27-12.674,16.965c-9.062,15.695-8.355,19.461-8.355,19.461l15.76,9.099
				c9.447-10.351,16.709-22.731,21.053-36.412L177.764,120.614z"/>
		</g>
		<g>
			<path d="M100,175.159c-18.123,0-21.031,2.494-21.031,2.494v18.219c6.775,1.479,13.812,2.259,21.031,2.259
				s14.254-0.78,21.029-2.259v-18.219C121.029,177.653,118.123,175.159,100,175.159z"/>
		</g>
		<g>
			<path d="M100,24.841c18.123,0,21.029-2.494,21.029-2.494V4.128C114.254,2.649,107.219,1.869,100,1.869s-14.256,0.78-21.031,2.259
				v18.219C78.969,22.347,81.877,24.841,100,24.841z"/>
		</g>
		<g>
			<path d="M100,172.212c-9.76,0-19.215-1.905-28.1-5.664c-4.273-1.808-8.398-4.046-12.258-6.653
				c-3.828-2.587-7.43-5.559-10.705-8.833c-3.273-3.274-6.246-6.876-8.832-10.705c-2.607-3.859-4.846-7.982-6.654-12.256
				c-3.758-8.887-5.664-18.34-5.664-28.101c0-9.76,1.906-19.214,5.664-28.1c1.809-4.274,4.047-8.397,6.654-12.257
				c2.586-3.829,5.559-7.431,8.832-10.705c3.275-3.274,6.877-6.246,10.705-8.833c3.859-2.607,7.984-4.846,12.258-6.653
				c8.885-3.759,18.34-5.664,28.1-5.664s19.213,1.905,28.1,5.664c4.273,1.808,8.396,4.046,12.256,6.653
				c3.83,2.587,7.432,5.559,10.705,8.833c3.275,3.274,6.246,6.876,8.834,10.705c2.607,3.859,4.846,7.982,6.652,12.257
				c3.76,8.886,5.664,18.34,5.664,28.1c0,9.761-1.904,19.214-5.664,28.101c-1.807,4.273-4.045,8.396-6.652,12.256
				c-2.588,3.829-5.559,7.431-8.834,10.705c-3.273,3.274-6.875,6.246-10.705,8.833c-3.859,2.607-7.982,4.846-12.256,6.653
				C119.213,170.307,109.76,172.212,100,172.212z"/>
		</g>
		<g>
			<path fill="#E0D86A" d="M100.084,172.228c-1.691,0-3.404-0.061-5.086-0.179c-0.846-0.061-1.703-0.137-2.547-0.226l0.658-6.196
				c0.771,0.083,1.555,0.151,2.328,0.206c1.537,0.109,3.1,0.164,4.646,0.164c2.275,0,4.57-0.119,6.82-0.354l0.646,6.197
				C105.086,172.098,102.572,172.228,100.084,172.228z M122.326,168.698l-1.936-5.924c4.338-1.415,8.578-3.311,12.6-5.633
				l0.027-0.016l3.092,5.409l-1.547-2.704l1.543,2.706l0.012-0.007l-0.012,0.007C131.709,165.075,127.072,167.148,122.326,168.698z
				 M77.688,168.679c-3.207-1.041-6.363-2.313-9.381-3.782c-1.49-0.727-2.977-1.514-4.418-2.344l3.109-5.399
				c1.316,0.757,2.674,1.479,4.037,2.141c2.758,1.343,5.643,2.506,8.576,3.458L77.688,168.679z M51.664,153.687
				c-3.736-3.363-7.133-7.144-10.094-11.236l5.049-3.652c2.703,3.737,5.805,7.189,9.213,10.258L51.664,153.687z M148.346,153.672
				l-4.164-4.636c3.092-2.777,5.938-5.876,8.455-9.211c0.258-0.34,0.518-0.688,0.77-1.037l5.043,3.657
				c-0.275,0.381-0.559,0.763-0.84,1.137C154.85,147.233,151.732,150.627,148.346,153.672z M34.025,129.385
				c-2.064-4.611-3.641-9.442-4.686-14.359l6.094-1.295c0.955,4.487,2.395,8.897,4.279,13.108L34.025,129.385z M165.982,129.356
				l-5.695-2.524c1.395-3.149,2.555-6.432,3.445-9.755c0.299-1.111,0.57-2.246,0.811-3.375l6.094,1.295
				c-0.262,1.234-0.561,2.477-0.887,3.692C168.777,122.325,167.508,125.913,165.982,129.356z M34.002,100.012l-6.23-0.006
				c0.002-1.665,0.062-3.351,0.18-5.008c0.236-3.344,0.713-6.71,1.412-10.005l6.094,1.297c-0.641,3.014-1.074,6.091-1.291,9.146
				C34.059,96.95,34.004,98.491,34.002,100.012z M172.227,99.991l-6.23-0.018v-0.057c0-2.704-0.166-5.426-0.498-8.089
				c-0.23-1.864-0.545-3.737-0.936-5.566l6.096-1.296c0.426,2.003,0.77,4.054,1.023,6.096c0.361,2.917,0.545,5.896,0.545,8.855
				V99.991z M39.717,73.161l-5.695-2.526c0.346-0.781,0.709-1.563,1.082-2.327c1.83-3.76,4-7.381,6.451-10.761l5.045,3.658
				c-2.24,3.087-4.223,6.395-5.895,9.83C40.365,71.732,40.033,72.448,39.717,73.161z M160.283,73.154
				c-0.932-2.08-1.988-4.148-3.143-6.146c-1.156-2.004-2.424-3.96-3.766-5.813l5.049-3.652c1.465,2.025,2.85,4.162,4.113,6.351
				c1.26,2.182,2.414,4.44,3.432,6.713L160.283,73.154z M55.824,50.958l-4.164-4.636c3.717-3.337,7.83-6.316,12.225-8.854
				l3.117,5.395C62.979,45.186,59.219,47.909,55.824,50.958z M144.16,50.938c-1.383-1.246-2.842-2.448-4.334-3.576
				c-2.166-1.636-4.465-3.157-6.832-4.52l3.107-5.4c2.592,1.492,5.109,3.156,7.48,4.948c1.635,1.235,3.23,2.553,4.746,3.916
				L144.16,50.938z M120.381,37.245c-1.09-0.354-2.201-0.684-3.305-0.979c-3.33-0.893-6.762-1.529-10.195-1.895l0.658-6.195
				c3.756,0.398,7.508,1.097,11.15,2.072c1.205,0.323,2.422,0.683,3.613,1.068L120.381,37.245z M79.6,37.228l-1.936-5.923
				c4.34-1.417,8.846-2.423,13.396-2.987c0.455-0.057,0.92-0.109,1.379-0.157l0.646,6.197c-0.42,0.044-0.842,0.093-1.258,0.145
				C87.674,35.017,83.559,35.933,79.6,37.228z"/>
		</g>
		<g>
			<g>
				<path fill="#009600" d="M100,160.686c-8.209,0-16.152-1.601-23.609-4.754c-3.588-1.517-7.053-3.397-10.295-5.588
					c-3.221-2.177-6.252-4.677-9.008-7.433c-2.754-2.756-5.256-5.786-7.432-9.008c-2.191-3.242-4.07-6.705-5.588-10.293
					c-3.154-7.458-4.754-15.401-4.754-23.61s1.6-16.152,4.754-23.61c1.518-3.588,3.396-7.051,5.588-10.293
					c2.176-3.222,4.676-6.252,7.432-9.008c2.756-2.755,5.787-5.255,9.008-7.433c3.242-2.19,6.707-4.071,10.295-5.588
					c7.457-3.154,15.4-4.754,23.609-4.754s16.152,1.6,23.609,4.754c3.588,1.517,7.051,3.397,10.293,5.588
					c3.223,2.178,6.252,4.678,9.008,7.433c2.756,2.756,5.256,5.786,7.434,9.008c2.189,3.242,4.07,6.705,5.588,10.293
					c3.154,7.458,4.754,15.401,4.754,23.61s-1.6,16.152-4.754,23.61c-1.518,3.588-3.398,7.051-5.588,10.293
					c-2.178,3.222-4.678,6.252-7.434,9.008s-5.785,5.256-9.008,7.433c-3.242,2.19-6.705,4.071-10.293,5.588
					C116.152,159.085,108.209,160.686,100,160.686z"/>
			</g>
		</g>
	</g>
	<g>
		<path id="path759_2_" fill="#FFFFFF" d="M117.101,89.264v27.763c0,1.705,0.607,2.422,2.09,2.422c1.538,0,1.98-0.662,1.98-2.367
			V89.209c0-1.483-0.717-1.979-2.09-1.979S117.101,87.726,117.101,89.264z M109.295,88.657c0-4.395,2.587-5.001,10.005-5.001
			c7.479,0,9.678,0.712,9.678,5.224v28.369c0,4.508-0.99,5.771-9.951,5.771c-8.357,0-9.731-1.154-9.731-5.498V88.657z"/>
		<path id="path755_1_" fill="#FFFFFF" d="M60.186,123.021h-9.398c0,0,0.109-1.1-0.274-3.134l-4.621-32.384
			c-0.165-1.045-0.712-2.859-0.712-2.859h8.631c0,0-0.055,1.65,0.055,2.641l3.463,28.697l2.31-28.424
			c0.109-1.1-0.22-2.914-0.22-2.914h9.07c0,0,0,1.705,0.109,2.695l3.463,28.149l2.477-28.095c0.11-1.1-0.055-2.75-0.055-2.75h5.005
			c0,0-0.388,1.814-0.497,2.859l-4.397,35.518h-9.016l-3.188-24.905L60.186,123.021z"/>
		<path id="path775_2_" fill="#FFFFFF" d="M103.657,117.855c0,4.395-2.699,5.165-10.122,5.165c-4.508,0-7.09-0.219-9.567-0.548
			v-14.188h7.036v8.796c0,1.377,0.664,2.367,2.531,2.367c1.874,0,2.309-0.88,2.309-2.309v-7.642c0-2.751-3.299-3.521-5.658-4.453
			c-3.631-1.432-6.218-1.542-6.218-6.875v-9.512c0-4.395,2.806-5.002,10.229-5.002c4.069,0,7.036,0.274,9.238,0.439v13.855h-6.93
			V89.1c0-1.538-0.661-1.926-2.309-1.926c-1.651,0-2.419,0.388-2.419,2.035v7.423c0,3.244,3.408,3.901,5.937,4.782
			c2.86,0.99,5.943,1.979,5.943,5.004V117.855z"/>
		<path id="path827_2_" fill="#FFFFFF" d="M142.511,88.326v16.825h2.145c1.374,0,1.924-1.76,1.924-3.135V90.581
			c0-1.21-0.77-2.255-2.088-2.255H142.511L142.511,88.326z M142.511,108.56v9.567c0,2.034,0.55,4.288,0.77,4.894h-8.961
			c0.274-1.32,0.385-2.639,0.385-4.233V89.536c0-1.596-0.274-3.135-0.605-4.893h13.911c4.729,0,6.378,1.264,6.378,4.893v13.525
			c0,4.288-1.596,5.498-4.564,5.498H142.511z"/>
	</g>
</g>
</svg>
